<svg width="76" height="55" viewBox="0 0 76 55" fill="#fff" xmlns="http://www.w3.org/2000/svg">
<path fill-rule="evenodd" clip-rule="evenodd" d="M27.612 50.4728V51.7582C27.612 53.4964 29.2755 54.972 31.0079 54.972H72.5671C74.3258 54.972 75.9629 53.4181 75.9629 51.4368C75.9629 40.151 66.6218 30.869 55.264 30.869C46.9113 30.869 42.0663 30.2237 35.3031 35.4586C30.906 38.8621 27.6117 44.9123 27.6117 50.4726L27.612 50.4728Z" fill="white"/>
<path fill-rule="evenodd" clip-rule="evenodd" d="M37.9614 13.0311C37.9614 17.5289 39.1151 20.6881 41.9623 23.5174C46.7075 28.2326 54.4581 28.8944 59.9099 24.8781C70.721 16.9135 65.0743 0.015625 51.7067 0.015625C48.9693 0.015625 46.0698 0.988655 44.0384 2.35833C40.966 4.42982 37.9614 8.57418 37.9614 13.0311Z" fill="white"/>
<path fill-rule="evenodd" clip-rule="evenodd" d="M6.91315 13.031C6.91315 17.5288 8.06689 20.6879 10.9141 23.5172C15.0095 27.5867 21.557 28.7387 26.8593 26.102C27.8039 25.6322 28.9949 24.8747 29.7563 24.1601C40.0962 14.4539 32.29 0.015625 20.8203 0.015625C17.9627 0.015625 15.127 0.917687 12.9904 2.35833C12.1824 2.90309 11.8195 3.32982 11.1386 3.89262C9.18569 5.50683 6.91346 9.48812 6.91346 13.0311L6.91315 13.031Z" fill="white"/>
<path fill-rule="evenodd" clip-rule="evenodd" d="M-0.0403389 49.9861C-0.0403389 51.7808 -0.129924 54.2902 2.76925 54.9071C3.65331 55.0951 19.6119 54.9674 21.3052 54.9674C21.1493 53.1054 20.82 54.0704 20.82 50.1468C20.82 46.0665 22.5148 41.1043 24.5445 37.6184L27.2478 33.8771C27.6302 33.4796 28.631 32.409 28.7437 31.9893C23.2566 30.7191 25.305 30.8644 19.2028 30.8644C8.62646 30.8644 -0.0406494 39.4765 -0.0406494 49.9861H-0.0403389Z" fill="white"/>
</svg>
