<svg width="104" height="89" viewBox="0 0 104 89" fill="none" xmlns="http://www.w3.org/2000/svg">
<path fill-rule="evenodd" clip-rule="evenodd" d="M25.5824 62.1141L23.2289 58.1309C22.1429 56.457 19.3032 51.5642 18.2292 50.46C16.5125 48.6953 13.5323 49.7878 10.4302 45.6172C7.84282 42.1385 7.70862 33.6195 7.70862 29.0791C7.70862 25.5936 8.0302 21.5456 8.45876 18.5517C8.96206 15.0355 9.34876 13.3499 12.2336 10.8746C14.8965 8.58978 17.7331 8.92956 20.9964 8.44175L41.2292 7.93798L49.261 8.44188C52.9007 8.9895 57.9412 8.48521 60.725 13.8914C62.0021 16.3718 62.2923 20.5343 62.5384 23.5498C62.613 24.4636 62.485 25.4875 62.5597 26.4008C62.8907 30.4424 62.6009 41.2821 60.6614 44.6129C58.7278 47.9334 56.2139 49.1986 52.6141 49.6154C51.4794 49.7468 49.7388 50.0015 48.5375 50.0114C45.7834 50.0339 43.139 50.4191 40.2066 50.4184C34.029 50.4167 33.3466 49.9368 30.873 54.1213L26.6396 60.9249C26.1892 61.6567 26.344 61.9084 25.5824 62.1139V62.1141ZM-0.00970459 26.4117V26.6821V26.9575C-0.00893403 32.7022 0.0320341 41.6029 1.81421 46.1137C3.61784 50.6783 7.31486 54.5349 11.6827 56.2528C13.569 56.9946 12.9157 56.515 13.9218 58.0943L19.2763 66.638C20.8898 69.3706 22.5487 70.732 26.1918 70.732C27.8611 70.732 29.3886 69.9714 30.3053 69.1422C31.9724 67.6341 34.8455 62.646 36.23 60.354C36.6424 59.6716 37.1632 59.1771 37.363 58.4208C39.3675 58.4208 49.1989 58.0465 51.6679 57.6881C54.2465 57.3135 55.9104 57.34 58.0558 56.5492C63.2438 54.6366 67.3394 50.3176 69.0277 44.8574C71.0118 38.4406 70.8925 19.32 68.9773 13.3521C67.168 7.71444 63.0723 3.63769 57.7333 1.73003C50.672 -0.793107 26.4674 0.0353977 19.5011 0.570565C14.333 0.967563 11.408 1.79516 8.02891 4.16495C7.4795 4.55027 7.50236 4.61215 7.03643 5.00902C4.53789 7.13672 2.68854 9.52155 1.58857 12.8427C0.630888 15.7344 -0.00957616 22.4403 -0.00957616 26.412L-0.00970459 26.4117Z" fill="white"/>
<path fill-rule="evenodd" clip-rule="evenodd" d="M96.2656 49.6002C96.2656 53.3458 95.9097 57.1881 95.466 60.488C95.2016 62.4544 94.8468 63.4957 93.9175 64.8741C91.5226 68.4263 88.2284 68.139 86.7073 69.2859C85.7877 69.9792 82.0084 76.5196 80.9116 78.2045C80.5367 78.7801 79.9807 79.541 79.8135 80.173H79.4073C79.231 79.5056 74.0559 71.2822 73.4055 70.6418C71.3859 68.6532 68.0825 69.798 65.2191 69.4732C58.1202 68.6681 51.5167 70.1188 47.8351 65.0797C44.1937 60.0956 39.1884 64.2983 40.5504 68.1271C40.9946 69.3759 42.2881 70.7469 43.1707 71.6384C45.3964 73.8868 47.9024 75.4143 51.093 76.1516C53.7783 76.7722 59.6085 77.141 62.5478 77.3014C63.5331 77.3551 64.6112 77.2456 65.5965 77.2994C66.643 77.3565 67.3041 77.5056 68.6422 77.5056L72.8686 84.3161C74.4424 86.7944 75.7042 88.996 79.8134 88.996C84.3877 88.996 85.8746 84.9186 87.8576 81.9387C89.7436 79.1046 90.7687 76.2151 92.635 75.4796C95.1807 74.4766 97.5494 72.8769 99.2836 70.7058C100.568 69.098 101.351 68.0764 102.158 66.0179C103.268 63.1884 103.836 58.2486 103.984 53.0356V47.3055C103.86 42.8363 103.455 38.6634 102.847 35.9756C102.054 32.4758 100.46 30.1472 98.3477 28.0042C96.3226 25.9499 93.6928 24.2697 90.4228 23.4935C88.0484 22.9299 81.1775 22.5156 78.3916 22.5156C75.42 22.5156 73.3114 27.7751 77.0259 29.8455C78.6026 30.7244 80.6885 30.2891 82.7744 30.6042C84.7764 30.9068 86.762 30.8112 88.664 31.2205C91.6388 31.8608 94.5215 34.5895 95.1695 37.5753C95.8598 40.7566 96.2654 45.8893 96.2654 49.6L96.2656 49.6002Z" fill="white"/>
<path fill-rule="evenodd" clip-rule="evenodd" d="M12.7864 20.6657C12.7864 23.1881 13.9143 25.1798 16.4425 25.1798H54.0184C56.9146 25.1798 58.9941 21.1539 56.6949 18.5776C56.311 18.1475 55.1805 17.3828 54.4246 17.3828H16.0364C14.5743 17.3828 12.7866 19.1886 12.7866 20.6657H12.7864Z" fill="white"/>
<path fill-rule="evenodd" clip-rule="evenodd" d="M12.7864 35.8496C12.7864 38.533 14.424 40.1585 17.0519 40.1585H35.332C41.235 40.1585 40.7037 32.1562 35.7382 32.1562H16.6457C14.7037 32.1562 12.7866 33.8951 12.7866 35.8496H12.7864Z" fill="white"/>
</svg>
