<svg width="239" height="270" viewBox="0 0 239 270" fill="none" xmlns="http://www.w3.org/2000/svg">
<path fill-rule="evenodd" clip-rule="evenodd" d="M112.688 158.71C119.19 158.71 126.906 158.007 126.906 168.204V196.687C126.906 207.244 115.761 208.722 112.166 201.957C110.122 198.112 111.109 180.957 111.109 174.533C107.054 173.587 102.978 171.54 103.338 166.195C103.655 161.481 107.323 158.71 112.689 158.71H112.688ZM74.248 133.919V270.003H163.767V133.919C163.767 130.685 160.151 127.062 156.921 127.062H81.0933C77.8645 127.062 74.248 130.685 74.248 133.919Z" fill="white"/>
<path fill-rule="evenodd" clip-rule="evenodd" d="M95.3115 44.2459C92.8121 43.6627 82.3904 36.7393 79.3439 34.922C76.325 33.1208 76.2931 32.1146 72.6684 32.1146C64.7465 32.1146 68.7119 43.8332 69.4805 49.5488L77.9278 103.855C78.5203 107.486 78.9363 111.233 83.1999 111.233H154.289C160.091 111.233 159.841 101.589 161.212 93.377L167.951 50.0196C169.115 41.3676 172.891 32.1142 163.767 32.1142C161.664 32.1142 159.858 33.8993 158.145 34.9216L147.748 41.3857C145.928 42.5086 144.232 43.7661 142.178 44.2455C139.442 42.4104 133.753 36.0705 130.988 33.3007C129.016 31.3259 127.43 29.7374 125.459 27.7622C117.491 19.7798 117.569 22.215 106.502 33.3007C103.736 36.0705 98.0479 42.4104 95.3118 44.2455L95.3115 44.2459Z" fill="white"/>
<path fill-rule="evenodd" clip-rule="evenodd" d="M0 167.674V261.561C0 264.015 0.96232 266.052 2.12711 267.342C3.22533 268.559 5.10113 270 7.37241 270H58.451V159.234H7.89906C3.32263 159.234 0.000393909 163.11 0.000393909 167.674H0Z" fill="white"/>
<path fill-rule="evenodd" clip-rule="evenodd" d="M179.564 269.997H230.643C234.504 269.997 238.015 266.04 238.015 261.558V183.494C238.015 178.93 234.692 175.055 230.116 175.055H179.564V269.997H179.564Z" fill="white"/>
<path fill-rule="evenodd" clip-rule="evenodd" d="M110.582 7.8535C110.582 18.1524 126.906 18.3414 126.906 7.8535C126.906 -2.61783 110.582 -2.61783 110.582 7.8535Z" fill="white"/>
<path fill-rule="evenodd" clip-rule="evenodd" d="M57.924 21.041C57.924 31.3399 74.2479 31.5289 74.2479 21.041C74.2479 10.5697 57.924 10.5697 57.924 21.041Z" fill="white"/>
<path fill-rule="evenodd" clip-rule="evenodd" d="M163.24 21.041C163.24 31.3399 179.564 31.5289 179.564 21.041C179.564 10.5697 163.24 10.5697 163.24 21.041Z" fill="white"/>
</svg>
