<svg width="58" height="58" viewBox="0 0 58 58" fill="none" xmlns="http://www.w3.org/2000/svg">
<path fill-rule="evenodd" clip-rule="evenodd" d="M39.1678 47.2675V39.7915C39.1678 39.2056 39.7551 38.3189 40.7536 38.3189H48.1164C49.0255 38.3189 49.7022 39.0119 49.7022 39.6782V47.4941C49.7022 48.1605 49.0255 48.8534 48.1164 48.8534H40.7536C39.8473 48.8534 39.1678 48.1739 39.1678 47.2677V47.2675ZM17.1928 48.8533H9.83005C8.92095 48.8533 8.24432 48.1604 8.24432 47.494V39.6781C8.24432 39.0118 8.92095 38.3188 9.83005 38.3188H17.1928C18.0991 38.3188 18.7787 38.9982 18.7787 39.9046V47.2674C18.7787 48.1737 18.0992 48.8531 17.1928 48.8531V48.8533ZM23.6494 47.1541V40.0179C23.6494 39.1423 24.3064 38.3188 25.1218 38.3188H32.8244C33.6399 38.3188 34.297 39.1423 34.297 40.0179V47.1541C34.297 48.0296 33.6399 48.8533 32.8244 48.8533H25.1218C24.3064 48.8533 23.6494 48.0297 23.6494 47.1541ZM39.1678 32.8818V25.1792C39.1678 24.3637 39.9913 23.7067 40.8669 23.7067H48.0031C48.8786 23.7067 49.7022 24.3637 49.7022 25.1792V32.8818C49.7022 33.6972 48.8787 34.3543 48.0031 34.3543H40.8669C39.9913 34.3543 39.1678 33.6972 39.1678 32.8818ZM8.24419 32.8818V25.1792C8.24419 24.3637 9.06769 23.7067 9.9432 23.7067H17.0795C17.955 23.7067 18.7785 24.3637 18.7785 25.1792V32.8818C18.7785 33.6868 17.9208 34.3543 17.0795 34.3543H9.9432C9.06769 34.3543 8.24419 33.6972 8.24419 32.8818ZM27.9537 33.2216C26.6138 33.2216 26.6271 32.8578 25.2068 31.4375C24.6528 30.8836 23.4227 29.9836 23.4227 29.0305C23.4227 27.9919 24.4826 27.1672 25.4898 27.4067C26.1222 27.5571 27.2618 28.7313 27.6139 29.257C28.9506 28.3619 31.5068 24.8394 32.5979 24.8394C33.7639 24.8394 34.5236 25.4419 34.5236 26.4253C34.5236 27.5127 32.5439 29.1413 31.5501 30.1349C30.9122 30.7729 28.7553 33.2216 27.9537 33.2216ZM-0.0248413 52.1383C-0.0248413 55.1397 2.86387 58.0284 5.86533 58.0284H52.0808C55.0823 58.0284 57.971 55.1397 57.971 52.1383V17.9297H-0.0248413V52.1383Z" fill="white"/>
<path fill-rule="evenodd" clip-rule="evenodd" d="M10.8498 1.84368V3.65612H5.97904C2.81256 3.65612 -0.0244141 6.70542 -0.0244141 9.433V14.6436H57.9714V9.433C57.9714 8.63463 57.6166 7.70106 57.3309 7.12832C56.4044 5.27074 54.3322 3.65612 51.968 3.65612H50.3821V9.20643C50.3821 10.9224 47.1464 11.5091 47.0919 8.87195C47.0466 6.68795 47.1895 3.85971 47.1009 1.84005C47.0523 0.73327 46.3341 0.121959 45.5595 0.03125H45.154C44.3425 0.126259 43.5858 0.796162 43.5858 2.07012V3.65598H39.5079V9.09301C39.5079 10.2264 37.9336 11.3558 36.697 10.2048C36.2944 9.82997 36.2174 9.73241 36.2164 8.98618L36.2093 1.97041C36.1615 1.50087 36.043 1.01816 35.7933 0.687311C35.4855 0.279457 35.0448 0.0755966 34.601 0.03125H34.2234C33.8123 0.0721026 33.4318 0.244248 33.1908 0.510731C32.5134 1.26005 32.7113 2.35931 32.7113 3.65612H28.86C28.3248 3.65612 28.5199 4.53579 28.5202 5.46841C28.5204 6.22365 28.52 6.97875 28.5202 7.73385C28.5203 8.54929 28.8237 10.679 26.9343 10.679C24.6719 10.679 25.2353 7.68265 25.2353 5.35513C25.2353 4.19177 25.2631 2.9967 25.2408 1.83804C25.2212 0.817798 24.5499 0.166709 23.7991 0.03125H23.2148C22.4331 0.175175 21.7238 0.913613 21.7238 2.40998V3.65598H17.646V8.97986C17.646 11.1977 14.4009 11.307 14.3544 8.98658C14.3106 6.80714 14.453 3.97461 14.3634 1.95468C14.3391 1.40707 14.2305 1.00325 13.9425 0.67656C13.5963 0.283757 13.1778 0.079225 12.7622 0.03125H12.3769C11.5607 0.125319 10.8496 0.81296 10.8496 1.84368H10.8498Z" fill="white"/>
<path fill-rule="evenodd" clip-rule="evenodd" d="M11.5291 45.5662H15.4936V41.6016H11.5291V45.5662Z" fill="white"/>
<path fill-rule="evenodd" clip-rule="evenodd" d="M42.4526 45.5662H46.4172V41.6016H42.4526V45.5662Z" fill="white"/>
<path fill-rule="evenodd" clip-rule="evenodd" d="M11.5291 30.9529H15.4936V27.1016H11.5291V30.9529Z" fill="white"/>
<path fill-rule="evenodd" clip-rule="evenodd" d="M42.4526 30.9529H46.4172V27.1016H42.4526V30.9529Z" fill="white"/>
<path fill-rule="evenodd" clip-rule="evenodd" d="M27.0475 45.5662H30.8988V41.6016H27.0475V45.5662Z" fill="white"/>
</svg>
