<svg width="81" height="92" viewBox="0 0 81 92" fill="#fff" xmlns="http://www.w3.org/2000/svg">
<path fill-rule="evenodd" clip-rule="evenodd" d="M-0.00854492 14.5619V77.4484C-0.00854492 85.474 6.77469 92.0021 13.3065 92.0021H49.1684C53.3891 92.0021 53.7293 85.0111 49.1741 84.8095C46.965 84.7116 44.4847 84.8152 42.2446 84.8152C33.7679 84.8152 22.6527 85.0462 14.5432 84.8212C10.4892 84.7087 7.27038 81.6489 7.27038 77.9874V14.0226C7.27038 10.276 10.5526 7.19496 14.9044 7.19496H57.3351C60.6472 7.19496 62.8097 8.67165 64.0469 10.8234C65.3635 13.1133 64.9691 17.2875 64.9691 20.4909C64.9691 22.6383 64.6807 34.5119 65.2481 36.0201C66.5865 39.5778 72.2482 38.9297 72.2482 34.3261V15.2804C72.2482 12.8428 71.8871 10.8427 71.2127 9.14122C69.2475 4.18378 64.1064 0.0078125 58.9329 0.0078125H13.3067C6.72714 0.0078125 -0.00837447 6.56771 -0.00837447 14.5617L-0.00854492 14.5619Z" fill="white"/>
<path fill-rule="evenodd" clip-rule="evenodd" d="M65.1465 49.0622V51.5775C63.069 51.6243 61.096 53.4234 59.859 54.8508C55.9007 59.4185 56.812 67.0654 62.9103 70.7302C67.0301 73.2061 73.6682 69.9803 73.6682 74.7557C73.6682 76.7174 73.9959 79.2477 70.4726 79.2477C62.4153 79.2477 64.7804 79.404 63.5741 76.1676C63.3464 75.5567 62.9175 75.0181 62.4186 74.6419C59.7774 72.6501 56.625 74.9643 56.625 77.451C56.625 82.2122 60.4914 86.4349 65.1467 86.4349V88.4113C65.1467 90.6172 66.8424 91.8957 68.5976 92.0049H69.0842C70.7146 91.9033 72.2661 90.7697 72.4203 88.4062C72.6767 84.4796 71.8768 87.6287 76.0573 85.0796C82.884 80.9173 82.5254 69.6191 75.564 65.8302C71.6252 63.6864 68.3373 65.4343 66.1427 64.2252C64.1671 63.1368 63.9141 58.4055 67.9873 58.4055C73.5929 58.4055 71.7235 58.9572 72.7215 61.3403C74.357 65.2457 79.7047 63.7639 79.7047 60.0225C79.7047 55.498 75.5548 51.4685 72.4258 51.3979C72.4258 48.683 72.5553 45.4688 68.52 45.4688C66.6835 45.4688 65.1469 47.2527 65.1469 49.0623L65.1465 49.0622Z" fill="white"/>
<path fill-rule="evenodd" clip-rule="evenodd" d="M28.3969 20.3122C28.3969 22.1061 29.9265 23.9057 31.77 23.9057H54.8495C59.2455 23.9057 59.2455 16.7188 54.8495 16.7188H31.77C29.9265 16.7188 28.3969 18.5182 28.3969 20.3123V20.3122Z" fill="white"/>
<path fill-rule="evenodd" clip-rule="evenodd" d="M28.3969 34.6872C28.3969 36.4811 29.9265 38.2807 31.77 38.2807H54.8495C59.2455 38.2807 59.2455 31.0938 54.8495 31.0938H31.77C29.9265 31.0938 28.3969 32.8932 28.3969 34.6873V34.6872Z" fill="white"/>
<path fill-rule="evenodd" clip-rule="evenodd" d="M28.3969 49.0622C28.3969 50.8561 29.9265 52.6557 31.77 52.6557H54.8495C59.2455 52.6557 59.2455 45.4688 54.8495 45.4688H31.77C29.9265 45.4688 28.3969 47.2682 28.3969 49.0623V49.0622Z" fill="white"/>
<path fill-rule="evenodd" clip-rule="evenodd" d="M28.3969 63.4372C28.3969 65.2311 29.9265 67.0307 31.77 67.0307H47.748C52.1441 67.0307 52.1441 59.8438 47.748 59.8438H31.77C29.9265 59.8438 28.3969 61.6432 28.3969 63.4373V63.4372Z" fill="white"/>
<path fill-rule="evenodd" clip-rule="evenodd" d="M14.1941 20.3122C14.1941 22.1061 15.7238 23.9057 17.5672 23.9057H19.8752C24.2712 23.9057 24.2712 16.7188 19.8752 16.7188H17.5672C15.7238 16.7188 14.1941 18.5182 14.1941 20.3123V20.3122Z" fill="white"/>
<path fill-rule="evenodd" clip-rule="evenodd" d="M14.1941 34.6872C14.1941 36.4811 15.7238 38.2807 17.5672 38.2807H19.8752C24.2712 38.2807 24.2712 31.0938 19.8752 31.0938H17.5672C15.7238 31.0938 14.1941 32.8932 14.1941 34.6873V34.6872Z" fill="white"/>
<path fill-rule="evenodd" clip-rule="evenodd" d="M14.1941 49.0622C14.1941 50.8561 15.7238 52.6557 17.5672 52.6557H19.8752C24.2712 52.6557 24.2712 45.4688 19.8752 45.4688H17.5672C15.7238 45.4688 14.1941 47.2682 14.1941 49.0623V49.0622Z" fill="white"/>
<path fill-rule="evenodd" clip-rule="evenodd" d="M14.1941 63.4372C14.1941 65.2311 15.7238 67.0307 17.5672 67.0307H19.8752C24.2712 67.0307 24.2712 59.8438 19.8752 59.8438H17.5672C15.7238 59.8438 14.1941 61.6432 14.1941 63.4373V63.4372Z" fill="white"/>
</svg>
