<svg width="215" height="188" viewBox="0 0 215 188" fill="none" xmlns="http://www.w3.org/2000/svg">
<path fill-rule="evenodd" clip-rule="evenodd" d="M173.708 114.308C175.458 102.367 183.503 95.2887 195.901 95.2887H214.577V56.5071C214.577 51.7437 213.126 48.4447 210.201 46.5169C206.613 44.1529 203.461 44.5358 197.816 44.5358H11.548C2.71954 44.5669 4.84774 43.2537 0.0571399 42.1406V161.846C0.0571399 168.858 -0.55721 175.234 2.24297 179.766C4.58478 183.555 8.57822 187.223 14.4193 187.223H200.211C208.434 187.223 214.573 179.895 214.573 170.947V136.47H192.549H192.544C182.115 136.467 172.127 125.049 173.708 114.308L173.708 114.308Z" fill="white"/>
<path fill-rule="evenodd" clip-rule="evenodd" d="M27.8244 34.0009C30.1841 34.0009 70.7375 19.1445 77.4245 16.558L82.6914 14.648C83.8846 14.0737 83.3501 14.3231 83.8488 13.8866C65.017 13.8866 46.1804 13.8866 27.3485 13.8866C22.7139 13.8866 10.2395 13.3746 6.611 14.6967C-3.89123 18.5119 0.191296 33.9962 8.67661 33.9962H27.8291L27.8248 34.0005L27.8244 34.0009Z" fill="white"/>
<path fill-rule="evenodd" clip-rule="evenodd" d="M106.558 16.9604C101.821 18.7945 61.8511 32.7248 60.3909 33.9982H165.735C163.883 30.5039 155.026 3.63079 153.283 0C151.822 0.703108 149.136 1.61917 147.361 2.2153L123.796 10.7364C121.797 11.511 120.168 12.0052 118.187 12.7887C114.207 14.3602 110.596 15.3978 106.558 16.9604Z" fill="white"/>
<path fill-rule="evenodd" clip-rule="evenodd" d="M169.563 13.8809C169.888 16.4141 172.23 21.7787 173.209 24.6014L176.018 32.3299C176.517 33.4162 176.308 33.9951 177.701 33.9951H193.982V24.4189C193.982 11.2364 178.952 13.8809 169.563 13.8809H169.563Z" fill="white"/>
<path fill-rule="evenodd" clip-rule="evenodd" d="M195.897 105.821C183.155 105.821 182.131 117.618 186.187 122.24C187.443 123.664 190.159 125.935 192.545 125.935H214.573V105.82H195.897V105.821Z" fill="white"/>
</svg>
