<svg width="26" height="26" viewBox="0 0 26 26" fill="none" xmlns="http://www.w3.org/2000/svg">
<path d="M21.75 0.5H4.25C2.17984 0.502289 0.502289 2.17984 0.5 4.25V15.5854V21.75C0.502289 23.8202 2.17984 25.4977 4.25 25.5H21.75C21.9779 25.4997 22.2027 25.4725 22.4244 25.4313C22.5071 25.4162 22.5859 25.3934 22.6665 25.373C22.799 25.3391 22.9291 25.2997 23.0571 25.2514C23.1502 25.2166 23.2411 25.18 23.3305 25.1381C23.4355 25.0887 23.5358 25.0314 23.6361 24.9722C23.7301 24.917 23.825 24.8652 23.9135 24.8022C23.9208 24.797 23.929 24.7936 23.9363 24.7883C23.9456 24.7816 23.9536 24.7733 23.9625 24.7661C23.9796 24.7522 24.0011 24.7455 24.0167 24.7298C24.025 24.7215 24.0276 24.7104 24.0353 24.7017C24.9194 24.0158 25.4987 22.9554 25.5 21.75V18.0879V4.25C25.4977 2.17984 23.8202 0.502289 21.75 0.5ZM22.4687 24.1317C22.2355 24.204 21.9944 24.2498 21.75 24.25H4.25C2.87 24.2482 1.75175 23.13 1.75 21.75V15.8442L6.45337 11.1409C7.3084 10.2888 8.6916 10.2888 9.54663 11.1409L13.8027 15.3965C13.8051 15.399 13.8057 15.4023 13.8081 15.4047L22.5193 24.116C22.5026 24.1214 22.4856 24.1266 22.4687 24.1317ZM24.25 21.75C24.2492 22.3954 23.9975 22.9777 23.5957 23.4212L15.1352 14.9614L16.4546 13.6421C17.3186 12.8145 18.6814 12.8145 19.5454 13.6421L24.25 18.3467V21.75ZM24.25 16.5791L20.4292 12.7583C19.087 11.418 16.913 11.418 15.5708 12.7583L14.2514 14.0777L10.4304 10.2571C9.08734 8.91675 6.91266 8.91675 5.56958 10.2571L1.75 14.0767V4.25C1.75175 2.87 2.87 1.75175 4.25 1.75H21.75C23.13 1.75175 24.2482 2.87 24.25 4.25V16.5791ZM14.875 5.5C13.8395 5.5 13 6.33946 13 7.375C13 8.41054 13.8395 9.25 14.875 9.25C15.9101 9.24886 16.7489 8.41008 16.75 7.375C16.75 6.33946 15.9105 5.5 14.875 5.5ZM14.875 8C14.5298 8 14.25 7.72015 14.25 7.375C14.25 7.02985 14.5298 6.75 14.875 6.75C15.2199 6.75069 15.4993 7.03008 15.5 7.375C15.5 7.72015 15.2202 8 14.875 8Z" fill="#D9D9D9"/>
</svg>
