<svg width="42" height="37" viewBox="0 0 42 37" fill="none" xmlns="http://www.w3.org/2000/svg">
<path d="M15.3984 0C13.0195 0 10.9688 1.67969 10.5 4.01172L10.0938 6H5C2.23828 6 0 8.23828 0 11V32C0 34.7617 2.23828 37 5 37H37C39.7617 37 42 34.7617 42 32V11C42 8.23828 39.7617 6 37 6H31.9062L31.5 4.01172C31.0312 1.67578 28.9805 0 26.6016 0H15.3984ZM15.3984 2H26.6016C28.0235 2 29.2617 3.01172 29.543 4.40625L29.9414 6.39453C30.1328 7.32812 30.9531 8 31.9063 8H37C38.6524 8 40 9.34766 40 11V32C40 33.6523 38.6524 35 37 35H5.00001C3.34767 35 2.00001 33.6523 2.00001 32V11C2.00001 9.34766 3.34767 8 5.00001 8H10.0938C11.0469 8 11.8672 7.32813 12.0586 6.39453L12.457 4.40625C12.7383 3.01172 13.9766 2 15.3984 2ZM21 11C15.4766 11 11 15.4766 11 21C11 26.5234 15.4766 31 21 31C26.5234 31 31 26.5234 31 21C31 15.4766 26.5234 11 21 11ZM21 13C25.4102 13 29 16.5898 29 21C29 25.4102 25.4102 29 21 29C16.5898 29 13 25.4102 13 21C13 16.5898 16.5898 13 21 13Z" fill="#838383"/>
</svg>
