<svg width="20" height="22" viewBox="0 0 20 22" fill="none" xmlns="http://www.w3.org/2000/svg">
<path fill-rule="evenodd" clip-rule="evenodd" d="M16.0745 18.5091C15.3212 18.5091 14.0185 18.7099 14.0185 17.6184V16.4463C14.0185 15.9614 14.4824 15.5556 14.953 15.5556H16.0278C16.5114 15.5556 16.9624 16.0078 16.9624 16.4932V17.5715C16.9624 18.0406 16.5475 18.5091 16.0745 18.5091ZM3.03745 17.5715V16.4932C3.03745 16.0078 3.48841 15.5556 3.97198 15.5556H5.04679C5.51435 15.5556 5.98132 15.9718 5.98132 16.4463C5.98132 17.2021 6.18162 18.5091 5.09349 18.5091H3.92528C3.45233 18.5091 3.03745 18.0406 3.03745 17.5715ZM8.50453 17.431C8.50453 16.7298 8.36694 15.5558 9.53264 15.5558C10.3242 15.5558 11.4953 15.3794 11.4953 16.6341C11.4953 17.1973 11.5723 17.7628 11.2705 18.1432C10.8593 18.6615 10.2736 18.5093 9.34566 18.5093C9.11815 18.5093 8.86865 18.3016 8.74766 18.1717C8.59271 18.0052 8.50453 17.7372 8.50453 17.4312V17.431ZM16.0278 13.0241H14.953C14.4855 13.0241 14.0185 12.6079 14.0185 12.1333C14.0185 11.3775 13.8182 10.0706 14.9063 10.0706H16.0745C16.5475 10.0706 16.9624 10.5391 16.9624 11.0082V12.0865C16.9624 12.5717 16.5114 13.0241 16.0278 13.0241ZM3.03745 12.0865V11.0082C3.03745 10.536 3.44191 10.0706 3.92528 10.0706C4.67862 10.0706 5.98132 9.8696 5.98132 10.9613V12.1333C5.98132 12.6079 5.51435 13.0241 5.04679 13.0241H3.97198C3.48841 13.0241 3.03745 12.5717 3.03745 12.0865ZM8.50453 11.9457C8.50453 11.454 8.43351 10.7648 8.72489 10.4322C9.1745 9.91877 9.67659 10.0706 10.654 10.0706C11.0341 10.0706 11.4951 10.5139 11.4951 11.1489C11.4951 11.8501 11.6327 13.0241 10.467 13.0241C9.67543 13.0241 8.50433 13.2003 8.50433 11.9457H8.50453ZM0 18.7904C0 20.0869 0.838045 21.0408 1.86925 21.0408H18.1306C18.7114 21.0408 19.2117 20.6712 19.4973 20.3495C19.8298 19.9749 19.9996 19.4823 19.9996 18.7906V7.53906H0V18.7906V18.7904Z" fill="#4A4A4A"/>
<path fill-rule="evenodd" clip-rule="evenodd" d="M0 3.79014V6.55608H19.9996V3.79014C19.9996 2.4938 19.1616 1.53975 18.1304 1.53975H17.4762C17.4762 2.55188 17.3095 3.32337 16.3717 3.80698C15.068 4.47916 13.5044 3.52568 13.5044 2.0555V1.53975H6.49519V2.0555C6.49519 3.54834 4.90825 4.45534 3.6588 3.82286C3.36106 3.67224 3.29217 3.60138 3.07161 3.38068C2.54308 2.85177 2.5234 2.3066 2.5234 1.53975C1.68979 1.53975 1.1601 1.49019 0.502287 2.23129C0.169809 2.6057 0 3.09822 0 3.79014Z" fill="#4A4A4A"/>
<path fill-rule="evenodd" clip-rule="evenodd" d="M3.50488 1.02087V2.05237C3.50488 3.37348 5.51422 3.33399 5.51422 2.09922V0.974024C5.51422 -0.260747 3.50488 -0.300047 3.50488 1.02087Z" fill="#4A4A4A"/>
<path fill-rule="evenodd" clip-rule="evenodd" d="M14.4863 0.974096V2.09929C14.4863 3.33406 16.4957 3.37336 16.4957 2.05244V1.02095C16.4957 -0.300168 14.4863 -0.260674 14.4863 0.974096Z" fill="#4A4A4A"/>
</svg>
