<svg width="30" height="30" viewBox="0 0 30 30" fill="none" xmlns="http://www.w3.org/2000/svg">
<path d="M12.1375 8.38742L13.75 6.76242V21.2499C13.75 21.5814 13.8817 21.8994 14.1161 22.1338C14.3505 22.3682 14.6685 22.4999 15 22.4999C15.3315 22.4999 15.6495 22.3682 15.8839 22.1338C16.1183 21.8994 16.25 21.5814 16.25 21.2499V6.76242L17.8625 8.38742C17.9787 8.50458 18.117 8.59758 18.2693 8.66104C18.4216 8.7245 18.585 8.75717 18.75 8.75717C18.915 8.75717 19.0784 8.7245 19.2307 8.66104C19.383 8.59758 19.5213 8.50458 19.6375 8.38742C19.7547 8.27122 19.8477 8.13297 19.9111 7.98064C19.9746 7.82832 20.0072 7.66494 20.0072 7.49992C20.0072 7.33491 19.9746 7.17153 19.9111 7.0192C19.8477 6.86688 19.7547 6.72863 19.6375 6.61242L15.8875 2.86242C15.7713 2.74526 15.633 2.65227 15.4807 2.58881C15.3284 2.52535 15.165 2.49268 15 2.49268C14.835 2.49268 14.6716 2.52535 14.5193 2.58881C14.367 2.65227 14.2287 2.74526 14.1125 2.86242L10.3625 6.61242C10.1271 6.8478 9.99489 7.16705 9.99489 7.49992C9.99489 7.8328 10.1271 8.15204 10.3625 8.38742C10.5979 8.6228 10.9171 8.75504 11.25 8.75504C11.5829 8.75504 11.9021 8.6228 12.1375 8.38742ZM22.5 11.2499H20C19.6685 11.2499 19.3505 11.3816 19.1161 11.616C18.8817 11.8505 18.75 12.1684 18.75 12.4999C18.75 12.8314 18.8817 13.1494 19.1161 13.3838C19.3505 13.6182 19.6685 13.7499 20 13.7499H22.5C22.8315 13.7499 23.1495 13.8816 23.3839 14.116C23.6183 14.3505 23.75 14.6684 23.75 14.9999V23.7499C23.75 24.0814 23.6183 24.3994 23.3839 24.6338C23.1495 24.8682 22.8315 24.9999 22.5 24.9999H7.5C7.16848 24.9999 6.85054 24.8682 6.61612 24.6338C6.3817 24.3994 6.25 24.0814 6.25 23.7499V14.9999C6.25 14.6684 6.3817 14.3505 6.61612 14.116C6.85054 13.8816 7.16848 13.7499 7.5 13.7499H10C10.3315 13.7499 10.6495 13.6182 10.8839 13.3838C11.1183 13.1494 11.25 12.8314 11.25 12.4999C11.25 12.1684 11.1183 11.8505 10.8839 11.616C10.6495 11.3816 10.3315 11.2499 10 11.2499H7.5C6.50544 11.2499 5.55161 11.645 4.84835 12.3483C4.14509 13.0515 3.75 14.0054 3.75 14.9999V23.7499C3.75 24.7445 4.14509 25.6983 4.84835 26.4016C5.55161 27.1048 6.50544 27.4999 7.5 27.4999H22.5C23.4946 27.4999 24.4484 27.1048 25.1517 26.4016C25.8549 25.6983 26.25 24.7445 26.25 23.7499V14.9999C26.25 14.0054 25.8549 13.0515 25.1517 12.3483C24.4484 11.645 23.4946 11.2499 22.5 11.2499Z" fill="black" fill-opacity="0.25"/>
</svg>
