<svg version="1.1" xmlns="http://www.w3.org/2000/svg" xmlns:xlink="http://www.w3.org/1999/xlink" width="30px" height="30px" viewBox="0,0,256,256"><g fill="#4a9f80" fill-rule="nonzero" stroke="none" stroke-width="1" stroke-linecap="butt" stroke-linejoin="miter" stroke-miterlimit="10" stroke-dasharray="" stroke-dashoffset="0" font-family="none" font-weight="none" font-size="none" text-anchor="none" style="mix-blend-mode: normal"><g transform="scale(8.53333,8.53333)"><path d="M13,3c-6.075,0 -11,4.477 -11,10c0,2.83752 1.30652,5.39284 3.39453,7.21289c-0.30055,0.97801 -0.92556,1.95138 -2.07031,2.81836c-0.00076,0.00058 -0.00119,0.00137 -0.00195,0.00195c-0.22475,0.08626 -0.35613,0.32043 -0.3126,0.5572c0.04353,0.23677 0.2496,0.40891 0.49033,0.40959c0.03547,-0.00015 0.07083,-0.00408 0.10547,-0.01172c1.93462,-0.00676 3.58579,-0.83202 4.90039,-1.86719c1.37335,0.56025 2.89137,0.87891 4.49414,0.87891c6.075,0 11,-4.477 11,-10c0,-5.523 -4.925,-10 -11,-10zM9,10h8c0.552,0 1,0.448 1,1c0,0.552 -0.448,1 -1,1h-8c-0.552,0 -1,-0.448 -1,-1c0,-0.552 0.448,-1 1,-1zM9,14h6c0.552,0 1,0.448 1,1c0,0.552 -0.448,1 -1,1h-6c-0.552,0 -1,-0.448 -1,-1c0,-0.552 0.448,-1 1,-1zM25.77734,15.16602c-1.031,5.191 -5.68327,9.22748 -11.44727,9.77148c1.448,1.273 3.45392,2.0625 5.66992,2.0625c1.05608,0 2.06134,-0.18442 2.98438,-0.50977c1.22731,0.85736 2.71273,1.49309 4.41406,1.49805c0.03336,0.00737 0.0674,0.01129 0.10156,0.01172c0.24202,-0.00008 0.44923,-0.17348 0.49198,-0.41169c0.04274,-0.23821 -0.09126,-0.47284 -0.31815,-0.55706c-0.9159,-0.69507 -1.50356,-1.45928 -1.85547,-2.23828c1.34875,-1.25303 2.18164,-2.93585 2.18164,-4.79297c0,-1.877 -0.84866,-3.57698 -2.22266,-4.83398z"></path></g></g></svg>