<svg version="1.1" xmlns="http://www.w3.org/2000/svg" xmlns:xlink="http://www.w3.org/1999/xlink" width="30px" height="30px" viewBox="0,0,256,256"><g fill="#4a9f80" fill-rule="nonzero" stroke="none" stroke-width="1" stroke-linecap="butt" stroke-linejoin="miter" stroke-miterlimit="10" stroke-dasharray="" stroke-dashoffset="0" font-family="none" font-weight="none" font-size="none" text-anchor="none" style="mix-blend-mode: normal"><g transform="scale(8.53333,8.53333)"><path d="M4,4v20c0,1.1 0.9,2 2,2h12l2,-2l4,-4l2,-2v-14h-1l-2,1l-1.98047,-1l-2.01953,1l-2.02734,-1l-1.97266,1l-1.96094,-1l-2.03906,1l-1.97852,-1l-2.02148,1l-2.02734,-1zM9.01172,6.23633l1.08594,0.54883l0.88867,0.44922l0.89453,-0.4375l1.14063,-0.56055l1.07031,0.54492l0.9043,0.46289l0.9082,-0.46094l1.08008,-0.54687l1.13086,0.55859l0.88672,0.43555l0.88477,-0.4375l1.125,-0.55664l1.08594,0.54883l0.89648,0.45313l0.90039,-0.44922l0.10547,-0.05273v11.26367h-4h-4v1h2v1h-2v1h2v3h-12v-17.26367l0.11523,0.05859l0.88672,0.43555l0.88477,-0.4375zM8,9v2h14v-2zM8,12v7h7v-7zM16,12v1h6v-1zM10,13v1l1,-1h2l1,1h-2v2l1,-1h1v1v1l-1,1h-3l-1,-1v-3zM12,16l-1,1h2v-1zM11,17v-3h-1v3zM16,14v1h6v-1zM16,16v1h6v-1zM8,20v1h7v-1z"></path></g></g></svg>