<svg width="17" height="17" viewBox="0 0 17 17" fill="none" xmlns="http://www.w3.org/2000/svg">
<path fill-rule="evenodd" clip-rule="evenodd" d="M11.8222 1.30505C11.9095 1.33205 12.0628 1.41855 12.1474 1.46659C12.5083 1.67137 12.6781 1.76527 13.0262 2.00363L13.5596 2.40957C13.6286 2.46997 14.0045 2.78148 14.0468 2.86758C14.0612 2.87485 14.051 2.86901 14.0685 2.8824C14.2718 3.0385 14.8812 3.85622 15.006 4.03981C15.9834 5.47686 16.4675 7.27493 16.3071 9.10849C16.212 10.1953 15.8276 11.4464 15.2784 12.3524C15.0537 12.723 15.0461 12.6561 15.1278 13.1612C15.1776 13.4688 15.2292 13.7645 15.2828 14.0694C15.3955 14.7106 15.5146 15.3165 15.4777 15.9952C15.4154 15.9715 15.3064 15.9091 15.2451 15.8764C14.5893 15.5271 14.2271 15.4214 13.5569 15.1282C13.0433 14.9036 12.9797 14.8949 12.5128 15.1549C12.1705 15.3456 11.9569 15.4608 11.5917 15.6226C10.92 15.92 10.2065 16.1283 9.39497 16.2185C9.17805 16.2427 8.95816 16.2427 8.73899 16.2692C8.50668 16.2973 8.311 16.284 8.08175 16.2627C7.63076 16.2207 7.28311 16.2 6.85119 16.1025C5.83895 15.8741 4.33331 15.2337 3.55346 14.5123C3.41537 14.3845 3.12592 14.1454 2.9998 14.0177C2.93775 13.9549 2.88601 13.9023 2.82413 13.8394C2.76691 13.7812 2.71635 13.7124 2.66064 13.6485C1.92175 12.8016 1.37735 11.8844 1.04546 10.7438C0.471091 8.7697 0.639486 6.74528 1.53611 4.92753C1.65676 4.68292 1.89087 4.25832 2.03946 4.04165C2.27688 3.69542 2.54987 3.37721 2.81633 3.06187L3.34541 2.55652C3.48039 2.45404 3.59312 2.34393 3.73791 2.24133C3.86983 2.14788 4.00204 2.04704 4.14139 1.95065C4.41051 1.76449 4.70347 1.60137 5.01984 1.43987C5.57906 1.15442 6.4281 0.863745 7.11602 0.743748C7.72985 0.636658 7.83824 0.664472 8.38538 0.611949C8.79331 0.57278 8.70383 0.617585 9.02685 0.63723C9.26819 0.651893 9.42911 0.651403 9.66988 0.691265C10.0639 0.756491 10.4387 0.838545 10.8102 0.939059C10.9821 0.985579 11.7528 1.2317 11.8221 1.30505H11.8222ZM14.9844 2.94293L14.7223 2.64899C14.6508 2.56121 14.2086 2.14041 14.0977 2.04827C14.0701 2.02544 14.0555 2.00559 14.0279 1.98247C12.9581 1.08528 11.5506 0.375183 10.125 0.125143C10.0077 0.104558 9.1591 0.0146217 9.15048 0.00963892C9.08497 0.023403 8.33967 0 8.19529 0C6.41826 0.000163371 4.48076 0.789207 3.19053 1.84328C2.94425 2.04447 2.64867 2.30823 2.42444 2.5341L2.06907 2.91414C2.01871 2.96315 1.99735 2.99092 1.95307 3.04263C1.46643 3.61079 0.925591 4.5008 0.663829 5.17103C0.466762 5.67569 0.332838 6.1136 0.204061 6.67131C0.142878 6.93614 0.0991762 7.2182 0.0603755 7.49466L0.00237863 8.41379C-0.0310717 9.41636 0.293384 10.7577 0.654108 11.6664C0.829814 12.109 1.09423 12.5864 1.32001 12.9609C1.44752 13.1724 1.8566 13.7277 2.04395 13.9389L2.40345 14.3142C2.44548 14.3577 2.4786 14.3987 2.51879 14.4443C2.55935 14.4903 2.60076 14.5216 2.64103 14.5668L3.01703 14.9261C3.50057 15.2834 3.7261 15.4849 4.32278 15.8124C4.75077 16.0473 5.173 16.2461 5.66651 16.4291C7.81002 17.224 10.2058 17.0499 12.1289 16.0916C12.2937 16.0095 12.6152 15.8195 12.7871 15.7839C13.0635 15.7266 13.3417 15.896 13.5537 15.9887C14.0107 16.1884 14.4701 16.3694 14.9375 16.5655C15.2228 16.6852 15.761 16.9786 16.0439 16.902C16.1599 16.8706 16.2794 16.7761 16.3068 16.6759C16.3825 16.3996 16.1507 15.2969 16.09 14.9643C15.9902 14.4177 15.8941 13.8625 15.7878 13.3204C15.7113 12.9305 15.745 12.8283 15.8957 12.5198C16.0062 12.2935 16.1282 12.108 16.2395 11.8842C16.4388 11.4829 16.6182 10.9072 16.7427 10.4406C17.3073 8.32435 16.9203 5.88276 15.8017 4.08829C15.6677 3.87329 15.5539 3.69669 15.4129 3.49692L15.0956 3.07902C15.0532 3.02882 15.0172 2.99729 14.9844 2.94289L14.9844 2.94293Z" fill="black"/>
<path fill-rule="evenodd" clip-rule="evenodd" d="M8.17316 11.232C8.21812 11.4427 8.46747 11.4646 8.6297 11.4211C8.88991 11.3514 8.84437 11.2304 8.84437 10.9597C8.84437 10.5059 8.84437 10.0521 8.84437 9.59833L8.8433 6.8775C8.8268 6.71135 8.56806 6.63759 8.38309 6.68248C8.15269 6.73839 8.16372 6.90217 8.16376 7.14776C8.1638 7.47046 8.14399 11.0954 8.17316 11.232Z" fill="black"/>
<path fill-rule="evenodd" clip-rule="evenodd" d="M8.44371 4.65313C8.23464 4.70332 8.11885 4.79938 8.18248 5.05016C8.29516 5.49424 8.87754 5.3582 8.84262 4.90329C8.83617 4.81919 8.75322 4.73555 8.70894 4.70034C8.62203 4.63119 8.57494 4.62168 8.44371 4.65313Z" fill="black"/>
</svg>
