<svg width="19" height="15" viewBox="0 0 19 15" fill="none" xmlns="http://www.w3.org/2000/svg" color="#01AB84">
<path d="M7.1517 5.85781C7.1517 6.98631 6.24466 7.89457 5.1314 7.89457C4.01815 7.89457 3.11111 6.98631 3.11111 5.85781C3.11111 4.72931 4.01815 3.82104 5.1314 3.82104C6.24466 3.82104 7.1517 4.72931 7.1517 5.85781ZM0.59082 12.1997C0.59082 11.9604 0.705979 11.7145 0.982144 11.458C1.26183 11.1982 1.67301 10.9617 2.16723 10.7625C3.15662 10.3635 4.35319 10.163 5.1314 10.163C5.90962 10.163 7.10619 10.3635 8.09558 10.7625C8.5898 10.9617 9.00098 11.1982 9.28066 11.458C9.55683 11.7145 9.67199 11.9604 9.67199 12.1997V12.8339C9.67199 12.9097 9.60925 12.9681 9.54192 12.9681H0.720893C0.653562 12.9681 0.59082 12.9097 0.59082 12.8339V12.1997Z" fill="url(#paint0_linear_206_57)" stroke="#57565D"/>
<path d="M14.1529 4.16678C14.1529 5.76246 12.87 7.04913 11.2926 7.04913C9.71515 7.04913 8.43217 5.76246 8.43217 4.16678C8.43217 2.57109 9.71515 1.28442 11.2926 1.28442C12.87 1.28442 14.1529 2.57109 14.1529 4.16678ZM5.07178 12.6227C5.07178 12.2427 5.2569 11.8738 5.64677 11.5116C6.04017 11.1461 6.6088 10.8216 7.278 10.5517C8.61734 10.0117 10.234 9.74031 11.2926 9.74031C12.3512 9.74031 13.9678 10.0117 15.3071 10.5517C15.9763 10.8216 16.5449 11.1461 16.9383 11.5116C17.3282 11.8738 17.5133 12.2427 17.5133 12.6227V13.4682C17.5133 13.6603 17.3561 13.8138 17.1732 13.8138H5.41187C5.22903 13.8138 5.07178 13.6603 5.07178 13.4682V12.6227Z" fill="url(#paint1_linear_206_57)" stroke="#B9B0B0"/>
<defs>
<linearGradient id="paint0_linear_206_57" x1="5.1314" y1="3.32104" x2="5.1314" y2="13.4681" gradientUnits="userSpaceOnUse">
<stop stop-color="currentColor"/>
<stop offset="1" stop-color="white"/>
</linearGradient>
<linearGradient id="paint1_linear_206_57" x1="11.2926" y1="0.784424" x2="11.2926" y2="14.3138" gradientUnits="userSpaceOnUse">
<stop stop-color="currentColor"/>
<stop offset="1" stop-color="white"/>
</linearGradient>
</defs>
</svg>
