<svg width="20" height="25" viewBox="0 0 20 25" fill="none" xmlns="http://www.w3.org/2000/svg">
<path d="M9.99994 24.5C11.3749 24.5 12.4999 23.375 12.4999 22H7.49994C7.49994 23.375 8.61244 24.5 9.99994 24.5ZM17.4999 17V10.75C17.4999 6.9125 15.4499 3.7 11.8749 2.85V2C11.8749 0.9625 11.0374 0.125 9.99994 0.125C8.96244 0.125 8.12494 0.9625 8.12494 2V2.85C4.53744 3.7 2.49994 6.9 2.49994 10.75V17L0.887442 18.6125C0.0999422 19.4 0.649942 20.75 1.76244 20.75H18.2249C19.3374 20.75 19.8999 19.4 19.1124 18.6125L17.4999 17Z" fill="white"/>
</svg>
