<svg width="49" height="26" viewBox="0 0 49 26" fill="none" xmlns="http://www.w3.org/2000/svg">
<path d="M37.0586 0.981952C36.2461 0.950702 35.4922 1.41554 35.1602 2.15773C34.8242 2.89992 34.9688 3.76711 35.5313 4.36086L41.6758 11.0015H3.00001C2.27735 10.9898 1.60939 11.3687 1.2461 11.9937C0.878906 12.6148 0.878906 13.3882 1.2461 14.0093C1.60938 14.6343 2.27735 15.0132 3.00001 15.0015H41.6758L35.5313 21.6421C35.0313 22.1656 34.8555 22.9156 35.0664 23.607C35.2774 24.2984 35.8438 24.8218 36.5469 24.9781C37.2539 25.1343 37.9883 24.896 38.4688 24.3609L48.9727 13.0015L38.4688 1.64213C38.1094 1.24369 37.5977 1.00149 37.0586 0.981952Z" fill="#AB0101"/>
</svg>
