<svg width="30" height="30" viewBox="0 0 30 30" fill="none" xmlns="http://www.w3.org/2000/svg" color="#FFFFFF">
<path d="M17.2876 23.7516C17.1008 23.7522 16.9163 23.711 16.7476 23.6309C16.5789 23.5509 16.4302 23.4341 16.3126 23.2891L10.2751 15.7891C10.0912 15.5654 9.99072 15.2848 9.99072 14.9953C9.99072 14.7058 10.0912 14.4252 10.2751 14.2016L16.5251 6.70157C16.7373 6.44629 17.0421 6.28576 17.3727 6.25529C17.7032 6.22481 18.0323 6.32689 18.2876 6.53907C18.5429 6.75124 18.7034 7.05613 18.7339 7.38666C18.7643 7.71719 18.6623 8.04629 18.4501 8.30157L12.8626 15.0016L18.2626 21.7016C18.4154 21.885 18.5125 22.1085 18.5424 22.3454C18.5722 22.5823 18.5336 22.8229 18.431 23.0385C18.3284 23.2542 18.1662 23.436 17.9636 23.5623C17.761 23.6887 17.5264 23.7544 17.2876 23.7516Z" fill="currentColor"/>
</svg>
