<svg width="9" height="18" viewBox="0 0 9 18" fill="none" xmlns="http://www.w3.org/2000/svg">
<path d="M7.28758 17.7501C7.10084 17.7507 6.91633 17.7095 6.7476 17.6295C6.57888 17.5494 6.43023 17.4326 6.31258 17.2876L0.275083 9.7876C0.0912305 9.56393 -0.00927734 9.28338 -0.00927734 8.99385C-0.00927734 8.70432 0.0912305 8.42377 0.275083 8.2001L6.52508 0.700101C6.73726 0.44483 7.04214 0.284299 7.37268 0.253825C7.70321 0.22335 8.03231 0.325427 8.28758 0.5376C8.54285 0.749774 8.70338 1.05466 8.73386 1.3852C8.76433 1.71573 8.66226 2.04483 8.45008 2.3001L2.86258 9.0001L8.26258 15.7001C8.41544 15.8836 8.51253 16.107 8.54238 16.3439C8.57223 16.5809 8.53358 16.8214 8.43102 17.0371C8.32845 17.2527 8.16625 17.4345 7.96361 17.5609C7.76097 17.6872 7.52637 17.7529 7.28758 17.7501Z" fill="#366792"/>
</svg>
