<svg width="20" height="20" viewBox="0 0 20 20" fill="none" xmlns="http://www.w3.org/2000/svg">
<path d="M8.72053 6.04879C6.60814 5.49767 4.00804 6.16575 3.89841 6.19446C3.87043 6.2018 3.84608 6.21908 3.82991 6.24306C3.81373 6.26705 3.80685 6.2961 3.81054 6.3248C3.81423 6.35349 3.82824 6.37986 3.84995 6.39897C3.87166 6.41809 3.8996 6.42864 3.92852 6.42866C3.9387 6.42868 3.94884 6.42737 3.95869 6.42477C3.98502 6.41797 6.60913 5.74396 8.66044 6.27921C8.67557 6.28315 8.69133 6.28408 8.70682 6.28194C8.7223 6.27979 8.73722 6.27462 8.75071 6.26671C8.76419 6.2588 8.77599 6.24831 8.78543 6.23585C8.79486 6.22338 8.80175 6.20918 8.8057 6.19405C8.80964 6.17892 8.81057 6.16316 8.80842 6.14767C8.80628 6.13218 8.80111 6.11727 8.7932 6.10378C8.78529 6.09029 8.7748 6.0785 8.76233 6.06906C8.74987 6.05963 8.73566 6.05274 8.72053 6.04879ZM8.72053 7.00117C6.60814 6.45006 4.00804 7.11813 3.89841 7.14684C3.87043 7.15418 3.84608 7.17146 3.82991 7.19545C3.81373 7.21943 3.80685 7.24849 3.81054 7.27718C3.81423 7.30587 3.82824 7.33224 3.84995 7.35135C3.87166 7.37047 3.8996 7.38102 3.92852 7.38105C3.9387 7.38106 3.94884 7.37975 3.95869 7.37715C3.98502 7.37035 6.60913 6.69634 8.66044 7.23159C8.67557 7.23554 8.69133 7.23646 8.70682 7.23432C8.7223 7.23217 8.73722 7.227 8.75071 7.21909C8.76419 7.21118 8.77599 7.2007 8.78543 7.18823C8.79486 7.17576 8.80175 7.16156 8.8057 7.14643C8.80964 7.1313 8.81057 7.11554 8.80842 7.10005C8.80628 7.08456 8.80111 7.06965 8.7932 7.05616C8.78529 7.04267 8.7748 7.03088 8.76233 7.02144C8.74987 7.01201 8.73566 7.00512 8.72053 7.00117ZM8.72053 7.95356C6.60814 7.40249 4.00804 8.07051 3.89841 8.09923C3.87043 8.10656 3.84608 8.12384 3.82991 8.14783C3.81373 8.17181 3.80685 8.20087 3.81054 8.22956C3.81423 8.25825 3.82824 8.28462 3.84995 8.30374C3.87166 8.32285 3.8996 8.3334 3.92852 8.33343C3.9387 8.33344 3.94884 8.33213 3.95869 8.32953C3.98502 8.32267 6.60913 7.64872 8.66044 8.18397C8.67557 8.18792 8.69133 8.18884 8.70682 8.1867C8.7223 8.18455 8.73722 8.17938 8.75071 8.17147C8.76419 8.16356 8.77599 8.15308 8.78543 8.14061C8.79486 8.12814 8.80175 8.11394 8.8057 8.09881C8.80964 8.08368 8.81057 8.06792 8.80842 8.05243C8.80628 8.03695 8.80111 8.02203 8.7932 8.00854C8.78529 7.99506 8.7748 7.98326 8.76233 7.97382C8.74987 7.96439 8.73566 7.9575 8.72053 7.95356ZM8.72053 8.90594C6.60814 8.35493 4.00804 9.02283 3.89841 9.05161C3.87043 9.05894 3.84608 9.07622 3.82991 9.10021C3.81373 9.12419 3.80685 9.15325 3.81054 9.18194C3.81423 9.21063 3.82824 9.237 3.84995 9.25612C3.87166 9.27523 3.8996 9.28579 3.92852 9.28581C3.9387 9.28582 3.94884 9.28451 3.95869 9.28191C3.98502 9.27511 6.60913 8.6011 8.66044 9.13635C8.67557 9.1403 8.69133 9.14122 8.70682 9.13908C8.7223 9.13694 8.73722 9.13176 8.75071 9.12385C8.76419 9.11595 8.77599 9.10546 8.78543 9.09299C8.79486 9.08052 8.80175 9.06632 8.8057 9.05119C8.80964 9.03606 8.81057 9.0203 8.80842 9.00481C8.80628 8.98933 8.80111 8.97441 8.7932 8.96093C8.78529 8.94744 8.7748 8.93564 8.76233 8.9262C8.74987 8.91677 8.73566 8.90988 8.72053 8.90594ZM8.72053 9.85832C6.60814 9.30714 4.00804 9.97521 3.89841 10.004C3.87043 10.0113 3.84608 10.0286 3.82991 10.0526C3.81373 10.0766 3.80685 10.1056 3.81054 10.1343C3.81423 10.163 3.82824 10.1894 3.84995 10.2085C3.87166 10.2276 3.8996 10.2382 3.92852 10.2382C3.9387 10.2382 3.94884 10.2369 3.95869 10.2343C3.98502 10.2274 6.60913 9.55342 8.66044 10.0887C8.67557 10.0927 8.69133 10.0936 8.70682 10.0915C8.7223 10.0893 8.73722 10.0841 8.75071 10.0762C8.76419 10.0683 8.77599 10.0578 8.78543 10.0454C8.79486 10.0329 8.80175 10.0187 8.8057 10.0036C8.80964 9.98844 8.81057 9.97268 8.80842 9.9572C8.80628 9.94171 8.80111 9.92679 8.7932 9.91331C8.78529 9.89982 8.7748 9.88802 8.76233 9.87858C8.74987 9.86915 8.73566 9.86226 8.72053 9.85832ZM8.72053 10.8107C6.60814 10.2595 4.00804 10.9276 3.89841 10.9564C3.87043 10.9637 3.84608 10.981 3.82991 11.005C3.81373 11.029 3.80685 11.058 3.81054 11.0867C3.81423 11.1154 3.82824 11.1418 3.84995 11.1609C3.87166 11.18 3.8996 11.1905 3.92852 11.1906C3.9387 11.1906 3.94884 11.1893 3.95869 11.1867C3.98502 11.1799 6.60913 10.5058 8.66044 11.0411C8.67557 11.0451 8.69133 11.046 8.70682 11.0438C8.7223 11.0417 8.73722 11.0365 8.75071 11.0286C8.76419 11.0207 8.77599 11.0102 8.78543 10.9978C8.79486 10.9853 8.80175 10.9711 8.8057 10.956C8.80964 10.9408 8.81057 10.9251 8.80842 10.9096C8.80628 10.8941 8.80111 10.8792 8.7932 10.8657C8.78529 10.8522 8.7748 10.8404 8.76233 10.831C8.74987 10.8215 8.73566 10.8146 8.72053 10.8107ZM8.72053 11.7631C6.60814 11.212 4.00804 11.88 3.89841 11.9087C3.87043 11.9161 3.84608 11.9334 3.82991 11.9574C3.81373 11.9813 3.80685 12.0104 3.81054 12.0391C3.81423 12.0678 3.82824 12.0941 3.84995 12.1133C3.87166 12.1324 3.8996 12.1429 3.92852 12.143C3.9387 12.143 3.94884 12.1417 3.95869 12.1391C3.98502 12.1322 6.60913 11.4582 8.66044 11.9935C8.67557 11.9974 8.69133 11.9984 8.70682 11.9962C8.7223 11.9941 8.73722 11.9889 8.75071 11.981C8.76419 11.9731 8.77599 11.9626 8.78543 11.9501C8.79486 11.9377 8.80175 11.9235 8.8057 11.9083C8.80964 11.8932 8.81057 11.8774 8.80842 11.862C8.80628 11.8465 8.80111 11.8316 8.7932 11.8181C8.78529 11.8046 8.7748 11.7928 8.76233 11.7833C8.74987 11.7739 8.73566 11.767 8.72053 11.7631ZM8.72053 12.7155C6.60814 12.1644 4.00804 12.8323 3.89841 12.8611C3.87043 12.8685 3.84608 12.8857 3.82991 12.9097C3.81373 12.9337 3.80685 12.9628 3.81054 12.9915C3.81423 13.0202 3.82824 13.0465 3.84995 13.0656C3.87166 13.0848 3.8996 13.0953 3.92852 13.0953C3.9387 13.0953 3.94884 13.094 3.95869 13.0914C3.98502 13.0847 6.60913 12.4106 8.66044 12.9459C8.67557 12.9498 8.69133 12.9507 8.70682 12.9486C8.7223 12.9465 8.73722 12.9413 8.75071 12.9334C8.76419 12.9255 8.77599 12.915 8.78543 12.9025C8.79486 12.89 8.80175 12.8758 8.8057 12.8607C8.80964 12.8456 8.81057 12.8298 8.80842 12.8143C8.80628 12.7989 8.80111 12.7839 8.7932 12.7704C8.78529 12.757 8.7748 12.7452 8.76233 12.7357C8.74987 12.7263 8.73566 12.7194 8.72053 12.7155ZM8.72053 13.6678C6.60814 13.1168 4.00804 13.7848 3.89841 13.8135C3.87043 13.8208 3.84608 13.8381 3.82991 13.8621C3.81373 13.8861 3.80685 13.9152 3.81054 13.9438C3.81423 13.9725 3.82824 13.9989 3.84995 14.018C3.87166 14.0371 3.8996 14.0477 3.92852 14.0477C3.9387 14.0477 3.94884 14.0464 3.95869 14.0438C3.98502 14.037 6.60913 13.3629 8.66044 13.8983C8.67557 13.9022 8.69133 13.9031 8.70682 13.901C8.7223 13.8988 8.73722 13.8937 8.75071 13.8858C8.76419 13.8779 8.77599 13.8674 8.78543 13.8549C8.79486 13.8424 8.80175 13.8282 8.8057 13.8131C8.80964 13.798 8.81057 13.7822 8.80842 13.7667C8.80628 13.7512 8.80111 13.7363 8.7932 13.7228C8.78529 13.7093 8.7748 13.6975 8.76233 13.6881C8.74987 13.6787 8.73566 13.6718 8.72053 13.6678ZM15.9826 6.19446C15.8729 6.16568 13.2727 5.49744 11.1604 6.04879C11.1453 6.05274 11.1311 6.05963 11.1186 6.06906C11.1062 6.0785 11.0957 6.09029 11.0878 6.10378C11.0799 6.11727 11.0747 6.13218 11.0726 6.14767C11.0704 6.16316 11.0713 6.17892 11.0753 6.19405C11.0792 6.20918 11.0861 6.22338 11.0955 6.23585C11.105 6.24831 11.1168 6.2588 11.1303 6.26671C11.1438 6.27462 11.1587 6.27979 11.1742 6.28194C11.1896 6.28408 11.2054 6.28315 11.2205 6.27921C13.2717 5.74385 15.896 6.41797 15.9223 6.42477C15.9321 6.42737 15.9423 6.42868 15.9525 6.42866C15.9814 6.42864 16.0093 6.41809 16.031 6.39897C16.0527 6.37986 16.0667 6.35349 16.0704 6.3248C16.0741 6.2961 16.0672 6.26705 16.0511 6.24306C16.0349 6.21908 16.0105 6.2018 15.9826 6.19446ZM15.9826 7.14684C15.8729 7.11801 13.2727 6.44987 11.1604 7.00117C11.1453 7.00512 11.1311 7.01201 11.1186 7.02144C11.1062 7.03088 11.0957 7.04267 11.0878 7.05616C11.0799 7.06965 11.0747 7.08456 11.0726 7.10005C11.0704 7.11554 11.0713 7.1313 11.0753 7.14643C11.0792 7.16156 11.0861 7.17576 11.0955 7.18823C11.105 7.2007 11.1168 7.21118 11.1303 7.21909C11.1438 7.227 11.1587 7.23217 11.1742 7.23432C11.1896 7.23646 11.2054 7.23554 11.2205 7.23159C13.2717 6.69623 15.896 7.37035 15.9223 7.37715C15.9321 7.37975 15.9423 7.38106 15.9525 7.38105C15.9814 7.38102 16.0093 7.37047 16.031 7.35135C16.0527 7.33224 16.0667 7.30587 16.0704 7.27718C16.0741 7.24849 16.0672 7.21943 16.0511 7.19545C16.0349 7.17146 16.0105 7.15418 15.9826 7.14684ZM15.9826 8.09923C15.8729 8.07051 13.2727 7.40226 11.1604 7.95356C11.1453 7.9575 11.1311 7.96439 11.1186 7.97382C11.1062 7.98326 11.0957 7.99506 11.0878 8.00854C11.0799 8.02203 11.0747 8.03695 11.0726 8.05243C11.0704 8.06792 11.0713 8.08368 11.0753 8.09881C11.0792 8.11394 11.0861 8.12814 11.0955 8.14061C11.105 8.15308 11.1168 8.16356 11.1303 8.17147C11.1438 8.17938 11.1587 8.18455 11.1742 8.1867C11.1896 8.18884 11.2054 8.18792 11.2205 8.18397C13.2717 7.64861 15.896 8.32273 15.9223 8.32953C15.9321 8.33213 15.9423 8.33344 15.9525 8.33343C15.9814 8.3334 16.0093 8.32285 16.031 8.30374C16.0527 8.28462 16.0667 8.25825 16.0704 8.22956C16.0741 8.20087 16.0672 8.17181 16.0511 8.14783C16.0349 8.12384 16.0105 8.10656 15.9826 8.09923ZM15.9826 9.05161C15.8729 9.02277 13.2727 8.3547 11.1604 8.90594C11.1453 8.90988 11.1311 8.91677 11.1186 8.9262C11.1062 8.93564 11.0957 8.94744 11.0878 8.96093C11.0799 8.97441 11.0747 8.98933 11.0726 9.00481C11.0704 9.0203 11.0713 9.03606 11.0753 9.05119C11.0792 9.06632 11.0861 9.08052 11.0955 9.09299C11.105 9.10546 11.1168 9.11595 11.1303 9.12385C11.1438 9.13176 11.1587 9.13694 11.1742 9.13908C11.1896 9.14122 11.2054 9.1403 11.2205 9.13635C13.2717 8.60104 15.896 9.27511 15.9223 9.28191C15.9321 9.28451 15.9423 9.28582 15.9525 9.28581C15.9814 9.28579 16.0093 9.27523 16.031 9.25612C16.0527 9.237 16.0667 9.21063 16.0704 9.18194C16.0741 9.15325 16.0672 9.12419 16.0511 9.10021C16.0349 9.07622 16.0105 9.05894 15.9826 9.05161ZM15.9826 10.004C15.8729 9.97521 13.2727 9.3069 11.1604 9.85832C11.1453 9.86226 11.1311 9.86915 11.1186 9.87858C11.1062 9.88802 11.0957 9.89982 11.0878 9.91331C11.0799 9.92679 11.0747 9.94171 11.0726 9.9572C11.0704 9.97268 11.0713 9.98844 11.0753 10.0036C11.0792 10.0187 11.0861 10.0329 11.0955 10.0454C11.105 10.0578 11.1168 10.0683 11.1303 10.0762C11.1438 10.0841 11.1587 10.0893 11.1742 10.0915C11.1896 10.0936 11.2054 10.0927 11.2205 10.0887C13.2717 9.55342 15.896 10.2275 15.9223 10.2343C15.9321 10.2369 15.9423 10.2382 15.9525 10.2382C15.9814 10.2382 16.0093 10.2276 16.031 10.2085C16.0527 10.1894 16.0667 10.163 16.0704 10.1343C16.0741 10.1056 16.0672 10.0766 16.0511 10.0526C16.0349 10.0286 16.0105 10.0113 15.9826 10.004ZM15.9826 10.9564C15.8729 10.9276 13.2727 10.2593 11.1604 10.8107C11.1453 10.8146 11.1311 10.8215 11.1186 10.831C11.1062 10.8404 11.0957 10.8522 11.0878 10.8657C11.0799 10.8792 11.0747 10.8941 11.0726 10.9096C11.0704 10.9251 11.0713 10.9408 11.0753 10.956C11.0792 10.9711 11.0861 10.9853 11.0955 10.9978C11.105 11.0102 11.1168 11.0207 11.1303 11.0286C11.1438 11.0365 11.1587 11.0417 11.1742 11.0438C11.1896 11.046 11.2054 11.0451 11.2205 11.0411C13.2717 10.5058 15.896 11.1799 15.9223 11.1867C15.9321 11.1893 15.9423 11.1906 15.9525 11.1906C15.9814 11.1905 16.0093 11.18 16.031 11.1609C16.0527 11.1418 16.0667 11.1154 16.0704 11.0867C16.0741 11.058 16.0672 11.029 16.0511 11.005C16.0349 10.981 16.0105 10.9637 15.9826 10.9564ZM15.9826 11.9087C15.8729 11.8799 13.2727 11.2118 11.1604 11.7631C11.1453 11.767 11.1311 11.7739 11.1186 11.7833C11.1062 11.7928 11.0957 11.8046 11.0878 11.8181C11.0799 11.8316 11.0747 11.8465 11.0726 11.862C11.0704 11.8774 11.0713 11.8932 11.0753 11.9083C11.0792 11.9235 11.0861 11.9377 11.0955 11.9501C11.105 11.9626 11.1168 11.9731 11.1303 11.981C11.1438 11.9889 11.1587 11.9941 11.1742 11.9962C11.1896 11.9984 11.2054 11.9974 11.2205 11.9935C13.2717 11.4582 15.896 12.1323 15.9223 12.1391C15.9321 12.1417 15.9423 12.143 15.9525 12.143C15.9814 12.1429 16.0093 12.1324 16.031 12.1133C16.0527 12.0941 16.0667 12.0678 16.0704 12.0391C16.0741 12.0104 16.0672 11.9813 16.0511 11.9574C16.0349 11.9334 16.0105 11.9161 15.9826 11.9087ZM15.9826 12.8611C15.8729 12.8323 13.2727 12.1642 11.1604 12.7155C11.1453 12.7194 11.1311 12.7263 11.1186 12.7357C11.1062 12.7452 11.0957 12.757 11.0878 12.7704C11.0799 12.7839 11.0747 12.7989 11.0726 12.8143C11.0704 12.8298 11.0713 12.8456 11.0753 12.8607C11.0792 12.8758 11.0861 12.89 11.0955 12.9025C11.105 12.915 11.1168 12.9255 11.1303 12.9334C11.1438 12.9413 11.1587 12.9465 11.1742 12.9486C11.1896 12.9507 11.2054 12.9498 11.2205 12.9459C13.2717 12.4106 15.896 13.0846 15.9223 13.0914C15.9321 13.094 15.9423 13.0953 15.9525 13.0953C15.9814 13.0953 16.0093 13.0848 16.031 13.0656C16.0527 13.0465 16.0667 13.0202 16.0704 12.9915C16.0741 12.9628 16.0672 12.9337 16.0511 12.9097C16.0349 12.8857 16.0105 12.8685 15.9826 12.8611ZM15.9826 13.8135C15.8729 13.7847 13.2727 13.1166 11.1604 13.6678C11.1453 13.6718 11.1311 13.6787 11.1186 13.6881C11.1062 13.6975 11.0957 13.7093 11.0878 13.7228C11.0799 13.7363 11.0747 13.7512 11.0726 13.7667C11.0704 13.7822 11.0713 13.798 11.0753 13.8131C11.0792 13.8282 11.0861 13.8424 11.0955 13.8549C11.105 13.8674 11.1168 13.8779 11.1303 13.8858C11.1438 13.8937 11.1587 13.8988 11.1742 13.901C11.1896 13.9031 11.2054 13.9022 11.2205 13.8983C13.2717 13.3629 15.896 14.037 15.9223 14.0438C15.9321 14.0464 15.9423 14.0477 15.9525 14.0477C15.9814 14.0477 16.0093 14.0371 16.031 14.018C16.0527 13.9989 16.0667 13.9725 16.0704 13.9438C16.0741 13.9152 16.0672 13.8861 16.0511 13.8621C16.0349 13.8381 16.0105 13.8208 15.9826 13.8135ZM18.5714 1.54771C18.5714 1.47708 18.5505 1.40803 18.5113 1.34929C18.472 1.29056 18.4162 1.24479 18.351 1.21776C18.2857 1.19072 18.2139 1.18365 18.1446 1.19743C18.0753 1.21121 18.0117 1.24523 17.9618 1.29517C17.9118 1.34512 17.8778 1.40876 17.864 1.47804C17.8502 1.54732 17.8573 1.61913 17.8843 1.68438C17.9114 1.74964 17.9571 1.80542 18.0159 1.84467C18.0746 1.88391 18.1437 1.90486 18.2143 1.90486C18.309 1.90475 18.3998 1.86708 18.4667 1.80013C18.5337 1.73318 18.5713 1.6424 18.5714 1.54771ZM18.2143 1.72628C18.179 1.72628 18.1445 1.71581 18.1151 1.69619C18.0857 1.67657 18.0628 1.64868 18.0493 1.61605C18.0358 1.58342 18.0323 1.54751 18.0392 1.51287C18.046 1.47824 18.0631 1.44642 18.088 1.42144C18.113 1.39647 18.1448 1.37946 18.1795 1.37257C18.2141 1.36568 18.25 1.36922 18.2826 1.38273C18.3153 1.39625 18.3432 1.41914 18.3628 1.4485C18.3824 1.47787 18.3929 1.51239 18.3929 1.54771C18.3928 1.59506 18.374 1.64045 18.3405 1.67393C18.307 1.70741 18.2616 1.72624 18.2143 1.72628ZM7.85715 0.833427C7.92779 0.833427 7.99684 0.81248 8.05557 0.773237C8.1143 0.733994 8.16008 0.678216 8.18711 0.612956C8.21414 0.547697 8.22121 0.475887 8.20743 0.406609C8.19365 0.33733 8.15964 0.273693 8.10969 0.223746C8.05975 0.173798 7.99611 0.139784 7.92683 0.126003C7.85755 0.112223 7.78574 0.119295 7.72048 0.146327C7.65522 0.173358 7.59944 0.219134 7.5602 0.277866C7.52096 0.336598 7.50001 0.405647 7.50001 0.476284C7.50012 0.570971 7.53778 0.661748 7.60474 0.728702C7.67169 0.795656 7.76247 0.833318 7.85715 0.833427ZM7.85715 0.297712C7.89247 0.297712 7.927 0.308185 7.95636 0.327807C7.98573 0.347429 8.00862 0.375318 8.02213 0.407947C8.03565 0.440577 8.03918 0.476482 8.03229 0.511121C8.0254 0.545761 8.0084 0.577579 7.98342 0.602553C7.95845 0.627526 7.92663 0.644534 7.89199 0.651424C7.85735 0.658314 7.82145 0.654778 7.78882 0.641262C7.75619 0.627747 7.7283 0.604859 7.70868 0.575493C7.68906 0.546127 7.67858 0.511602 7.67858 0.476284C7.67863 0.428938 7.69746 0.383545 7.73094 0.350066C7.76442 0.316588 7.80981 0.297759 7.85715 0.297712ZM13.6905 1.54771C13.7376 1.54771 13.7836 1.53375 13.8228 1.50759C13.8619 1.48142 13.8924 1.44424 13.9105 1.40073C13.9285 1.35723 13.9332 1.30935 13.924 1.26317C13.9148 1.21698 13.8921 1.17456 13.8588 1.14126C13.8255 1.10796 13.7831 1.08528 13.7369 1.0761C13.6908 1.06691 13.6429 1.07162 13.5994 1.08965C13.5559 1.10767 13.5187 1.13818 13.4925 1.17734C13.4664 1.21649 13.4524 1.26253 13.4524 1.30962C13.4525 1.37274 13.4776 1.43326 13.5222 1.4779C13.5668 1.52253 13.6274 1.54764 13.6905 1.54771ZM13.6905 1.19057C13.714 1.19057 13.7371 1.19755 13.7566 1.21063C13.7762 1.22371 13.7915 1.24231 13.8005 1.26406C13.8095 1.28581 13.8118 1.30975 13.8072 1.33284C13.8027 1.35593 13.7913 1.37715 13.7747 1.3938C13.758 1.41045 13.7368 1.42178 13.7137 1.42638C13.6906 1.43097 13.6667 1.42861 13.6449 1.4196C13.6232 1.41059 13.6046 1.39533 13.5915 1.37576C13.5784 1.35618 13.5714 1.33316 13.5714 1.30962C13.5715 1.27805 13.584 1.24779 13.6063 1.22547C13.6287 1.20315 13.6589 1.1906 13.6905 1.19057ZM9.88096 3.33343C9.92805 3.33343 9.97409 3.31946 10.0132 3.2933C10.0524 3.26714 10.0829 3.22995 10.1009 3.18645C10.119 3.14294 10.1237 3.09507 10.1145 3.04888C10.1053 3.0027 10.0826 2.96027 10.0493 2.92697C10.016 2.89367 9.9736 2.871 9.92741 2.86181C9.88123 2.85262 9.83335 2.85734 9.78985 2.87536C9.74634 2.89338 9.70916 2.9239 9.68299 2.96305C9.65683 3.00221 9.64287 3.04824 9.64287 3.09533C9.64294 3.15846 9.66805 3.21897 9.71268 3.26361C9.75732 3.30825 9.81784 3.33335 9.88096 3.33343ZM9.88096 2.97628C9.90451 2.97628 9.92753 2.98327 9.9471 2.99635C9.96668 3.00943 9.98194 3.02802 9.99095 3.04977C9.99996 3.07153 10.0023 3.09546 9.99772 3.11856C9.99313 3.14165 9.98179 3.16286 9.96514 3.17951C9.94849 3.19616 9.92728 3.2075 9.90419 3.21209C9.8811 3.21669 9.85716 3.21433 9.83541 3.20532C9.81365 3.19631 9.79506 3.18105 9.78198 3.16147C9.7689 3.14189 9.76192 3.11888 9.76192 3.09533C9.76195 3.06377 9.7745 3.03351 9.79682 3.01119C9.81914 2.98887 9.8494 2.97632 9.88096 2.97628ZM1.19049 3.69057C1.23758 3.69057 1.28361 3.67661 1.32277 3.65044C1.36192 3.62428 1.39244 3.5871 1.41046 3.54359C1.42848 3.50008 1.4332 3.45221 1.42401 3.40602C1.41482 3.35984 1.39214 3.31741 1.35885 3.28412C1.32555 3.25082 1.28312 3.22814 1.23694 3.21895C1.19075 3.20977 1.14288 3.21448 1.09937 3.2325C1.05587 3.25052 1.01868 3.28104 0.992519 3.3202C0.966357 3.35935 0.952393 3.40538 0.952393 3.45247C0.952465 3.5156 0.977573 3.57612 1.02221 3.62075C1.06684 3.66539 1.12736 3.6905 1.19049 3.69057ZM1.19049 3.33343C1.21403 3.33343 1.23705 3.34041 1.25663 3.35349C1.2762 3.36657 1.29146 3.38516 1.30047 3.40692C1.30948 3.42867 1.31184 3.45261 1.30725 3.4757C1.30265 3.49879 1.29132 3.52 1.27467 3.53665C1.25802 3.5533 1.23681 3.56464 1.21371 3.56923C1.19062 3.57383 1.16668 3.57147 1.14493 3.56246C1.12318 3.55345 1.10458 3.53819 1.0915 3.51861C1.07842 3.49904 1.07144 3.47602 1.07144 3.45247C1.07147 3.42091 1.08402 3.39065 1.10634 3.36833C1.12866 3.34601 1.15892 3.33346 1.19049 3.33343Z" fill="#2D4356"/>
<path d="M0.238095 15.7142C0.369592 15.7142 0.47619 15.6076 0.47619 15.4761C0.47619 15.3446 0.369592 15.238 0.238095 15.238C0.106599 15.238 0 15.3446 0 15.4761C0 15.6076 0.106599 15.7142 0.238095 15.7142Z" fill="#2D4356"/>
<path d="M1.30959 15.238H0.952451C0.889304 15.238 0.828743 15.2631 0.784092 15.3078C0.73944 15.3524 0.714355 15.413 0.714355 15.4761C0.714355 15.5393 0.73944 15.5998 0.784092 15.6445C0.828743 15.6891 0.889304 15.7142 0.952451 15.7142H1.30959C1.37274 15.7142 1.4333 15.6891 1.47795 15.6445C1.5226 15.5998 1.54769 15.5393 1.54769 15.4761C1.54769 15.413 1.5226 15.3524 1.47795 15.3078C1.4333 15.2631 1.37274 15.238 1.30959 15.238ZM19.0477 15.238H18.6905C18.6274 15.238 18.5668 15.2631 18.5222 15.3078C18.4775 15.3524 18.4525 15.413 18.4525 15.4761C18.4525 15.5393 18.4775 15.5998 18.5222 15.6445C18.5668 15.6891 18.6274 15.7142 18.6905 15.7142H19.0477C19.1108 15.7142 19.1714 15.6891 19.216 15.6445C19.2607 15.5998 19.2858 15.5393 19.2858 15.4761C19.2858 15.413 19.2607 15.3524 19.216 15.3078C19.1714 15.2631 19.1108 15.238 19.0477 15.238Z" fill="#2D4356"/>
<path d="M19.762 15.7142C19.8935 15.7142 20.0001 15.6076 20.0001 15.4761C20.0001 15.3446 19.8935 15.238 19.762 15.238C19.6305 15.238 19.5239 15.3446 19.5239 15.4761C19.5239 15.6076 19.6305 15.7142 19.762 15.7142Z" fill="#2D4356"/>
<path d="M17.9429 15.2381H17.5998C17.612 15.1937 17.6185 15.1479 17.6189 15.1018V5.74046C17.6189 5.42099 17.3487 5.09384 17.0435 4.98455C16.0613 4.63282 14.4904 4.40479 13.0417 4.40479C11.9152 4.40479 10.8626 4.54254 10.2176 4.86726C10.1497 4.90023 10.0753 4.91736 9.99989 4.91736C9.92446 4.91736 9.85003 4.90023 9.78219 4.86726C9.13719 4.54261 8.08443 4.40479 6.95807 4.40479C5.50927 4.40473 3.93858 4.63276 2.95626 4.98455C2.65108 5.09384 2.38084 5.42098 2.38084 5.74046V15.1018C2.38132 15.1479 2.38774 15.1937 2.39993 15.2381H2.05687C2.023 15.2337 1.98857 15.2365 1.95589 15.2465C1.92321 15.2564 1.89303 15.2732 1.86735 15.2958C1.84168 15.3183 1.82111 15.3461 1.80702 15.3772C1.79293 15.4083 1.78564 15.4421 1.78564 15.4762C1.78564 15.5104 1.79293 15.5441 1.80702 15.5753C1.82111 15.6064 1.84168 15.6341 1.86735 15.6567C1.89303 15.6792 1.92321 15.696 1.95589 15.7059C1.98857 15.7159 2.023 15.7187 2.05687 15.7143H17.9429C17.9768 15.7187 18.0112 15.7159 18.0439 15.7059C18.0766 15.696 18.1067 15.6792 18.1324 15.6567C18.1581 15.6341 18.1787 15.6064 18.1928 15.5753C18.2068 15.5441 18.2141 15.5104 18.2141 15.4762C18.2141 15.4421 18.2068 15.4083 18.1928 15.3772C18.1787 15.3461 18.1581 15.3183 18.1324 15.2958C18.1067 15.2732 18.0766 15.2564 18.0439 15.2465C18.0112 15.2365 17.9768 15.2337 17.9429 15.2381ZM5.36132 15.2381C5.93312 15.1713 6.50817 15.136 7.08386 15.1323C7.57445 15.1303 8.06449 15.1657 8.54971 15.2381H5.36132ZM11.4501 15.2381C11.9354 15.1656 12.4255 15.1303 12.9161 15.1323C13.4918 15.136 14.0668 15.1713 14.6386 15.2381H11.4501ZM17.1427 15.1018C17.1428 15.1074 17.1423 15.1129 17.1412 15.1184C17.138 15.1189 17.1347 15.1191 17.1315 15.1191C17.1257 15.119 17.12 15.1185 17.1144 15.1176L16.8887 15.0811C15.5993 14.8721 14.2661 14.6561 12.9161 14.6561C12.0411 14.6433 11.169 14.7595 10.3278 15.001C10.2948 15.0109 10.2619 15.0216 10.2291 15.0322C10.1879 15.0457 10.1519 15.0565 10.1189 15.0653V7.38098C10.1189 7.3494 10.1064 7.31912 10.0841 7.2968C10.0617 7.27447 10.0315 7.26193 9.99989 7.26193C9.96831 7.26193 9.93803 7.27447 9.91571 7.2968C9.89338 7.31912 9.88084 7.3494 9.88084 7.38098V15.067C9.85287 15.0591 9.82254 15.0495 9.78946 15.0385C9.75575 15.0272 9.72203 15.0161 9.68814 15.0058C8.84216 14.7608 7.96448 14.643 7.08386 14.6561C5.73394 14.6561 4.40064 14.8721 3.11123 15.0811L2.88563 15.1176C2.8799 15.1185 2.87411 15.119 2.86831 15.1191C2.86506 15.1191 2.86181 15.1189 2.8586 15.1184C2.85746 15.1129 2.85694 15.1074 2.85703 15.1018V5.74046C2.87144 5.67167 2.90273 5.60755 2.94807 5.55385C2.99342 5.50015 3.0514 5.45857 3.11681 5.43284C4.05309 5.09756 5.56089 4.88092 6.95807 4.88098C8.11378 4.88098 9.04076 5.02717 9.56806 5.29258C9.66616 5.34149 9.77198 5.37309 9.88084 5.386V6.42859C9.88084 6.46017 9.89338 6.49045 9.91571 6.51277C9.93803 6.5351 9.96831 6.54764 9.99989 6.54764C10.0315 6.54764 10.0617 6.5351 10.0841 6.51277C10.1064 6.49045 10.1189 6.46017 10.1189 6.42859V5.386C10.2278 5.3731 10.3336 5.34149 10.4317 5.29258C10.9591 5.02717 11.886 4.88098 13.0417 4.88098C14.4389 4.88098 15.9467 5.09756 16.883 5.43284C16.9484 5.45857 17.0064 5.50015 17.0517 5.55385C17.097 5.60754 17.1283 5.67167 17.1427 5.74046V15.1018Z" fill="#2D4356"/>
<path d="M4.11706 1.549L4.29408 1.31626L4.1823 1.25293L4.06873 1.51364H4.06492L3.94944 1.25472L3.83575 1.31995L4.01087 1.54722V1.55091L3.73706 1.51555V1.64222L4.01277 1.60686V1.61055L3.83575 1.83769L3.94194 1.90483L4.06313 1.64222H4.0667L4.17849 1.90293L4.29587 1.83591L4.11706 1.61233V1.60864L4.39825 1.64222V1.51555L4.11706 1.55269V1.549Z" fill="#0BCEB2"/>
<path d="M5.9259 3.93667L5.82388 4.0675L5.88507 4.10607L5.95483 3.95488H5.95697L6.02126 4.105L6.08888 4.06643L5.9859 3.93762V3.93547L6.1478 3.95488V3.8819L5.9859 3.90333V3.90119L6.0878 3.76714L6.02352 3.73071L5.95804 3.88083H5.9559L5.88947 3.73167L5.82388 3.76928L5.92483 3.90012V3.90226L5.76709 3.8819V3.95488L5.9259 3.93452V3.93667Z" fill="#0BCEB2"/>
<path d="M18.2142 5.56099V5.43682L17.9384 5.47337V5.46968L18.1121 5.24134L18.0025 5.1792L17.891 5.43491H17.8872L17.774 5.18098L17.6625 5.24503L17.8342 5.46789V5.47158L17.5657 5.43682V5.56099L17.836 5.52634V5.53003L17.6625 5.75289L17.7666 5.81872L17.8854 5.56099H17.889L17.9986 5.81682L18.1138 5.7511L17.9384 5.53182V5.52813L18.2142 5.56099Z" fill="#0BCEB2"/>
<path d="M13.2978 3.93128L13.148 4.12354L13.2378 4.18033L13.3404 3.95807H13.3434L13.438 4.17866L13.5373 4.122L13.386 3.93283V3.92961L13.624 3.95807V3.85092L13.386 3.88235V3.87926L13.5358 3.68223L13.4412 3.62866L13.345 3.84926H13.342L13.2442 3.63021L13.148 3.68545L13.2962 3.87771V3.8808L13.0645 3.85092V3.95807L13.2978 3.92807V3.93128Z" fill="#0BCEB2"/>
<path d="M14.066 16.3096H13.077C13.0171 16.3144 12.9613 16.3415 12.9206 16.3857C12.8798 16.4298 12.8572 16.4876 12.8572 16.5477C12.8572 16.6077 12.8798 16.6656 12.9206 16.7097C12.9613 16.7538 13.0171 16.781 13.077 16.7858H14.066C14.1259 16.781 14.1817 16.7538 14.2224 16.7097C14.2632 16.6656 14.2858 16.6077 14.2858 16.5477C14.2858 16.4876 14.2632 16.4298 14.2224 16.3857C14.1817 16.3415 14.1259 16.3144 14.066 16.3096ZM6.92315 16.3096H5.93414C5.87428 16.3144 5.81843 16.3415 5.7777 16.3857C5.73697 16.4298 5.71436 16.4876 5.71436 16.5477C5.71436 16.6077 5.73697 16.6656 5.7777 16.7097C5.81843 16.7538 5.87428 16.781 5.93414 16.7858H6.92315C6.98301 16.781 7.03886 16.7538 7.07959 16.7097C7.12032 16.6656 7.14293 16.6077 7.14293 16.5477C7.14293 16.4876 7.12032 16.4298 7.07959 16.3857C7.03886 16.3415 6.98301 16.3144 6.92315 16.3096ZM12.381 16.3096H7.61912C7.55597 16.3096 7.49541 16.3347 7.45076 16.3793C7.40611 16.424 7.38103 16.4845 7.38103 16.5477C7.38103 16.6108 7.40611 16.6714 7.45076 16.716C7.49541 16.7607 7.55597 16.7858 7.61912 16.7858H9.51674V17.0239H8.5715C8.50835 17.0239 8.44779 17.0489 8.40314 17.0936C8.35849 17.1382 8.33341 17.1988 8.33341 17.262C8.33341 17.3251 8.35849 17.3857 8.40314 17.4303C8.44779 17.475 8.50835 17.5 8.5715 17.5H11.5477C11.6108 17.5 11.6714 17.475 11.7161 17.4303C11.7607 17.3857 11.7858 17.3251 11.7858 17.262C11.7858 17.1988 11.7607 17.1382 11.7161 17.0936C11.6714 17.0489 11.6108 17.0239 11.5477 17.0239H10.4834V16.7858H12.381C12.4442 16.7858 12.5047 16.7607 12.5494 16.716C12.594 16.6714 12.6191 16.6108 12.6191 16.5477C12.6191 16.4845 12.594 16.424 12.5494 16.3793C12.5047 16.3347 12.4442 16.3096 12.381 16.3096Z" fill="#0BCEB2"/>
</svg>
