<svg width="46" height="48" viewBox="0 0 46 48" fill="none" xmlns="http://www.w3.org/2000/svg" color="#01AB84">
<path d="M10 0C8.90625 0 8 0.90625 8 2V4H2C1.47656 4 0.94531 4.19141 0.57031 4.57031C0.1914 4.94531 0 5.47656 0 6V46C0 46.5234 0.19141 47.0547 0.57031 47.4336C0.94531 47.8086 1.47656 48 2 48H44C44.5234 48 45.0547 47.8086 45.4336 47.4336C45.8086 47.0547 46 46.5234 46 46V6C46 5.47656 45.8086 4.94531 45.4336 4.57031C45.0547 4.1914 44.5234 4 44 4H38V2C38 0.90625 37.0938 0 36 0H34C32.9062 0 32 0.90625 32 2V4H14V2C14 0.90625 13.0938 0 12 0H10ZM10 2H12V8H10V2ZM34 2H36V8H34V2ZM2 6H8V8C8 9.09375 8.90625 10 10 10H12C13.0938 10 14 9.09375 14 8V6H32V8C32 9.09375 32.9062 10 34 10H36C37.0938 10 38 9.09375 38 8V6H44V13H2V6ZM2 15H44V46H2V15ZM8 19V42H38V19H8ZM10 21H15V26H10V21ZM17 21H22V26H17V21ZM24 21H29V26H24V21ZM31 21H36V26H31V21ZM10 28H15V33H10V28ZM17 28H22V33H17V28ZM24 28H29V33H24V28ZM31 28H36V33H31V28ZM10 35H15V40H10V35ZM17 35H22V40H17V35ZM24 35H29V40H24V35ZM31 35H36V40H31V35Z" fill="currentColor"/>
</svg>
