<svg width="233" height="62" viewBox="0 0 233 62" fill="none" xmlns="http://www.w3.org/2000/svg">
<g filter="url(#filter0_d_584_8)">
<path d="M2 12.7424V10.5159C2 5.07012 6.35761 0.625514 11.8024 0.517881L38 0L114 0.711656L195 0L221.198 0.517881C226.642 0.625514 231 5.07012 231 10.5159V12.7424V15.3006V48C231 53.5228 226.523 58 221 58H12C6.47716 58 2 53.5228 2 48V15.3006V12.7424Z" fill="url(#paint0_linear_584_8)"/>
<path d="M113.986 2.21159L114 2.21172L114.013 2.2116L194.992 1.50013L221.168 2.01759C225.796 2.10908 229.5 5.88699 229.5 10.5159V12.7424V15.3006V48C229.5 52.6944 225.694 56.5 221 56.5H12C7.30558 56.5 3.5 52.6944 3.5 48V15.3006V12.7424V10.5159C3.5 5.88699 7.20397 2.10908 11.832 2.01759L38.0078 1.50014L113.986 2.21159Z" stroke="url(#paint1_linear_584_8)" stroke-width="3"/>
</g>
<path d="M42.5781 19.7266H46.1875V33.8945H54.7422V37H42.5781V19.7266ZM60.4141 24.2266V37H57.0273V24.2266H60.4141ZM60.4141 19.6211V22.7031H57.0273V19.6211H60.4141ZM57.2266 38.0547H60.2734V40.832H57.2266V38.0547ZM74.7109 28.8086H71.2891C71.2266 28.332 71.0664 27.9023 70.8086 27.5195C70.4336 27.0039 69.8516 26.7461 69.0625 26.7461C67.9375 26.7461 67.168 27.3047 66.7539 28.4219C66.5352 29.0156 66.4258 29.8047 66.4258 30.7891C66.4258 31.7266 66.5352 32.4805 66.7539 33.0508C67.1523 34.1133 67.9023 34.6445 69.0039 34.6445C69.7852 34.6445 70.3398 34.4336 70.668 34.0117C70.9961 33.5898 71.1953 33.043 71.2656 32.3711H74.6758C74.5977 33.3867 74.2305 34.3477 73.5742 35.2539C72.5273 36.7148 70.9766 37.4453 68.9219 37.4453C66.8672 37.4453 65.3555 36.8359 64.3867 35.6172C63.418 34.3984 62.9336 32.8164 62.9336 30.8711C62.9336 28.6758 63.4688 26.9688 64.5391 25.75C65.6094 24.5312 67.0859 23.9219 68.9688 23.9219C70.5703 23.9219 71.8789 24.2812 72.8945 25C73.918 25.7188 74.5234 26.9883 74.7109 28.8086ZM88.5625 29.5V37H85.1523V29.2305C85.1523 28.543 85.0352 27.9883 84.8008 27.5664C84.4961 26.9727 83.918 26.6758 83.0664 26.6758C82.1836 26.6758 81.5117 26.9727 81.0508 27.5664C80.5977 28.1523 80.3711 28.9922 80.3711 30.0859V37H77.043V19.7852H80.3711V25.8906C80.8555 25.1484 81.4141 24.6328 82.0469 24.3438C82.6875 24.0469 83.3594 23.8984 84.0625 23.8984C84.8516 23.8984 85.5664 24.0352 86.207 24.3086C86.8555 24.582 87.3867 25 87.8008 25.5625C88.1523 26.0391 88.3672 26.5312 88.4453 27.0391C88.5234 27.5391 88.5625 28.3594 88.5625 29.5ZM107.172 24.8125C108.172 25.4531 108.746 26.5547 108.895 28.1172H105.555C105.508 27.6875 105.387 27.3477 105.191 27.0977C104.824 26.6445 104.199 26.418 103.316 26.418C102.59 26.418 102.07 26.5312 101.758 26.7578C101.453 26.9844 101.301 27.25 101.301 27.5547C101.301 27.9375 101.465 28.2148 101.793 28.3867C102.121 28.5664 103.281 28.875 105.273 29.3125C106.602 29.625 107.598 30.0977 108.262 30.7305C108.918 31.3711 109.246 32.1719 109.246 33.1328C109.246 34.3984 108.773 35.4336 107.828 36.2383C106.891 37.0352 105.438 37.4336 103.469 37.4336C101.461 37.4336 99.9766 37.0117 99.0156 36.168C98.0625 35.3164 97.5859 34.2344 97.5859 32.9219H100.973C101.043 33.5156 101.195 33.9375 101.43 34.1875C101.844 34.6328 102.609 34.8555 103.727 34.8555C104.383 34.8555 104.902 34.7578 105.285 34.5625C105.676 34.3672 105.871 34.0742 105.871 33.6836C105.871 33.3086 105.715 33.0234 105.402 32.8281C105.09 32.6328 103.93 32.2969 101.922 31.8203C100.477 31.4609 99.457 31.0117 98.8633 30.4727C98.2695 29.9414 97.9727 29.1758 97.9727 28.1758C97.9727 26.9961 98.4336 25.9844 99.3555 25.1406C100.285 24.2891 101.59 23.8633 103.27 23.8633C104.863 23.8633 106.164 24.1797 107.172 24.8125ZM119.922 37V35.1953C119.891 35.2344 119.812 35.3516 119.688 35.5469C119.562 35.7422 119.414 35.9141 119.242 36.0625C118.719 36.5312 118.211 36.8516 117.719 37.0234C117.234 37.1953 116.664 37.2812 116.008 37.2812C114.117 37.2812 112.844 36.6016 112.188 35.2422C111.82 34.4922 111.637 33.3867 111.637 31.9258V24.2266H115.059V31.9258C115.059 32.6523 115.145 33.1992 115.316 33.5664C115.621 34.2148 116.219 34.5391 117.109 34.5391C118.25 34.5391 119.031 34.0781 119.453 33.1562C119.672 32.6562 119.781 31.9961 119.781 31.1758V24.2266H123.168V25.9375C123.199 25.9453 123.23 25.9492 123.262 25.9492C123.801 26.0039 124.426 25.8555 125.137 25.5039L124.117 23.7461L127.141 22L128.945 25.1289L126.332 26.6406C125.871 26.9062 125.355 27.125 124.785 27.2969C124.238 27.4531 123.699 27.4805 123.168 27.3789V37H119.922ZM119.055 22.6914C118.859 22.8008 118.613 22.8867 118.316 22.9492L118.152 23.4648H116.535L116.617 22.5742C117.266 22.5273 117.68 22.3945 117.859 22.1758C118.047 21.957 118.141 21.7188 118.141 21.4609C118.141 21.3281 118.113 21.2031 118.059 21.0859C118.004 20.9609 117.918 20.8477 117.801 20.7461C117.715 20.6758 117.629 20.625 117.543 20.5938C117.457 20.5547 117.289 20.5312 117.039 20.5234L116.418 20.5117L116.371 19.5859C116.543 19.5625 116.73 19.543 116.934 19.5273C117.145 19.5117 117.328 19.5039 117.484 19.5039C117.883 19.5039 118.27 19.5703 118.645 19.7031C119.02 19.8281 119.336 20.0742 119.594 20.4414C119.664 20.543 119.723 20.6758 119.77 20.8398C119.824 21.0039 119.852 21.1797 119.852 21.3672C119.852 21.5234 119.828 21.6836 119.781 21.8477C119.734 22.0117 119.652 22.168 119.535 22.3164C119.418 22.457 119.258 22.582 119.055 22.6914ZM145.984 42.0625V35.418C145.734 35.9336 145.305 36.3945 144.695 36.8008C144.094 37.1992 143.27 37.3984 142.223 37.3984C140.746 37.3984 139.488 36.8086 138.449 35.6289C137.41 34.4492 136.891 32.875 136.891 30.9062C136.891 28.7812 137.41 27.082 138.449 25.8086C139.496 24.5352 140.785 23.8984 142.316 23.8984C143.379 23.8984 144.238 24.1602 144.895 24.6836C145.277 24.9805 145.668 25.4688 146.066 26.1484V24.25H149.289V42.0625H145.984ZM140.723 32.9336C141.16 34.0039 141.973 34.5391 143.16 34.5391C144.309 34.5391 145.125 34.0469 145.609 33.0625C145.922 32.4141 146.078 31.5938 146.078 30.6016C146.078 29.8203 145.945 29.1211 145.68 28.5039C145.203 27.3945 144.367 26.8398 143.172 26.8398C142.328 26.8398 141.648 27.1641 141.133 27.8125C140.625 28.4609 140.371 29.4453 140.371 30.7656C140.371 31.6484 140.488 32.3711 140.723 32.9336ZM160.609 35.1953C160.578 35.2344 160.5 35.3516 160.375 35.5469C160.25 35.7422 160.102 35.9141 159.93 36.0625C159.406 36.5312 158.898 36.8516 158.406 37.0234C157.922 37.1953 157.352 37.2812 156.695 37.2812C154.805 37.2812 153.531 36.6016 152.875 35.2422C152.508 34.4922 152.324 33.3867 152.324 31.9258V24.2266H155.746V31.9258C155.746 32.6523 155.832 33.1992 156.004 33.5664C156.309 34.2148 156.906 34.5391 157.797 34.5391C158.938 34.5391 159.719 34.0781 160.141 33.1562C160.359 32.6562 160.469 31.9961 160.469 31.1758V24.2266H163.855V37H160.609V35.1953ZM167.57 25.6094C168.453 24.4844 169.969 23.9219 172.117 23.9219C173.516 23.9219 174.758 24.1992 175.844 24.7539C176.93 25.3086 177.473 26.3555 177.473 27.8945V33.7539C177.473 34.1602 177.48 34.6523 177.496 35.2305C177.52 35.668 177.586 35.9648 177.695 36.1211C177.805 36.2773 177.969 36.4062 178.188 36.5078V37H174.555C174.453 36.7422 174.383 36.5 174.344 36.2734C174.305 36.0469 174.273 35.7891 174.25 35.5C173.789 36 173.258 36.4258 172.656 36.7773C171.938 37.1914 171.125 37.3984 170.219 37.3984C169.062 37.3984 168.105 37.0703 167.348 36.4141C166.598 35.75 166.223 34.8125 166.223 33.6016C166.223 32.0312 166.828 30.8945 168.039 30.1914C168.703 29.8086 169.68 29.5352 170.969 29.3711L172.105 29.2305C172.723 29.1523 173.164 29.0547 173.43 28.9375C173.906 28.7344 174.145 28.418 174.145 27.9883C174.145 27.4648 173.961 27.1055 173.594 26.9102C173.234 26.707 172.703 26.6055 172 26.6055C171.211 26.6055 170.652 26.8008 170.324 27.1914C170.09 27.4805 169.934 27.8711 169.855 28.3633H166.633C166.703 27.2461 167.016 26.3281 167.57 25.6094ZM170.055 34.5859C170.367 34.8438 170.75 34.9727 171.203 34.9727C171.922 34.9727 172.582 34.7617 173.184 34.3398C173.793 33.918 174.109 33.1484 174.133 32.0312V30.7891C173.922 30.9219 173.707 31.0312 173.488 31.1172C173.277 31.1953 172.984 31.2695 172.609 31.3398L171.859 31.4805C171.156 31.6055 170.652 31.7578 170.348 31.9375C169.832 32.2422 169.574 32.7148 169.574 33.3555C169.574 33.9258 169.734 34.3359 170.055 34.5859ZM185.641 33.6484L188.277 24.2266H191.828L187.445 36.7891C186.602 39.2109 185.934 40.7109 185.441 41.2891C184.949 41.875 183.965 42.168 182.488 42.168C182.191 42.168 181.953 42.1641 181.773 42.1562C181.594 42.1562 181.324 42.1445 180.965 42.1211V39.4492L181.387 39.4727C181.715 39.4883 182.027 39.4766 182.324 39.4375C182.621 39.3984 182.871 39.3086 183.074 39.168C183.27 39.0352 183.449 38.7578 183.613 38.3359C183.785 37.9141 183.855 37.6562 183.824 37.5625L179.137 24.2266H182.852L185.641 33.6484Z" fill="url(#paint2_linear_584_8)"/>
<defs>
<filter id="filter0_d_584_8" x="0" y="0" width="233" height="62" filterUnits="userSpaceOnUse" color-interpolation-filters="sRGB">
<feFlood flood-opacity="0" result="BackgroundImageFix"/>
<feColorMatrix in="SourceAlpha" type="matrix" values="0 0 0 0 0 0 0 0 0 0 0 0 0 0 0 0 0 0 127 0" result="hardAlpha"/>
<feOffset dy="2"/>
<feGaussianBlur stdDeviation="1"/>
<feComposite in2="hardAlpha" operator="out"/>
<feColorMatrix type="matrix" values="0 0 0 0 0 0 0 0 0 0 0 0 0 0 0 0 0 0 0.25 0"/>
<feBlend mode="normal" in2="BackgroundImageFix" result="effect1_dropShadow_584_8"/>
<feBlend mode="normal" in="SourceGraphic" in2="effect1_dropShadow_584_8" result="shape"/>
</filter>
<linearGradient id="paint0_linear_584_8" x1="116.5" y1="-13.8773" x2="116.5" y2="58" gradientUnits="userSpaceOnUse">
<stop stop-color="#D50000"/>
<stop offset="1" stop-color="#920000"/>
</linearGradient>
<linearGradient id="paint1_linear_584_8" x1="116.5" y1="-13.8773" x2="116.5" y2="58" gradientUnits="userSpaceOnUse">
<stop stop-color="#FEFEFD"/>
<stop offset="1" stop-color="#FBFFBB"/>
</linearGradient>
<linearGradient id="paint2_linear_584_8" x1="116.5" y1="15" x2="116.5" y2="43" gradientUnits="userSpaceOnUse">
<stop stop-color="#FFC341"/>
<stop offset="1" stop-color="#FFFF82"/>
</linearGradient>
</defs>
</svg>
