<svg width="233" height="62" viewBox="0 0 233 62" fill="none" xmlns="http://www.w3.org/2000/svg">
<g filter="url(#filter0_d_584_7)">
<path d="M2 12.7424V10.5159C2 5.07012 6.35761 0.625514 11.8024 0.517881L38 0L114 0.711656L195 0L221.198 0.517881C226.642 0.625514 231 5.07012 231 10.5159V12.7424V15.3006V48C231 53.5228 226.523 58 221 58H12C6.47716 58 2 53.5228 2 48V15.3006V12.7424Z" fill="url(#paint0_linear_584_7)"/>
<path d="M113.986 2.21159L114 2.21172L114.013 2.2116L194.992 1.50013L221.168 2.01759C225.796 2.10908 229.5 5.88699 229.5 10.5159V12.7424V15.3006V48C229.5 52.6944 225.694 56.5 221 56.5H12C7.30558 56.5 3.5 52.6944 3.5 48V15.3006V12.7424V10.5159C3.5 5.88699 7.20397 2.10908 11.832 2.01759L38.0078 1.50014L113.986 2.21159Z" stroke="url(#paint1_linear_584_7)" stroke-width="3"/>
</g>
<path d="M78.2383 37H74.6289L67.5742 24.7305V37H64.2109V19.7266H67.9961L74.875 31.7852V19.7266H78.2383V37ZM92.8867 29.5V37H89.4766V29.2305C89.4766 28.543 89.3594 27.9883 89.125 27.5664C88.8203 26.9727 88.2422 26.6758 87.3906 26.6758C86.5078 26.6758 85.8359 26.9727 85.375 27.5664C84.9219 28.1523 84.6953 28.9922 84.6953 30.0859V37H81.3672V19.7852H84.6953V25.8906C85.1797 25.1484 85.7383 24.6328 86.3711 24.3438C87.0117 24.0469 87.6836 23.8984 88.3867 23.8984C89.1758 23.8984 89.8906 24.0352 90.5312 24.3086C91.1797 24.582 91.7109 25 92.125 25.5625C92.4766 26.0391 92.6914 26.5312 92.7695 27.0391C92.8477 27.5391 92.8867 28.3594 92.8867 29.5ZM99.4492 24.2266V37H96.0625V24.2266H99.4492ZM99.4492 19.6211V22.7031H96.0625V19.6211H99.4492ZM113.629 33.25C113.543 34.0078 113.148 34.7773 112.445 35.5586C111.352 36.8008 109.82 37.4219 107.852 37.4219C106.227 37.4219 104.793 36.8984 103.551 35.8516C102.309 34.8047 101.688 33.1016 101.688 30.7422C101.688 28.5312 102.246 26.8359 103.363 25.6562C104.488 24.4766 105.945 23.8867 107.734 23.8867C108.797 23.8867 109.754 24.0859 110.605 24.4844C111.457 24.8828 112.16 25.5117 112.715 26.3711C113.215 27.1289 113.539 28.0078 113.688 29.0078C113.773 29.5938 113.809 30.4375 113.793 31.5391H105.051C105.098 32.8203 105.5 33.7188 106.258 34.2344C106.719 34.5547 107.273 34.7148 107.922 34.7148C108.609 34.7148 109.168 34.5195 109.598 34.1289C109.832 33.918 110.039 33.625 110.219 33.25H113.629ZM110.324 29.3359C110.27 28.4531 110 27.7852 109.516 27.332C109.039 26.8711 108.445 26.6406 107.734 26.6406C106.961 26.6406 106.359 26.8828 105.93 27.3672C105.508 27.8516 105.242 28.5078 105.133 29.3359H110.324ZM106.258 19.1055H109.258L112 22.6094H109.281L107.758 20.6406L106.223 22.6094H103.504L106.258 19.1055ZM106.223 38.2305H109.27V41.0078H106.223V38.2305ZM123.227 27.7422C122.945 27.125 122.395 26.8164 121.574 26.8164C120.621 26.8164 119.98 27.125 119.652 27.7422C119.473 28.0938 119.383 28.6172 119.383 29.3125V37H115.996V24.25H119.242V26.1133C119.656 25.4492 120.047 24.9766 120.414 24.6953C121.062 24.1953 121.902 23.9453 122.934 23.9453C123.91 23.9453 124.699 24.1602 125.301 24.5898C125.785 24.9883 126.152 25.5 126.402 26.125C126.84 25.375 127.383 24.8242 128.031 24.4727C128.719 24.1211 129.484 23.9453 130.328 23.9453C130.891 23.9453 131.445 24.0547 131.992 24.2734C132.539 24.4922 133.035 24.875 133.48 25.4219C133.84 25.8672 134.082 26.4141 134.207 27.0625C134.285 27.4922 134.324 28.1211 134.324 28.9492L134.301 37H130.879V28.8672C130.879 28.3828 130.801 27.9844 130.645 27.6719C130.348 27.0781 129.801 26.7812 129.004 26.7812C128.082 26.7812 127.445 27.1641 127.094 27.9297C126.914 28.3359 126.824 28.8242 126.824 29.3945V37H123.461V29.3945C123.461 28.6367 123.383 28.0859 123.227 27.7422ZM142.832 24.2266H146.582L149.242 33.6484L151.961 24.2266H155.547L150.941 37H147.414L142.832 24.2266ZM165.637 35.1953C165.605 35.2344 165.527 35.3516 165.402 35.5469C165.277 35.7422 165.129 35.9141 164.957 36.0625C164.434 36.5312 163.926 36.8516 163.434 37.0234C162.949 37.1953 162.379 37.2812 161.723 37.2812C159.832 37.2812 158.559 36.6016 157.902 35.2422C157.535 34.4922 157.352 33.3867 157.352 31.9258V24.2266H160.773V31.9258C160.773 32.6523 160.859 33.1992 161.031 33.5664C161.336 34.2148 161.934 34.5391 162.824 34.5391C163.965 34.5391 164.746 34.0781 165.168 33.1562C165.387 32.6562 165.496 31.9961 165.496 31.1758V24.2266H168.883V37H165.637V35.1953ZM161.594 38.3359H164.641V41.1133H161.594V38.3359Z" fill="url(#paint2_linear_584_7)"/>
<defs>
<filter id="filter0_d_584_7" x="0" y="0" width="233" height="62" filterUnits="userSpaceOnUse" color-interpolation-filters="sRGB">
<feFlood flood-opacity="0" result="BackgroundImageFix"/>
<feColorMatrix in="SourceAlpha" type="matrix" values="0 0 0 0 0 0 0 0 0 0 0 0 0 0 0 0 0 0 127 0" result="hardAlpha"/>
<feOffset dy="2"/>
<feGaussianBlur stdDeviation="1"/>
<feComposite in2="hardAlpha" operator="out"/>
<feColorMatrix type="matrix" values="0 0 0 0 0 0 0 0 0 0 0 0 0 0 0 0 0 0 0.25 0"/>
<feBlend mode="normal" in2="BackgroundImageFix" result="effect1_dropShadow_584_7"/>
<feBlend mode="normal" in="SourceGraphic" in2="effect1_dropShadow_584_7" result="shape"/>
</filter>
<linearGradient id="paint0_linear_584_7" x1="116.5" y1="-13.8773" x2="116.5" y2="58" gradientUnits="userSpaceOnUse">
<stop stop-color="#D50000"/>
<stop offset="1" stop-color="#920000"/>
</linearGradient>
<linearGradient id="paint1_linear_584_7" x1="116.5" y1="-13.8773" x2="116.5" y2="58" gradientUnits="userSpaceOnUse">
<stop stop-color="#FEFEFD"/>
<stop offset="1" stop-color="#FBFFBB"/>
</linearGradient>
<linearGradient id="paint2_linear_584_7" x1="116.5" y1="15" x2="116.5" y2="43" gradientUnits="userSpaceOnUse">
<stop stop-color="#FFC341"/>
<stop offset="1" stop-color="#FFFF82"/>
</linearGradient>
</defs>
</svg>
