<svg width="30" height="30" viewBox="0 0 30 30" fill="none" xmlns="http://www.w3.org/2000/svg">
<g clip-path="url(#clip0_55_456)">
<path d="M15.0001 19.2188C12.2153 19.2188 9.57152 18.1585 7.55543 16.2333C7.18137 15.8756 7.16777 15.2822 7.52543 14.9077C7.88262 14.5327 8.47606 14.5196 8.85106 14.8772C10.5161 16.4677 12.7 17.3438 15.0001 17.3438C17.3003 17.3438 19.4842 16.4677 21.1492 14.8777C21.5232 14.52 22.1171 14.5331 22.4748 14.9081C22.8325 15.2827 22.8184 15.8761 22.4448 16.2338C20.4287 18.1585 17.785 19.2188 15.0001 19.2188ZM6.2209 13.8281C5.87918 13.8281 5.54965 13.6406 5.38418 13.3153C4.77059 12.1083 4.39512 10.8122 4.26668 9.46362C4.21793 8.94799 4.59621 8.49049 5.11184 8.44174C5.62652 8.39487 6.08449 8.77174 6.13371 9.28643C6.23918 10.3997 6.54949 11.4694 7.05621 12.466C7.29059 12.9277 7.10637 13.4916 6.64512 13.7264C6.50918 13.7958 6.36387 13.8281 6.2209 13.8281ZM23.7793 13.8281C23.6364 13.8281 23.4915 13.7953 23.3556 13.726C22.8943 13.4916 22.7101 12.9272 22.9445 12.4655C23.4512 11.4694 23.7615 10.3997 23.867 9.28596C23.9157 8.7708 24.3747 8.39487 24.8889 8.44127C25.4045 8.49002 25.7828 8.94799 25.734 9.46315C25.6061 10.8117 25.2301 12.1078 24.6165 13.3149C24.4501 13.6411 24.1211 13.8281 23.7793 13.8281ZM5.55059 6.62862C5.46481 6.62862 5.37762 6.6169 5.2909 6.59158C4.79309 6.44862 4.50574 5.92924 4.64918 5.43143C5.09121 3.89393 5.89231 2.44737 6.96574 1.24924C7.31027 0.863928 7.90418 0.830647 8.28902 1.17658C8.67481 1.52205 8.70762 2.11455 8.36168 2.50033C7.47574 3.4894 6.81481 4.6819 6.45059 5.9494C6.33293 6.36096 5.95793 6.62862 5.55059 6.62862ZM24.4496 6.62862C24.0423 6.62862 23.6673 6.36096 23.5492 5.94987C23.185 4.68237 22.5236 3.4894 21.6381 2.5008C21.2926 2.11502 21.325 1.52252 21.7107 1.17705C22.0956 0.831115 22.6895 0.864396 23.034 1.24971C24.1075 2.44783 24.9086 3.8944 25.3506 5.4319C25.494 5.92971 25.2062 6.44862 24.7089 6.59205C24.6226 6.61643 24.5354 6.62862 24.4496 6.62862Z" fill="#F99E0D"/>
<path d="M6.48754 7.86569L6.04691 9.20162C5.91566 9.59537 5.55004 9.84381 5.15629 9.84381C5.05785 9.84381 4.95941 9.82975 4.86097 9.79694L3.52504 9.35631C1.56566 8.70475 0.492224 6.58131 1.14379 4.61725L1.58441 3.28131C1.74847 2.79381 2.27816 2.52662 2.76566 2.686L4.1016 3.12662C6.06566 3.77819 7.13441 5.90162 6.48754 7.86569Z" fill="#FFC242"/>
<path d="M4.10169 3.12655L2.99778 2.76233C2.99075 2.77967 2.98091 2.79467 2.97528 2.81249L2.53466 4.14842C1.88309 6.11249 2.95653 8.23592 4.91591 8.88749L6.02075 9.2517C6.02778 9.23389 6.04091 9.21983 6.047 9.20155L6.48762 7.86561C7.1345 5.90155 6.06575 3.77811 4.10169 3.12655Z" fill="#FEF156"/>
<path d="M5.73608 7.49997C5.23827 7.49997 4.82296 7.10763 4.80046 6.60466C4.77608 6.06606 4.52108 5.56356 4.10061 5.22606C3.69702 4.90216 3.63233 4.312 3.95624 3.90794C4.28015 3.50388 4.87077 3.44013 5.27436 3.76356C6.1153 4.43809 6.6253 5.44309 6.67358 6.52028C6.69702 7.03778 6.29624 7.47559 5.77921 7.49903C5.76515 7.49997 5.75061 7.49997 5.73608 7.49997Z" fill="#FFFBB3"/>
<path d="M9.29543 16.3219C9.19231 16.5469 9.00481 16.725 8.77043 16.814L7.45793 17.3156C7.01731 17.4797 6.56731 17.5594 6.12668 17.5594C4.61262 17.5594 3.18762 16.6406 2.61575 15.1453L2.11887 13.8328C2.02981 13.5984 2.0345 13.3406 2.13762 13.1156C2.24075 12.8859 2.42825 12.7125 2.65793 12.6234L3.97512 12.1219C5.90637 11.3859 8.07668 12.3562 8.81262 14.2875L9.31418 15.6047C9.40325 15.8344 9.39387 16.0922 9.29543 16.3219Z" fill="#FFC242"/>
<path d="M8.81243 14.2875C8.07649 12.3562 5.90618 11.3859 3.97493 12.1219L3.46727 12.3155C3.42696 12.3694 3.39133 12.427 3.36321 12.4903C3.26008 12.7153 3.2554 12.9731 3.34446 13.2075L3.84133 14.52C4.41321 16.0153 5.83821 16.934 7.35227 16.934C7.7929 16.934 8.24289 16.8544 8.68352 16.6903L9.18977 16.4967C9.23055 16.4423 9.26711 16.3847 9.29571 16.3219C9.39414 16.0922 9.40352 15.8344 9.31446 15.6047L8.81243 14.2875Z" fill="#FEF156"/>
<path d="M8.43757 16.875C8.05976 16.875 7.70444 16.6453 7.56148 16.2713L7.06085 14.9574C6.93804 14.6344 6.72944 14.3527 6.45804 14.1432C6.04882 13.8268 5.97335 13.2375 6.29022 12.8283C6.60663 12.4186 7.19679 12.3441 7.60554 12.66C8.14976 13.081 8.56788 13.6449 8.81351 14.2899L9.31413 15.6038C9.49882 16.0875 9.25554 16.6294 8.77179 16.8136C8.66163 16.8553 8.54866 16.875 8.43757 16.875Z" fill="#FFFBB3"/>
<path d="M26.4751 9.35631L25.1391 9.79694C25.0407 9.82975 24.9423 9.84381 24.8438 9.84381C24.4501 9.84381 24.0844 9.59537 23.9532 9.20162L23.5126 7.86569C22.8657 5.90162 23.9344 3.77819 25.8985 3.12662L27.2344 2.686C27.7219 2.52662 28.2563 2.79381 28.4157 3.28131L28.8563 4.61725C29.5079 6.58131 28.4344 8.70475 26.4751 9.35631Z" fill="#FFC242"/>
<path d="M28.8563 4.61725L28.4157 3.28131C28.2563 2.79381 27.7219 2.52662 27.2344 2.686L25.8985 3.12662C25.2202 3.35162 24.6521 3.75475 24.2213 4.26381C23.8678 5.07897 23.7961 6.01975 24.0952 6.92818L24.5358 8.26412C24.6671 8.65787 25.0327 8.90631 25.4264 8.90631C25.5249 8.90631 25.6233 8.89225 25.7217 8.85944L27.0577 8.41881C27.7341 8.19381 28.3017 7.79069 28.7325 7.28162C29.0864 6.46647 29.1577 5.52569 28.8563 4.61725Z" fill="#FEF156"/>
<path d="M28.0956 7.0313C28.0623 7.0313 28.0286 7.0299 27.9948 7.02615C27.4797 6.9713 27.107 6.50912 27.1623 5.99443C27.1909 5.72771 27.1618 5.46287 27.0775 5.20693L26.9289 4.75787C26.4625 4.86568 25.9815 4.60224 25.8282 4.13818C25.6661 3.64646 25.9328 3.1163 26.424 2.95412L27.2317 2.6874C27.4689 2.60958 27.7257 2.6288 27.9475 2.7399C28.1696 2.85146 28.3379 3.04693 28.4162 3.28318L28.8573 4.61865C29.0261 5.12958 29.0828 5.65927 29.0256 6.19318C28.975 6.67412 28.5686 7.0313 28.0956 7.0313Z" fill="#FFFBB3"/>
<path d="M27.8814 13.8328L27.3845 15.1453C26.8127 16.6406 25.3877 17.5594 23.8736 17.5594C23.433 17.5594 22.983 17.4797 22.5423 17.3156L21.2298 16.814C20.9955 16.725 20.808 16.5469 20.7048 16.3219C20.6064 16.0922 20.597 15.8344 20.6861 15.6047L21.1877 14.2875C21.9236 12.3562 24.0939 11.3859 26.0252 12.1219L27.3423 12.6234C27.572 12.7125 27.7595 12.8859 27.8627 13.1156C27.9658 13.3406 27.9705 13.5984 27.8814 13.8328Z" fill="#FFC242"/>
<path d="M24.8114 16.4062C25.6874 16.4062 26.5279 16.0907 27.1964 15.5418C27.2639 15.4129 27.3314 15.284 27.3848 15.1453L27.8817 13.8328C27.9707 13.5984 27.966 13.3406 27.8629 13.1156C27.7598 12.8859 27.5723 12.7125 27.3426 12.6234L26.0254 12.1218C24.7237 11.6259 23.3151 11.9072 22.3087 12.7331C22.2412 12.862 22.1789 12.9947 22.1259 13.1343L21.6243 14.4515C21.5353 14.6812 21.5446 14.939 21.6431 15.1687C21.7462 15.3937 21.9337 15.5718 22.1681 15.6609L23.4806 16.1625C23.9207 16.3265 24.3707 16.4062 24.8114 16.4062Z" fill="#FEF156"/>
<path d="M27.0072 14.4356C26.8961 14.4356 26.7831 14.4159 26.6734 14.3742L25.3595 13.8731C24.9747 13.7264 24.5636 13.7095 24.1689 13.8244C23.6729 13.9701 23.1517 13.6842 23.0068 13.1869C22.8615 12.69 23.1475 12.1697 23.6443 12.0248C24.4337 11.7947 25.2578 11.8279 26.0275 12.1219L27.3414 12.6225C27.8251 12.8072 28.0684 13.3486 27.8837 13.8323C27.7408 14.2054 27.385 14.4356 27.0072 14.4356Z" fill="#FFFBB3"/>
<path d="M15 15.9375C14.4825 15.9375 14.0625 15.5175 14.0625 15V10.7812C14.0625 10.2638 14.4825 9.84375 15 9.84375C15.5175 9.84375 15.9375 10.2638 15.9375 10.7812V15C15.9375 15.5175 15.5175 15.9375 15 15.9375Z" fill="#4D5460"/>
<path d="M18.2812 15V18.2812C18.2812 18.7969 17.8594 19.2188 17.3438 19.2188H12.6562C12.1406 19.2188 11.7188 18.7969 11.7188 18.2812V15C11.7188 14.4844 12.1406 14.0625 12.6562 14.0625H17.3438C17.8594 14.0625 18.2812 14.4844 18.2812 15Z" fill="#FCAA1A"/>
<path d="M18.2812 15V15.9375H14.5312C14.0133 15.9375 13.5938 15.518 13.5938 15C13.5938 14.4844 14.0156 14.0625 14.5312 14.0625H17.3438C17.8594 14.0625 18.2812 14.4844 18.2812 15Z" fill="#FFC242"/>
<path d="M21.136 6.7125L19.1579 8.65781L19.6126 11.3953C19.7064 11.9531 19.4767 12.5062 19.022 12.8391C18.5626 13.1766 17.9626 13.2188 17.461 12.9562L15.0001 11.6812L12.5392 12.9562C12.3189 13.0687 12.0845 13.125 11.8548 13.125C11.5454 13.125 11.2407 13.0312 10.9829 12.8438C10.5235 12.5062 10.2939 11.9531 10.3876 11.3953L10.8423 8.65781L8.86416 6.7125C8.46104 6.31406 8.32041 5.73281 8.49854 5.19375C8.66729 4.65938 9.12666 4.27031 9.68448 4.18594L12.4314 3.76875L13.6735 1.28906C13.9267 0.782812 14.4329 0.46875 15.0001 0.46875C15.5673 0.46875 16.0735 0.782812 16.3267 1.28906L17.5688 3.76875L20.3157 4.18594C20.8735 4.27031 21.3329 4.65938 21.5064 5.19844C21.6798 5.73281 21.5392 6.31406 21.136 6.7125Z" fill="#FCAA1A"/>
<path d="M18.2827 5.76375C18.2359 5.76375 18.189 5.76 18.1417 5.75297L17.0912 5.595C16.6121 5.52234 16.1987 5.22094 15.9831 4.78922L14.9987 2.82187C14.7502 3.24187 14.2173 3.40359 13.7724 3.18234C13.3098 2.95031 13.1218 2.38734 13.3538 1.92422L13.6712 1.28953C13.9248 0.783281 14.4338 0.46875 15.0001 0.46875C15.5663 0.46875 16.0754 0.783281 16.3285 1.28906L17.5698 3.77062L18.4206 3.89906C18.9329 3.97641 19.2854 4.45359 19.2081 4.96547C19.1382 5.43047 18.7388 5.76375 18.2827 5.76375ZM17.6602 3.95062L17.6607 3.95156L17.6602 3.95062Z" fill="#FFC242"/>
<path d="M20.1562 25.7812H9.84375V19.2188C9.84375 18.7008 10.2633 18.2812 10.7812 18.2812H19.2188C19.7367 18.2812 20.1562 18.7008 20.1562 19.2188V25.7812Z" fill="#384051"/>
<path d="M19.2188 17.3438H10.7812C9.74531 17.3438 8.90625 18.1828 8.90625 19.2188V25.7812C8.90625 26.2969 9.32812 26.7188 9.84375 26.7188H20.1562C20.6719 26.7188 21.0938 26.2969 21.0938 25.7812V19.2188C21.0938 18.1828 20.2547 17.3438 19.2188 17.3438ZM19.2188 24.8438H10.7812V19.2188H19.2188V24.8438Z" fill="#FFC242"/>
<path d="M21.0938 19.2188V23.475C20.9391 23.4469 20.7844 23.4375 20.625 23.4375H19.2188V19.2188H10.7812C10.7812 18.1828 11.6203 17.3438 12.6562 17.3438H19.2188C20.2547 17.3438 21.0938 18.1828 21.0938 19.2188Z" fill="#FEF156"/>
<path d="M20.1562 21.5625C19.6388 21.5625 19.2188 21.1425 19.2188 20.625V19.2188H17.3438C16.8263 19.2188 16.4062 18.7988 16.4062 18.2812C16.4062 17.7638 16.8263 17.3438 17.3438 17.3438H19.2188C20.2528 17.3438 21.0938 18.1847 21.0938 19.2188V20.625C21.0938 21.1425 20.6737 21.5625 20.1562 21.5625Z" fill="#FFFBB3"/>
<path d="M22.5 26.7188V28.5938C22.5 29.1094 22.0781 29.5312 21.5625 29.5312H8.4375C7.92188 29.5312 7.5 29.1094 7.5 28.5938V26.7188C7.5 25.6828 8.33906 24.8438 9.375 24.8438H20.625C21.6609 24.8438 22.5 25.6828 22.5 26.7188Z" fill="#FFC242"/>
<path d="M20.625 24.8438H9.375C9.23063 24.8438 9.09187 24.8634 8.95687 24.8944C8.92594 25.0294 8.90625 25.1681 8.90625 25.3125C8.90625 26.8594 10.1719 28.125 11.7188 28.125H22.5V26.7188C22.5 25.6833 21.6605 24.8438 20.625 24.8438Z" fill="#FEF156"/>
<path d="M19.6875 26.7188H15C14.482 26.7188 14.0625 26.2992 14.0625 25.7812C14.0625 25.2633 14.482 24.8438 15 24.8438H19.6875C20.2055 24.8438 20.625 25.2633 20.625 25.7812C20.625 26.2992 20.2055 26.7188 19.6875 26.7188Z" fill="#FFFBB3"/>
</g>
<defs>
<clipPath id="clip0_55_456">
<rect width="30" height="30" fill="white"/>
</clipPath>
</defs>
</svg>
