<svg width="38" height="39" viewBox="0 0 38 39" fill="none" xmlns="http://www.w3.org/2000/svg">
<path d="M0 35V11H38V35C38 37.2 36.2 39 34 39H4C1.8 39 0 37.2 0 35Z" fill="#CFD8DC"/>
<path d="M38 7V13H0V7C0 4.8 1.8 3 4 3H34C36.2 3 38 4.8 38 7Z" fill="#F44336"/>
<path d="M28 4C26.3431 4 25 5.34315 25 7C25 8.65685 26.3431 10 28 10C29.6568 10 31 8.65685 31 7C31 5.34315 29.6568 4 28 4ZM10 4C8.34315 4 7 5.34315 7 7C7 8.65685 8.34315 10 10 10C11.6568 10 13 8.65685 13 7C13 5.34315 11.6568 4 10 4Z" fill="#B71C1C"/>
<path d="M28 0C26.9 0 26 0.899999 26 2V7C26 8.09999 26.9 8.99999 28 8.99999C29.1 8.99999 30 8.09999 30 7V2C30 0.899999 29.1 0 28 0ZM10 0C8.9 0 8 0.899999 8 2V7C8 8.09999 8.9 8.99999 10 8.99999C11.1 8.99999 12 8.09999 12 7V2C12 0.899999 11.1 0 10 0Z" fill="#B0BEC5"/>
<path d="M8 17H12V21H8V17ZM14 17H18V21H14V17ZM20 17H24V21H20V17ZM26 17H30V21H26V17ZM8 23H12V27H8V23ZM14 23H18V27H14V23ZM20 23H24V27H20V23ZM26 23H30V27H26V23ZM8 29H12V33H8V29ZM14 29H18V33H14V29ZM20 29H24V33H20V29ZM26 29H30V33H26V29Z" fill="#90A4AE"/>
</svg>
