<svg width="40" height="40" viewBox="0 0 40 40" fill="none" xmlns="http://www.w3.org/2000/svg">
<path d="M3.99999 0C2.97611 0 1.95237 0.390881 1.17187 1.17188C-0.390134 2.73288 -0.390134 5.26614 1.17187 6.82814L14.3438 20L1.17188 33.1719C-0.390125 34.7329 -0.390125 37.2662 1.17188 38.8282C1.95188 39.6092 2.97701 40.0001 4.00001 40.0001C5.02301 40.0001 6.04813 39.6092 6.82814 38.8282L20 25.6563L33.1719 38.8282C33.9519 39.6092 34.9771 40.0001 36.0001 40.0001C37.0231 40.0001 38.0482 39.6092 38.8282 38.8282C40.3902 37.2672 40.3902 34.734 38.8282 33.172L25.6563 20.0001L38.8282 6.82819C40.3902 5.26719 40.3902 2.73393 38.8282 1.17193C37.2682 -0.39007 34.733 -0.39007 33.172 1.17193L20.0001 14.3438L6.82818 1.17194C6.04818 0.39094 5.02386 0 3.99999 0Z" fill="white"/>
</svg>
