<svg width="21" height="21" viewBox="0 0 21 21" fill="none" xmlns="http://www.w3.org/2000/svg">
<path d="M16.7501 12.5832C16.1347 12.5873 15.5278 12.7277 14.973 12.9942C14.4183 13.2608 13.9295 13.6469 13.5418 14.1249L8.22926 11.677C8.47904 10.9122 8.47904 10.0877 8.22926 9.32283L13.5418 6.87492C14.1684 7.63113 15.0421 8.14166 16.0086 8.31641C16.9751 8.49117 17.9722 8.3189 18.824 7.83002C19.6758 7.34114 20.3276 6.56708 20.6642 5.64444C21.0009 4.7218 21.0008 3.7099 20.6639 2.78732C20.3271 1.86474 19.6752 1.09079 18.8233 0.60207C17.9714 0.113346 16.9743 -0.0587369 16.0078 0.11619C15.0414 0.291118 14.1678 0.801811 13.5413 1.55814C12.9147 2.31447 12.5755 3.26781 12.5834 4.24992C12.5866 4.49807 12.611 4.74551 12.6563 4.9895L7.15634 7.52075C6.56997 6.94739 5.82743 6.55983 5.02177 6.40661C4.2161 6.25339 3.38314 6.34134 2.62723 6.65943C1.87133 6.97752 1.2261 7.5116 0.772387 8.19477C0.318676 8.87794 0.0766602 9.67981 0.0766602 10.4999C0.0766602 11.32 0.318676 12.1219 0.772387 12.8051C1.2261 13.4882 1.87133 14.0223 2.62723 14.3404C3.38314 14.6585 4.2161 14.7464 5.02177 14.5932C5.82743 14.44 6.56997 14.0524 7.15634 13.4791L12.6563 16.0103C12.611 16.2543 12.5866 16.5018 12.5834 16.7499C12.5834 17.574 12.8278 18.3796 13.2856 19.0648C13.7435 19.75 14.3942 20.284 15.1556 20.5994C15.9169 20.9148 16.7547 20.9973 17.563 20.8365C18.3712 20.6757 19.1137 20.2789 19.6964 19.6962C20.2791 19.1135 20.6759 18.371 20.8367 17.5628C20.9975 16.7545 20.915 15.9168 20.5996 15.1554C20.2842 14.394 19.7502 13.7433 19.065 13.2855C18.3798 12.8276 17.5742 12.5832 16.7501 12.5832ZM16.7501 2.16658C17.1621 2.16658 17.5649 2.28877 17.9075 2.51769C18.2501 2.74661 18.5172 3.07198 18.6748 3.45266C18.8325 3.83334 18.8738 4.25223 18.7934 4.65635C18.713 5.06048 18.5146 5.4317 18.2232 5.72305C17.9319 6.01441 17.5607 6.21283 17.1565 6.29322C16.7524 6.3736 16.3335 6.33235 15.9528 6.17466C15.5722 6.01698 15.2468 5.74996 15.0179 5.40735C14.7889 5.06475 14.6668 4.66196 14.6668 4.24992C14.6668 3.69738 14.8863 3.16748 15.277 2.77678C15.6677 2.38608 16.1976 2.16658 16.7501 2.16658ZM4.2501 12.5832C3.83805 12.5832 3.43526 12.4611 3.09266 12.2321C2.75006 12.0032 2.48303 11.6779 2.32535 11.2972C2.16766 10.9165 2.12641 10.4976 2.20679 10.0935C2.28718 9.68935 2.4856 9.31814 2.77696 9.02678C3.06832 8.73542 3.43953 8.537 3.84366 8.45661C4.24778 8.37623 4.66667 8.41748 5.04735 8.57517C5.42803 8.73285 5.7534 8.99988 5.98232 9.34248C6.21124 9.68508 6.33343 10.0879 6.33343 10.4999C6.33343 11.0525 6.11393 11.5824 5.72323 11.9731C5.33253 12.3638 4.80263 12.5832 4.2501 12.5832ZM16.7501 18.8332C16.3381 18.8332 15.9353 18.7111 15.5927 18.4821C15.2501 18.2532 14.983 17.9279 14.8253 17.5472C14.6677 17.1665 14.6264 16.7476 14.7068 16.3435C14.7872 15.9394 14.9856 15.5681 15.277 15.2768C15.5683 14.9854 15.9395 14.787 16.3437 14.7066C16.7478 14.6262 17.1667 14.6675 17.5474 14.8252C17.928 14.9828 18.2534 15.2499 18.4823 15.5925C18.7112 15.9351 18.8334 16.3379 18.8334 16.7499C18.8334 17.3025 18.6139 17.8324 18.2232 18.2231C17.8325 18.6138 17.3026 18.8332 16.7501 18.8332Z" fill="white"/>
</svg>
