<svg width="28" height="28" viewBox="0 0 28 28" fill="none" xmlns="http://www.w3.org/2000/svg">
<path d="M23.8 14.8002H0.8C0.3 14.8002 0 14.4002 0 14.0002C0 13.6002 0.3 13.2002 0.8 13.2002H23.8C24.2 13.2002 24.6 13.5002 24.6 14.0002C24.6 14.5002 24.2 14.8002 23.8 14.8002Z" fill="#4A9F80"/>
<path d="M16.9 21.2998C16.7 21.2998 16.5 21.1998 16.4 21.0998C16.1 20.7998 16.1 20.2998 16.4 19.9998L22.7 13.9998L16.4 7.99981C16.1 7.69981 16.1 7.1998 16.4 6.8998C16.7 6.5998 17.2 6.5998 17.5 6.8998L24.4 13.3998C24.5 13.4998 24.6 13.6998 24.6 13.8998C24.6 14.0998 24.5 14.2998 24.4 14.3998L17.5 20.8998C17.3 21.1998 17.1 21.2998 16.9 21.2998Z" fill="#4A9F80"/>
<path d="M27.3 28H12.3C11.9 28 11.5 27.7 11.5 27.2V24C11.5 23.6 11.8 23.2 12.3 23.2C12.8 23.2 13 23.6 13 24V26.5H26.5V1.5H13V4C13 4.4 12.7 4.8 12.2 4.8C11.7 4.8 11.5 4.4 11.5 4V0.8C11.5 0.4 11.8 0 12.3 0H27.3C27.7 0 28 0.3 28 0.8V27.3C28 27.7 27.7 28 27.3 28Z" fill="#4A9F80"/>
</svg>
