<svg width="38" height="39" viewBox="0 0 38 39" fill="none" xmlns="http://www.w3.org/2000/svg">
<path d="M38 21V16.1C38 14.8 37.4 13.5 36.3 12.8L19 3L1.7 12.8C0.599999 13.6 0 14.8 0 16.1V21L19 34L38 21Z" fill="#698796"/>
<path d="M8 0H30V33H8V0Z" fill="#A5D6A7"/>
<path d="M30 32V0H8V32H30ZM28 30H10V2H28V30Z" fill="#388E3C"/>
<path d="M19 6C17.8954 6 17 6.89543 17 8C17 9.10457 17.8954 9.99999 19 9.99999C20.1046 9.99999 21 9.10457 21 8C21 6.89543 20.1046 6 19 6ZM9 1V5.221C9.532 5.7 10.228 6 11 6C12.657 6 14 4.657 14 3C14 2.228 13.7 1.532 13.221 1H9ZM29 1H24.779C24.3 1.532 24 2.228 24 3C24 4.657 25.343 6 27 6C27.772 6 28.468 5.7 29 5.221V1ZM19 14C15.6863 14 13 16.6863 13 20C13 23.3137 15.6863 26 19 26C22.3137 26 25 23.3137 25 20C25 16.6863 22.3137 14 19 14Z" fill="#388E3C"/>
<path d="M28 19.3159L19 24.9999L10 19.3159V34.9999H28V19.3159Z" fill="#66BB6A"/>
<path d="M19 26.0002C21.866 26.0002 24.259 23.9892 24.854 21.3032L19 25.0002L13.146 21.3032C13.741 23.9892 16.134 26.0002 19 26.0002ZM28 19.3162V35.0002H30V18.0532L28 19.3162ZM8 18.0532V35.0002H10V19.3162L8 18.0532Z" fill="#2E7D32"/>
<path d="M34 39H4C1.8 39 0 37.2 0 35V17L19 29L38 17V35C38 37.2 36.2 39 34 39Z" fill="#CFD8DC"/>
</svg>
