<svg width="17" height="17" viewBox="0 0 17 17" fill="none" xmlns="http://www.w3.org/2000/svg">
<path d="M6.6305 0.143637C3.41499 0.741117 0.838215 3.35352 0.262004 6.57289C-0.0722144 8.44075 0.246829 10.2128 1.01933 11.7137C1.10423 11.8785 1.12333 12.0676 1.0648 12.2435L0.0367698 15.3273C-0.143875 15.8693 0.37175 16.3849 0.913801 16.2043L4.00931 15.1725C4.18415 15.1142 4.372 15.1328 4.53613 15.2163C6.03243 15.9772 7.79616 16.2872 9.65259 15.9542C12.8641 15.3783 15.4698 12.8079 16.071 9.60102C17.1303 3.95176 12.2781 -0.905777 6.6305 0.143637ZM8.67765 10.5461H4.67956C4.28523 10.5461 3.9656 10.2266 3.9656 9.83217C3.9656 9.43784 4.28523 9.11821 4.67956 9.11821H8.67765C9.07204 9.11821 9.39161 9.43784 9.39161 9.83217C9.39161 10.2266 9.07204 10.5461 8.67765 10.5461ZM11.5335 7.69034H4.6795C4.28517 7.69034 3.96554 7.37077 3.96554 6.97637C3.96554 6.58203 4.28517 6.26241 4.6795 6.26241H11.5334C11.9278 6.26241 12.2474 6.58203 12.2474 6.97637C12.2474 7.37077 11.9278 7.69034 11.5335 7.69034Z" fill="#173042"/>
</svg>
