<svg width="20" height="20" viewBox="0 0 20 20" fill="none" xmlns="http://www.w3.org/2000/svg">
<g id="chat 1" clip-path="url(#clip0_5445_548)">
<g id="Layer_x0020_1">
<path id="Vector" fill-rule="evenodd" clip-rule="evenodd" d="M13.1907 11.6804H6.6281C5.89149 11.6804 5.89149 10.6258 6.6281 10.6258H13.2687C13.873 10.6258 13.9733 11.6804 13.1907 11.6804ZM9.57069 0.078633H10.289C11.3139 0.115209 12.3357 0.308249 13.3129 0.659532C13.9817 0.899817 14.3632 1.13121 14.9486 1.44566C15.7096 1.8546 16.3665 2.45354 16.9702 3.05704C18.1935 4.28031 19.1643 6.03063 19.5227 7.80914C19.6027 8.20589 19.779 9.56403 19.7536 10.0004C19.7419 10.2044 19.7178 10.3298 19.7157 10.5877C19.7142 10.7578 19.6845 10.973 19.6591 11.1561C19.607 11.5351 19.5435 11.8277 19.4704 12.1782C19.3467 12.7713 19.0795 13.4256 18.8437 13.9735C18.2567 15.3372 17.3073 16.4695 16.2075 17.4309L14.7805 18.4259C13.413 19.1884 11.8656 19.7268 10.0269 19.7268C9.4249 19.7268 8.63292 19.6867 8.12009 19.5633C7.87829 19.5051 7.55748 19.453 7.3266 19.3804C6.45436 19.1056 6.733 19.1515 5.91435 19.2862L3.92274 19.6382C3.46503 19.7177 3.01672 19.799 2.59457 19.8724C1.87828 19.9971 1.00046 20.306 0.78405 19.75C0.648414 19.4012 1.08504 18.628 1.30526 18.1144L2.21458 16.0159C2.09647 15.8399 1.97607 15.6697 1.84069 15.4914C1.28545 14.7614 0.702516 13.4673 0.456644 12.5785C-0.402132 9.47589 0.298655 6.13807 2.18461 3.83708L2.78913 3.15255C3.12975 2.74513 2.9367 2.98796 3.22093 2.72506C3.30272 2.64937 3.35301 2.58486 3.4348 2.50916L3.91105 2.12588C4.55215 1.64683 5.32863 1.15966 6.07006 0.847493C7.18385 0.3781 8.37308 0.121051 9.5712 0.078125L9.57069 0.078633ZM6.08149 8.55514C6.08149 8.18455 6.21179 7.93004 6.74544 7.93004H9.32355C10.2608 7.93004 10.1303 8.98465 9.47976 8.98465H6.55012C6.33955 8.98465 6.08149 8.77409 6.08149 8.55488V8.55514Z" fill="black"/>
</g>
</g>
<defs>
<clipPath id="clip0_5445_548">
<rect width="20" height="20" fill="white"/>
</clipPath>
</defs>
</svg>
