<svg width="46" height="40" viewBox="0 0 46 40" fill="none" xmlns="http://www.w3.org/2000/svg">
<path d="M17 0C7.74609 0 0 6.35938 0 14.5C0 18.8945 2.29297 22.6797 5.83594 25.3242L3.17969 33.3047L11.4727 28.168C13.1875 28.707 15.082 29 17 29C17.7461 29 18.4727 28.9453 19.1953 28.8633C21.3789 33.1055 26.3281 36 32 36C33.7227 36 35.3164 35.6758 36.7969 35.2344L43.6445 39.0664L41.7344 32.5156C44.3125 30.375 46 27.3945 46 24C46 17.7891 40.5977 12.836 33.75 12.1055C32.3985 5.12501 25.3242 0 17 0ZM17 2C24.3086 2 30.3281 6.35156 31.7031 12.0117C24.1836 12.1484 18 17.3555 18 24C18 25.0195 18.1602 26.0039 18.4375 26.9414C17.9648 26.9805 17.4844 27 17 27C15.1016 27 13.1992 26.7109 11.6328 26.1562L11.1836 26L6.82032 28.6992L8.18751 24.5938L7.56251 24.1719C4.08204 21.8203 2.00001 18.4453 2.00001 14.5C2.00001 7.64064 8.65625 2 17 2ZM11 8C9.89844 8 9 8.89844 9 10C9 11.1016 9.89844 12 11 12C12.1016 12 13 11.1016 13 10C13 8.89844 12.1016 8 11 8ZM23 8C21.8984 8 21 8.89844 21 10C21 11.1016 21.8984 12 23 12C24.1016 12 25 11.1016 25 10C25 8.89844 24.1016 8 23 8ZM32 14C38.7461 14 44 18.5352 44 24C44 26.957 42.4922 29.5508 40.0039 31.3945L39.4453 31.8125L40.3555 34.9336L37.1055 33.1094L36.6836 33.25C35.2852 33.7188 33.6875 34 32 34C25.2539 34 20 29.4648 20 24C20 18.5352 25.2539 14 32 14ZM27.5 20C26.6992 20 26 20.6992 26 21.5C26 22.3008 26.6992 23 27.5 23C28.3008 23 29 22.3008 29 21.5C29 20.6992 28.3008 20 27.5 20ZM36.5 20C35.6992 20 35 20.6992 35 21.5C35 22.3008 35.6992 23 36.5 23C37.3008 23 38 22.3008 38 21.5C38 20.6992 37.3008 20 36.5 20Z" fill="white"/>
</svg>
