<svg width="25" height="25" viewBox="0 0 25 25" fill="none" xmlns="http://www.w3.org/2000/svg">
<path d="M23.2109 7.90452L20.2539 11.4201L15.1055 17.5764L12.1094 18.8576L12.8906 15.6936L19.043 8.34202L20.9961 6.03343C21.0781 5.93579 21.1785 5.85528 21.2916 5.79653C21.4047 5.73777 21.5284 5.70193 21.6554 5.69104C21.7824 5.68015 21.9103 5.69444 22.0318 5.73309C22.1532 5.77173 22.2659 5.83397 22.3633 5.91624L23.1055 6.53733C23.3 6.70509 23.4203 6.94303 23.4401 7.19918C23.4599 7.45533 23.3775 7.7089 23.2109 7.90452Z" fill="#FFA88A"/>
<path d="M17.9688 4.62109V23.0469C17.9688 23.2541 17.8864 23.4528 17.7399 23.5993C17.5934 23.7458 17.3947 23.8281 17.1875 23.8281H2.34375C2.13655 23.8281 1.93784 23.7458 1.79132 23.5993C1.64481 23.4528 1.5625 23.2541 1.5625 23.0469V1.95313C1.5625 1.74592 1.64481 1.54721 1.79132 1.4007C1.93784 1.25419 2.13655 1.17188 2.34375 1.17188H14.5195C14.6226 1.17179 14.7247 1.19212 14.8199 1.23167C14.9151 1.27123 15.0015 1.32923 15.0742 1.40234L17.7383 4.06641C17.8114 4.13909 17.8694 4.22552 17.909 4.32072C17.9485 4.41592 17.9688 4.518 17.9688 4.62109Z" fill="white"/>
<path d="M17.9686 7.8125V15.9766L15.8241 18.5312L11.871 20.2461C11.7379 20.3037 11.5913 20.3232 11.4478 20.3022C11.3042 20.2813 11.1694 20.2208 11.0583 20.1276C10.9472 20.0343 10.8642 19.9119 10.8187 19.7742C10.7732 19.6364 10.767 19.4887 10.8007 19.3477L11.8007 15.1523L17.9686 7.8125ZM17.9686 4.62109V5.46875H14.453C14.2458 5.46875 14.0471 5.38644 13.9006 5.23993C13.7541 5.09341 13.6718 4.8947 13.6718 4.6875V1.17188H14.5194C14.6225 1.17179 14.7246 1.19212 14.8198 1.23167C14.915 1.27123 15.0014 1.32923 15.0741 1.40234L17.7382 4.06641C17.8113 4.13909 17.8693 4.22552 17.9088 4.32072C17.9484 4.41592 17.9687 4.518 17.9686 4.62109Z" fill="#E6E6E6"/>
<path d="M20.2539 11.4297L15.1055 17.5781L12.1094 18.8594L12.8906 15.6953L19.043 8.34375C19.6971 9.25559 20.1134 10.3163 20.2539 11.4297Z" fill="#FD9467"/>
<path d="M14.8438 1.17188V4.29688H17.9688L14.8438 1.17188Z" fill="#61C3B6"/>
<path d="M23.2109 7.90625L22.2656 9.01953L20.0391 7.14844L20.9727 6.03516C21.0546 5.93752 21.155 5.85701 21.2682 5.79826C21.3813 5.73951 21.5049 5.70366 21.6319 5.69277C21.7589 5.68188 21.8868 5.69617 22.0083 5.73482C22.1298 5.77346 22.2425 5.8357 22.3398 5.91797L23.082 6.53906C23.2801 6.70352 23.4048 6.93976 23.429 7.19602C23.4531 7.45229 23.3747 7.70768 23.2109 7.90625ZM8.59375 5.46875H12.8906C12.9942 5.46875 13.0936 5.42759 13.1668 5.35434C13.2401 5.28108 13.2812 5.18173 13.2812 5.07812C13.2812 4.97452 13.2401 4.87517 13.1668 4.80191C13.0936 4.72866 12.9942 4.6875 12.8906 4.6875H8.59375C8.49015 4.6875 8.39079 4.72866 8.31754 4.80191C8.24428 4.87517 8.20312 4.97452 8.20312 5.07812C8.20312 5.18173 8.24428 5.28108 8.31754 5.35434C8.39079 5.42759 8.49015 5.46875 8.59375 5.46875ZM8.20312 10.1562H15.2344C15.338 10.1562 15.4373 10.1151 15.5106 10.0418C15.5838 9.96858 15.625 9.86923 15.625 9.76562C15.625 9.66202 15.5838 9.56267 15.5106 9.48941C15.4373 9.41615 15.338 9.375 15.2344 9.375H8.20312C8.09952 9.375 8.00017 9.41615 7.92691 9.48941C7.85365 9.56267 7.8125 9.66202 7.8125 9.76562C7.8125 9.86923 7.85365 9.96858 7.92691 10.0418C8.00017 10.1151 8.09952 10.1562 8.20312 10.1562Z" fill="#61C3B6"/>
<path d="M11.3281 14.4531C11.3281 14.3495 11.287 14.2502 11.2137 14.1769C11.1405 14.1037 11.0411 14.0625 10.9375 14.0625H8.20312C8.09952 14.0625 8.00017 14.1037 7.92691 14.1769C7.85365 14.2502 7.8125 14.3495 7.8125 14.4531C7.8125 14.5567 7.85365 14.6561 7.92691 14.7293C8.00017 14.8026 8.09952 14.8438 8.20312 14.8438H10.9375C11.0411 14.8438 11.1405 14.8026 11.2137 14.7293C11.287 14.6561 11.3281 14.5567 11.3281 14.4531Z" fill="#FD9467"/>
<path d="M6.64062 12.8906H4.29688C4.19327 12.8906 4.09392 12.9318 4.02066 13.005C3.94741 13.0783 3.90625 13.1776 3.90625 13.2812V15.625C3.90625 15.7286 3.94741 15.828 4.02066 15.9012C4.09392 15.9745 4.19327 16.0156 4.29688 16.0156H6.64062C6.74423 16.0156 6.84358 15.9745 6.91684 15.9012C6.9901 15.828 7.03125 15.7286 7.03125 15.625V13.2812C7.03125 13.1776 6.9901 13.0783 6.91684 13.005C6.84358 12.9318 6.74423 12.8906 6.64062 12.8906ZM6.25 15.2344H4.6875V13.6719H6.25V15.2344Z" fill="#61C3B6"/>
<path d="M9.76562 18.75H8.20312C8.09952 18.75 8.00017 18.7912 7.92691 18.8644C7.85365 18.9377 7.8125 19.037 7.8125 19.1406C7.8125 19.2442 7.85365 19.3436 7.92691 19.4168C8.00017 19.4901 8.09952 19.5312 8.20312 19.5312H9.76562C9.86923 19.5312 9.96858 19.4901 10.0418 19.4168C10.1151 19.3436 10.1562 19.2442 10.1562 19.1406C10.1562 19.037 10.1151 18.9377 10.0418 18.8644C9.96858 18.7912 9.86923 18.75 9.76562 18.75Z" fill="#FD9467"/>
<path d="M6.64062 17.5781H4.29688C4.19327 17.5781 4.09392 17.6193 4.02066 17.6925C3.94741 17.7658 3.90625 17.8651 3.90625 17.9688V20.3125C3.90625 20.4161 3.94741 20.5155 4.02066 20.5887C4.09392 20.662 4.19327 20.7031 4.29688 20.7031H6.64062C6.74423 20.7031 6.84358 20.662 6.91684 20.5887C6.9901 20.5155 7.03125 20.4161 7.03125 20.3125V17.9688C7.03125 17.8651 6.9901 17.7658 6.91684 17.6925C6.84358 17.6193 6.74423 17.5781 6.64062 17.5781ZM6.25 19.9219H4.6875V18.3594H6.25V19.9219Z" fill="#61C3B6"/>
<path d="M5.1913 11.2131C5.2278 11.2493 5.27108 11.278 5.31868 11.2974C5.36627 11.3168 5.41723 11.3267 5.46864 11.3264H5.53114C5.59194 11.3162 5.64948 11.2918 5.69904 11.2552C5.7486 11.2185 5.78878 11.1706 5.8163 11.1155L6.98817 8.77171C7.01587 8.72568 7.03377 8.67444 7.04077 8.62118C7.04776 8.56792 7.0437 8.51379 7.02883 8.46218C7.01396 8.41056 6.9886 8.36256 6.95434 8.32119C6.92008 8.27982 6.87766 8.24595 6.82972 8.22171C6.78179 8.19748 6.72937 8.18339 6.67574 8.18032C6.62211 8.17726 6.56842 8.18529 6.51804 8.20392C6.46766 8.22254 6.42165 8.25135 6.38291 8.28856C6.34416 8.32576 6.31351 8.37056 6.29286 8.42015L5.36317 10.2795L4.58192 9.49827C4.5455 9.46185 4.50226 9.43296 4.45467 9.41325C4.40709 9.39354 4.35608 9.38339 4.30458 9.38339C4.25307 9.38339 4.20207 9.39354 4.15448 9.41325C4.10689 9.43296 4.06365 9.46185 4.02723 9.49827C3.99081 9.53469 3.96192 9.57793 3.94221 9.62552C3.9225 9.67311 3.91235 9.72411 3.91235 9.77562C3.91235 9.82712 3.9225 9.87813 3.94221 9.92571C3.96192 9.9733 3.99081 10.0165 4.02723 10.053L5.1913 11.2131ZM5.1913 6.52562C5.2278 6.56182 5.27108 6.59046 5.31868 6.6099C5.36627 6.62934 5.41723 6.6392 5.46864 6.6389H5.53114C5.59194 6.62873 5.64948 6.60432 5.69904 6.56766C5.7486 6.531 5.78878 6.48313 5.8163 6.42796L6.98817 4.08421C7.01587 4.03818 7.03377 3.98694 7.04077 3.93368C7.04776 3.88042 7.0437 3.82629 7.02883 3.77468C7.01396 3.72306 6.9886 3.67506 6.95434 3.63369C6.92008 3.59232 6.87766 3.55845 6.82972 3.53421C6.78179 3.50998 6.72937 3.49589 6.67574 3.49282C6.62211 3.48976 6.56842 3.49779 6.51804 3.51641C6.46766 3.53504 6.42165 3.56385 6.38291 3.60106C6.34416 3.63826 6.31351 3.68306 6.29286 3.73265L5.36317 5.59202L4.58192 4.81077C4.50836 4.73722 4.4086 4.69589 4.30458 4.69589C4.20055 4.69589 4.10079 4.73722 4.02723 4.81077C3.95368 4.88433 3.91235 4.98409 3.91235 5.08812C3.91235 5.19214 3.95368 5.2919 4.02723 5.36546L5.1913 6.52562Z" fill="#FD9467"/>
<path d="M15.1055 17.5664L12.1211 18.8594L12.875 15.6953L15.1055 17.5664Z" fill="white"/>
<path d="M23.8281 7.16406C23.812 6.98721 23.7609 6.81532 23.6777 6.6584C23.5946 6.50148 23.481 6.36266 23.3438 6.25L22.5977 5.625C22.3215 5.39364 21.9648 5.28137 21.6059 5.31287C21.247 5.34436 20.9153 5.51704 20.6836 5.79297L19.7461 6.90625L18.3594 8.55469V4.62109C18.3591 4.3104 18.2355 4.01253 18.0156 3.79297L15.3477 1.125C15.1281 0.905168 14.8302 0.781524 14.5195 0.78125H2.34375C2.03295 0.78125 1.73488 0.904715 1.51511 1.12448C1.29534 1.34425 1.17188 1.64232 1.17188 1.95312V23.0469C1.17188 23.3577 1.29534 23.6557 1.51511 23.8755C1.73488 24.0953 2.03295 24.2188 2.34375 24.2188H17.1875C17.4983 24.2188 17.7964 24.0953 18.0161 23.8755C18.2359 23.6557 18.3594 23.3577 18.3594 23.0469V14.2969L23.5117 8.15625C23.6271 8.01978 23.7144 7.86191 23.7687 7.69166C23.823 7.52141 23.8432 7.34212 23.8281 7.16406ZM15.2344 2.11328L17.0273 3.90625H15.2344V2.11328ZM17.5781 23.0469C17.5781 23.1505 17.537 23.2498 17.4637 23.3231C17.3905 23.3963 17.2911 23.4375 17.1875 23.4375H2.34375C2.24015 23.4375 2.14079 23.3963 2.06754 23.3231C1.99428 23.2498 1.95312 23.1505 1.95312 23.0469V1.95312C1.95312 1.84952 1.99428 1.75017 2.06754 1.67691C2.14079 1.60366 2.24015 1.5625 2.34375 1.5625H14.4531V4.29688C14.4531 4.40048 14.4943 4.49983 14.5675 4.57309C14.6408 4.64634 14.7401 4.6875 14.8438 4.6875H17.5781V9.375C17.5747 9.40485 17.5747 9.435 17.5781 9.46484L12.5781 15.4453C12.5409 15.488 12.5141 15.5389 12.5 15.5937L11.7461 18.7578C11.7291 18.8285 11.7322 18.9025 11.755 18.9715C11.7777 19.0405 11.8193 19.1018 11.875 19.1484C11.9447 19.2081 12.0332 19.2413 12.125 19.2422C12.1785 19.2412 12.2315 19.2307 12.2812 19.2109L15.2656 17.9141C15.3199 17.89 15.368 17.854 15.4062 17.8086L17.5781 15.2344V23.0469ZM13.1094 16.4062L14.3711 17.4648L12.6836 18.1992L13.1094 16.4062ZM15.0625 17.0234L13.4297 15.6563L20.0938 7.69922L21.7266 9.07031L15.0625 17.0234ZM22.9141 7.64844L22.2266 8.46875L20.5977 7.10156L21.2812 6.28516C21.3806 6.16817 21.5221 6.09515 21.675 6.08198C21.8279 6.06882 21.9798 6.11657 22.0977 6.21484L22.8398 6.83984C22.9568 6.93917 23.0298 7.08068 23.043 7.23358C23.0562 7.38647 23.0084 7.53838 22.9102 7.65625L22.9141 7.64844Z" fill="#4E5B5F"/>
</svg>
