<svg width="20" height="20" viewBox="0 0 20 20" fill="none" xmlns="http://www.w3.org/2000/svg">
<path d="M13.9584 1.76465H2.66254C2.56195 1.76465 2.46236 1.78449 2.36946 1.82305C2.27656 1.8616 2.19218 1.91811 2.12116 1.98933C2.05013 2.06054 1.99385 2.14508 1.95555 2.23808C1.91725 2.33109 1.89768 2.43073 1.89795 2.53131V19.0251C1.89768 19.1256 1.91725 19.2253 1.95555 19.3183C1.99385 19.4113 2.05013 19.4958 2.12116 19.5671C2.19218 19.6383 2.27656 19.6948 2.36946 19.7333C2.46236 19.7719 2.56195 19.7917 2.66254 19.7917H13.9584C14.059 19.7917 14.1587 19.7719 14.2518 19.7334C14.3448 19.6948 14.4293 19.6384 14.5005 19.5672C14.5717 19.496 14.6281 19.4115 14.6667 19.3185C14.7052 19.2254 14.725 19.1257 14.725 19.0251V2.53131C14.725 2.43063 14.7052 2.33094 14.6667 2.23792C14.6281 2.14491 14.5717 2.06039 14.5005 1.9892C14.4293 1.91801 14.3448 1.86154 14.2518 1.82301C14.1587 1.78448 14.059 1.76465 13.9584 1.76465ZM13.6188 18.6855H3.0042V2.8709H13.6292L13.6188 18.6855Z" fill="#C37F50"/>
<path d="M13.6188 12.6042V18.6855H9.0625V19.7917H13.9583C14.059 19.7917 14.1587 19.7719 14.2517 19.7334C14.3447 19.6949 14.4293 19.6384 14.5004 19.5672C14.5716 19.496 14.6281 19.4115 14.6666 19.3185C14.7052 19.2255 14.725 19.1258 14.725 19.0251V12.6042H13.6188Z" fill="#AF6650"/>
<path d="M14.7249 10H13.6187V14.7604H14.7249V10Z" fill="#AF6650"/>
<path d="M14.7249 10H13.6187V14.7604H14.7249V10Z" fill="#AF6650"/>
<path d="M13.6188 7.00007H14.725V2.53132C14.7253 2.43056 14.7057 2.33074 14.6672 2.2376C14.6288 2.14446 14.5723 2.05984 14.5011 1.98859C14.4298 1.91734 14.3452 1.86088 14.2521 1.82245C14.1589 1.78402 14.0591 1.76438 13.9584 1.76465H2.66462C2.46128 1.76465 2.26628 1.84542 2.1225 1.9892C1.97872 2.13298 1.89795 2.32799 1.89795 2.53132V6.83965H3.0042V2.88132H13.6292L13.6188 7.00007Z" fill="#DCA764"/>
<path d="M11.6771 1.76465H4.94165V2.8709H11.6771V1.76465Z" fill="#C37F50"/>
<path d="M13.6187 2.87085H3.00415V18.6854H13.6187V2.87085Z" fill="#CFD6FF"/>
<path d="M12.527 3.7041H4.09574C3.95306 3.7041 3.8374 3.81976 3.8374 3.96243V11.8937C3.8374 12.0364 3.95306 12.152 4.09574 12.152H12.527C12.6697 12.152 12.7853 12.0364 12.7853 11.8937V3.96243C12.7853 3.81976 12.6697 3.7041 12.527 3.7041Z" fill="#E8EFFF"/>
<path d="M10.7355 13.6208H5.88553C5.74286 13.6208 5.6272 13.7365 5.6272 13.8792V15.0125C5.6272 15.1552 5.74286 15.2709 5.88553 15.2709H10.7355C10.8782 15.2709 10.9939 15.1552 10.9939 15.0125V13.8792C10.9939 13.7365 10.8782 13.6208 10.7355 13.6208Z" fill="#E8EFFF"/>
<path d="M11.2312 1.66659V2.59159C11.2312 2.66306 11.2029 2.73164 11.1526 2.78237C11.1023 2.8331 11.0339 2.86188 10.9624 2.86243H5.66244C5.59061 2.86243 5.52172 2.83389 5.47093 2.7831C5.42014 2.73231 5.3916 2.66342 5.3916 2.59159V1.66659C5.3916 1.59476 5.42014 1.52588 5.47093 1.47508C5.52172 1.42429 5.59061 1.39576 5.66244 1.39576H6.48535C6.57434 1.39603 6.66251 1.37871 6.74479 1.34478C6.82706 1.31085 6.90181 1.26099 6.96474 1.19806C7.02766 1.13513 7.07753 1.06038 7.11146 0.97811C7.14539 0.895838 7.16271 0.807669 7.16244 0.718676V0.491593C7.16243 0.454209 7.16983 0.417195 7.1842 0.382683C7.19857 0.348171 7.21963 0.316843 7.24616 0.290506C7.27269 0.264169 7.30417 0.243342 7.33878 0.229226C7.3734 0.21511 7.41047 0.207985 7.44785 0.20826H9.17702C9.25216 0.20826 9.32423 0.238111 9.37737 0.291246C9.4305 0.344381 9.46035 0.416448 9.46035 0.491593V0.72701C9.46035 0.906583 9.53169 1.0788 9.65867 1.20578C9.78564 1.33276 9.95786 1.40409 10.1374 1.40409H10.9708C11.0394 1.4067 11.1044 1.43526 11.1527 1.48399C11.2011 1.53272 11.2291 1.59798 11.2312 1.66659Z" fill="#7481A9"/>
<path d="M11.2312 1.66659V2.18951C11.2312 2.26079 11.2029 2.32914 11.1525 2.37954C11.1021 2.42995 11.0337 2.45826 10.9624 2.45826H5.66244C5.59097 2.45826 5.52239 2.43001 5.47166 2.37967C5.42093 2.32933 5.39215 2.26098 5.3916 2.18951V1.66659C5.3916 1.59476 5.42014 1.52588 5.47093 1.47508C5.52172 1.42429 5.59061 1.39576 5.66244 1.39576H6.48535C6.57434 1.39603 6.66251 1.37871 6.74479 1.34478C6.82706 1.31085 6.90181 1.26099 6.96474 1.19806C7.02766 1.13513 7.07753 1.06038 7.11146 0.97811C7.14539 0.895838 7.16271 0.807669 7.16244 0.718676V0.491593C7.16243 0.454209 7.16983 0.417195 7.1842 0.382683C7.19857 0.348171 7.21963 0.316843 7.24616 0.290506C7.27269 0.264169 7.30417 0.243342 7.33878 0.229226C7.3734 0.21511 7.41047 0.207985 7.44785 0.20826H9.17702C9.25216 0.20826 9.32423 0.238111 9.37737 0.291246C9.4305 0.344381 9.46035 0.416448 9.46035 0.491593V0.72701C9.46035 0.906583 9.53169 1.0788 9.65867 1.20578C9.78564 1.33276 9.95786 1.40409 10.1374 1.40409H10.9708C11.0394 1.4067 11.1044 1.43526 11.1527 1.48399C11.2011 1.53272 11.2291 1.59798 11.2312 1.66659Z" fill="#889FC2"/>
<path d="M10.2187 5H6.40415C6.23501 5 6.0979 5.13711 6.0979 5.30625V9.12083C6.0979 9.28997 6.23501 9.42708 6.40415 9.42708H10.2187C10.3879 9.42708 10.525 9.28997 10.525 9.12083V5.30625C10.525 5.13711 10.3879 5 10.2187 5Z" fill="#FF9D50"/>
<path d="M10.1959 5.29583V8.70417C10.2024 8.77457 10.1817 8.8448 10.1378 8.90028C10.094 8.95575 10.0305 8.99221 9.96045 9.00208H6.76878C6.69854 8.9927 6.6347 8.95637 6.59077 8.90078C6.54683 8.84518 6.52625 8.77467 6.53336 8.70417V5.29583C6.52628 5.22556 6.54693 5.15531 6.59091 5.10004C6.63489 5.04478 6.69871 5.00888 6.76878 5H9.96045C10.0303 5.00938 10.0938 5.04541 10.1377 5.10055C10.1816 5.15569 10.2024 5.22567 10.1959 5.29583Z" fill="#FFB15F"/>
<path d="M10.1958 5.41667V5.29375C10.2018 5.22393 10.1807 5.15448 10.1369 5.09979C10.0931 5.0451 10.0299 5.00937 9.96043 5H6.76876C6.6987 5.00888 6.63487 5.04478 6.59089 5.10004C6.54692 5.15531 6.52627 5.22556 6.53335 5.29583V5.41667H10.1958Z" fill="#FFDE82"/>
<path d="M9.07296 5H7.55005V6.76458H9.07296V5Z" fill="#FF703C"/>
<path d="M9.07296 5H7.55005V5.42083H9.07296V5Z" fill="#FF8941"/>
<path d="M8.59578 7.5001H8.02495C8.00279 7.5001 7.98085 7.49573 7.96037 7.48725C7.9399 7.47877 7.9213 7.46634 7.90563 7.45067C7.88996 7.435 7.87753 7.4164 7.86905 7.39593C7.86057 7.37545 7.8562 7.35351 7.8562 7.33135C7.85674 7.28676 7.87469 7.24415 7.90622 7.21262C7.93775 7.18109 7.98036 7.16314 8.02495 7.1626H8.59578C8.64054 7.1626 8.68346 7.18038 8.71511 7.21202C8.74676 7.24367 8.76453 7.28659 8.76453 7.33135C8.76453 7.3761 8.74676 7.41902 8.71511 7.45067C8.68346 7.48232 8.64054 7.5001 8.59578 7.5001Z" fill="white"/>
<path d="M8.7688 8.24162H7.85213C7.79688 8.24162 7.74389 8.21967 7.70482 8.1806C7.66575 8.14153 7.6438 8.08854 7.6438 8.03328C7.6438 7.97803 7.66575 7.92504 7.70482 7.88597C7.74389 7.8469 7.79688 7.82495 7.85213 7.82495H8.7688C8.82405 7.82495 8.87704 7.8469 8.91611 7.88597C8.95518 7.92504 8.97713 7.97803 8.97713 8.03328C8.97713 8.08854 8.95518 8.14153 8.91611 8.1806C8.87704 8.21967 8.82405 8.24162 8.7688 8.24162Z" fill="#4C5472"/>
<path d="M11.5667 12.0563H5.05623C5.00098 12.0563 4.94799 12.0344 4.90892 11.9953C4.86985 11.9562 4.8479 11.9032 4.8479 11.848C4.8479 11.7927 4.86985 11.7397 4.90892 11.7007C4.94799 11.6616 5.00098 11.6396 5.05623 11.6396H11.5667C11.6219 11.6396 11.6749 11.6616 11.714 11.7007C11.753 11.7397 11.775 11.7927 11.775 11.848C11.775 11.9032 11.753 11.9562 11.714 11.9953C11.6749 12.0344 11.6219 12.0563 11.5667 12.0563ZM11.5667 13.2813H5.05623C5.00098 13.2813 4.94799 13.2594 4.90892 13.2203C4.86985 13.1812 4.8479 13.1282 4.8479 13.073C4.8479 13.0177 4.86985 12.9647 4.90892 12.9257C4.94799 12.8866 5.00098 12.8646 5.05623 12.8646H11.5667C11.6219 12.8646 11.6749 12.8866 11.714 12.9257C11.753 12.9647 11.775 13.0177 11.775 13.073C11.775 13.1282 11.753 13.1812 11.714 13.2203C11.6749 13.2594 11.6219 13.2813 11.5667 13.2813ZM11.5667 14.5042H5.05623C5.00098 14.5042 4.94799 14.4823 4.90892 14.4432C4.86985 14.4041 4.8479 14.3512 4.8479 14.2959C4.8479 14.2406 4.86985 14.1877 4.90892 14.1486C4.94799 14.1095 5.00098 14.0876 5.05623 14.0876H11.5667C11.6219 14.0876 11.6749 14.1095 11.714 14.1486C11.753 14.1877 11.775 14.2406 11.775 14.2959C11.775 14.3512 11.753 14.4041 11.714 14.4432C11.6749 14.4823 11.6219 14.5042 11.5667 14.5042ZM10.525 15.7292H5.05623C5.00098 15.7292 4.94799 15.7073 4.90892 15.6682C4.86985 15.6291 4.8479 15.5762 4.8479 15.5209C4.8479 15.4656 4.86985 15.4127 4.90892 15.3736C4.94799 15.3345 5.00098 15.3126 5.05623 15.3126H10.525C10.5802 15.3126 10.6332 15.3345 10.6723 15.3736C10.7114 15.4127 10.7333 15.4656 10.7333 15.5209C10.7333 15.5762 10.7114 15.6291 10.6723 15.6682C10.6332 15.7073 10.5802 15.7292 10.525 15.7292ZM8.09165 16.9521H5.05623C5.00098 16.9521 4.94799 16.9302 4.90892 16.8911C4.86985 16.8521 4.8479 16.7991 4.8479 16.7438C4.8479 16.6886 4.86985 16.6356 4.90892 16.5965C4.94799 16.5574 5.00098 16.5355 5.05623 16.5355H8.09165C8.1469 16.5355 8.19989 16.5574 8.23896 16.5965C8.27803 16.6356 8.29998 16.6886 8.29998 16.7438C8.29998 16.7991 8.27803 16.8521 8.23896 16.8911C8.19989 16.9302 8.1469 16.9521 8.09165 16.9521Z" fill="#3A3C51"/>
<path d="M15.1354 19.7895C16.7738 19.7895 18.102 18.4613 18.102 16.8229C18.102 15.1844 16.7738 13.8562 15.1354 13.8562C13.4969 13.8562 12.1687 15.1844 12.1687 16.8229C12.1687 18.4613 13.4969 19.7895 15.1354 19.7895Z" fill="#50B981"/>
<path d="M14.3895 18.0083L13.4499 17.2917C13.3615 17.2243 13.3035 17.1245 13.2887 17.0143C13.2738 16.9041 13.3034 16.7926 13.3708 16.7042C13.4382 16.6158 13.5379 16.5578 13.6481 16.5429C13.7583 16.5281 13.8699 16.5576 13.9583 16.625L14.6166 17.1313L16.2833 15.5604C16.3645 15.4897 16.4699 15.4532 16.5775 15.4585C16.6851 15.4639 16.7864 15.5106 16.8602 15.589C16.934 15.6674 16.9746 15.7714 16.9735 15.8791C16.9724 15.9868 16.9296 16.0898 16.8541 16.1667L14.9291 17.9813C14.857 18.0491 14.7632 18.0891 14.6643 18.0941C14.5654 18.0991 14.468 18.0687 14.3895 18.0083Z" fill="white"/>
</svg>
