<svg width="461" height="460" viewBox="0 0 461 460" fill="none" xmlns="http://www.w3.org/2000/svg" color="black">
<path fill-rule="evenodd" clip-rule="evenodd" d="M33.0048 116.809C33.0048 90.8947 54.6106 69.8026 85.0118 69.8026H118.017C118.017 84.1411 114.276 107.6 134.019 107.6C153.762 107.6 150.021 84.1411 150.021 69.8026H310.044C310.044 84.1411 306.302 107.6 326.046 107.6C345.789 107.6 342.048 84.1411 342.048 69.8026C374.306 69.8026 406.291 64.6915 422.083 96.7824C424.695 102.09 427.06 108.846 427.06 116.809V165.816H33.0058V116.809H33.0048ZM118.017 15.7949V37.7981C92.0448 37.7981 65.569 34.6935 44.3222 46.1155C34.1962 51.5597 29.4547 55.8653 21.7382 63.5376C9.24864 75.9552 0 97.1059 0 121.81V369.844C0 403.255 15.5386 429.389 43.6771 445.183C50.3309 448.917 65.1149 453.855 75.0106 453.855H232.032C243.08 453.855 253.038 436.038 239.785 425.1C235.736 421.758 233.109 421.778 226.046 421.837L89.0122 421.852C76.5523 421.881 68.4461 420.792 60.0048 416.854C46.5725 410.589 33.0058 394.525 33.0058 374.844V197.82H427.06V229.824C427.06 250.782 460.065 252.826 460.065 226.823V123.809C460.065 102.406 453.705 78.7939 439.327 64.536C435.765 61.0042 432.92 57.697 429.081 54.7795C425.337 51.9341 421.18 49.2576 417.02 46.8375C395.978 34.5927 368.117 37.7971 342.048 37.7971C342.048 23.5066 345.788 -0.0249402 326.047 1.98402e-05C306.284 0.0259398 310.044 22.8883 310.044 37.7971H150.021C150.021 23.5066 153.76 -0.0249402 134.02 1.98402e-05C125.574 0.0105798 118.017 6.7469 118.017 15.7939V15.7949Z" fill="currentColor"/>
<path fill-rule="evenodd" clip-rule="evenodd" d="M348.048 426.855C303.266 426.855 268.037 389.361 268.037 352.845C268.037 337.213 268.208 327.392 275.358 313.159C278.459 306.988 281.545 301.17 286.29 296.088C295.604 286.112 299.142 282.327 312.701 275.492C333.817 264.847 360.971 265.27 382.403 275.482C408.595 287.964 427.058 315.495 427.058 347.843C427.058 391.033 391.238 426.854 348.047 426.854L348.048 426.855ZM235.032 345.843C235.032 396.727 262.06 429.759 301.362 449.538C340.803 469.387 394.564 459.046 426.314 427.11C435.668 417.701 443.283 406.921 449.409 394.197C462.512 366.981 463.615 329.061 450.079 301.821C438.431 278.38 419.632 255.539 394.635 245.249C379.042 238.829 366.948 234.828 346.048 234.828C286.019 234.828 235.032 285.815 235.032 345.843Z" fill="currentColor"/>
<path fill-rule="evenodd" clip-rule="evenodd" d="M336.046 350.842C333.112 346.46 326.867 341.164 322.794 337.09C315.422 329.718 314.209 325.839 304.042 325.839C294.598 325.839 288.503 333.345 288.503 341.841C288.503 351.088 295.395 355.697 300.791 361.094C306.369 366.672 311.215 371.517 316.793 377.096C324.886 385.189 326.536 389.848 339.046 389.848C346.579 389.848 368.661 364.733 374.8 358.593C381.009 352.385 406.055 330.36 406.055 322.839C406.055 311.235 400.281 303.718 389.301 304.323C379.86 304.842 374.981 312.406 369.801 317.587L336.046 350.842Z" fill="currentColor"/>
</svg>
