<svg width="30" height="30" viewBox="0 0 30 30" fill="none" xmlns="http://www.w3.org/2000/svg">
<path d="M13.3997 8.71219L14.7253 10.0378L11.9128 12.8503C11.737 13.0261 11.4986 13.1248 11.25 13.1248C11.0013 13.1248 10.7629 13.0261 10.5871 12.8503L8.71209 10.9753L10.0378 9.64969L11.25 10.8618L13.3997 8.71219ZM11.25 16.4868L10.0378 15.2746L8.71219 16.6003L10.5872 18.4753C10.763 18.6511 11.0014 18.7498 11.25 18.7498C11.4987 18.7498 11.7371 18.6511 11.9129 18.4753L14.7254 15.6628L13.3997 14.3372L11.25 16.4868ZM11.25 22.1118L10.0378 20.8996L8.71219 22.2253L10.5872 24.1003C10.763 24.2761 11.0014 24.3748 11.25 24.3748C11.4987 24.3748 11.7371 24.2761 11.9129 24.1003L14.7254 21.2878L13.3997 19.9622L11.25 22.1118ZM15.9375 12.1875H20.625V10.3125H15.9375V12.1875ZM15.9375 17.8125H20.625V15.9375H15.9375V17.8125ZM15.9375 23.4375H20.625V21.5625H15.9375V23.4375ZM25.3125 6.5625V25.3125C25.3103 26.0578 25.0133 26.7719 24.4863 27.2988C23.9594 27.8258 23.2453 28.1228 22.5 28.125H7.5C6.75475 28.1228 6.04064 27.8258 5.51367 27.2988C4.98669 26.7719 4.68968 26.0578 4.6875 25.3125V6.5625C4.68968 5.81725 4.98669 5.10314 5.51367 4.57617C6.04064 4.04919 6.75475 3.75218 7.5 3.75H10.4813C10.6758 3.20368 11.034 2.73058 11.5071 2.39508C11.9801 2.05959 12.5451 1.87799 13.125 1.875H16.875C17.4549 1.87799 18.0199 2.05959 18.4929 2.39508C18.966 2.73058 19.3242 3.20368 19.5187 3.75H22.5C23.2453 3.75218 23.9594 4.04919 24.4863 4.57617C25.0133 5.10314 25.3103 5.81725 25.3125 6.5625ZM22.5 7.5C22.4993 7.25159 22.4002 7.01356 22.2246 6.83791C22.0489 6.66225 21.8109 6.56324 21.5625 6.5625H19.6875C19.6868 6.81091 19.5877 7.04894 19.4121 7.22459C19.2364 7.40025 18.9984 7.49926 18.75 7.5H11.25C11.0016 7.49926 10.7636 7.40025 10.5879 7.22459C10.4123 7.04894 10.3132 6.81091 10.3125 6.5625H8.4375C8.18909 6.56324 7.95106 6.66225 7.77541 6.83791C7.59975 7.01356 7.50074 7.25159 7.5 7.5V24.375C7.50074 24.6234 7.59975 24.8614 7.77541 25.0371C7.95106 25.2127 8.18909 25.3118 8.4375 25.3125H21.5625C21.8109 25.3118 22.0489 25.2127 22.2246 25.0371C22.4002 24.8614 22.4993 24.6234 22.5 24.375V7.5Z" fill="white"/>
</svg>
