<svg xmlns="http://www.w3.org/2000/svg" width="30" height="30" viewBox="0 0 30 30" fill="none">
  <path d="M12.7124 6.24843C12.8992 6.2478 13.0837 6.28901 13.2524 6.36905C13.4211 6.44909 13.5698 6.56591 13.6874 6.71094L19.7249 14.2109C19.9088 14.4346 20.0093 14.7152 20.0093 15.0047C20.0093 15.2942 19.9088 15.5748 19.7249 15.7984L13.4749 23.2984C13.2627 23.5537 12.9579 23.7142 12.6273 23.7447C12.2968 23.7752 11.9677 23.6731 11.7124 23.4609C11.4571 23.2488 11.2966 22.9439 11.2661 22.6133C11.2357 22.2828 11.3377 21.9537 11.5499 21.6984L17.1374 14.9984L11.7374 8.29843C11.5846 8.11495 11.4875 7.89153 11.4576 7.65459C11.4278 7.41766 11.4664 7.17713 11.569 6.96147C11.6716 6.74581 11.8338 6.56404 12.0364 6.43768C12.239 6.31132 12.4736 6.24565 12.7124 6.24843Z" fill="#1C5579"/>
</svg>
