<svg width="50" height="50" viewBox="0 0 50 50" fill="none" xmlns="http://www.w3.org/2000/svg">
<rect x="12.4023" y="12.4062" width="25.1938" height="25.1938" fill="white"/>
<path d="M25.0007 2.08594C20.4682 2.08594 16.0375 3.42998 12.2688 5.94809C8.50022 8.46621 5.56293 12.0453 3.82842 16.2328C2.09391 20.4202 1.64009 25.028 2.52433 29.4734C3.40858 33.9188 5.59118 38.0022 8.79613 41.2071C12.0011 44.4121 16.0844 46.5947 20.5298 47.4789C24.9752 48.3632 29.583 47.9093 33.7705 46.1748C37.958 44.4403 41.5371 41.503 44.0552 37.7344C46.5733 33.9658 47.9173 29.5351 47.9173 25.0026C47.9102 18.9269 45.4934 13.1021 41.1973 8.80599C36.9011 4.50984 31.0763 2.09311 25.0007 2.08594ZM35.3111 32.3693C35.5101 32.5615 35.6688 32.7913 35.778 33.0455C35.8871 33.2997 35.9446 33.5731 35.947 33.8497C35.9494 34.1263 35.8967 34.4006 35.792 34.6567C35.6872 34.9127 35.5325 35.1453 35.3369 35.3409C35.1413 35.5365 34.9087 35.6912 34.6526 35.796C34.3966 35.9007 34.1223 35.9534 33.8457 35.951C33.569 35.9486 33.2957 35.8912 33.0415 35.782C32.7873 35.6728 32.5574 35.5141 32.3652 35.3151L25.0007 27.9484L17.634 35.3151C17.2411 35.6946 16.7148 35.9046 16.1686 35.8998C15.6223 35.8951 15.0998 35.676 14.7135 35.2897C14.3273 34.9035 14.1082 34.3809 14.1034 33.8347C14.0987 33.2884 14.3087 32.7622 14.6882 32.3693L22.0548 25.0026L14.6882 17.6359C14.4892 17.4438 14.3305 17.2139 14.2213 16.9597C14.1121 16.7055 14.0546 16.4321 14.0522 16.1555C14.0498 15.8789 14.1025 15.6046 14.2073 15.3485C14.312 15.0925 14.4667 14.8599 14.6623 14.6643C14.8579 14.4687 15.0906 14.314 15.3466 14.2092C15.6026 14.1045 15.877 14.0518 16.1536 14.0542C16.4302 14.0566 16.7036 14.114 16.9578 14.2232C17.2119 14.3324 17.4418 14.4911 17.634 14.6901L25.0007 22.0568L32.3652 14.6901C32.5574 14.4911 32.7873 14.3324 33.0415 14.2232C33.2957 14.114 33.569 14.0566 33.8457 14.0542C34.1223 14.0518 34.3966 14.1045 34.6526 14.2092C34.9087 14.314 35.1413 14.4687 35.3369 14.6643C35.5325 14.8599 35.6872 15.0925 35.792 15.3485C35.8967 15.6046 35.9494 15.8789 35.947 16.1555C35.9446 16.4321 35.8871 16.7055 35.778 16.9597C35.6688 17.2139 35.5101 17.4438 35.3111 17.6359L27.9465 25.0026L35.3111 32.3693Z" fill="black"/>
</svg>
