<svg width="60" height="60" viewBox="0 0 60 60" fill="none" xmlns="http://www.w3.org/2000/svg">
<path d="M37.814 11.5952H33.752V35.9352H37.814C44.535 35.9352 49.984 30.4862 49.984 23.7652C49.984 17.0442 44.535 11.5952 37.814 11.5952Z" fill="#BC6B53"/>
<path d="M37.814 36.4352H33.751C33.475 36.4352 33.251 36.2112 33.251 35.9352V11.5952C33.251 11.3192 33.475 11.0952 33.751 11.0952H37.814C44.8 11.0952 50.484 16.7792 50.484 23.7652C50.484 30.7512 44.801 36.4352 37.814 36.4352ZM34.252 35.4352H37.815C44.25 35.4352 49.485 30.2002 49.485 23.7652C49.485 17.3302 44.25 12.0952 37.815 12.0952H34.252V35.4352Z" fill="#63312D"/>
<path d="M21.5809 23.7652C21.5809 30.4862 27.0299 35.9352 33.7519 35.9352C40.4729 35.9352 45.9219 30.4862 45.9219 23.7652C45.9219 17.0442 40.4729 11.5952 33.7519 11.5952C27.0309 11.5952 21.5809 17.0442 21.5809 23.7652Z" fill="#F9A287"/>
<path d="M23.5809 23.7652C23.5809 17.3802 28.4999 12.1562 34.7519 11.6462C34.4219 11.6192 34.0899 11.5952 33.7519 11.5952C27.0309 11.5952 21.5809 17.0442 21.5809 23.7652C21.5809 30.4862 27.0299 35.9352 33.7519 35.9352C34.0899 35.9352 34.4219 35.9112 34.7519 35.8842C28.4999 35.3742 23.5809 30.1472 23.5809 23.7652Z" fill="#FFC8BB"/>
<path d="M33.7519 36.4352C26.7659 36.4352 21.0819 30.7512 21.0819 23.7652C21.0819 16.7792 26.7659 11.0952 33.7519 11.0952C40.7379 11.0952 46.4219 16.7792 46.4219 23.7652C46.4219 30.7512 40.7379 36.4352 33.7519 36.4352ZM33.7519 12.0952C27.3169 12.0952 22.0819 17.3302 22.0819 23.7652C22.0819 30.2002 27.3169 35.4352 33.7519 35.4352C40.1869 35.4352 45.4219 30.2002 45.4219 23.7652C45.4219 17.3302 40.1869 12.0952 33.7519 12.0952Z" fill="#63312D"/>
<path d="M38.3139 26.0751C38.1889 21.9601 31.7549 23.2411 31.7549 20.9441C31.7549 20.1801 32.4169 19.6611 33.6789 19.6611C34.9619 19.6611 35.7279 20.3451 35.8099 21.3371H38.1679C38.0599 19.3551 36.7579 18.0481 34.7149 17.7451V15.7041H32.8519V17.7371C30.6959 18.0301 29.3779 19.3621 29.3779 20.9651C29.3779 25.1431 35.9969 23.8621 35.9969 26.0941C35.9969 26.8831 35.2719 27.4591 33.9089 27.4591C32.6039 27.4591 31.7159 26.6971 31.6319 25.7641H29.1919C29.2809 27.5451 30.7159 28.9851 32.8529 29.3541V31.8251H34.7159V29.4051C36.9509 29.1571 38.3139 27.8081 38.3139 26.0751Z" fill="#F9DD9D"/>
<path d="M34.7149 32.3251H32.8519C32.5759 32.3251 32.3519 32.1011 32.3519 31.8251V29.7611C30.2389 29.2451 28.7869 27.6911 28.6919 25.7901C28.6849 25.6521 28.7349 25.5191 28.8289 25.4201C28.9229 25.3211 29.0549 25.2651 29.1909 25.2651H31.6309C31.8899 25.2651 32.1059 25.4621 32.1289 25.7201C32.1929 26.4391 32.9419 26.9601 33.9079 26.9601C34.6759 26.9601 35.4959 26.7321 35.4959 26.0951C35.4959 25.5741 34.6359 25.3061 33.3219 24.9531C31.4459 24.4511 28.8769 23.7631 28.8769 20.9661C28.8769 19.1771 30.2549 17.7501 32.3509 17.3161V15.7051C32.3509 15.4291 32.5749 15.2051 32.8509 15.2051H34.7139C34.9899 15.2051 35.2139 15.4291 35.2139 15.7051V17.3301C37.2749 17.7881 38.5549 19.2501 38.6659 21.3101C38.6739 21.4481 38.6239 21.5811 38.5299 21.6811C38.4349 21.7811 38.3039 21.8371 38.1669 21.8371H35.8099C35.5499 21.8371 35.3329 21.6381 35.3119 21.3781C35.2479 20.6051 34.6529 20.1611 33.6789 20.1611C33.2509 20.1611 32.2549 20.2371 32.2549 20.9441C32.2549 21.5071 33.0769 21.7761 34.4309 22.1501C36.2449 22.6521 38.7309 23.3401 38.8139 26.0591C38.8139 26.0651 38.8139 26.0701 38.8139 26.0751C38.8139 28.0011 37.4169 29.4421 35.2139 29.8381V31.8251C35.2149 32.1021 34.9909 32.3251 34.7149 32.3251ZM33.3519 31.3251H34.2149V29.4051C34.2149 29.1501 34.4059 28.9361 34.6599 28.9081C36.5729 28.6961 37.8099 27.5881 37.8139 26.0831C37.7539 24.2481 36.2629 23.6951 34.1649 23.1141C32.7349 22.7181 31.2559 22.3091 31.2559 20.9441C31.2559 20.0821 31.8929 19.1611 33.6799 19.1611C34.9859 19.1611 35.9399 19.8051 36.2279 20.8371H37.6059C37.3339 19.4171 36.2779 18.4831 34.6419 18.2391C34.3969 18.2031 34.2149 17.9931 34.2149 17.7451V16.2041H33.3519V17.7371C33.3519 17.9871 33.1669 18.1991 32.9189 18.2321C31.0709 18.4831 29.8769 19.5561 29.8769 20.9651C29.8769 22.8491 31.4119 23.4061 33.5809 23.9861C35.0149 24.3701 36.4959 24.7671 36.4959 26.0931C36.4959 26.9531 35.8179 27.9581 33.9079 27.9581C32.6009 27.9581 31.5459 27.2681 31.2239 26.2631H29.7629C30.0689 27.5761 31.2599 28.5711 32.9359 28.8601C33.1759 28.9021 33.3509 29.1101 33.3509 29.3531L33.3519 31.3251Z" fill="#63312D"/>
<path d="M15.6729 16.5262L18.0809 17.8432L15.6729 19.1592L14.3569 21.5652L13.0399 19.1592L10.6329 17.8432L13.0399 16.5262L14.3569 14.1182L15.6729 16.5262Z" fill="#F8F3F3"/>
<path d="M14.3569 22.0652C14.1739 22.0652 14.0059 21.9652 13.9189 21.8052L12.6729 19.5272L10.3939 18.2812C10.2329 18.1932 10.1339 18.0252 10.1339 17.8432C10.1339 17.6612 10.2339 17.4922 10.3939 17.4052L12.6719 16.1592L13.9179 13.8792C14.0939 13.5592 14.6199 13.5592 14.7959 13.8792L16.0419 16.1592L18.3199 17.4052C18.4809 17.4932 18.5799 17.6612 18.5799 17.8432C18.5799 18.0252 18.4799 18.1942 18.3199 18.2812L16.0409 19.5272L14.7949 21.8052C14.7079 21.9662 14.5399 22.0652 14.3569 22.0652ZM11.6749 17.8432L13.2799 18.7212C13.3639 18.7672 13.4329 18.8352 13.4789 18.9192L14.3569 20.5232L15.2349 18.9192C15.2809 18.8352 15.3499 18.7672 15.4339 18.7212L17.0389 17.8432L15.4339 16.9652C15.3499 16.9192 15.2809 16.8512 15.2349 16.7672L14.3579 15.1612L13.4809 16.7672C13.4349 16.8512 13.3659 16.9192 13.2819 16.9652L11.6749 17.8432Z" fill="#63312D"/>
<path d="M47.26 3.60218L49.703 4.93818L47.26 6.27618L45.922 8.72018L44.586 6.27618L42.141 4.93818L44.586 3.60218L45.922 1.15918L47.26 3.60218Z" fill="#F9DD9D"/>
<path d="M45.922 9.22018C45.739 9.22018 45.571 9.12018 45.484 8.96018L44.218 6.64518L41.9 5.37718C41.74 5.28918 41.64 5.12118 41.64 4.93918C41.64 4.75718 41.74 4.58718 41.901 4.50118L44.217 3.23518L45.483 0.920176C45.659 0.600176 46.184 0.600176 46.36 0.920176L47.628 3.23518L49.943 4.50018C50.103 4.58818 50.203 4.75618 50.203 4.93818C50.203 5.12018 50.103 5.28918 49.943 5.37618L47.628 6.64418L46.36 8.96018C46.272 9.12018 46.104 9.22018 45.922 9.22018ZM43.183 4.93818L44.827 5.83718C44.911 5.88318 44.979 5.95118 45.025 6.03518L45.922 7.67718L46.821 6.03518C46.867 5.95118 46.935 5.88318 47.019 5.83718L48.661 4.93818L47.02 4.04118C46.937 3.99518 46.868 3.92718 46.822 3.84318L45.923 2.20118L45.026 3.84318C44.98 3.92718 44.911 3.99518 44.827 4.04118L43.183 4.93818Z" fill="#63312D"/>
<path d="M56.3609 30.8943L58.7689 32.2103L56.3609 33.5263L55.0449 35.9353L53.7279 33.5263L51.3219 32.2103L53.7279 30.8943L55.0449 28.4873L56.3609 30.8943Z" fill="#84DBFF"/>
<path d="M55.045 36.4353C54.862 36.4353 54.694 36.3353 54.607 36.1753L53.361 33.8953L51.083 32.6493C50.923 32.5613 50.823 32.3933 50.823 32.2113C50.823 32.0293 50.923 31.8603 51.083 31.7733L53.361 30.5273L54.607 28.2493C54.783 27.9293 55.308 27.9293 55.484 28.2493L56.73 30.5273L59.01 31.7733C59.17 31.8613 59.27 32.0293 59.27 32.2113C59.27 32.3933 59.17 32.5623 59.01 32.6493L56.73 33.8953L55.484 36.1753C55.396 36.3353 55.228 36.4353 55.045 36.4353ZM52.364 32.2103L53.968 33.0883C54.052 33.1343 54.12 33.2023 54.166 33.2863L55.044 34.8923L55.922 33.2863C55.968 33.2023 56.036 33.1343 56.12 33.0883L57.726 32.2103L56.12 31.3323C56.036 31.2863 55.968 31.2183 55.922 31.1343L55.044 29.5303L54.166 31.1343C54.12 31.2183 54.052 31.2863 53.968 31.3323L52.364 32.2103Z" fill="#63312D"/>
<path d="M54.703 44.2783C54.176 43.4423 53.326 43.0013 52.465 43.0163V43.0083H46.465V45.5373L38.823 48.8573H35.16C36.877 48.8573 38.269 47.3143 38.269 45.4063C38.269 43.5043 36.877 41.9553 35.16 41.9553H29.465C29.465 41.9553 27.058 37.9023 22.246 37.9023H16.278V56.6213H39.497C40.22 56.6213 41.311 56.3083 41.927 55.9283C41.927 55.9283 41.927 55.9283 41.929 55.9273L54.152 48.3243C55.275 47.3543 55.519 45.5753 54.703 44.2783Z" fill="#EFC36A"/>
<path d="M39.496 57.1223H16.277C16.001 57.1223 15.777 56.8983 15.777 56.6223V37.9033C15.777 37.6273 16.001 37.4033 16.277 37.4033H22.245C26.639 37.4033 29.106 40.5373 29.736 41.4563H35.16C37.15 41.4563 38.769 43.2283 38.769 45.4073C38.769 46.5793 38.3 47.6343 37.557 48.3583H38.718L45.964 45.2103V43.0093C45.964 42.7333 46.188 42.5093 46.464 42.5093H52.464C52.494 42.5093 52.524 42.5123 52.552 42.5173C53.584 42.5323 54.541 43.0853 55.125 44.0123C56.07 45.5143 55.785 47.5753 54.476 48.7043L42.191 56.3523C41.493 56.7843 40.311 57.1223 39.496 57.1223ZM16.777 56.1223H39.496C40.129 56.1223 41.121 55.8393 41.663 55.5043L53.887 47.9003C54.768 47.1313 54.968 45.6373 54.281 44.5453C53.866 43.8883 53.183 43.5333 52.474 43.5173C52.44 43.5133 52.409 43.5143 52.377 43.5093H46.965V45.5383C46.965 45.7373 46.847 45.9173 46.664 45.9973L39.021 49.3173C38.958 49.3443 38.89 49.3583 38.822 49.3583H35.16C34.884 49.3583 34.66 49.1343 34.66 48.8583C34.66 48.5823 34.884 48.3583 35.16 48.3583C36.598 48.3583 37.769 47.0343 37.769 45.4073C37.769 43.7803 36.598 42.4563 35.16 42.4563H29.465C29.289 42.4563 29.126 42.3633 29.035 42.2123C29.013 42.1743 26.703 38.4033 22.245 38.4033H16.777V56.1223Z" fill="#63312D"/>
<path d="M48.6969 44.2783C47.8809 42.9823 46.2909 42.6223 45.0819 43.4623L32.8159 48.8583H29.1539C30.8729 48.8583 32.2649 47.3153 32.2649 45.4073C32.2649 43.5053 30.8719 41.9563 29.1539 41.9563H23.4609C23.4609 41.9563 21.0529 37.9033 16.2399 37.9033C11.4269 37.9033 9.11792 41.7473 9.11792 41.7473V56.6223H33.4919C34.2149 56.6223 35.3079 56.3093 35.9219 55.9283L48.1449 48.3253C49.2709 47.3543 49.5139 45.5753 48.6969 44.2783Z" fill="#F9DD9D"/>
<path d="M11.1189 42.2843C11.1189 42.2843 13.4279 38.4403 18.2399 38.4403C18.6349 38.4403 19.0079 38.4753 19.3699 38.5263C18.4729 38.1513 17.4309 37.9033 16.2399 37.9033C11.4269 37.9033 9.11792 41.7473 9.11792 41.7473V56.6223H11.1179V42.2843H11.1189Z" fill="#FFEECF"/>
<path d="M33.4919 57.1223H9.1189C8.8429 57.1223 8.6189 56.8983 8.6189 56.6223V41.7473C8.6189 41.6563 8.6439 41.5673 8.6899 41.4893C8.7899 41.3223 11.2029 37.4033 16.2399 37.4033C20.6339 37.4033 23.1029 40.5373 23.7319 41.4563H29.1539C31.1449 41.4563 32.7649 43.2283 32.7649 45.4073C32.7649 46.5793 32.2959 47.6343 31.5519 48.3583H32.7099L44.8799 43.0043C45.4779 42.5783 46.2879 42.4043 47.0839 42.5683C47.9169 42.7373 48.6399 43.2503 49.1189 44.0113C50.0649 45.5143 49.7799 47.5743 48.4699 48.7033L36.1849 56.3513C35.4929 56.7843 34.3099 57.1223 33.4919 57.1223ZM9.6189 56.1223H33.4929C34.1169 56.1223 35.1289 55.8333 35.6579 55.5033L47.8809 47.9003C48.7629 47.1323 48.9629 45.6383 48.2749 44.5453C47.9419 44.0173 47.4489 43.6623 46.8859 43.5483C46.3589 43.4423 45.8229 43.5573 45.3669 43.8723L33.0169 49.3163C32.9539 49.3433 32.8849 49.3583 32.8159 49.3583H29.1539C28.8779 49.3583 28.6539 49.1343 28.6539 48.8583C28.6539 48.5823 28.8779 48.3583 29.1539 48.3583C30.5939 48.3583 31.7649 47.0343 31.7649 45.4073C31.7649 43.7803 30.5939 42.4563 29.1539 42.4563H23.4609C23.2849 42.4563 23.1219 42.3633 23.0319 42.2123C23.0089 42.1743 20.6989 38.4033 16.2399 38.4033C12.1749 38.4033 10.0329 41.2753 9.6179 41.8933V56.1223H9.6189Z" fill="#63312D"/>
<path d="M1.2309 58.8413H9.1189L9.1189 37.9033H1.2309L1.2309 58.8413Z" fill="#82D9FF"/>
<path d="M3.23096 39.9033H9.11896V37.9033H1.23096V58.8413H3.23096V39.9033Z" fill="#CAF4FF"/>
<path d="M9.11896 59.3413H1.23096C0.954957 59.3413 0.730957 59.1173 0.730957 58.8413V37.9033C0.730957 37.6273 0.954957 37.4033 1.23096 37.4033H9.11896C9.39496 37.4033 9.61896 37.6273 9.61896 37.9033V58.8413C9.61896 59.1173 9.39496 59.3413 9.11896 59.3413ZM1.73096 58.3413H8.61896V38.4033H1.73096V58.3413Z" fill="#63312D"/>
<path d="M54.703 44.2783C54.176 43.4423 53.326 43.0013 52.465 43.0163V43.0083H46.465V45.5373L38.823 48.8573H35.16C36.877 48.8573 38.269 47.3143 38.269 45.4063C38.269 43.5043 36.877 41.9553 35.16 41.9553H29.465C29.465 41.9553 27.058 37.9023 22.246 37.9023H16.278V56.6213H39.497C40.22 56.6213 41.311 56.3083 41.927 55.9283C41.927 55.9283 41.927 55.9283 41.929 55.9273L54.152 48.3243C55.275 47.3543 55.519 45.5753 54.703 44.2783Z" fill="#EFC36A"/>
<path d="M39.496 57.1223H16.277C16.001 57.1223 15.777 56.8983 15.777 56.6223V37.9033C15.777 37.6273 16.001 37.4033 16.277 37.4033H22.245C26.639 37.4033 29.106 40.5373 29.736 41.4563H35.16C37.15 41.4563 38.769 43.2283 38.769 45.4073C38.769 46.5793 38.3 47.6343 37.557 48.3583H38.718L45.964 45.2103V43.0093C45.964 42.7333 46.188 42.5093 46.464 42.5093H52.464C52.494 42.5093 52.524 42.5123 52.552 42.5173C53.584 42.5323 54.541 43.0853 55.125 44.0123C56.07 45.5143 55.785 47.5753 54.476 48.7043L42.191 56.3523C41.493 56.7843 40.311 57.1223 39.496 57.1223ZM16.777 56.1223H39.496C40.129 56.1223 41.121 55.8393 41.663 55.5043L53.887 47.9003C54.768 47.1313 54.968 45.6373 54.281 44.5453C53.866 43.8883 53.183 43.5333 52.474 43.5173C52.44 43.5133 52.409 43.5143 52.377 43.5093H46.965V45.5383C46.965 45.7373 46.847 45.9173 46.664 45.9973L39.021 49.3173C38.958 49.3443 38.89 49.3583 38.822 49.3583H35.16C34.884 49.3583 34.66 49.1343 34.66 48.8583C34.66 48.5823 34.884 48.3583 35.16 48.3583C36.598 48.3583 37.769 47.0343 37.769 45.4073C37.769 43.7803 36.598 42.4563 35.16 42.4563H29.465C29.289 42.4563 29.126 42.3633 29.035 42.2123C29.013 42.1743 26.703 38.4033 22.245 38.4033H16.777V56.1223Z" fill="#63312D"/>
<path d="M48.6969 44.2783C47.8809 42.9823 46.2909 42.6223 45.0819 43.4623L32.8159 48.8583H29.1539C30.8729 48.8583 32.2649 47.3153 32.2649 45.4073C32.2649 43.5053 30.8719 41.9563 29.1539 41.9563H23.4609C23.4609 41.9563 21.0529 37.9033 16.2399 37.9033C11.4269 37.9033 9.11792 41.7473 9.11792 41.7473V56.6223H33.4919C34.2149 56.6223 35.3079 56.3093 35.9219 55.9283L48.1449 48.3253C49.2709 47.3543 49.5139 45.5753 48.6969 44.2783Z" fill="#F9DD9D"/>
<path d="M11.1189 42.2843C11.1189 42.2843 13.4279 38.4403 18.2399 38.4403C18.6349 38.4403 19.0079 38.4753 19.3699 38.5263C18.4729 38.1513 17.4309 37.9033 16.2399 37.9033C11.4269 37.9033 9.11792 41.7473 9.11792 41.7473V56.6223H11.1179V42.2843H11.1189Z" fill="#FFEECF"/>
<path d="M33.4919 57.1223H9.1189C8.8429 57.1223 8.6189 56.8983 8.6189 56.6223V41.7473C8.6189 41.6563 8.6439 41.5673 8.6899 41.4893C8.7899 41.3223 11.2029 37.4033 16.2399 37.4033C20.6339 37.4033 23.1029 40.5373 23.7319 41.4563H29.1539C31.1449 41.4563 32.7649 43.2283 32.7649 45.4073C32.7649 46.5793 32.2959 47.6343 31.5519 48.3583H32.7099L44.8799 43.0043C45.4779 42.5783 46.2879 42.4043 47.0839 42.5683C47.9169 42.7373 48.6399 43.2503 49.1189 44.0113C50.0649 45.5143 49.7799 47.5743 48.4699 48.7033L36.1849 56.3513C35.4929 56.7843 34.3099 57.1223 33.4919 57.1223ZM9.6189 56.1223H33.4929C34.1169 56.1223 35.1289 55.8333 35.6579 55.5033L47.8809 47.9003C48.7629 47.1323 48.9629 45.6383 48.2749 44.5453C47.9419 44.0173 47.4489 43.6623 46.8859 43.5483C46.3589 43.4423 45.8229 43.5573 45.3669 43.8723L33.0169 49.3163C32.9539 49.3433 32.8849 49.3583 32.8159 49.3583H29.1539C28.8779 49.3583 28.6539 49.1343 28.6539 48.8583C28.6539 48.5823 28.8779 48.3583 29.1539 48.3583C30.5939 48.3583 31.7649 47.0343 31.7649 45.4073C31.7649 43.7803 30.5939 42.4563 29.1539 42.4563H23.4609C23.2849 42.4563 23.1219 42.3633 23.0319 42.2123C23.0089 42.1743 20.6989 38.4033 16.2399 38.4033C12.1749 38.4033 10.0329 41.2753 9.6179 41.8933V56.1223H9.6189Z" fill="#63312D"/>
<path d="M29.155 48.3584H23.87V49.3584H29.155V48.3584Z" fill="#63312D"/>
<path d="M1.2309 58.8413H9.1189L9.1189 37.9033H1.2309L1.2309 58.8413Z" fill="#82D9FF"/>
<path d="M3.23096 39.9033H9.11896V37.9033H1.23096V58.8413H3.23096V39.9033Z" fill="#CAF4FF"/>
<path d="M9.11896 59.3413H1.23096C0.954957 59.3413 0.730957 59.1173 0.730957 58.8413V37.9033C0.730957 37.6273 0.954957 37.4033 1.23096 37.4033H9.11896C9.39496 37.4033 9.61896 37.6273 9.61896 37.9033V58.8413C9.61896 59.1173 9.39496 59.3413 9.11896 59.3413ZM1.73096 58.3413H8.61896V38.4033H1.73096V58.3413Z" fill="#63312D"/>
</svg>
