<svg width="15" height="15" viewBox="0 0 15 15" fill="none" xmlns="http://www.w3.org/2000/svg" color="#1C5579">
<path d="M11.25 1.25H3.75C3.25272 1.25 2.77581 1.44754 2.42417 1.79917C2.07254 2.15081 1.875 2.62772 1.875 3.125V10C1.875 10.4973 2.07254 10.9742 2.42417 11.3258C2.77581 11.6775 3.25272 11.875 3.75 11.875H5.36875L7.05625 13.5687C7.11465 13.6267 7.18391 13.6725 7.26006 13.7036C7.33621 13.7347 7.41775 13.7505 7.5 13.75C7.64897 13.75 7.79304 13.6968 7.90625 13.6L9.91875 11.875H11.25C11.7473 11.875 12.2242 11.6775 12.5758 11.3258C12.9275 10.9742 13.125 10.4973 13.125 10V3.125C13.125 2.62772 12.9275 2.15081 12.5758 1.79917C12.2242 1.44754 11.7473 1.25 11.25 1.25ZM11.875 10C11.875 10.1658 11.8092 10.3247 11.6919 10.4419C11.5747 10.5592 11.4158 10.625 11.25 10.625H9.6875C9.53853 10.625 9.39446 10.6782 9.28125 10.775L7.53125 12.275L6.06875 10.8063C6.01035 10.7483 5.94109 10.7025 5.86494 10.6714C5.78879 10.6403 5.70725 10.6245 5.625 10.625H3.75C3.58424 10.625 3.42527 10.5592 3.30806 10.4419C3.19085 10.3247 3.125 10.1658 3.125 10V3.125C3.125 2.95924 3.19085 2.80027 3.30806 2.68306C3.42527 2.56585 3.58424 2.5 3.75 2.5H11.25C11.4158 2.5 11.5747 2.56585 11.6919 2.68306C11.8092 2.80027 11.875 2.95924 11.875 3.125V10Z" fill="currentColor"/>
</svg>
