<svg width="26" height="25" viewBox="0 0 26 25" fill="none" xmlns="http://www.w3.org/2000/svg">
<path d="M13 0C5.82 0 0 4.925 0 11C0 14.368 1.79333 17.3785 4.61133 19.3965C4.68328 20.9325 4.44528 23.0534 2.32617 24.0312L2.32226 24.0332C2.12843 24.1069 2.00022 24.2926 1.99999 24.5C1.99999 24.7761 2.22385 25 2.49999 25C2.51433 25 2.52867 24.9993 2.54296 24.998C4.97699 24.9824 7.04326 23.667 8.46874 22.2773C8.92074 21.8363 9.55086 21.6193 10.1719 21.7363C11.0819 21.9093 12.028 22 13 22C20.18 22 26 17.075 26 11C26 4.925 20.18 0 13 0ZM7 9C8.105 9 9 9.895 9 11C9 12.105 8.105 13 7 13C5.895 13 5 12.105 5 11C5 9.895 5.895 9 7 9ZM13 9C14.105 9 15 9.895 15 11C15 12.105 14.105 13 13 13C11.895 13 11 12.105 11 11C11 9.895 11.895 9 13 9ZM19 9C20.105 9 21 9.895 21 11C21 12.105 20.105 13 19 13C17.895 13 17 12.105 17 11C17 9.895 17.895 9 19 9Z" fill="white"/>
</svg>
