<svg width="23" height="18" viewBox="0 0 23 18" fill="none" xmlns="http://www.w3.org/2000/svg">
<path d="M17.9172 15.8602L20.6875 5.83833L16.1484 8.4102C15.6773 8.67739 15.0789 8.50552 14.8211 8.02895L11.5 1.8938L8.17891 8.02817C7.92109 8.50395 7.32266 8.67583 6.85156 8.40942L2.3125 5.83755L5.08281 15.8602H17.9172Z" fill="#FFD731"/>
<path d="M20.6875 5.83447L17.9141 15.8579H14.7969C15.2398 15.1228 15.918 13.7798 16.1227 11.9657C16.2883 10.497 16.0797 9.28447 15.8828 8.51416C15.9766 8.49854 16.0625 8.45947 16.1484 8.4126L20.6875 5.83447Z" fill="#FFC933"/>
<path d="M20.132 15.5415C20.132 16.1673 19.7062 16.7251 19.0968 16.868C16.571 17.4618 14.0312 17.747 11.5 17.747C8.9687 17.747 6.42808 17.4618 3.90308 16.868C3.2937 16.7251 2.86792 16.1673 2.86792 15.5415C2.86792 14.6845 3.65464 14.0313 4.49214 14.2118C6.82339 14.7149 9.16558 14.9579 11.5 14.9579C13.8343 14.9579 16.1765 14.7157 18.5078 14.2118C19.3453 14.0313 20.132 14.6845 20.132 15.5415Z" fill="#FFD731"/>
<path d="M20.1328 15.5454C20.1328 16.1704 19.7031 16.7251 19.0937 16.8657C18.2812 17.0532 17.4688 17.2173 16.6563 17.3423C17.0625 17.0611 17.3125 16.5923 17.3125 16.0845C17.3125 15.3736 16.8281 14.7876 16.1875 14.6236C16.9609 14.5142 17.7344 14.3814 18.5078 14.2095C19.3437 14.0298 20.1328 14.6861 20.1328 15.5454Z" fill="#FFC933"/>
<path d="M2.3125 7.5874C3.279 7.5874 4.0625 6.8039 4.0625 5.8374C4.0625 4.8709 3.279 4.0874 2.3125 4.0874C1.346 4.0874 0.5625 4.8709 0.5625 5.8374C0.5625 6.8039 1.346 7.5874 2.3125 7.5874Z" fill="#FFD731"/>
<path d="M20.6875 7.5874C21.654 7.5874 22.4375 6.8039 22.4375 5.8374C22.4375 4.8709 21.654 4.0874 20.6875 4.0874C19.721 4.0874 18.9375 4.8709 18.9375 5.8374C18.9375 6.8039 19.721 7.5874 20.6875 7.5874Z" fill="#FFC933"/>
<path d="M11.5 3.5C12.4665 3.5 13.25 2.7165 13.25 1.75C13.25 0.783501 12.4665 0 11.5 0C10.5335 0 9.75 0.783501 9.75 1.75C9.75 2.7165 10.5335 3.5 11.5 3.5Z" fill="#FFD731"/>
<path d="M11.5 13.0148C12.4078 13.0148 13.1437 12.1257 13.1437 11.0289C13.1437 9.9321 12.4078 9.04297 11.5 9.04297C10.5921 9.04297 9.8562 9.9321 9.8562 11.0289C9.8562 12.1257 10.5921 13.0148 11.5 13.0148Z" fill="#E96565"/>
<path d="M13.1406 11.0298C13.1406 12.1235 12.4063 13.0142 11.5 13.0142C11.3125 13.0142 11.1406 12.9751 10.9766 12.9126C11.625 12.647 12.0938 11.9048 12.0938 11.0298C12.0938 10.1548 11.625 9.4126 10.9766 9.14697C11.1406 9.08447 11.3125 9.04541 11.5 9.04541C12.4063 9.04541 13.1406 9.93604 13.1406 11.0298Z" fill="#E05353"/>
<path d="M5.56725 10.9406L4.95475 8.72577C4.90631 8.54999 4.72428 8.44295 4.54694 8.4953C4.37038 8.54452 4.26647 8.72655 4.31569 8.90311L4.92819 11.118C4.96881 11.2648 5.10241 11.3617 5.2485 11.3617C5.27741 11.3617 5.3071 11.3578 5.33678 11.3492C5.51256 11.3 5.61647 11.118 5.56725 10.9406ZM5.94928 12.3211C5.90006 12.1437 5.71803 12.0383 5.54069 12.0898C5.36413 12.139 5.26022 12.3211 5.30944 12.4976L5.36647 12.7047C5.4071 12.8515 5.54069 12.9484 5.68678 12.9484C5.71569 12.9484 5.74616 12.9445 5.77506 12.9359C5.95163 12.8867 6.05553 12.7047 6.00631 12.5281L5.94928 12.3211ZM9.90319 7.88045C9.95319 7.90702 10.0079 7.9203 10.061 7.9203C10.179 7.9203 10.293 7.8578 10.3532 7.74608L10.8821 6.76952C10.9688 6.60858 10.9094 6.40624 10.7477 6.31952C10.5852 6.23358 10.3852 6.29217 10.2977 6.45389L9.7696 7.43045C9.6821 7.59061 9.74225 7.79217 9.90319 7.88045Z" fill="#FFE576"/>
</svg>
