<svg width="19" height="18" viewBox="0 0 19 18" fill="none" xmlns="http://www.w3.org/2000/svg">
<path d="M2.00009 0.000100418C1.63945 -0.00499958 1.30401 0.184481 1.1222 0.495971C0.940387 0.807471 0.940387 1.19273 1.1222 1.50422C1.30401 1.81572 1.63945 2.00519 2.00009 2.00009H4.00009C8.98268 2.00009 13.0001 6.0175 13.0001 11.0001V13.0001H10.4532C9.90122 13.0001 9.61433 13.6576 9.99033 14.0626L13.4142 17.756C13.7392 18.081 14.2669 18.081 14.5919 17.756L18.0157 14.0626C18.3927 13.6576 18.1058 13.0001 17.5528 13.0001H15.0001V11.0001C15.0001 4.93668 10.0635 9.04047e-05 4.00011 9.04047e-05L2.00009 0.000100418Z" fill="white"/>
</svg>
