<svg width="20" height="20" viewBox="0 0 20 20" fill="none" xmlns="http://www.w3.org/2000/svg">
<g clip-path="url(#clip0_49_169)">
<path d="M7.5625 12.75C6.8125 12.6875 6.125 12.5 5.375 12.3125L4.6875 12.125V6.875C4.6875 4.3125 6.8125 2.1875 9.375 2.1875C11.9375 2.1875 14.0625 4.3125 14.0625 6.875V12.1875L13.375 12.375C12.625 12.5625 11.9375 12.6875 11.1875 12.8125" fill="#8A6845"/>
<path d="M7.1875 7.1875V8.75C7.1875 10 7.8125 11.0625 8.8125 11.625V12.75H11.25C11.6875 12.6875 12.0625 12.625 12.5 12.5625V11.625C13.4375 11 14.125 9.9375 14.125 8.75V7.1875H7.1875Z" fill="#745539"/>
<path d="M13.4375 7.1875H12.8125V9.0625H13.4375C13.8125 9.0625 14.0625 8.8125 14.0625 8.4375V7.8125C14.0625 7.4375 13.8125 7.1875 13.4375 7.1875Z" fill="#F0C9AE"/>
<path d="M12.8125 7.1875H13.5625L13.4375 7.5V8.125C13.4375 8.3125 13.5625 8.4375 13.75 8.4375H14.0625C14.0625 8.8125 13.8125 9.0625 13.4375 9.0625H12.8125V7.1875Z" fill="#E2B698"/>
<path d="M8.8125 12.75C8.0625 12.6875 7.375 12.5 6.625 12.3125L5.9375 12.125V6.875C5.9375 4.5 7.6875 2.5625 10 2.25C9.8125 2.25 9.5625 2.1875 9.375 2.1875C6.8125 2.1875 4.6875 4.3125 4.6875 6.875V12.1875L5.375 12.375C6.125 12.5625 6.8125 12.6875 7.5625 12.8125H11.25L8.8125 12.75Z" fill="#745539"/>
<path d="M5.3125 7.1875C4.9375 7.1875 4.6875 7.4375 4.6875 7.8125V8.4375C4.6875 8.8125 4.9375 9.0625 5.3125 9.0625H5.9375V7.1875H5.3125Z" fill="#F0C9AE"/>
<path d="M5.9375 7.1875H5.1875L5.3125 7.5V8.125C5.3125 8.3125 5.1875 8.4375 5 8.4375H4.6875C4.6875 8.8125 4.9375 9.0625 5.3125 9.0625H5.9375V7.1875Z" fill="#E2B698"/>
<path d="M0.9375 0.9375H5.9375C6.3125 0.9375 6.5625 1.1875 6.5625 1.5625V4.0625C6.5625 4.4375 6.3125 4.6875 5.9375 4.6875H5.3125V5.9375L3.4375 4.6875H0.9375C0.5625 4.6875 0.3125 4.4375 0.3125 4.0625V1.5625C0.3125 1.1875 0.5625 0.9375 0.9375 0.9375Z" fill="#EEF2FA"/>
<path d="M2.1875 3.75C1.8125 3.75 1.5625 3.5 1.5625 3.125V0.9375H0.9375C0.5625 0.9375 0.3125 1.1875 0.3125 1.5625V4.0625C0.3125 4.4375 0.5625 4.6875 0.9375 4.6875H3.4375L5.3125 5.9375V4.6875H5.9375C6.3125 4.6875 6.5625 4.4375 6.5625 4.0625V3.75H2.1875Z" fill="#D5E5F2"/>
<path d="M14.125 14.3125L12.25 13.6875C12 15.1875 9.375 16.3125 9.375 16.3125C9.375 16.3125 6.8125 15.125 6.5 13.6875L4.625 14.3125C3.5625 14.6875 2.8125 15.6875 2.8125 16.8125V19.125H15.9375V16.8125C15.9375 15.625 15.1875 14.625 14.125 14.3125Z" fill="#91CA60"/>
<path d="M15.9375 19.0625V16.75C15.9375 16.25 15.8125 15.8125 15.5625 15.375C14 15.5625 12.8125 16.875 12.8125 18.5V19H15.9375V19.0625ZM2.8125 19.0625V16.75C2.8125 16.25 2.9375 15.8125 3.1875 15.375C4.75 15.5625 5.9375 16.875 5.9375 18.5V19H2.8125V19.0625Z" fill="#70BB57"/>
<path d="M11.1875 11.0625H7.5V13.3125L6.5 13.625C6.75 15.125 9.375 16.25 9.375 16.25C9.375 16.25 11.9375 15.0625 12.25 13.625L11.25 13.3125V11.0625H11.1875Z" fill="#F0C9AE"/>
<path d="M6.5 13.9375C6.375 13.9375 6.25 13.875 6.1875 13.75V13.625C6.1875 13.5 6.25 13.375 6.375 13.3125C6.5625 13.25 6.6875 13.375 6.75 13.5V13.625C6.75 13.75 6.6875 13.875 6.5625 13.9375H6.5Z" fill="#004463"/>
<path d="M12.25 13.9375H12.125C12 13.875 11.9375 13.75 11.9375 13.625V13.5C12 13.3125 12.1875 13.25 12.3125 13.3125C12.4375 13.375 12.5 13.5 12.5 13.625V13.75C12.5 13.875 12.375 13.9375 12.25 13.9375Z" fill="#004463"/>
<path d="M11.1875 11.0625H7.5V13.3125L6.5 13.625C6.8125 15.125 9.375 16.25 9.375 16.25C9.375 16.25 11.9375 15.0625 12.25 13.625L11.25 13.3125V11.0625H11.1875Z" fill="#F0C9AE"/>
<path d="M9.375 16.5625H9.25C9.125 16.5 6.5 15.3125 6.1875 13.6875C6.1875 13.5625 6.25 13.375 6.375 13.3125L7.1875 13.0625V11.0625C7.1875 10.875 7.3125 10.75 7.5 10.75H11.1875C11.375 10.75 11.5 10.875 11.5 11.0625V13.0625L12.3125 13.3125C12.4375 13.375 12.5625 13.5 12.5 13.6875C12.1875 15.3125 9.5625 16.5 9.4375 16.5625H9.375ZM6.875 13.8125C7.25 14.75 8.6875 15.5625 9.375 15.875C10.0625 15.5625 11.4375 14.6875 11.875 13.8125L11.125 13.5625C11 13.5 10.9375 13.375 10.9375 13.25V11.3125H7.875V13.25C7.875 13.375 7.8125 13.5 7.6875 13.5625L6.875 13.8125Z" fill="#004463"/>
<path d="M8.4375 7.1875C7.75 7.1875 7.1875 6.625 7.1875 5.9375C7.1875 6.625 6.625 7.1875 5.9375 7.1875V8.75C5.9375 10.625 7.5 12.1875 9.375 12.1875C11.25 12.1875 12.8125 10.625 12.8125 8.75V7.1875H8.4375Z" fill="#F0C9AE"/>
<path d="M18.4375 0.9375H15.9375C15.5625 0.9375 15.3125 1.1875 15.3125 1.5625V5.9375C15.3125 6.3125 15.5625 6.5625 15.9375 6.5625H16.5625V7.8125L17.8125 6.5625H18.4375C18.8125 6.5625 19.0625 6.3125 19.0625 5.9375V1.5625C19.0625 1.1875 18.8125 0.9375 18.4375 0.9375Z" fill="#EEF2FA"/>
<path d="M17.1875 5.625C16.8125 5.625 16.5625 5.375 16.5625 5V0.9375H15.9375C15.5625 0.9375 15.3125 1.1875 15.3125 1.5625V5.9375C15.3125 6.3125 15.5625 6.5625 15.9375 6.5625H16.5625V7.8125L17.8125 6.5625H18.4375C18.8125 6.5625 19.0625 6.3125 19.0625 5.9375V5.625H17.1875Z" fill="#D5E5F2"/>
<path d="M19.0625 14.0625H15.9375C15.5625 14.0625 15.3125 13.8125 15.3125 13.4375V10.9375C15.3125 10.5625 15.5625 10.3125 15.9375 10.3125H16.5625V9.0625L18.4375 10.3125H19.0625C19.4375 10.3125 19.6875 10.5625 19.6875 10.9375V13.4375C19.6875 13.8125 19.4375 14.0625 19.0625 14.0625Z" fill="#EEF2FA"/>
<path d="M17.1875 12.8125C16.8125 12.8125 16.5625 12.5625 16.5625 12.1875V10.3125H15.9375C15.5625 10.3125 15.3125 10.5625 15.3125 10.9375V13.4375C15.3125 13.8125 15.5625 14.0625 15.9375 14.0625H19.0625C19.4375 14.0625 19.6875 13.8125 19.6875 13.4375V12.8125H17.1875Z" fill="#D5E5F2"/>
<path d="M18.4375 11.875H16.5625C16.375 11.875 16.25 11.75 16.25 11.5625C16.25 11.375 16.375 11.25 16.5625 11.25H18.4375C18.625 11.25 18.75 11.375 18.75 11.5625C18.75 11.75 18.625 11.875 18.4375 11.875ZM17.8125 13.125H16.5625C16.375 13.125 16.25 13 16.25 12.8125C16.25 12.625 16.375 12.5 16.5625 12.5H17.8125C18 12.5 18.125 12.625 18.125 12.8125C18.125 13 18 13.125 17.8125 13.125ZM5.3125 2.5H1.5625C1.375 2.5 1.25 2.375 1.25 2.1875C1.25 2 1.375 1.875 1.5625 1.875H5.3125C5.5 1.875 5.625 2 5.625 2.1875C5.625 2.375 5.5 2.5 5.3125 2.5ZM4.0625 3.75H1.5625C1.375 3.75 1.25 3.625 1.25 3.4375C1.25 3.25 1.375 3.125 1.5625 3.125H4.0625C4.25 3.125 4.375 3.25 4.375 3.4375C4.375 3.625 4.25 3.75 4.0625 3.75ZM9.375 12.5C7.3125 12.5 5.625 10.8125 5.625 8.75V7.4375C5.625 7.25 5.75 7.125 5.9375 7.125C6.125 7.125 6.25 7.25 6.25 7.4375V8.75C6.25 10.5 7.625 11.875 9.375 11.875C11.125 11.875 12.5 10.5 12.5 8.75V7.4375C12.5 7.25 12.625 7.125 12.8125 7.125C13 7.125 13.125 7.25 13.125 7.4375V8.75C13.125 10.8125 11.4375 12.5 9.375 12.5ZM15.9375 19.375H2.8125C2.625 19.375 2.5 19.25 2.5 19.0625V16.75C2.5 15.5 3.3125 14.375 4.5 13.9375L7.375 13C7.5625 12.9375 7.6875 13.0625 7.75 13.1875C7.8125 13.3125 7.6875 13.5 7.5625 13.5625L4.6875 14.5C3.75 14.875 3.125 15.75 3.125 16.75V18.75H15.625V16.75C15.625 15.75 15 14.875 14.0625 14.5625L11.125 13.5625C10.9375 13.5 10.875 13.3125 10.9375 13.1875C11 13 11.1875 12.9375 11.3125 13L14.25 14C15.4375 14.375 16.25 15.5 16.25 16.8125V19.125C16.25 19.25 16.125 19.375 15.9375 19.375Z" fill="#004463"/>
<path d="M15.9375 19.375H12.8125C12.625 19.375 12.5 19.25 12.5 19.0625V18.5625C12.5 16.8125 13.8125 15.3125 15.5625 15.125C15.6875 15.125 15.8125 15.1875 15.875 15.25C16.125 15.6875 16.3125 16.25 16.3125 16.75V19.0625C16.25 19.25 16.125 19.375 15.9375 19.375ZM13.125 18.75H15.625V16.75C15.625 16.4375 15.5625 16.0625 15.375 15.75C14.0625 16 13.0625 17.1875 13.0625 18.5625V18.75H13.125ZM5.9375 19.375H2.8125C2.625 19.375 2.5 19.25 2.5 19.0625V16.75C2.5 16.25 2.625 15.6875 2.9375 15.25C3 15.125 3.125 15.0625 3.25 15.125C5 15.3125 6.3125 16.8125 6.3125 18.5625V19.0625C6.25 19.25 6.125 19.375 5.9375 19.375ZM3.125 18.75H5.625V18.5625C5.625 17.1875 4.625 16.0625 3.3125 15.75C3.1875 16.0625 3.125 16.4375 3.125 16.75V18.75ZM5.9375 9.375H5.3125C4.8125 9.375 4.375 8.9375 4.375 8.4375V7.8125C4.375 7.3125 4.8125 6.875 5.3125 6.875H5.625C5.8125 6.875 5.9375 7 5.9375 7.1875C5.9375 7.375 5.8125 7.5 5.625 7.5H5.3125C5.125 7.5 5 7.625 5 7.8125V8.4375C5 8.625 5.125 8.75 5.3125 8.75H5.625V8.125C5.625 7.9375 5.75 7.8125 5.9375 7.8125C6.125 7.8125 6.25 7.9375 6.25 8.125V9.0625C6.25 9.25 6.125 9.375 5.9375 9.375ZM13.4375 9.375H12.8125C12.625 9.375 12.5 9.25 12.5 9.0625V8.125C12.5 7.9375 12.625 7.8125 12.8125 7.8125C13 7.8125 13.125 7.9375 13.125 8.125V8.75H13.4375C13.625 8.75 13.75 8.625 13.75 8.4375V7.8125C13.75 7.625 13.625 7.5 13.4375 7.5H12.8125C12.625 7.5 12.5 7.375 12.5 7.1875C12.5 7 12.625 6.875 12.8125 6.875H13.4375C13.9375 6.875 14.375 7.3125 14.375 7.8125V8.4375C14.375 8.9375 13.9375 9.375 13.4375 9.375Z" fill="#004463"/>
<path d="M5.9375 7.5H5.3125C5.125 7.5 5 7.375 5 7.1875C5 7 5.125 6.875 5.3125 6.875H5.9375C6.4375 6.875 6.875 6.4375 6.875 5.9375V5.3125C6.875 5.125 7 5 7.1875 5C7.375 5 7.5 5.125 7.5 5.3125V5.9375C7.5 6.8125 6.8125 7.5 5.9375 7.5Z" fill="#004463"/>
<path d="M12.8125 7.5H8.4375C7.5625 7.5 6.875 6.8125 6.875 5.9375V5.3125C6.875 5.125 7 5 7.1875 5C7.375 5 7.5 5.125 7.5 5.3125V5.9375C7.5 6.4375 7.9375 6.875 8.4375 6.875H12.8125C13 6.875 13.125 7 13.125 7.1875C13.125 7.375 13 7.5 12.8125 7.5ZM16.5625 8.125H16.4375C16.3125 8.0625 16.25 7.9375 16.25 7.8125V6.875H15.9375C15.4375 6.875 15 6.4375 15 5.9375V1.5625C15 1.0625 15.4375 0.625 15.9375 0.625H18.4375C18.9375 0.625 19.375 1.0625 19.375 1.5625V5.9375C19.375 6.4375 18.9375 6.875 18.4375 6.875H17.9375L16.75 8.0625C16.75 8.0625 16.625 8.125 16.5625 8.125ZM15.9375 1.25C15.75 1.25 15.625 1.375 15.625 1.5625V5.9375C15.625 6.125 15.75 6.25 15.9375 6.25H16.5625C16.75 6.25 16.875 6.375 16.875 6.5625V7.0625L17.5625 6.375C17.625 6.3125 17.6875 6.3125 17.8125 6.3125H18.4375C18.625 6.3125 18.75 6.1875 18.75 6V1.625C18.75 1.375 18.625 1.25 18.4375 1.25H15.9375ZM5.3125 6.25C5.25 6.25 5.1875 6.25 5.125 6.1875L3.3125 5H0.9375C0.4375 5 0 4.5625 0 4.0625V1.5625C0 1.0625 0.4375 0.625 0.9375 0.625H5.9375C6.4375 0.625 6.875 1.0625 6.875 1.5625V4.0625C6.875 4.5625 6.4375 5 5.9375 5H5.625V5.9375C5.625 6.0625 5.5625 6.1875 5.4375 6.1875C5.4375 6.25 5.375 6.25 5.3125 6.25ZM0.9375 1.25C0.75 1.25 0.625 1.375 0.625 1.5625V4.0625C0.625 4.25 0.75 4.375 0.9375 4.375H3.4375C3.5 4.375 3.5625 4.375 3.625 4.4375L5 5.375V4.6875C5 4.5 5.125 4.375 5.3125 4.375H5.9375C6.125 4.375 6.25 4.25 6.25 4.0625V1.5625C6.25 1.375 6.125 1.25 5.9375 1.25H0.9375Z" fill="#004463"/>
<path d="M11.1875 13.0625C11.0625 13.0625 10.875 12.9375 10.875 12.8125C10.875 12.625 11 12.5 11.125 12.4375C11.875 12.375 12.5625 12.1875 13.25 12L13.6875 11.875V6.875C13.6875 4.4375 11.75 2.5 9.3125 2.5C8.4375 2.5 7.5625 2.75 6.8125 3.3125V4.0625C6.875 4.5625 6.4375 5 5.9375 5H5.625V5.9375C5.625 6.0625 5.5625 6.1875 5.4375 6.1875C5.375 6.25 5.25 6.25 5.125 6.1875L5.0625 6.125C5 6.375 5 6.625 5 6.875V11.9375L5.4375 12.0625C6.125 12.25 6.875 12.375 7.5625 12.5C7.75 12.5 7.875 12.6875 7.8125 12.875C7.8125 13.0625 7.625 13.1875 7.4375 13.125C6.6875 13.0625 5.9375 12.875 5.1875 12.6875L4.625 12.5C4.5 12.4375 4.375 12.3125 4.375 12.1875V6.875C4.375 6.4375 4.4375 6 4.5625 5.5625C4.5625 5.4375 4.6875 5.375 4.75 5.375H5V4.6875C5 4.5 5.125 4.375 5.3125 4.375H5.9375C6.125 4.375 6.25 4.25 6.25 4.0625V3.125C6.25 3 6.3125 2.9375 6.375 2.875C7.25 2.25 8.3125 1.875 9.375 1.875C12.125 1.875 14.375 4.125 14.375 6.875V12.1875C14.375 12.3125 14.25 12.4375 14.125 12.5L13.4375 12.6875C12.75 12.8125 12 13 11.1875 13.0625C11.25 13.0625 11.25 13.0625 11.1875 13.0625ZM19.0625 14.375H15.9375C15.4375 14.375 15 13.9375 15 13.4375V10.9375C15 10.4375 15.4375 10 15.9375 10H16.25V9.0625C16.25 8.9375 16.3125 8.8125 16.4375 8.8125C16.5625 8.75 16.6875 8.75 16.75 8.8125L18.5625 10H19.0625C19.5625 10 20 10.4375 20 10.9375V13.4375C20 13.9375 19.5625 14.375 19.0625 14.375ZM15.9375 10.625C15.75 10.625 15.625 10.75 15.625 10.9375V13.4375C15.625 13.625 15.75 13.75 15.9375 13.75H19.0625C19.25 13.75 19.375 13.625 19.375 13.4375V10.9375C19.375 10.75 19.25 10.625 19.0625 10.625H18.4375C18.375 10.625 18.3125 10.625 18.25 10.5625L16.875 9.625V10.3125C16.875 10.5 16.75 10.625 16.5625 10.625H15.9375ZM17.1875 4.375C17 4.375 16.875 4.25 16.875 4.0625V3.875C16.875 3.5 17.0625 3.25 17.3125 3.0625C17.4375 3.0625 17.5 2.9375 17.5 2.8125C17.5 2.625 17.375 2.5 17.1875 2.5C17 2.5 16.875 2.625 16.875 2.8125C16.875 3 16.75 3.125 16.5625 3.125C16.375 3.125 16.25 3 16.25 2.8125C16.25 2.3125 16.6875 1.875 17.1875 1.875C17.6875 1.875 18.125 2.3125 18.125 2.8125C18.125 3.1875 17.9375 3.5 17.625 3.625C17.5625 3.6875 17.5 3.75 17.5 3.875V4.0625C17.5 4.25 17.375 4.375 17.1875 4.375ZM17.1875 5.625C17 5.625 16.875 5.5 16.875 5.3125C16.875 5.125 17 5 17.1875 5C17.375 5 17.5 5.125 17.5 5.3125C17.5 5.5 17.375 5.625 17.1875 5.625Z" fill="#004463"/>
</g>
<defs>
<clipPath id="clip0_49_169">
<rect width="20" height="20" fill="white"/>
</clipPath>
</defs>
</svg>
