<svg width="25" height="25" viewBox="0 0 25 25" fill="none" xmlns="http://www.w3.org/2000/svg" color="#1C5579">
<path fill-rule="evenodd" clip-rule="evenodd" d="M4.6151 6.78065C4.8959 6.45305 5.3891 6.4151 5.7167 6.69591L12.4999 12.5101L19.2831 6.69591C19.6108 6.4151 20.104 6.45305 20.3848 6.78065C20.6655 7.10824 20.6276 7.60145 20.3 7.88225L13.0084 14.1323C12.7158 14.383 12.2841 14.383 11.9915 14.1323L4.69984 7.88225C4.37224 7.60145 4.33429 7.10824 4.6151 6.78065ZM4.6151 10.9473C4.8959 10.6197 5.3891 10.5818 5.7167 10.8626L12.4999 16.6768L19.2831 10.8626C19.6108 10.5818 20.104 10.6197 20.3848 10.9473C20.6655 11.2749 20.6276 11.7681 20.3 12.049L13.0084 18.299C12.7158 18.5497 12.2841 18.5497 11.9915 18.299L4.69984 12.049C4.37224 11.7681 4.33429 11.2749 4.6151 10.9473Z" fill="currentColor"/>
</svg>
