<svg width="16" height="13" viewBox="0 0 16 13" fill="none" xmlns="http://www.w3.org/2000/svg">
<path d="M11.3434 3.83864H15.706L7.85339 13L11.3434 3.83864Z" fill="#F0C9AE"/>
<path d="M4.36255 3.83864H0L7.85259 13L4.36255 3.83864Z" fill="#F0C9AE"/>
<path d="M7.85271 13L4.36267 3.83864H11.3427L7.85271 13Z" fill="#F0C9AE"/>
<path d="M5.67131 -2.86102e-05H3.05378L0 3.92627H4.36255L5.67131 -2.86102e-05Z" fill="#F0C9AE"/>
<path d="M15.7054 3.92627L12.6516 -2.86102e-05H10.0341L11.3428 3.92627H15.7054Z" fill="#F0C9AE"/>
<path d="M5.67144 -2.86102e-05L4.36267 3.92627H11.3427L10.034 -2.86102e-05H5.67144Z" fill="#F0C9AE"/>
<path d="M4.53699 3.83734L7.58357 6.73077C7.73083 6.8775 7.96093 6.8775 8.10819 6.73077L11.1547 3.83733" stroke="#57565D" stroke-width="2" stroke-miterlimit="2.613" stroke-linecap="round" stroke-linejoin="round"/>
</svg>
