<svg width="146" height="137" viewBox="0 0 146 137" fill="none" xmlns="http://www.w3.org/2000/svg">
<g filter="url(#filter0_d_241_152)">
<path d="M101 122.5C101 122.751 101.24 122.932 101.481 122.864L117.361 118.371C119.514 117.762 121 115.797 121 113.56V102.392C121 102.176 120.824 102 120.608 102H106C103.239 102 101 104.239 101 107V122.5Z" fill="#9FB7E8"/>
</g>
<g filter="url(#filter1_d_241_152)">
<path d="M74.3944 134.595C73.4836 134.86 72.5164 134.86 71.6056 134.595L53.6056 129.368C51.4695 128.747 50 126.79 50 124.566V111C50 110.448 50.4478 110 51.0002 110V110H95.1675V110C95.6273 110 96 110.373 96 110.833V124.566C96 126.79 94.5305 128.747 92.3944 129.368L74.3944 134.595Z" fill="#A0B9E7"/>
</g>
<path d="M74.2906 132.655C73.445 132.881 72.555 132.881 71.7094 132.655L53.7094 127.846C51.5218 127.262 50 125.28 50 123.015V111C50 110.448 50.4478 110 51.0002 110V110H95.1675V110C95.6273 110 96 110.373 96 110.833V123.015C96 125.28 94.4782 127.262 92.2906 127.846L74.2906 132.655Z" fill="url(#paint0_linear_241_152)"/>
<path d="M101 121.5C101 121.751 101.24 121.932 101.481 121.864L117.361 117.371C119.514 116.762 121 114.797 121 112.56V101.392C121 101.176 120.824 101 120.608 101V101H106C103.239 101 101 103.239 101 106V121.5V121.5Z" fill="url(#paint1_linear_241_152)"/>
<g filter="url(#filter2_d_241_152)">
<path d="M45 122.5C45 122.751 44.7602 122.932 44.5189 122.864L28.6388 118.371C26.4861 117.762 25 115.797 25 113.56V102.392C25 102.176 25.1756 102 25.3922 102V102L40 102C42.7614 102 45 104.239 45 107V122.5V122.5Z" fill="#9FB7E8"/>
</g>
<path d="M45 121.5C45 121.751 44.7602 121.932 44.5189 121.864L28.6388 117.371C26.4861 116.762 25 114.797 25 112.56V101.392C25 101.176 25.1756 101 25.3922 101V101L40 101C42.7614 101 45 103.239 45 106V121.5V121.5Z" fill="url(#paint2_linear_241_152)"/>
<g filter="url(#filter3_d_241_152)">
<path d="M142.71 65.3085C143.668 65.8954 143.955 67.1563 143.333 68.0911C135.011 80.5902 124.953 91.5009 114.057 99.8351C107.051 105.194 99.8454 109.375 92.7131 112.25C90.5723 113.113 89.2842 110.102 91.0979 108.674C97.2593 103.824 103.057 97.7171 108.094 90.7059C115.593 80.2675 120.991 68.3996 123.556 56.7875C123.859 55.414 125.425 54.7149 126.624 55.4499L142.71 65.3085Z" fill="url(#paint3_linear_241_152)"/>
<path d="M142.58 65.5217C143.418 66.0356 143.668 67.1377 143.125 67.9525C134.816 80.4309 124.777 91.3207 113.905 99.6365C106.914 104.984 99.7285 109.153 92.6197 112.018C92.1433 112.21 91.7338 112.181 91.4081 112.03C91.0778 111.876 90.8122 111.585 90.6513 111.22C90.3287 110.488 90.446 109.505 91.2525 108.871C97.4337 104.005 103.247 97.8805 108.297 90.8517C115.814 80.3879 121.228 68.489 123.8 56.8414C124.067 55.6287 125.446 55.0215 126.493 55.6631L142.58 65.5217Z" stroke="white" stroke-width="0.5"/>
</g>
<g filter="url(#filter4_d_241_152)">
<path d="M137.908 82.863C138.788 83.5645 138.917 84.8546 138.176 85.7011C130.43 94.5504 121.358 101.884 111.752 107.05C106.201 110.036 100.575 112.241 95.0401 113.622C92.8041 114.179 91.9683 110.919 93.9317 109.713C98.6692 106.802 103.198 103.097 107.282 98.7508C114.097 91.4976 119.308 82.8472 122.239 73.9783C122.69 72.6131 124.37 72.067 125.494 72.9634L137.908 82.863Z" fill="url(#paint4_linear_241_152)"/>
<path d="M137.752 83.0585C138.523 83.6731 138.633 84.7996 137.988 85.5364C130.26 94.365 121.211 101.679 111.634 106.83C106.099 109.807 100.492 112.004 94.9796 113.379C94.4846 113.503 94.0871 113.412 93.788 113.209C93.4838 113.002 93.2612 112.665 93.1524 112.263C92.9337 111.457 93.1897 110.462 94.0626 109.926C98.8199 107.003 103.366 103.284 107.464 98.922C114.303 91.6439 119.533 82.9622 122.477 74.0567C122.876 72.8473 124.358 72.3772 125.338 73.1589L137.752 83.0585Z" stroke="white" stroke-width="0.5"/>
</g>
<g filter="url(#filter5_d_241_152)">
<path d="M128.487 98.8736C129.136 99.7905 128.904 101.064 127.959 101.672C119.259 107.26 109.884 111.342 100.643 113.556C95.9816 114.672 91.43 115.295 87.085 115.423C84.7796 115.491 84.7303 112.187 86.9182 111.457C91.0433 110.08 95.1763 108.173 99.1573 105.785C106.628 101.304 113.166 95.3702 117.933 88.7833C118.765 87.6346 120.499 87.5971 121.318 88.7542L128.487 98.8736Z" fill="url(#paint5_linear_241_152)"/>
<path d="M128.283 99.0181C128.852 99.8216 128.646 100.933 127.824 101.461C119.146 107.036 109.796 111.106 100.584 113.313C95.9386 114.425 91.4041 115.046 87.0776 115.173C86.5656 115.188 86.2014 115.018 85.9603 114.763C85.7151 114.503 85.5785 114.136 85.5665 113.732C85.5423 112.919 86.021 112.02 86.9973 111.694C91.1405 110.312 95.2899 108.396 99.2859 105.999C106.783 101.502 113.348 95.5458 118.136 88.9299C118.873 87.9115 120.4 87.8898 121.114 88.8987L128.283 99.0181Z" stroke="white" stroke-width="0.5"/>
</g>
<g filter="url(#filter6_d_241_152)">
<path d="M3.74908 65.3138C2.78975 65.8977 2.50297 67.1549 3.12848 68.088C11.5086 80.5884 21.6365 91.5002 32.6079 99.8351C39.6784 105.206 46.9499 109.394 54.147 112.27C56.2966 113.128 57.5799 110.123 55.7572 108.699C49.5414 103.845 43.6923 97.7293 38.6121 90.7059C31.0611 80.2665 25.6248 68.3974 23.0433 56.7843C22.7384 55.4129 21.1666 54.7122 19.9642 55.444L3.74908 65.3138Z" fill="url(#paint6_linear_241_152)"/>
<path d="M3.88037 65.5265C3.04018 66.0379 2.79165 67.1367 3.33693 67.9501C11.7031 80.4298 21.8124 91.3206 32.7597 99.6371C39.8146 104.997 47.0664 109.172 54.2399 112.038C54.7182 112.229 55.1288 112.2 55.4551 112.048C55.786 111.894 56.0516 111.604 56.212 111.24C56.5336 110.509 56.4131 109.528 55.6027 108.895C49.3669 104.025 43.5017 97.8921 38.4088 90.8511C30.8393 80.3862 25.3879 68.4862 22.7985 56.8375C22.5294 55.6267 21.145 55.018 20.0955 55.6568L3.88037 65.5265Z" stroke="white" stroke-width="0.5"/>
</g>
<g filter="url(#filter7_d_241_152)">
<path d="M8.58606 82.8683C7.70411 83.5669 7.57516 84.8527 8.31925 85.697C16.1196 94.5481 25.2548 101.883 34.9283 107.05C40.5336 110.044 46.2144 112.254 51.8021 113.633C54.0466 114.187 54.8797 110.936 52.9075 109.735C48.1244 106.82 43.5519 103.108 39.4294 98.7508C32.5654 91.4958 27.3182 82.8429 24.3671 73.9717C23.9141 72.6099 22.2281 72.0636 21.1006 72.9566L8.58606 82.8683Z" fill="url(#paint7_linear_241_152)"/>
<path d="M8.74258 83.0633C7.96984 83.6753 7.86019 84.7981 8.50785 85.533C16.29 94.3635 25.4019 101.679 35.0468 106.831C40.6353 109.816 46.2966 112.017 51.8622 113.391C52.3591 113.514 52.7578 113.424 53.0576 113.221C53.3625 113.014 53.5854 112.677 53.6939 112.277C53.9119 111.473 53.6533 110.481 52.7766 109.947C47.9735 107.021 43.3838 103.294 39.2468 98.9214C32.3592 91.6414 27.0922 82.9573 24.129 74.0496C23.7276 72.8431 22.2404 72.3729 21.2572 73.1516L8.74258 83.0633Z" stroke="white" stroke-width="0.5"/>
</g>
<g filter="url(#filter8_d_241_152)">
<path d="M18.076 98.8775C17.4235 99.7923 17.6549 101.062 18.6025 101.667C27.364 107.258 36.8062 111.342 46.1143 113.556C50.8238 114.676 55.4222 115.299 59.8109 115.424C62.1234 115.49 62.1782 112.199 59.9842 111.474C55.8138 110.096 51.6347 108.182 47.6098 105.785C40.0835 101.301 33.4964 95.3628 28.6958 88.771C27.8631 87.6275 26.1249 87.5927 25.3019 88.7466L18.076 98.8775Z" fill="url(#paint8_linear_241_152)"/>
<path d="M18.2805 99.0213C17.7087 99.823 17.9138 100.931 18.7383 101.457C27.4783 107.034 36.8948 111.106 46.1732 113.313C50.8673 114.43 55.4486 115.051 59.8187 115.175C60.3323 115.19 60.698 115.02 60.9402 114.765C61.1866 114.507 61.3242 114.141 61.3369 113.738C61.3624 112.929 60.8837 112.034 59.9047 111.71C55.7161 110.327 51.5204 108.405 47.4806 105.998C39.9271 101.499 33.3142 95.5381 28.4926 88.9174C27.7544 87.9038 26.224 87.8843 25.5064 88.8904L18.2805 99.0213Z" stroke="white" stroke-width="0.5"/>
</g>
<path d="M56 8C55.7791 8.05166 55.8738 8.11127 55.6306 8.11127C55.447 8.11127 55.1737 8.0298 55 8L49 18.6995L56.8714 25L62.7749 16.2715L56 8ZM91 8C90.8263 8.0298 90.5555 8.11127 90.3719 8.11127C90.1287 8.11127 90.2209 8.05166 90 8L83.2276 16.2715L89.1311 25L97 18.6995L91 8Z" fill="url(#paint9_linear_241_152)"/>
<path d="M101.853 14.2031L88.9028 24.4321L74.2062 3C73.8269 3.10629 73.4257 3.17393 73 3.17393C72.5743 3.17393 72.1731 3.10629 71.7938 3L57.0972 24.4321L44.1474 14.2031C43.8264 14.4401 43.4297 14.6038 43 14.6765L48.8603 33L73 31L95.8347 33L103 14.6765C102.57 14.6038 102.174 14.4401 101.853 14.2031Z" fill="#C5FAD5"/>
<g filter="url(#filter9_d_241_152)">
<mask id="path-21-outside-1_241_152" maskUnits="userSpaceOnUse" x="27" y="25" width="92" height="92" fill="black">
<rect fill="white" x="27" y="25" width="92" height="92"/>
<path d="M118 71C118 95.8528 97.8528 116 73 116C48.1472 116 28 95.8528 28 71C28 46.1472 48.1472 26 73 26C97.8528 26 118 46.1472 118 71ZM33.3969 71C33.3969 92.8722 51.1278 110.603 73 110.603C94.8722 110.603 112.603 92.8722 112.603 71C112.603 49.1278 94.8722 31.3969 73 31.3969C51.1278 31.3969 33.3969 49.1278 33.3969 71Z"/>
</mask>
<path d="M118 71C118 95.8528 97.8528 116 73 116C48.1472 116 28 95.8528 28 71C28 46.1472 48.1472 26 73 26C97.8528 26 118 46.1472 118 71ZM33.3969 71C33.3969 92.8722 51.1278 110.603 73 110.603C94.8722 110.603 112.603 92.8722 112.603 71C112.603 49.1278 94.8722 31.3969 73 31.3969C51.1278 31.3969 33.3969 49.1278 33.3969 71Z" fill="url(#paint10_linear_241_152)"/>
<path d="M118 71C118 95.8528 97.8528 116 73 116C48.1472 116 28 95.8528 28 71C28 46.1472 48.1472 26 73 26C97.8528 26 118 46.1472 118 71ZM33.3969 71C33.3969 92.8722 51.1278 110.603 73 110.603C94.8722 110.603 112.603 92.8722 112.603 71C112.603 49.1278 94.8722 31.3969 73 31.3969C51.1278 31.3969 33.3969 49.1278 33.3969 71Z" stroke="white" mask="url(#path-21-outside-1_241_152)"/>
</g>
<g filter="url(#filter10_d_241_152)">
<path d="M73.407 107.477C73.5197 106.119 74.5337 105.007 75.8758 104.771L78.8779 104.241C80.22 104.005 81.553 104.702 82.1234 105.94L86.538 115.519C87.3613 117.305 86.2715 119.388 84.3344 119.729L76.0455 121.191C74.1084 121.532 72.3722 119.948 72.5348 117.988L73.407 107.477Z" fill="url(#paint11_linear_241_152)"/>
</g>
<g filter="url(#filter11_d_241_152)">
<path d="M63.7433 105.94C64.3138 104.703 65.6468 104.005 66.9889 104.241L69.9909 104.771C71.333 105.007 72.347 106.119 72.4597 107.477L73.3319 117.988C73.4946 119.949 71.7584 121.532 69.8212 121.191L61.5323 119.729C59.5952 119.388 58.5054 117.306 59.3287 115.519L63.7433 105.94Z" fill="url(#paint12_linear_241_152)"/>
</g>
<g filter="url(#filter12_d_241_152)">
<path d="M68.1483 106.237C68.4951 104.919 69.6867 104 71.0495 104H74.9505C76.3133 104 77.5049 104.919 77.8517 106.237L81.0096 118.237C81.5102 120.139 80.0754 122 78.1084 122H67.8916C65.9246 122 64.4898 120.139 64.9904 118.237L68.1483 106.237Z" fill="url(#paint13_linear_241_152)"/>
</g>
<g filter="url(#filter13_d_241_152)">
<path d="M45.5113 38.5657C41.7701 44.902 41.7703 47.0965 45.5123 53.4333C45.5176 53.4438 45.5194 53.4557 45.5176 53.4674C45.5157 53.479 45.5102 53.4897 45.5019 53.498C45.4936 53.5063 45.4829 53.5118 45.4713 53.5137C45.4596 53.5155 45.4477 53.5137 45.4372 53.5084C39.0965 49.7703 36.9019 49.7701 30.5656 53.5113C30.5551 53.5166 30.5432 53.5185 30.5316 53.5166C30.52 53.5148 30.5093 53.5093 30.501 53.501C30.4927 53.4927 30.4872 53.4819 30.4853 53.4703C30.4835 53.4587 30.4853 53.4468 30.4906 53.4363C34.2298 47.098 34.2297 44.9035 30.4896 38.5647C30.4843 38.5542 30.4825 38.5423 30.4843 38.5307C30.4862 38.5191 30.4917 38.5083 30.5 38.5C30.5083 38.4917 30.519 38.4862 30.5306 38.4844C30.5422 38.4825 30.5541 38.4844 30.5646 38.4897C36.9034 42.2297 39.098 42.2299 45.4363 38.4906C45.4468 38.4853 45.4587 38.4835 45.4703 38.4854C45.4819 38.4872 45.4926 38.4927 45.5009 38.501C45.5092 38.5093 45.5147 38.5201 45.5166 38.5317C45.5184 38.5433 45.5166 38.5552 45.5113 38.5657Z" fill="white"/>
<path d="M42.4556 45.9993C42.4557 48.0545 43.2967 50.0905 44.9236 52.9201C42.0923 51.2948 40.0553 50.4548 37.9997 50.4551C35.9442 50.4555 33.9084 51.2961 31.0792 52.9226C32.7048 50.0925 33.545 48.0562 33.5448 46.0007C33.5447 43.9451 32.7042 41.9086 31.0781 39.0781C33.9086 40.7042 35.945 41.5447 38.0006 41.5449C40.0561 41.545 42.0924 40.7048 44.9225 39.0792C43.2961 41.9084 42.4554 43.9442 42.4556 45.9993Z" stroke="#F3F3F3" stroke-width="0.5"/>
</g>
<g filter="url(#filter14_d_241_152)">
<path d="M49.9584 46.3461C42.2323 48.3357 40.5499 50.0184 38.5605 57.7455C38.5566 57.7576 38.5489 57.7681 38.5385 57.7756C38.5282 57.7831 38.5158 57.7871 38.503 57.7871C38.4903 57.7871 38.4779 57.7831 38.4675 57.7756C38.4572 57.7681 38.4495 57.7576 38.4455 57.7455C36.4501 50.0184 34.7677 48.3357 27.0416 46.3461C27.0295 46.3422 27.019 46.3345 27.0115 46.3241C27.004 46.3138 27 46.3014 27 46.2886C27 46.2759 27.004 46.2634 27.0115 46.2531C27.019 46.2428 27.0295 46.2351 27.0416 46.2311C34.7677 44.2385 36.4501 42.5559 38.4425 34.8288C38.4465 34.8166 38.4542 34.8061 38.4645 34.7986C38.4748 34.7911 38.4873 34.7871 38.5 34.7871C38.5128 34.7871 38.5252 34.7911 38.5355 34.7986C38.5458 34.8061 38.5535 34.8166 38.5575 34.8288C40.5499 42.5559 42.2323 44.2385 49.9584 46.2311C49.9705 46.2351 49.981 46.2428 49.9885 46.2531C49.996 46.2634 50 46.2759 50 46.2886C50 46.3014 49.996 46.3138 49.9885 46.3241C49.981 46.3345 49.9705 46.3422 49.9584 46.3461Z" fill="white"/>
<path d="M41.931 42.8571C43.5143 44.4406 45.7357 45.3583 49.1942 46.2885C45.7357 47.2173 43.5143 48.1343 41.9314 49.7175C40.3484 51.3007 39.4315 53.5224 38.5028 56.9816C37.5713 53.5224 36.653 51.3006 35.0693 49.7174C33.4857 48.1343 31.2643 47.2174 27.8058 46.2885C31.2643 45.3583 33.4857 44.4406 35.069 42.8571C36.6523 41.2736 37.5699 39.0518 38.5 35.5926C39.4301 39.0518 40.3477 41.2736 41.931 42.8571Z" stroke="#F3F3F3" stroke-width="0.5"/>
</g>
<path d="M102.5 16C103.328 16 104 15.3284 104 14.5C104 13.6716 103.328 13 102.5 13C101.672 13 101 13.6716 101 14.5C101 15.3284 101.672 16 102.5 16Z" fill="#C5FAD5"/>
<path d="M43.5 16C44.3284 16 45 15.3284 45 14.5C45 13.6716 44.3284 13 43.5 13C42.6716 13 42 13.6716 42 14.5C42 15.3284 42.6716 16 43.5 16Z" fill="#C5FAD5"/>
<path d="M73 4C74.1046 4 75 3.10457 75 2C75 0.895431 74.1046 0 73 0C71.8954 0 71 0.895431 71 2C71 3.10457 71.8954 4 73 4Z" fill="#C5FAD5"/>
<path d="M90.5 9C91.3284 9 92 8.32843 92 7.5C92 6.67157 91.3284 6 90.5 6C89.6716 6 89 6.67157 89 7.5C89 8.32843 89.6716 9 90.5 9Z" fill="#C2F6D7"/>
<path d="M55.5 9C56.3284 9 57 8.32843 57 7.5C57 6.67157 56.3284 6 55.5 6C54.6716 6 54 6.67157 54 7.5C54 8.32843 54.6716 9 55.5 9Z" fill="#C2F6D7"/>
<defs>
<filter id="filter0_d_241_152" x="100" y="102" width="22" height="22.8784" filterUnits="userSpaceOnUse" color-interpolation-filters="sRGB">
<feFlood flood-opacity="0" result="BackgroundImageFix"/>
<feColorMatrix in="SourceAlpha" type="matrix" values="0 0 0 0 0 0 0 0 0 0 0 0 0 0 0 0 0 0 127 0" result="hardAlpha"/>
<feOffset dy="1"/>
<feGaussianBlur stdDeviation="0.5"/>
<feComposite in2="hardAlpha" operator="out"/>
<feColorMatrix type="matrix" values="0 0 0 0 0 0 0 0 0 0 0 0 0 0 0 0 0 0 0.25 0"/>
<feBlend mode="normal" in2="BackgroundImageFix" result="effect1_dropShadow_241_152"/>
<feBlend mode="normal" in="SourceGraphic" in2="effect1_dropShadow_241_152" result="shape"/>
</filter>
<filter id="filter1_d_241_152" x="49" y="110" width="48" height="26.7935" filterUnits="userSpaceOnUse" color-interpolation-filters="sRGB">
<feFlood flood-opacity="0" result="BackgroundImageFix"/>
<feColorMatrix in="SourceAlpha" type="matrix" values="0 0 0 0 0 0 0 0 0 0 0 0 0 0 0 0 0 0 127 0" result="hardAlpha"/>
<feOffset dy="1"/>
<feGaussianBlur stdDeviation="0.5"/>
<feComposite in2="hardAlpha" operator="out"/>
<feColorMatrix type="matrix" values="0 0 0 0 0 0 0 0 0 0 0 0 0 0 0 0 0 0 0.25 0"/>
<feBlend mode="normal" in2="BackgroundImageFix" result="effect1_dropShadow_241_152"/>
<feBlend mode="normal" in="SourceGraphic" in2="effect1_dropShadow_241_152" result="shape"/>
</filter>
<filter id="filter2_d_241_152" x="24" y="102" width="22" height="22.8784" filterUnits="userSpaceOnUse" color-interpolation-filters="sRGB">
<feFlood flood-opacity="0" result="BackgroundImageFix"/>
<feColorMatrix in="SourceAlpha" type="matrix" values="0 0 0 0 0 0 0 0 0 0 0 0 0 0 0 0 0 0 127 0" result="hardAlpha"/>
<feOffset dy="1"/>
<feGaussianBlur stdDeviation="0.5"/>
<feComposite in2="hardAlpha" operator="out"/>
<feColorMatrix type="matrix" values="0 0 0 0 0 0 0 0 0 0 0 0 0 0 0 0 0 0 0.25 0"/>
<feBlend mode="normal" in2="BackgroundImageFix" result="effect1_dropShadow_241_152"/>
<feBlend mode="normal" in="SourceGraphic" in2="effect1_dropShadow_241_152" result="shape"/>
</filter>
<filter id="filter3_d_241_152" x="88.2349" y="55.1533" width="57.4277" height="61.2495" filterUnits="userSpaceOnUse" color-interpolation-filters="sRGB">
<feFlood flood-opacity="0" result="BackgroundImageFix"/>
<feColorMatrix in="SourceAlpha" type="matrix" values="0 0 0 0 0 0 0 0 0 0 0 0 0 0 0 0 0 0 127 0" result="hardAlpha"/>
<feOffset dy="2"/>
<feGaussianBlur stdDeviation="1"/>
<feComposite in2="hardAlpha" operator="out"/>
<feColorMatrix type="matrix" values="0 0 0 0 0 0 0 0 0 0 0 0 0 0 0 0 0 0 0.25 0"/>
<feBlend mode="normal" in2="BackgroundImageFix" result="effect1_dropShadow_241_152"/>
<feBlend mode="normal" in="SourceGraphic" in2="effect1_dropShadow_241_152" result="shape"/>
</filter>
<filter id="filter4_d_241_152" x="90.8289" y="72.5249" width="49.8301" height="45.1602" filterUnits="userSpaceOnUse" color-interpolation-filters="sRGB">
<feFlood flood-opacity="0" result="BackgroundImageFix"/>
<feColorMatrix in="SourceAlpha" type="matrix" values="0 0 0 0 0 0 0 0 0 0 0 0 0 0 0 0 0 0 127 0" result="hardAlpha"/>
<feOffset dy="2"/>
<feGaussianBlur stdDeviation="1"/>
<feComposite in2="hardAlpha" operator="out"/>
<feColorMatrix type="matrix" values="0 0 0 0 0 0 0 0 0 0 0 0 0 0 0 0 0 0 0.25 0"/>
<feBlend mode="normal" in2="BackgroundImageFix" result="effect1_dropShadow_241_152"/>
<feBlend mode="normal" in="SourceGraphic" in2="effect1_dropShadow_241_152" result="shape"/>
</filter>
<filter id="filter5_d_241_152" x="83.3157" y="87.9038" width="47.5388" height="31.52" filterUnits="userSpaceOnUse" color-interpolation-filters="sRGB">
<feFlood flood-opacity="0" result="BackgroundImageFix"/>
<feColorMatrix in="SourceAlpha" type="matrix" values="0 0 0 0 0 0 0 0 0 0 0 0 0 0 0 0 0 0 127 0" result="hardAlpha"/>
<feOffset dy="2"/>
<feGaussianBlur stdDeviation="1"/>
<feComposite in2="hardAlpha" operator="out"/>
<feColorMatrix type="matrix" values="0 0 0 0 0 0 0 0 0 0 0 0 0 0 0 0 0 0 0.25 0"/>
<feBlend mode="normal" in2="BackgroundImageFix" result="effect1_dropShadow_241_152"/>
<feBlend mode="normal" in="SourceGraphic" in2="effect1_dropShadow_241_152" result="shape"/>
</filter>
<filter id="filter6_d_241_152" x="0.796387" y="55.1494" width="57.8311" height="61.272" filterUnits="userSpaceOnUse" color-interpolation-filters="sRGB">
<feFlood flood-opacity="0" result="BackgroundImageFix"/>
<feColorMatrix in="SourceAlpha" type="matrix" values="0 0 0 0 0 0 0 0 0 0 0 0 0 0 0 0 0 0 127 0" result="hardAlpha"/>
<feOffset dy="2"/>
<feGaussianBlur stdDeviation="1"/>
<feComposite in2="hardAlpha" operator="out"/>
<feColorMatrix type="matrix" values="0 0 0 0 0 0 0 0 0 0 0 0 0 0 0 0 0 0 0.25 0"/>
<feBlend mode="normal" in2="BackgroundImageFix" result="effect1_dropShadow_241_152"/>
<feBlend mode="normal" in="SourceGraphic" in2="effect1_dropShadow_241_152" result="shape"/>
</filter>
<filter id="filter7_d_241_152" x="5.83398" y="72.5205" width="50.1836" height="45.1758" filterUnits="userSpaceOnUse" color-interpolation-filters="sRGB">
<feFlood flood-opacity="0" result="BackgroundImageFix"/>
<feColorMatrix in="SourceAlpha" type="matrix" values="0 0 0 0 0 0 0 0 0 0 0 0 0 0 0 0 0 0 127 0" result="hardAlpha"/>
<feOffset dy="2"/>
<feGaussianBlur stdDeviation="1"/>
<feComposite in2="hardAlpha" operator="out"/>
<feColorMatrix type="matrix" values="0 0 0 0 0 0 0 0 0 0 0 0 0 0 0 0 0 0 0.25 0"/>
<feBlend mode="normal" in2="BackgroundImageFix" result="effect1_dropShadow_241_152"/>
<feBlend mode="normal" in="SourceGraphic" in2="effect1_dropShadow_241_152" result="shape"/>
</filter>
<filter id="filter8_d_241_152" x="15.7058" y="87.897" width="47.8828" height="31.5283" filterUnits="userSpaceOnUse" color-interpolation-filters="sRGB">
<feFlood flood-opacity="0" result="BackgroundImageFix"/>
<feColorMatrix in="SourceAlpha" type="matrix" values="0 0 0 0 0 0 0 0 0 0 0 0 0 0 0 0 0 0 127 0" result="hardAlpha"/>
<feOffset dy="2"/>
<feGaussianBlur stdDeviation="1"/>
<feComposite in2="hardAlpha" operator="out"/>
<feColorMatrix type="matrix" values="0 0 0 0 0 0 0 0 0 0 0 0 0 0 0 0 0 0 0.25 0"/>
<feBlend mode="normal" in2="BackgroundImageFix" result="effect1_dropShadow_241_152"/>
<feBlend mode="normal" in="SourceGraphic" in2="effect1_dropShadow_241_152" result="shape"/>
</filter>
<filter id="filter9_d_241_152" x="26.5" y="25.5" width="93" height="93" filterUnits="userSpaceOnUse" color-interpolation-filters="sRGB">
<feFlood flood-opacity="0" result="BackgroundImageFix"/>
<feColorMatrix in="SourceAlpha" type="matrix" values="0 0 0 0 0 0 0 0 0 0 0 0 0 0 0 0 0 0 127 0" result="hardAlpha"/>
<feOffset dy="1"/>
<feGaussianBlur stdDeviation="0.5"/>
<feComposite in2="hardAlpha" operator="out"/>
<feColorMatrix type="matrix" values="0 0 0 0 0 0 0 0 0 0 0 0 0 0 0 0 0 0 0.25 0"/>
<feBlend mode="normal" in2="BackgroundImageFix" result="effect1_dropShadow_241_152"/>
<feBlend mode="normal" in="SourceGraphic" in2="effect1_dropShadow_241_152" result="shape"/>
</filter>
<filter id="filter10_d_241_152" x="71.5242" y="104.196" width="16.2913" height="19.0415" filterUnits="userSpaceOnUse" color-interpolation-filters="sRGB">
<feFlood flood-opacity="0" result="BackgroundImageFix"/>
<feColorMatrix in="SourceAlpha" type="matrix" values="0 0 0 0 0 0 0 0 0 0 0 0 0 0 0 0 0 0 127 0" result="hardAlpha"/>
<feOffset dy="1"/>
<feGaussianBlur stdDeviation="0.5"/>
<feComposite in2="hardAlpha" operator="out"/>
<feColorMatrix type="matrix" values="0 0 0 0 0 0 0 0 0 0 0 0 0 0 0 0 0 0 0.25 0"/>
<feBlend mode="normal" in2="BackgroundImageFix" result="effect1_dropShadow_241_152"/>
<feBlend mode="normal" in="SourceGraphic" in2="effect1_dropShadow_241_152" result="shape"/>
</filter>
<filter id="filter11_d_241_152" x="58.0513" y="104.196" width="16.2913" height="19.0415" filterUnits="userSpaceOnUse" color-interpolation-filters="sRGB">
<feFlood flood-opacity="0" result="BackgroundImageFix"/>
<feColorMatrix in="SourceAlpha" type="matrix" values="0 0 0 0 0 0 0 0 0 0 0 0 0 0 0 0 0 0 127 0" result="hardAlpha"/>
<feOffset dy="1"/>
<feGaussianBlur stdDeviation="0.5"/>
<feComposite in2="hardAlpha" operator="out"/>
<feColorMatrix type="matrix" values="0 0 0 0 0 0 0 0 0 0 0 0 0 0 0 0 0 0 0.25 0"/>
<feBlend mode="normal" in2="BackgroundImageFix" result="effect1_dropShadow_241_152"/>
<feBlend mode="normal" in="SourceGraphic" in2="effect1_dropShadow_241_152" result="shape"/>
</filter>
<filter id="filter12_d_241_152" x="63.8899" y="104" width="18.2202" height="20" filterUnits="userSpaceOnUse" color-interpolation-filters="sRGB">
<feFlood flood-opacity="0" result="BackgroundImageFix"/>
<feColorMatrix in="SourceAlpha" type="matrix" values="0 0 0 0 0 0 0 0 0 0 0 0 0 0 0 0 0 0 127 0" result="hardAlpha"/>
<feOffset dy="1"/>
<feGaussianBlur stdDeviation="0.5"/>
<feComposite in2="hardAlpha" operator="out"/>
<feColorMatrix type="matrix" values="0 0 0 0 0 0 0 0 0 0 0 0 0 0 0 0 0 0 0.25 0"/>
<feBlend mode="normal" in2="BackgroundImageFix" result="effect1_dropShadow_241_152"/>
<feBlend mode="normal" in="SourceGraphic" in2="effect1_dropShadow_241_152" result="shape"/>
</filter>
<filter id="filter13_d_241_152" x="28.4836" y="38.4839" width="19.0347" height="19.0332" filterUnits="userSpaceOnUse" color-interpolation-filters="sRGB">
<feFlood flood-opacity="0" result="BackgroundImageFix"/>
<feColorMatrix in="SourceAlpha" type="matrix" values="0 0 0 0 0 0 0 0 0 0 0 0 0 0 0 0 0 0 127 0" result="hardAlpha"/>
<feOffset dy="2"/>
<feGaussianBlur stdDeviation="1"/>
<feComposite in2="hardAlpha" operator="out"/>
<feColorMatrix type="matrix" values="0 0 0 0 1 0 0 0 0 1 0 0 0 0 1 0 0 0 1 0"/>
<feBlend mode="normal" in2="BackgroundImageFix" result="effect1_dropShadow_241_152"/>
<feBlend mode="normal" in="SourceGraphic" in2="effect1_dropShadow_241_152" result="shape"/>
</filter>
<filter id="filter14_d_241_152" x="25" y="34.7871" width="27" height="27" filterUnits="userSpaceOnUse" color-interpolation-filters="sRGB">
<feFlood flood-opacity="0" result="BackgroundImageFix"/>
<feColorMatrix in="SourceAlpha" type="matrix" values="0 0 0 0 0 0 0 0 0 0 0 0 0 0 0 0 0 0 127 0" result="hardAlpha"/>
<feOffset dy="2"/>
<feGaussianBlur stdDeviation="1"/>
<feComposite in2="hardAlpha" operator="out"/>
<feColorMatrix type="matrix" values="0 0 0 0 1 0 0 0 0 1 0 0 0 0 1 0 0 0 1 0"/>
<feBlend mode="normal" in2="BackgroundImageFix" result="effect1_dropShadow_241_152"/>
<feBlend mode="normal" in="SourceGraphic" in2="effect1_dropShadow_241_152" result="shape"/>
</filter>
<linearGradient id="paint0_linear_241_152" x1="73" y1="133" x2="73" y2="110" gradientUnits="userSpaceOnUse">
<stop stop-color="#C5FBD6"/>
<stop offset="1" stop-color="#A0B9E7"/>
</linearGradient>
<linearGradient id="paint1_linear_241_152" x1="111" y1="121" x2="111" y2="112.429" gradientUnits="userSpaceOnUse">
<stop stop-color="#C5FBD6"/>
<stop offset="1" stop-color="#A0B9E7"/>
</linearGradient>
<linearGradient id="paint2_linear_241_152" x1="35" y1="121" x2="35" y2="112.429" gradientUnits="userSpaceOnUse">
<stop stop-color="#C5FBD6"/>
<stop offset="1" stop-color="#A0B9E7"/>
</linearGradient>
<linearGradient id="paint3_linear_241_152" x1="131.91" y1="58.6893" x2="144.97" y2="80.4565" gradientUnits="userSpaceOnUse">
<stop stop-color="#C6FDD5"/>
<stop offset="1" stop-color="#9FB8E8"/>
</linearGradient>
<linearGradient id="paint4_linear_241_152" x1="129.392" y1="76.0715" x2="137.342" y2="96.3717" gradientUnits="userSpaceOnUse">
<stop stop-color="#C6FDD5"/>
<stop offset="1" stop-color="#9FB8E8"/>
</linearGradient>
<linearGradient id="paint5_linear_241_152" x1="123.457" y1="91.773" x2="125.652" y2="110.03" gradientUnits="userSpaceOnUse">
<stop stop-color="#C6FDD5"/>
<stop offset="1" stop-color="#9FB8E8"/>
</linearGradient>
<linearGradient id="paint6_linear_241_152" x1="14.6326" y1="58.6893" x2="1.29503" y2="79.8393" gradientUnits="userSpaceOnUse">
<stop stop-color="#C5FBD5"/>
<stop offset="1" stop-color="#A0B8E8"/>
</linearGradient>
<linearGradient id="paint7_linear_241_152" x1="17.1678" y1="76.0715" x2="8.84107" y2="95.8968" gradientUnits="userSpaceOnUse">
<stop stop-color="#C5FBD5"/>
<stop offset="1" stop-color="#A0B8E8"/>
</linearGradient>
<linearGradient id="paint8_linear_241_152" x1="23.1433" y1="91.773" x2="20.537" y2="109.679" gradientUnits="userSpaceOnUse">
<stop stop-color="#C5FBD5"/>
<stop offset="1" stop-color="#A0B8E8"/>
</linearGradient>
<linearGradient id="paint9_linear_241_152" x1="73" y1="8" x2="73" y2="25" gradientUnits="userSpaceOnUse">
<stop stop-color="#C4FAD6"/>
<stop offset="1" stop-color="#A1BAE7"/>
</linearGradient>
<linearGradient id="paint10_linear_241_152" x1="73" y1="26" x2="73" y2="116" gradientUnits="userSpaceOnUse">
<stop stop-color="#C6FDD4"/>
<stop offset="1" stop-color="#9DB4E8"/>
</linearGradient>
<linearGradient id="paint11_linear_241_152" x1="77.3768" y1="104.506" x2="80.1899" y2="120.46" gradientUnits="userSpaceOnUse">
<stop stop-color="#C5FCD5"/>
<stop offset="1" stop-color="#A2BCE6"/>
</linearGradient>
<linearGradient id="paint12_linear_241_152" x1="68.4899" y1="104.506" x2="65.6768" y2="120.46" gradientUnits="userSpaceOnUse">
<stop stop-color="#C5FCD5"/>
<stop offset="1" stop-color="#A2BCE6"/>
</linearGradient>
<linearGradient id="paint13_linear_241_152" x1="73" y1="104" x2="73" y2="122" gradientUnits="userSpaceOnUse">
<stop stop-color="#C5FCD5"/>
<stop offset="1" stop-color="#A2BCE6"/>
</linearGradient>
</defs>
</svg>
