<svg width="151" height="149" viewBox="0 0 151 149" fill="none" xmlns="http://www.w3.org/2000/svg">
<g filter="url(#filter0_d_241_157)">
<path d="M103 126.5C103 126.751 103.24 126.932 103.481 126.864L119.361 122.371C121.514 121.762 123 119.797 123 117.56V106.392C123 106.176 122.825 106 122.608 106H108C105.239 106 103 108.239 103 111V126.5Z" fill="#9FB7E8"/>
</g>
<g filter="url(#filter1_d_241_157)">
<path d="M76.3947 138.595C75.4839 138.86 74.5166 138.86 73.6058 138.595L55.6058 133.368C53.4697 132.747 52.0002 130.79 52.0002 128.566V115C52.0002 114.448 52.448 114 53.0004 114H97.1677C97.6275 114 98.0002 114.373 98.0002 114.833V128.566C98.0002 130.79 96.5308 132.747 94.3947 133.368L76.3947 138.595Z" fill="#A0B9E7"/>
</g>
<path d="M76.2909 136.655C75.4453 136.881 74.5552 136.881 73.7096 136.655L55.7096 131.846C53.522 131.262 52.0002 129.28 52.0002 127.015V115C52.0002 114.448 52.448 114 53.0004 114H97.1677C97.6275 114 98.0002 114.373 98.0002 114.833V127.015C98.0002 129.28 96.4785 131.262 94.2909 131.846L76.2909 136.655Z" fill="url(#paint0_linear_241_157)"/>
<path d="M103 125.5C103 125.751 103.24 125.932 103.481 125.864L119.361 121.371C121.514 120.762 123 118.797 123 116.56V105.392C123 105.176 122.825 105 122.608 105H108C105.239 105 103 107.239 103 110V125.5Z" fill="url(#paint1_linear_241_157)"/>
<g filter="url(#filter2_d_241_157)">
<path d="M47.0002 126.5C47.0002 126.751 46.7605 126.932 46.5191 126.864L30.6391 122.371C28.4864 121.762 27.0002 119.797 27.0002 117.56V106.392C27.0002 106.176 27.1758 106 27.3924 106L42.0002 106C44.7617 106 47.0002 108.239 47.0002 111V126.5Z" fill="#9FB7E8"/>
</g>
<path d="M47.0002 125.5C47.0002 125.751 46.7605 125.932 46.5191 125.864L30.6391 121.371C28.4864 120.762 27.0002 118.797 27.0002 116.56V105.392C27.0002 105.176 27.1758 105 27.3924 105L42.0002 105C44.7617 105 47.0002 107.239 47.0002 110V125.5Z" fill="url(#paint2_linear_241_157)"/>
<g filter="url(#filter3_d_241_157)">
<path d="M144.71 69.3085C145.668 69.8954 145.956 71.1563 145.333 72.0911C137.011 84.5902 126.953 95.5009 116.057 103.835C109.051 109.194 101.846 113.375 94.7134 116.25C92.5726 117.113 91.2844 114.102 93.0981 112.674C99.2595 107.824 105.057 101.717 110.094 94.7059C117.593 84.2675 122.992 72.3996 125.556 60.7875C125.859 59.414 127.425 58.7149 128.624 59.4499L144.71 69.3085Z" fill="url(#paint3_linear_241_157)"/>
<path d="M144.58 69.5217C145.418 70.0356 145.668 71.1377 145.125 71.9525C136.817 84.4309 126.777 95.3207 115.905 103.637C108.914 108.984 101.729 113.153 94.6199 116.018C94.1436 116.21 93.734 116.181 93.4083 116.03C93.078 115.876 92.8125 115.585 92.6516 115.22C92.3289 114.488 92.4462 113.505 93.2527 112.871C99.434 108.005 105.248 101.881 110.297 94.8517C117.814 84.3879 123.228 72.489 125.8 60.8414C126.068 59.6287 127.447 59.0215 128.494 59.6631L144.58 69.5217Z" stroke="white" stroke-width="0.5"/>
</g>
<g filter="url(#filter4_d_241_157)">
<path d="M139.908 86.863C140.788 87.5645 140.917 88.8546 140.176 89.7011C132.43 98.5504 123.359 105.884 113.753 111.05C108.201 114.036 102.575 116.241 97.0403 117.622C94.8043 118.179 93.9685 114.919 95.932 113.713C100.669 110.802 105.198 107.097 109.282 102.751C116.098 95.4976 121.308 86.8472 124.239 77.9783C124.691 76.6131 126.37 76.067 127.494 76.9634L139.908 86.863Z" fill="url(#paint4_linear_241_157)"/>
<path d="M139.752 87.0585C140.523 87.6731 140.633 88.7996 139.988 89.5364C132.26 98.365 123.212 105.679 113.634 110.83C108.099 113.807 102.493 116.004 96.9799 117.379C96.4849 117.503 96.0873 117.412 95.7882 117.209C95.484 117.002 95.2614 116.665 95.1526 116.263C94.934 115.457 95.19 114.462 96.0629 113.926C100.82 111.003 105.366 107.284 109.464 102.922C116.303 95.6439 121.533 86.9622 124.477 78.0567C124.877 76.8473 126.358 76.3772 127.338 77.1589L139.752 87.0585Z" stroke="white" stroke-width="0.5"/>
</g>
<g filter="url(#filter5_d_241_157)">
<path d="M130.487 102.874C131.137 103.791 130.904 105.064 129.959 105.672C121.259 111.26 111.885 115.342 102.643 117.556C97.9818 118.672 93.4303 119.295 89.0852 119.423C86.7798 119.491 86.7306 116.187 88.9184 115.457C93.0435 114.08 97.1765 112.173 101.158 109.785C108.628 105.304 115.166 99.3702 119.933 92.7833C120.765 91.6346 122.499 91.5971 123.319 92.7542L130.487 102.874Z" fill="url(#paint5_linear_241_157)"/>
<path d="M130.283 103.018C130.852 103.822 130.646 104.933 129.824 105.461C121.146 111.036 111.797 115.106 102.585 117.313C97.9388 118.425 93.4043 119.046 89.0779 119.173C88.5658 119.188 88.2016 119.018 87.9606 118.763C87.7154 118.503 87.5788 118.136 87.5667 117.732C87.5426 116.919 88.0213 116.02 88.9976 115.694C93.1407 114.312 97.2902 112.396 101.286 109.999C108.784 105.502 115.348 99.5458 120.136 92.9299C120.873 91.9115 122.4 91.8898 123.115 92.8987L130.283 103.018Z" stroke="white" stroke-width="0.5"/>
</g>
<g filter="url(#filter6_d_241_157)">
<path d="M5.74908 69.3138C4.78975 69.8977 4.50297 71.1549 5.12848 72.088C13.5086 84.5884 23.6365 95.5002 34.6079 103.835C41.6784 109.206 48.9499 113.394 56.147 116.27C58.2966 117.128 59.5799 114.123 57.7572 112.699C51.5414 107.845 45.6923 101.729 40.6121 94.7059C33.0611 84.2665 27.6248 72.3974 25.0433 60.7843C24.7384 59.4129 23.1666 58.7122 21.9642 59.444L5.74908 69.3138Z" fill="url(#paint6_linear_241_157)"/>
<path d="M5.88037 69.5265C5.04018 70.0379 4.79165 71.1367 5.33693 71.9501C13.7031 84.4298 23.8124 95.3206 34.7597 103.637C41.8146 108.997 49.0664 113.172 56.2399 116.038C56.7182 116.229 57.1288 116.2 57.4551 116.048C57.786 115.894 58.0516 115.604 58.212 115.24C58.5336 114.509 58.4131 113.528 57.6027 112.895C51.3669 108.025 45.5017 101.892 40.4088 94.8511C32.8393 84.3862 27.3879 72.4862 24.7985 60.8375C24.5294 59.6267 23.145 59.018 22.0955 59.6568L5.88037 69.5265Z" stroke="white" stroke-width="0.5"/>
</g>
<g filter="url(#filter7_d_241_157)">
<path d="M10.5861 86.8683C9.70411 87.5669 9.57516 88.8527 10.3193 89.697C18.1196 98.5481 27.2548 105.883 36.9283 111.05C42.5336 114.044 48.2144 116.254 53.8021 117.633C56.0466 118.187 56.8797 114.936 54.9075 113.735C50.1244 110.82 45.5519 107.108 41.4294 102.751C34.5654 95.4958 29.3182 86.8429 26.3671 77.9717C25.9141 76.6099 24.2281 76.0636 23.1006 76.9566L10.5861 86.8683Z" fill="url(#paint7_linear_241_157)"/>
<path d="M10.7426 87.0633C9.96984 87.6753 9.86019 88.7981 10.5078 89.533C18.29 98.3635 27.4019 105.679 37.0468 110.831C42.6353 113.816 48.2966 116.017 53.8622 117.391C54.3591 117.514 54.7578 117.424 55.0576 117.221C55.3625 117.014 55.5854 116.677 55.6939 116.277C55.9119 115.473 55.6533 114.481 54.7766 113.947C49.9735 111.021 45.3838 107.294 41.2468 102.921C34.3592 95.6414 29.0922 86.9573 26.129 78.0496C25.7276 76.8431 24.2404 76.3729 23.2572 77.1516L10.7426 87.0633Z" stroke="white" stroke-width="0.5"/>
</g>
<g filter="url(#filter8_d_241_157)">
<path d="M20.076 102.877C19.4235 103.792 19.6549 105.062 20.6025 105.667C29.364 111.258 38.8062 115.342 48.1143 117.556C52.8238 118.676 57.4222 119.299 61.8109 119.424C64.1234 119.49 64.1782 116.199 61.9842 115.474C57.8138 114.096 53.6347 112.182 49.6098 109.785C42.0835 105.301 35.4964 99.3628 30.6958 92.771C29.8631 91.6275 28.1249 91.5927 27.3019 92.7466L20.076 102.877Z" fill="url(#paint8_linear_241_157)"/>
<path d="M20.2805 103.021C19.7087 103.823 19.9138 104.931 20.7383 105.457C29.4783 111.034 38.8948 115.106 48.1732 117.313C52.8673 118.43 57.4486 119.051 61.8187 119.175C62.3323 119.19 62.698 119.02 62.9402 118.765C63.1866 118.507 63.3242 118.141 63.3369 117.738C63.3624 116.929 62.8837 116.034 61.9047 115.71C57.7161 114.327 53.5204 112.405 49.4806 109.998C41.9271 105.499 35.3142 99.5381 30.4926 92.9174C29.7544 91.9038 28.224 91.8843 27.5064 92.8904L20.2805 103.021Z" stroke="white" stroke-width="0.5"/>
</g>
<path d="M58 11C57.7791 11.0517 57.8738 11.1113 57.6306 11.1113C57.447 11.1113 57.1737 11.0298 57 11L51 21.6995L58.8714 28L64.7749 19.2715L58 11ZM93 11C92.8263 11.0298 92.5555 11.1113 92.3719 11.1113C92.1287 11.1113 92.2209 11.0517 92 11L85.2276 19.2715L91.1311 28L99 21.6995L93 11Z" fill="url(#paint9_linear_241_157)"/>
<path d="M103.853 17.2031L90.9028 27.4321L76.2062 6C75.8269 6.10629 75.4257 6.17393 75 6.17393C74.5743 6.17393 74.1731 6.10629 73.7938 6L59.0972 27.4321L46.1474 17.2031C45.8264 17.4401 45.4297 17.6038 45 17.6765L50.8603 36L75 34L97.8347 36L105 17.6765C104.57 17.6038 104.174 17.4401 103.853 17.2031Z" fill="#C5FAD5"/>
<g filter="url(#filter9_d_241_157)">
<mask id="path-21-outside-1_241_157" maskUnits="userSpaceOnUse" x="29" y="29" width="92" height="92" fill="black">
<rect fill="white" x="29" y="29" width="92" height="92"/>
<path d="M120 75C120 99.8528 99.8528 120 75 120C50.1472 120 30 99.8528 30 75C30 50.1472 50.1472 30 75 30C99.8528 30 120 50.1472 120 75ZM35.3969 75C35.3969 96.8722 53.1278 114.603 75 114.603C96.8722 114.603 114.603 96.8722 114.603 75C114.603 53.1278 96.8722 35.3969 75 35.3969C53.1278 35.3969 35.3969 53.1278 35.3969 75Z"/>
</mask>
<path d="M120 75C120 99.8528 99.8528 120 75 120C50.1472 120 30 99.8528 30 75C30 50.1472 50.1472 30 75 30C99.8528 30 120 50.1472 120 75ZM35.3969 75C35.3969 96.8722 53.1278 114.603 75 114.603C96.8722 114.603 114.603 96.8722 114.603 75C114.603 53.1278 96.8722 35.3969 75 35.3969C53.1278 35.3969 35.3969 53.1278 35.3969 75Z" fill="url(#paint10_linear_241_157)"/>
<path d="M120 75C120 99.8528 99.8528 120 75 120C50.1472 120 30 99.8528 30 75C30 50.1472 50.1472 30 75 30C99.8528 30 120 50.1472 120 75ZM35.3969 75C35.3969 96.8722 53.1278 114.603 75 114.603C96.8722 114.603 114.603 96.8722 114.603 75C114.603 53.1278 96.8722 35.3969 75 35.3969C53.1278 35.3969 35.3969 53.1278 35.3969 75Z" stroke="white" mask="url(#path-21-outside-1_241_157)"/>
</g>
<g filter="url(#filter10_d_241_157)">
<path d="M75.7071 112.377C75.8198 111.019 76.8338 109.908 78.1759 109.671L81.1779 109.142C82.52 108.905 83.853 109.603 84.4234 110.841L88.8381 120.419C89.6614 122.206 88.5716 124.288 86.6344 124.63L78.3455 126.091C76.4084 126.433 74.6722 124.849 74.8349 122.889L75.7071 112.377Z" fill="url(#paint11_linear_241_157)"/>
</g>
<g filter="url(#filter11_d_241_157)">
<path d="M66.0434 110.841C66.6138 109.603 67.9468 108.905 69.2889 109.142L72.291 109.671C73.6331 109.908 74.647 111.019 74.7597 112.378L75.632 122.889C75.7946 124.849 74.0584 126.433 72.1213 126.091L63.8324 124.63C61.8952 124.288 60.8054 122.206 61.6288 120.42L66.0434 110.841Z" fill="url(#paint12_linear_241_157)"/>
</g>
<g filter="url(#filter12_d_241_157)">
<path d="M70.4483 111.137C70.7952 109.819 71.9867 108.9 73.3496 108.9H77.2505C78.6134 108.9 79.8049 109.819 80.1518 111.137L83.3097 123.137C83.8103 125.039 82.3755 126.9 80.4084 126.9H70.1917C68.2246 126.9 66.7898 125.039 67.2904 123.137L70.4483 111.137Z" fill="url(#paint13_linear_241_157)"/>
</g>
<g filter="url(#filter13_d_241_157)">
<path d="M48.5113 39.5657C44.7701 45.902 44.7703 48.0965 48.5123 54.4333C48.5176 54.4438 48.5194 54.4557 48.5176 54.4674C48.5157 54.479 48.5102 54.4897 48.5019 54.498C48.4936 54.5063 48.4829 54.5118 48.4713 54.5137C48.4596 54.5155 48.4477 54.5137 48.4372 54.5084C42.0965 50.7703 39.9019 50.7701 33.5656 54.5113C33.5551 54.5166 33.5432 54.5185 33.5316 54.5166C33.52 54.5148 33.5093 54.5093 33.501 54.501C33.4927 54.4927 33.4872 54.4819 33.4853 54.4703C33.4835 54.4587 33.4853 54.4468 33.4906 54.4363C37.2298 48.098 37.2297 45.9035 33.4896 39.5647C33.4843 39.5542 33.4825 39.5423 33.4843 39.5307C33.4862 39.5191 33.4917 39.5083 33.5 39.5C33.5083 39.4917 33.519 39.4862 33.5306 39.4844C33.5422 39.4825 33.5541 39.4844 33.5646 39.4897C39.9034 43.2297 42.098 43.2299 48.4363 39.4906C48.4468 39.4853 48.4587 39.4835 48.4703 39.4854C48.4819 39.4872 48.4926 39.4927 48.5009 39.501C48.5092 39.5093 48.5147 39.5201 48.5166 39.5317C48.5184 39.5433 48.5166 39.5552 48.5113 39.5657Z" fill="white"/>
<path d="M45.4556 46.9993C45.4557 49.0545 46.2967 51.0905 47.9236 53.9201C45.0923 52.2948 43.0553 51.4548 40.9997 51.4551C38.9442 51.4555 36.9084 52.2961 34.0792 53.9226C35.7048 51.0925 36.545 49.0562 36.5448 47.0007C36.5447 44.9451 35.7042 42.9086 34.0781 40.0781C36.9086 41.7042 38.945 42.5447 41.0006 42.5449C43.0561 42.545 45.0924 41.7048 47.9225 40.0792C46.2961 42.9084 45.4554 44.9442 45.4556 46.9993Z" stroke="#F3F3F3" stroke-width="0.5"/>
</g>
<g filter="url(#filter14_d_241_157)">
<path d="M52.9584 47.3461C45.2323 49.3357 43.5499 51.0184 41.5605 58.7455C41.5566 58.7576 41.5489 58.7681 41.5385 58.7756C41.5282 58.7831 41.5158 58.7871 41.503 58.7871C41.4903 58.7871 41.4779 58.7831 41.4675 58.7756C41.4572 58.7681 41.4495 58.7576 41.4455 58.7455C39.4501 51.0184 37.7677 49.3357 30.0416 47.3461C30.0295 47.3422 30.019 47.3345 30.0115 47.3241C30.004 47.3138 30 47.3014 30 47.2886C30 47.2759 30.004 47.2634 30.0115 47.2531C30.019 47.2428 30.0295 47.2351 30.0416 47.2311C37.7677 45.2385 39.4501 43.5559 41.4425 35.8288C41.4465 35.8166 41.4542 35.8061 41.4645 35.7986C41.4748 35.7911 41.4873 35.7871 41.5 35.7871C41.5128 35.7871 41.5252 35.7911 41.5355 35.7986C41.5458 35.8061 41.5535 35.8166 41.5575 35.8288C43.5499 43.5559 45.2323 45.2385 52.9584 47.2311C52.9705 47.2351 52.981 47.2428 52.9885 47.2531C52.996 47.2634 53 47.2759 53 47.2886C53 47.3014 52.996 47.3138 52.9885 47.3241C52.981 47.3345 52.9705 47.3422 52.9584 47.3461Z" fill="white"/>
<path d="M44.931 43.8571C46.5143 45.4406 48.7357 46.3583 52.1942 47.2885C48.7357 48.2173 46.5143 49.1343 44.9314 50.7175C43.3484 52.3007 42.4315 54.5224 41.5028 57.9816C40.5713 54.5224 39.653 52.3006 38.0693 50.7174C36.4857 49.1343 34.2643 48.2174 30.8058 47.2885C34.2643 46.3583 36.4857 45.4406 38.069 43.8571C39.6523 42.2736 40.5699 40.0518 41.5 36.5926C42.4301 40.0518 43.3477 42.2736 44.931 43.8571Z" stroke="#F3F3F3" stroke-width="0.5"/>
</g>
<path d="M104.5 19C105.328 19 106 18.3284 106 17.5C106 16.6716 105.328 16 104.5 16C103.672 16 103 16.6716 103 17.5C103 18.3284 103.672 19 104.5 19Z" fill="#C5FAD5"/>
<path d="M45.5 19C46.3284 19 47 18.3284 47 17.5C47 16.6716 46.3284 16 45.5 16C44.6716 16 44 16.6716 44 17.5C44 18.3284 44.6716 19 45.5 19Z" fill="#C5FAD5"/>
<path d="M75 7C76.1046 7 77 6.10457 77 5C77 3.89543 76.1046 3 75 3C73.8954 3 73 3.89543 73 5C73 6.10457 73.8954 7 75 7Z" fill="#C5FAD5"/>
<path d="M92.5 12C93.3284 12 94 11.3284 94 10.5C94 9.67157 93.3284 9 92.5 9C91.6716 9 91 9.67157 91 10.5C91 11.3284 91.6716 12 92.5 12Z" fill="#C2F6D7"/>
<path d="M57.5 12C58.3284 12 59 11.3284 59 10.5C59 9.67157 58.3284 9 57.5 9C56.6716 9 56 9.67157 56 10.5C56 11.3284 56.6716 12 57.5 12Z" fill="#C2F6D7"/>
<defs>
<filter id="filter0_d_241_157" x="102" y="106" width="22" height="22.8784" filterUnits="userSpaceOnUse" color-interpolation-filters="sRGB">
<feFlood flood-opacity="0" result="BackgroundImageFix"/>
<feColorMatrix in="SourceAlpha" type="matrix" values="0 0 0 0 0 0 0 0 0 0 0 0 0 0 0 0 0 0 127 0" result="hardAlpha"/>
<feOffset dy="1"/>
<feGaussianBlur stdDeviation="0.5"/>
<feComposite in2="hardAlpha" operator="out"/>
<feColorMatrix type="matrix" values="0 0 0 0 0 0 0 0 0 0 0 0 0 0 0 0 0 0 0.25 0"/>
<feBlend mode="normal" in2="BackgroundImageFix" result="effect1_dropShadow_241_157"/>
<feBlend mode="normal" in="SourceGraphic" in2="effect1_dropShadow_241_157" result="shape"/>
</filter>
<filter id="filter1_d_241_157" x="51.0002" y="114" width="48" height="26.7935" filterUnits="userSpaceOnUse" color-interpolation-filters="sRGB">
<feFlood flood-opacity="0" result="BackgroundImageFix"/>
<feColorMatrix in="SourceAlpha" type="matrix" values="0 0 0 0 0 0 0 0 0 0 0 0 0 0 0 0 0 0 127 0" result="hardAlpha"/>
<feOffset dy="1"/>
<feGaussianBlur stdDeviation="0.5"/>
<feComposite in2="hardAlpha" operator="out"/>
<feColorMatrix type="matrix" values="0 0 0 0 0 0 0 0 0 0 0 0 0 0 0 0 0 0 0.25 0"/>
<feBlend mode="normal" in2="BackgroundImageFix" result="effect1_dropShadow_241_157"/>
<feBlend mode="normal" in="SourceGraphic" in2="effect1_dropShadow_241_157" result="shape"/>
</filter>
<filter id="filter2_d_241_157" x="26.0002" y="106" width="22" height="22.8784" filterUnits="userSpaceOnUse" color-interpolation-filters="sRGB">
<feFlood flood-opacity="0" result="BackgroundImageFix"/>
<feColorMatrix in="SourceAlpha" type="matrix" values="0 0 0 0 0 0 0 0 0 0 0 0 0 0 0 0 0 0 127 0" result="hardAlpha"/>
<feOffset dy="1"/>
<feGaussianBlur stdDeviation="0.5"/>
<feComposite in2="hardAlpha" operator="out"/>
<feColorMatrix type="matrix" values="0 0 0 0 0 0 0 0 0 0 0 0 0 0 0 0 0 0 0.25 0"/>
<feBlend mode="normal" in2="BackgroundImageFix" result="effect1_dropShadow_241_157"/>
<feBlend mode="normal" in="SourceGraphic" in2="effect1_dropShadow_241_157" result="shape"/>
</filter>
<filter id="filter3_d_241_157" x="90.2351" y="59.1533" width="57.4277" height="61.2495" filterUnits="userSpaceOnUse" color-interpolation-filters="sRGB">
<feFlood flood-opacity="0" result="BackgroundImageFix"/>
<feColorMatrix in="SourceAlpha" type="matrix" values="0 0 0 0 0 0 0 0 0 0 0 0 0 0 0 0 0 0 127 0" result="hardAlpha"/>
<feOffset dy="2"/>
<feGaussianBlur stdDeviation="1"/>
<feComposite in2="hardAlpha" operator="out"/>
<feColorMatrix type="matrix" values="0 0 0 0 0 0 0 0 0 0 0 0 0 0 0 0 0 0 0.25 0"/>
<feBlend mode="normal" in2="BackgroundImageFix" result="effect1_dropShadow_241_157"/>
<feBlend mode="normal" in="SourceGraphic" in2="effect1_dropShadow_241_157" result="shape"/>
</filter>
<filter id="filter4_d_241_157" x="92.8291" y="76.5249" width="49.8301" height="45.1602" filterUnits="userSpaceOnUse" color-interpolation-filters="sRGB">
<feFlood flood-opacity="0" result="BackgroundImageFix"/>
<feColorMatrix in="SourceAlpha" type="matrix" values="0 0 0 0 0 0 0 0 0 0 0 0 0 0 0 0 0 0 127 0" result="hardAlpha"/>
<feOffset dy="2"/>
<feGaussianBlur stdDeviation="1"/>
<feComposite in2="hardAlpha" operator="out"/>
<feColorMatrix type="matrix" values="0 0 0 0 0 0 0 0 0 0 0 0 0 0 0 0 0 0 0.25 0"/>
<feBlend mode="normal" in2="BackgroundImageFix" result="effect1_dropShadow_241_157"/>
<feBlend mode="normal" in="SourceGraphic" in2="effect1_dropShadow_241_157" result="shape"/>
</filter>
<filter id="filter5_d_241_157" x="85.3159" y="91.9038" width="47.5388" height="31.52" filterUnits="userSpaceOnUse" color-interpolation-filters="sRGB">
<feFlood flood-opacity="0" result="BackgroundImageFix"/>
<feColorMatrix in="SourceAlpha" type="matrix" values="0 0 0 0 0 0 0 0 0 0 0 0 0 0 0 0 0 0 127 0" result="hardAlpha"/>
<feOffset dy="2"/>
<feGaussianBlur stdDeviation="1"/>
<feComposite in2="hardAlpha" operator="out"/>
<feColorMatrix type="matrix" values="0 0 0 0 0 0 0 0 0 0 0 0 0 0 0 0 0 0 0.25 0"/>
<feBlend mode="normal" in2="BackgroundImageFix" result="effect1_dropShadow_241_157"/>
<feBlend mode="normal" in="SourceGraphic" in2="effect1_dropShadow_241_157" result="shape"/>
</filter>
<filter id="filter6_d_241_157" x="2.79639" y="59.1494" width="57.8311" height="61.272" filterUnits="userSpaceOnUse" color-interpolation-filters="sRGB">
<feFlood flood-opacity="0" result="BackgroundImageFix"/>
<feColorMatrix in="SourceAlpha" type="matrix" values="0 0 0 0 0 0 0 0 0 0 0 0 0 0 0 0 0 0 127 0" result="hardAlpha"/>
<feOffset dy="2"/>
<feGaussianBlur stdDeviation="1"/>
<feComposite in2="hardAlpha" operator="out"/>
<feColorMatrix type="matrix" values="0 0 0 0 0 0 0 0 0 0 0 0 0 0 0 0 0 0 0.25 0"/>
<feBlend mode="normal" in2="BackgroundImageFix" result="effect1_dropShadow_241_157"/>
<feBlend mode="normal" in="SourceGraphic" in2="effect1_dropShadow_241_157" result="shape"/>
</filter>
<filter id="filter7_d_241_157" x="7.83398" y="76.5205" width="50.1836" height="45.1758" filterUnits="userSpaceOnUse" color-interpolation-filters="sRGB">
<feFlood flood-opacity="0" result="BackgroundImageFix"/>
<feColorMatrix in="SourceAlpha" type="matrix" values="0 0 0 0 0 0 0 0 0 0 0 0 0 0 0 0 0 0 127 0" result="hardAlpha"/>
<feOffset dy="2"/>
<feGaussianBlur stdDeviation="1"/>
<feComposite in2="hardAlpha" operator="out"/>
<feColorMatrix type="matrix" values="0 0 0 0 0 0 0 0 0 0 0 0 0 0 0 0 0 0 0.25 0"/>
<feBlend mode="normal" in2="BackgroundImageFix" result="effect1_dropShadow_241_157"/>
<feBlend mode="normal" in="SourceGraphic" in2="effect1_dropShadow_241_157" result="shape"/>
</filter>
<filter id="filter8_d_241_157" x="17.7058" y="91.897" width="47.8828" height="31.5283" filterUnits="userSpaceOnUse" color-interpolation-filters="sRGB">
<feFlood flood-opacity="0" result="BackgroundImageFix"/>
<feColorMatrix in="SourceAlpha" type="matrix" values="0 0 0 0 0 0 0 0 0 0 0 0 0 0 0 0 0 0 127 0" result="hardAlpha"/>
<feOffset dy="2"/>
<feGaussianBlur stdDeviation="1"/>
<feComposite in2="hardAlpha" operator="out"/>
<feColorMatrix type="matrix" values="0 0 0 0 0 0 0 0 0 0 0 0 0 0 0 0 0 0 0.25 0"/>
<feBlend mode="normal" in2="BackgroundImageFix" result="effect1_dropShadow_241_157"/>
<feBlend mode="normal" in="SourceGraphic" in2="effect1_dropShadow_241_157" result="shape"/>
</filter>
<filter id="filter9_d_241_157" x="28.5" y="29.5" width="93" height="93" filterUnits="userSpaceOnUse" color-interpolation-filters="sRGB">
<feFlood flood-opacity="0" result="BackgroundImageFix"/>
<feColorMatrix in="SourceAlpha" type="matrix" values="0 0 0 0 0 0 0 0 0 0 0 0 0 0 0 0 0 0 127 0" result="hardAlpha"/>
<feOffset dy="1"/>
<feGaussianBlur stdDeviation="0.5"/>
<feComposite in2="hardAlpha" operator="out"/>
<feColorMatrix type="matrix" values="0 0 0 0 0 0 0 0 0 0 0 0 0 0 0 0 0 0 0.25 0"/>
<feBlend mode="normal" in2="BackgroundImageFix" result="effect1_dropShadow_241_157"/>
<feBlend mode="normal" in="SourceGraphic" in2="effect1_dropShadow_241_157" result="shape"/>
</filter>
<filter id="filter10_d_241_157" x="73.8242" y="109.096" width="16.2913" height="19.0415" filterUnits="userSpaceOnUse" color-interpolation-filters="sRGB">
<feFlood flood-opacity="0" result="BackgroundImageFix"/>
<feColorMatrix in="SourceAlpha" type="matrix" values="0 0 0 0 0 0 0 0 0 0 0 0 0 0 0 0 0 0 127 0" result="hardAlpha"/>
<feOffset dy="1"/>
<feGaussianBlur stdDeviation="0.5"/>
<feComposite in2="hardAlpha" operator="out"/>
<feColorMatrix type="matrix" values="0 0 0 0 0 0 0 0 0 0 0 0 0 0 0 0 0 0 0.25 0"/>
<feBlend mode="normal" in2="BackgroundImageFix" result="effect1_dropShadow_241_157"/>
<feBlend mode="normal" in="SourceGraphic" in2="effect1_dropShadow_241_157" result="shape"/>
</filter>
<filter id="filter11_d_241_157" x="60.3513" y="109.096" width="16.2913" height="19.0415" filterUnits="userSpaceOnUse" color-interpolation-filters="sRGB">
<feFlood flood-opacity="0" result="BackgroundImageFix"/>
<feColorMatrix in="SourceAlpha" type="matrix" values="0 0 0 0 0 0 0 0 0 0 0 0 0 0 0 0 0 0 127 0" result="hardAlpha"/>
<feOffset dy="1"/>
<feGaussianBlur stdDeviation="0.5"/>
<feComposite in2="hardAlpha" operator="out"/>
<feColorMatrix type="matrix" values="0 0 0 0 0 0 0 0 0 0 0 0 0 0 0 0 0 0 0.25 0"/>
<feBlend mode="normal" in2="BackgroundImageFix" result="effect1_dropShadow_241_157"/>
<feBlend mode="normal" in="SourceGraphic" in2="effect1_dropShadow_241_157" result="shape"/>
</filter>
<filter id="filter12_d_241_157" x="66.1899" y="108.9" width="18.2202" height="20" filterUnits="userSpaceOnUse" color-interpolation-filters="sRGB">
<feFlood flood-opacity="0" result="BackgroundImageFix"/>
<feColorMatrix in="SourceAlpha" type="matrix" values="0 0 0 0 0 0 0 0 0 0 0 0 0 0 0 0 0 0 127 0" result="hardAlpha"/>
<feOffset dy="1"/>
<feGaussianBlur stdDeviation="0.5"/>
<feComposite in2="hardAlpha" operator="out"/>
<feColorMatrix type="matrix" values="0 0 0 0 0 0 0 0 0 0 0 0 0 0 0 0 0 0 0.25 0"/>
<feBlend mode="normal" in2="BackgroundImageFix" result="effect1_dropShadow_241_157"/>
<feBlend mode="normal" in="SourceGraphic" in2="effect1_dropShadow_241_157" result="shape"/>
</filter>
<filter id="filter13_d_241_157" x="31.4836" y="39.4839" width="19.0347" height="19.0332" filterUnits="userSpaceOnUse" color-interpolation-filters="sRGB">
<feFlood flood-opacity="0" result="BackgroundImageFix"/>
<feColorMatrix in="SourceAlpha" type="matrix" values="0 0 0 0 0 0 0 0 0 0 0 0 0 0 0 0 0 0 127 0" result="hardAlpha"/>
<feOffset dy="2"/>
<feGaussianBlur stdDeviation="1"/>
<feComposite in2="hardAlpha" operator="out"/>
<feColorMatrix type="matrix" values="0 0 0 0 1 0 0 0 0 1 0 0 0 0 1 0 0 0 1 0"/>
<feBlend mode="normal" in2="BackgroundImageFix" result="effect1_dropShadow_241_157"/>
<feBlend mode="normal" in="SourceGraphic" in2="effect1_dropShadow_241_157" result="shape"/>
</filter>
<filter id="filter14_d_241_157" x="28" y="35.7871" width="27" height="27" filterUnits="userSpaceOnUse" color-interpolation-filters="sRGB">
<feFlood flood-opacity="0" result="BackgroundImageFix"/>
<feColorMatrix in="SourceAlpha" type="matrix" values="0 0 0 0 0 0 0 0 0 0 0 0 0 0 0 0 0 0 127 0" result="hardAlpha"/>
<feOffset dy="2"/>
<feGaussianBlur stdDeviation="1"/>
<feComposite in2="hardAlpha" operator="out"/>
<feColorMatrix type="matrix" values="0 0 0 0 1 0 0 0 0 1 0 0 0 0 1 0 0 0 1 0"/>
<feBlend mode="normal" in2="BackgroundImageFix" result="effect1_dropShadow_241_157"/>
<feBlend mode="normal" in="SourceGraphic" in2="effect1_dropShadow_241_157" result="shape"/>
</filter>
<linearGradient id="paint0_linear_241_157" x1="75.0002" y1="137" x2="75.0002" y2="114" gradientUnits="userSpaceOnUse">
<stop stop-color="#C5FBD6"/>
<stop offset="1" stop-color="#A0B9E7"/>
</linearGradient>
<linearGradient id="paint1_linear_241_157" x1="113" y1="125" x2="113" y2="116.429" gradientUnits="userSpaceOnUse">
<stop stop-color="#C5FBD6"/>
<stop offset="1" stop-color="#A0B9E7"/>
</linearGradient>
<linearGradient id="paint2_linear_241_157" x1="37.0002" y1="125" x2="37.0002" y2="116.429" gradientUnits="userSpaceOnUse">
<stop stop-color="#C5FBD6"/>
<stop offset="1" stop-color="#A0B9E7"/>
</linearGradient>
<linearGradient id="paint3_linear_241_157" x1="133.91" y1="62.6893" x2="146.97" y2="84.4565" gradientUnits="userSpaceOnUse">
<stop stop-color="#C6FDD5"/>
<stop offset="1" stop-color="#9FB8E8"/>
</linearGradient>
<linearGradient id="paint4_linear_241_157" x1="131.392" y1="80.0715" x2="139.342" y2="100.372" gradientUnits="userSpaceOnUse">
<stop stop-color="#C6FDD5"/>
<stop offset="1" stop-color="#9FB8E8"/>
</linearGradient>
<linearGradient id="paint5_linear_241_157" x1="125.457" y1="95.773" x2="127.652" y2="114.03" gradientUnits="userSpaceOnUse">
<stop stop-color="#C6FDD5"/>
<stop offset="1" stop-color="#9FB8E8"/>
</linearGradient>
<linearGradient id="paint6_linear_241_157" x1="16.6326" y1="62.6893" x2="3.29503" y2="83.8393" gradientUnits="userSpaceOnUse">
<stop stop-color="#C5FBD5"/>
<stop offset="1" stop-color="#A0B8E8"/>
</linearGradient>
<linearGradient id="paint7_linear_241_157" x1="19.1678" y1="80.0715" x2="10.8411" y2="99.8968" gradientUnits="userSpaceOnUse">
<stop stop-color="#C5FBD5"/>
<stop offset="1" stop-color="#A0B8E8"/>
</linearGradient>
<linearGradient id="paint8_linear_241_157" x1="25.1433" y1="95.773" x2="22.537" y2="113.679" gradientUnits="userSpaceOnUse">
<stop stop-color="#C5FBD5"/>
<stop offset="1" stop-color="#A0B8E8"/>
</linearGradient>
<linearGradient id="paint9_linear_241_157" x1="75" y1="11" x2="75" y2="28" gradientUnits="userSpaceOnUse">
<stop stop-color="#C4FAD6"/>
<stop offset="1" stop-color="#A1BAE7"/>
</linearGradient>
<linearGradient id="paint10_linear_241_157" x1="75" y1="30" x2="75" y2="120" gradientUnits="userSpaceOnUse">
<stop stop-color="#C6FDD4"/>
<stop offset="1" stop-color="#9DB4E8"/>
</linearGradient>
<linearGradient id="paint11_linear_241_157" x1="79.6769" y1="109.406" x2="82.49" y2="125.36" gradientUnits="userSpaceOnUse">
<stop stop-color="#C5FCD5"/>
<stop offset="1" stop-color="#A2BCE6"/>
</linearGradient>
<linearGradient id="paint12_linear_241_157" x1="70.7899" y1="109.407" x2="67.9768" y2="125.36" gradientUnits="userSpaceOnUse">
<stop stop-color="#C5FCD5"/>
<stop offset="1" stop-color="#A2BCE6"/>
</linearGradient>
<linearGradient id="paint13_linear_241_157" x1="75.3" y1="108.9" x2="75.3" y2="126.9" gradientUnits="userSpaceOnUse">
<stop stop-color="#C5FCD5"/>
<stop offset="1" stop-color="#A2BCE6"/>
</linearGradient>
</defs>
</svg>
