<svg width="27" height="26" viewBox="0 0 27 26" fill="none" xmlns="http://www.w3.org/2000/svg">
<g id="Nh&#225;&#186;&#173;t k&#195;&#173;" clip-path="url(#clip0_5055_348)">
<g id="Layer_x0020_1">
<g id="_2687165276944">
<path id="Vector" fill-rule="evenodd" clip-rule="evenodd" d="M1.87744 2.40497V5.1998C1.87744 5.51406 2.0766 5.71984 2.38075 5.71984C2.9733 5.71984 2.88471 5.15166 2.88406 4.54991C2.88209 3.15215 2.56317 1.03976 4.51965 1.03976H6.40689V24.9596C4.87662 24.9596 3.0842 25.2965 2.89095 23.4574C2.84633 23.0313 2.88307 22.3563 2.88439 21.9044C2.8857 21.3189 2.95394 20.7995 2.38108 20.7995C2.07693 20.7995 1.87777 21.0053 1.87777 21.3196V23.5947C1.87777 24.7938 3.04483 25.9997 4.20532 25.9997H19.6806C20.8411 25.9997 22.0081 24.7938 22.0081 23.5947V18.2C22.0081 17.546 21.0123 17.385 20.9976 18.3257C20.9792 19.4923 21.1531 23.3645 20.8325 24.0703C20.6003 24.5816 20.0674 24.9599 19.3659 24.9599H7.41351V1.04009H19.3659C20.0267 1.04009 20.5064 1.36419 20.7653 1.80423C21.0691 2.32123 21.0015 2.97654 21.0015 3.76984C21.0015 4.50651 21.0015 5.24319 21.0015 5.97987C21.0015 6.91317 20.7945 7.80003 21.5048 7.80003C21.809 7.80003 22.0081 7.59459 22.0081 7.27999V2.40497C22.0081 1.20587 20.8411 0 19.6806 0H4.20532C3.04483 0 1.87777 1.20587 1.87777 2.40497H1.87744Z" fill="#124769"/>
<path id="Vector_2" fill-rule="evenodd" clip-rule="evenodd" d="M15.3394 15.2731C15.3394 15.6786 15.8148 16.1136 16.3637 15.5515L18.7208 13.1119C18.9216 12.9065 18.9846 12.8 19.1614 12.5922C19.6608 12.0064 22.7299 8.98409 22.951 8.64305C23.7348 9.03156 23.8461 8.62033 24.6023 9.40685C24.8156 9.62856 25.0305 9.75162 25.1293 10.0974C25.52 11.4697 25.6063 11.0019 24.5082 12.1366L18.8455 17.9853C18.121 18.7182 18.81 19.1077 18.9882 19.1077C19.4547 19.1077 20.6215 17.7123 20.9853 17.3364L25.6719 12.4939C26.7156 11.4155 26.7255 11.7511 26.1674 9.93435C25.9252 9.14648 26.1231 9.48245 25.4203 8.75628C25.2477 8.57796 25.1207 8.4454 24.9501 8.26708C24.7126 8.01858 24.6929 8.0257 24.3359 7.92671C22.2449 7.34734 23.0307 7.09748 20.7967 9.40617C20.1628 10.0611 19.5748 10.6687 18.9409 11.3236C18.307 11.9786 17.7191 12.5861 17.0852 13.2411C16.7666 13.5706 15.3397 14.8945 15.3397 15.2725L15.3394 15.2731Z" fill="#124769"/>
<path id="Vector_3" fill-rule="evenodd" clip-rule="evenodd" d="M16.9119 16.8996C16.9119 17.3407 17.2134 17.4197 17.5408 17.4197C17.8401 17.4197 23.3174 11.6127 23.9418 10.9682C24.051 10.8553 24.3047 10.6228 24.3726 10.4987C24.5074 10.2519 24.4408 9.9827 24.2587 9.8271C23.8099 9.44435 23.4408 9.99118 23.1868 10.2532L21.3626 12.1382C21.0381 12.4745 20.748 12.708 20.4189 13.0481L17.7141 15.8429C17.4906 16.0738 16.9122 16.5284 16.9122 16.8993L16.9119 16.8996Z" fill="#124769"/>
<path id="Vector_4" fill-rule="evenodd" clip-rule="evenodd" d="M18.422 19.7632C18.422 18.8242 16.9721 19.4391 16.5725 19.5422C16.101 19.6632 15.7286 19.7846 15.2764 19.8931L14.5979 19.2289C14.6829 18.8062 15.2764 16.7565 15.2764 16.4484C15.2764 15.991 14.593 15.7191 14.3069 16.2266L13.5283 19.1923C13.4253 19.6073 13.1635 20.3087 13.2557 20.6765C13.5152 21.7099 14.7797 21.1247 15.8296 20.8552L17.9928 20.2951C18.2208 20.2185 18.4216 20.029 18.4216 19.7632H18.422Z" fill="#124769"/>
<path id="Vector_5" fill-rule="evenodd" clip-rule="evenodd" d="M1.87744 8.32014V11.4401C1.87744 12.1676 2.88406 12.1198 2.88406 11.4401V8.32014C2.88406 7.62245 1.87744 7.62245 1.87744 8.32014Z" fill="#124769"/>
<path id="Vector_6" fill-rule="evenodd" clip-rule="evenodd" d="M1.87744 14.5591V17.6791C1.87744 18.3768 2.88406 18.3768 2.88406 17.6791V14.5591C2.88406 13.8316 1.87744 13.8794 1.87744 14.5591Z" fill="#124769"/>
<path id="Vector_7" fill-rule="evenodd" clip-rule="evenodd" d="M0.367432 19.109C0.367432 19.4473 0.443879 19.7588 0.87074 19.7588H3.38695C4.06219 19.7588 4.06219 18.7188 3.38695 18.7188H0.744749C0.593494 18.7188 0.367432 18.9523 0.367432 19.1086V19.109Z" fill="#124769"/>
<path id="Vector_8" fill-rule="evenodd" clip-rule="evenodd" d="M0.367432 12.9966C0.367432 13.2343 0.540998 13.5167 0.744749 13.5167H3.38695C4.0448 13.5167 4.09106 12.4766 3.38695 12.4766H0.87074C0.56659 12.4766 0.367432 12.682 0.367432 12.9966Z" fill="#124769"/>
<path id="Vector_9" fill-rule="evenodd" clip-rule="evenodd" d="M0.367432 6.76224C0.367432 7.07684 0.56659 7.28228 0.87074 7.28228H3.38695C4.06219 7.28228 4.06219 6.24219 3.38695 6.24219H0.87074C0.56659 6.24219 0.367432 6.44797 0.367432 6.76224Z" fill="#124769"/>
</g>
</g>
</g>
<defs>
<clipPath id="clip0_5055_348">
<rect width="26.1681" height="26" fill="white" transform="translate(0.407471)"/>
</clipPath>
</defs>
</svg>
