<svg width="30" height="30" viewBox="0 0 30 30" fill="none" xmlns="http://www.w3.org/2000/svg">
<g clip-path="url(#clip0_2236_16)">
<path d="M28.6816 3.69941V25.1641L26.9238 26.043L25.166 25.1641V3.69941C25.166 3.05195 25.6904 2.3125 26.3379 2.3125H27.5098C28.1572 2.3125 28.6816 3.05195 28.6816 3.69941Z" fill="#ED4769"/>
<path d="M27.5098 2.3125H26.3379C26.3133 2.3125 26.2889 2.31392 26.2646 2.31601C26.8779 2.36896 27.3633 3.07658 27.3633 3.69941V25.1641L26.2646 25.7134L26.9238 26.043L28.6816 25.1641V3.69941C28.6816 3.05195 28.1572 2.3125 27.5098 2.3125Z" fill="#EB304A"/>
<path d="M28.6816 1.72656V3.69941H25.166V1.72656C25.166 1.57266 25.1963 1.42025 25.2551 1.27806C25.314 1.13586 25.4003 1.00665 25.5092 0.897827C25.618 0.789 25.7472 0.702682 25.8894 0.643805C26.0316 0.584928 26.184 0.554645 26.3379 0.554688H27.5098C27.6637 0.554645 27.8161 0.584928 27.9583 0.643805C28.1005 0.702682 28.2297 0.789 28.3385 0.897827C28.4473 1.00665 28.5336 1.13586 28.5925 1.27806C28.6514 1.42025 28.6817 1.57266 28.6816 1.72656Z" fill="#8B8893"/>
<path d="M27.5098 0.554688H26.3379C26.3132 0.554688 26.289 0.556873 26.2646 0.558382C26.5621 0.576702 26.8413 0.707745 27.0454 0.924803C27.2495 1.14186 27.3632 1.42859 27.3633 1.72656V3.69941H28.6816V1.72656C28.6817 1.57266 28.6514 1.42025 28.5925 1.27806C28.5336 1.13586 28.4473 1.00665 28.3385 0.897827C28.2297 0.789 28.1005 0.702682 27.9583 0.643805C27.8161 0.584928 27.6637 0.554645 27.5098 0.554688Z" fill="#787681"/>
<path d="M28.6816 25.1641L26.9238 28.6797L25.166 25.1641H28.6816Z" fill="#FDD8AE"/>
<path d="M27.3633 25.1641L26.2646 27.3613L26.9238 28.6797L28.6816 25.1641H27.3633Z" fill="#FBBF7D"/>
<path d="M4.83398 0.4375H22.4121V27.8008H4.83398C3.90158 27.8008 3.00737 27.4304 2.34806 26.7711C1.68875 26.1118 1.31836 25.2176 1.31836 24.2852V3.95312C1.31836 3.02072 1.68875 2.12651 2.34806 1.4672C3.00737 0.807895 3.90158 0.4375 4.83398 0.4375Z" fill="#A6D28E"/>
<path d="M22.4121 0.4375H19.7754V27.8008H22.4121V0.4375Z" fill="#91C771"/>
<path d="M22.4121 22.8828V27.8047H3.7793C3.12662 27.8047 2.50067 27.5454 2.03915 27.0839C1.57764 26.6224 1.31836 25.9964 1.31836 25.3438C1.31836 24.6911 1.57764 24.0651 2.03915 23.6036C2.50067 23.1421 3.12662 22.8828 3.7793 22.8828H22.4121Z" fill="#E1E1E3"/>
<path d="M22.4121 22.8828H19.7754V27.8047H22.4121V22.8828Z" fill="#DADADC"/>
<path d="M10.8105 29.5625L8.67188 28.6836L6.5332 29.5625V25.3438H10.8105V29.5625Z" fill="#ED4769"/>
<path d="M9.05273 25.3438V28.8401L10.8105 29.5625V25.3438H9.05273Z" fill="#EB304A"/>
<path d="M15.3458 4.39453H15.3517C15.4683 4.39453 15.58 4.34823 15.6624 4.26582C15.7449 4.1834 15.7912 4.07163 15.7912 3.95508C15.7912 3.83853 15.7449 3.72675 15.6624 3.64434C15.58 3.56192 15.4683 3.51563 15.3517 3.51563H15.3458C15.2292 3.51563 15.1174 3.56192 15.035 3.64434C14.9526 3.72675 14.9063 3.83853 14.9063 3.95508C14.9063 4.07163 14.9526 4.1834 15.035 4.26582C15.1174 4.34823 15.2292 4.39453 15.3458 4.39453ZM15.5221 19.8633C15.4055 19.8633 15.2938 19.9096 15.2113 19.992C15.1289 20.0744 15.0826 20.1862 15.0826 20.3027C15.0826 20.4193 15.1289 20.5311 15.2113 20.6135C15.2938 20.6959 15.4055 20.7422 15.5221 20.7422H15.528C15.6446 20.7422 15.7564 20.6959 15.8388 20.6135C15.9212 20.5311 15.9675 20.4193 15.9675 20.3027C15.9675 20.1862 15.9212 20.0744 15.8388 19.992C15.7564 19.9096 15.6446 19.8633 15.528 19.8633H15.5221ZM10.1628 19.8633C10.0462 19.8633 9.93446 19.9096 9.85204 19.992C9.76963 20.0744 9.72333 20.1862 9.72333 20.3027C9.72333 20.4193 9.76963 20.5311 9.85204 20.6135C9.93446 20.6959 10.0462 20.7422 10.1628 20.7422H10.1687C10.2853 20.7422 10.3971 20.6959 10.4795 20.6135C10.5619 20.5311 10.6082 20.4193 10.6082 20.3027C10.6082 20.1862 10.5619 20.0744 10.4795 19.992C10.3971 19.9096 10.2853 19.8633 10.1687 19.8633H10.1628ZM17.1322 4.39453H17.1381C17.2547 4.39453 17.3665 4.34823 17.4489 4.26582C17.5313 4.1834 17.5776 4.07163 17.5776 3.95508C17.5776 3.83853 17.5313 3.72675 17.4489 3.64434C17.3665 3.56192 17.2547 3.51563 17.1381 3.51563H17.1322C17.0157 3.51563 16.9039 3.56192 16.8215 3.64434C16.7391 3.72675 16.6928 3.83853 16.6928 3.95508C16.6928 4.07163 16.7391 4.1834 16.8215 4.26582C16.9039 4.34823 17.0157 4.39453 17.1322 4.39453ZM13.7357 19.8633C13.6191 19.8633 13.5073 19.9096 13.4249 19.992C13.3425 20.0744 13.2962 20.1862 13.2962 20.3027C13.2962 20.4193 13.3425 20.5311 13.4249 20.6135C13.5073 20.6959 13.6191 20.7422 13.7357 20.7422H13.7416C13.8581 20.7422 13.9699 20.6959 14.0523 20.6135C14.1347 20.5311 14.181 20.4193 14.181 20.3027C14.181 20.1862 14.1347 20.0744 14.0523 19.992C13.9699 19.9096 13.8581 19.8633 13.7416 19.8633H13.7357ZM11.9492 19.8633C11.8327 19.8633 11.7209 19.9096 11.6385 19.992C11.5561 20.0744 11.5098 20.1862 11.5098 20.3027C11.5098 20.4193 11.5561 20.5311 11.6385 20.6135C11.7209 20.6959 11.8327 20.7422 11.9492 20.7422H11.9552C12.0717 20.7422 12.1835 20.6959 12.2659 20.6135C12.3483 20.5311 12.3946 20.4193 12.3946 20.3027C12.3946 20.1862 12.3483 20.0744 12.2659 19.992C12.1835 19.9096 12.0717 19.8633 11.9552 19.8633H11.9492ZM13.5593 4.39453H13.5653C13.6818 4.39453 13.7936 4.34823 13.876 4.26582C13.9584 4.1834 14.0047 4.07163 14.0047 3.95508C14.0047 3.83853 13.9584 3.72675 13.876 3.64434C13.7936 3.56192 13.6818 3.51563 13.5653 3.51563H13.5593C13.4428 3.51563 13.331 3.56192 13.2486 3.64434C13.1662 3.72675 13.1199 3.83853 13.1199 3.95508C13.1199 4.07163 13.1662 4.1834 13.2486 4.26582C13.331 4.34823 13.4428 4.39453 13.5593 4.39453ZM11.7729 4.39453H11.7788C11.8954 4.39453 12.0072 4.34823 12.0896 4.26582C12.172 4.1834 12.2183 4.07163 12.2183 3.95508C12.2183 3.83853 12.172 3.72675 12.0896 3.64434C12.0072 3.56192 11.8954 3.51563 11.7788 3.51563H11.7729C11.6564 3.51563 11.5446 3.56192 11.4622 3.64434C11.3798 3.72675 11.3335 3.83853 11.3335 3.95508C11.3335 4.07163 11.3798 4.1834 11.4622 4.26582C11.5446 4.34823 11.6564 4.39453 11.7729 4.39453ZM17.3085 19.8633C17.192 19.8633 17.0802 19.9096 16.9978 19.992C16.9154 20.0744 16.8691 20.1862 16.8691 20.3027C16.8691 20.4193 16.9154 20.5311 16.9978 20.6135C17.0802 20.6959 17.192 20.7422 17.3085 20.7422H17.3193C17.4358 20.7415 17.5474 20.6946 17.6293 20.6118C17.7113 20.5289 17.757 20.4169 17.7563 20.3003C17.7557 20.1838 17.7088 20.0722 17.6259 19.9903C17.543 19.9083 17.431 19.8626 17.3145 19.8633H17.3085ZM18.5044 18.7418C18.3882 18.7375 18.2749 18.7792 18.1892 18.8578C18.1034 18.9363 18.0521 19.0455 18.0462 19.1616C18.0403 19.2778 18.0804 19.3916 18.1577 19.4784C18.2351 19.5653 18.3435 19.6182 18.4595 19.6257C18.4682 19.6262 18.4768 19.6264 18.4854 19.6264C18.5975 19.6263 18.7053 19.5834 18.7867 19.5064C18.8682 19.4295 18.9172 19.3243 18.9237 19.2124L18.9243 19.2001C18.9294 19.0837 18.888 18.97 18.8092 18.884C18.7305 18.7981 18.6208 18.7469 18.5044 18.7418ZM18.4633 5.33667C18.5276 5.33666 18.5911 5.32255 18.6493 5.29535C18.7076 5.26815 18.7592 5.22851 18.8005 5.17922C18.8417 5.12993 18.8717 5.0722 18.8883 5.01007C18.9049 4.94795 18.9076 4.88295 18.8963 4.81965L18.8931 4.80271C18.8752 4.7218 18.8349 4.64757 18.7768 4.58858C18.7186 4.52959 18.6449 4.48824 18.5643 4.46931C18.4836 4.45038 18.3992 4.45463 18.3209 4.48157C18.2425 4.50852 18.1734 4.55706 18.1215 4.6216C18.0695 4.68614 18.0369 4.76405 18.0273 4.84634C18.0177 4.92864 18.0316 5.01196 18.0673 5.08671C18.103 5.16146 18.1592 5.22459 18.2292 5.26881C18.2993 5.31304 18.3804 5.33656 18.4633 5.33667ZM18.4863 15.1688C18.3698 15.1688 18.258 15.2151 18.1756 15.2975C18.0932 15.3799 18.0469 15.4917 18.0469 15.6082V15.6141C18.0469 15.7307 18.0932 15.8425 18.1756 15.9249C18.258 16.0073 18.3698 16.0536 18.4863 16.0536C18.6029 16.0536 18.7147 16.0073 18.7971 15.9249C18.8795 15.8425 18.9258 15.7307 18.9258 15.6141V15.6082C18.9258 15.4917 18.8795 15.3799 18.7971 15.2975C18.7147 15.2151 18.6029 15.1688 18.4863 15.1688ZM18.4863 16.9552C18.3698 16.9552 18.258 17.0015 18.1756 17.0839C18.0932 17.1663 18.0469 17.2781 18.0469 17.3946V17.4006C18.0469 17.5171 18.0932 17.6289 18.1756 17.7113C18.258 17.7938 18.3698 17.8401 18.4863 17.8401C18.6029 17.8401 18.7147 17.7938 18.7971 17.7113C18.8795 17.6289 18.9258 17.5171 18.9258 17.4006V17.3946C18.9258 17.2781 18.8795 17.1663 18.7971 17.0839C18.7147 17.0015 18.6029 16.9552 18.4863 16.9552ZM9.98646 4.39453H9.99241C10.109 4.39453 10.2207 4.34823 10.3031 4.26582C10.3856 4.1834 10.4319 4.07163 10.4319 3.95508C10.4319 3.83853 10.3856 3.72675 10.3031 3.64434C10.2207 3.56192 10.109 3.51563 9.99241 3.51563H9.98646C9.86991 3.51563 9.75813 3.56192 9.67572 3.64434C9.5933 3.72675 9.547 3.83853 9.547 3.95508C9.547 4.07163 9.5933 4.1834 9.67572 4.26582C9.75813 4.34823 9.86991 4.39453 9.98646 4.39453ZM18.4863 13.3823C18.3698 13.3824 18.258 13.4287 18.1756 13.5111C18.0932 13.5935 18.0469 13.7053 18.0469 13.8218V13.8277C18.0469 13.9443 18.0932 14.0561 18.1756 14.1385C18.258 14.2209 18.3698 14.2672 18.4863 14.2672C18.6029 14.2672 18.7147 14.2209 18.7971 14.1385C18.8795 14.0561 18.9258 13.9443 18.9258 13.8277V13.8218C18.9258 13.7053 18.8795 13.5935 18.7971 13.5111C18.7147 13.4287 18.6029 13.3824 18.4863 13.3823ZM18.4863 8.02302C18.3698 8.02303 18.258 8.06932 18.1756 8.15174C18.0932 8.23415 18.0469 8.34593 18.0469 8.46248V8.46843C18.0469 8.58498 18.0932 8.69676 18.1756 8.77917C18.258 8.86158 18.3698 8.90788 18.4863 8.90788C18.6029 8.90788 18.7147 8.86158 18.7971 8.77917C18.8795 8.69676 18.9258 8.58498 18.9258 8.46843V8.46248C18.9258 8.34593 18.8795 8.23415 18.7971 8.15174C18.7147 8.06932 18.6029 8.02303 18.4863 8.02302ZM18.4863 11.5959C18.3698 11.5959 18.258 11.6422 18.1756 11.7246C18.0932 11.807 18.0469 11.9188 18.0469 12.0354V12.0413C18.0469 12.1579 18.0932 12.2696 18.1756 12.352C18.258 12.4345 18.3698 12.4808 18.4863 12.4808C18.6029 12.4808 18.7147 12.4345 18.7971 12.352C18.8795 12.2696 18.9258 12.1579 18.9258 12.0413V12.0354C18.9258 11.9188 18.8795 11.807 18.7971 11.7246C18.7147 11.6422 18.6029 11.5959 18.4863 11.5959ZM18.4863 6.2366C18.3698 6.2366 18.258 6.2829 18.1756 6.36531C18.0932 6.44773 18.0469 6.5595 18.0469 6.67605V6.68198C18.0469 6.79853 18.0932 6.9103 18.1756 6.99272C18.258 7.07513 18.3698 7.12143 18.4863 7.12143C18.6029 7.12143 18.7147 7.07513 18.7971 6.99272C18.8795 6.9103 18.9258 6.79853 18.9258 6.68198V6.67606C18.9258 6.55951 18.8795 6.44773 18.7971 6.36532C18.7147 6.2829 18.6029 6.2366 18.4863 6.2366ZM18.4863 9.80948C18.3698 9.80948 18.258 9.85578 18.1756 9.93819C18.0932 10.0206 18.0469 10.1324 18.0469 10.2489V10.2549C18.0469 10.3714 18.0932 10.4832 18.1756 10.5656C18.258 10.648 18.3698 10.6943 18.4863 10.6943C18.6029 10.6943 18.7147 10.648 18.7971 10.5656C18.8795 10.4832 18.9258 10.3714 18.9258 10.2549V10.2489C18.9258 10.1324 18.8795 10.0206 18.7971 9.93819C18.7147 9.85577 18.6029 9.80948 18.4863 9.80948ZM26.9238 12.6172C27.011 12.6175 27.0963 12.5919 27.169 12.5437C27.2417 12.4955 27.2984 12.4268 27.332 12.3464C27.3656 12.2659 27.3747 12.1773 27.3579 12.0917C27.3412 12.0062 27.2994 11.9275 27.238 11.8656C27.1765 11.8038 27.0981 11.7615 27.0126 11.7442C26.9272 11.7269 26.8385 11.7354 26.7578 11.7685C26.6772 11.8016 26.6081 11.8579 26.5595 11.9302C26.5108 12.0026 26.4847 12.0877 26.4844 12.1749V12.1806C26.4844 12.2382 26.4959 12.2951 26.518 12.3483C26.5401 12.4014 26.5726 12.4497 26.6134 12.4902C26.6542 12.5308 26.7027 12.5629 26.7559 12.5847C26.8092 12.6065 26.8663 12.6175 26.9238 12.6172ZM26.9238 14.3262C27.011 14.3265 27.0963 14.3009 27.169 14.2527C27.2417 14.2044 27.2984 14.1358 27.332 14.0553C27.3656 13.9749 27.3747 13.8863 27.3579 13.8007C27.3412 13.7151 27.2994 13.6364 27.238 13.5746C27.1765 13.5127 27.0981 13.4705 27.0126 13.4532C26.9272 13.4359 26.8385 13.4443 26.7578 13.4775C26.6772 13.5106 26.6081 13.5668 26.5595 13.6392C26.5108 13.7115 26.4847 13.7967 26.4844 13.8839V13.8896C26.4844 13.9471 26.4959 14.0041 26.518 14.0572C26.5401 14.1104 26.5726 14.1586 26.6134 14.1992C26.6542 14.2397 26.7027 14.2718 26.7559 14.2936C26.8092 14.3154 26.8663 14.3265 26.9238 14.3262ZM26.9238 9.20068C27.0109 9.20082 27.096 9.17515 27.1685 9.1269C27.241 9.07865 27.2975 9.01 27.331 8.92962C27.3644 8.84924 27.3733 8.76075 27.3564 8.67533C27.3396 8.58992 27.2978 8.51142 27.2363 8.44975C27.1749 8.38809 27.0965 8.34604 27.0111 8.32891C26.9258 8.31179 26.8373 8.32036 26.7568 8.35354C26.6763 8.38672 26.6075 8.44303 26.559 8.51534C26.5105 8.58764 26.4845 8.67271 26.4844 8.75977V8.76268C26.4844 8.82032 26.4958 8.87738 26.5179 8.9306C26.54 8.98382 26.5724 9.03216 26.6132 9.07285C26.6541 9.11353 26.7025 9.14576 26.7558 9.1677C26.8091 9.18963 26.8662 9.20084 26.9238 9.20068ZM26.9238 10.9083C27.011 10.9085 27.0963 10.8829 27.169 10.8347C27.2417 10.7865 27.2984 10.7179 27.332 10.6374C27.3656 10.557 27.3747 10.4683 27.3579 10.3828C27.3412 10.2972 27.2994 10.2185 27.238 10.1566C27.1765 10.0948 27.0981 10.0525 27.0126 10.0353C26.9272 10.018 26.8385 10.0264 26.7578 10.0595C26.6772 10.0926 26.6081 10.1489 26.5595 10.2213C26.5108 10.2936 26.4847 10.3788 26.4844 10.466V10.4717C26.4844 10.5292 26.4959 10.5862 26.518 10.6393C26.5401 10.6925 26.5726 10.7407 26.6134 10.7813C26.6542 10.8218 26.7027 10.8539 26.7559 10.8757C26.8092 10.8975 26.8663 10.9086 26.9238 10.9083ZM5.24414 18.0188C5.36069 18.0188 5.47247 17.9725 5.55488 17.8901C5.63729 17.8076 5.68359 17.6959 5.68359 17.5793V17.5734C5.68359 17.4569 5.63729 17.3451 5.55488 17.2627C5.47247 17.1802 5.36069 17.1339 5.24414 17.1339C5.12759 17.1339 5.01581 17.1802 4.9334 17.2627C4.85099 17.3451 4.80469 17.4569 4.80469 17.5734V17.5793C4.80469 17.6959 4.85099 17.8077 4.9334 17.8901C5.01581 17.9725 5.12759 18.0188 5.24414 18.0188ZM22.4121 0H3.56206C2.85069 0.000805499 2.16869 0.283753 1.66567 0.786767C1.16266 1.28978 0.879712 1.97178 0.878906 2.68315V25.559C0.878958 25.6061 0.886585 25.6528 0.901494 25.6974C0.989011 26.3993 1.32966 27.0451 1.85952 27.5136C2.38937 27.9822 3.072 28.2412 3.7793 28.2422H6.09375V29.5605C6.09376 29.6327 6.11153 29.7038 6.14551 29.7674C6.17948 29.8311 6.22862 29.8854 6.28856 29.9256C6.34851 29.9658 6.41743 29.9906 6.48923 29.9978C6.56103 30.005 6.63351 29.9944 6.70026 29.967L8.67188 29.1567L10.6435 29.967C10.7102 29.9944 10.7827 30.005 10.8545 29.9978C10.9263 29.9906 10.9952 29.9658 11.0552 29.9256C11.1151 29.8854 11.1643 29.8311 11.1982 29.7674C11.2322 29.7038 11.25 29.6327 11.25 29.5605V28.2422H22.4121C22.5287 28.2422 22.6404 28.1959 22.7228 28.1135C22.8053 28.0311 22.8516 27.9193 22.8516 27.8027V0.439453C22.8516 0.322903 22.8053 0.211127 22.7228 0.128714C22.6404 0.0463006 22.5287 9.32388e-07 22.4121 0ZM10.3711 28.9048L8.83893 28.2752C8.73191 28.2312 8.61184 28.2312 8.50482 28.2752L6.97266 28.9048V25.7813H10.3711V28.9048ZM21.9727 27.3633H11.25V25.7813H21.9727V27.3633ZM21.9727 24.9023H3.95508C3.83853 24.9023 3.72675 24.9486 3.64434 25.0311C3.56192 25.1135 3.51562 25.2252 3.51562 25.3418C3.51562 25.4583 3.56192 25.5701 3.64434 25.6525C3.72675 25.735 3.83853 25.7813 3.95508 25.7813H6.09375V27.3633H3.7793C3.24317 27.3633 2.72899 27.1503 2.34989 26.7712C1.97079 26.3921 1.75781 25.8779 1.75781 25.3418C1.75781 24.8057 1.97079 24.2915 2.34989 23.9124C2.72899 23.5333 3.24317 23.3203 3.7793 23.3203H21.9727V24.9023ZM21.9727 22.4414H3.7793C3.02375 22.4411 2.29811 22.7366 1.75781 23.2648V2.68315C1.75835 2.2048 1.94862 1.7462 2.28686 1.40796C2.62511 1.06971 3.08371 0.879448 3.56206 0.878906H21.9727V22.4414ZM27.5098 0.117188H26.3379C25.9107 0.11767 25.5011 0.28759 25.199 0.589668C24.897 0.891746 24.727 1.30131 24.7266 1.72852V25.166C24.7266 25.1822 24.7276 25.1985 24.7294 25.2146C24.7298 25.2186 24.7307 25.2226 24.7312 25.2266C24.7329 25.2387 24.7349 25.2507 24.7375 25.2625C24.7385 25.267 24.7398 25.2714 24.741 25.2759C24.7439 25.2872 24.7472 25.2983 24.7509 25.3093C24.7525 25.3137 24.7541 25.3181 24.7558 25.3225C24.76 25.3335 24.7646 25.3443 24.7697 25.3549C24.7709 25.3574 24.7717 25.3601 24.773 25.3625L26.5308 28.8782C26.5673 28.9512 26.6234 29.0126 26.6928 29.0555C26.7622 29.0984 26.8422 29.1211 26.9238 29.1211C27.0054 29.1211 27.0854 29.0984 27.1549 29.0555C27.2243 29.0126 27.2804 28.9512 27.3169 28.8782L29.0747 25.3625C29.0759 25.3601 29.0768 25.3574 29.078 25.3549C29.083 25.3443 29.0877 25.3335 29.0919 25.3225C29.0936 25.3181 29.0952 25.3137 29.0967 25.3093C29.1005 25.2983 29.1038 25.2872 29.1067 25.2759C29.1078 25.2714 29.1091 25.267 29.1101 25.2625C29.1128 25.2507 29.1148 25.2387 29.1164 25.2266C29.117 25.2226 29.1178 25.2186 29.1183 25.2146C29.1201 25.1985 29.121 25.1822 29.1211 25.166V1.72852C29.1206 1.30131 28.9507 0.891746 28.6486 0.589668C28.3465 0.28759 27.937 0.11767 27.5098 0.117188ZM26.9238 27.699L25.8771 25.6055H27.9706L26.9238 27.699ZM28.2422 24.7266H25.6055V4.14093H28.2422V24.7266ZM28.2422 3.26202H25.6055V1.72852C25.6057 1.53433 25.6829 1.34816 25.8202 1.21086C25.9575 1.07355 26.1437 0.996312 26.3379 0.996094H27.5098C27.7039 0.996312 27.8901 1.07355 28.0274 1.21086C28.1647 1.34816 28.242 1.53433 28.2422 1.72852V3.26202ZM5.24414 16.2324C5.36069 16.2324 5.47247 16.1861 5.55488 16.1036C5.63729 16.0212 5.68359 15.9095 5.68359 15.7929V15.787C5.68359 15.6704 5.63729 15.5587 5.55488 15.4762C5.47247 15.3938 5.36069 15.3475 5.24414 15.3475C5.12759 15.3475 5.01581 15.3938 4.9334 15.4762C4.85099 15.5587 4.80469 15.6704 4.80469 15.787V15.7929C4.80469 15.9095 4.85099 16.0212 4.9334 16.1036C5.01581 16.1861 5.12759 16.2324 5.24414 16.2324ZM26.9238 19.4517C27.0109 19.4518 27.096 19.4261 27.1685 19.3779C27.241 19.3296 27.2975 19.261 27.331 19.1806C27.3644 19.1002 27.3733 19.0117 27.3564 18.9263C27.3396 18.8409 27.2978 18.7624 27.2363 18.7007C27.1749 18.6391 27.0965 18.597 27.0111 18.5799C26.9258 18.5628 26.8373 18.5713 26.7568 18.6045C26.6763 18.6377 26.6075 18.694 26.559 18.7663C26.5105 18.8386 26.4845 18.9237 26.4844 19.0108V19.0137C26.4844 19.0713 26.4958 19.1284 26.5179 19.1816C26.54 19.2348 26.5724 19.2831 26.6132 19.3238C26.6541 19.3645 26.7025 19.3968 26.7558 19.4187C26.8091 19.4406 26.8662 19.4518 26.9238 19.4517ZM26.9238 16.0351C27.011 16.0354 27.0963 16.0098 27.169 15.9616C27.2417 15.9134 27.2984 15.8448 27.332 15.7643C27.3657 15.6839 27.3747 15.5952 27.3579 15.5097C27.3412 15.4241 27.2995 15.3454 27.238 15.2835C27.1766 15.2217 27.0981 15.1794 27.0127 15.1621C26.9272 15.1448 26.8385 15.1533 26.7579 15.1864C26.6772 15.2195 26.6082 15.2758 26.5595 15.3481C26.5108 15.4205 26.4847 15.5056 26.4844 15.5928V15.5985C26.4844 15.6561 26.4959 15.7131 26.518 15.7662C26.5401 15.8193 26.5726 15.8676 26.6134 15.9081C26.6542 15.9487 26.7027 15.9808 26.7559 16.0026C26.8092 16.0244 26.8663 16.0355 26.9238 16.0351ZM26.9238 17.7441C27.011 17.7444 27.0963 17.7188 27.169 17.6706C27.2417 17.6224 27.2984 17.5537 27.332 17.4732C27.3656 17.3928 27.3747 17.3042 27.3579 17.2186C27.3412 17.133 27.2994 17.0543 27.238 16.9925C27.1765 16.9306 27.0981 16.8884 27.0126 16.8711C26.9272 16.8538 26.8385 16.8623 26.7578 16.8954C26.6772 16.9285 26.6081 16.9848 26.5595 17.0571C26.5108 17.1295 26.4847 17.2146 26.4844 17.3018V17.3075C26.4844 17.365 26.4959 17.422 26.518 17.4751C26.5401 17.5283 26.5726 17.5765 26.6134 17.6171C26.6542 17.6577 26.7027 17.6898 26.7559 17.7116C26.8092 17.7334 26.8663 17.7444 26.9238 17.7441ZM5.18872 18.9258C5.13192 18.936 5.07767 18.9572 5.02908 18.9884C4.9805 19.0195 4.93852 19.0599 4.90554 19.1073C4.87257 19.1546 4.84925 19.208 4.83691 19.2644C4.82458 19.3208 4.82346 19.379 4.83364 19.4358L4.83693 19.4528C4.85544 19.5369 4.89828 19.6138 4.96014 19.6738C5.022 19.7338 5.10015 19.7743 5.18485 19.7903C5.26955 19.8062 5.35707 19.7969 5.43652 19.7635C5.51597 19.7301 5.58385 19.6741 5.6317 19.6024C5.67955 19.5307 5.70527 19.4466 5.70566 19.3604C5.70605 19.2742 5.68108 19.1898 5.63387 19.1177C5.58666 19.0456 5.51929 18.9889 5.44015 18.9548C5.361 18.9207 5.27356 18.9106 5.18872 18.9258ZM8.37636 19.8633C8.25981 19.8633 8.14803 19.9096 8.06562 19.992C7.98321 20.0744 7.93691 20.1862 7.93691 20.3027C7.93691 20.4193 7.98321 20.5311 8.06562 20.6135C8.14803 20.6959 8.25981 20.7422 8.37636 20.7422H8.38228C8.49883 20.7422 8.61061 20.6959 8.69302 20.6135C8.77544 20.5311 8.82174 20.4193 8.82174 20.3027C8.82174 20.1862 8.77544 20.0744 8.69302 19.992C8.61061 19.9096 8.49883 19.8633 8.38228 19.8633H8.37636ZM5.2262 5.51359C5.23273 5.51388 5.23919 5.51402 5.24566 5.51402C5.33206 5.51456 5.41673 5.48979 5.48922 5.44276C5.56171 5.39573 5.61884 5.32851 5.65357 5.24938C5.68829 5.17026 5.69909 5.0827 5.68462 4.99751C5.67016 4.91232 5.63106 4.83323 5.57217 4.77001C5.51327 4.70678 5.43715 4.66218 5.3532 4.64172C5.26926 4.62125 5.18115 4.62582 5.09977 4.65485C5.01838 4.68388 4.94728 4.7361 4.89523 4.80508C4.84318 4.87405 4.81247 4.95676 4.80689 5.04298L4.80626 5.05526C4.80119 5.17172 4.84259 5.28542 4.92134 5.37137C5.00008 5.45732 5.10974 5.50848 5.2262 5.51359ZM6.41358 4.39453H6.41953C6.53609 4.39406 6.64768 4.34732 6.72976 4.26457C6.81184 4.18183 6.8577 4.06987 6.85723 3.95332C6.85676 3.83677 6.81001 3.72518 6.72727 3.64309C6.64453 3.56101 6.53257 3.51516 6.41602 3.51563H6.41358C6.29703 3.51563 6.18526 3.56192 6.10284 3.64434C6.02043 3.72675 5.97413 3.83853 5.97413 3.95508C5.97413 4.07163 6.02043 4.1834 6.10284 4.26582C6.18526 4.34823 6.29703 4.39453 6.41358 4.39453ZM5.24414 14.4459C5.36069 14.4459 5.47247 14.3996 5.55488 14.3172C5.63729 14.2348 5.68359 14.123 5.68359 14.0065V14.0005C5.68359 13.884 5.63729 13.7722 5.55488 13.6898C5.47247 13.6074 5.36069 13.5611 5.24414 13.5611C5.12759 13.5611 5.01581 13.6074 4.9334 13.6898C4.85099 13.7722 4.80469 13.884 4.80469 14.0005V14.0065C4.80469 14.123 4.85099 14.2348 4.9334 14.3172C5.01581 14.3996 5.12759 14.4459 5.24414 14.4459ZM8.20004 4.39453H8.20596C8.32251 4.39453 8.43428 4.34823 8.5167 4.26582C8.59911 4.1834 8.64541 4.07163 8.64541 3.95508C8.64541 3.83853 8.59911 3.72675 8.5167 3.64434C8.43428 3.56192 8.32251 3.51563 8.20596 3.51563H8.20004C8.08348 3.51563 7.97171 3.56192 7.8893 3.64434C7.80688 3.72675 7.76058 3.83853 7.76058 3.95508C7.76058 4.07163 7.80688 4.1834 7.8893 4.26582C7.97171 4.34823 8.08348 4.39453 8.20004 4.39453ZM6.58991 19.8633C6.47336 19.8633 6.36158 19.9096 6.27917 19.992C6.19675 20.0744 6.15046 20.1862 6.15046 20.3027C6.15046 20.4193 6.19675 20.5311 6.27917 20.6135C6.36158 20.6959 6.47336 20.7422 6.58991 20.7422H6.59586C6.71241 20.7422 6.82419 20.6959 6.9066 20.6135C6.98901 20.5311 7.03531 20.4193 7.03531 20.3027C7.03531 20.1862 6.98901 20.0744 6.9066 19.992C6.82419 19.9096 6.71241 19.8633 6.59586 19.8633H6.58991ZM5.24414 12.6595C5.36069 12.6595 5.47247 12.6132 5.55488 12.5308C5.63729 12.4484 5.68359 12.3366 5.68359 12.22V12.2141C5.68359 12.0976 5.63729 11.9858 5.55488 11.9034C5.47247 11.821 5.36069 11.7747 5.24414 11.7747C5.12759 11.7747 5.01581 11.821 4.9334 11.9034C4.85099 11.9858 4.80469 12.0976 4.80469 12.2141V12.22C4.80469 12.3366 4.85099 12.4484 4.9334 12.5308C5.01581 12.6132 5.12759 12.6595 5.24414 12.6595ZM5.24414 10.8731C5.36069 10.8731 5.47247 10.8268 5.55488 10.7443C5.63729 10.6619 5.68359 10.5502 5.68359 10.4336V10.4277C5.68359 10.3111 5.63729 10.1994 5.55488 10.1169C5.47247 10.0345 5.36069 9.98823 5.24414 9.98823C5.12759 9.98823 5.01581 10.0345 4.9334 10.1169C4.85099 10.1994 4.80469 10.3111 4.80469 10.4277V10.4336C4.80469 10.5502 4.85099 10.6619 4.9334 10.7443C5.01581 10.8268 5.12759 10.8731 5.24414 10.8731ZM5.24414 9.08664C5.36069 9.08664 5.47247 9.04034 5.55488 8.95792C5.63729 8.87551 5.68359 8.76373 5.68359 8.64719V8.64123C5.68359 8.52468 5.63729 8.41291 5.55488 8.33049C5.47247 8.24808 5.36069 8.20178 5.24414 8.20178C5.12759 8.20178 5.01581 8.24808 4.9334 8.33049C4.85099 8.41291 4.80469 8.52468 4.80469 8.64123V8.64719C4.80469 8.76373 4.85099 8.87551 4.9334 8.95792C5.01581 9.04034 5.12759 9.08664 5.24414 9.08664ZM5.24414 7.30019C5.36069 7.30019 5.47247 7.25389 5.55488 7.17147C5.63729 7.08906 5.68359 6.97728 5.68359 6.86073V6.85481C5.68359 6.73826 5.63729 6.62648 5.55488 6.54407C5.47247 6.46166 5.36069 6.41536 5.24414 6.41536C5.12759 6.41536 5.01581 6.46166 4.9334 6.54407C4.85099 6.62648 4.80469 6.73826 4.80469 6.85481V6.86073C4.80469 6.97728 4.85099 7.08906 4.9334 7.17147C5.01581 7.25389 5.12759 7.30019 5.24414 7.30019Z" fill="black"/>
</g>
<defs>
<clipPath id="clip0_2236_16">
<rect width="30" height="30" fill="white"/>
</clipPath>
</defs>
</svg>
