<svg width="40" height="40" viewBox="0 0 40 40" fill="none" xmlns="http://www.w3.org/2000/svg">
<path d="M20 40C31.0457 40 40 31.0457 40 20C40 8.9543 31.0457 3.68061e-09 20 2.37109e-09C8.9543 1.06157e-09 -1.17336e-09 8.9543 -2.62078e-09 20C-4.06819e-09 31.0457 8.9543 40 20 40Z" fill="#1B9BAA"/>
<path opacity="0.1" d="M25.6652 7.57813L20.022 7.57812L20.022 39.9366L20.0229 39.9366C30.425 39.9366 38.9709 31.9953 39.9318 21.8448L25.6652 7.57813Z" fill="black"/>
<path d="M27.3444 28.1297C21.5287 28.1297 22.8262 25.2776 22.4316 22.4219L17.6118 22.4219C17.2173 25.2776 18.5148 28.1297 12.699 28.1297C8.98231 28.1297 7.71411 29.7584 7.71411 33.3413L7.71411 35.7553C11.1079 38.4086 15.38 39.9903 20.0218 39.9903C24.6636 39.9903 28.9356 38.4086 32.3294 35.7554L32.3294 33.3413C32.3293 29.7583 31.0611 28.1297 27.3444 28.1297Z" fill="#FFD0AE"/>
<path opacity="0.1" d="M22.5307 24.0781C22.518 23.5887 22.5012 23.0835 22.4314 22.5781L17.6116 22.5781C17.5421 23.0812 17.5251 23.5841 17.5125 24.0713C18.2098 24.5183 19.0389 24.7869 20.0268 24.7869C21.0098 24.787 21.8355 24.521 22.5307 24.0781Z" fill="black"/>
<path d="M27.3444 28.132C26.5857 28.132 25.949 28.083 25.4129 27.9922L20.0218 28.5797L14.6307 27.9922C14.0945 28.083 13.4578 28.132 12.699 28.132C8.98231 28.132 7.71411 29.7606 7.71411 33.3436L7.71411 35.7576C11.1079 38.4109 15.38 39.9926 20.0218 39.9926C24.6636 39.9926 28.9356 38.4109 32.3294 35.7577L32.3294 33.3436C32.3293 29.7605 31.0611 28.132 27.3444 28.132Z" fill="#9DD6FF"/>
<path d="M22.4913 28.6094L17.5513 28.6094L19.2619 30.8579L18.8042 39.9512C19.1939 39.9738 19.5863 39.9866 19.9818 39.9866C20.4039 39.9866 20.8224 39.972 21.2381 39.9462L20.7807 30.8579L22.4913 28.6094Z" fill="#58595B"/>
<path d="M27.3442 28.132C26.5855 28.132 25.9489 28.083 25.4127 27.9922L20.0269 38.7165L14.6304 27.9922C14.0943 28.083 13.4575 28.132 12.6988 28.132C8.98207 28.132 7.71387 29.7606 7.71387 33.3436L7.71387 35.7576C11.1076 38.4109 15.3797 39.9926 20.0215 39.9926C24.6633 39.9926 28.9353 38.4109 32.3292 35.7577L32.3292 33.3436C32.3292 29.7605 31.061 28.132 27.3442 28.132Z" fill="#F9F9F9"/>
<path opacity="0.2" d="M19.2627 30.8633L20.7814 30.8633C20.7814 30.8633 20.3959 31.0016 20.0221 31.0016C19.6482 31.0016 19.2627 30.8633 19.2627 30.8633Z" fill="black"/>
<path d="M17.3248 25.9453L16.9543 25.9453L14.6118 27.9669L17.126 31.5262L20.0217 28.5808L17.3248 25.9453Z" fill="#9DD6FF"/>
<path d="M22.7268 25.9453L23.0892 25.9453L25.4317 27.9669L22.9176 31.5262L20.022 28.5808L22.7268 25.9453Z" fill="#9DD6FF"/>
<path d="M14.1764 18.7139C14.7718 18.7139 15.2545 18.1449 15.2545 17.4429C15.2545 16.7409 14.7718 16.1719 14.1764 16.1719C13.581 16.1719 13.0984 16.7409 13.0984 17.4429C13.0984 18.1449 13.581 18.7139 14.1764 18.7139Z" fill="#FFD0AE"/>
<path d="M25.8774 18.7139C26.4728 18.7139 26.9554 18.1449 26.9554 17.4429C26.9554 16.7409 26.4728 16.1719 25.8774 16.1719C25.282 16.1719 24.7993 16.7409 24.7993 17.4429C24.7993 18.1449 25.282 18.7139 25.8774 18.7139Z" fill="#FFD0AE"/>
<path d="M21.0996 8.32031L18.9555 8.32031C16.136 8.32031 13.8503 11.627 13.8503 14.4465C13.8503 14.4465 14.0154 24.3505 20.0275 24.3505C26.0397 24.3505 26.2047 14.4465 26.2047 14.4465C26.2047 11.627 23.9191 8.32031 21.0996 8.32031Z" fill="#FFD0AE"/>
<path opacity="0.1" d="M25.8377 14.6778C25.5945 13.4105 23.8618 12.8685 23.2434 10.0977C21.8924 14.0594 15.1581 14.1818 14.5682 14.6778C14.1766 15.0071 14.1537 15.7334 14.1825 16.1846C14.2095 15.8102 14.3063 15.4125 14.5682 15.1923C15.1581 14.6962 21.8924 14.5737 23.2434 10.6121C23.8618 13.383 25.5945 13.925 25.8377 15.1923C25.8939 15.4854 25.9228 15.7427 25.9353 15.9673C25.9553 15.6576 25.9433 15.2284 25.8377 14.6778Z" fill="black"/>
<path d="M26.4118 16.342C27.3218 14.9756 28.3752 6.54834 23.2438 6.76568C18.7144 2.88615 10.559 8.05974 13.6428 16.342L14.2254 16.7088C14.2254 16.7088 13.9787 15.3115 14.5687 14.8154C15.1586 14.3194 21.8928 14.197 23.2439 10.2353C23.8623 13.0062 25.595 13.5482 25.8381 14.8154C26.0812 16.0828 25.8292 16.7088 25.8292 16.7088L26.4118 16.342Z" fill="#414042"/>
<path opacity="0.1" d="M17.1256 31.837L20.0213 28.813L22.9169 31.837L25.6645 28.0305L25.6626 28.03C25.5771 28.0183 25.4933 28.0059 25.4125 27.9922L22.917 31.5251L20.0214 28.5797L17.1257 31.5251L14.6303 27.9922C14.5494 28.0059 14.4656 28.0183 14.3801 28.03L14.3782 28.0305L17.1256 31.837Z" fill="black"/>
<path d="M16.3061 26.5L12.6987 28.1285L15.7623 30.8604L14.2519 31.8334L20.0268 38.713L16.3061 26.5Z" fill="white"/>
<path d="M23.7476 26.5L27.3549 28.1285L24.2914 30.8604L25.8018 31.8334L20.0269 38.713L23.7476 26.5Z" fill="white"/>
<path opacity="0.1" d="M27.3572 28.1289L24.2847 30.8609L24.4881 30.992L27.644 28.1329C27.5497 28.1306 27.4547 28.1289 27.3572 28.1289Z" fill="black"/>
<path opacity="0.1" d="M12.672 28.1289L15.7445 30.8609L15.5411 30.992L12.3853 28.1329C12.4795 28.1306 12.5744 28.1289 12.672 28.1289Z" fill="black"/>
<path opacity="0.1" d="M25.6317 32.0391L20.027 38.7158L14.4224 32.0391L14.2522 32.1487L20.027 39.0487L25.802 32.1487L25.6317 32.0391Z" fill="black"/>
</svg>
