<svg width="17" height="23" viewBox="0 0 17 23" fill="none" xmlns="http://www.w3.org/2000/svg">
<path d="M0.6875 22.6875H16.3125C16.3788 22.6875 16.4424 22.6612 16.4893 22.6143C16.5362 22.5674 16.5625 22.5038 16.5625 22.4375V17.75C16.5625 13.9525 14.21 11.3 10.845 11.3C10.8066 11.2994 10.7686 11.3077 10.7339 11.3242C10.6992 11.3406 10.6688 11.3649 10.645 11.395C10.25 11.9175 9.45 12.25 8.5775 12.2675C7.6575 12.285 6.8275 11.9575 6.3475 11.3875C6.32403 11.3601 6.29489 11.338 6.26209 11.3229C6.22929 11.3078 6.19361 11.3 6.1575 11.3C2.79 11.3 0.4375 13.9525 0.4375 17.75V22.4375C0.4375 22.5038 0.463839 22.5674 0.510723 22.6143C0.557607 22.6612 0.621196 22.6875 0.6875 22.6875ZM8.5875 12.7675C9.1774 12.7636 9.75747 12.616 10.2775 12.3375L8.5 17.0425L6.715 12.3175C7.28776 12.6321 7.93434 12.7875 8.5875 12.7675ZM0.9375 17.75C0.9375 14.935 2.2525 12.855 4.345 12.105V14.42C3.96072 14.4801 3.61044 14.6752 3.35706 14.9702C3.10367 15.2653 2.96378 15.6411 2.9625 16.03V18.65C2.9625 18.7163 2.98884 18.7799 3.03572 18.8268C3.08261 18.8737 3.1462 18.9 3.2125 18.9H3.8125V18.4H3.4625V16.03C3.49442 15.754 3.62668 15.4994 3.83411 15.3146C4.04154 15.1297 4.30967 15.0276 4.5875 15.0276C4.86532 15.0276 5.13346 15.1297 5.34089 15.3146C5.54832 15.4994 5.68058 15.754 5.7125 16.03V18.4H5.375V18.9H5.975C6.0413 18.9 6.10489 18.8737 6.15178 18.8268C6.19866 18.7799 6.225 18.7163 6.225 18.65V16.03C6.22381 15.6414 6.08427 15.266 5.83139 14.9709C5.57851 14.6759 5.22882 14.4806 4.845 14.42V11.9575C5.21823 11.8649 5.60055 11.8137 5.985 11.805L8.265 17.8375C8.28252 17.8858 8.31447 17.9275 8.35651 17.9569C8.39856 17.9864 8.44866 18.0022 8.5 18.0022C8.55134 18.0022 8.60144 17.9864 8.64349 17.9569C8.68553 17.9275 8.71748 17.8858 8.735 17.8375L11.015 11.805C11.4756 11.8164 11.9328 11.8878 12.375 12.0175V15.19C12.1277 15.2511 11.9114 15.4005 11.7668 15.6102C11.6222 15.8199 11.5594 16.0752 11.5901 16.328C11.6209 16.5808 11.7431 16.8136 11.9338 16.9825C12.1244 17.1514 12.3703 17.2446 12.625 17.2446C12.8797 17.2446 13.1256 17.1514 13.3162 16.9825C13.5069 16.8136 13.6291 16.5808 13.6599 16.328C13.6906 16.0752 13.6278 15.8199 13.4832 15.6102C13.3386 15.4005 13.1222 15.2511 12.875 15.19V12.19C14.84 13 16.0625 15.035 16.0625 17.75V22.1875H0.9375V17.75ZM12.625 15.6575C12.7323 15.6575 12.8372 15.6893 12.9264 15.7489C13.0156 15.8085 13.0851 15.8933 13.1262 15.9924C13.1673 16.0915 13.178 16.2006 13.1571 16.3058C13.1361 16.4111 13.0845 16.5077 13.0086 16.5836C12.9327 16.6595 12.8361 16.7111 12.7308 16.7321C12.6256 16.753 12.5165 16.7423 12.4174 16.7012C12.3183 16.6601 12.2335 16.5906 12.1739 16.5014C12.1143 16.4122 12.0825 16.3073 12.0825 16.2C12.0825 16.0561 12.1397 15.9181 12.2414 15.8164C12.3431 15.7147 12.4811 15.6575 12.625 15.6575ZM4.3175 6.7075H4.405C4.56466 7.67837 5.06407 8.56094 5.81412 9.19773C6.56418 9.83451 7.51609 10.1841 8.5 10.1841C9.48391 10.1841 10.4358 9.83451 11.1859 9.19773C11.9359 8.56094 12.4353 7.67837 12.595 6.7075H12.6825C13.0898 6.7075 13.4805 6.54586 13.7688 6.25806C14.0571 5.97026 14.2193 5.57984 14.22 5.1725V4.9225C14.2193 4.66965 14.1184 4.42738 13.9394 4.24883C13.7604 4.07027 13.5178 3.97 13.265 3.97H12.6575V2.6725C12.6568 2.04679 12.408 1.4469 11.9655 1.00446C11.5231 0.562016 10.9232 0.313162 10.2975 0.3125H6.7025C6.07702 0.313163 5.47739 0.562097 5.03534 1.00461C4.5933 1.44713 4.345 2.04702 4.345 2.6725V3.97H3.735C3.48258 3.97066 3.24069 4.07122 3.06221 4.24971C2.88372 4.42819 2.78316 4.67008 2.7825 4.9225V5.1725C2.7825 5.57961 2.94422 5.97004 3.23209 6.25791C3.51996 6.54578 3.91039 6.7075 4.3175 6.7075ZM12.6575 6.0325V4.47H13.265C13.3852 4.47 13.5006 4.51759 13.5859 4.60238C13.6711 4.68717 13.7193 4.80226 13.72 4.9225V5.1725C13.7193 5.44723 13.6097 5.71048 13.4152 5.90451C13.2207 6.09854 12.9572 6.2075 12.6825 6.2075H12.6575V6.0325ZM8.5 9.6875C7.72577 9.68695 6.97169 9.44073 6.34632 8.98428C5.72095 8.52783 5.25656 7.88471 5.02 7.1475C5.075 6.725 6.4575 6.2825 8.5 6.2825C9.34148 6.27086 10.1812 6.36323 11 6.5575C11.59 6.72 11.95 6.9375 11.9775 7.1475C11.7411 7.8843 11.2771 8.52713 10.6522 8.98354C10.0273 9.43995 9.2738 9.68642 8.5 9.6875ZM4.845 4.22V2.6725C4.845 2.17963 5.04062 1.70691 5.3889 1.35816C5.73717 1.00942 6.20963 0.813162 6.7025 0.8125H10.2975C10.7906 0.813161 11.2633 1.00934 11.612 1.35801C11.9607 1.70669 12.1568 2.1794 12.1575 2.6725V4.7075C11.9434 4.71583 11.7298 4.67945 11.5306 4.60068C11.3313 4.52191 11.1506 4.40248 11 4.25C10.56 3.75 10.6925 2.9525 10.695 2.9475C10.7054 2.89202 10.6968 2.83465 10.6704 2.78472C10.6441 2.73479 10.6017 2.69524 10.55 2.6725C10.4986 2.6498 10.441 2.64511 10.3865 2.65917C10.3321 2.67323 10.284 2.70523 10.25 2.75C9.085 4.27 5.6775 4.625 4.84 4.69L4.845 4.22ZM4.845 5.1975C5.595 5.145 8.6325 4.855 10.195 3.5325C10.2295 3.91627 10.3794 4.28059 10.625 4.5775C10.8211 4.78527 11.0592 4.94891 11.3234 5.05753C11.5876 5.16616 11.872 5.21728 12.1575 5.2075V6.0325C12.1555 6.19979 12.1429 6.36678 12.12 6.5325C11.4275 5.995 9.87 5.7825 8.5 5.7825C7.13 5.7825 5.5725 5.985 4.88 6.5325C4.85789 6.36673 4.8462 6.19973 4.845 6.0325V5.1975ZM3.2825 4.9225C3.2825 4.80249 3.33017 4.68739 3.41503 4.60253C3.49989 4.51767 3.61499 4.47 3.735 4.47H4.345V6.22H4.3175C4.043 6.22 3.77974 6.11096 3.58564 5.91685C3.39154 5.72275 3.2825 5.4595 3.2825 5.185V4.9225Z" fill="#01AB84"/>
</svg>
