<svg width="123" height="122" viewBox="0 0 123 122" fill="none" xmlns="http://www.w3.org/2000/svg">
<path d="M122 53.9002C122.001 65.7643 118.014 77.2844 110.68 86.6102C110.24 87.1802 109.78 87.7402 109.31 88.2902C109.248 88.3551 109.181 88.4153 109.11 88.4702C109.035 88.52 108.955 88.5603 108.87 88.5902L58.42 105.69H58.24H58.1H57.89C57.32 105.57 56.76 105.44 56.19 105.3C55.45 105.12 54.71 104.92 53.97 104.69C53.23 104.46 52.64 104.29 51.97 104.06L51.7 104C51.5289 103.942 51.3769 103.838 51.26 103.7L16.87 62.5402C16.757 62.3978 16.6813 62.2293 16.65 62.0502C16.65 61.7002 16.55 61.3502 16.51 61.0502C16.41 60.3902 16.34 59.7202 16.28 59.0502C16.11 57.3502 16.03 55.6502 16.03 53.9502C16.03 24.6791 39.7589 0.950195 69.03 0.950195C98.3011 0.950195 122.03 24.6791 122.03 53.9502L122 53.9002Z" fill="#FFBC00"/>
<path d="M51.19 102.8L16.81 61.64C16.697 61.4976 16.6213 61.3291 16.59 61.15C16.1887 58.452 15.9915 55.7276 16 53C16.0386 23.7449 39.7449 0.03856 69 0C69.74 0 70.48 0 71.22 0C42.8134 1.19493 20.397 24.5682 20.39 53C20.3881 55.7281 20.592 58.4525 21 61.15C21.0273 61.3303 21.1034 61.4998 21.22 61.64L52 98.43C52 98.43 51.31 102.93 51.19 102.8Z" fill="#E8A207"/>
<path d="M108 53C108.015 66.3055 101.224 78.6944 90 85.84C89.879 85.9182 89.7426 85.9694 89.6 85.99L58.3 90.43H58.16C58.0673 90.4453 57.9727 90.4453 57.88 90.43C56.88 90.14 55.88 89.81 54.95 89.43C53.5051 88.8814 52.0957 88.2435 50.73 87.52C50.6009 87.4519 50.4882 87.3563 50.4 87.24L31 61.6C30.9104 61.4858 30.8487 61.3523 30.82 61.21C30.6 60.15 30.41 59.08 30.28 58C30.0819 56.3408 29.9884 54.6709 30 53C30 31.4609 47.4609 14 69 14C90.5391 14 108 31.4609 108 53Z" fill="#FFC600"/>
<path d="M55.1699 87.49C57.0962 88.5012 59.1031 89.3508 61.1699 90.03L58.3399 90.43H58.1999C58.1072 90.4453 58.0126 90.4453 57.9199 90.43C55.4462 89.6988 53.0512 88.7241 50.7699 87.52C50.6408 87.4519 50.5282 87.3563 50.4399 87.24L30.9999 61.6C30.9103 61.4858 30.8487 61.3523 30.8199 61.21C30.262 58.5093 29.9872 55.7577 29.9999 53C30.0275 31.4723 47.4723 14.0276 68.9999 14C69.7533 14 70.4933 14.02 71.2199 14.06C50.5558 15.2116 34.3897 32.3038 34.3899 53C34.3903 55.7591 34.6785 58.5107 35.2499 61.21C35.2787 61.3523 35.3403 61.4858 35.4299 61.6L54.8499 87.21C54.9353 87.3252 55.0444 87.4207 55.1699 87.49Z" fill="#F9BB0D"/>
<path d="M107.8 56.6402C107.74 57.2802 107.67 57.9202 107.57 58.5602C107.575 58.5833 107.575 58.6072 107.57 58.6302L101.5 58.2302C100.951 58.1826 100.544 57.6995 100.59 57.1502C100.613 56.8846 100.741 56.6391 100.945 56.4682C101.15 56.2973 101.415 56.2153 101.68 56.2402L107.8 56.6402Z" fill="#FFC600"/>
<path d="M80.9999 64C80.9956 57.7634 76.2148 52.5697 69.9999 52.05V32.05C74.0048 32.5545 77.0064 35.9635 76.9999 40C76.9999 40.5523 77.4477 41 77.9999 41C78.5522 41 78.9999 40.5523 78.9999 40C79 34.8643 75.1098 30.5636 69.9999 30.05V27C69.9999 26.4477 69.5522 26 68.9999 26C68.4477 26 67.9999 26.4477 67.9999 27V30.05C61.8224 30.6157 57.0942 35.7966 57.0942 42C57.0942 48.2034 61.8224 53.3843 67.9999 53.95V73.95C63.9951 73.4454 60.9935 70.0365 60.9999 66C60.9999 65.4477 60.5522 65 59.9999 65C59.4477 65 58.9999 65.4477 58.9999 66C58.9999 71.1357 62.89 75.4364 67.9999 75.95V78C67.9999 78.5523 68.4477 79 68.9999 79C69.5522 79 69.9999 78.5523 69.9999 78V75.95C76.2148 75.4303 80.9956 70.2366 80.9999 64ZM58.9999 42C58.9999 36.8643 62.89 32.5636 67.9999 32.05V51.95C62.89 51.4364 58.9999 47.1357 58.9999 42ZM69.9999 73.95V54.05C75.1103 54.563 79.0012 58.8639 79.0012 64C79.0012 69.1361 75.1103 73.437 69.9999 73.95Z" fill="#E8A207"/>
<path d="M70 0V6.2C70 6.75228 69.5523 7.2 69 7.2C68.4477 7.2 68 6.75228 68 6.2V0H70Z" fill="#FDF59A"/>
<path d="M74.6 0.300117L74.2 6.48012C74.1533 6.99698 73.7189 7.39223 73.2 7.39012H73.11C72.8443 7.3673 72.5988 7.23934 72.4279 7.03467C72.2571 6.83 72.175 6.56557 72.2 6.30012L72.6 0.120117C73.27 0.170117 73.93 0.230117 74.6 0.300117Z" fill="#FDF59A"/>
<path d="M65.67 6.29988C65.7222 6.84932 65.3194 7.33716 64.77 7.38988H64.68C64.1611 7.39199 63.7267 6.99674 63.68 6.47988L63.28 0.299883C63.94 0.229883 64.6 0.169883 65.28 0.129883L65.67 6.29988Z" fill="#FDF59A"/>
<path d="M70 14V20.2C70 20.7523 69.5523 21.2 69 21.2C68.4477 21.2 68 20.7523 68 20.2V14H70Z" fill="#FDF59A"/>
<path d="M74.5799 14.4099L74.1899 20.4799C74.1432 20.9968 73.7089 21.392 73.1899 21.3899H73.0999C72.8343 21.3671 72.5888 21.2391 72.4179 21.0345C72.247 20.8298 72.165 20.5654 72.1899 20.2999L72.5799 14.1699C73.2599 14.2299 73.9299 14.3099 74.5799 14.4099Z" fill="#FDF59A"/>
<path d="M65.67 20.2999C65.7222 20.8494 65.3194 21.3372 64.77 21.3899H64.68C64.1611 21.392 63.7267 20.9968 63.68 20.4799L63.29 14.4099C63.95 14.3199 64.61 14.2399 65.29 14.1699L65.67 20.2999Z" fill="#FDF59A"/>
<path d="M122 53C122 53.33 122 53.67 122 54H115.81C115.258 54 114.81 53.5523 114.81 53C114.81 52.4477 115.258 52 115.81 52H122C122 52.33 122 52.67 122 53Z" fill="#FDF59A"/>
<path d="M121.83 56.64C121.83 57.31 121.73 57.97 121.65 58.64L115.48 58.24C114.931 58.1923 114.524 57.7093 114.57 57.16C114.593 56.8944 114.721 56.6488 114.925 56.478C115.13 56.3071 115.395 56.225 115.66 56.25L121.83 56.64Z" fill="#FDF59A"/>
<path d="M121.83 49.2998L115.66 49.6998H115.57C115.018 49.7247 114.55 49.2971 114.525 48.7448C114.5 48.1925 114.928 47.7247 115.48 47.6998L121.66 47.2998C121.74 47.9998 121.8 48.6298 121.83 49.2998Z" fill="#FDF59A"/>
<path d="M108 53C108 53.33 108 53.67 108 54H101.82C101.268 54 100.82 53.5523 100.82 53C100.82 52.4477 101.268 52 101.82 52H108C108 52.33 108 52.66 108 53Z" fill="#FDF59A"/>
<path d="M107.8 56.64C107.74 57.28 107.57 58.64 107.56 58.64L101.49 58.24C100.941 58.1923 100.534 57.7093 100.58 57.16C100.603 56.8944 100.731 56.6488 100.935 56.478C101.14 56.3071 101.405 56.225 101.67 56.25L107.8 56.64Z" fill="#FDF59A"/>
<path d="M107.8 49.2998L101.67 49.6898H101.58C101.028 49.7147 100.56 49.2871 100.535 48.7348C100.51 48.1825 100.938 47.7147 101.49 47.6898L107.56 47.2998C107.64 47.9998 107.73 48.6298 107.8 49.2998Z" fill="#FDF59A"/>
<path d="M23.17 53C23.17 53.5523 22.7223 54 22.17 54H16C16 53.67 16 53.33 16 53C16 52.67 16 52.33 16 52H22.19C22.7345 52.0109 23.1701 52.4554 23.17 53Z" fill="#FDF59A"/>
<path d="M23.36 48.8499C23.3133 49.3667 22.8789 49.762 22.36 49.7599H22.27L16.09 49.3599C16.09 48.6899 16.2 48.0299 16.27 47.3599L22.45 47.7599C22.7156 47.7827 22.9611 47.9106 23.132 48.1153C23.3029 48.32 23.3849 48.5844 23.36 48.8499Z" fill="#FDF59A"/>
<path d="M23.36 57.2C23.385 57.4655 23.3029 57.7299 23.132 57.9346C22.9612 58.1393 22.7156 58.2672 22.45 58.29L16.28 58.69C16.2 58.03 16.14 57.36 16.11 56.69L22.27 56.29C22.5354 56.2651 22.7999 56.3471 23.0045 56.518C23.2092 56.6889 23.3372 56.9344 23.36 57.2Z" fill="#FDF59A"/>
<path d="M37.17 53C37.17 53.5523 36.7223 54 36.17 54H30C30 53.67 30 53.33 30 53C30 52.67 30 52.33 30 52H36.19C36.7345 52.0109 37.1701 52.4554 37.17 53Z" fill="#FDF59A"/>
<path d="M37.36 48.8501C37.3133 49.367 36.879 49.7622 36.36 49.7601H36.27L30.14 49.3701C30.2 48.7001 30.28 48.0401 30.38 47.3701L36.45 47.7601C36.7157 47.7829 36.9612 47.9109 37.1321 48.1156C37.3029 48.3202 37.385 48.5847 37.36 48.8501Z" fill="#FDF59A"/>
<path d="M37.36 57.2002C37.385 57.4657 37.3029 57.7301 37.1321 57.9348C36.9612 58.1394 36.7157 58.2674 36.45 58.2902L30.39 58.6702C30.28 58.0102 30.2 57.3602 30.15 56.6702L36.27 56.2802C36.5371 56.2553 36.8029 56.3387 37.0079 56.5117C37.2129 56.6847 37.3397 56.9328 37.36 57.2002Z" fill="#FDF59A"/>
<path d="M105.25 83H62.1C58.8305 83 56.18 85.6505 56.18 88.92V93.08C56.1769 94.5274 56.7115 95.9244 57.68 97C56.7115 98.0756 56.1769 99.4726 56.18 100.92V105.08C56.175 105.163 56.175 105.247 56.18 105.33C56.75 105.47 57.31 105.6 57.88 105.72H58.09H58.23C58.1897 105.506 58.1696 105.288 58.17 105.07V100.91C58.1715 99.6782 58.7579 98.5202 59.75 97.79L60.81 96.99L59.75 96.19C58.7579 95.4598 58.1715 94.3018 58.17 93.07V88.92C58.1755 86.7534 59.9334 85 62.1 85H105.26C107.253 85.0027 108.926 86.4999 109.15 88.48C109.221 88.4251 109.288 88.3649 109.35 88.3C109.82 87.75 110.28 87.19 110.72 86.62C109.789 84.4247 107.635 82.9993 105.25 83Z" fill="#FFBC00"/>
<path d="M110.17 93.08V88.92C110.17 86.2067 107.973 84.0055 105.26 84H62.09C59.3728 84 57.17 86.2028 57.17 88.92V93.09C57.1795 94.6394 57.9211 96.093 59.17 97.01C57.9211 97.927 57.1795 99.3806 57.17 100.93V105.1C57.1795 106.649 57.9211 108.103 59.17 109.02C57.9211 109.937 57.1795 111.391 57.17 112.94V117.11C57.1865 119.816 59.3845 122 62.09 122H105.26C107.977 122 110.18 119.797 110.18 117.08V112.91C110.171 111.361 109.429 109.907 108.18 108.99C109.429 108.073 110.171 106.619 110.18 105.07V100.9C110.171 99.3506 109.429 97.897 108.18 96.98C109.42 96.0651 110.157 94.6206 110.17 93.08Z" fill="#FFC600"/>
<path d="M69.0001 122H62.1001C59.3851 121.995 57.1856 119.795 57.1801 117.08V112.92C57.1863 111.37 57.9286 109.915 59.1801 109C57.9286 108.085 57.1863 106.63 57.1801 105.08V100.92C57.1863 99.3698 57.9286 97.9148 59.1801 97C57.9286 96.0852 57.1863 94.6302 57.1801 93.08V88.92C57.1856 86.205 59.3851 84.0055 62.1001 84H69.0001C66.2828 84 64.0801 86.2028 64.0801 88.92V93.08C64.0863 94.6302 64.8286 96.0852 66.0801 97C64.8286 97.9148 64.0863 99.3698 64.0801 100.92V105.08C64.0863 106.63 64.8286 108.085 66.0801 109C64.8286 109.915 64.0863 111.37 64.0801 112.92V117.08C64.0801 119.797 66.2828 122 69.0001 122Z" fill="#E8A207"/>
<path d="M109.18 98H58.1801C58.4609 97.618 58.7981 97.2809 59.1801 97C58.7981 96.7191 58.4609 96.382 58.1801 96H109.18C108.899 96.382 108.562 96.7191 108.18 97C108.562 97.2809 108.899 97.618 109.18 98Z" fill="#FFBC00"/>
<path d="M109.18 110H58.1801C58.4609 109.618 58.7981 109.281 59.1801 109C58.7981 108.719 58.4609 108.382 58.1801 108H109.18C108.899 108.382 108.562 108.719 108.18 109C108.562 109.281 108.899 109.618 109.18 110Z" fill="#FFBC00"/>
<path d="M54 64.9201C54.0002 63.336 53.3655 61.818 52.2379 60.7054C51.1103 59.5929 49.5839 58.9787 48 59.0001H16.29C16.35 59.6701 16.42 60.3401 16.52 61.0001H48C49.0527 60.9813 50.0688 61.3857 50.8208 62.1226C51.5727 62.8595 51.9975 63.8672 52 64.9201V69.0801C51.9985 70.3119 51.4121 71.4698 50.42 72.2L49.36 73.0001L50.42 73.8001C51.4121 74.5303 51.9985 75.6882 52 76.9201V81.0801C51.9985 82.3119 51.4121 83.4698 50.42 84.2001L49.36 85.0001L50.42 85.8001C51.4121 86.5303 51.9985 87.6882 52 88.9201V93.0801C51.9985 94.3119 51.4121 95.4698 50.42 96.2001L49.36 97.0001L50.42 97.8001C51.4121 98.5303 51.9985 99.6882 52 100.92V104.09C52.67 104.32 53.34 104.53 54 104.72V100.92C54.0031 99.4727 53.4685 98.0757 52.5 97.0001C53.4685 95.9244 54.0031 94.5275 54 93.0801V88.9201C53.9921 87.4673 53.4431 86.0697 52.46 85.0001C53.4431 83.9304 53.9921 82.5328 54 81.0801V76.9201C53.9921 75.4673 53.4431 74.0697 52.46 73.0001C53.4431 71.9304 53.9921 70.5328 54 69.0801V64.9201Z" fill="#FFBC00"/>
<path d="M53 69.0802V64.9202C53.0002 63.6013 52.4708 62.3376 51.5308 61.4126C50.5907 60.4876 49.3187 59.9787 48 60.0002H4.88C2.17839 60.0221 -8.99972e-05 62.2185 2.78854e-09 64.9202V69.0902C0.00941 70.6395 0.75106 72.0932 2 73.0102C0.75106 73.9271 0.00941 75.3808 2.78854e-09 76.9302V81.1002C0.00941 82.6495 0.75106 84.1032 2 85.0202C0.75106 85.9371 0.00941 87.3908 2.78854e-09 88.9402V93.1102C0.00941 94.6595 0.75106 96.1132 2 97.0302C0.75106 97.9471 0.00941 99.4008 2.78854e-09 100.95V105.12C0.00941 106.67 0.75106 108.123 2 109.04C0.75106 109.957 0.00941 111.411 2.78854e-09 112.96V117.13C0.02717 119.812 2.19777 121.978 4.88 122H48C49.3187 122.022 50.5907 121.513 51.5308 120.588C52.4708 119.663 53.0002 118.399 53 117.08V112.91C52.9874 111.364 52.2461 109.915 51 109C52.2489 108.083 52.9906 106.63 53 105.08V100.91C52.9874 99.3643 52.2461 97.915 51 97.0002C52.2489 96.0832 52.9906 94.6295 53 93.0802V88.9202C52.9906 87.3708 52.2489 85.9171 51 85.0002C52.2489 84.0832 52.9906 82.6295 53 81.0802V76.9202C52.9906 75.3708 52.2489 73.9171 51 73.0002C52.2489 72.0832 52.9906 70.6295 53 69.0802Z" fill="#FFC600"/>
<path d="M12.88 122H4.88C2.18067 121.973 0.00534 119.779 0 117.08V112.92C0.00622 111.37 0.74856 109.915 2 109C0.74856 108.085 0.00622 106.63 0 105.08V100.92C0.00622 99.3698 0.74856 97.9148 2 97C0.74856 96.0852 0.00622 94.6302 0 93.08V88.92C0.00622 87.3698 0.74856 85.9148 2 85C0.74856 84.0852 0.00622 82.6302 0 81.08V76.92C0.00622 75.3698 0.74856 73.9148 2 73C0.74856 72.0852 0.00622 70.6302 0 69.08V64.92C0.00534 62.2205 2.18067 60.0274 4.88 60H12.88C10.1807 60.0274 8.00534 62.2205 8 64.92V69.08C8.00622 70.6302 8.74856 72.0852 10 73C8.74856 73.9148 8.00622 75.3698 8 76.92V81.08C8.00622 82.6302 8.74856 84.0852 10 85C8.74856 85.9148 8.00622 87.3698 8 88.92V93.08C8.00622 94.6302 8.74856 96.0852 10 97C8.74856 97.9148 8.00622 99.3698 8 100.92V105.08C8.00622 106.63 8.74856 108.085 10 109C8.74856 109.915 8.00622 111.37 8 112.92V117.08C8.00534 119.779 10.1807 121.973 12.88 122Z" fill="#E8A207"/>
<path d="M52 74H1C1.28087 73.618 1.61804 73.2809 2 73C1.61804 72.7191 1.28087 72.382 1 72H52C51.7191 72.382 51.382 72.7191 51 73C51.382 73.2809 51.7191 73.618 52 74Z" fill="#FFBC00"/>
<path d="M52 86H1C1.28087 85.618 1.61804 85.2809 2 85C1.61804 84.7191 1.28087 84.382 1 84H52C51.7191 84.382 51.382 84.7191 51 85C51.382 85.2809 51.7191 85.618 52 86Z" fill="#FFBC00"/>
<path d="M52 98H1C1.28087 97.618 1.61804 97.2809 2 97C1.61804 96.7191 1.28087 96.382 1 96H52C51.7191 96.382 51.382 96.7191 51 97C51.382 97.2809 51.7191 97.618 52 98Z" fill="#FFBC00"/>
<path d="M52 110H1C1.28087 109.618 1.61804 109.281 2 109C1.61804 108.719 1.28087 108.382 1 108H52C51.7191 108.382 51.382 108.719 51 109C51.382 109.281 51.7191 109.618 52 110Z" fill="#FFBC00"/>
<path d="M69.9999 52.05V32.05C74.0048 32.5545 77.0064 35.9635 76.9999 40C76.9999 40.5523 77.4477 41 77.9999 41C78.5522 41 78.9999 40.5523 78.9999 40C79 34.8643 75.1098 30.5636 69.9999 30.05V27C69.9999 26.4477 69.5522 26 68.9999 26C68.4477 26 67.9999 26.4477 67.9999 27V30.05C61.8224 30.6157 57.0942 35.7966 57.0942 42C57.0942 48.2034 61.8224 53.3843 67.9999 53.95V73.95C63.9951 73.4454 60.9935 70.0365 60.9999 66C60.9999 65.4477 60.5522 65 59.9999 65C59.4477 65 58.9999 65.4477 58.9999 66C58.9999 71.1357 62.89 75.4364 67.9999 75.95V78C67.9999 78.5523 68.4477 79 68.9999 79C69.5522 79 69.9999 78.5523 69.9999 78V75.95C76.1775 75.3843 80.9056 70.2034 80.9056 64C80.9056 57.7966 76.1775 52.6157 69.9999 52.05ZM58.9999 42C58.9999 36.8643 62.89 32.5636 67.9999 32.05V51.95C62.89 51.4364 58.9999 47.1357 58.9999 42ZM69.9999 73.95V54.05C75.1103 54.563 79.0012 58.8639 79.0012 64C79.0012 69.1361 75.1103 73.437 69.9999 73.95Z" fill="#4D4845"/>
<path d="M121.78 57.8C121.927 56.2067 122 54.6067 122 53C122 51.39 121.92 49.8 121.77 48.22C121.77 48.22 121.77 48.22 121.77 48.15C121.77 48.08 121.77 48.15 121.77 48.09C119.371 22.6914 99.2421 2.59216 73.84 0.23H73.74C72.18 0.08 70.6 0 69 0C67.4 0 65.8 0.08 64.22 0.23H64.15H64.09C38.6914 2.62928 18.5922 22.7579 16.23 48.16C16.23 48.16 16.23 48.16 16.23 48.21C16.08 49.82 16 51.4 16 53C16 54.6 16.08 56.2 16.22 57.8C16.22 57.8 16.22 57.8 16.22 57.86C16.22 57.92 16.22 57.86 16.22 57.92C16.2867 58.5867 16.3633 59.2833 16.45 60.01H4.92C2.20666 60.01 0.00551 62.2067 0 64.92V69.09C0.01256 70.6358 0.75387 72.0851 2 73C0.75106 73.917 0.00941 75.3706 0 76.92V81.09C0.01256 82.6358 0.75387 84.0851 2 85C0.75106 85.917 0.00941 87.3706 0 88.92V93.09C0.01256 94.6358 0.75387 96.0851 2 97C0.75106 97.917 0.00941 99.3706 0 100.92V105.09C0.01256 106.636 0.75387 108.085 2 109C0.75106 109.917 0.00941 111.371 0 112.92V117.09C0.00551 119.803 2.20666 122 4.92 122H48.08C50.7972 122 53 119.797 53 117.08V112.91C52.9874 111.364 52.2461 109.915 51 109C52.2489 108.083 52.9906 106.629 53 105.08V103.53C54.4 103.97 55.79 104.35 57.21 104.67V105.08C57.2194 106.629 57.9611 108.083 59.21 109C57.9611 109.917 57.2194 111.371 57.21 112.92V117.09C57.2155 119.803 59.4167 122 62.13 122H105.3C108.017 122 110.22 119.797 110.22 117.08V112.91C110.211 111.361 109.469 109.907 108.22 108.99C109.469 108.073 110.211 106.619 110.22 105.07V100.9C110.211 99.3506 109.469 97.897 108.22 96.98C109.469 96.063 110.211 94.6094 110.22 93.06V88.92C110.218 88.2113 110.061 87.5116 109.76 86.87C116.607 78.62 120.791 68.4874 121.76 57.81L121.78 57.8ZM18.31 58.67L22.48 58.29C23.0323 58.2403 23.4397 57.7523 23.39 57.2C23.3403 56.6477 22.8523 56.2403 22.3 56.29L18.13 56.67C18.07 55.78 18.03 54.89 18.01 54H22.2C22.7523 54 23.2 53.5523 23.2 53C23.2 52.4477 22.7523 52 22.2 52H18C18 51.12 18.04 50.2467 18.12 49.38L22.28 49.76H22.37C22.9223 49.7848 23.3902 49.3573 23.415 48.805C23.4399 48.2527 23.0123 47.7848 22.46 47.76L18.29 47.38C20.945 23.7013 39.6154 5.00184 63.29 2.31L63.67 6.47C63.7167 6.98686 64.151 7.38211 64.67 7.38H64.76C65.0291 7.36473 65.2807 7.24145 65.4576 7.03813C65.6346 6.83481 65.722 6.56865 65.7 6.3L65.32 2.15C66.2067 2.08333 67.1 2.03333 68 2V6.2C68 6.75228 68.4477 7.2 69 7.2C69.5523 7.2 70 6.75228 70 6.2V2C70.88 2 71.7533 2.04 72.62 2.12L72.24 6.3C72.215 6.56545 72.2971 6.82988 72.468 7.03455C72.6388 7.23922 72.8844 7.36718 73.15 7.39H73.24C73.759 7.39211 74.1933 6.99686 74.24 6.48L74.62 2.31C98.2987 4.96504 116.998 23.6354 119.69 47.31L115.53 47.69C114.978 47.7148 114.55 48.1827 114.575 48.735C114.6 49.2873 115.068 49.7148 115.62 49.69H115.71L119.86 49.31C119.927 50.1967 119.967 51.0867 119.98 51.98H115.8C115.248 51.98 114.8 52.4277 114.8 52.98C114.8 53.5323 115.248 53.98 115.8 53.98H120C120 54.8533 119.96 55.7267 119.88 56.6L115.72 56.22C115.168 56.1703 114.68 56.5777 114.63 57.13C114.58 57.6823 114.988 58.1703 115.54 58.22L119.7 58.6C118.616 68.3604 114.738 77.6004 108.53 85.21C107.634 84.4238 106.482 83.9933 105.29 84H92.65C107.203 72.9012 112.081 53.1755 104.377 36.5734C96.6732 19.9714 78.461 10.9597 60.5893 14.9068C42.7176 18.8538 29.9949 34.6976 30 53C30.0051 55.3477 30.2193 57.6903 30.64 60H18.49C18.42 59.56 18.36 59.11 18.32 58.67H18.31ZM62.13 84C59.7389 84.0054 57.6993 85.7325 57.3 88.09C55.4239 87.4684 53.6013 86.6959 51.85 85.78C51.5982 85.4876 51.3129 85.2258 51 85C52.2489 84.083 52.9906 82.6294 53 81.08V76.92C52.9906 75.3706 52.2489 73.917 51 73C52.2489 72.083 52.9906 70.6294 53 69.08V64.92C53 62.2028 50.7972 60 48.08 60H32.67C32.58 59.55 32.5 59.11 32.43 58.66L36.43 58.29C36.9823 58.2403 37.3897 57.7523 37.34 57.2C37.2903 56.6477 36.8023 56.2403 36.25 56.29L32.13 56.66C32.1 55.78 32 54.89 32 54H36.2C36.7523 54 37.2 53.5523 37.2 53C37.2 52.4477 36.7523 52 36.2 52H32C32 51.12 32.07 50.25 32.15 49.38L36.27 49.75H36.36C36.9123 49.7748 37.3801 49.3473 37.405 48.795C37.4298 48.2427 37.0023 47.7748 36.45 47.75L32.39 47.38C34.8475 31.4166 47.353 18.8788 63.31 16.38L63.68 20.43C63.7267 20.9469 64.161 21.3421 64.68 21.34H64.77C65.0356 21.3172 65.2812 21.1892 65.452 20.9846C65.6229 20.7799 65.705 20.5155 65.68 20.25L65.31 16.13C66.21 16.1 67.1 16 68 16V20.2C68 20.7523 68.4477 21.2 69 21.2C69.5523 21.2 70 20.7523 70 20.2V16C70.88 16 71.75 16.07 72.62 16.15L72.25 20.27C72.225 20.5355 72.3071 20.7999 72.478 21.0046C72.6488 21.2092 72.8944 21.3372 73.16 21.36H73.25C73.769 21.3621 74.2033 20.9669 74.25 20.45L74.62 16.39C90.5834 18.8475 103.121 31.353 105.62 47.31L101.57 47.68C101.018 47.7049 100.59 48.1727 100.615 48.725C100.64 49.2773 101.108 49.7049 101.66 49.68H101.75L105.87 49.31C105.96 50.19 106 51.08 106.03 51.98H101.8C101.248 51.98 100.8 52.4277 100.8 52.98C100.8 53.5323 101.248 53.98 101.8 53.98H106C106 54.86 105.947 55.73 105.84 56.59L101.73 56.22C101.178 56.1703 100.69 56.5777 100.64 57.13C100.59 57.6823 100.998 58.1703 101.55 58.22L105.55 58.59C103.982 69.0073 98.0307 78.2556 89.2 84H62.13ZM2 69.08V64.92C2 63.3073 3.30733 62 4.92 62H48.08C49.6927 62 51 63.3073 51 64.92V69.09C50.9945 70.6988 49.6888 72 48.08 72H4.92C3.30733 72 2 70.6927 2 69.08ZM2 81.08V76.92C2 75.3073 3.30733 74 4.92 74H48.08C49.6927 74 51 75.3073 51 76.92V81.09C50.9945 82.6988 49.6888 84 48.08 84H4.92C3.30733 84 2 82.6927 2 81.08ZM2 93.08V88.92C2 87.3073 3.30733 86 4.92 86H48.08C49.6927 86 51 87.3073 51 88.92V93.09C50.9945 94.6988 49.6888 96 48.08 96H4.92C3.30733 96 2 94.6927 2 93.08ZM51 112.91V117.08C51 118.693 49.6927 120 48.08 120H4.92C3.30733 120 2 118.693 2 117.08V112.91C2.00551 111.301 3.31123 110 4.92 110H48.08C49.6927 110 51 111.307 51 112.92V112.91ZM4.92 108C3.30733 108 2 106.693 2 105.08V100.91C2.00551 99.3012 3.31123 98 4.92 98H48.08C49.6927 98 51 99.3073 51 100.92V105.09C50.9945 106.699 49.6888 108 48.08 108H4.92ZM53 101.42V100.92C52.9906 99.3706 52.2489 97.917 51 97C52.2489 96.083 52.9906 94.6294 53 93.08V88.92C53 88.79 53 88.68 53 88.55C54.3836 89.173 55.8027 89.714 57.25 90.17V93.09C57.2594 94.6394 58.0011 96.093 59.25 97.01C58.0011 97.927 57.2594 99.3806 57.25 100.93V102.62C55.8 102.27 54.4 101.88 53 101.42ZM108.21 112.92V117.09C108.21 118.703 106.903 120.01 105.29 120.01H62.13C60.5173 120.01 59.21 118.703 59.21 117.09V112.92C59.21 111.307 60.5173 110 62.13 110H105.3C106.909 110.006 108.21 111.311 108.21 112.92ZM108.21 100.92V105.09C108.21 106.703 106.903 108.01 105.29 108.01H62.13C60.5173 108.01 59.21 106.703 59.21 105.09V100.92C59.21 99.3073 60.5173 98 62.13 98H105.3C106.909 98.0055 108.21 99.3112 108.21 100.92ZM62.13 96C60.5173 96 59.21 94.6927 59.21 93.08V88.92C59.21 87.3073 60.5173 86 62.13 86H105.3C106.913 86 108.22 87.3073 108.22 88.92V93.09C108.217 93.8644 107.907 94.6061 107.358 95.1518C106.808 95.6976 106.064 96.0027 105.29 96H62.13Z" fill="#4D4845"/>
</svg>
