<svg width="16" height="16" viewBox="0 0 16 16" fill="none" xmlns="http://www.w3.org/2000/svg">
<path fill-rule="evenodd" clip-rule="evenodd" d="M7.00786 13.0464C6.79819 12.8667 6.77392 12.551 6.95366 12.3413L10.6747 8.00008L6.95366 3.65881C6.77392 3.44915 6.79819 3.13348 7.00786 2.95375C7.21752 2.77408 7.53319 2.79835 7.71292 3.00801L11.7129 7.67468C11.8734 7.86195 11.8734 8.13821 11.7129 8.32548L7.71292 12.9921C7.53319 13.2018 7.21752 13.2261 7.00786 13.0464Z" fill="white"/>
<path fill-rule="evenodd" clip-rule="evenodd" d="M4.34136 13.0464C4.1317 12.8667 4.10742 12.551 4.28713 12.3413L8.00822 8.00008L4.28713 3.65881C4.10742 3.44915 4.1317 3.13348 4.34136 2.95375C4.55103 2.77408 4.86668 2.79835 5.04639 3.00801L9.04642 7.67468C9.20688 7.86195 9.20688 8.13821 9.04642 8.32548L5.04639 12.9921C4.86668 13.2018 4.55102 13.2261 4.34136 13.0464Z" fill="white"/>
</svg>
