<svg width="13" height="13" viewBox="0 0 13 13" fill="none" xmlns="http://www.w3.org/2000/svg">
<path d="M6.5 0.171875C3.00781 0.171875 0.171875 3.00781 0.171875 6.5C0.171875 9.99219 3.00781 12.8281 6.5 12.8281C9.99219 12.8281 12.8281 9.99219 12.8281 6.5C12.8281 3.00781 9.99219 0.171875 6.5 0.171875ZM6.5 0.640625C7.39766 0.640625 8.24375 0.847344 9.00406 1.20734C8.45516 1.31797 7.98875 1.55891 7.87719 1.53406C7.70609 1.49656 6.87734 1.64 6.57312 1.75391C6.26891 1.86828 6.2975 2.01312 6.22156 2.03234C6.14563 2.05109 6.10484 2.11906 5.98719 2.25172C5.86953 2.38484 6.04578 2.54469 6.04578 2.54469C6.04578 2.54469 6.49719 2.64641 6.57312 2.31031C6.61812 2.11109 6.55438 2.48094 6.57312 2.63281C6.59188 2.78516 6.87547 2.82266 7.02734 2.63281C7.09578 2.54703 7.08641 2.3375 7.13 2.26672C7.18344 2.17953 7.30156 2.24609 7.36438 2.23719C7.40188 2.2325 7.31562 2.29672 7.36438 2.32531C7.46141 2.3825 7.66109 2.28453 7.61328 2.51562C7.59406 2.60891 7.29969 2.62719 7.26172 2.76453C7.22328 2.90188 7.15906 2.98438 7.15906 2.98438L6.52953 2.99891L6.32422 2.70594C6.32422 2.70594 6.12453 2.79266 6.1775 2.96984C6.21453 3.09172 6.11937 3.23328 6.11937 3.23328C6.11937 3.23328 5.79688 3.28484 5.79688 3.38C5.79688 3.43203 5.66563 3.43859 5.59156 3.46766C5.53109 3.49156 5.49031 3.59094 5.43078 3.59938C5.39516 3.60406 5.1725 3.63688 5.12328 3.64344C4.98922 3.65984 5.04969 3.69031 5.04969 3.74609C5.04969 3.82203 5.29859 3.83422 5.29859 3.83422C5.29859 3.83422 5.45797 3.89563 5.40172 4.00953C5.34453 4.12391 5.44203 4.17078 5.32812 4.17078C5.27844 4.17078 5.16406 4.15531 5.04969 4.15625C4.90203 4.15625 4.76047 4.10984 4.75672 4.17078C4.74266 4.40516 4.74219 4.74219 4.74219 4.74219C4.74219 4.74219 4.94234 4.84063 5.04969 4.81531C5.19875 4.78062 5.41719 4.89734 5.51844 4.625C5.52641 4.60391 5.53156 4.55844 5.54797 4.53688C5.61828 4.44453 5.69469 4.25797 5.81141 4.20031C5.88312 4.16422 5.98297 4.18766 6.01672 4.18578C6.09266 4.18109 6.22156 4.08266 6.22156 4.08266C6.22156 4.08266 6.55813 4.12859 6.64625 4.46375C6.6725 4.56266 6.64766 4.72531 6.70484 4.75672C6.74 4.77594 6.89563 4.61047 6.89563 4.61047L7.07141 4.625L6.96875 4.39062L6.64625 4.02453L6.70484 3.99641C6.70484 3.99641 6.94953 4.01234 6.96875 4.06906C6.9875 4.12625 7.28187 4.27062 7.23266 4.43563C7.15016 4.70797 7.34984 4.77219 7.34984 4.77219C7.34984 4.77219 7.52281 4.81297 7.59828 4.67C7.66438 4.54484 7.67188 4.43563 7.67188 4.43563L7.89172 4.39062C7.89172 4.39062 7.87063 3.93453 8.11109 3.92188C8.35203 3.90969 8.375 3.92188 8.375 3.92188C8.375 3.92188 8.90375 4.09672 8.96094 4.22937C9.01766 4.3625 9.04391 4.48906 8.87281 4.50781C8.70219 4.52703 8.44812 4.49375 8.44812 4.49375C8.44812 4.49375 7.77594 4.39203 7.83313 4.58187C7.88984 4.77219 7.95031 4.96297 7.95031 4.96297C7.95031 4.96297 8.09609 4.9475 8.22828 4.97656C8.36984 5.00891 8.55078 4.99109 8.55078 4.99109L8.58031 5.31359L8.49219 5.34266C8.39656 5.36938 8.11391 5.38766 8.03797 5.41578C7.96203 5.44391 7.13422 5.29953 7.11547 5.32812C7.09625 5.35625 6.82766 5.45375 6.67578 5.41625C6.52391 5.37781 6.48547 5.02063 6.48547 5.02063C6.48547 5.02063 6.45781 4.85 6.35375 4.85938L5.53344 4.9325C5.53344 4.9325 5.29906 5.03703 5.29906 5.09375C5.29906 5.09375 5.2325 5.04594 5.13781 5.09375C5.04266 5.14156 4.89734 5.135 4.85938 5.21094C4.82141 5.28687 4.67188 5.42938 4.59547 5.5625C4.52 5.69516 4.30156 5.70594 4.24391 5.94359C4.18719 6.18078 4.14687 6.57781 4.15625 6.74891C4.16563 6.92 4.16094 7.34422 4.33203 7.4375C4.50313 7.53125 4.73 7.76188 4.81531 7.84766C4.90063 7.93297 5.35906 8.00234 5.41578 7.96484C5.47297 7.92688 5.67781 7.84766 5.78234 7.84766C5.88688 7.84766 6.11141 7.86406 6.17797 7.92078C6.24406 7.97797 6.32562 8.10078 6.38281 8.24328C6.43953 8.38578 6.49672 8.62625 6.54406 8.71203C6.59141 8.79734 6.77187 8.96047 6.70484 9.12219C6.63875 9.28391 6.52484 9.44469 6.54406 9.63453C6.56281 9.82438 6.67672 10.0766 6.71984 10.1619C6.76297 10.2472 7.03719 10.5158 7.02734 10.6016C7.01797 10.6869 7.09859 10.6658 7.20312 10.7042C7.30766 10.7417 7.75156 10.6194 7.81859 10.543C7.88469 10.467 7.98781 10.227 8.11156 10.1033C8.23484 9.98 8.49125 9.7775 8.62391 9.63453C8.75703 9.49203 8.89297 9.36125 8.90234 9.18078C8.91172 8.99984 8.80719 8.60281 8.90234 8.53625C8.9975 8.46969 9.12922 8.36656 9.22484 8.24328C9.31953 8.11953 9.52156 8.12937 9.66406 7.73047C9.80656 7.33156 9.85344 7.20734 9.82531 7.18859C9.79719 7.16937 9.57031 7.26359 9.53234 7.32031C9.49438 7.3775 9.27219 7.39156 9.22437 7.4375C9.1775 7.48344 8.96094 7.4375 8.96094 7.4375C8.96094 7.4375 9.05234 7.0775 9.005 6.95422C8.95719 6.83094 8.71438 6.34859 8.63844 6.1775C8.57609 6.03734 8.56531 5.87516 8.59484 5.76781C8.60703 5.78516 8.61453 5.79453 8.62391 5.81141C8.65766 5.87234 8.84 6.08797 8.91687 6.30969C9.08094 6.78453 9.26844 7.13 9.26844 7.13C9.26844 7.13 9.51594 7.13938 9.92797 6.82203C10.2078 6.60687 10.5073 6.59562 10.5575 6.48547C10.6527 6.27641 10.2645 6.08984 10.2645 6.08984H9.91297L9.64953 5.63562L9.72266 5.60656C9.72266 5.60656 10.0147 5.94359 10.1473 5.94359C10.2805 5.94359 10.6339 5.91266 10.7483 6.04578C10.8622 6.17891 11.2184 6.40391 11.2756 6.63172C11.3328 6.85953 11.3038 7.17828 11.4069 7.29125C11.5531 7.44969 11.6858 7.4375 11.6858 7.4375L11.8616 7.02734L12.2717 6.55859L12.3584 6.51453C12.3505 9.74656 9.73344 12.3594 6.5 12.3594C5.0276 12.36 3.60946 11.8037 2.53016 10.8022L2.70594 10.543L2.91125 9.72266L2.41297 9.41516L1.84203 9.22437L1.46094 8.30188C1.46094 8.30188 1.10562 8.01453 0.810781 7.88141C0.699401 7.42933 0.64228 6.96559 0.640625 6.5C0.640625 6.15453 0.676719 5.8175 0.734375 5.48844C1.09438 5.21187 1.57812 4.99156 1.57812 4.99156C1.57812 4.99156 1.84531 4.96062 1.38781 4.20031C1.32962 4.10471 1.28572 4.00111 1.2575 3.89281C1.44969 3.50656 1.67891 3.14234 1.94797 2.81C1.92453 2.94922 1.83359 3.52719 2.00281 3.62891C2.19266 3.74281 2.375 3.39125 2.41297 3.27734C2.45094 3.16344 2.84703 2.72891 2.99891 2.50109C3.10719 2.33844 3.06922 2.02297 2.95766 1.83828C3.97484 1.06081 5.21972 0.639919 6.5 0.640625ZM5.34266 1.69531C5.25172 1.70422 5.06422 1.75297 5.06422 1.90063V2.17859C5.06422 2.17859 5.00797 2.27891 4.97656 2.31078C4.94469 2.34219 4.97234 2.48797 4.99109 2.54516C5.00984 2.60234 5.02063 2.77953 5.02063 2.77953C5.02063 2.77953 5.1125 2.82734 5.13781 2.85266C5.16313 2.8775 5.37969 2.93234 5.47484 2.88172C5.56953 2.83156 5.62484 2.69797 5.69422 2.69141C5.76406 2.68484 5.72141 2.68531 5.70875 2.63281C5.69656 2.58219 5.76781 2.39844 5.76781 2.39844L5.57703 2.23719C5.57703 2.23719 5.46172 1.99109 5.47438 1.91516C5.48703 1.83875 5.38062 1.70422 5.38672 1.69531C5.38812 1.69062 5.37266 1.69062 5.34266 1.69531ZM4.84531 2.25219C4.81953 2.26344 4.76984 2.32531 4.74266 2.33984C4.70656 2.35812 4.71781 2.42094 4.69859 2.47156C4.67984 2.52219 4.62547 2.70594 4.62547 2.70594L4.74266 2.75C4.74266 2.75 4.92875 2.71484 4.94797 2.67687C4.96297 2.64641 4.90812 2.48 4.88891 2.41297C4.88422 2.39703 4.88891 2.38391 4.88891 2.38391L4.85984 2.26672C4.85516 2.25734 4.85375 2.24797 4.84531 2.25172V2.25219ZM9.75266 3.86328C9.79531 3.86328 9.87969 3.89328 9.89891 3.90734C9.92422 3.92609 9.92422 4.14875 9.89891 4.28797C9.88958 4.33451 9.89604 4.38282 9.91726 4.42528C9.93849 4.46773 9.97327 4.50189 10.0161 4.52234C10.0545 4.535 10.0813 4.84016 10.0747 4.90344C10.0686 4.96672 9.88953 5.01406 9.84031 5.02063C9.79109 5.02719 9.58484 5.02531 9.59141 4.9325C9.59797 4.84063 9.55578 4.54016 9.51781 4.41969C9.48031 4.29969 9.49016 4.12906 9.54734 4.09766C9.60453 4.06625 9.72312 3.87781 9.72312 3.87781C9.72781 3.8675 9.73812 3.86375 9.75266 3.86328ZM9.48875 9.04906C9.46578 9.04906 9.4325 9.05375 9.40063 9.06313C9.40063 9.06313 9.3875 9.34437 9.25437 9.42969C9.12172 9.51547 9.03453 9.68094 9.03453 9.76672C9.03453 9.85203 9.00641 9.92984 9.03453 10.0156C9.06312 10.1009 9.12828 10.1717 9.21031 10.1623C9.29281 10.153 9.38188 9.97484 9.40109 9.89844C9.41984 9.8225 9.49062 9.65844 9.54734 9.60547C9.60453 9.5525 9.61578 9.40344 9.60594 9.32703C9.59797 9.26094 9.64812 9.04531 9.48875 9.04906Z" fill="#838383"/>
</svg>
