<svg width="95" height="119" viewBox="0 0 95 119" fill="none" xmlns="http://www.w3.org/2000/svg">
<path d="M92.4219 118.094H2.57812C1.5 118.094 0.625 117.219 0.625 116.141V2.85938C0.625 1.78125 1.5 0.90625 2.57812 0.90625H68.9844C70.0625 0.90625 70.9375 1.78125 70.9375 2.85938C70.9375 3.9375 70.0625 4.8125 68.9844 4.8125H4.53125V114.188H90.4688V26.2969C90.4688 25.2188 91.3438 24.3438 92.4219 24.3438C93.5 24.3438 94.375 25.2188 94.375 26.2969V116.141C94.375 117.219 93.5 118.094 92.4219 118.094Z" fill="#455A64"/>
<path d="M92.3398 28.25H68.9844C67.9062 28.25 67.0312 27.375 67.0312 26.2969V12.625C67.0312 11.5469 67.9062 10.6719 68.9844 10.6719C70.0625 10.6719 70.9375 11.5469 70.9375 12.625V24.3438H87.6328L67.6016 4.23829C66.8398 3.47657 66.8437 2.23828 67.6055 1.47657C68.3711 0.714848 69.6094 0.714847 70.3672 1.48438L93.7227 24.9219C94.2812 25.4805 94.4453 26.3164 94.1445 27.0469C93.8398 27.7734 93.1289 28.25 92.3398 28.25ZM53.3594 71.2188C52.2812 71.2188 51.4062 70.3438 51.4062 69.2656C51.4062 67.1094 49.6523 65.3594 47.5 65.3594C45.3477 65.3594 43.5938 67.1094 43.5938 69.2656C43.5938 70.3438 42.7188 71.2188 41.6406 71.2188C40.5625 71.2188 39.6875 70.3438 39.6875 69.2656C39.6875 64.957 43.1914 61.4531 47.5 61.4531C51.8086 61.4531 55.3125 64.957 55.3125 69.2656C55.3125 70.3438 54.4375 71.2188 53.3594 71.2188ZM68.9844 62.4297C66.293 62.4297 64.1016 60.2383 64.1016 57.5469C64.1016 54.8555 66.293 52.6641 68.9844 52.6641C71.6758 52.6641 73.8672 54.8555 73.8672 57.5469C73.8672 60.2383 71.6758 62.4297 68.9844 62.4297ZM68.9844 56.5703C68.4648 56.5703 68.0078 57.0273 68.0078 57.5469C68.0078 58.0664 68.4648 58.5234 68.9844 58.5234C69.5039 58.5234 69.9609 58.0664 69.9609 57.5469C69.9609 57.0273 69.5039 56.5703 68.9844 56.5703ZM26.0156 62.4297C23.3242 62.4297 21.1328 60.2383 21.1328 57.5469C21.1328 54.8555 23.3242 52.6641 26.0156 52.6641C28.707 52.6641 30.8984 54.8555 30.8984 57.5469C30.8984 60.2383 28.707 62.4297 26.0156 62.4297ZM26.0156 56.5703C25.4961 56.5703 25.0391 57.0273 25.0391 57.5469C25.0391 58.0664 25.4961 58.5234 26.0156 58.5234C26.5352 58.5234 26.9922 58.0664 26.9922 57.5469C26.9922 57.0273 26.5352 56.5703 26.0156 56.5703Z" fill="#455A64"/>
<path d="M92.4219 118.094H2.57812C1.5 118.094 0.625 117.219 0.625 116.141V2.85938C0.625 1.78125 1.5 0.90625 2.57812 0.90625H68.9844C70.0625 0.90625 70.9375 1.78125 70.9375 2.85938C70.9375 3.9375 70.0625 4.8125 68.9844 4.8125H4.53125V114.188H90.4688V26.2969C90.4688 25.2188 91.3438 24.3438 92.4219 24.3438C93.5 24.3438 94.375 25.2188 94.375 26.2969V116.141C94.375 117.219 93.5 118.094 92.4219 118.094Z" fill="#A0A0A0"/>
<path d="M92.3398 28.25H68.9844C67.9062 28.25 67.0312 27.375 67.0312 26.2969V12.625C67.0312 11.5469 67.9062 10.6719 68.9844 10.6719C70.0625 10.6719 70.9375 11.5469 70.9375 12.625V24.3438H87.6328L67.6016 4.23829C66.8398 3.47657 66.8437 2.23828 67.6055 1.47657C68.3711 0.714848 69.6094 0.714847 70.3672 1.48438L93.7227 24.9219C94.2812 25.4805 94.4453 26.3164 94.1445 27.0469C93.8398 27.7734 93.1289 28.25 92.3398 28.25ZM53.3594 71.2188C52.2812 71.2188 51.4062 70.3438 51.4062 69.2656C51.4062 67.1094 49.6523 65.3594 47.5 65.3594C45.3477 65.3594 43.5938 67.1094 43.5938 69.2656C43.5938 70.3438 42.7188 71.2188 41.6406 71.2188C40.5625 71.2188 39.6875 70.3438 39.6875 69.2656C39.6875 64.957 43.1914 61.4531 47.5 61.4531C51.8086 61.4531 55.3125 64.957 55.3125 69.2656C55.3125 70.3438 54.4375 71.2188 53.3594 71.2188ZM68.9844 62.4297C66.293 62.4297 64.1016 60.2383 64.1016 57.5469C64.1016 54.8555 66.293 52.6641 68.9844 52.6641C71.6758 52.6641 73.8672 54.8555 73.8672 57.5469C73.8672 60.2383 71.6758 62.4297 68.9844 62.4297ZM68.9844 56.5703C68.4648 56.5703 68.0078 57.0273 68.0078 57.5469C68.0078 58.0664 68.4648 58.5234 68.9844 58.5234C69.5039 58.5234 69.9609 58.0664 69.9609 57.5469C69.9609 57.0273 69.5039 56.5703 68.9844 56.5703ZM26.0156 62.4297C23.3242 62.4297 21.1328 60.2383 21.1328 57.5469C21.1328 54.8555 23.3242 52.6641 26.0156 52.6641C28.707 52.6641 30.8984 54.8555 30.8984 57.5469C30.8984 60.2383 28.707 62.4297 26.0156 62.4297ZM26.0156 56.5703C25.4961 56.5703 25.0391 57.0273 25.0391 57.5469C25.0391 58.0664 25.4961 58.5234 26.0156 58.5234C26.5352 58.5234 26.9922 58.0664 26.9922 57.5469C26.9922 57.0273 26.5352 56.5703 26.0156 56.5703Z" fill="#A0A0A0"/>
</svg>
