<svg version="1.1" xmlns="http://www.w3.org/2000/svg" xmlns:xlink="http://www.w3.org/1999/xlink" width="48px" height="48px" viewBox="0,0,256,256"><g fill="#ffffff" fill-rule="nonzero" stroke="none" stroke-width="1" stroke-linecap="butt" stroke-linejoin="miter" stroke-miterlimit="10" stroke-dasharray="" stroke-dashoffset="0" font-family="none" font-weight="none" font-size="none" text-anchor="none" style="mix-blend-mode: normal"><g transform="scale(5.33333,5.33333)"><path d="M27.87891,5c-0.92,0 -1.91127,0.07222 -2.94727,0.19922c-0.757,0.092 -1.33594,0.72723 -1.33594,1.49023c0,0.904 0.79636,1.59238 1.69336,1.48438c0.918,-0.111 1.78884,-0.17383 2.58984,-0.17383c2.941,0 7.10956,1.99525 10.47656,4.15625c-3.32,-1.213 -6.99947,-2.15625 -9.35547,-2.15625c-3.292,0 -7.69664,1.16839 -12.43164,2.77539c-0.606,0.206 -1.01563,0.77992 -1.01563,1.41992v0.00391c0,1.024 1.00266,1.74597 1.97266,1.41797c4.184,-1.415 8.52461,-2.61719 11.47461,-2.61719c2.822,0 8.78897,1.86556 12.41797,3.72656c0.362,0.185 0.74695,0.27539 1.12695,0.27539c0.986,0 1.93164,-0.59695 2.30664,-1.62695c0.354,-0.975 -0.00102,-2.07405 -0.79102,-2.74805c-2.971,-2.534 -10.61464,-7.62695 -16.18164,-7.62695zM19.96289,6.13281c-0.11494,-0.00025 -0.23369,0.01352 -0.35156,0.04102c-4.695,1.093 -9.59936,2.71459 -13.19336,3.80859c-2.389,0.727 -3.9322,3.19933 -3.2832,5.61133c0.559,2.078 2.42006,3.39648 4.41406,3.39648c0.543,0 1.09577,-0.09769 1.63477,-0.30469c0.975,-0.374 2.08167,-0.80014 3.26367,-1.24414c0.582,-0.219 0.9668,-0.77739 0.9668,-1.40039c0,-1.043 -1.03962,-1.77125 -2.01562,-1.40625c-0.979,0.366 -1.95855,0.73728 -2.93555,1.11328l-0.35547,0.13672c-0.183,0.07 -0.37055,0.10547 -0.56055,0.10547c-0.561,0 -1.23833,-0.33217 -1.48633,-1.07617c-0.183,-0.547 -0.01925,-0.9978 0.09375,-1.2168c0.114,-0.22 0.38736,-0.61716 0.94336,-0.78516c0.804,-0.244 1.67466,-0.51473 2.59766,-0.80273c3.156,-0.983 6.9727,-2.17062 10.5957,-3.01562c0.682,-0.159 1.16602,-0.75898 1.16602,-1.45898v-0.00391c0,-0.847 -0.68956,-1.4963 -1.49414,-1.49805zM24,18c-12.40368,0 -18.78542,9.61833 -19.63086,10.98438c-0.00107,0.00173 -0.00285,0.0022 -0.00391,0.00391c-0.55637,0.58602 -0.5486,1.50743 0.01758,2.08398c0.43574,0.74763 1.5657,2.54709 3.39844,4.51172c0.36384,0.39931 0.91427,0.57216 1.44107,0.45253c0.5268,-0.11963 0.9486,-0.51325 1.10429,-1.03054c0.1557,-0.51729 0.02124,-1.07834 -0.35201,-1.46887c-1.11272,-1.1928 -1.81332,-2.13774 -2.27734,-2.83789c1.56233,-0.62042 4.19006,-1.56029 7.33008,-2.30469c-0.01335,0.20071 -0.02734,0.40181 -0.02734,0.60547c0,4.95272 4.04728,9 9,9c4.95272,0 9,-4.04728 9,-9c0,-0.24878 -0.01324,-0.4941 -0.0332,-0.73828c1.23092,0.25564 2.41036,0.5268 3.45117,0.81055c0.51905,0.14698 1.07705,0.00395 1.46139,-0.37459c0.38434,-0.37854 0.53585,-0.9343 0.39678,-1.45552c-0.13906,-0.52123 -0.54728,-0.92765 -1.06911,-1.06442c-1.66408,-0.45366 -3.6058,-0.90559 -5.70703,-1.25977c-0.1453,-0.0503 -0.29747,-0.07797 -0.45117,-0.08203c-0.00911,-0.00008 -0.01823,-0.00008 -0.02734,0c-2.21075,-0.35168 -4.59005,-0.58594 -7.02148,-0.58594c-2.49922,0 -4.95053,0.27795 -7.2207,0.69336c-0.08462,0.0098 -0.16826,0.02679 -0.25,0.05078c-2.42266,0.45692 -4.58892,1.0579 -6.41602,1.64844c2.69874,-2.62167 7.23855,-5.64258 13.88672,-5.64258c1.5022,0 2.89649,0.15489 4.19141,0.42188c0.52512,0.10859 1.06828,-0.07124 1.42485,-0.47174c0.35657,-0.4005 0.47235,-0.96082 0.30374,-1.46985c-0.16861,-0.50903 -0.59601,-0.88942 -1.12116,-0.99786c-1.48909,-0.30702 -3.09102,-0.48242 -4.79883,-0.48242zM34.125,20.47266c-0.69269,0.0014 -1.29435,0.47689 -1.4558,1.15051c-0.16145,0.67362 0.15931,1.37018 0.77611,1.68543c4.52246,2.38312 6.64478,5.39506 7.24414,6.29492c-1.11056,1.95753 -6.4283,10.39648 -16.68945,10.39648c-4.56236,0 -8.14697,-1.63708 -10.88867,-3.65625c-0.43157,-0.31796 -1.00001,-0.3815 -1.49113,-0.16666c-0.49112,0.21483 -0.8303,0.67539 -0.88975,1.20814c-0.05944,0.53275 0.16989,1.05674 0.60158,1.37454c3.1323,2.30683 7.38033,4.24023 12.66797,4.24023c13.46,0 19.8418,-12.83008 19.8418,-12.83008c0.22912,-0.45828 0.2085,-1.0018 -0.05469,-1.44141c0,0 -2.9386,-4.91 -8.94336,-8.07422c-0.22061,-0.11972 -0.46774,-0.18218 -0.71875,-0.18164zM27.67773,27.4375c0.73497,0.07057 1.45686,0.16098 2.16797,0.26367c0.09265,0.41921 0.1543,0.84916 0.1543,1.29883c0,3.33128 -2.66872,6 -6,6c-3.33128,0 -6,-2.66872 -6,-6c0,-0.42567 0.05559,-0.8343 0.13867,-1.23242c0.71207,-0.11796 1.435,-0.22153 2.17188,-0.30273c-0.51275,1.23372 -0.3757,2.64198 0.3653,3.75369c0.74101,1.1117 1.98812,1.78006 3.32415,1.78147c1.34124,-0.0015 2.59246,-0.67511 3.33218,-1.79392c0.73972,-1.11881 0.86947,-2.5339 0.34555,-3.76858z"></path></g></g></svg>