<svg width="20" height="20" viewBox="0 0 20 20" fill="none" xmlns="http://www.w3.org/2000/svg">
<path d="M10 4.16663C5.88671 4.16663 2.75671 6.71496 0.833374 9.99996C2.75671 13.285 5.88671 15.8333 10 15.8333C14.1134 15.8333 17.2442 13.285 19.1667 9.99996C17.2442 6.71496 14.1125 4.16663 10 4.16663ZM10 14.1666C6.40837 14.1666 4.15921 11.9058 2.81337 9.99996C4.15921 8.09413 6.40837 5.83329 10 5.83329C13.5925 5.83329 15.8417 8.09413 17.1867 9.99996C15.8417 11.9058 13.5925 14.1666 10 14.1666Z" fill="#01AB84"/>
<path d="M10 12.5C11.3807 12.5 12.5 11.3807 12.5 10C12.5 8.61929 11.3807 7.5 10 7.5C8.61929 7.5 7.5 8.61929 7.5 10C7.5 11.3807 8.61929 12.5 10 12.5Z" fill="#01AB84"/>
</svg>
