<svg width="20" height="20" viewBox="0 0 20 20" fill="none" xmlns="http://www.w3.org/2000/svg">
<g clip-path="url(#clip0_1294_461)">
<g clip-path="url(#clip1_1294_461)">
<path d="M3.92499 2.74117C3.84729 2.66347 3.75505 2.60184 3.65353 2.55979C3.55201 2.51774 3.44321 2.49609 3.33333 2.49609C3.22344 2.49609 3.11464 2.51774 3.01312 2.55979C2.9116 2.60184 2.81936 2.66347 2.74166 2.74117C2.58474 2.89809 2.49658 3.11092 2.49658 3.33284C2.49658 3.55475 2.58474 3.76758 2.74166 3.9245L7.43333 8.61617C7.1365 9.16835 7.02548 9.80148 7.11673 10.4217C7.20798 11.0419 7.49665 11.6163 7.93994 12.0596C8.38323 12.5028 8.95755 12.7915 9.57779 12.8828C10.198 12.974 10.8311 12.863 11.3833 12.5662L16.075 17.2578C16.1525 17.3359 16.2446 17.3979 16.3462 17.4402C16.4477 17.4826 16.5566 17.5043 16.6667 17.5043C16.7767 17.5043 16.8856 17.4826 16.9871 17.4402C17.0887 17.3979 17.1809 17.3359 17.2583 17.2578C17.3364 17.1804 17.3984 17.0882 17.4407 16.9867C17.483 16.8851 17.5048 16.7762 17.5048 16.6662C17.5048 16.5562 17.483 16.4472 17.4407 16.3457C17.3984 16.2441 17.3364 16.152 17.2583 16.0745L3.92499 2.74117ZM9.99999 11.2495C9.66847 11.2495 9.35053 11.1178 9.11611 10.8834C8.88169 10.649 8.74999 10.331 8.74999 9.9995V9.94117L10.05 11.2412L9.99999 11.2495Z" fill="#8A8A8E"/>
<path d="M10.1833 14.1676C6.59998 14.251 4.24998 11.176 3.51664 10.001C4.0387 9.16819 4.66611 8.40634 5.38331 7.73428L4.16664 6.55928C3.22608 7.44551 2.42032 8.46465 1.77498 9.58428C1.70184 9.71097 1.66333 9.85467 1.66333 10.001C1.66333 10.1472 1.70184 10.2909 1.77498 10.4176C2.29998 11.326 5.10831 15.8343 10.0166 15.8343H10.225C11.1479 15.8069 12.0589 15.6179 12.9166 15.276L11.6 13.9593C11.1369 14.0811 10.6618 14.151 10.1833 14.1676ZM18.225 9.58428C17.6916 8.65928 14.75 4.01762 9.77498 4.16762C8.85202 4.195 7.94101 4.38397 7.08331 4.72595L8.39998 6.04262C8.863 5.92081 9.33815 5.85093 9.81664 5.83428C13.3916 5.74262 15.7416 8.82595 16.4833 10.001C15.9484 10.8362 15.3068 11.5982 14.575 12.2676L15.8333 13.4426C16.7857 12.5587 17.6028 11.5395 18.2583 10.4176C18.3264 10.288 18.3592 10.1428 18.3534 9.99648C18.3475 9.85019 18.3032 9.70802 18.225 9.58428Z" fill="#8A8A8E"/>
</g>
</g>
<defs>
<clipPath id="clip0_1294_461">
<rect width="20" height="20" fill="white"/>
</clipPath>
<clipPath id="clip1_1294_461">
<rect width="20" height="20" fill="white"/>
</clipPath>
</defs>
</svg>
