<svg width="20" height="20" viewBox="0 0 20 20" fill="none" xmlns="http://www.w3.org/2000/svg">
<path d="M18.6029 9.33333C16.9196 5.425 13.7529 3 10.3362 3C6.91957 3 3.7529 5.425 2.06957 9.33333C2.02368 9.43847 2 9.55195 2 9.66667C2 9.78138 2.02368 9.89486 2.06957 10C3.7529 13.9083 6.91957 16.3333 10.3362 16.3333C13.7529 16.3333 16.9196 13.9083 18.6029 10C18.6488 9.89486 18.6725 9.78138 18.6725 9.66667C18.6725 9.55195 18.6488 9.43847 18.6029 9.33333ZM10.3362 14.6667C7.69457 14.6667 5.19457 12.7583 3.7529 9.66667C5.19457 6.575 7.69457 4.66667 10.3362 4.66667C12.9779 4.66667 15.4779 6.575 16.9196 9.66667C15.4779 12.7583 12.9779 14.6667 10.3362 14.6667ZM10.3362 6.33333C9.67697 6.33333 9.0325 6.52883 8.48434 6.8951C7.93617 7.26137 7.50893 7.78197 7.25664 8.39106C7.00435 9.00014 6.93834 9.67036 7.06695 10.317C7.19557 10.9636 7.51304 11.5575 7.97921 12.0237C8.44539 12.4899 9.03933 12.8073 9.68594 12.936C10.3325 13.0646 11.0028 12.9986 11.6118 12.7463C12.2209 12.494 12.7415 12.0667 13.1078 11.5186C13.4741 10.9704 13.6696 10.3259 13.6696 9.66667C13.6696 8.78261 13.3184 7.93477 12.6933 7.30964C12.0681 6.68452 11.2203 6.33333 10.3362 6.33333ZM10.3362 11.3333C10.0066 11.3333 9.68437 11.2356 9.41029 11.0524C9.13621 10.8693 8.92258 10.609 8.79644 10.3045C8.67029 9.99993 8.63729 9.66482 8.70159 9.34152C8.7659 9.01821 8.92464 8.72124 9.15773 8.48816C9.39081 8.25507 9.68779 8.09633 10.0111 8.03202C10.3344 7.96772 10.6695 8.00072 10.974 8.12687C11.2786 8.25301 11.5389 8.46663 11.722 8.74072C11.9052 9.0148 12.0029 9.33703 12.0029 9.66667C12.0029 10.1087 11.8273 10.5326 11.5147 10.8452C11.2022 11.1577 10.7783 11.3333 10.3362 11.3333Z" fill="#8A8A8E"/>
</svg>
