<svg xmlns="http://www.w3.org/2000/svg" width="64" height="71" viewBox="0 0 64 71" fill="none">
<path fill-rule="evenodd" clip-rule="evenodd" d="M5.77358 59.3598C5.77358 60.6925 6.7767 60.8077 7.88334 60.9435C13.0539 61.5778 17.4534 60.4813 20.8372 57.1134C22.5551 55.4035 24.0934 53.0155 24.2693 50.5099L24.3988 47.8065C24.4096 47.0556 25.2632 48.2217 27.4487 49.1318C30.3538 50.3418 33.4319 50.3101 36.2697 49.0455C36.8383 48.7921 37.6881 48.3801 38.2251 48.0448C38.8655 47.6448 39.391 47.2218 39.9708 46.8354C40.8405 48.6393 40.19 49.7692 43.4127 52.9871C47.7774 57.3453 53.8524 57.4771 59.2185 61.5674C59.8437 62.044 60.9924 63.613 60.9924 64.6642C60.9924 64.9834 59.9418 65.151 59.6432 65.2367C55.7342 66.3589 51.7828 66.9404 47.6825 67.33C45.2524 67.5609 42.9466 67.8247 40.2622 67.9011C39.505 67.9226 39.3521 68.057 38.4955 68.0582C35.2192 68.0628 31.1317 68.529 27.9392 68.0934C25.867 67.8108 23.2464 68.1454 21.2322 67.8437C20.5485 67.7413 19.6153 67.7253 19.0563 67.6518L14.7185 67.2543C13.273 67.0582 12.0838 66.9023 10.682 66.7041C9.40466 66.5236 8.02352 66.2153 6.69867 65.9537C5.81526 65.7791 1.55852 64.4834 1.0899 64.5648C0.472781 64.672 0.100526 65.0971 0 65.5934V66.1531C0.0989268 66.6547 0.464786 67.1386 1.12305 67.3774C2.88988 68.0181 4.64999 68.4329 6.49986 68.8037C9.05181 69.3153 11.4867 69.6443 14.2949 70.0333C15.9402 70.2612 22.7756 70.8658 24.7207 70.8546L32.1247 71C41.743 71 50.2507 70.209 59.1536 68.2856C59.9322 68.1173 60.4449 67.9488 61.1223 67.7401C63.7489 66.9313 64.4992 66.9597 63.691 63.5991C62.9585 60.5537 60.4607 58.5725 57.7857 57.2469C56.0643 56.394 54.2588 55.7751 52.5032 54.9902C50.2289 53.9734 47.9647 53.1404 46.0172 51.5736C44.2603 50.1601 42.6356 47.6057 42.6356 44.625C42.6356 44.2933 44.4115 42.2421 44.7078 41.8251C47.2469 38.2504 49.1028 34.1369 49.735 29.5893C49.8856 28.507 50.3575 26.0634 49.7109 25.2059C48.8349 24.0442 45.6297 25.3176 41.4991 22.1811C40.9282 21.7476 40.0465 21.5772 39.4298 22.1318C39.1074 22.4217 39.0827 22.7923 39.0827 23.2599C39.0827 24.1225 39.8759 24.5279 40.4144 24.8815C42.2402 26.0801 44.6478 27.3318 47.0769 27.3857C47.0769 31.9315 44.4964 37.111 42.6079 39.8824C40.0044 43.7031 34.6064 48.589 29.3283 46.8191C27.4558 46.1913 25.3405 44.9789 24.1339 43.4431C23.7893 43.0045 22.7684 42.3346 21.972 41.3218C21.3007 40.4681 20.83 39.8655 20.2206 38.9392C18.7219 36.661 17.7088 34.0844 17.1572 31.3794C17.0358 30.7841 17.0182 30.0525 16.8767 29.4483C17.5069 28.5117 18.1603 27.7721 18.7038 26.6991C19.149 25.8204 19.6895 24.3584 19.6895 23.1125C20.9661 23.1125 22.5116 23.4072 23.9826 23.4072C26.7468 23.4072 29.0962 22.9341 31.3824 21.9315C32.1684 21.5869 32.6095 21.3614 33.36 20.9529L35.1748 19.8123C36.4696 18.925 39.3787 16.5621 39.3787 15.1558C39.3787 14.1126 38.4632 13.8298 37.6022 13.8298C37.1952 13.8298 34.9882 16.5376 33.5784 17.4868C31.9607 18.5758 30.2761 19.5137 28.2791 20.0217C20.1985 22.0777 17.0419 17.6438 17.0244 21.7861C17.0074 25.8026 14.0638 27.9386 14.0638 28.7116C14.0638 32.3626 15.2843 35.7005 16.5305 38.1915C17.6695 40.4686 19.1437 42.4004 20.7705 44.2856C21.0093 44.5624 21.466 44.8198 21.466 45.2142C21.466 50.3847 21.9963 52.6011 17.7208 56.0739C16.8616 56.7718 15.5917 57.3893 14.42 57.7982C13.0798 58.2661 11.6896 58.328 9.9188 58.328C10.1436 57.3676 10.9014 56.2097 11.225 54.913C12.1267 51.301 10.9833 26.2314 11.7565 21.5525C12.2167 18.767 13.1737 16.63 14.2595 14.4664C15.2938 12.4055 16.7663 10.4699 18.3925 8.85517L20.9354 6.67106C25.4181 3.32821 33.3903 0.675444 38.0108 5.31911C38.4597 5.77036 38.6933 5.94712 39.0539 6.491C40.2619 8.31235 41.4854 7.27786 43.7726 8.42503C45.7936 9.43873 47.2555 10.7002 48.4989 12.5616C49.7778 14.4761 50.6021 16.1174 51.3187 18.5957C52.8084 23.7481 52.4063 29.6439 52.4063 35.1947V48.4559C52.4055 49.6614 52.1444 51.5501 53.8867 51.5501C54.6184 51.5501 55.219 50.9522 55.219 50.224V24.7332C55.219 21.5294 54.0469 17.2629 53.0415 14.9656C50.8886 10.0462 47.4404 5.98914 42.0748 4.95783C41.3463 4.81777 41.51 4.96897 41.0839 4.47071C35.8251 -1.67748 27.9452 -0.77964 21.4718 2.93202C13.8977 7.27478 8.73445 15.8457 8.73445 24.8806L8.73488 51.5505C8.74191 53.4351 8.47018 54.7218 7.8488 55.9731C7.5114 56.6525 7.31398 57.0247 6.85388 57.635C6.49623 58.1094 5.77368 58.7298 5.77368 59.3593L5.77358 59.3598Z" fill="white"/>
</svg>
