<svg xmlns="http://www.w3.org/2000/svg" width="45" height="45" viewBox="0 0 45 45" fill="none">
  <path fill-rule="evenodd" clip-rule="evenodd" d="M0.000244141 29.2036V39.0473C0.000244141 42.0427 2.95447 44.9969 5.94981 44.9969H15.7936C16.9885 44.9969 18.0654 43.0698 16.6321 41.8867C16.1537 41.4917 15.8571 41.5292 15.0372 41.5345L7.356 41.5355C4.54559 41.5419 3.45099 40.589 3.46158 37.7496L3.46221 30.0687C3.46574 29.2589 3.5351 28.9185 3.15871 28.425C2.00285 26.9095 0.000347972 27.9797 0.000347972 29.2036H0.000244141Z" fill="white"/>
  <path fill-rule="evenodd" clip-rule="evenodd" d="M27.6926 43.0499C27.6926 44.2466 28.4225 44.9969 29.207 44.9969H39.159C41.9845 44.9969 45.0002 41.9811 45.0002 39.1556V29.2037C45.0002 28.0088 43.0731 26.9318 41.8901 28.3651C41.4951 28.8436 41.5326 29.1401 41.5379 29.9601L41.5388 37.6413C41.5452 40.4517 40.5924 41.5463 37.753 41.5357L30.072 41.5351C29.2622 41.5315 28.9219 41.4622 28.4284 41.8386C28.1192 42.0745 27.6925 42.5442 27.6925 43.0499H27.6926Z" fill="white"/>
  <path fill-rule="evenodd" clip-rule="evenodd" d="M0.000244141 5.94946V15.7932C0.000244141 16.9881 1.92736 18.0651 3.11042 16.6318C3.5054 16.1533 3.46792 15.8568 3.46262 15.0368L3.46169 7.35566C3.45805 5.78281 3.53136 5.1727 4.35215 4.3519C5.13701 3.56704 5.7356 3.45563 7.2475 3.46123L14.9285 3.46186C15.7382 3.46539 16.0786 3.53475 16.5721 3.15836C18.0876 2.0025 17.0175 0 15.7936 0H5.94981C2.95447 0 0.000244141 2.95422 0.000244141 5.94956V5.94946Z" fill="white"/>
  <path fill-rule="evenodd" clip-rule="evenodd" d="M27.6926 1.51439C27.6926 3.10457 28.5646 3.47131 29.9634 3.46227L37.6446 3.46134C40.455 3.4549 41.5496 4.40777 41.539 7.24715L41.5384 14.9281C41.5349 15.7379 41.4655 16.0783 41.8419 16.5718C42.9978 18.0873 45.0003 17.0171 45.0003 15.7932V5.84127C45.0003 5.21277 44.6253 3.97167 44.3879 3.53309C43.3615 1.63774 41.3287 0 39.0508 0H29.207C28.5315 0 27.6926 0.838961 27.6926 1.51439Z" fill="white"/>
  <path fill-rule="evenodd" clip-rule="evenodd" d="M22.2839 35.8083C26.9183 35.8083 30.6958 34.1574 32.9949 30.726C33.3426 30.207 33.6871 29.6154 33.3823 28.8234C32.9232 27.6301 31.4962 27.3264 30.5317 28.1546C30.1771 28.459 30.1094 28.7508 29.859 29.1044C28.5617 30.9363 25.6799 32.2385 23.1494 32.2385C20.7877 32.2385 18.8303 32.0657 16.9376 30.77C14.2694 28.9433 15.1084 27.6952 13.1975 27.6952C11.9605 27.6952 10.9094 29.0572 11.9186 30.5967C14.0558 33.8565 17.8781 35.8082 22.284 35.8082L22.2839 35.8083Z" fill="white"/>
  <path fill-rule="evenodd" clip-rule="evenodd" d="M24.3392 21.4159C24.3392 23.8768 23.0411 23.0314 23.0411 25.0938C23.0411 25.9633 24.9596 28.2007 27.0005 24.8345C28.6682 22.0838 27.6989 19.6978 26.4666 17.2332C26.1207 16.5415 25.8359 15.9795 25.4933 15.2859C24.9634 14.2133 24.6511 13.8438 23.5821 13.8438C22.7335 13.8438 22.164 14.3713 21.9487 15.1387C21.5389 16.5991 24.3393 19.7345 24.3393 21.4159H24.3392Z" fill="white"/>
  <path fill-rule="evenodd" clip-rule="evenodd" d="M11.4666 13.6282C11.4666 15.4682 11.1869 17.306 13.5219 17.306C15.3883 17.306 15.0363 14.5215 15.0363 13.3036C15.0363 11.0149 11.4665 10.6953 11.4665 13.6282H11.4666Z" fill="white"/>
  <path fill-rule="evenodd" clip-rule="evenodd" d="M29.9643 13.3036C29.9643 15.0888 29.5645 17.306 31.8032 17.306C33.804 17.306 33.534 14.9455 33.534 13.6282C33.534 10.6953 29.9643 11.0149 29.9643 13.3036Z" fill="white"/>
</svg>
