<svg width="30" height="30" viewBox="0 0 30 30" fill="none" xmlns="http://www.w3.org/2000/svg">
<g clip-path="url(#clip0_2473_802)">
<path d="M26.25 0H3.75C1.68187 0 0 1.68187 0 3.75V26.25C0 28.3181 1.68187 30 3.75 30H26.25C28.3181 30 30 28.3181 30 26.25V3.75C30 1.68187 28.3181 0 26.25 0Z" fill="#1976D2"/>
<path fill-rule="evenodd" clip-rule="evenodd" d="M25.3125 15H20.625V11.25C20.625 10.215 21.465 10.3125 22.5 10.3125H24.375V5.625H20.625C19.1332 5.625 17.7024 6.21763 16.6475 7.27252C15.5926 8.32742 15 9.75816 15 11.25V15H11.25V19.6875H15V30H20.625V19.6875H23.4375L25.3125 15Z" fill="#FAFAFA"/>
</g>
<defs>
<clipPath id="clip0_2473_802">
<rect width="30" height="30" fill="white"/>
</clipPath>
</defs>
</svg>
