<svg xmlns="http://www.w3.org/2000/svg" width="188" height="249" viewBox="0 0 188 249" fill="none">
  <g clip-path="url(#clip0_4221_227)">
    <path fill-rule="evenodd" clip-rule="evenodd" d="M75.505 111.792L76.9037 109.9C78.025 108.591 80.6516 105.249 81.6567 104.678C82.2509 103.324 96.4426 88.868 98.2628 88.4053C98.4289 90.8283 97.9364 94.7211 98.4452 96.8139L99.3917 102.388C102.435 117.434 111.114 125.273 120.138 134.914C126.587 141.805 133.625 151.057 137.029 160.663C137.387 161.673 137.874 162.877 138.185 163.92C138.559 165.169 138.703 165.972 139.063 167.211C140.667 172.736 141.245 184.509 139.666 190.089C139.329 191.279 139.103 192.342 138.744 193.584C135.125 206.103 124.78 217.724 113.002 222.966C104.961 226.544 93.7709 228.36 84.1095 225.824C81.7325 225.2 79.7473 224.76 77.4951 223.836C72.5847 221.823 64.4141 217.024 62.186 213.44C61.1252 213.101 56.2407 207.163 55.6935 205.641C52.8903 202.741 49.1837 193.1 48.3053 187.796C47.6775 184.002 45.3226 167.366 47.5959 164.847C48.7796 166.705 48.7709 169.765 53.7101 175.871C57.3706 180.395 60.626 181.094 63.2247 182.961L63.8775 182.945L63.8276 182.447C60.2602 178.885 57.0481 170.74 56.0161 165.23C52.609 147.036 59.6381 132.43 70.0465 118.633C71.1908 117.116 74.258 112.727 75.5069 111.793L75.505 111.792ZM109.464 36.6661L109.201 27.8255C109.186 25.2104 109.662 22.2738 110.094 19.8795C110.78 16.0799 111.662 12.8024 112.811 9.33875C113.186 8.20691 113.854 7.32083 113.884 5.99219C112.793 6.01715 108.907 7.91603 107.824 8.51123C100.605 12.477 98.6276 13.6405 91.8394 18.2619L82.2346 25.8143C81.4148 26.5947 80.8609 26.9096 80.0247 27.7631L77.6804 29.8376C76.5927 30.885 74.0391 33.2696 73.3316 34.3266C72.7066 34.7451 72.2189 35.2347 71.7332 35.8472C69.2785 38.9432 67.1098 41.06 64.0849 45.0959C53.8714 58.7211 49.6762 73.0664 49.6762 90.9964C49.6762 104.106 52.4967 113.406 52.5361 115.172C51.9505 114.743 50.546 111.983 49.6762 110.753C47.4375 107.591 44.7428 104.73 41.7975 102.254C38.6007 99.5672 38.0045 99.3215 35.5853 95.469C33.048 91.4293 32.1898 84.9387 32.9972 80.2943C33.2631 78.7621 33.5914 78.4722 33.2996 77.2175C32.21 77.9471 31.0503 79.6875 29.9962 80.9336C24.9898 86.8568 17.0583 100.081 13.2826 107.632L8.82341 117.47C5.37413 126.039 2.09477 136.809 1.04165 146.083C0.741171 148.732 -0.0681088 156.935 0.0154113 159.632C0.0528512 160.838 0.215091 161.349 0.291891 162.735C0.343731 163.67 0.478131 164.928 0.615411 166.051C0.842931 167.914 1.20389 170.434 1.60133 172.345C5.20901 189.671 13.8481 207.632 26.2148 219.998C30.9581 224.743 34.4036 227.985 39.9015 231.787C40.7204 232.353 41.1812 232.907 42.1364 233.227C44.0506 233.266 47.3338 234.602 49.3306 235.119C51.7575 235.748 54.4157 236.291 56.8714 236.846C61.1559 237.815 69.8506 238.223 74.3713 238.159C82.9969 238.035 90.9514 236.874 98.858 234.57C119.276 228.621 136.404 216.894 148.634 200.107C156.274 189.622 163.354 174.143 164.966 160.155C165.312 157.158 165.847 155.646 165.944 152.086C166.484 132.332 161.917 115.953 153.799 98.9077C152.827 96.8687 151.692 94.5522 150.624 92.7512C149.657 91.1211 148.118 87.3503 146.898 87.1084C147.345 88.0127 146.738 94.7989 146.639 96.4549C146.471 99.2399 145.739 102.762 145.135 105.089C144.419 107.853 143.618 110.202 142.555 112.647L140.061 117.691C139.608 118.658 139.768 118.822 138.841 119.071C139.401 117.903 140.385 108.484 140.411 106.344C140.512 98.1023 140.129 94.4101 138.299 87.1506C137.796 85.1567 136.892 83.6379 136.205 81.933L127.813 68.7493C126.694 67.317 125.594 66.093 124.541 64.7423L121.316 60.6882C120.698 59.9019 120.301 59.5295 119.678 58.6866C115.72 53.3365 112.668 49.2162 110.67 42.4799C110.276 41.1531 109.516 38.0408 109.465 36.6642L109.464 36.6661Z" fill="#D00027"/>
    <path fill-rule="evenodd" clip-rule="evenodd" d="M146.898 87.1116C148.118 87.3536 149.657 91.1235 150.624 92.7545C151.692 94.5545 152.827 96.872 153.799 98.911C161.917 115.956 166.485 132.335 165.944 152.089C165.847 155.649 165.312 157.161 164.966 160.158C163.354 174.146 156.273 189.625 148.634 200.11C136.403 216.897 119.275 228.624 98.858 234.573C90.9514 236.877 82.9968 238.038 74.3712 238.162C69.8506 238.227 61.1559 237.818 56.8714 236.85C54.4157 236.295 51.7575 235.751 49.3306 235.123C47.3338 234.605 44.0506 233.269 42.1364 233.23C43.441 235.005 55.4333 240.749 57.6221 241.625C63.2487 243.875 69.4301 246.067 75.962 247.2C77.7284 247.507 79.2855 247.737 81.0893 248.052C87.6816 249.203 99.2794 249.15 105.982 248.17C107.003 248.02 107.68 247.859 108.686 247.755C111.515 247.465 119.995 245.385 123.344 244.216C127.383 242.803 134.438 240.075 137.909 237.984C143.504 234.614 144.338 234.667 150.797 229.816C155.33 226.411 162.958 219.483 166.098 215.223L168.695 211.841C171.584 208.162 172.526 206.623 174.724 202.792L177.919 196.888C180.332 192.065 183.113 184.825 184.355 179.407C186.065 171.931 187.178 166.437 187.191 158.327C187.195 156.029 186.93 154.811 186.938 152.601C186.945 150.697 186.52 148.997 186.411 147.148C186.23 144.073 185.533 141.171 184.924 138.237C184.824 137.759 184.789 137.359 184.694 136.908C183.43 130.931 181.14 124.088 178.95 118.476C176.263 111.589 174.32 108.323 171.247 102.264C168.578 97.0035 163.091 88.7868 159.526 83.8294L154.327 77.07C153.802 76.4067 153.568 76.2118 153.024 75.5139C152.551 74.9081 152.116 74.312 151.64 73.7782C150.569 72.5772 146.76 67.9116 145.598 67.6016C145.193 68.4454 145.717 69.9305 145.881 71.9993C146.019 73.7542 146.322 74.8131 146.373 76.9654C146.405 78.2873 146.724 80.4464 146.86 81.678C147.031 83.2064 146.897 85.4998 146.897 87.1107L146.898 87.1116Z" fill="#B7022C"/>
    <path fill-rule="evenodd" clip-rule="evenodd" d="M69.2371 127.656C70.4563 126.996 71.7706 128.03 71.929 129.209C72.1604 130.929 68.9741 135.512 67.4775 138.713C62.8416 148.634 62.1485 159.141 65.7725 169.261C66.6087 171.595 67.6493 173.465 68.8474 175.316C69.0931 175.694 73.3767 180.268 69.6826 181.054C67.2144 181.579 65.8349 178.416 64.6743 176.597C60.6951 170.361 59.113 162.232 59.306 154.427C59.4413 148.946 60.889 143.79 62.6151 139.343C63.7699 136.369 67.418 128.642 69.2362 127.655L69.2371 127.656ZM73.9594 120.495C74.2243 120.264 73.6339 120.245 74.9021 120.012C75.8487 119.837 76.9056 120.116 77.2224 121.228C77.6074 122.576 76.7444 123.841 76.0455 124.389C73.9959 125.994 70.8163 123.241 73.9594 120.495ZM63.8256 182.451C64.8413 183.237 64.441 183.034 64.5677 183.608C63.9956 183.519 64.4851 183.729 63.8208 183.445C63.0941 183.134 63.6048 183.315 63.2237 182.966C60.625 181.098 57.3696 180.4 53.7091 175.875C48.7709 169.769 48.7786 166.708 47.5949 164.851C45.3207 167.369 47.6765 184.006 48.3044 187.8C49.1828 193.104 52.8893 202.746 55.6925 205.645C57.5779 206.135 62.3232 205.183 64.2711 204.614C76.1434 201.142 86.2839 193.756 92.4691 182.901C93.1143 181.768 93.5588 180.948 94.2298 179.76C94.8375 178.684 95.161 177.471 95.7437 176.307C96.9524 173.89 97.321 171.418 98.0371 168.4C100.579 157.697 97.44 144.096 93.0173 134.462C90.5875 129.17 84.8794 121.25 80.8148 116.798L77.233 112.839C76.466 111.915 76.704 111.858 75.504 111.797C74.2551 112.731 71.1879 117.12 70.0435 118.637C59.6352 132.434 52.6061 147.04 56.0131 165.234C57.0451 170.744 60.2573 178.889 63.8247 182.451H63.8256Z" fill="#FFA81A"/>
    <path fill-rule="evenodd" clip-rule="evenodd" d="M81.6568 104.679C82.7732 104.364 81.7835 104.524 82.8798 104.028C86.1332 114.854 108.528 128.972 115.768 149.497C118.486 157.202 119.843 163.026 119.655 171.848C119.488 179.603 116.967 186.658 113.943 192.196C105.799 207.104 90.2996 216.52 72.8123 216.379C70.6849 216.362 65.594 216.361 64.2683 214.945C63.0731 213.668 63.4465 213.69 62.186 213.44C64.4152 217.026 72.5857 221.824 77.4952 223.837C79.7473 224.761 81.7326 225.201 84.1096 225.824C93.77 228.36 104.96 226.544 113.002 222.967C124.78 217.726 135.124 206.104 138.744 193.585C139.103 192.343 139.329 191.28 139.666 190.089C141.246 184.51 140.667 172.736 139.063 167.212C138.703 165.973 138.559 165.17 138.185 163.921C137.874 162.878 137.387 161.674 137.029 160.664C133.625 151.058 126.586 141.806 120.138 134.915C111.114 125.274 102.435 117.435 99.3918 102.389L98.4452 96.8149C97.9364 94.7221 98.4289 90.8293 98.2628 88.4062C96.4427 88.869 82.251 103.325 81.6568 104.679Z" fill="#EF7716"/>
    <path fill-rule="evenodd" clip-rule="evenodd" d="M81.6567 104.683C80.6516 105.253 78.025 108.595 76.9037 109.905L75.505 111.797C76.705 111.858 76.4669 111.914 77.234 112.839L80.8157 116.798C84.8804 121.25 90.5885 129.17 93.0183 134.462C97.44 144.096 100.579 157.698 98.0381 168.4C97.322 171.417 96.9533 173.889 95.7447 176.307C95.162 177.471 94.8384 178.684 94.2308 179.76C93.5597 180.947 93.1152 181.769 92.4701 182.901C86.2848 193.756 76.1444 201.142 64.272 204.613C62.3242 205.183 57.5789 206.135 55.6935 205.644C56.2407 207.167 61.1252 213.105 62.186 213.443C63.4464 213.693 63.073 213.671 64.2682 214.948C65.593 216.364 70.6848 216.365 72.8122 216.382C90.3005 216.523 105.799 207.106 113.942 192.199C116.967 186.661 119.489 179.606 119.654 171.851C119.843 163.03 118.486 157.205 115.768 149.5C108.528 128.975 86.1332 114.857 82.8797 104.031C81.7834 104.528 82.7732 104.368 81.6567 104.682V104.683Z" fill="#F69119"/>
    <path fill-rule="evenodd" clip-rule="evenodd" d="M119.342 21.5926C119.342 33.918 126.344 37.8924 128.82 53.4483C129.114 55.2991 129.102 57.1404 129.481 58.7657C131.811 58.1436 135.706 50.2179 136.463 48.3305C137.951 44.622 139.359 38.9119 139.359 33.8095C139.359 24.1644 132.081 15.6771 132.081 0.015625C130.447 0.052105 129.494 1.49498 128.374 2.54811L127.688 3.16155C125.483 5.27258 123.201 8.33498 121.848 11.0998C121.348 12.1231 120.972 13.182 120.606 14.2764C119.947 16.2492 119.342 18.8988 119.342 21.5916V21.5926Z" fill="#D10027"/>
    <path fill-rule="evenodd" clip-rule="evenodd" d="M33.0375 51.49C33.0375 58.1821 35.5757 64.1149 39.4532 68.9908C40.1309 69.8442 40.0858 70.3617 41.3559 70.4673C41.9482 63.3498 43.681 56.7556 46.9892 51.4045C47.6276 50.3716 48.3495 49.5306 49.081 48.5562C49.8471 47.5348 50.5152 46.7188 51.2372 45.7741C55.3642 40.3732 58.0263 36.5908 59.3338 28.9156C59.8071 26.1335 59.9098 22.7274 59.3684 19.9607C58.9556 17.8497 57.7028 13.6881 56.4336 12.7578C55.6887 13.3031 54.9543 16.233 54.2448 18.1069C52.4583 22.8196 50.2167 26.5281 46.6263 29.985C40.4132 35.9649 33.0384 40.2321 33.0384 51.4909L33.0375 51.49Z" fill="#D10027"/>
    <path fill-rule="evenodd" clip-rule="evenodd" d="M69.2371 127.651C67.4189 128.638 63.7709 136.364 62.616 139.339C60.8899 143.785 59.4423 148.942 59.3069 154.422C59.1139 162.228 60.696 170.356 64.6752 176.593C65.8359 178.412 67.2154 181.575 69.6835 181.05C73.3776 180.264 69.0931 175.691 68.8483 175.312C67.6502 173.46 66.6096 171.591 65.7735 169.256C62.1495 159.137 62.8426 148.63 67.4784 138.709C68.9751 135.508 72.1613 130.924 71.9299 129.205C71.7715 128.024 70.4563 126.991 69.2381 127.652L69.2371 127.651Z" fill="#FFC71C"/>
    <path fill-rule="evenodd" clip-rule="evenodd" d="M73.9595 120.493C70.8164 123.237 73.9969 125.992 76.0456 124.387C76.7444 123.839 77.6075 122.574 77.2225 121.225C76.9048 120.114 75.8488 119.834 74.9022 120.009C73.634 120.242 74.2244 120.261 73.9595 120.493Z" fill="#FFC71C"/>
    <path fill-rule="evenodd" clip-rule="evenodd" d="M63.2237 182.96C63.6049 183.31 63.0951 183.128 63.8209 183.439C64.4852 183.723 63.9956 183.514 64.5677 183.602C64.4401 183.028 64.8413 183.231 63.8257 182.445L63.8756 182.944L63.2228 182.96H63.2237Z" fill="#F1741E"/>
  </g>
  <defs>
    <clipPath id="clip0_4221_227">
      <rect width="187.2" height="248.928" fill="white"/>
    </clipPath>
  </defs>
</svg>
