<svg width="151" height="150" viewBox="0 0 151 150" fill="none" xmlns="http://www.w3.org/2000/svg">
<g filter="url(#filter0_d_241_156)">
<path d="M144.71 69.3085C145.668 69.8954 145.956 71.1563 145.333 72.0911C137.011 84.5902 126.953 95.5009 116.057 103.835C109.051 109.194 101.846 113.375 94.7134 116.25C92.5726 117.113 91.2844 114.102 93.0981 112.674C99.2595 107.824 105.057 101.717 110.094 94.7059C117.593 84.2675 122.992 72.3996 125.556 60.7875C125.859 59.414 127.425 58.7149 128.624 59.4499L144.71 69.3085Z" fill="url(#paint0_linear_241_156)"/>
<path d="M144.58 69.5217C145.418 70.0356 145.668 71.1377 145.125 71.9525C136.817 84.4309 126.777 95.3207 115.905 103.637C108.914 108.984 101.729 113.153 94.6199 116.018C94.1436 116.21 93.734 116.181 93.4083 116.03C93.078 115.876 92.8125 115.585 92.6516 115.22C92.3289 114.488 92.4462 113.505 93.2527 112.871C99.434 108.005 105.248 101.881 110.297 94.8517C117.814 84.3879 123.228 72.489 125.8 60.8414C126.068 59.6287 127.447 59.0215 128.494 59.6631L144.58 69.5217Z" stroke="white" stroke-width="0.5"/>
</g>
<g filter="url(#filter1_d_241_156)">
<path d="M139.908 86.863C140.788 87.5645 140.917 88.8546 140.176 89.7011C132.43 98.5504 123.359 105.884 113.753 111.05C108.201 114.036 102.575 116.241 97.0403 117.622C94.8043 118.179 93.9685 114.919 95.932 113.713C100.669 110.802 105.198 107.097 109.282 102.751C116.098 95.4976 121.308 86.8472 124.239 77.9783C124.691 76.6131 126.37 76.067 127.494 76.9634L139.908 86.863Z" fill="url(#paint1_linear_241_156)"/>
<path d="M139.752 87.0585C140.523 87.6731 140.633 88.7996 139.988 89.5364C132.26 98.365 123.212 105.679 113.634 110.83C108.099 113.807 102.493 116.004 96.9799 117.379C96.4849 117.503 96.0873 117.412 95.7882 117.209C95.484 117.002 95.2614 116.665 95.1526 116.263C94.934 115.457 95.19 114.462 96.0629 113.926C100.82 111.003 105.366 107.284 109.464 102.922C116.303 95.6439 121.533 86.9622 124.477 78.0567C124.877 76.8473 126.358 76.3772 127.338 77.1589L139.752 87.0585Z" stroke="white" stroke-width="0.5"/>
</g>
<g filter="url(#filter2_d_241_156)">
<path d="M130.487 102.874C131.137 103.791 130.904 105.064 129.959 105.672C121.259 111.26 111.885 115.342 102.643 117.556C97.9818 118.672 93.4303 119.295 89.0852 119.423C86.7798 119.491 86.7306 116.187 88.9184 115.457C93.0435 114.08 97.1765 112.173 101.158 109.785C108.628 105.304 115.166 99.3702 119.933 92.7833C120.765 91.6346 122.499 91.5971 123.319 92.7542L130.487 102.874Z" fill="url(#paint2_linear_241_156)"/>
<path d="M130.283 103.018C130.852 103.822 130.646 104.933 129.824 105.461C121.146 111.036 111.797 115.106 102.585 117.313C97.9388 118.425 93.4043 119.046 89.0779 119.173C88.5658 119.188 88.2016 119.018 87.9606 118.763C87.7154 118.503 87.5788 118.136 87.5667 117.732C87.5426 116.919 88.0213 116.02 88.9976 115.694C93.1407 114.312 97.2902 112.396 101.286 109.999C108.784 105.502 115.348 99.5458 120.136 92.9299C120.873 91.9115 122.4 91.8898 123.115 92.8987L130.283 103.018Z" stroke="white" stroke-width="0.5"/>
</g>
<g filter="url(#filter3_d_241_156)">
<path d="M5.74933 69.3138C4.78999 69.8977 4.50321 71.1549 5.12873 72.088C13.5089 84.5884 23.6367 95.5002 34.6082 103.835C41.6787 109.206 48.9501 113.394 56.1473 116.27C58.2969 117.128 59.5801 114.123 57.7574 112.699C51.5416 107.845 45.6926 101.729 40.6124 94.7059C33.0613 84.2665 27.625 72.3974 25.0435 60.7843C24.7387 59.4129 23.1668 58.7122 21.9645 59.444L5.74933 69.3138Z" fill="url(#paint3_linear_241_156)"/>
<path d="M5.88061 69.5265C5.04042 70.0379 4.79189 71.1367 5.33718 71.9501C13.7034 84.4298 23.8126 95.3206 34.76 103.637C41.8148 108.997 49.0667 113.172 56.2402 116.038C56.7184 116.229 57.1291 116.2 57.4553 116.048C57.7863 115.894 58.0518 115.604 58.2122 115.24C58.5339 114.509 58.4134 113.528 57.6029 112.895C51.3671 108.025 45.502 101.892 40.409 94.8511C32.8395 84.3862 27.3882 72.4862 24.7988 60.8375C24.5296 59.6267 23.1453 59.018 22.0958 59.6568L5.88061 69.5265Z" stroke="white" stroke-width="0.5"/>
</g>
<g filter="url(#filter4_d_241_156)">
<path d="M10.5863 86.8683C9.70435 87.5669 9.57541 88.8527 10.3195 89.697C18.1199 98.5481 27.255 105.883 36.9285 111.05C42.5338 114.044 48.2147 116.254 53.8023 117.633C56.0468 118.187 56.8799 114.936 54.9077 113.735C50.1246 110.82 45.5521 107.108 41.4297 102.751C34.5657 95.4958 29.3184 86.8429 26.3674 77.9717C25.9144 76.6099 24.2284 76.0636 23.1009 76.9566L10.5863 86.8683Z" fill="url(#paint4_linear_241_156)"/>
<path d="M10.7428 87.0633C9.97009 87.6753 9.86044 88.7981 10.5081 89.533C18.2903 98.3635 27.4021 105.679 37.047 110.831C42.6356 113.816 48.2969 116.017 53.8625 117.391C54.3593 117.514 54.758 117.424 55.0579 117.221C55.3628 117.014 55.5856 116.677 55.6941 116.277C55.9122 115.473 55.6535 114.481 54.7768 113.947C49.9738 111.021 45.384 107.294 41.247 102.921C34.3594 95.6414 29.0924 86.9573 26.1292 78.0496C25.7279 76.8431 24.2406 76.3729 23.2574 77.1516L10.7428 87.0633Z" stroke="white" stroke-width="0.5"/>
</g>
<g filter="url(#filter5_d_241_156)">
<path d="M20.0762 102.877C19.4237 103.792 19.6552 105.062 20.6027 105.667C29.3642 111.258 38.8065 115.342 48.1146 117.556C52.824 118.676 57.4225 119.299 61.8112 119.424C64.1236 119.49 64.1785 116.199 61.9845 115.474C57.814 114.096 53.635 112.182 49.6101 109.785C42.0838 105.301 35.4967 99.3628 30.6961 92.771C29.8634 91.6275 28.1252 91.5927 27.3021 92.7466L20.0762 102.877Z" fill="url(#paint5_linear_241_156)"/>
<path d="M20.2807 103.021C19.709 103.823 19.914 104.931 20.7385 105.457C29.4786 111.034 38.895 115.106 48.1734 117.313C52.8676 118.43 57.4489 119.051 61.8189 119.175C62.3326 119.19 62.6983 119.02 62.9405 118.765C63.1868 118.507 63.3244 118.141 63.3371 117.738C63.3626 116.929 62.884 116.034 61.9049 115.71C57.7163 114.327 53.5207 112.405 49.4808 109.998C41.9274 105.499 35.3145 99.5381 30.4928 92.9174C29.7546 91.9038 28.2242 91.8843 27.5066 92.8904L20.2807 103.021Z" stroke="white" stroke-width="0.5"/>
</g>
<path d="M58 12C57.7791 12.0517 57.8738 12.1113 57.6306 12.1113C57.447 12.1113 57.1737 12.0298 57 12L51 22.6995L58.8714 29L64.7749 20.2715L58 12ZM93 12C92.8263 12.0298 92.5555 12.1113 92.3719 12.1113C92.1287 12.1113 92.2209 12.0517 92 12L85.2276 20.2715L91.1311 29L99 22.6995L93 12Z" fill="url(#paint6_linear_241_156)"/>
<path d="M103.853 18.2031L90.9028 28.4321L76.2062 7C75.8269 7.10629 75.4257 7.17393 75 7.17393C74.5743 7.17393 74.1731 7.10629 73.7938 7L59.0972 28.4321L46.1474 18.2031C45.8264 18.4401 45.4297 18.6038 45 18.6765L50.8603 37L75 35L97.8347 37L105 18.6765C104.57 18.6038 104.174 18.4401 103.853 18.2031Z" fill="url(#paint7_linear_241_156)"/>
<g filter="url(#filter6_d_241_156)">
<mask id="path-15-outside-1_241_156" maskUnits="userSpaceOnUse" x="29" y="29" width="92" height="92" fill="black">
<rect fill="white" x="29" y="29" width="92" height="92"/>
<path d="M120 75C120 99.8528 99.8528 120 75 120C50.1472 120 30 99.8528 30 75C30 50.1472 50.1472 30 75 30C99.8528 30 120 50.1472 120 75ZM35.3969 75C35.3969 96.8722 53.1278 114.603 75 114.603C96.8722 114.603 114.603 96.8722 114.603 75C114.603 53.1278 96.8722 35.3969 75 35.3969C53.1278 35.3969 35.3969 53.1278 35.3969 75Z"/>
</mask>
<path d="M120 75C120 99.8528 99.8528 120 75 120C50.1472 120 30 99.8528 30 75C30 50.1472 50.1472 30 75 30C99.8528 30 120 50.1472 120 75ZM35.3969 75C35.3969 96.8722 53.1278 114.603 75 114.603C96.8722 114.603 114.603 96.8722 114.603 75C114.603 53.1278 96.8722 35.3969 75 35.3969C53.1278 35.3969 35.3969 53.1278 35.3969 75Z" fill="url(#paint8_linear_241_156)"/>
<path d="M120 75C120 99.8528 99.8528 120 75 120C50.1472 120 30 99.8528 30 75C30 50.1472 50.1472 30 75 30C99.8528 30 120 50.1472 120 75ZM35.3969 75C35.3969 96.8722 53.1278 114.603 75 114.603C96.8722 114.603 114.603 96.8722 114.603 75C114.603 53.1278 96.8722 35.3969 75 35.3969C53.1278 35.3969 35.3969 53.1278 35.3969 75Z" stroke="white" mask="url(#path-15-outside-1_241_156)"/>
</g>
<g filter="url(#filter7_d_241_156)">
<path d="M75.7071 111.377C75.8198 110.019 76.8338 108.908 78.1759 108.671L81.1779 108.142C82.52 107.905 83.853 108.603 84.4234 109.841L88.8381 119.419C89.6614 121.206 88.5716 123.288 86.6344 123.63L78.3455 125.091C76.4084 125.433 74.6722 123.849 74.8349 121.889L75.7071 111.377Z" fill="url(#paint9_linear_241_156)"/>
</g>
<g filter="url(#filter8_d_241_156)">
<path d="M66.0434 109.841C66.6138 108.603 67.9468 107.905 69.2889 108.142L72.291 108.671C73.6331 108.908 74.647 110.019 74.7597 111.378L75.632 121.889C75.7946 123.849 74.0584 125.433 72.1213 125.091L63.8324 123.63C61.8952 123.288 60.8054 121.206 61.6288 119.42L66.0434 109.841Z" fill="url(#paint10_linear_241_156)"/>
</g>
<g filter="url(#filter9_d_241_156)">
<path d="M70.4483 110.137C70.7952 108.819 71.9867 107.9 73.3496 107.9H77.2505C78.6134 107.9 79.8049 108.819 80.1518 110.137L83.3097 122.137C83.8103 124.039 82.3755 125.9 80.4084 125.9H70.1917C68.2246 125.9 66.7898 124.039 67.2904 122.137L70.4483 110.137Z" fill="url(#paint11_linear_241_156)"/>
</g>
<g filter="url(#filter10_d_241_156)">
<path d="M48.5113 39.5657C44.7701 45.902 44.7703 48.0965 48.5123 54.4333C48.5176 54.4438 48.5194 54.4557 48.5176 54.4674C48.5157 54.479 48.5102 54.4897 48.5019 54.498C48.4936 54.5063 48.4829 54.5118 48.4713 54.5137C48.4596 54.5155 48.4477 54.5137 48.4372 54.5084C42.0965 50.7703 39.9019 50.7701 33.5656 54.5113C33.5551 54.5166 33.5432 54.5185 33.5316 54.5166C33.52 54.5148 33.5093 54.5093 33.501 54.501C33.4927 54.4927 33.4872 54.4819 33.4853 54.4703C33.4835 54.4587 33.4853 54.4468 33.4906 54.4363C37.2298 48.098 37.2297 45.9035 33.4896 39.5647C33.4843 39.5542 33.4825 39.5423 33.4843 39.5307C33.4862 39.5191 33.4917 39.5083 33.5 39.5C33.5083 39.4917 33.519 39.4862 33.5306 39.4844C33.5422 39.4825 33.5541 39.4844 33.5646 39.4897C39.9034 43.2297 42.098 43.2299 48.4363 39.4906C48.4468 39.4853 48.4587 39.4835 48.4703 39.4854C48.4819 39.4872 48.4926 39.4927 48.5009 39.501C48.5092 39.5093 48.5147 39.5201 48.5166 39.5317C48.5184 39.5433 48.5166 39.5552 48.5113 39.5657Z" fill="white"/>
<path d="M45.4556 46.9993C45.4557 49.0545 46.2967 51.0905 47.9236 53.9201C45.0923 52.2948 43.0553 51.4548 40.9997 51.4551C38.9442 51.4555 36.9084 52.2961 34.0792 53.9226C35.7048 51.0925 36.545 49.0562 36.5448 47.0007C36.5447 44.9451 35.7042 42.9086 34.0781 40.0781C36.9086 41.7042 38.945 42.5447 41.0006 42.5449C43.0561 42.545 45.0924 41.7048 47.9225 40.0792C46.2961 42.9084 45.4554 44.9442 45.4556 46.9993Z" stroke="#F3F3F3" stroke-width="0.5"/>
</g>
<g filter="url(#filter11_d_241_156)">
<path d="M52.9584 47.3461C45.2323 49.3357 43.5499 51.0184 41.5605 58.7455C41.5566 58.7576 41.5489 58.7681 41.5385 58.7756C41.5282 58.7831 41.5158 58.7871 41.503 58.7871C41.4903 58.7871 41.4779 58.7831 41.4675 58.7756C41.4572 58.7681 41.4495 58.7576 41.4455 58.7455C39.4501 51.0184 37.7677 49.3357 30.0416 47.3461C30.0295 47.3422 30.019 47.3345 30.0115 47.3241C30.004 47.3138 30 47.3014 30 47.2886C30 47.2759 30.004 47.2634 30.0115 47.2531C30.019 47.2428 30.0295 47.2351 30.0416 47.2311C37.7677 45.2385 39.4501 43.5559 41.4425 35.8288C41.4465 35.8166 41.4542 35.8061 41.4645 35.7986C41.4748 35.7911 41.4873 35.7871 41.5 35.7871C41.5128 35.7871 41.5252 35.7911 41.5355 35.7986C41.5458 35.8061 41.5535 35.8166 41.5575 35.8288C43.5499 43.5559 45.2323 45.2385 52.9584 47.2311C52.9705 47.2351 52.981 47.2428 52.9885 47.2531C52.996 47.2634 53 47.2759 53 47.2886C53 47.3014 52.996 47.3138 52.9885 47.3241C52.981 47.3345 52.9705 47.3422 52.9584 47.3461Z" fill="white"/>
<path d="M44.931 43.8571C46.5143 45.4406 48.7357 46.3583 52.1942 47.2885C48.7357 48.2173 46.5143 49.1343 44.9314 50.7175C43.3484 52.3007 42.4315 54.5224 41.5028 57.9816C40.5713 54.5224 39.653 52.3006 38.0693 50.7174C36.4857 49.1343 34.2643 48.2174 30.8058 47.2885C34.2643 46.3583 36.4857 45.4406 38.069 43.8571C39.6523 42.2736 40.5699 40.0518 41.5 36.5926C42.4301 40.0518 43.3477 42.2736 44.931 43.8571Z" stroke="#F3F3F3" stroke-width="0.5"/>
</g>
<path d="M104.5 20C105.328 20 106 19.3284 106 18.5C106 17.6716 105.328 17 104.5 17C103.672 17 103 17.6716 103 18.5C103 19.3284 103.672 20 104.5 20Z" fill="#EDAD06"/>
<path d="M45.5 20C46.3284 20 47 19.3284 47 18.5C47 17.6716 46.3284 17 45.5 17C44.6716 17 44 17.6716 44 18.5C44 19.3284 44.6716 20 45.5 20Z" fill="#EDAE06"/>
<path d="M75 8C76.1046 8 77 7.10457 77 6C77 4.89543 76.1046 4 75 4C73.8954 4 73 4.89543 73 6C73 7.10457 73.8954 8 75 8Z" fill="#FAD907"/>
<path d="M92.5 13C93.3284 13 94 12.3284 94 11.5C94 10.6716 93.3284 10 92.5 10C91.6716 10 91 10.6716 91 11.5C91 12.3284 91.6716 13 92.5 13Z" fill="#F9D406"/>
<path d="M57.5 13C58.3284 13 59 12.3284 59 11.5C59 10.6716 58.3284 10 57.5 10C56.6716 10 56 10.6716 56 11.5C56 12.3284 56.6716 13 57.5 13Z" fill="#F9D507"/>
<defs>
<filter id="filter0_d_241_156" x="90.2351" y="59.1533" width="57.4277" height="61.2495" filterUnits="userSpaceOnUse" color-interpolation-filters="sRGB">
<feFlood flood-opacity="0" result="BackgroundImageFix"/>
<feColorMatrix in="SourceAlpha" type="matrix" values="0 0 0 0 0 0 0 0 0 0 0 0 0 0 0 0 0 0 127 0" result="hardAlpha"/>
<feOffset dy="2"/>
<feGaussianBlur stdDeviation="1"/>
<feComposite in2="hardAlpha" operator="out"/>
<feColorMatrix type="matrix" values="0 0 0 0 0 0 0 0 0 0 0 0 0 0 0 0 0 0 0.25 0"/>
<feBlend mode="normal" in2="BackgroundImageFix" result="effect1_dropShadow_241_156"/>
<feBlend mode="normal" in="SourceGraphic" in2="effect1_dropShadow_241_156" result="shape"/>
</filter>
<filter id="filter1_d_241_156" x="92.8291" y="76.5249" width="49.8301" height="45.1602" filterUnits="userSpaceOnUse" color-interpolation-filters="sRGB">
<feFlood flood-opacity="0" result="BackgroundImageFix"/>
<feColorMatrix in="SourceAlpha" type="matrix" values="0 0 0 0 0 0 0 0 0 0 0 0 0 0 0 0 0 0 127 0" result="hardAlpha"/>
<feOffset dy="2"/>
<feGaussianBlur stdDeviation="1"/>
<feComposite in2="hardAlpha" operator="out"/>
<feColorMatrix type="matrix" values="0 0 0 0 0 0 0 0 0 0 0 0 0 0 0 0 0 0 0.25 0"/>
<feBlend mode="normal" in2="BackgroundImageFix" result="effect1_dropShadow_241_156"/>
<feBlend mode="normal" in="SourceGraphic" in2="effect1_dropShadow_241_156" result="shape"/>
</filter>
<filter id="filter2_d_241_156" x="85.3159" y="91.9038" width="47.5388" height="31.52" filterUnits="userSpaceOnUse" color-interpolation-filters="sRGB">
<feFlood flood-opacity="0" result="BackgroundImageFix"/>
<feColorMatrix in="SourceAlpha" type="matrix" values="0 0 0 0 0 0 0 0 0 0 0 0 0 0 0 0 0 0 127 0" result="hardAlpha"/>
<feOffset dy="2"/>
<feGaussianBlur stdDeviation="1"/>
<feComposite in2="hardAlpha" operator="out"/>
<feColorMatrix type="matrix" values="0 0 0 0 0 0 0 0 0 0 0 0 0 0 0 0 0 0 0.25 0"/>
<feBlend mode="normal" in2="BackgroundImageFix" result="effect1_dropShadow_241_156"/>
<feBlend mode="normal" in="SourceGraphic" in2="effect1_dropShadow_241_156" result="shape"/>
</filter>
<filter id="filter3_d_241_156" x="2.79663" y="59.1494" width="57.8311" height="61.272" filterUnits="userSpaceOnUse" color-interpolation-filters="sRGB">
<feFlood flood-opacity="0" result="BackgroundImageFix"/>
<feColorMatrix in="SourceAlpha" type="matrix" values="0 0 0 0 0 0 0 0 0 0 0 0 0 0 0 0 0 0 127 0" result="hardAlpha"/>
<feOffset dy="2"/>
<feGaussianBlur stdDeviation="1"/>
<feComposite in2="hardAlpha" operator="out"/>
<feColorMatrix type="matrix" values="0 0 0 0 0 0 0 0 0 0 0 0 0 0 0 0 0 0 0.25 0"/>
<feBlend mode="normal" in2="BackgroundImageFix" result="effect1_dropShadow_241_156"/>
<feBlend mode="normal" in="SourceGraphic" in2="effect1_dropShadow_241_156" result="shape"/>
</filter>
<filter id="filter4_d_241_156" x="7.83423" y="76.5205" width="50.1836" height="45.1758" filterUnits="userSpaceOnUse" color-interpolation-filters="sRGB">
<feFlood flood-opacity="0" result="BackgroundImageFix"/>
<feColorMatrix in="SourceAlpha" type="matrix" values="0 0 0 0 0 0 0 0 0 0 0 0 0 0 0 0 0 0 127 0" result="hardAlpha"/>
<feOffset dy="2"/>
<feGaussianBlur stdDeviation="1"/>
<feComposite in2="hardAlpha" operator="out"/>
<feColorMatrix type="matrix" values="0 0 0 0 0 0 0 0 0 0 0 0 0 0 0 0 0 0 0.25 0"/>
<feBlend mode="normal" in2="BackgroundImageFix" result="effect1_dropShadow_241_156"/>
<feBlend mode="normal" in="SourceGraphic" in2="effect1_dropShadow_241_156" result="shape"/>
</filter>
<filter id="filter5_d_241_156" x="17.7061" y="91.897" width="47.8828" height="31.5283" filterUnits="userSpaceOnUse" color-interpolation-filters="sRGB">
<feFlood flood-opacity="0" result="BackgroundImageFix"/>
<feColorMatrix in="SourceAlpha" type="matrix" values="0 0 0 0 0 0 0 0 0 0 0 0 0 0 0 0 0 0 127 0" result="hardAlpha"/>
<feOffset dy="2"/>
<feGaussianBlur stdDeviation="1"/>
<feComposite in2="hardAlpha" operator="out"/>
<feColorMatrix type="matrix" values="0 0 0 0 0 0 0 0 0 0 0 0 0 0 0 0 0 0 0.25 0"/>
<feBlend mode="normal" in2="BackgroundImageFix" result="effect1_dropShadow_241_156"/>
<feBlend mode="normal" in="SourceGraphic" in2="effect1_dropShadow_241_156" result="shape"/>
</filter>
<filter id="filter6_d_241_156" x="28.5" y="29.5" width="93" height="93" filterUnits="userSpaceOnUse" color-interpolation-filters="sRGB">
<feFlood flood-opacity="0" result="BackgroundImageFix"/>
<feColorMatrix in="SourceAlpha" type="matrix" values="0 0 0 0 0 0 0 0 0 0 0 0 0 0 0 0 0 0 127 0" result="hardAlpha"/>
<feOffset dy="1"/>
<feGaussianBlur stdDeviation="0.5"/>
<feComposite in2="hardAlpha" operator="out"/>
<feColorMatrix type="matrix" values="0 0 0 0 0 0 0 0 0 0 0 0 0 0 0 0 0 0 0.25 0"/>
<feBlend mode="normal" in2="BackgroundImageFix" result="effect1_dropShadow_241_156"/>
<feBlend mode="normal" in="SourceGraphic" in2="effect1_dropShadow_241_156" result="shape"/>
</filter>
<filter id="filter7_d_241_156" x="73.8242" y="108.096" width="16.2913" height="19.0415" filterUnits="userSpaceOnUse" color-interpolation-filters="sRGB">
<feFlood flood-opacity="0" result="BackgroundImageFix"/>
<feColorMatrix in="SourceAlpha" type="matrix" values="0 0 0 0 0 0 0 0 0 0 0 0 0 0 0 0 0 0 127 0" result="hardAlpha"/>
<feOffset dy="1"/>
<feGaussianBlur stdDeviation="0.5"/>
<feComposite in2="hardAlpha" operator="out"/>
<feColorMatrix type="matrix" values="0 0 0 0 0 0 0 0 0 0 0 0 0 0 0 0 0 0 0.25 0"/>
<feBlend mode="normal" in2="BackgroundImageFix" result="effect1_dropShadow_241_156"/>
<feBlend mode="normal" in="SourceGraphic" in2="effect1_dropShadow_241_156" result="shape"/>
</filter>
<filter id="filter8_d_241_156" x="60.3513" y="108.096" width="16.2913" height="19.0415" filterUnits="userSpaceOnUse" color-interpolation-filters="sRGB">
<feFlood flood-opacity="0" result="BackgroundImageFix"/>
<feColorMatrix in="SourceAlpha" type="matrix" values="0 0 0 0 0 0 0 0 0 0 0 0 0 0 0 0 0 0 127 0" result="hardAlpha"/>
<feOffset dy="1"/>
<feGaussianBlur stdDeviation="0.5"/>
<feComposite in2="hardAlpha" operator="out"/>
<feColorMatrix type="matrix" values="0 0 0 0 0 0 0 0 0 0 0 0 0 0 0 0 0 0 0.25 0"/>
<feBlend mode="normal" in2="BackgroundImageFix" result="effect1_dropShadow_241_156"/>
<feBlend mode="normal" in="SourceGraphic" in2="effect1_dropShadow_241_156" result="shape"/>
</filter>
<filter id="filter9_d_241_156" x="66.1899" y="107.9" width="18.2202" height="20" filterUnits="userSpaceOnUse" color-interpolation-filters="sRGB">
<feFlood flood-opacity="0" result="BackgroundImageFix"/>
<feColorMatrix in="SourceAlpha" type="matrix" values="0 0 0 0 0 0 0 0 0 0 0 0 0 0 0 0 0 0 127 0" result="hardAlpha"/>
<feOffset dy="1"/>
<feGaussianBlur stdDeviation="0.5"/>
<feComposite in2="hardAlpha" operator="out"/>
<feColorMatrix type="matrix" values="0 0 0 0 0 0 0 0 0 0 0 0 0 0 0 0 0 0 0.25 0"/>
<feBlend mode="normal" in2="BackgroundImageFix" result="effect1_dropShadow_241_156"/>
<feBlend mode="normal" in="SourceGraphic" in2="effect1_dropShadow_241_156" result="shape"/>
</filter>
<filter id="filter10_d_241_156" x="31.4836" y="39.4839" width="19.0347" height="19.0332" filterUnits="userSpaceOnUse" color-interpolation-filters="sRGB">
<feFlood flood-opacity="0" result="BackgroundImageFix"/>
<feColorMatrix in="SourceAlpha" type="matrix" values="0 0 0 0 0 0 0 0 0 0 0 0 0 0 0 0 0 0 127 0" result="hardAlpha"/>
<feOffset dy="2"/>
<feGaussianBlur stdDeviation="1"/>
<feComposite in2="hardAlpha" operator="out"/>
<feColorMatrix type="matrix" values="0 0 0 0 1 0 0 0 0 1 0 0 0 0 1 0 0 0 1 0"/>
<feBlend mode="normal" in2="BackgroundImageFix" result="effect1_dropShadow_241_156"/>
<feBlend mode="normal" in="SourceGraphic" in2="effect1_dropShadow_241_156" result="shape"/>
</filter>
<filter id="filter11_d_241_156" x="28" y="35.7871" width="27" height="27" filterUnits="userSpaceOnUse" color-interpolation-filters="sRGB">
<feFlood flood-opacity="0" result="BackgroundImageFix"/>
<feColorMatrix in="SourceAlpha" type="matrix" values="0 0 0 0 0 0 0 0 0 0 0 0 0 0 0 0 0 0 127 0" result="hardAlpha"/>
<feOffset dy="2"/>
<feGaussianBlur stdDeviation="1"/>
<feComposite in2="hardAlpha" operator="out"/>
<feColorMatrix type="matrix" values="0 0 0 0 1 0 0 0 0 1 0 0 0 0 1 0 0 0 1 0"/>
<feBlend mode="normal" in2="BackgroundImageFix" result="effect1_dropShadow_241_156"/>
<feBlend mode="normal" in="SourceGraphic" in2="effect1_dropShadow_241_156" result="shape"/>
</filter>
<linearGradient id="paint0_linear_241_156" x1="133.91" y1="62.6893" x2="146.97" y2="84.4565" gradientUnits="userSpaceOnUse">
<stop stop-color="#FCE007"/>
<stop offset="1" stop-color="#D86304"/>
</linearGradient>
<linearGradient id="paint1_linear_241_156" x1="131.392" y1="80.0715" x2="139.342" y2="100.372" gradientUnits="userSpaceOnUse">
<stop stop-color="#FCE007"/>
<stop offset="1" stop-color="#D86304"/>
</linearGradient>
<linearGradient id="paint2_linear_241_156" x1="125.457" y1="95.773" x2="127.652" y2="114.03" gradientUnits="userSpaceOnUse">
<stop stop-color="#FCE007"/>
<stop offset="1" stop-color="#D86304"/>
</linearGradient>
<linearGradient id="paint3_linear_241_156" x1="16.6328" y1="62.6893" x2="3.29527" y2="83.8393" gradientUnits="userSpaceOnUse">
<stop stop-color="#FCE107"/>
<stop offset="1" stop-color="#D86304"/>
</linearGradient>
<linearGradient id="paint4_linear_241_156" x1="19.168" y1="80.0715" x2="10.8413" y2="99.8968" gradientUnits="userSpaceOnUse">
<stop stop-color="#FCE107"/>
<stop offset="1" stop-color="#D86304"/>
</linearGradient>
<linearGradient id="paint5_linear_241_156" x1="25.1435" y1="95.773" x2="22.5372" y2="113.679" gradientUnits="userSpaceOnUse">
<stop stop-color="#FCE107"/>
<stop offset="1" stop-color="#D86304"/>
</linearGradient>
<linearGradient id="paint6_linear_241_156" x1="75" y1="12" x2="75" y2="29" gradientUnits="userSpaceOnUse">
<stop stop-color="#FADA06"/>
<stop offset="1" stop-color="#D86604"/>
</linearGradient>
<linearGradient id="paint7_linear_241_156" x1="75" y1="22" x2="75" y2="40.0275" gradientUnits="userSpaceOnUse">
<stop stop-color="#FADB06"/>
<stop offset="0.979167" stop-color="#D86604"/>
</linearGradient>
<linearGradient id="paint8_linear_241_156" x1="75" y1="30" x2="75" y2="120" gradientUnits="userSpaceOnUse">
<stop stop-color="#FCE206"/>
<stop offset="1" stop-color="#D55B03"/>
</linearGradient>
<linearGradient id="paint9_linear_241_156" x1="79.6769" y1="108.406" x2="82.49" y2="124.36" gradientUnits="userSpaceOnUse">
<stop stop-color="#FCE107"/>
<stop offset="1" stop-color="#D86504"/>
</linearGradient>
<linearGradient id="paint10_linear_241_156" x1="70.7899" y1="108.407" x2="67.9768" y2="124.36" gradientUnits="userSpaceOnUse">
<stop stop-color="#FCE107"/>
<stop offset="1" stop-color="#D86504"/>
</linearGradient>
<linearGradient id="paint11_linear_241_156" x1="75.3" y1="107.9" x2="75.3" y2="125.9" gradientUnits="userSpaceOnUse">
<stop stop-color="#FCE107"/>
<stop offset="1" stop-color="#D86504"/>
</linearGradient>
</defs>
</svg>
