<svg width="151" height="150" viewBox="0 0 151 150" fill="none" xmlns="http://www.w3.org/2000/svg">
<g filter="url(#filter0_d_241_156)">
<path d="M144.71 74.3085C145.668 74.8954 145.955 76.1563 145.333 77.0911C137.011 89.5902 126.953 100.501 116.057 108.835C109.051 114.194 101.845 118.375 94.7131 121.25C92.5723 122.113 91.2842 119.102 93.0979 117.674C99.2593 112.824 105.057 106.717 110.094 99.7059C117.593 89.2675 122.991 77.3996 125.556 65.7875C125.859 64.414 127.425 63.7149 128.624 64.4499L144.71 74.3085Z" fill="url(#paint0_linear_241_156)"/>
<path d="M144.58 74.5217C145.418 75.0356 145.668 76.1377 145.125 76.9525C136.816 89.4309 126.777 100.321 115.905 108.637C108.914 113.984 101.728 118.153 94.6197 121.018C94.1433 121.21 93.7338 121.181 93.4081 121.03C93.0778 120.876 92.8122 120.585 92.6513 120.22C92.3287 119.488 92.446 118.505 93.2525 117.871C99.4337 113.005 105.247 106.881 110.297 99.8517C117.814 89.3879 123.228 77.489 125.8 65.8414C126.067 64.6287 127.446 64.0215 128.493 64.6631L144.58 74.5217Z" stroke="white" stroke-width="0.5"/>
</g>
<g filter="url(#filter1_d_241_156)">
<path d="M139.908 91.863C140.788 92.5645 140.917 93.8546 140.176 94.7011C132.43 103.55 123.358 110.884 113.752 116.05C108.201 119.036 102.575 121.241 97.0401 122.622C94.8041 123.179 93.9683 119.919 95.9317 118.713C100.669 115.802 105.198 112.097 109.282 107.751C116.097 100.498 121.308 91.8472 124.239 82.9783C124.69 81.6131 126.37 81.067 127.494 81.9634L139.908 91.863Z" fill="url(#paint1_linear_241_156)"/>
<path d="M139.752 92.0585C140.523 92.6731 140.633 93.7996 139.988 94.5364C132.26 103.365 123.211 110.679 113.634 115.83C108.099 118.807 102.492 121.004 96.9796 122.379C96.4846 122.503 96.0871 122.412 95.788 122.209C95.4838 122.002 95.2612 121.665 95.1524 121.263C94.9337 120.457 95.1897 119.462 96.0626 118.926C100.82 116.003 105.366 112.284 109.464 107.922C116.303 100.644 121.533 91.9622 124.477 83.0567C124.876 81.8473 126.358 81.3772 127.338 82.1589L139.752 92.0585Z" stroke="white" stroke-width="0.5"/>
</g>
<g filter="url(#filter2_d_241_156)">
<path d="M130.487 107.874C131.136 108.791 130.904 110.064 129.959 110.672C121.259 116.26 111.884 120.342 102.643 122.556C97.9816 123.672 93.43 124.295 89.085 124.423C86.7796 124.491 86.7303 121.187 88.9182 120.457C93.0433 119.08 97.1763 117.173 101.157 114.785C108.628 110.304 115.166 104.37 119.933 97.7833C120.765 96.6346 122.499 96.5971 123.318 97.7542L130.487 107.874Z" fill="url(#paint2_linear_241_156)"/>
<path d="M130.283 108.018C130.852 108.822 130.646 109.933 129.824 110.461C121.146 116.036 111.796 120.106 102.584 122.313C97.9386 123.425 93.4041 124.046 89.0776 124.173C88.5656 124.188 88.2014 124.018 87.9603 123.763C87.7151 123.503 87.5785 123.136 87.5665 122.732C87.5423 121.919 88.021 121.02 88.9973 120.694C93.1405 119.312 97.2899 117.396 101.286 114.999C108.783 110.502 115.348 104.546 120.136 97.9299C120.873 96.9115 122.4 96.8898 123.114 97.8987L130.283 108.018Z" stroke="white" stroke-width="0.5"/>
</g>
<g filter="url(#filter3_d_241_156)">
<path d="M5.74908 74.3138C4.78975 74.8977 4.50297 76.1549 5.12848 77.088C13.5086 89.5884 23.6365 100.5 34.6079 108.835C41.6784 114.206 48.9499 118.394 56.147 121.27C58.2966 122.128 59.5799 119.123 57.7572 117.699C51.5414 112.845 45.6923 106.729 40.6121 99.7059C33.0611 89.2665 27.6248 77.3974 25.0433 65.7843C24.7384 64.4129 23.1666 63.7122 21.9642 64.444L5.74908 74.3138Z" fill="url(#paint3_linear_241_156)"/>
<path d="M5.88037 74.5265C5.04018 75.0379 4.79165 76.1367 5.33693 76.9501C13.7031 89.4298 23.8124 100.321 34.7597 108.637C41.8146 113.997 49.0664 118.172 56.2399 121.038C56.7182 121.229 57.1288 121.2 57.4551 121.048C57.786 120.894 58.0516 120.604 58.212 120.24C58.5336 119.509 58.4131 118.528 57.6027 117.895C51.3669 113.025 45.5017 106.892 40.4088 99.8511C32.8393 89.3862 27.3879 77.4862 24.7985 65.8375C24.5294 64.6267 23.145 64.018 22.0955 64.6568L5.88037 74.5265Z" stroke="white" stroke-width="0.5"/>
</g>
<g filter="url(#filter4_d_241_156)">
<path d="M10.5861 91.8683C9.70411 92.5669 9.57516 93.8527 10.3193 94.697C18.1196 103.548 27.2548 110.883 36.9283 116.05C42.5336 119.044 48.2144 121.254 53.8021 122.633C56.0466 123.187 56.8797 119.936 54.9075 118.735C50.1244 115.82 45.5519 112.108 41.4294 107.751C34.5654 100.496 29.3182 91.8429 26.3671 82.9717C25.9141 81.6099 24.2281 81.0636 23.1006 81.9566L10.5861 91.8683Z" fill="url(#paint4_linear_241_156)"/>
<path d="M10.7426 92.0633C9.96984 92.6753 9.86019 93.7981 10.5078 94.533C18.29 103.363 27.4019 110.679 37.0468 115.831C42.6353 118.816 48.2966 121.017 53.8622 122.391C54.3591 122.514 54.7578 122.424 55.0576 122.221C55.3625 122.014 55.5854 121.677 55.6939 121.277C55.9119 120.473 55.6533 119.481 54.7766 118.947C49.9735 116.021 45.3838 112.294 41.2468 107.921C34.3592 100.641 29.0922 91.9573 26.129 83.0496C25.7276 81.8431 24.2404 81.3729 23.2572 82.1516L10.7426 92.0633Z" stroke="white" stroke-width="0.5"/>
</g>
<g filter="url(#filter5_d_241_156)">
<path d="M20.076 107.877C19.4235 108.792 19.6549 110.062 20.6025 110.667C29.364 116.258 38.8062 120.342 48.1143 122.556C52.8238 123.676 57.4222 124.299 61.8109 124.424C64.1234 124.49 64.1782 121.199 61.9842 120.474C57.8138 119.096 53.6347 117.182 49.6098 114.785C42.0835 110.301 35.4964 104.363 30.6958 97.771C29.8631 96.6275 28.1249 96.5927 27.3019 97.7466L20.076 107.877Z" fill="url(#paint5_linear_241_156)"/>
<path d="M20.2805 108.021C19.7087 108.823 19.9138 109.931 20.7383 110.457C29.4783 116.034 38.8948 120.106 48.1732 122.313C52.8673 123.43 57.4486 124.051 61.8187 124.175C62.3323 124.19 62.698 124.02 62.9402 123.765C63.1866 123.507 63.3242 123.141 63.3369 122.738C63.3624 121.929 62.8837 121.034 61.9047 120.71C57.7161 119.327 53.5204 117.405 49.4806 114.998C41.9271 110.499 35.3142 104.538 30.4926 97.9174C29.7544 96.9038 28.224 96.8843 27.5064 97.8904L20.2805 108.021Z" stroke="white" stroke-width="0.5"/>
</g>
<path d="M57.9998 17C57.7789 17.0517 57.8736 17.1113 57.6304 17.1113C57.4467 17.1113 57.1735 17.0298 56.9998 17L50.9998 27.6995L58.8711 34L64.7747 25.2715L57.9998 17ZM92.9998 17C92.826 17.0298 92.5553 17.1113 92.3716 17.1113C92.1284 17.1113 92.2206 17.0517 91.9998 17L85.2273 25.2715L91.1309 34L98.9998 27.6995L92.9998 17Z" fill="url(#paint6_linear_241_156)"/>
<path d="M103.852 23.2031L90.9025 33.4321L76.2059 12C75.8267 12.1063 75.4255 12.1739 74.9998 12.1739C74.5741 12.1739 74.1728 12.1063 73.7936 12L59.097 33.4321L46.1472 23.2031C45.8261 23.4401 45.4295 23.6038 44.9998 23.6765L50.8601 42L74.9998 40L97.8345 42L105 23.6765C104.57 23.6038 104.173 23.4401 103.852 23.2031Z" fill="url(#paint7_linear_241_156)"/>
<g filter="url(#filter6_d_241_156)">
<mask id="path-15-outside-1_241_156" maskUnits="userSpaceOnUse" x="28.9998" y="34" width="92" height="92" fill="black">
<rect fill="white" x="28.9998" y="34" width="92" height="92"/>
<path d="M120 80C120 104.853 99.8526 125 74.9998 125C50.1469 125 29.9998 104.853 29.9998 80C29.9998 55.1472 50.1469 35 74.9998 35C99.8526 35 120 55.1472 120 80ZM35.3967 80C35.3967 101.872 53.1276 119.603 74.9998 119.603C96.8719 119.603 114.603 101.872 114.603 80C114.603 58.1278 96.8719 40.3969 74.9998 40.3969C53.1276 40.3969 35.3967 58.1278 35.3967 80Z"/>
</mask>
<path d="M120 80C120 104.853 99.8526 125 74.9998 125C50.1469 125 29.9998 104.853 29.9998 80C29.9998 55.1472 50.1469 35 74.9998 35C99.8526 35 120 55.1472 120 80ZM35.3967 80C35.3967 101.872 53.1276 119.603 74.9998 119.603C96.8719 119.603 114.603 101.872 114.603 80C114.603 58.1278 96.8719 40.3969 74.9998 40.3969C53.1276 40.3969 35.3967 58.1278 35.3967 80Z" fill="url(#paint8_linear_241_156)"/>
<path d="M120 80C120 104.853 99.8526 125 74.9998 125C50.1469 125 29.9998 104.853 29.9998 80C29.9998 55.1472 50.1469 35 74.9998 35C99.8526 35 120 55.1472 120 80ZM35.3967 80C35.3967 101.872 53.1276 119.603 74.9998 119.603C96.8719 119.603 114.603 101.872 114.603 80C114.603 58.1278 96.8719 40.3969 74.9998 40.3969C53.1276 40.3969 35.3967 58.1278 35.3967 80Z" stroke="white" mask="url(#path-15-outside-1_241_156)"/>
</g>
<g filter="url(#filter7_d_241_156)">
<path d="M75.4068 116.477C75.5195 115.119 76.5335 114.007 77.8756 113.771L80.8776 113.241C82.2197 113.005 83.5527 113.702 84.1231 114.94L88.5378 124.519C89.3611 126.305 88.2713 128.388 86.3342 128.729L78.0452 130.191C76.1081 130.532 74.3719 128.948 74.5346 126.988L75.4068 116.477Z" fill="url(#paint9_linear_241_156)"/>
</g>
<g filter="url(#filter8_d_241_156)">
<path d="M65.7431 114.94C66.3135 113.703 67.6465 113.005 68.9886 113.241L71.9907 113.771C73.3328 114.007 74.3467 115.119 74.4594 116.477L75.3317 126.988C75.4943 128.949 73.7581 130.532 71.821 130.191L63.5321 128.729C61.5949 128.388 60.5051 126.306 61.3285 124.519L65.7431 114.94Z" fill="url(#paint10_linear_241_156)"/>
</g>
<g filter="url(#filter9_d_241_156)">
<path d="M70.148 115.237C70.4949 113.919 71.6865 113 73.0493 113H76.9502C78.3131 113 79.5046 113.919 79.8515 115.237L83.0094 127.237C83.51 129.139 82.0752 131 80.1081 131H69.8914C67.9243 131 66.4896 129.139 66.9901 127.237L70.148 115.237Z" fill="url(#paint11_linear_241_156)"/>
</g>
<g filter="url(#filter10_d_241_156)">
<path d="M47.511 47.5657C43.7699 53.902 43.77 56.0965 47.512 62.4333C47.5173 62.4438 47.5192 62.4557 47.5173 62.4674C47.5155 62.479 47.51 62.4897 47.5017 62.498C47.4934 62.5063 47.4826 62.5118 47.471 62.5137C47.4594 62.5155 47.4475 62.5137 47.437 62.5084C41.0963 58.7703 38.9017 58.7701 32.5654 62.5113C32.5549 62.5166 32.543 62.5185 32.5314 62.5166C32.5198 62.5148 32.509 62.5093 32.5007 62.501C32.4924 62.4927 32.4869 62.4819 32.4851 62.4703C32.4832 62.4587 32.4851 62.4468 32.4904 62.4363C36.2296 56.098 36.2294 53.9035 32.4894 47.5647C32.4841 47.5542 32.4822 47.5423 32.4841 47.5307C32.4859 47.5191 32.4914 47.5083 32.4997 47.5C32.5081 47.4917 32.5188 47.4862 32.5304 47.4844C32.542 47.4825 32.5539 47.4844 32.5644 47.4897C38.9032 51.2297 41.0977 51.2299 47.436 47.4906C47.4465 47.4853 47.4584 47.4835 47.47 47.4854C47.4816 47.4872 47.4924 47.4927 47.5007 47.501C47.509 47.5093 47.5145 47.5201 47.5163 47.5317C47.5182 47.5433 47.5163 47.5552 47.511 47.5657Z" fill="white"/>
<path d="M44.4553 54.9993C44.4555 57.0545 45.2964 59.0905 46.9234 61.9201C44.092 60.2948 42.0551 59.4548 39.9995 59.4551C37.944 59.4555 35.9081 60.2961 33.0789 61.9226C34.7046 59.0925 35.5447 57.0562 35.5446 55.0007C35.5445 52.9451 34.704 50.9086 33.0778 48.0781C35.9083 49.7042 37.9448 50.5447 40.0004 50.5449C42.0559 50.545 44.0922 49.7048 46.9223 48.0792C45.2958 50.9084 44.4552 52.9442 44.4553 54.9993Z" stroke="#F3F3F3" stroke-width="0.5"/>
</g>
<g filter="url(#filter11_d_241_156)">
<path d="M51.9581 55.3461C44.232 57.3357 42.5496 59.0184 40.5603 66.7455C40.5563 66.7576 40.5486 66.7681 40.5383 66.7756C40.528 66.7831 40.5155 66.7871 40.5028 66.7871C40.49 66.7871 40.4776 66.7831 40.4673 66.7756C40.457 66.7681 40.4493 66.7576 40.4453 66.7455C38.4499 59.0184 36.7675 57.3357 29.0414 55.3461C29.0293 55.3422 29.0187 55.3345 29.0113 55.3241C29.0038 55.3138 28.9998 55.3014 28.9998 55.2886C28.9998 55.2759 29.0038 55.2634 29.0113 55.2531C29.0187 55.2428 29.0293 55.2351 29.0414 55.2311C36.7675 53.2385 38.4499 51.5559 40.4422 43.8288C40.4462 43.8166 40.4539 43.8061 40.4643 43.7986C40.4746 43.7911 40.487 43.7871 40.4998 43.7871C40.5125 43.7871 40.5249 43.7911 40.5353 43.7986C40.5456 43.8061 40.5533 43.8166 40.5573 43.8288C42.5496 51.5559 44.232 53.2385 51.9581 55.2311C51.9702 55.2351 51.9808 55.2428 51.9883 55.2531C51.9957 55.2634 51.9998 55.2759 51.9998 55.2886C51.9998 55.3014 51.9957 55.3138 51.9883 55.3241C51.9808 55.3345 51.9702 55.3422 51.9581 55.3461Z" fill="white"/>
<path d="M43.9308 51.8571C45.514 53.4406 47.7354 54.3583 51.194 55.2885C47.7355 56.2173 45.5141 57.1343 43.9311 58.7175C42.3482 60.3007 41.4313 62.5224 40.5025 65.9816C39.5711 62.5224 38.6528 60.3006 37.0691 58.7174C35.4855 57.1343 33.2641 56.2174 29.8056 55.2885C33.2641 54.3583 35.4855 53.4406 37.0688 51.8571C38.6521 50.2736 39.5696 48.0518 40.4998 44.5926C41.4299 48.0518 42.3475 50.2736 43.9308 51.8571Z" stroke="#F3F3F3" stroke-width="0.5"/>
</g>
<path d="M104.5 25C105.328 25 106 24.3284 106 23.5C106 22.6716 105.328 22 104.5 22C103.671 22 103 22.6716 103 23.5C103 24.3284 103.671 25 104.5 25Z" fill="#EDAD06"/>
<path d="M45.4998 25C46.3282 25 46.9998 24.3284 46.9998 23.5C46.9998 22.6716 46.3282 22 45.4998 22C44.6713 22 43.9998 22.6716 43.9998 23.5C43.9998 24.3284 44.6713 25 45.4998 25Z" fill="#EDAE06"/>
<path d="M74.9998 13C76.1043 13 76.9998 12.1046 76.9998 11C76.9998 9.89543 76.1043 9 74.9998 9C73.8952 9 72.9998 9.89543 72.9998 11C72.9998 12.1046 73.8952 13 74.9998 13Z" fill="#FAD907"/>
<path d="M92.4998 18C93.3282 18 93.9998 17.3284 93.9998 16.5C93.9998 15.6716 93.3282 15 92.4998 15C91.6713 15 90.9998 15.6716 90.9998 16.5C90.9998 17.3284 91.6713 18 92.4998 18Z" fill="#F9D406"/>
<path d="M57.4998 18C58.3282 18 58.9998 17.3284 58.9998 16.5C58.9998 15.6716 58.3282 15 57.4998 15C56.6713 15 55.9998 15.6716 55.9998 16.5C55.9998 17.3284 56.6713 18 57.4998 18Z" fill="#F9D507"/>
<defs>
<filter id="filter0_d_241_156" x="90.2349" y="64.1533" width="57.4277" height="61.2495" filterUnits="userSpaceOnUse" color-interpolation-filters="sRGB">
<feFlood flood-opacity="0" result="BackgroundImageFix"/>
<feColorMatrix in="SourceAlpha" type="matrix" values="0 0 0 0 0 0 0 0 0 0 0 0 0 0 0 0 0 0 127 0" result="hardAlpha"/>
<feOffset dy="2"/>
<feGaussianBlur stdDeviation="1"/>
<feComposite in2="hardAlpha" operator="out"/>
<feColorMatrix type="matrix" values="0 0 0 0 0 0 0 0 0 0 0 0 0 0 0 0 0 0 0.25 0"/>
<feBlend mode="normal" in2="BackgroundImageFix" result="effect1_dropShadow_241_156"/>
<feBlend mode="normal" in="SourceGraphic" in2="effect1_dropShadow_241_156" result="shape"/>
</filter>
<filter id="filter1_d_241_156" x="92.8289" y="81.5249" width="49.8301" height="45.1602" filterUnits="userSpaceOnUse" color-interpolation-filters="sRGB">
<feFlood flood-opacity="0" result="BackgroundImageFix"/>
<feColorMatrix in="SourceAlpha" type="matrix" values="0 0 0 0 0 0 0 0 0 0 0 0 0 0 0 0 0 0 127 0" result="hardAlpha"/>
<feOffset dy="2"/>
<feGaussianBlur stdDeviation="1"/>
<feComposite in2="hardAlpha" operator="out"/>
<feColorMatrix type="matrix" values="0 0 0 0 0 0 0 0 0 0 0 0 0 0 0 0 0 0 0.25 0"/>
<feBlend mode="normal" in2="BackgroundImageFix" result="effect1_dropShadow_241_156"/>
<feBlend mode="normal" in="SourceGraphic" in2="effect1_dropShadow_241_156" result="shape"/>
</filter>
<filter id="filter2_d_241_156" x="85.3157" y="96.9038" width="47.5388" height="31.52" filterUnits="userSpaceOnUse" color-interpolation-filters="sRGB">
<feFlood flood-opacity="0" result="BackgroundImageFix"/>
<feColorMatrix in="SourceAlpha" type="matrix" values="0 0 0 0 0 0 0 0 0 0 0 0 0 0 0 0 0 0 127 0" result="hardAlpha"/>
<feOffset dy="2"/>
<feGaussianBlur stdDeviation="1"/>
<feComposite in2="hardAlpha" operator="out"/>
<feColorMatrix type="matrix" values="0 0 0 0 0 0 0 0 0 0 0 0 0 0 0 0 0 0 0.25 0"/>
<feBlend mode="normal" in2="BackgroundImageFix" result="effect1_dropShadow_241_156"/>
<feBlend mode="normal" in="SourceGraphic" in2="effect1_dropShadow_241_156" result="shape"/>
</filter>
<filter id="filter3_d_241_156" x="2.79639" y="64.1494" width="57.8311" height="61.272" filterUnits="userSpaceOnUse" color-interpolation-filters="sRGB">
<feFlood flood-opacity="0" result="BackgroundImageFix"/>
<feColorMatrix in="SourceAlpha" type="matrix" values="0 0 0 0 0 0 0 0 0 0 0 0 0 0 0 0 0 0 127 0" result="hardAlpha"/>
<feOffset dy="2"/>
<feGaussianBlur stdDeviation="1"/>
<feComposite in2="hardAlpha" operator="out"/>
<feColorMatrix type="matrix" values="0 0 0 0 0 0 0 0 0 0 0 0 0 0 0 0 0 0 0.25 0"/>
<feBlend mode="normal" in2="BackgroundImageFix" result="effect1_dropShadow_241_156"/>
<feBlend mode="normal" in="SourceGraphic" in2="effect1_dropShadow_241_156" result="shape"/>
</filter>
<filter id="filter4_d_241_156" x="7.83398" y="81.5205" width="50.1836" height="45.1758" filterUnits="userSpaceOnUse" color-interpolation-filters="sRGB">
<feFlood flood-opacity="0" result="BackgroundImageFix"/>
<feColorMatrix in="SourceAlpha" type="matrix" values="0 0 0 0 0 0 0 0 0 0 0 0 0 0 0 0 0 0 127 0" result="hardAlpha"/>
<feOffset dy="2"/>
<feGaussianBlur stdDeviation="1"/>
<feComposite in2="hardAlpha" operator="out"/>
<feColorMatrix type="matrix" values="0 0 0 0 0 0 0 0 0 0 0 0 0 0 0 0 0 0 0.25 0"/>
<feBlend mode="normal" in2="BackgroundImageFix" result="effect1_dropShadow_241_156"/>
<feBlend mode="normal" in="SourceGraphic" in2="effect1_dropShadow_241_156" result="shape"/>
</filter>
<filter id="filter5_d_241_156" x="17.7058" y="96.897" width="47.8828" height="31.5283" filterUnits="userSpaceOnUse" color-interpolation-filters="sRGB">
<feFlood flood-opacity="0" result="BackgroundImageFix"/>
<feColorMatrix in="SourceAlpha" type="matrix" values="0 0 0 0 0 0 0 0 0 0 0 0 0 0 0 0 0 0 127 0" result="hardAlpha"/>
<feOffset dy="2"/>
<feGaussianBlur stdDeviation="1"/>
<feComposite in2="hardAlpha" operator="out"/>
<feColorMatrix type="matrix" values="0 0 0 0 0 0 0 0 0 0 0 0 0 0 0 0 0 0 0.25 0"/>
<feBlend mode="normal" in2="BackgroundImageFix" result="effect1_dropShadow_241_156"/>
<feBlend mode="normal" in="SourceGraphic" in2="effect1_dropShadow_241_156" result="shape"/>
</filter>
<filter id="filter6_d_241_156" x="28.4998" y="34.5" width="93" height="93" filterUnits="userSpaceOnUse" color-interpolation-filters="sRGB">
<feFlood flood-opacity="0" result="BackgroundImageFix"/>
<feColorMatrix in="SourceAlpha" type="matrix" values="0 0 0 0 0 0 0 0 0 0 0 0 0 0 0 0 0 0 127 0" result="hardAlpha"/>
<feOffset dy="1"/>
<feGaussianBlur stdDeviation="0.5"/>
<feComposite in2="hardAlpha" operator="out"/>
<feColorMatrix type="matrix" values="0 0 0 0 0 0 0 0 0 0 0 0 0 0 0 0 0 0 0.25 0"/>
<feBlend mode="normal" in2="BackgroundImageFix" result="effect1_dropShadow_241_156"/>
<feBlend mode="normal" in="SourceGraphic" in2="effect1_dropShadow_241_156" result="shape"/>
</filter>
<filter id="filter7_d_241_156" x="73.5239" y="113.196" width="16.2913" height="19.0415" filterUnits="userSpaceOnUse" color-interpolation-filters="sRGB">
<feFlood flood-opacity="0" result="BackgroundImageFix"/>
<feColorMatrix in="SourceAlpha" type="matrix" values="0 0 0 0 0 0 0 0 0 0 0 0 0 0 0 0 0 0 127 0" result="hardAlpha"/>
<feOffset dy="1"/>
<feGaussianBlur stdDeviation="0.5"/>
<feComposite in2="hardAlpha" operator="out"/>
<feColorMatrix type="matrix" values="0 0 0 0 0 0 0 0 0 0 0 0 0 0 0 0 0 0 0.25 0"/>
<feBlend mode="normal" in2="BackgroundImageFix" result="effect1_dropShadow_241_156"/>
<feBlend mode="normal" in="SourceGraphic" in2="effect1_dropShadow_241_156" result="shape"/>
</filter>
<filter id="filter8_d_241_156" x="60.051" y="113.196" width="16.2913" height="19.0415" filterUnits="userSpaceOnUse" color-interpolation-filters="sRGB">
<feFlood flood-opacity="0" result="BackgroundImageFix"/>
<feColorMatrix in="SourceAlpha" type="matrix" values="0 0 0 0 0 0 0 0 0 0 0 0 0 0 0 0 0 0 127 0" result="hardAlpha"/>
<feOffset dy="1"/>
<feGaussianBlur stdDeviation="0.5"/>
<feComposite in2="hardAlpha" operator="out"/>
<feColorMatrix type="matrix" values="0 0 0 0 0 0 0 0 0 0 0 0 0 0 0 0 0 0 0.25 0"/>
<feBlend mode="normal" in2="BackgroundImageFix" result="effect1_dropShadow_241_156"/>
<feBlend mode="normal" in="SourceGraphic" in2="effect1_dropShadow_241_156" result="shape"/>
</filter>
<filter id="filter9_d_241_156" x="65.8896" y="113" width="18.2202" height="20" filterUnits="userSpaceOnUse" color-interpolation-filters="sRGB">
<feFlood flood-opacity="0" result="BackgroundImageFix"/>
<feColorMatrix in="SourceAlpha" type="matrix" values="0 0 0 0 0 0 0 0 0 0 0 0 0 0 0 0 0 0 127 0" result="hardAlpha"/>
<feOffset dy="1"/>
<feGaussianBlur stdDeviation="0.5"/>
<feComposite in2="hardAlpha" operator="out"/>
<feColorMatrix type="matrix" values="0 0 0 0 0 0 0 0 0 0 0 0 0 0 0 0 0 0 0.25 0"/>
<feBlend mode="normal" in2="BackgroundImageFix" result="effect1_dropShadow_241_156"/>
<feBlend mode="normal" in="SourceGraphic" in2="effect1_dropShadow_241_156" result="shape"/>
</filter>
<filter id="filter10_d_241_156" x="30.4834" y="47.4839" width="19.0347" height="19.0332" filterUnits="userSpaceOnUse" color-interpolation-filters="sRGB">
<feFlood flood-opacity="0" result="BackgroundImageFix"/>
<feColorMatrix in="SourceAlpha" type="matrix" values="0 0 0 0 0 0 0 0 0 0 0 0 0 0 0 0 0 0 127 0" result="hardAlpha"/>
<feOffset dy="2"/>
<feGaussianBlur stdDeviation="1"/>
<feComposite in2="hardAlpha" operator="out"/>
<feColorMatrix type="matrix" values="0 0 0 0 1 0 0 0 0 1 0 0 0 0 1 0 0 0 1 0"/>
<feBlend mode="normal" in2="BackgroundImageFix" result="effect1_dropShadow_241_156"/>
<feBlend mode="normal" in="SourceGraphic" in2="effect1_dropShadow_241_156" result="shape"/>
</filter>
<filter id="filter11_d_241_156" x="26.9998" y="43.7871" width="27" height="27" filterUnits="userSpaceOnUse" color-interpolation-filters="sRGB">
<feFlood flood-opacity="0" result="BackgroundImageFix"/>
<feColorMatrix in="SourceAlpha" type="matrix" values="0 0 0 0 0 0 0 0 0 0 0 0 0 0 0 0 0 0 127 0" result="hardAlpha"/>
<feOffset dy="2"/>
<feGaussianBlur stdDeviation="1"/>
<feComposite in2="hardAlpha" operator="out"/>
<feColorMatrix type="matrix" values="0 0 0 0 1 0 0 0 0 1 0 0 0 0 1 0 0 0 1 0"/>
<feBlend mode="normal" in2="BackgroundImageFix" result="effect1_dropShadow_241_156"/>
<feBlend mode="normal" in="SourceGraphic" in2="effect1_dropShadow_241_156" result="shape"/>
</filter>
<linearGradient id="paint0_linear_241_156" x1="133.91" y1="67.6893" x2="146.97" y2="89.4565" gradientUnits="userSpaceOnUse">
<stop stop-color="#FCE007"/>
<stop offset="1" stop-color="#D86304"/>
</linearGradient>
<linearGradient id="paint1_linear_241_156" x1="131.392" y1="85.0715" x2="139.342" y2="105.372" gradientUnits="userSpaceOnUse">
<stop stop-color="#FCE007"/>
<stop offset="1" stop-color="#D86304"/>
</linearGradient>
<linearGradient id="paint2_linear_241_156" x1="125.457" y1="100.773" x2="127.652" y2="119.03" gradientUnits="userSpaceOnUse">
<stop stop-color="#FCE007"/>
<stop offset="1" stop-color="#D86304"/>
</linearGradient>
<linearGradient id="paint3_linear_241_156" x1="16.6326" y1="67.6893" x2="3.29503" y2="88.8393" gradientUnits="userSpaceOnUse">
<stop stop-color="#FCE107"/>
<stop offset="1" stop-color="#D86304"/>
</linearGradient>
<linearGradient id="paint4_linear_241_156" x1="19.1678" y1="85.0715" x2="10.8411" y2="104.897" gradientUnits="userSpaceOnUse">
<stop stop-color="#FCE107"/>
<stop offset="1" stop-color="#D86304"/>
</linearGradient>
<linearGradient id="paint5_linear_241_156" x1="25.1433" y1="100.773" x2="22.537" y2="118.679" gradientUnits="userSpaceOnUse">
<stop stop-color="#FCE107"/>
<stop offset="1" stop-color="#D86304"/>
</linearGradient>
<linearGradient id="paint6_linear_241_156" x1="74.9998" y1="17" x2="74.9998" y2="34" gradientUnits="userSpaceOnUse">
<stop stop-color="#FADA06"/>
<stop offset="1" stop-color="#D86604"/>
</linearGradient>
<linearGradient id="paint7_linear_241_156" x1="74.9998" y1="27" x2="74.9998" y2="45.0275" gradientUnits="userSpaceOnUse">
<stop stop-color="#FADB06"/>
<stop offset="0.979167" stop-color="#D86604"/>
</linearGradient>
<linearGradient id="paint8_linear_241_156" x1="74.9998" y1="35" x2="74.9998" y2="125" gradientUnits="userSpaceOnUse">
<stop stop-color="#FCE206"/>
<stop offset="1" stop-color="#D55B03"/>
</linearGradient>
<linearGradient id="paint9_linear_241_156" x1="79.3766" y1="113.506" x2="82.1897" y2="129.46" gradientUnits="userSpaceOnUse">
<stop stop-color="#FCE107"/>
<stop offset="1" stop-color="#D86504"/>
</linearGradient>
<linearGradient id="paint10_linear_241_156" x1="70.4896" y1="113.506" x2="67.6765" y2="129.46" gradientUnits="userSpaceOnUse">
<stop stop-color="#FCE107"/>
<stop offset="1" stop-color="#D86504"/>
</linearGradient>
<linearGradient id="paint11_linear_241_156" x1="74.9998" y1="113" x2="74.9998" y2="131" gradientUnits="userSpaceOnUse">
<stop stop-color="#FCE107"/>
<stop offset="1" stop-color="#D86504"/>
</linearGradient>
</defs>
</svg>
