<svg xmlns="http://www.w3.org/2000/svg" width="35" height="47" viewBox="0 0 35 47" fill="none">
  <path fill-rule="evenodd" clip-rule="evenodd" d="M13.9271 13.8614C15.2184 16.3064 14.766 15.6784 16.5966 18.1634C17.3273 19.1553 19.1794 20.7666 20.1954 21.5343C20.8948 22.0629 21.5845 22.4177 22.3386 22.8753C23.0732 23.3213 23.8468 23.6568 24.6993 23.9983C26.3845 24.6735 26.9665 24.831 28.6762 25.2462C29.1363 25.3579 29.6785 25.4109 30.1442 25.5196C30.1442 31.2639 29.5158 36.0689 24.8445 39.487C24.0827 40.0444 23.379 40.534 22.5764 41.0701C20.9238 42.1739 19.2479 43.7872 17.4088 43.7872C15.8938 43.7872 14.1567 42.2695 13.1938 41.5844L10.317 39.6015C6.9955 37.3121 5.73165 34.2756 5.08918 30.2436C4.83184 28.6287 4.88758 26.6422 4.79465 24.9487C4.77973 24.6762 4.84511 24.6169 4.85666 24.236C4.91957 22.1663 5.65489 20.6573 6.50523 19.3689C7.51784 17.8346 10.0457 15.9962 11.7908 15.0259C12.5354 14.612 13.1886 14.253 13.9271 13.8615V13.8614ZM0.000409047 17.2579V44.5215C0.000409047 45.4419 0.683287 46.3526 1.52258 46.7601C1.83697 46.9128 2.13545 47 2.56586 47H10.537C11.3691 47 11.1784 45.437 11.1783 44.9805C11.1783 44.0626 11.1783 43.1446 11.1783 42.2266C11.4835 42.3884 11.554 42.4748 11.837 42.6683C15.1848 44.9573 16.8374 46.7631 21.0122 44.1847C21.2829 44.0175 21.4573 43.8604 21.7007 43.6811C21.947 43.4997 22.1356 43.3724 22.395 43.1833L23.8222 42.2265C23.8222 43.1445 23.8228 44.0625 23.8222 44.9804C23.8216 45.9132 23.7195 46.9999 24.6468 46.9999H32.4348C33.8557 46.9999 35.0002 45.7053 35.0002 44.5214V17.2578C35.0002 12.7006 33.0421 8.42538 29.9862 5.20723L28.8862 4.19791C28.5512 3.87259 28.0869 3.5723 27.6971 3.27796C25.316 1.47987 21.3829 0 18.05 0C14.9564 0 12.5086 0.431058 10.0788 1.65228C8.81309 2.28838 7.26668 3.16528 6.20823 4.10836C2.41975 7.48388 0.000244141 12.0306 0.000244141 17.2577L0.000409047 17.2579Z" fill="white"/>
</svg>
