<svg width="17" height="16" viewBox="0 0 17 16" fill="none" xmlns="http://www.w3.org/2000/svg">
<g clip-path="url(#clip0_206_76)">
<path d="M11.1562 13.5C11.4497 13.5 11.6875 13.2761 11.6875 13C11.6875 12.7239 11.4497 12.5 11.1562 12.5C10.8628 12.5 10.625 12.7239 10.625 13C10.625 13.2761 10.8628 13.5 11.1562 13.5Z" fill="#F4B2B0"/>
<path d="M7.92318 7.457C7.79831 7.33976 7.72141 7.18479 7.70606 7.01941C7.6907 6.85403 7.73787 6.68885 7.83925 6.553C7.73811 6.51086 7.62739 6.49317 7.51715 6.50152C7.4069 6.50987 7.30062 6.54401 7.20795 6.60083C7.11528 6.65765 7.03915 6.73536 6.98649 6.8269C6.93382 6.91844 6.90628 7.0209 6.90637 7.125V6.375C6.90637 6.20924 6.83641 6.05027 6.71187 5.93306C6.58734 5.81585 6.41843 5.75 6.24231 5.75C6.06619 5.75 5.89728 5.81585 5.77275 5.93306C5.64821 6.05027 5.57825 6.20924 5.57825 6.375V5.625C5.57825 5.45924 5.50828 5.30027 5.38375 5.18306C5.25921 5.06585 5.0903 5 4.91418 5C4.73806 5 4.56916 5.06585 4.44462 5.18306C4.32008 5.30027 4.25012 5.45924 4.25012 5.625V6.125C4.25012 5.95924 4.18016 5.80027 4.05562 5.68306C3.93109 5.56585 3.76218 5.5 3.58606 5.5C3.40994 5.5 3.24103 5.56585 3.11649 5.68306C2.99196 5.80027 2.922 5.95924 2.922 6.125V10.75H2.65637L1.48257 9.86625C1.38269 9.791 1.25856 9.74999 1.13062 9.75H1.09476C0.983316 9.74998 0.874366 9.78106 0.781695 9.83933C0.689024 9.89759 0.616794 9.98041 0.574143 10.0773C0.531491 10.1742 0.520334 10.2809 0.542082 10.3837C0.563831 10.4866 0.617508 10.5811 0.696324 10.6552L2.63193 12.477C2.81763 12.6518 3.06949 12.75 3.33212 12.75H3.45325V15.5H7.172V12.5793C7.48976 12.4377 7.75829 12.2141 7.94637 11.9345C8.13446 11.655 8.23437 11.3309 8.2345 11V7.75L7.92318 7.457Z" fill="#F4B2B0"/>
<path d="M15.4063 2.2501C15.2148 2.25102 15.0272 2.30106 14.8636 2.39485C14.8466 2.22795 14.7848 2.06786 14.684 1.92961C14.5832 1.79136 14.4468 1.67948 14.2874 1.6045C14.1281 1.52952 13.9511 1.49388 13.7731 1.50094C13.5951 1.508 13.422 1.55752 13.2699 1.64485C13.2459 1.41915 13.1406 1.20795 12.9715 1.04633C12.8024 0.884701 12.5797 0.782373 12.3403 0.75633C12.1008 0.730288 11.8592 0.782098 11.6554 0.903158C11.4515 1.02422 11.2978 1.20725 11.2198 1.42185C11.06 1.32027 10.8739 1.26153 10.6813 1.25192C10.4888 1.24231 10.2971 1.2822 10.1268 1.36731C9.95646 1.45243 9.81397 1.57955 9.71458 1.73507C9.61519 1.89058 9.56264 2.06862 9.56256 2.2501V6.64685L9.17342 6.2806C8.98577 6.10328 8.73155 6.00255 8.46565 6.00017C8.19976 5.99778 7.94353 6.09393 7.75233 6.26785C7.55449 6.22892 7.34848 6.25431 7.16795 6.33985C7.15831 6.1146 7.05666 5.90154 6.8842 5.7451C6.71174 5.58865 6.48178 5.50089 6.24225 5.5001C6.10269 5.50085 5.96515 5.53155 5.8401 5.58985C5.83241 5.38432 5.74768 5.18797 5.60091 5.03561C5.45414 4.88324 5.25481 4.78469 5.03822 4.75741C4.82163 4.73013 4.60178 4.77588 4.4176 4.88656C4.23343 4.99724 4.09682 5.1657 4.03199 5.3621C3.89585 5.2897 3.74236 5.25115 3.586 5.2501C3.33943 5.2501 3.10296 5.34229 2.92861 5.50638C2.75426 5.67048 2.65631 5.89304 2.65631 6.1251V10.4299L1.64853 9.6711C1.50137 9.56065 1.31879 9.50037 1.13056 9.5001H1.0947C0.930731 9.50009 0.770438 9.54585 0.634095 9.63158C0.497752 9.71731 0.391485 9.83918 0.328734 9.98176C0.265983 10.1243 0.249565 10.2812 0.281558 10.4326C0.313551 10.584 0.392517 10.723 0.50847 10.8321L2.44381 12.6541C2.64434 12.8414 2.90667 12.9587 3.18756 12.9869V15.5001C3.18756 15.5664 3.21555 15.63 3.26536 15.6769C3.31518 15.7238 3.38274 15.7501 3.45319 15.7501H7.17194C7.24239 15.7501 7.30995 15.7238 7.35976 15.6769C7.40958 15.63 7.43756 15.5664 7.43756 15.5001V12.7296C7.76021 12.5543 8.02821 12.3022 8.21469 11.9987C8.40117 11.6951 8.49959 11.3507 8.50006 11.0001V8.3536L9.39602 9.19685C9.6605 9.44652 9.99442 9.62094 10.3594 9.7001V11.0001C10.1481 11.0001 9.94541 11.0791 9.79596 11.2198C9.64652 11.3604 9.56256 11.5512 9.56256 11.7501V13.7501C9.56256 13.949 9.64652 14.1398 9.79596 14.2804C9.94541 14.4211 10.1481 14.5001 10.3594 14.5001V15.5001C10.3594 15.5664 10.3874 15.63 10.4372 15.6769C10.4871 15.7238 10.5546 15.7501 10.6251 15.7501H15.1407C15.2111 15.7501 15.2787 15.7238 15.3285 15.6769C15.3783 15.63 15.4063 15.5664 15.4063 15.5001V14.5001C15.6177 14.5001 15.8203 14.4211 15.9698 14.2804C16.1192 14.1398 16.2032 13.949 16.2032 13.7501V11.7501C16.2032 11.5512 16.1192 11.3604 15.9698 11.2198C15.8203 11.0791 15.6177 11.0001 15.4063 11.0001V9.4796C15.729 9.30428 15.997 9.05221 16.1834 8.74866C16.3699 8.44511 16.4683 8.10074 16.4688 7.7501V3.2501C16.4688 2.98489 16.3569 2.73053 16.1576 2.543C15.9584 2.35546 15.6881 2.2501 15.4063 2.2501ZM7.96881 11.0001C7.96839 11.3978 7.80034 11.7791 7.50155 12.0603C7.20275 12.3415 6.79762 12.4997 6.37506 12.5001V13.0001C6.55439 12.9995 6.73291 12.9774 6.90631 12.9344V15.2501H3.71881V13.0001H4.25006V12.5001H3.33206C3.23686 12.5002 3.14256 12.4827 3.05462 12.4483C2.96668 12.414 2.88683 12.3636 2.81967 12.3001L0.884064 10.4786C0.842385 10.4394 0.813997 10.3895 0.802493 10.3351C0.790989 10.2807 0.796886 10.2243 0.819438 10.1731C0.84199 10.1219 0.880182 10.0781 0.929182 10.0473C0.978182 10.0165 1.03579 10.0001 1.0947 10.0001H1.13056C1.19817 10.0001 1.26375 10.0218 1.3165 10.0616L2.4903 10.9454C2.53742 10.9808 2.59597 11.0001 2.65631 11.0001H3.98444C4.26623 11.0001 4.53648 11.1055 4.73574 11.293C4.935 11.4805 5.04694 11.7349 5.04694 12.0001H5.57819C5.57777 11.6024 5.40972 11.2211 5.11092 10.9399C4.81213 10.6587 4.407 10.5005 3.98444 10.5001H3.18756V6.1251C3.18756 6.02565 3.22954 5.93026 3.30426 5.85994C3.37899 5.78961 3.48033 5.7501 3.586 5.7501C3.69167 5.7501 3.79302 5.78961 3.86774 5.85994C3.94246 5.93026 3.98444 6.02565 3.98444 6.1251V8.7501H4.51569V5.6251C4.51569 5.52565 4.55767 5.43026 4.63239 5.35994C4.70711 5.28961 4.80845 5.2501 4.91413 5.2501C5.0198 5.2501 5.12114 5.28961 5.19586 5.35994C5.27059 5.43026 5.31256 5.52565 5.31256 5.6251V8.7501H5.84381V6.3751C5.84381 6.27565 5.88579 6.18026 5.96051 6.10994C6.03524 6.03961 6.13658 6.0001 6.24225 6.0001C6.34792 6.0001 6.44927 6.03961 6.52399 6.10994C6.59871 6.18026 6.64069 6.27565 6.64069 6.3751V8.7501H7.17194V7.1251C7.17235 7.0444 7.2004 6.96598 7.25194 6.90148C7.30348 6.83699 7.37575 6.78986 7.45802 6.7671C7.42449 6.92193 7.43227 7.08217 7.48067 7.23347C7.52906 7.38478 7.61656 7.52243 7.73533 7.6341L7.96881 7.8536V11.0001ZM14.8751 15.2501H10.8907V14.5001H14.8751V15.2501ZM15.6719 11.7501V13.7501C15.6719 13.8164 15.644 13.88 15.5941 13.9269C15.5443 13.9738 15.4768 14.0001 15.4063 14.0001H10.3594C10.289 14.0001 10.2214 13.9738 10.1716 13.9269C10.1218 13.88 10.0938 13.8164 10.0938 13.7501V11.7501C10.0938 11.6838 10.1218 11.6202 10.1716 11.5733C10.2214 11.5264 10.289 11.5001 10.3594 11.5001H15.4063C15.4768 11.5001 15.5443 11.5264 15.5941 11.5733C15.644 11.6202 15.6719 11.6838 15.6719 11.7501ZM15.9376 7.7501C15.9371 8.14781 15.7691 8.52911 15.4703 8.81033C15.1715 9.09154 14.7664 9.24971 14.3438 9.2501V9.7501C14.5231 9.7495 14.7017 9.7274 14.8751 9.68435V11.0001H10.8907V9.7501H11.4219V9.2501H10.815C10.6211 9.2506 10.4291 9.2149 10.25 9.14509C10.0709 9.07527 9.90831 8.97271 9.77161 8.84335L8.11092 7.2806C8.04301 7.21666 7.99677 7.1352 7.97803 7.04652C7.9593 6.95784 7.96892 6.86592 8.00568 6.78239C8.04244 6.69886 8.10468 6.62746 8.18455 6.57721C8.26441 6.52697 8.35831 6.50013 8.45438 6.5001C8.58315 6.50042 8.70659 6.54857 8.79783 6.6341L9.90602 7.67685C9.95582 7.72374 10.0234 7.75009 10.0938 7.7501H11.1563C11.4381 7.7501 11.7084 7.85546 11.9076 8.043C12.1069 8.23053 12.2188 8.48489 12.2188 8.7501H12.7501C12.7496 8.3524 12.5816 7.9711 12.2828 7.68988C11.984 7.40866 11.5789 7.2505 11.1563 7.2501H10.2038L10.0938 7.1466V2.2501C10.0938 2.1175 10.1498 1.99032 10.2494 1.89655C10.349 1.80278 10.4842 1.7501 10.6251 1.7501C10.766 1.7501 10.9011 1.80278 11.0007 1.89655C11.1003 1.99032 11.1563 2.1175 11.1563 2.2501V5.5001H11.6876V1.7501C11.6876 1.6175 11.7435 1.49032 11.8432 1.39655C11.9428 1.30278 12.0779 1.2501 12.2188 1.2501C12.3597 1.2501 12.4948 1.30278 12.5945 1.39655C12.6941 1.49032 12.7501 1.6175 12.7501 1.7501V5.5001H13.2813V2.5001C13.2813 2.3675 13.3373 2.24032 13.4369 2.14655C13.5365 2.05278 13.6717 2.0001 13.8126 2.0001C13.9535 2.0001 14.0886 2.05278 14.1882 2.14655C14.2878 2.24032 14.3438 2.3675 14.3438 2.5001V5.5001H14.8751V3.2501C14.8751 3.1175 14.931 2.99032 15.0307 2.89655C15.1303 2.80278 15.2654 2.7501 15.4063 2.7501C15.5472 2.7501 15.6823 2.80278 15.782 2.89655C15.8816 2.99032 15.9376 3.1175 15.9376 3.2501V7.7501Z" fill="#01AB84"/>
<path d="M11.1563 12.25C10.9986 12.25 10.8446 12.294 10.7135 12.3764C10.5825 12.4588 10.4803 12.5759 10.42 12.713C10.3597 12.85 10.3439 13.0008 10.3747 13.1463C10.4054 13.2918 10.4813 13.4254 10.5928 13.5303C10.7042 13.6352 10.8462 13.7067 11.0008 13.7356C11.1554 13.7645 11.3156 13.7497 11.4612 13.6929C11.6068 13.6361 11.7313 13.54 11.8188 13.4167C11.9064 13.2933 11.9531 13.1483 11.9531 13C11.9531 12.8011 11.8692 12.6103 11.7197 12.4697C11.5703 12.329 11.3676 12.25 11.1563 12.25ZM11.1563 13.25C11.1037 13.25 11.0524 13.2353 11.0087 13.2079C10.965 13.1804 10.9309 13.1414 10.9108 13.0957C10.8907 13.05 10.8855 12.9997 10.8957 12.9512C10.906 12.9027 10.9313 12.8582 10.9684 12.8232C11.0056 12.7883 11.0529 12.7644 11.1044 12.7548C11.156 12.7452 11.2094 12.7501 11.2579 12.769C11.3064 12.788 11.3479 12.82 11.3771 12.8611C11.4063 12.9022 11.4219 12.9506 11.4219 13C11.4219 13.0663 11.3939 13.1299 11.3441 13.1768C11.2943 13.2237 11.2267 13.25 11.1563 13.25Z" fill="#01AB84"/>
</g>
<defs>
<clipPath id="clip0_206_76">
<rect width="17" height="16" fill="white"/>
</clipPath>
</defs>
</svg>
