<svg width="29" height="31" viewBox="0 0 29 31" fill="none" xmlns="http://www.w3.org/2000/svg">
<g id="Tri &#195;&#162;n 1" clip-path="url(#clip0_5055_338)">
<g id="Layer_x0020_1">
<g id="_2687341277872">
<path id="Vector" fill-rule="evenodd" clip-rule="evenodd" d="M0.424561 12.4419V21.8623C0.424561 23.7249 1.48504 24.9269 2.67127 26.0978C2.81692 26.2418 2.91943 26.336 3.06176 26.4829L4.23471 27.7776C4.47586 28.0781 4.79297 28.3001 5.03413 28.6005C5.3081 28.9416 5.571 29.3142 6.08502 29.3142C6.5924 29.3142 6.70339 28.6507 6.35199 28.2755C6.19159 28.1041 6.15066 28.0191 5.99763 27.8546L2.41536 24.0323C2.00754 23.4908 1.62774 22.7174 1.62774 21.7919V12.3715C1.62774 10.7727 3.96258 10.6863 3.96258 12.3715V18.6284C3.96258 19.0445 2.95482 20.2466 4.05366 21.6311L7.75355 25.5472C8.59943 26.6368 9.19863 26.0352 9.19863 25.5879C9.19863 25.1262 8.45267 24.5302 8.1551 24.2345L5.24246 21.153C4.8269 20.6719 4.81215 20.5188 4.81215 19.8934C4.81215 19.124 5.9095 18.4137 6.78673 19.2669L11.6581 24.4096C12.5726 25.4417 12.9583 25.6978 13.2986 27.279C13.5257 28.3334 13.0195 29.3138 14.1519 29.3138C14.4609 29.3138 14.636 28.8804 14.6496 28.543C14.6696 28.0546 14.6224 27.7549 14.7097 27.3369C15.0678 25.623 16.0789 24.6185 17.2474 23.4611L19.7596 20.8251C20.4875 20.1103 21.5491 18.2876 22.7058 19.057C23.1874 19.3772 23.2087 19.856 23.2087 20.3851C23.2087 20.8852 22.5273 21.449 22.2006 21.7736C21.7733 22.1982 21.4584 22.5818 21.0332 23.0039C20.6055 23.4285 20.2891 23.8139 19.8658 24.2341C19.5767 24.5214 18.8223 25.135 18.8223 25.5875C18.8223 26.3309 19.6471 26.3477 20.2478 25.5978C20.4919 25.2933 20.6501 25.1413 20.9274 24.8668L23.9016 21.7058C25.0856 20.284 24.0583 19.0266 24.0583 18.6276V12.3708C24.0583 10.772 26.3931 10.6855 26.3931 12.3708V21.7912C26.3931 23.3259 25.5041 24.1858 24.6074 25.149C24.4728 25.2937 24.3603 25.3933 24.2172 25.5347L22.795 27.0742C22.5837 27.3376 22.3035 27.5644 22.0579 27.8183C21.8861 27.9956 21.4403 28.4419 21.4403 28.6807C21.4403 29.0925 21.7456 29.3134 22.0771 29.3134C22.5019 29.3134 22.7803 28.857 22.9864 28.5998L25.3496 26.0971C26.5355 24.9258 27.5963 23.7238 27.5963 21.8615V12.3005C27.5963 9.77656 24.0801 8.9101 23.0255 11.4853C22.8463 11.9227 22.8529 12.0697 22.8555 12.6518C22.8625 14.362 22.8555 16.0737 22.8555 17.7839C21.9595 17.5765 21.3599 17.6271 20.6302 18.1741C20.3665 18.3715 20.3363 18.4111 20.1368 18.6683C19.8488 19.0405 19.4683 19.3164 19.1589 19.6652L16.2931 22.7232C16.1095 22.9035 15.9804 23.0346 15.7975 23.2149C15.5803 23.4285 15.5269 23.5106 15.3344 23.7392C14.8882 24.2693 14.2525 24.7888 14.0814 25.5175H13.9402C13.848 25.1248 13.4446 24.588 13.2038 24.2807L11.7643 22.758C11.5471 22.5444 11.4936 22.4624 11.3012 22.2338C10.9999 21.8755 10.6083 21.5974 10.3211 21.2391L7.43238 18.2037C6.69712 17.6469 6.09793 17.5681 5.1665 17.7839C5.1665 16.6734 5.29703 12.4199 5.03597 11.5864C4.48987 9.84361 2.38107 9.40983 1.11447 10.6643C0.699269 11.0753 0.426036 11.652 0.426036 12.4408L0.424561 12.4419Z" fill="#124769"/>
<path id="Vector_2" fill-rule="evenodd" clip-rule="evenodd" d="M7.35858 6.88964C7.35858 3.85502 10.724 2.25583 12.6772 4.6984C13.4859 5.70957 13.3804 6.64711 14.0286 6.71965C14.7337 6.79842 14.6308 5.87554 15.3664 4.79329C17.6445 1.4403 22.8211 5.15599 19.6703 9.49158L18.789 10.5141C18.4959 10.8647 18.4516 10.853 18.1714 11.0955C18.0674 11.1857 18.0176 11.2366 17.9181 11.3359C17.3155 11.9389 16.6448 12.469 16.0062 13.0219L14.5574 14.254C14.3631 14.4328 14.2248 14.4789 14.0799 14.6936L11.1248 12.2166C10.9268 12.0415 10.8321 11.9961 10.6311 11.7931L9.25093 10.4929C9.07947 10.3229 8.95668 10.2203 8.80291 10.0239C8.07835 9.097 7.35784 8.34082 7.35784 6.89001L7.35858 6.88964ZM6.15576 6.60827C6.15576 9.38277 7.672 10.6042 9.32099 12.2511L10.7248 13.4575C10.8715 13.5711 10.894 13.6128 11.0212 13.7253C11.3819 14.0441 13.7941 16.0994 13.939 16.0994C14.2997 16.0994 14.4471 15.9059 14.6474 15.7488L18.6249 12.3192C19.3108 11.644 19.0597 12.006 19.9358 11.0208C20.0368 10.9069 20.1146 10.8508 20.2193 10.7398C21.5708 9.30473 22.386 6.93104 21.5099 4.99186C20.7385 3.28569 19.5379 2.32031 17.4059 2.32031C16.5626 2.32031 15.8225 2.70243 15.3421 3.08162C14.4202 3.80923 14.3207 4.36281 14.0098 4.56981C13.9401 4.31078 13.64 3.97702 13.4623 3.77845C12.432 2.62843 11.7543 2.32031 10.0478 2.32031C8.12002 2.32031 6.15613 4.50716 6.15613 6.60864L6.15576 6.60827Z" fill="#124769"/>
</g>
</g>
</g>
<defs>
<clipPath id="clip0_5055_338">
<rect width="28.181" height="31" fill="white" transform="translate(0.424561)"/>
</clipPath>
</defs>
</svg>
