<svg width="30" height="30" viewBox="0 0 30 30" fill="none" xmlns="http://www.w3.org/2000/svg">
<path fill-rule="evenodd" clip-rule="evenodd" d="M10.0175 26.6535L1.68528 24.1599C2.78371 21.1058 2.03764 19.1343 1.53506 17.065C0.907304 14.4798 2.33697 9.64038 2.86697 8.38982C3.54787 8.07049 5.0873 10.2222 4.32056 12.7666C4.32056 12.7666 4.41483 12.8257 4.56618 12.9472L4.58483 12.8849C7.00157 6.616 8.62764 2.03746 10.0056 2.47858C10.6245 2.67667 10.4794 4.16622 10.4794 4.16622L10.488 4.21296C10.9655 3.19712 11.4481 2.61555 11.9911 2.80139C12.8891 3.10881 12.813 4.43341 12.3899 6.24611L12.3946 6.23038C12.6255 5.73465 13.22 4.70465 13.8887 5.49094C14.3087 5.98499 14.231 7.52319 14.0053 9.22049C14.0053 9.22049 13.9722 9.26442 14.0006 9.21903C14.8969 7.786 15.7906 8.99117 15.591 11.2051C15.3852 13.4889 15.0007 18.2962 13.7299 20.0831C12.4591 21.8699 10.8521 23.8644 10.0175 26.6535Z" fill="url(#paint0_linear_2236_37)"/>
<path fill-rule="evenodd" clip-rule="evenodd" d="M4.14329 13.1334C4.14329 13.1334 6.48003 14.6268 6.35744 18.0218C6.34812 18.28 6.55014 18.4972 6.80834 18.5066C7.06654 18.5159 7.28385 18.3139 7.29317 18.0557C7.43711 14.0697 4.64115 12.3404 4.64115 12.3404C4.42239 12.203 4.13317 12.2691 3.99576 12.4879C3.85834 12.7068 3.92441 12.996 4.14329 13.1334ZM8.39497 11.5881C9.41261 9.05949 10.1922 6.18881 10.979 4.446C11.0854 4.2105 10.9805 3.93297 10.745 3.82668C10.5095 3.72039 10.2319 3.82522 10.1256 4.06072C9.33486 5.81241 8.54913 8.69701 7.52632 11.2385C7.42991 11.4783 7.54621 11.7512 7.78587 11.8476C8.02553 11.9441 8.29845 11.8278 8.39497 11.5881Z" fill="#E6A775"/>
<path fill-rule="evenodd" clip-rule="evenodd" d="M19.8691 26.6535L28.2013 24.1599C27.103 21.1058 27.849 19.1343 28.3515 17.065C28.9792 14.4798 27.5497 9.64038 27.0197 8.38982C26.3387 8.07049 24.7994 10.2222 25.566 12.7666C25.566 12.7666 25.4717 12.8257 25.3205 12.9472L25.3018 12.8849C22.885 6.616 21.259 2.03746 19.8809 2.47858C19.2621 2.67667 19.4072 4.16622 19.4072 4.16622L19.3986 4.21296C18.9212 3.19712 18.4386 2.61555 17.8955 2.80139C16.9976 3.10881 17.0735 4.43341 17.4968 6.24611L17.4919 6.23038C17.2612 5.73465 16.6667 4.70465 15.998 5.49094C15.578 5.98499 15.6557 7.52319 15.8814 9.22049C15.8814 9.22049 15.9144 9.26442 15.886 9.21903C14.9898 7.786 14.096 8.99117 14.2955 11.2051C14.5015 13.4889 14.886 18.2962 16.1567 20.0831C17.4275 21.8699 19.0344 23.8644 19.8691 26.6535Z" fill="url(#paint1_linear_2236_37)"/>
<path fill-rule="evenodd" clip-rule="evenodd" d="M25.2454 12.3404C25.2454 12.3404 22.4494 14.0697 22.5934 18.0557C22.6028 18.3139 22.82 18.5159 23.0782 18.5066C23.3364 18.4972 23.5385 18.28 23.5292 18.0218C23.4065 14.6268 25.7433 13.1334 25.7433 13.1334C25.9621 12.996 26.0283 12.7068 25.8909 12.4879C25.7534 12.2691 25.4642 12.203 25.2454 12.3404ZM22.3602 11.2385C21.3374 8.69701 20.5518 5.81241 19.761 4.06072C19.6546 3.82522 19.377 3.72039 19.1415 3.82668C18.906 3.93297 18.8012 4.2105 18.9075 4.446C19.6943 6.18881 20.474 9.05949 21.4916 11.5881C21.588 11.8278 21.861 11.9441 22.1007 11.8476C22.3404 11.7512 22.4567 11.4783 22.3602 11.2385Z" fill="#E6A775"/>
<path fill-rule="evenodd" clip-rule="evenodd" d="M14.9813 7.74945C16.6376 6.13304 19.9503 6.13304 21.6066 7.7336C23.263 9.33428 23.263 12.5355 21.6066 15.7368C20.6494 17.7189 18.4503 19.7011 16.3142 21.2329C15.5163 21.8008 14.4462 21.8009 13.6482 21.2332C11.5123 19.7011 9.31329 17.7189 8.35599 15.7368C6.6997 12.5355 6.6997 9.33428 8.35599 7.7336C10.0124 6.13304 13.325 6.13304 14.9813 7.74945Z" fill="url(#paint2_linear_2236_37)"/>
<defs>
<linearGradient id="paint0_linear_2236_37" x1="14.1727" y1="3.1633" x2="14.1727" y2="27.4815" gradientUnits="userSpaceOnUse">
<stop stop-color="#FED29D"/>
<stop offset="1" stop-color="#F4BD7A"/>
</linearGradient>
<linearGradient id="paint1_linear_2236_37" x1="14.1726" y1="3.1633" x2="14.1726" y2="27.4815" gradientUnits="userSpaceOnUse">
<stop stop-color="#FED29D"/>
<stop offset="1" stop-color="#F4BD7A"/>
</linearGradient>
<linearGradient id="paint2_linear_2236_37" x1="10.6044" y1="6.47713" x2="18.158" y2="19.7808" gradientUnits="userSpaceOnUse">
<stop stop-color="#FE97AC"/>
<stop offset="1" stop-color="#FF6F6F"/>
</linearGradient>
</defs>
</svg>
