<svg width="22" height="20" viewBox="0 0 22 20" fill="none" xmlns="http://www.w3.org/2000/svg">
<path fill-rule="evenodd" clip-rule="evenodd" d="M1.92976 1.82089C0.833073 2.91854 0.217041 4.40669 0.217041 5.95831C0.217041 7.50994 0.833073 8.99809 1.92976 10.0957L2.75382 10.9231L10.9982 19.1979L19.2421 10.9231L20.0666 10.0957C21.1633 8.99809 21.7794 7.50994 21.7794 5.95831C21.7794 4.40669 21.1633 2.91854 20.0666 1.82089C19.5272 1.27615 18.8852 0.843732 18.1776 0.548621C17.4701 0.253509 16.7111 0.101562 15.9444 0.101562C15.1778 0.101562 14.4188 0.253509 13.7113 0.548621C13.0037 0.843732 12.3617 1.27615 11.8223 1.82089L10.9982 2.64824L10.1737 1.82089C9.63426 1.27622 8.99225 0.843862 8.28475 0.548793C7.57725 0.253724 6.81828 0.101799 6.05171 0.101799C5.28515 0.101799 4.52618 0.253724 3.81868 0.548793C3.11118 0.843862 2.46917 1.27622 1.92976 1.82089Z" fill="#FF143A"/>
<path opacity="0.4" d="M2.6281 7.95516C2.27852 7.34967 2.09448 6.66283 2.09448 5.96367C2.09448 5.26451 2.27852 4.57768 2.6281 3.97219C2.9777 3.36656 3.48059 2.86365 4.08621 2.51402C4.69182 2.1644 5.37881 1.98038 6.0781 1.98047" stroke="white" stroke-width="1.99933" stroke-linecap="round" stroke-linejoin="round"/>
<path fill-rule="evenodd" clip-rule="evenodd" d="M6.05193 0.102501C5.28536 0.10228 4.52634 0.25404 3.81879 0.549002C3.11123 0.843965 2.46917 1.27628 1.92975 1.82094C1.6985 2.05604 1.4873 2.31005 1.29834 2.58031C1.30771 2.57094 1.30771 2.56953 1.31334 2.56391C1.80571 2.06677 2.39173 1.67215 3.03752 1.40283C3.68331 1.13352 4.37607 0.994853 5.07576 0.994853C5.77546 0.994853 6.46822 1.13352 7.11401 1.40283C7.75979 1.67215 8.34581 2.06677 8.83818 2.56391L9.95006 3.68516L10.7024 2.92906C10.799 2.83203 10.9007 2.74438 11.0024 2.65672L10.1751 1.82047C9.63567 1.27572 8.99363 0.843325 8.28607 0.548281C7.57851 0.253237 6.81948 0.101404 6.05287 0.101563L6.05193 0.102501ZM15.944 0.102501C14.729 0.102501 13.5177 0.489688 12.4916 1.25188C13.4215 0.953018 14.4161 0.91745 15.365 1.14911C16.3139 1.38077 17.1801 1.87062 17.8677 2.56438C18.8686 3.56613 19.4309 4.92429 19.4309 6.34039C19.4309 7.75649 18.8686 9.11465 17.8677 10.1164L17.1154 10.8725L9.90881 18.1063L10.9977 19.1994L19.2421 10.9236L20.0657 10.0958C21.1623 8.998 21.7782 7.50979 21.7782 5.95813C21.7782 4.40646 21.1623 2.91825 20.0657 1.82047C19.5263 1.27586 18.8843 0.843585 18.1769 0.548624C17.4694 0.253663 16.7105 0.102342 15.944 0.102501Z" fill="#D30045"/>
</svg>
