<svg width="28" height="27" viewBox="0 0 28 27" fill="none" xmlns="http://www.w3.org/2000/svg">
<g id="S&#225;&#187;&#169;c kh&#225;&#187;&#143;e" clip-path="url(#clip0_5055_344)">
<g id="Layer_x0020_1">
<path id="Vector" fill-rule="evenodd" clip-rule="evenodd" d="M7.85561 5.38494C9.28785 5.38494 10.4305 5.79916 11.2795 6.62178C12.2203 7.53287 11.996 7.28358 12.7687 8.37709C13.177 8.95556 13.9466 8.94871 14.3431 8.4131C14.5153 8.18061 14.6317 7.98447 14.797 7.76536C14.8684 7.67072 14.9212 7.59356 15.0064 7.48521C15.1121 7.35113 15.1666 7.31993 15.2701 7.19786C17.1897 4.93574 20.5518 4.82293 22.5521 6.59092L23.0843 7.09979C23.0929 7.1087 23.1053 7.12208 23.114 7.13133C24.5569 8.67302 24.9372 11.0802 24.4295 13.1252C23.9112 15.2145 22.216 16.9647 20.7706 18.4011L13.9214 24.3525C13.7399 24.5267 13.7913 24.4941 13.568 24.6117L9.34445 21.0565C9.20916 20.9228 9.20295 20.9211 9.04834 20.8018L7.54811 19.4847C6.75537 18.8836 4.75335 16.7439 4.23015 16.0673C2.71404 14.1066 1.99206 11.7087 2.80964 9.28338C3.07987 8.48168 3.44121 7.77462 3.9934 7.16391C4.00548 7.15054 4.03964 7.11282 4.05207 7.10013L4.11384 7.03944C4.16699 6.98937 4.21151 6.95577 4.27639 6.89576C5.15541 6.07829 6.24736 5.38563 7.85526 5.38563L7.85561 5.38494ZM0.975342 11.0613C0.975342 12.3667 1.06576 13.3879 1.59 14.54C2.13873 15.7464 2.13356 15.6377 2.81827 16.6767L4.34507 18.517L9.43452 23.1036C9.52943 23.1835 9.56049 23.2312 9.65574 23.3114C9.76239 23.4009 9.7579 23.3804 9.86488 23.4702L12.4015 25.6497C13.9466 26.8378 14.3069 25.8983 15.6225 24.8812L16.9833 23.7312C17.1631 23.5923 17.2666 23.4843 17.4485 23.3389L18.8052 22.1843C19.7359 21.3607 22.2408 19.2086 22.7578 18.5431C22.9138 18.3425 22.9673 18.2982 23.1381 18.1275C23.3076 17.9584 23.3666 17.8456 23.5364 17.6687C23.9253 17.263 24.6984 16.1736 24.9527 15.7193C25.184 15.3064 25.3175 15.0235 25.5281 14.5819C26.396 12.757 26.3543 10.0851 25.5664 8.23616C25.4014 7.84937 25.1992 7.43617 24.9841 7.10562L24.434 6.37044C22.3191 3.77091 18.7047 3.06762 15.7222 4.8387L14.3321 5.95964C14.1519 6.17361 13.6953 6.61081 13.6312 6.85016H13.5083C13.4503 6.63447 13.4496 6.71505 13.3174 6.55149C12.1244 5.07462 10.2462 3.85938 8.28666 3.85938C6.06928 3.85938 4.47967 4.49717 2.9256 6.10126L2.53044 6.5628C2.40137 6.71402 2.29645 6.89302 2.17946 7.06893C1.4982 8.09351 0.976377 9.71749 0.976377 11.0617L0.975342 11.0613Z" fill="#124769"/>
</g>
</g>
<defs>
<clipPath id="clip0_5055_344">
<rect width="27.1746" height="27" fill="white" transform="translate(0.0864258)"/>
</clipPath>
</defs>
</svg>
