<svg width="30" height="26" viewBox="0 0 30 26" fill="none" xmlns="http://www.w3.org/2000/svg">
<path fill-rule="evenodd" clip-rule="evenodd" d="M2.90618 2.42916C1.44393 3.89268 0.622559 5.87689 0.622559 7.94572C0.622559 10.0146 1.44393 11.9988 2.90618 13.4623L4.00494 14.5654L14.9974 25.5985L25.9893 14.5654L27.0887 13.4623C28.5509 11.9988 29.3723 10.0146 29.3723 7.94572C29.3723 5.87689 28.5509 3.89268 27.0887 2.42916C26.3695 1.70284 25.5134 1.12628 24.57 0.732796C23.6266 0.339315 22.6146 0.136719 21.5924 0.136719C20.5703 0.136719 19.5582 0.339315 18.6148 0.732796C17.6715 1.12628 16.8154 1.70284 16.0962 2.42916L14.9974 3.53228L13.8981 2.42916C13.1788 1.70294 12.3228 1.12645 11.3795 0.733026C10.4362 0.339601 9.42421 0.137035 8.40212 0.137035C7.38003 0.137035 6.36808 0.339601 5.42474 0.733026C4.48141 1.12645 3.6254 1.70294 2.90618 2.42916Z" fill="#FF143A"/>
</svg>
