<svg width="25" height="25" viewBox="0 0 25 25" fill="none" xmlns="http://www.w3.org/2000/svg">
<path d="M11.7603 15.9271C11.7155 15.9766 11.6738 16.0288 11.6353 16.0834C11.5959 16.1414 11.5644 16.2045 11.5416 16.2709C11.5116 16.3299 11.4905 16.3931 11.4791 16.4584C11.474 16.5277 11.474 16.5974 11.4791 16.6667C11.4756 16.8033 11.5041 16.9389 11.5624 17.0625C11.6092 17.1918 11.6838 17.3092 11.7811 17.4064C11.8783 17.5036 11.9957 17.5783 12.1249 17.625C12.2496 17.6802 12.3844 17.7086 12.5208 17.7086C12.6571 17.7086 12.7919 17.6802 12.9166 17.625C13.0459 17.5783 13.1633 17.5036 13.2605 17.4064C13.3577 17.3092 13.4323 17.1918 13.4791 17.0625C13.5253 16.9359 13.5466 16.8015 13.5416 16.6667C13.5424 16.5296 13.5161 16.3937 13.4643 16.2668C13.4124 16.1399 13.3361 16.0245 13.2395 15.9271C13.1427 15.8295 13.0275 15.752 12.9005 15.6991C12.7736 15.6462 12.6374 15.619 12.4999 15.619C12.3624 15.619 12.2263 15.6462 12.0993 15.6991C11.9724 15.752 11.8572 15.8295 11.7603 15.9271ZM12.4999 2.08337C10.4397 2.08337 8.42575 2.6943 6.71273 3.8389C4.99972 4.9835 3.66459 6.61036 2.87618 8.51375C2.08777 10.4172 1.88148 12.5116 2.28341 14.5322C2.68534 16.5529 3.67743 18.4089 5.13423 19.8657C6.59102 21.3225 8.4471 22.3146 10.4677 22.7166C12.4884 23.1185 14.5828 22.9122 16.4862 22.1238C18.3896 21.3354 20.0165 20.0002 21.1611 18.2872C22.3057 16.5742 22.9166 14.5603 22.9166 12.5C22.9166 11.1321 22.6472 9.77756 22.1237 8.51375C21.6002 7.24995 20.8329 6.10162 19.8656 5.13435C18.8983 4.16707 17.75 3.39978 16.4862 2.8763C15.2224 2.35281 13.8679 2.08337 12.4999 2.08337ZM12.4999 20.8334C10.8517 20.8334 9.24058 20.3446 7.87017 19.429C6.49976 18.5133 5.43166 17.2118 4.80093 15.6891C4.1702 14.1664 4.00517 12.4908 4.32671 10.8743C4.64826 9.25778 5.44193 7.77292 6.60737 6.60748C7.7728 5.44205 9.25766 4.64837 10.8742 4.32683C12.4907 4.00529 14.1662 4.17031 15.689 4.80104C17.2117 5.43177 18.5132 6.49988 19.4288 7.87029C20.3445 9.2407 20.8333 10.8519 20.8333 12.5C20.8333 14.7102 19.9553 16.8298 18.3925 18.3926C16.8297 19.9554 14.7101 20.8334 12.4999 20.8334ZM12.4999 7.29171C11.951 7.29136 11.4117 7.43558 10.9363 7.70988C10.4608 7.98417 10.066 8.37885 9.79159 8.85421C9.71622 8.97277 9.66561 9.10535 9.64281 9.24397C9.62001 9.3826 9.62549 9.52441 9.65891 9.66086C9.69233 9.79731 9.75302 9.9256 9.8373 10.038C9.92159 10.1504 10.0277 10.2446 10.1494 10.3149C10.271 10.3852 10.4056 10.4302 10.5451 10.4471C10.6845 10.464 10.826 10.4526 10.9609 10.4135C11.0958 10.3743 11.2214 10.3083 11.3302 10.2193C11.4389 10.1304 11.5286 10.0204 11.5937 9.89587C11.6854 9.73691 11.8176 9.60502 11.9767 9.51356C12.1359 9.4221 12.3164 9.37431 12.4999 9.37504C12.7762 9.37504 13.0411 9.48479 13.2365 9.68014C13.4318 9.87549 13.5416 10.1404 13.5416 10.4167C13.5416 10.693 13.4318 10.9579 13.2365 11.1533C13.0411 11.3486 12.7762 11.4584 12.4999 11.4584C12.2237 11.4584 11.9587 11.5681 11.7634 11.7635C11.568 11.9588 11.4583 12.2238 11.4583 12.5V13.5417C11.4583 13.818 11.568 14.0829 11.7634 14.2783C11.9587 14.4736 12.2237 14.5834 12.4999 14.5834C12.7762 14.5834 13.0411 14.4736 13.2365 14.2783C13.4318 14.0829 13.5416 13.818 13.5416 13.5417V13.3542C14.2305 13.1042 14.8097 12.6201 15.1778 11.9864C15.5459 11.3527 15.6797 10.6097 15.5555 9.88743C15.4314 9.16513 15.0574 8.50943 14.4989 8.03495C13.9403 7.56047 13.2328 7.29739 12.4999 7.29171Z" fill="#1C5579"/>
</svg>
