<svg width="30" height="30" viewBox="0 0 30 30" fill="none" xmlns="http://www.w3.org/2000/svg">
<g clip-path="url(#clip0_307_443)">
<path opacity="0.9" d="M16.9937 4C10.775 4 5.75 9.0375 5.75 15.25H2L6.86875 20.1188L6.95625 20.3L12 15.25H8.25C8.25 10.4187 12.1687 6.5 17 6.5C21.8312 6.5 25.75 10.4187 25.75 15.25C25.75 20.0812 21.8312 24 17 24C14.5813 24 12.4 23.0125 10.8188 21.4312L9.05 23.2C11.0813 25.2375 13.8875 26.5 16.9937 26.5C23.2125 26.5 28.25 21.4625 28.25 15.25C28.25 9.0375 23.2125 4 16.9937 4ZM15.75 10.25V16.5L21.1 19.675L22 18.1562L17.625 15.5625V10.25H15.75Z" fill="white"/>
</g>
<defs>
<clipPath id="clip0_307_443">
<rect width="30" height="30" fill="white"/>
</clipPath>
</defs>
</svg>
