<svg width="27" height="25" viewBox="0 0 27 25" fill="none" xmlns="http://www.w3.org/2000/svg">
<g id="Layer_x0020_1">
<path id="Vector" fill-rule="evenodd" clip-rule="evenodd" d="M11.409 16.8228C11.409 16.2548 11.8228 15.8332 12.3801 15.8332C12.9949 15.8332 15.3322 15.7421 15.7616 15.929L15.9796 16.0713C16.2072 16.2755 16.3156 16.5353 16.3156 16.9271V23.3334H11.409V16.8228ZM9.77362 16.5624V23.3334H5.32703C4.7501 23.3334 4.45798 23.036 4.45798 22.4481V10.4165C4.45798 10.2421 6.51378 8.24325 6.66832 8.08576C7.49483 7.24349 11.761 2.81435 12.2927 2.35884C12.5031 2.17833 12.6968 2.01509 12.9577 1.8908C14.5894 1.11321 15.6024 2.52852 16.5578 3.50219L22.7422 9.80452C22.8585 9.92305 23.2659 10.2556 23.2659 10.4165V22.4481C23.2659 23.036 22.9742 23.3334 22.3969 23.3334H17.9503V16.5624C17.9503 15.4024 16.7373 14.1666 15.5994 14.1666H12.1242C10.9863 14.1666 9.77329 15.4027 9.77329 16.5624H9.77362ZM0.778409 11.9791C0.778409 12.6077 1.08149 12.9166 1.6983 12.9166C2.12435 12.9166 2.51484 12.2413 2.82258 12.0309C2.82258 14.5659 2.82258 17.1005 2.82258 19.6351C2.82258 20.5414 2.71889 22.714 2.91696 23.3412C3.17983 24.1733 4.01133 25 5.07147 25H22.6528C23.7226 25 24.5115 24.1845 24.794 23.3801C25.015 22.7505 24.9017 20.5936 24.9017 19.6876C24.9017 17.1354 24.9017 14.5832 24.9017 12.0313C25.4311 12.3926 25.4284 12.9169 26.2307 12.9169C26.6012 12.9169 26.9462 12.5555 26.9462 11.9795C26.9462 11.5622 25.9206 10.6481 25.5534 10.2736L17.1205 1.67981C16.0052 0.543228 15.3904 0 13.6067 0C12.0062 0 10.8796 1.39905 9.86302 2.43504L2.19647 10.2478C1.82459 10.6265 0.778076 11.5612 0.778076 11.9795L0.778409 11.9791Z" fill="#124769"/>
</g>
</svg>
