<svg width="30" height="30" viewBox="0 0 30 30" fill="none" xmlns="http://www.w3.org/2000/svg">
<path d="M8.3125 10.375H11V24.3125H8.3125V10.375Z" fill="#DEBB7E"/>
<path d="M8.3125 20.0625C8.5625 20.1875 8.8125 20.25 9.125 20.25C9.875 20.25 10.5625 19.75 10.875 19.125C10.9375 19.125 11 19.125 11 19.1875V10.375H8.3125V20.0625Z" fill="#B89558"/>
<path d="M8.3125 10.375H11V24.3125H8.3125V10.375Z" stroke="#45413C" stroke-miterlimit="10" stroke-linecap="round" stroke-linejoin="round"/>
<path d="M9.625 4.25C6.1875 4.25 3.375 6.9375 3.125 10.3125C1.5625 10.9375 0.5 12.4375 0.5 14.1875C0.5 16.5 2.375 18.3125 4.625 18.3125C5.8125 18.3125 6.875 17.8125 7.625 17C8.25 17.1875 8.9375 17.3125 9.625 17.3125C13.25 17.3125 16.125 14.375 16.125 10.8125C16.125 7.25 13.25 4.25 9.625 4.25Z" fill="#6DD627"/>
<path d="M3.125 12.0625C3.375 8.6875 6.1875 6 9.625 6C12.9375 6 15.6875 8.4375 16.0625 11.6875C16.125 11.375 16.125 11.125 16.125 10.8125C16.125 7.1875 13.1875 4.3125 9.625 4.3125C6.1875 4.3125 3.375 7 3.125 10.375C1.5625 11 0.5 12.5 0.5 14.25C0.5 14.5625 0.5625 14.875 0.625 15.125C0.875 13.6875 1.8125 12.5625 3.125 12.0625Z" fill="#9CEB60"/>
<path d="M9.625 4.25C6.1875 4.25 3.375 6.9375 3.125 10.3125C1.5625 10.9375 0.5 12.4375 0.5 14.1875C0.5 16.5 2.375 18.3125 4.625 18.3125C5.8125 18.3125 6.875 17.8125 7.625 17C8.25 17.1875 8.9375 17.3125 9.625 17.3125C13.25 17.3125 16.125 14.375 16.125 10.8125C16.125 7.25 13.25 4.25 9.625 4.25Z" stroke="#45413C" stroke-miterlimit="10" stroke-linecap="round" stroke-linejoin="round"/>
<path d="M9.62491 13.6875L16.8749 9.4375C17.1874 9.25 17.6249 9.25 17.9374 9.4375L25.2499 13.6875C25.6874 13.9375 25.8124 14.4375 25.6249 14.875C25.3749 15.375 24.8124 15.5625 24.3124 15.25L17.4374 11.25L10.5624 15.25C10.0624 15.5 9.49991 15.3125 9.24991 14.875C8.99991 14.4375 9.18741 13.9375 9.62491 13.6875Z" fill="#FF6242"/>
<path d="M9.3124 15C9.3749 14.875 9.4999 14.8125 9.6249 14.75L16.8749 10.5C17.1874 10.3125 17.6249 10.3125 17.9374 10.5L25.2499 14.75C25.3749 14.8125 25.4999 14.9375 25.5624 15C25.5624 14.9375 25.6249 14.9375 25.6249 14.875C25.8124 14.4375 25.6874 13.9375 25.2499 13.6875L17.9374 9.4375C17.6249 9.25 17.1874 9.25 16.8749 9.4375L9.5624 13.6875C9.1249 13.9375 8.9999 14.4375 9.1874 14.875C9.2499 14.9375 9.2499 15 9.3124 15Z" fill="#FF866E"/>
<path d="M9.62491 13.6875L16.8749 9.4375C17.1874 9.25 17.6249 9.25 17.9374 9.4375L25.2499 13.6875C25.6874 13.9375 25.8124 14.4375 25.6249 14.875C25.3749 15.375 24.8124 15.5625 24.3124 15.25L17.4374 11.25L10.5624 15.25C10.0624 15.5 9.49991 15.3125 9.24991 14.875C8.99991 14.4375 9.18741 13.9375 9.62491 13.6875Z" stroke="#45413C" stroke-miterlimit="10" stroke-linecap="round" stroke-linejoin="round"/>
<path opacity="0.15" d="M16.375 25.75C23.6237 25.75 29.5 25.3303 29.5 24.8125C29.5 24.2947 23.6237 23.875 16.375 23.875C9.12626 23.875 3.25 24.2947 3.25 24.8125C3.25 25.3303 9.12626 25.75 16.375 25.75Z" fill="#45413C"/>
<path d="M23.875 24.3125H11V15L17.4375 11.25L23.875 15V24.3125Z" fill="#FFFACF"/>
<path d="M17.4375 11.25L11 15V16.5L17.4375 12.75L23.875 16.5V15L17.4375 11.25Z" fill="#FFF48C"/>
<path d="M23.875 24.3125H11V15L17.4375 11.25L23.875 15V24.3125Z" stroke="#45413C" stroke-miterlimit="10" stroke-linecap="round" stroke-linejoin="round"/>
<path d="M18.25 24.3125H12.0625V23.5C12.0625 23.1875 12.3125 22.9375 12.625 22.9375H17.75C18.0625 22.9375 18.3125 23.1875 18.3125 23.5V24.3125H18.25Z" fill="#E0E0E0" stroke="#45413C" stroke-miterlimit="10" stroke-linecap="round" stroke-linejoin="round"/>
<path d="M16.9375 16.5H13.4375C13.125 16.5 12.875 16.75 12.875 17.0625V22.9375H17.4375V17.0625C17.4375 16.75 17.1875 16.5 16.9375 16.5Z" fill="#BF8256"/>
<path d="M16.9375 16.5H13.4375C13.125 16.5 12.875 16.75 12.875 17.0625V18.125C12.875 17.8125 13.125 17.5625 13.4375 17.5625H16.9375C17.25 17.5625 17.5 17.8125 17.5 18.125V17.0625C17.4375 16.75 17.1875 16.5 16.9375 16.5Z" fill="#915E3A"/>
<path d="M16.9375 16.5H13.4375C13.125 16.5 12.875 16.75 12.875 17.0625V22.9375H17.4375V17.0625C17.4375 16.75 17.1875 16.5 16.9375 16.5Z" stroke="#45413C" stroke-miterlimit="10" stroke-linecap="round" stroke-linejoin="round"/>
<path d="M21.75 19.75H19.625C19.3125 19.75 19.0625 19.5 19.0625 19.1875V17.0625C19.0625 16.75 19.3125 16.5 19.625 16.5H21.75C22.0625 16.5 22.3125 16.75 22.3125 17.0625V19.1875C22.25 19.5 22.0625 19.75 21.75 19.75Z" fill="#00B8F0"/>
<path d="M21.75 16.5H19.625C19.3125 16.5 19.0625 16.75 19.0625 17.0625V19.1875C19.0625 19.5 19.3125 19.75 19.625 19.75H20L21.875 16.5625C21.8125 16.5625 21.75 16.5 21.75 16.5Z" fill="#4ACFFF"/>
<path d="M15.8125 20H14.5C14.1875 20 13.9375 19.75 13.9375 19.4375V18.125C13.9375 17.8125 14.1875 17.5625 14.5 17.5625H15.8125C16.125 17.5625 16.375 17.8125 16.375 18.125V19.4375C16.375 19.75 16.125 20 15.8125 20Z" fill="#00B8F0"/>
<path d="M15.8125 17.5625H14.5C14.1875 17.5625 13.9375 17.8125 13.9375 18.125V19.4375C13.9375 19.75 14.1875 20 14.5 20H14.625L16 17.625C15.9375 17.625 15.875 17.5625 15.8125 17.5625Z" fill="#4ACFFF"/>
<path d="M21.75 19.75H19.625C19.3125 19.75 19.0625 19.5 19.0625 19.1875V17.0625C19.0625 16.75 19.3125 16.5 19.625 16.5H21.75C22.0625 16.5 22.3125 16.75 22.3125 17.0625V19.1875C22.25 19.5 22.0625 19.75 21.75 19.75Z" stroke="#45413C" stroke-miterlimit="10" stroke-linecap="round" stroke-linejoin="round"/>
<path d="M15.8125 20H14.5C14.1875 20 13.9375 19.75 13.9375 19.4375V18.125C13.9375 17.8125 14.1875 17.5625 14.5 17.5625H15.8125C16.125 17.5625 16.375 17.8125 16.375 18.125V19.4375C16.375 19.75 16.125 20 15.8125 20Z" stroke="#45413C" stroke-miterlimit="10" stroke-linecap="round" stroke-linejoin="round"/>
<path d="M28.4375 24.3125C28.75 24.0625 29 23.6875 29 23.25C29 22.5 28.375 21.9375 27.6875 21.9375C27.375 21.9375 27.0625 22.0625 26.8125 22.25C26.5625 21.125 25.625 20.3125 24.4375 20.3125C23.125 20.3125 22 21.375 22 22.75C22 23.375 22.25 23.9375 22.625 24.375H28.4375V24.3125Z" fill="#6DD627"/>
<path d="M24.4375 21.375C25.625 21.375 26.5625 22.1875 26.8125 23.3125C27.0625 23.125 27.3125 23 27.6875 23C28.25 23 28.6875 23.3125 28.9375 23.8125C29 23.625 29.0625 23.5 29.0625 23.25C29.0625 22.5 28.4375 21.9375 27.75 21.9375C27.4375 21.9375 27.125 22.0625 26.875 22.25C26.625 21.125 25.6875 20.3125 24.5 20.3125C23.1875 20.3125 22.0625 21.375 22.0625 22.75C22.0625 22.9375 22.0625 23.125 22.125 23.3125C22.3125 22.1875 23.25 21.375 24.4375 21.375Z" fill="#9CEB60"/>
<path d="M28.4375 24.3125C28.75 24.0625 29 23.6875 29 23.25C29 22.5 28.375 21.9375 27.6875 21.9375C27.375 21.9375 27.0625 22.0625 26.8125 22.25C26.5625 21.125 25.625 20.3125 24.4375 20.3125C23.125 20.3125 22 21.375 22 22.75C22 23.375 22.25 23.9375 22.625 24.375H28.4375V24.3125Z" stroke="#45413C" stroke-miterlimit="10" stroke-linecap="round" stroke-linejoin="round"/>
</svg>
