<svg width="25" height="25" viewBox="0 0 25 25" fill="none" xmlns="http://www.w3.org/2000/svg">
<path fill-rule="evenodd" clip-rule="evenodd" d="M4.16663 22.3958C4.16663 22.1082 4.39981 21.875 4.68746 21.875H20.3125C20.6001 21.875 20.8333 22.1082 20.8333 22.3958C20.8333 22.6835 20.6001 22.9167 20.3125 22.9167H4.68746C4.39981 22.9167 4.16663 22.6835 4.16663 22.3958ZM9.89579 4.16667H5.20829V3.125H9.89579V4.16667ZM20.3125 4.16667H15.625V3.125H20.3125V4.16667ZM8.85413 5.72917H5.72913V4.6875H8.85413V5.72917ZM19.2708 5.72917H16.1458V4.6875H19.2708V5.72917ZM16.6666 19.7917H8.33329V18.75H16.6666V19.7917ZM13.0208 3.64583V7.8125H11.9791V3.64583H13.0208Z" fill="#1C5579"/>
<path fill-rule="evenodd" clip-rule="evenodd" d="M10.4166 5.20898H14.5833V6.25065H10.4166V5.20898Z" fill="#1C5579"/>
<path fill-rule="evenodd" clip-rule="evenodd" d="M15.1041 3.12565H9.89579V8.33398H15.1041V3.12565ZM9.89579 2.08398H15.1041C15.6794 2.08398 16.1458 2.55035 16.1458 3.12565V8.33398C16.1458 8.9093 15.6794 9.37565 15.1041 9.37565H9.89579C9.32048 9.37565 8.85413 8.9093 8.85413 8.33398V3.12565C8.85413 2.55035 9.32048 2.08398 9.89579 2.08398ZM5.72913 21.8757V3.64648H6.77079V21.8757H5.72913ZM18.2291 21.8757V3.64648H19.2708V21.8757H18.2291ZM11.9791 21.8757V19.7923H13.0208V21.8757H11.9791ZM15.1041 21.8757V19.7923H16.1458V21.8757H15.1041ZM8.85413 21.8757V19.7923H9.89579V21.8757H8.85413Z" fill="#1C5579"/>
<path d="M8.33337 10.416H10.4167V11.9785H8.33337V10.416ZM8.33337 13.0202H10.4167V14.5827H8.33337V13.0202ZM8.33337 15.6243H10.4167V17.1868H8.33337V15.6243ZM11.4584 10.416H13.5417V11.9785H11.4584V10.416ZM11.4584 13.0202H13.5417V14.5827H11.4584V13.0202ZM11.4584 15.6243H13.5417V17.1868H11.4584V15.6243ZM14.5834 10.416H16.6667V11.9785H14.5834V10.416ZM14.5834 13.0202H16.6667V14.5827H14.5834V13.0202ZM14.5834 15.6243H16.6667V17.1868H14.5834V15.6243Z" fill="#1C5579"/>
</svg>
