<svg width="118" height="124" viewBox="0 0 118 124" fill="none" xmlns="http://www.w3.org/2000/svg">
<path fill-rule="evenodd" clip-rule="evenodd" d="M69.0058 103.383H14.0853C11.6208 103.383 8.95499 101.548 8.08428 98.924C7.36848 96.7665 8.01251 95.0632 7.9949 91.9661C7.9903 91.1318 8.11109 89.9633 8.20696 89.2627L8.36675 86.386C8.39031 84.3789 8.5761 82.6897 8.60048 80.6683C8.6086 80.0126 8.71422 79.9526 8.73102 79.3411C8.74537 78.8239 8.70122 78.4411 8.77868 77.9312L9.58602 60.884C9.65021 60.1077 9.81812 58.8942 9.82787 58.0893C9.8601 55.4953 10.0665 54.1805 10.0665 51.7694H109.191C109.555 52.4001 109.61 56.1573 109.762 57.151L110.166 63.1852C110.166 65.4342 107.81 67.7103 105.203 68.3159C104.05 68.5835 92.8609 68.4174 90.0725 68.4069C88.1374 68.3999 86.058 68.7696 84.4005 69.43C84.3648 69.4443 84.2616 69.4846 84.2261 69.4989L82.0411 70.5987C81.5977 70.8648 80.9196 71.2853 80.5412 71.6532C80.3118 71.8763 80.175 72.0542 79.9294 72.2574C78.9493 73.0671 78.042 74.1669 77.376 75.2975L77.1055 75.7564C76.778 76.3501 76.5682 76.8714 76.2865 77.4902C74.0075 82.4993 76.4214 95.2272 74.9072 99.0677C74.1629 100.956 72.9984 102.155 71.0969 102.919C70.6522 103.097 69.6542 103.383 69.0055 103.383H69.0058ZM28.5765 4.52759V31.7311C28.5765 32.8312 29.4705 34.1582 30.0647 34.7405C31.9768 36.6139 34.9472 36.6604 37.0532 35.0838C40.3186 32.6395 38.5181 26.1942 38.9214 22.7249C39.0132 21.9365 39.5976 22.4748 40.4794 23.261C40.7289 23.4833 40.8681 23.5541 41.0853 23.7499C42.0703 24.638 42.9394 26.2447 43.4347 27.4791C44.488 30.1041 44.2407 32.6219 43.2262 35.1678L41.8 37.5101C40.0946 39.7824 36.947 41.3249 34.0565 41.3249C30.7028 41.3249 27.3207 39.9709 25.3588 37.1257L24.415 35.5168C24.107 34.9056 23.9965 34.5104 23.749 33.752C23.6071 33.3171 23.3403 32.0947 23.3403 31.6093V10.3565H3.97797C3.97797 12.9459 3.61073 15.5377 3.61263 18.129C3.6156 22.464 2.9778 26.7755 3.00543 31.1251C3.01816 33.1248 2.64035 36.575 2.64252 38.9C2.64306 39.5236 2.56235 39.6417 2.52308 40.1167L2.02909 50.6755C2.00445 51.1293 2.02828 51.6711 2.03017 52.1338C2.04317 55.5088 1.5416 59.1284 1.54268 62.5775C1.54322 63.9598 1.36529 65.108 1.29867 66.3418C1.27294 66.8179 1.31735 67.3392 1.30327 67.8192C1.2854 68.4269 1.19196 68.3974 1.17354 69.0092C1.15919 69.4892 1.19602 69.9959 1.18167 70.4758C1.16379 71.0754 1.06982 71.083 1.05194 71.6823L0.939006 75.6989C0.931423 76.3255 0.840695 76.3679 0.811717 76.9078C0.786259 77.3864 0.848008 77.8718 0.794655 78.348L0.452056 86.1431C0.444202 86.7698 0.353746 86.8122 0.324767 87.3521L0.208311 91.4867C0.197207 92.4336 -0.0400391 92.9935 -0.0400391 94.032V98.8897C-0.0400391 99.3491 0.0395845 98.9124 0.161728 99.4169C0.630532 101.352 1.05303 102.982 2.22328 104.648C2.46919 104.997 2.65362 105.251 2.88085 105.571L4.44732 107.287C5.7324 108.304 6.75234 109.209 8.30988 109.872C9.63558 110.436 11.803 111.155 13.5986 111.155H69.4933C72.0716 111.155 74.232 110.219 76.1974 109.097C78.8908 107.561 81.6909 103.918 84.1614 101.738L85.6355 100.293C85.788 100.162 85.6972 100.256 85.8308 100.124C86.0564 99.9009 85.9868 99.9276 86.1631 99.7264L86.9363 98.9186C88.6506 97.1721 90.4817 95.5826 92.1747 93.8197L95.9492 90.0544C97.6164 88.3917 114.311 71.9754 115.213 70.7681C116.489 69.0608 117.318 67.2528 117.737 65.1485C117.854 64.5591 117.96 64.9481 117.96 64.5205V59.177C117.96 58.1463 117.709 57.7007 117.713 56.6295L116.882 39.2425C116.828 38.7657 116.882 38.2782 116.868 37.7991C116.85 37.1995 116.756 37.1924 116.738 36.5926C116.724 36.1129 116.76 35.6067 116.746 35.1273C116.728 34.5274 116.634 34.5201 116.616 33.9208C116.602 33.4414 116.656 32.9539 116.603 32.4774C116.383 30.5263 116.404 27.71 116.307 27.0647C116 25.0239 116.215 22.4491 115.994 20.4545L115.763 16.3123C115.746 14.5524 115.605 12.6801 115.537 10.9515C115.512 10.3054 115.458 10.3476 114.808 10.343L93.4833 10.357C90.2732 10.357 90.9259 10.8297 90.9259 7.19935C90.9259 6.41446 91.0017 5.1461 90.9134 4.41847C90.6605 2.33794 89.1221 0.961269 87.3081 0.24147C86.9257 0.0899472 87.1741 0.0337677 86.7857 0.0337677H84.7155C84.2383 0.0337677 84.6933 0.0648285 84.2781 0.204737C84.2486 0.21473 84.2161 0.224454 84.1857 0.234177C83.2844 0.523177 82.3677 1.06391 81.7423 1.80504C81.4723 2.1251 81.0246 2.82194 80.873 3.24545C80.6392 3.89908 80.4532 4.43791 80.4532 5.25576V31.0022C80.4532 33.4606 82.7745 36.2242 85.2024 36.2242C86.0274 36.2242 86.9848 36.1761 87.7442 35.8444C88.1168 35.6818 88.7202 35.3312 89.0512 35.0833C91.0504 33.5867 90.9256 31.3295 90.9256 28.9373C90.9256 27.6014 90.9256 26.2655 90.9256 24.9297C90.9256 24.2857 90.9015 23.6062 90.9139 22.9688C90.9332 21.991 91.2173 22.3349 91.7757 22.7424C92.5473 23.3058 93.2655 23.9362 93.8495 24.6855L94.6308 25.8493C94.9265 26.3495 95.1056 26.6588 95.3298 27.2168C96.5285 30.1976 96.1677 33.6121 94.588 36.3546C93.4719 38.292 91.5723 39.8118 89.5018 40.6334C89.4742 40.6445 89.4425 40.6575 89.4149 40.6683C87.475 41.4224 85.3089 41.4245 83.2709 41.065C82.7726 40.977 81.858 40.6224 81.3848 40.3955C80.3923 39.9196 79.6109 39.4256 78.8144 38.7085C78.6481 38.5588 78.6034 38.5075 78.4428 38.3506C77.5556 37.4847 76.9094 36.5772 76.3515 35.4568C75.7684 34.286 75.3383 32.8998 75.3383 31.4881V10.3567H39.2929C38.3586 10.3567 39.4771 5.60418 38.5828 3.29245C38.5723 3.2649 38.5582 3.23357 38.5473 3.20629C38.2589 2.47244 37.8519 1.86851 37.2525 1.34021C36.8197 0.958838 35.2511 0.0340378 34.7872 0.0340378H32.7169C32.1983 0.0340378 30.5733 1.01097 30.0051 1.58005C29.2552 2.33091 28.5765 3.38509 28.5765 4.52759Z" fill="#E7EDF1"/>
<path fill-rule="evenodd" clip-rule="evenodd" d="M103.103 116.256H13.7198C12.848 116.256 12.3335 116.108 11.6285 116.035C10.8455 115.953 10.2237 115.876 9.54717 115.682C8.91587 115.5 8.38397 115.351 7.78787 115.129C7.46829 115.01 7.17526 114.914 6.8982 114.802L6.04834 114.435C6.1973 116.221 8.92562 119.695 10.2901 120.77C12.0897 122.189 14.2745 123.33 16.5386 123.768C17.4727 123.949 17.0681 124.029 17.6171 124.029H104.443L107.245 123.301C108.155 123.003 108.861 122.611 109.66 122.188C113.635 120.08 116.104 116.038 116.798 111.697C116.873 111.229 116.925 110.546 116.969 110.165C117.059 109.4 116.88 109.151 116.86 108.488C116.79 106.17 116.627 103.984 116.624 101.679C116.623 100.675 116.402 99.3864 116.373 98.4078C116.337 97.2189 116.428 95.9905 116.288 94.9701C116.213 94.4234 116.296 93.8829 116.221 93.3363L116.014 88.1999C116.017 87.4796 115.893 87.3245 115.884 86.6271C115.877 86.024 115.887 85.4047 115.891 84.8002C115.896 84.0199 115.783 83.7512 115.764 83.1057C115.745 82.4896 115.808 81.9329 115.716 81.3311C115.63 80.7599 115.797 78.2464 115.545 77.9952C115.269 77.72 114.013 79.2047 113.728 79.4886L108.424 84.7665C107.84 85.3591 108.097 85.9311 108.096 87.7318L108.339 94.6395C108.389 95.5705 108.533 96.986 108.584 97.9173C108.612 98.447 108.585 99.0801 108.582 99.6197C108.577 100.4 108.69 100.669 108.709 101.314C108.777 103.611 108.824 105.822 108.948 108.12C109.017 109.41 109.202 109.982 108.878 111.328C108.572 112.6 107.89 113.751 106.918 114.596C106.59 114.881 106.254 115.15 105.865 115.367C105.209 115.734 103.886 116.256 103.103 116.256L103.103 116.256Z" fill="#E7EDF1"/>
<path fill-rule="evenodd" clip-rule="evenodd" d="M33.9345 76.544C33.9345 76.7976 33.1255 77.7124 32.9219 77.9631L26.2113 86.451C25.0009 87.9922 25.532 87.3451 25.532 88.0811C26.7104 88.3547 30.5269 88.2026 31.9862 88.2026C32.4341 88.2026 33.2173 86.8673 33.6209 86.3109L38.0749 80.0658C38.3807 80.2891 39.3603 81.6939 39.6755 82.1128L43.6069 87.3005C43.8295 87.5984 44.1548 88.2026 44.529 88.2026H50.6178C50.9802 88.2026 51.1692 87.8369 51.1624 87.6154C51.1508 87.2473 50.8827 87.0742 50.672 86.8132L48.3569 83.8997C47.9298 83.3574 47.6021 82.9425 47.1702 82.4118L42.4594 76.5443C43.2995 75.2932 46.6664 71.2469 47.939 69.6218L50.2064 66.7804C50.646 66.2083 50.7995 65.4926 49.7658 65.4926H44.5293C43.7829 65.4926 43.2732 66.4025 42.754 67.1226L39.8778 71.0549C39.5951 71.4692 38.6374 72.8092 38.3189 73.022C38.2217 72.6593 37.9103 72.3654 37.6912 72.0694L33.3779 66.1694C33.1272 65.7951 32.9181 65.4926 32.3518 65.4926H26.7502C25.7395 65.4926 25.8768 66.1705 26.2576 66.7091C26.6007 67.1936 26.9942 67.6601 27.3872 68.1363L33.3955 75.7462C33.584 75.9817 33.935 76.3077 33.935 76.5443L33.9345 76.544Z" fill="#E7EDF1"/>
</svg>
