<svg width="35" height="35" viewBox="0 0 35 35" fill="none" xmlns="http://www.w3.org/2000/svg">
<circle cx="17.5" cy="17.5" r="17.5" fill="white"/>
<path d="M15.1124 22.2375C15.1937 22.2375 15.2749 22.2062 15.3343 22.1437C15.3633 22.1148 15.3863 22.0805 15.402 22.0427C15.4176 22.0049 15.4257 21.9644 15.4257 21.9234C15.4257 21.8825 15.4176 21.842 15.402 21.8042C15.3863 21.7664 15.3633 21.732 15.3343 21.7031C15.0906 21.4625 14.7656 21.3281 14.4218 21.3281C14.0781 21.3281 13.7531 21.4625 13.5093 21.7031C13.48 21.7318 13.4567 21.7661 13.4408 21.804C13.4249 21.8418 13.4167 21.8824 13.4167 21.9234C13.4167 21.9645 13.4249 22.0051 13.4408 22.0429C13.4567 22.0808 13.48 22.115 13.5093 22.1437C13.6312 22.2656 13.8281 22.2687 13.9499 22.1437C14.2031 21.8937 14.6406 21.8937 14.8937 22.1437C14.9531 22.2031 15.0343 22.2344 15.1124 22.2344V22.2375ZM16.9406 22.1469C17.1937 21.8969 17.6312 21.8969 17.8843 22.1469C17.9134 22.1758 17.9478 22.1987 17.9858 22.2142C18.0237 22.2297 18.0643 22.2375 18.1053 22.2372C18.1463 22.2369 18.1868 22.2285 18.2245 22.2125C18.2622 22.1964 18.2963 22.1731 18.3249 22.1437C18.3539 22.1148 18.3769 22.0805 18.3926 22.0427C18.4083 22.0049 18.4163 21.9644 18.4163 21.9234C18.4163 21.8825 18.4083 21.842 18.3926 21.8042C18.3769 21.7664 18.3539 21.732 18.3249 21.7031C18.0812 21.4625 17.7562 21.3281 17.4124 21.3281C17.0687 21.3281 16.7437 21.4625 16.4999 21.7031C16.4706 21.7318 16.4474 21.7661 16.4315 21.804C16.4156 21.8418 16.4074 21.8824 16.4074 21.9234C16.4074 21.9645 16.4156 22.0051 16.4315 22.0429C16.4474 22.0808 16.4706 22.115 16.4999 22.1437C16.6218 22.2656 16.8187 22.2687 16.9406 22.1437V22.1469Z" fill="#01AB84"/>
<path d="M24.2374 10.2148H20.603C19.2187 10.2148 18.0905 11.343 18.0905 12.7273C18.0905 14.0055 19.053 15.0492 20.2905 15.2055V18.0023C19.8009 17.415 19.1486 16.9855 18.4155 16.768V16.2523C18.4155 15.7367 17.9968 15.318 17.4812 15.318H14.3499C13.8343 15.318 13.4155 15.7367 13.4155 16.2523V16.7805C12.6718 17.0055 12.0249 17.4398 11.5405 18.018V14.5711C11.5405 14.1242 11.1749 13.7586 10.728 13.7586C10.2812 13.7586 9.91553 14.1242 9.91553 14.5711V19.368C9.52803 19.4992 9.24365 19.8586 9.24365 20.2898V22.1992C9.24365 22.4603 9.34736 22.7107 9.53197 22.8953C9.71658 23.0799 9.96695 23.1836 10.228 23.1836H10.9062C11.4905 24.6992 12.953 25.7836 14.6749 25.7836H17.1499C18.3624 25.7836 19.4374 25.2367 20.1812 24.3898H21.0218C21.5124 24.3898 21.9093 23.993 21.9093 23.5023V23.1211C22.2968 22.9898 22.5812 22.6305 22.5812 22.1992V20.2898C22.5812 19.8586 22.2968 19.5023 21.9093 19.368V15.2367H22.3749V15.5117C22.3748 15.6164 22.4035 15.7191 22.4577 15.8086C22.512 15.8981 22.5898 15.971 22.6826 16.0193C22.7754 16.0676 22.8797 16.0896 22.9842 16.0827C23.0886 16.0759 23.1892 16.0405 23.2749 15.9805L24.3312 15.2367C25.6687 15.1836 26.7405 14.0773 26.7405 12.7305C26.7405 11.3836 25.6124 10.218 24.228 10.218L24.2374 10.2148ZM14.0437 16.2523C14.0437 16.0773 14.178 15.943 14.353 15.943H17.4843C17.6562 15.943 17.7937 16.0805 17.7937 16.2523V16.6398C17.6405 16.6211 17.4874 16.593 17.3312 16.593H14.5655C14.3874 16.593 14.2187 16.6211 14.0468 16.6461V16.2523H14.0437ZM14.5624 17.218H17.328C19.1187 17.218 20.578 18.6773 20.578 20.468V21.7367C20.578 21.8086 20.5624 21.8773 20.5562 21.9523C20.453 21.9117 20.3687 21.8273 20.3687 21.7117C20.3687 19.7836 18.7999 18.2148 16.8718 18.2148H14.9624C13.0343 18.2148 11.4655 19.7836 11.4655 21.7117C11.4655 21.8273 11.3812 21.9086 11.278 21.9523C11.2749 21.8805 11.2562 21.8117 11.2562 21.7367V20.468C11.2562 18.6773 12.7374 17.218 14.5593 17.218H14.5624ZM10.7343 14.3836C10.8374 14.3836 10.9218 14.4648 10.9218 14.5711V19.0336C10.8874 19.1211 10.8655 19.2148 10.8374 19.3055H10.5499V14.5711C10.5499 14.4648 10.6312 14.3836 10.7374 14.3836H10.7343ZM10.2343 22.5586C10.0374 22.5586 9.8749 22.3961 9.8749 22.1992V20.2898C9.8749 20.093 10.0343 19.9305 10.2343 19.9305H10.6874C10.6624 20.1086 10.6312 20.2836 10.6312 20.468V21.7367C10.6312 21.8211 10.6905 22.4398 10.7155 22.5586H10.2312H10.2343ZM17.1562 25.1586H14.6812C13.0843 25.1586 11.753 24.0555 11.3749 22.5773C11.7812 22.4898 12.0905 22.143 12.0905 21.7117C12.0905 20.1273 13.378 18.8398 14.9624 18.8398H16.8718C18.4562 18.8398 19.7437 20.1273 19.7437 21.7117C19.7437 22.143 20.053 22.4867 20.4593 22.5773C20.3468 23.0148 20.1562 23.4148 19.8937 23.7648H17.2312C17.1706 23.6251 17.0707 23.5061 16.9436 23.4223C16.8165 23.3385 16.6678 23.2936 16.5155 23.293H15.3187C14.8874 23.293 14.5343 23.6461 14.5343 24.0773C14.5343 24.5086 14.8843 24.8617 15.3187 24.8617H16.5155C16.8374 24.8617 17.1124 24.668 17.2312 24.3898H19.2874C18.6999 24.8617 17.9655 25.1586 17.153 25.1586H17.1562ZM16.6749 24.0773C16.6753 24.0984 16.6715 24.1193 16.6636 24.1388C16.6558 24.1584 16.6441 24.1761 16.6292 24.191C16.6143 24.2059 16.5965 24.2176 16.577 24.2255C16.5575 24.2333 16.5366 24.2371 16.5155 24.2367H15.3187C15.228 24.2367 15.1593 24.168 15.1593 24.0773C15.1593 23.9867 15.2312 23.918 15.3187 23.918H16.5155C16.603 23.918 16.6749 23.9898 16.6749 24.0773ZM21.028 23.7648H20.6374C20.7468 23.5773 20.8468 23.3867 20.9249 23.1836H21.2905V23.5023C21.2905 23.6461 21.1718 23.7648 21.028 23.7648ZM21.9624 22.1992C21.9624 22.3961 21.803 22.5586 21.603 22.5586H21.1187C21.1437 22.4336 21.203 21.8273 21.203 21.7367V20.468C21.203 20.2836 21.1749 20.1086 21.1499 19.9305H21.603C21.7999 19.9305 21.9624 20.093 21.9624 20.2898V22.1992ZM21.2905 19.3055H21.0062C20.9749 19.2117 20.9562 19.1117 20.9187 19.0211V15.2367H21.2905V19.3055ZM24.2405 14.6117C24.1749 14.6117 24.1124 14.6305 24.0593 14.668L23.0062 15.4086V14.9211C23.0062 14.7492 22.8655 14.6086 22.6937 14.6086H20.603C19.5624 14.6086 18.7155 13.7617 18.7155 12.7242C18.7155 11.6867 19.5624 10.8367 20.603 10.8367H24.2374C25.278 10.8367 26.1249 11.6836 26.1249 12.7242C26.1249 13.7648 25.278 14.6086 24.2374 14.6086L24.2405 14.6117Z" fill="#01AB84"/>
<path d="M20.2406 11.8477C19.7562 11.8477 19.3594 12.2445 19.3594 12.7289C19.3594 13.2133 19.7531 13.607 20.2406 13.607C20.7281 13.607 21.1219 13.2133 21.1219 12.7289C21.1219 12.2445 20.7281 11.8477 20.2406 11.8477ZM20.2406 12.982C20.1031 12.982 19.9844 12.8664 19.9844 12.7289C19.9844 12.5914 20.1 12.4727 20.2406 12.4727C20.3812 12.4727 20.4969 12.5914 20.4969 12.7289C20.4969 12.8664 20.3812 12.982 20.2406 12.982ZM22.4219 11.8477C21.9375 11.8477 21.5406 12.2445 21.5406 12.7289C21.5406 13.2133 21.9344 13.607 22.4219 13.607C22.9094 13.607 23.3031 13.2133 23.3031 12.7289C23.3031 12.2445 22.9094 11.8477 22.4219 11.8477ZM22.4219 12.982C22.2844 12.982 22.1656 12.8664 22.1656 12.7289C22.1656 12.5914 22.2813 12.4727 22.4219 12.4727C22.5625 12.4727 22.6781 12.5914 22.6781 12.7289C22.6781 12.8664 22.5625 12.982 22.4219 12.982ZM24.6 11.8477C24.1156 11.8477 23.7188 12.2445 23.7188 12.7289C23.7188 13.2133 24.1125 13.607 24.6 13.607C25.0875 13.607 25.4812 13.2133 25.4812 12.7289C25.4812 12.2445 25.0875 11.8477 24.6 11.8477ZM24.6 12.982C24.4625 12.982 24.3438 12.8664 24.3438 12.7289C24.3438 12.5914 24.4594 12.4727 24.6 12.4727C24.7406 12.4727 24.8562 12.5914 24.8562 12.7289C24.8562 12.8664 24.7406 12.982 24.6 12.982Z" fill="#01AB84"/>
</svg>
