<svg width="35" height="35" viewBox="0 0 35 35" fill="none" xmlns="http://www.w3.org/2000/svg" color="#01AB84">
<circle cx="17.5" cy="17.5" r="17.5" fill="currentColor"/>
<path d="M14.1793 21.3739C14.2727 21.3739 14.3662 21.338 14.4345 21.2661C14.4678 21.2328 14.4942 21.1934 14.5122 21.1499C14.5303 21.1064 14.5396 21.0598 14.5396 21.0127C14.5396 20.9657 14.5303 20.9191 14.5122 20.8756C14.4942 20.8321 14.4678 20.7926 14.4345 20.7594C14.1541 20.4827 13.7804 20.3281 13.3851 20.3281C12.9898 20.3281 12.616 20.4827 12.3357 20.7594C12.302 20.7924 12.2752 20.8318 12.2569 20.8753C12.2387 20.9188 12.2292 20.9655 12.2292 21.0127C12.2292 21.0599 12.2387 21.1066 12.2569 21.1501C12.2752 21.1936 12.302 21.2331 12.3357 21.2661C12.4759 21.4062 12.7023 21.4098 12.8424 21.2661C13.1335 20.9786 13.6366 20.9786 13.9277 21.2661C13.996 21.3344 14.0895 21.3703 14.1793 21.3703V21.3739ZM16.2816 21.2697C16.5727 20.9822 17.0759 20.9822 17.367 21.2697C17.4003 21.3029 17.44 21.3292 17.4836 21.3471C17.5272 21.3649 17.5739 21.3739 17.6211 21.3736C17.6682 21.3733 17.7148 21.3636 17.7581 21.3451C17.8015 21.3267 17.8408 21.2998 17.8737 21.2661C17.907 21.2328 17.9334 21.1934 17.9515 21.1499C17.9695 21.1064 17.9788 21.0598 17.9788 21.0127C17.9788 20.9657 17.9695 20.9191 17.9515 20.8756C17.9334 20.8321 17.907 20.7926 17.8737 20.7594C17.5934 20.4827 17.2196 20.3281 16.8243 20.3281C16.429 20.3281 16.0552 20.4827 15.7749 20.7594C15.7412 20.7924 15.7144 20.8318 15.6962 20.8753C15.6779 20.9188 15.6685 20.9655 15.6685 21.0127C15.6685 21.0599 15.6779 21.1066 15.6962 21.1501C15.7144 21.1936 15.7412 21.2331 15.7749 21.2661C15.9151 21.4062 16.1415 21.4098 16.2816 21.2661V21.2697Z" fill="white"/>
<path d="M24.6732 7.54688H20.4937C18.9017 7.54688 17.6043 8.84422 17.6043 10.4362C17.6043 11.9061 18.7112 13.1064 20.1343 13.2861V16.5025C19.5713 15.827 18.8211 15.3331 17.9781 15.083V14.49C17.9781 13.897 17.4965 13.4155 16.9035 13.4155H13.3026C12.7096 13.4155 12.2281 13.897 12.2281 14.49V15.0973C11.3728 15.3561 10.6289 15.8556 10.0718 16.5205V12.5566C10.0718 12.0427 9.65136 11.6222 9.13745 11.6222C8.62354 11.6222 8.20308 12.0427 8.20308 12.5566V18.073C7.75745 18.2239 7.43042 18.6372 7.43042 19.1331V21.3289C7.43042 21.6291 7.54969 21.9171 7.76198 22.1294C7.97428 22.3417 8.26222 22.4609 8.56245 22.4609H9.34229C10.0143 24.2039 11.6962 25.4509 13.6764 25.4509H16.5226C17.917 25.4509 19.1532 24.822 20.0085 23.8481H20.9753C21.5395 23.8481 21.9959 23.3917 21.9959 22.8275V22.3891C22.4415 22.2381 22.7685 21.8248 22.7685 21.3289V19.1331C22.7685 18.6372 22.4415 18.2275 21.9959 18.073V13.322H22.5314V13.6383C22.5313 13.7586 22.5642 13.8767 22.6266 13.9796C22.689 14.0826 22.7785 14.1664 22.8852 14.222C22.992 14.2776 23.1119 14.3028 23.232 14.295C23.3521 14.2871 23.4678 14.2464 23.5664 14.1773L24.781 13.322C26.3192 13.2609 27.5518 11.9888 27.5518 10.4398C27.5518 8.89094 26.2545 7.55047 24.6625 7.55047L24.6732 7.54688ZM12.9504 14.49C12.9504 14.2887 13.105 14.1342 13.3062 14.1342H16.9071C17.1048 14.1342 17.2629 14.2923 17.2629 14.49V14.9356C17.0868 14.9141 16.9107 14.8817 16.731 14.8817H13.5506C13.3457 14.8817 13.1517 14.9141 12.954 14.9428V14.49H12.9504ZM13.547 15.6005H16.7275C18.7867 15.6005 20.465 17.2788 20.465 19.338V20.797C20.465 20.8797 20.447 20.9588 20.4398 21.045C20.3212 20.9983 20.2242 20.9013 20.2242 20.7683C20.2242 18.5509 18.4201 16.7469 16.2028 16.7469H14.007C11.7896 16.7469 9.98558 18.5509 9.98558 20.7683C9.98558 20.9013 9.88854 20.9947 9.76995 21.045C9.76636 20.9623 9.74479 20.8833 9.74479 20.797V19.338C9.74479 17.2788 11.4482 15.6005 13.5434 15.6005H13.547ZM9.14464 12.3409C9.26323 12.3409 9.36026 12.4344 9.36026 12.5566V17.6884C9.32073 17.7891 9.29558 17.8969 9.26323 18.0011H8.93261V12.5566C8.93261 12.4344 9.02604 12.3409 9.14823 12.3409H9.14464ZM8.56964 21.7422C8.34323 21.7422 8.15636 21.5553 8.15636 21.3289V19.1331C8.15636 18.9067 8.33964 18.7198 8.56964 18.7198H9.09073C9.06198 18.9247 9.02604 19.1259 9.02604 19.338V20.797C9.02604 20.8941 9.09433 21.6056 9.12308 21.7422H8.56604H8.56964ZM16.5298 24.7322H13.6835C11.8471 24.7322 10.3162 23.4636 9.88136 21.7638C10.3485 21.6631 10.7043 21.2642 10.7043 20.7683C10.7043 18.9463 12.185 17.4656 14.007 17.4656H16.2028C18.0248 17.4656 19.5054 18.9463 19.5054 20.7683C19.5054 21.2642 19.8612 21.6595 20.3284 21.7638C20.199 22.2669 19.9798 22.7269 19.6779 23.1294H16.616C16.5465 22.9687 16.4316 22.8318 16.2854 22.7355C16.1392 22.6391 15.9682 22.5874 15.7931 22.5867H14.4167C13.9207 22.5867 13.5146 22.9928 13.5146 23.4888C13.5146 23.9847 13.9171 24.3908 14.4167 24.3908H15.7931C16.1632 24.3908 16.4795 24.168 16.616 23.8481H18.9807C18.3051 24.3908 17.4606 24.7322 16.5262 24.7322H16.5298ZM15.9764 23.4888C15.9768 23.513 15.9724 23.537 15.9634 23.5595C15.9544 23.5819 15.9409 23.6023 15.9238 23.6194C15.9066 23.6366 15.8862 23.65 15.8638 23.6591C15.8413 23.6681 15.8173 23.6725 15.7931 23.672H14.4167C14.3125 23.672 14.2334 23.593 14.2334 23.4888C14.2334 23.3845 14.316 23.3055 14.4167 23.3055H15.7931C15.8937 23.3055 15.9764 23.3881 15.9764 23.4888ZM20.9825 23.1294H20.5332C20.659 22.9138 20.774 22.6945 20.8639 22.4609H21.2843V22.8275C21.2843 22.9928 21.1478 23.1294 20.9825 23.1294ZM22.057 21.3289C22.057 21.5553 21.8737 21.7422 21.6437 21.7422H21.0867C21.1154 21.5984 21.1837 20.9012 21.1837 20.797V19.338C21.1837 19.1259 21.1514 18.9247 21.1226 18.7198H21.6437C21.8701 18.7198 22.057 18.9067 22.057 19.1331V21.3289ZM21.2843 18.0011H20.9573C20.9214 17.8933 20.8998 17.7783 20.8567 17.6741V13.322H21.2843V18.0011ZM24.6768 12.6033C24.6014 12.6033 24.5295 12.6248 24.4684 12.668L23.2573 13.5197V12.9591C23.2573 12.7614 23.0956 12.5997 22.8979 12.5997H20.4937C19.297 12.5997 18.3231 11.6258 18.3231 10.4327C18.3231 9.23953 19.297 8.26203 20.4937 8.26203H24.6732C25.87 8.26203 26.8439 9.23594 26.8439 10.4327C26.8439 11.6294 25.87 12.5997 24.6732 12.5997L24.6768 12.6033Z" fill="white"/>
<path d="M20.0767 9.42578C19.5196 9.42578 19.0632 9.88219 19.0632 10.4392C19.0632 10.9962 19.516 11.4491 20.0767 11.4491C20.6373 11.4491 21.0901 10.9962 21.0901 10.4392C21.0901 9.88219 20.6373 9.42578 20.0767 9.42578ZM20.0767 10.7303C19.9185 10.7303 19.782 10.5973 19.782 10.4392C19.782 10.2811 19.915 10.1445 20.0767 10.1445C20.2384 10.1445 20.3714 10.2811 20.3714 10.4392C20.3714 10.5973 20.2384 10.7303 20.0767 10.7303ZM22.5851 9.42578C22.0281 9.42578 21.5717 9.88219 21.5717 10.4392C21.5717 10.9962 22.0245 11.4491 22.5851 11.4491C23.1457 11.4491 23.5985 10.9962 23.5985 10.4392C23.5985 9.88219 23.1457 9.42578 22.5851 9.42578ZM22.5851 10.7303C22.427 10.7303 22.2904 10.5973 22.2904 10.4392C22.2904 10.2811 22.4234 10.1445 22.5851 10.1445C22.7468 10.1445 22.8798 10.2811 22.8798 10.4392C22.8798 10.5973 22.7468 10.7303 22.5851 10.7303ZM25.09 9.42578C24.5329 9.42578 24.0765 9.88219 24.0765 10.4392C24.0765 10.9962 24.5293 11.4491 25.09 11.4491C25.6506 11.4491 26.1034 10.9962 26.1034 10.4392C26.1034 9.88219 25.6506 9.42578 25.09 9.42578ZM25.09 10.7303C24.9318 10.7303 24.7953 10.5973 24.7953 10.4392C24.7953 10.2811 24.9282 10.1445 25.09 10.1445C25.2517 10.1445 25.3846 10.2811 25.3846 10.4392C25.3846 10.5973 25.2517 10.7303 25.09 10.7303Z" fill="white"/>
</svg>
