<svg width="21" height="21" viewBox="0 0 21 21" fill="none" xmlns="http://www.w3.org/2000/svg">
<path d="M9.76034 13.9268C9.71554 13.9763 9.6738 14.0284 9.63534 14.083C9.59592 14.1411 9.56439 14.2041 9.54159 14.2705C9.51156 14.3296 9.49049 14.3927 9.47909 14.458C9.47398 14.5274 9.47398 14.597 9.47909 14.6663C9.47557 14.803 9.50411 14.9385 9.56242 15.0622C9.60921 15.1914 9.68385 15.3088 9.78105 15.406C9.87826 15.5033 9.99566 15.5779 10.1249 15.6247C10.2496 15.6798 10.3844 15.7083 10.5208 15.7083C10.6571 15.7083 10.7919 15.6798 10.9166 15.6247C11.0459 15.5779 11.1633 15.5033 11.2605 15.406C11.3577 15.3088 11.4323 15.1914 11.4791 15.0622C11.5253 14.9355 11.5466 14.8011 11.5416 14.6663C11.5424 14.5293 11.5161 14.3934 11.4643 14.2664C11.4124 14.1395 11.3361 14.0241 11.2395 13.9268C11.1427 13.8291 11.0275 13.7516 10.9005 13.6987C10.7736 13.6459 10.6374 13.6186 10.4999 13.6186C10.3624 13.6186 10.2263 13.6459 10.0993 13.6987C9.97239 13.7516 9.85718 13.8291 9.76034 13.9268ZM10.4999 0.0830078C8.4397 0.0830078 6.42575 0.693935 4.71273 1.83853C2.99972 2.98313 1.66459 4.60999 0.876178 6.51339C0.0877653 8.41679 -0.118519 10.5112 0.28341 12.5319C0.685339 14.5525 1.67743 16.4086 3.13423 17.8654C4.59102 19.3222 6.4471 20.3143 8.46773 20.7162C10.4884 21.1181 12.5828 20.9118 14.4862 20.1234C16.3896 19.335 18.0165 17.9999 19.1611 16.2869C20.3057 14.5739 20.9166 12.5599 20.9166 10.4997C20.9166 9.13174 20.6472 7.7772 20.1237 6.51339C19.6002 5.24958 18.8329 4.10126 17.8656 3.13398C16.8983 2.1667 15.75 1.39942 14.4862 0.875929C13.2224 0.352443 11.8679 0.0830078 10.4999 0.0830078ZM10.4999 18.833C8.85175 18.833 7.24058 18.3443 5.87017 17.4286C4.49976 16.5129 3.43166 15.2114 2.80093 13.6887C2.1702 12.166 2.00517 10.4904 2.32671 8.87392C2.64826 7.25741 3.44193 5.77256 4.60737 4.60712C5.7728 3.44168 7.25766 2.64801 8.87417 2.32646C10.4907 2.00492 12.1662 2.16995 13.689 2.80068C15.2117 3.43141 16.5132 4.49951 17.4288 5.86992C18.3445 7.24033 18.8333 8.8515 18.8333 10.4997C18.8333 12.7098 17.9553 14.8294 16.3925 16.3922C14.8297 17.955 12.7101 18.833 10.4999 18.833ZM10.4999 5.29134C9.95103 5.29099 9.41173 5.43522 8.93629 5.70951C8.46084 5.9838 8.06603 6.37849 7.79159 6.85384C7.71622 6.9724 7.66561 7.10498 7.64281 7.24361C7.62001 7.38223 7.62549 7.52404 7.65891 7.66049C7.69233 7.79695 7.75302 7.92523 7.8373 8.03763C7.92159 8.15002 8.02774 8.24421 8.14937 8.31451C8.271 8.38482 8.4056 8.42979 8.54506 8.44674C8.68452 8.46368 8.82597 8.45223 8.9609 8.41309C9.09582 8.37394 9.22144 8.30791 9.33018 8.21896C9.43892 8.13002 9.52855 8.01999 9.59367 7.89551C9.68545 7.73654 9.8176 7.60466 9.97674 7.51319C10.1359 7.42173 10.3164 7.37395 10.4999 7.37467C10.7762 7.37467 11.0411 7.48442 11.2365 7.67977C11.4318 7.87512 11.5416 8.14007 11.5416 8.41634C11.5416 8.69261 11.4318 8.95756 11.2365 9.15291C11.0411 9.34826 10.7762 9.45801 10.4999 9.45801C10.2237 9.45801 9.9587 9.56775 9.76335 9.7631C9.568 9.95846 9.45826 10.2234 9.45826 10.4997V11.5413C9.45826 11.8176 9.568 12.0826 9.76335 12.2779C9.9587 12.4733 10.2237 12.583 10.4999 12.583C10.7762 12.583 11.0411 12.4733 11.2365 12.2779C11.4318 12.0826 11.5416 11.8176 11.5416 11.5413V11.3538C12.2305 11.1039 12.8097 10.6197 13.1778 9.986C13.5459 9.35229 13.6797 8.60935 13.5555 7.88706C13.4314 7.16477 13.0574 6.50907 12.4989 6.03459C11.9403 5.5601 11.2328 5.29703 10.4999 5.29134Z" fill="white"/>
</svg>
