<svg width="30" height="30" viewBox="0 0 30 30" fill="none" xmlns="http://www.w3.org/2000/svg">
<path d="M23.75 2.5H6.25C5.25544 2.5 4.30161 2.89509 3.59835 3.59835C2.89509 4.30161 2.5 5.25544 2.5 6.25V23.75C2.5 24.7446 2.89509 25.6984 3.59835 26.4017C4.30161 27.1049 5.25544 27.5 6.25 27.5H23.75C23.9556 27.4971 24.1606 27.4762 24.3625 27.4375L24.7375 27.35H24.825H24.8875L25.35 27.175L25.5125 27.0875C25.6375 27.0125 25.775 26.95 25.9 26.8625C26.0669 26.7397 26.2256 26.6061 26.375 26.4625L26.4625 26.35C26.5852 26.2256 26.6981 26.0919 26.8 25.95L26.9125 25.7875C26.9998 25.6483 27.0751 25.502 27.1375 25.35C27.1718 25.29 27.2011 25.2273 27.225 25.1625C27.2875 25.0125 27.325 24.85 27.375 24.6875V24.5C27.4459 24.2558 27.4878 24.004 27.5 23.75V6.25C27.5 5.25544 27.1049 4.30161 26.4017 3.59835C25.6984 2.89509 24.7446 2.5 23.75 2.5ZM6.25 25C5.91848 25 5.60054 24.8683 5.36612 24.6339C5.1317 24.3995 5 24.0815 5 23.75V18.3625L9.1125 14.2375C9.2287 14.1203 9.36695 14.0273 9.51928 13.9639C9.6716 13.9004 9.83499 13.8678 10 13.8678C10.165 13.8678 10.3284 13.9004 10.4807 13.9639C10.633 14.0273 10.7713 14.1203 10.8875 14.2375L21.6375 25H6.25ZM25 23.75C24.9988 23.9041 24.9692 24.0567 24.9125 24.2C24.8839 24.2609 24.8505 24.3195 24.8125 24.375C24.7791 24.4279 24.7414 24.4781 24.7 24.525L18.0125 17.8375L19.1125 16.7375C19.2287 16.6203 19.367 16.5273 19.5193 16.4639C19.6716 16.4004 19.835 16.3678 20 16.3678C20.165 16.3678 20.3284 16.4004 20.4807 16.4639C20.633 16.5273 20.7713 16.6203 20.8875 16.7375L25 20.8625V23.75ZM25 17.325L22.65 15C21.9347 14.3212 20.9861 13.9428 20 13.9428C19.0139 13.9428 18.0653 14.3212 17.35 15L16.25 16.1L12.65 12.5C11.9347 11.8212 10.9861 11.4428 10 11.4428C9.01388 11.4428 8.06535 11.8212 7.35 12.5L5 14.825V6.25C5 5.91848 5.1317 5.60054 5.36612 5.36612C5.60054 5.1317 5.91848 5 6.25 5H23.75C24.0815 5 24.3995 5.1317 24.6339 5.36612C24.8683 5.60054 25 5.91848 25 6.25V17.325ZM16.875 7.5C16.5042 7.5 16.1416 7.60997 15.8333 7.81599C15.525 8.02202 15.2846 8.31486 15.1427 8.65747C15.0008 9.00008 14.9637 9.37708 15.036 9.74079C15.1084 10.1045 15.287 10.4386 15.5492 10.7008C15.8114 10.963 16.1455 11.1416 16.5092 11.214C16.8729 11.2863 17.2499 11.2492 17.5925 11.1073C17.9351 10.9654 18.228 10.725 18.434 10.4167C18.64 10.1084 18.75 9.74584 18.75 9.375C18.75 8.87772 18.5525 8.40081 18.2008 8.04917C17.8492 7.69754 17.3723 7.5 16.875 7.5Z" fill="white"/>
</svg>
