<svg width="30" height="30" viewBox="0 0 30 30" fill="none" xmlns="http://www.w3.org/2000/svg">
<g clip-path="url(#clip0_2473_798)">
<path d="M7.60735 29.8938C6.44698 29.8809 5.29751 29.6681 4.20941 29.2647C3.41484 28.971 2.69594 28.5034 2.10529 27.8962C1.4964 27.3067 1.02814 26.5876 0.735294 25.7924C0.33228 24.7043 0.11976 23.5549 0.107059 22.3947C0.0179412 20.4659 0 19.8874 0 15C0 10.1126 0.0197059 9.53618 0.106176 7.60588C0.120418 6.44611 0.333201 5.29734 0.735294 4.20941C1.02957 3.41471 1.49716 2.69553 2.10412 2.10412C2.69404 1.49577 3.41327 1.02795 4.20853 0.735294C5.29663 0.331946 6.44609 0.119126 7.60647 0.106176C9.53588 0.0179412 10.1153 0 15 0C19.8847 0 20.4638 0.0197059 22.3941 0.106176C23.5542 0.120318 24.7033 0.333102 25.7915 0.735294C26.5864 1.02833 27.3054 1.496 27.8956 2.10382C28.5036 2.69419 28.9715 3.41341 29.2647 4.20853C29.6682 5.29661 29.8811 6.44608 29.8941 7.60647C29.9824 9.53677 30.0003 10.1147 30.0003 15.0006C30.0003 19.8865 29.9824 20.4644 29.8941 22.3947C29.8801 23.5549 29.6672 24.7041 29.2647 25.7924C28.9602 26.5815 28.4939 27.2982 27.8957 27.8962C27.2975 28.4943 26.5807 28.9604 25.7915 29.2647C24.7034 29.6681 23.5539 29.8811 22.3935 29.8941C20.465 29.9824 19.8853 30.0003 14.9994 30.0003C10.1135 30.0003 9.53559 29.9832 7.60706 29.8941" fill="url(#paint0_radial_2473_798)"/>
<path d="M7.60735 29.8938C6.44698 29.8809 5.29751 29.6681 4.20941 29.2647C3.41484 28.971 2.69594 28.5034 2.10529 27.8962C1.4964 27.3067 1.02814 26.5876 0.735294 25.7924C0.33228 24.7043 0.11976 23.5549 0.107059 22.3947C0.0179412 20.4659 0 19.8874 0 15C0 10.1126 0.0197059 9.53618 0.106176 7.60588C0.120418 6.44611 0.333201 5.29734 0.735294 4.20941C1.02957 3.41471 1.49716 2.69553 2.10412 2.10412C2.69404 1.49577 3.41327 1.02795 4.20853 0.735294C5.29663 0.331946 6.44609 0.119126 7.60647 0.106176C9.53588 0.0179412 10.1153 0 15 0C19.8847 0 20.4638 0.0197059 22.3941 0.106176C23.5542 0.120318 24.7033 0.333102 25.7915 0.735294C26.5864 1.02833 27.3054 1.496 27.8956 2.10382C28.5036 2.69419 28.9715 3.41341 29.2647 4.20853C29.6682 5.29661 29.8811 6.44608 29.8941 7.60647C29.9824 9.53677 30.0003 10.1147 30.0003 15.0006C30.0003 19.8865 29.9824 20.4644 29.8941 22.3947C29.8801 23.5549 29.6672 24.7041 29.2647 25.7924C28.9602 26.5815 28.4939 27.2982 27.8957 27.8962C27.2975 28.4943 26.5807 28.9604 25.7915 29.2647C24.7034 29.6681 23.5539 29.8811 22.3935 29.8941C20.465 29.9824 19.8853 30.0003 14.9994 30.0003C10.1135 30.0003 9.53559 29.9832 7.60706 29.8941" fill="url(#paint1_radial_2473_798)"/>
<path d="M11.3168 15.0624C11.3169 14.3276 11.5348 13.6094 11.9431 12.9985C12.3514 12.3876 12.9316 11.9114 13.6105 11.6303C14.2894 11.3492 15.0363 11.2757 15.757 11.4191C16.4776 11.5626 17.1395 11.9165 17.659 12.4361C18.1785 12.9557 18.5323 13.6177 18.6755 14.3384C18.8188 15.0591 18.7451 15.806 18.4638 16.4848C18.1826 17.1636 17.7063 17.7438 17.0953 18.1519C16.4843 18.56 15.766 18.7778 15.0312 18.7777C14.046 18.7775 13.1012 18.386 12.4046 17.6893C11.708 16.9925 11.3167 16.0476 11.3168 15.0624ZM9.30829 15.0624C9.30829 16.1943 9.64393 17.3007 10.2728 18.2419C10.9016 19.183 11.7954 19.9165 12.8412 20.3497C13.8869 20.7828 15.0376 20.8962 16.1477 20.6754C17.2579 20.4545 18.2776 19.9095 19.078 19.1091C19.8783 18.3087 20.4234 17.289 20.6442 16.1789C20.865 15.0687 20.7517 13.918 20.3185 12.8723C19.8854 11.8266 19.1519 10.9328 18.2107 10.3039C17.2696 9.67508 16.1631 9.33943 15.0312 9.33943C14.2797 9.3394 13.5355 9.4874 12.8411 9.77499C12.1468 10.0626 11.5158 10.4841 10.9844 11.0156C10.453 11.547 10.0314 12.1779 9.74385 12.8723C9.45626 13.5666 9.30825 14.3108 9.30829 15.0624ZM19.6433 9.11267C19.6432 9.37717 19.7215 9.63577 19.8684 9.85577C20.0152 10.0758 20.224 10.2473 20.4683 10.3486C20.7126 10.4499 20.9815 10.4765 21.241 10.425C21.5004 10.3735 21.7388 10.2463 21.9259 10.0593C22.113 9.87238 22.2405 9.63414 22.2922 9.37475C22.3439 9.11535 22.3175 8.84644 22.2164 8.60202C22.1153 8.35761 21.944 8.14867 21.7241 8.00162C21.5043 7.85458 21.2457 7.77603 20.9812 7.77591C20.6267 7.77607 20.2867 7.91694 20.036 8.16758C19.7852 8.41822 19.6442 8.75813 19.6439 9.11267M10.5292 24.1344C9.82244 24.1267 9.12232 23.9973 8.45946 23.7521C7.97875 23.5668 7.54216 23.2829 7.17779 22.9187C6.81343 22.5545 6.52936 22.118 6.34387 21.6374C6.09851 20.9746 5.96917 20.2744 5.96152 19.5677C5.90741 18.393 5.89682 18.04 5.89682 15.0639C5.89682 12.0877 5.90858 11.7356 5.96152 10.5597C5.9701 9.85308 6.09941 9.15309 6.34387 8.49002C6.52915 8.00916 6.81313 7.57246 7.17752 7.20808C7.5419 6.84369 7.9786 6.55971 8.45946 6.37444C9.12229 6.12908 9.82243 5.99974 10.5292 5.99209C11.7039 5.93797 12.0568 5.92738 15.0318 5.92738C18.0068 5.92738 18.3601 5.93885 19.5359 5.99238C20.2426 6.00096 20.9426 6.13027 21.6056 6.37473C22.0865 6.56002 22.5232 6.84401 22.8876 7.20839C23.252 7.57278 23.5359 8.00947 23.7212 8.49032C23.9666 9.15315 24.0959 9.85329 24.1036 10.56C24.1577 11.7365 24.1683 12.0877 24.1683 15.0641C24.1683 18.0406 24.1574 18.3924 24.1036 19.5683C24.0953 20.2749 23.966 20.975 23.7212 21.638C23.5357 22.1186 23.2517 22.5551 22.8873 22.9193C22.5229 23.2835 22.0864 23.5674 21.6056 23.7527C20.9428 23.998 20.2427 24.1274 19.5359 24.135C18.3612 24.1891 18.0083 24.1997 15.0318 24.1997C12.0553 24.1997 11.7036 24.1889 10.5292 24.135M10.4368 3.98532C9.51206 4.0035 8.5971 4.17853 7.73093 4.50296C6.99049 4.78925 6.31805 5.2271 5.75671 5.78844C5.19536 6.34979 4.75751 7.02223 4.47123 7.76267C4.14684 8.62885 3.97181 9.54381 3.95358 10.4686C3.89858 11.6568 3.88623 12.0368 3.88623 15.0636C3.88623 18.0903 3.89888 18.47 3.95358 19.6586C3.97181 20.5833 4.14683 21.4983 4.47123 22.3644C4.75753 23.1049 5.19538 23.7773 5.75672 24.3386C6.31806 24.9 6.9905 25.3378 7.73093 25.6241C8.59714 25.9484 9.51208 26.1235 10.4368 26.1418C11.6256 26.1959 12.0051 26.2091 15.0318 26.2091C18.0586 26.2091 18.4383 26.1965 19.6268 26.1418C20.5516 26.1235 21.4665 25.9485 22.3327 25.6241C23.0731 25.3378 23.7456 24.9 24.3069 24.3386C24.8682 23.7773 25.3061 23.1049 25.5924 22.3644C25.9172 21.4984 26.0923 20.5834 26.1101 19.6586C26.1642 18.4694 26.1765 18.0903 26.1765 15.0636C26.1765 12.0368 26.1639 11.6571 26.1101 10.4686C26.0919 9.5438 25.9168 8.62884 25.5924 7.76267C25.3061 7.02237 24.8684 6.35003 24.3072 5.78871C23.746 5.22738 23.0738 4.78945 22.3336 4.50296C21.4675 4.17833 20.5525 4.00329 19.6277 3.98532C18.4392 3.93091 18.0595 3.91797 15.0333 3.91797C12.0071 3.91797 11.6265 3.93062 10.4374 3.98532" fill="white"/>
</g>
<defs>
<radialGradient id="paint0_radial_2473_798" cx="0" cy="0" r="1" gradientUnits="userSpaceOnUse" gradientTransform="translate(1.94147 29.3429) scale(38.0888)">
<stop offset="0.09" stop-color="#FA8F21"/>
<stop offset="0.78" stop-color="#D82D7E"/>
</radialGradient>
<radialGradient id="paint1_radial_2473_798" cx="0" cy="0" r="1" gradientUnits="userSpaceOnUse" gradientTransform="translate(20.78 28.3794) scale(33.5185)">
<stop offset="0.64" stop-color="#8C3AAA" stop-opacity="0"/>
<stop offset="1" stop-color="#8C3AAA"/>
</radialGradient>
<clipPath id="clip0_2473_798">
<rect width="30" height="30" fill="white"/>
</clipPath>
</defs>
</svg>
