<svg width="12" height="12" viewBox="0 0 12 12" fill="none" xmlns="http://www.w3.org/2000/svg">
<path d="M10 0H1.25C0.5625 0 0 0.5625 0 1.25V10C0 10.6875 0.5625 11.25 1.25 11.25H10C10.6875 11.25 11.25 10.6875 11.25 10V1.25C11.25 0.5625 10.6875 0 10 0ZM4.81875 8.30625C4.575 8.55 4.18125 8.55 3.9375 8.30625L1.69375 6.0625C1.45 5.81875 1.45 5.425 1.69375 5.18125C1.9375 4.9375 2.33125 4.9375 2.575 5.18125L4.375 6.98125L8.675 2.68125C8.91875 2.4375 9.3125 2.4375 9.55625 2.68125C9.8 2.925 9.8 3.31875 9.55625 3.5625L4.81875 8.30625Z" fill="#01AB84"/>
</svg>
