<svg xmlns="http://www.w3.org/2000/svg" width="50" height="50" viewBox="0 0 50 50" fill="none">
  <path fill-rule="evenodd" clip-rule="evenodd" d="M15.4737 24.6106C15.4737 27.6512 16.5065 29.875 18.2218 31.5943C21.8749 35.256 27.9407 35.2576 31.6045 31.5937C34.3064 28.8917 35.2112 24.425 33.479 20.9112C29.8912 13.6333 19.9465 13.612 16.3481 20.9112C15.8956 21.8291 15.4737 23.2387 15.4737 24.6107L15.4737 24.6106ZM12.4568 24.9026C12.4568 18.1003 18.1154 12.4459 24.9135 12.4459C31.7158 12.4459 37.3702 18.1045 37.3702 24.9026C37.3702 31.7041 31.7179 37.3594 24.9135 37.3594C18.1146 37.3594 12.4568 31.7045 12.4568 24.9026Z" fill="white"/>
  <path fill-rule="evenodd" clip-rule="evenodd" d="M36.6889 38.2323C36.6889 37.4068 37.3591 36.6752 38.1487 36.6752C39.0909 36.6752 39.935 37.829 40.8493 38.7432C42.027 39.9209 43.7985 41.1287 42.6028 42.4918C41.7565 43.4569 40.7359 42.8192 40.0706 42.1494L37.6378 39.7164C37.2545 39.3332 36.6889 38.9338 36.6889 38.2323Z" fill="white"/>
  <path fill-rule="evenodd" clip-rule="evenodd" d="M36.6889 11.6653C36.6889 10.7231 37.8427 9.879 38.7569 8.96472L40.5635 7.17054C41.8581 6.18954 43.0145 7.47888 43.0145 8.25908C43.0145 9.15309 41.7139 10.1923 40.9465 10.9597C40.1772 11.7291 39.053 13.125 38.2459 13.125C37.4203 13.125 36.6888 12.4548 36.6888 11.6652L36.6889 11.6653Z" fill="white"/>
  <path fill-rule="evenodd" clip-rule="evenodd" d="M6.81235 8.35644C6.81235 7.65753 7.84436 5.72619 9.75627 7.65081C10.184 8.08146 10.5435 8.4381 10.9726 8.86735C11.742 9.63662 13.1379 10.7609 13.1379 11.5679C13.1379 12.3935 12.4677 13.125 11.6782 13.125C10.736 13.125 9.89185 11.9712 8.97756 11.0571C8.35126 10.4307 6.81226 9.14972 6.81226 8.35644H6.81235Z" fill="white"/>
  <path fill-rule="evenodd" clip-rule="evenodd" d="M6.81232 41.5449C6.81232 40.651 8.11296 39.6117 8.88036 38.8444C9.64963 38.075 10.7739 36.6791 11.581 36.6791C12.4065 36.6791 13.1381 37.3493 13.1381 38.1388C13.1381 38.9387 12.7048 39.2054 12.2866 39.6229L9.26354 42.6335C8.63387 43.1107 7.90525 43.1049 7.32155 42.593C7.13542 42.4297 6.8125 41.8316 6.8125 41.5449H6.81232Z" fill="white"/>
  <path fill-rule="evenodd" clip-rule="evenodd" d="M23.4537 48.5523V43.4917C23.4537 41.8116 26.3732 41.8116 26.3732 43.4917V48.5523C26.3732 50.2326 23.4537 50.2326 23.4537 48.5523Z" fill="white"/>
  <path fill-rule="evenodd" clip-rule="evenodd" d="M23.4537 6.31801V1.25746C23.4537 -0.422728 26.3732 -0.422728 26.3732 1.25746V6.31792C26.3732 7.99819 23.4537 7.99819 23.4537 6.31792V6.31801Z" fill="white"/>
  <path fill-rule="evenodd" clip-rule="evenodd" d="M0 25.0942C0 24.1494 0.473913 23.4398 1.26514 23.4398H6.32569C8.00587 23.4398 8.00587 26.3594 6.32569 26.3594H1.26514C0.668355 26.3594 0 25.691 0 25.0942Z" fill="white"/>
  <path fill-rule="evenodd" clip-rule="evenodd" d="M42.236 25.0942C42.236 24.1494 42.7099 23.4398 43.5012 23.4398H48.5617C50.2419 23.4398 50.2419 26.3594 48.5617 26.3594H43.5012C42.9044 26.3594 42.236 25.691 42.236 25.0942Z" fill="white"/>
</svg>
