<svg width="18" height="9" viewBox="0 0 18 9" fill="none" xmlns="http://www.w3.org/2000/svg">
<path d="M17.7501 1.71291C17.7507 1.89965 17.7095 2.08416 17.6295 2.25289C17.5494 2.42161 17.4326 2.57026 17.2876 2.68791L9.7876 8.72541C9.56393 8.90926 9.28338 9.00977 8.99385 9.00977C8.70432 9.00977 8.42377 8.90926 8.2001 8.72541L0.700101 2.47541C0.44483 2.26323 0.284299 1.95834 0.253825 1.62781C0.22335 1.29728 0.325427 0.968177 0.5376 0.712906C0.749774 0.457635 1.05466 0.297105 1.3852 0.26663C1.71573 0.236156 2.04483 0.338232 2.3001 0.550406L9.0001 6.13791L15.7001 0.737906C15.8836 0.585052 16.107 0.487956 16.3439 0.458107C16.5809 0.428257 16.8214 0.466904 17.0371 0.569473C17.2527 0.672043 17.4345 0.834243 17.5609 1.03688C17.6872 1.23952 17.7529 1.47411 17.7501 1.71291Z" fill="black" fill-opacity="0.25"/>
</svg>
