<svg width="42" height="42" viewBox="0 0 42 42" fill="none" xmlns="http://www.w3.org/2000/svg">
<path d="M5.444 30.899C3.88401 32.459 3.88401 34.996 5.444 36.556C7.004 38.116 9.541 38.116 11.101 36.556L16.051 31.606C17.611 30.046 17.611 27.509 16.051 25.949C14.491 24.389 11.954 24.389 10.394 25.949L5.444 30.899ZM18.879 34.435L13.929 39.385C10.81 42.504 5.734 42.504 2.61501 39.385C-0.503993 36.266 -0.503993 31.19 2.61501 28.071L7.565 23.121C10.684 20.002 15.76 20.002 18.879 23.121C21.998 26.24 21.998 31.316 18.879 34.435Z" fill="url(#paint0_linear_57_3)"/>
<path d="M5.31501 30.7712C3.70201 32.3842 3.70201 35.0082 5.31501 36.6212C6.92801 38.2342 9.55201 38.2342 11.165 36.6212L16.115 31.6712C17.728 30.0582 17.728 27.4342 16.115 25.8212C14.502 24.2082 11.878 24.2082 10.265 25.8212L5.31501 30.7712ZM18.75 34.3062L13.8 39.2562C10.734 42.3222 5.74501 42.3222 2.67902 39.2562C-0.386983 36.1902 -0.386983 31.2012 2.67902 28.1352L7.62901 23.1852C10.695 20.1192 15.684 20.1192 18.75 23.1852C21.816 26.2512 21.816 31.2402 18.75 34.3062Z" fill="url(#paint1_linear_57_3)"/>
<path d="M5.187 30.642C3.521 32.308 3.521 35.018 5.187 36.685C6.853 38.352 9.564 38.351 11.23 36.685L16.18 31.735C17.846 30.069 17.846 27.359 16.18 25.692C14.514 24.026 11.803 24.026 10.137 25.692L5.187 30.642ZM18.622 34.178L13.672 39.128C10.659 42.141 5.757 42.141 2.744 39.128C-0.268997 36.115 -0.268997 31.213 2.744 28.2L7.694 23.25C10.707 20.237 15.609 20.237 18.622 23.25C21.635 26.263 21.634 31.165 18.622 34.178Z" fill="url(#paint2_linear_57_3)"/>
<path d="M5.058 30.5142C3.339 32.2332 3.339 35.0302 5.058 36.7492C6.777 38.4682 9.574 38.4682 11.293 36.7492L16.243 31.7992C17.962 30.0802 17.962 27.2832 16.243 25.5642C14.524 23.8452 11.727 23.8452 10.008 25.5642L5.058 30.5142ZM18.493 34.0492L13.543 38.9992C10.583 41.9592 5.767 41.9592 2.808 38.9992C-0.150996 36.0392 -0.151996 31.2232 2.808 28.2642L7.758 23.3142C10.718 20.3542 15.534 20.3542 18.493 23.3142C21.452 26.2742 21.453 31.0902 18.493 34.0492Z" fill="url(#paint3_linear_57_3)"/>
<path d="M4.929 30.3852C3.157 32.1572 3.157 35.0412 4.929 36.8132C6.701 38.5852 9.585 38.5852 11.357 36.8132L16.307 31.8632C18.079 30.0912 18.079 27.2072 16.307 25.4352C14.535 23.6632 11.651 23.6632 9.879 25.4352L4.929 30.3852ZM18.364 33.9212L13.414 38.8712C10.508 41.7772 5.778 41.7772 2.872 38.8712C-0.0339947 35.9652 -0.0339947 31.2352 2.872 28.3292L7.822 23.3792C10.728 20.4732 15.458 20.4732 18.364 23.3792C21.27 26.2852 21.271 31.0142 18.364 33.9212Z" fill="url(#paint4_linear_57_3)"/>
<path d="M4.80099 30.257C2.97599 32.082 2.97599 35.053 4.80099 36.878C6.62599 38.703 9.59699 38.703 11.422 36.878L16.372 31.928C18.197 30.103 18.197 27.132 16.372 25.307C14.547 23.482 11.576 23.482 9.75099 25.307L4.80099 30.257ZM18.236 33.792L13.286 38.742C10.433 41.595 5.78999 41.595 2.93699 38.742C0.0839918 35.889 0.0839918 31.246 2.93699 28.393L7.88699 23.443C10.74 20.59 15.383 20.59 18.236 23.443C21.089 26.296 21.089 30.939 18.236 33.792Z" fill="url(#paint5_linear_57_3)"/>
<path d="M4.67202 30.1282C2.79302 32.0072 2.79302 35.0632 4.67202 36.9422C6.55102 38.8212 9.60702 38.8212 11.486 36.9422L16.436 31.9922C18.315 30.1132 18.315 27.0572 16.436 25.1782C14.557 23.2992 11.501 23.2992 9.62202 25.1782L4.67202 30.1282ZM18.107 33.6642L13.157 38.6142C10.357 41.4142 5.80002 41.4142 3.00002 38.6142C0.200025 35.8142 0.200025 31.2572 3.00002 28.4572L7.95002 23.5072C10.75 20.7072 15.307 20.7072 18.107 23.5072C20.907 26.3072 20.907 30.8642 18.107 33.6642Z" fill="url(#paint6_linear_57_3)"/>
<path d="M4.54401 30C2.61201 31.932 2.61201 35.075 4.54401 37.007C6.47601 38.939 9.619 38.939 11.551 37.007L16.501 32.057C18.433 30.125 18.433 26.982 16.501 25.05C14.569 23.118 11.426 23.118 9.49401 25.05L4.54401 30ZM17.979 33.535L13.029 38.485C10.282 41.232 5.81201 41.232 3.06501 38.485C0.318011 35.738 0.318011 31.268 3.06501 28.521L8.01501 23.571C10.762 20.824 15.232 20.824 17.979 23.571C20.726 26.318 20.726 30.788 17.979 33.535Z" fill="url(#paint7_linear_57_3)"/>
<path d="M4.41502 29.8712C2.43002 31.8562 2.43002 35.0862 4.41502 37.0712C6.40002 39.0562 9.63001 39.0562 11.615 37.0712L16.565 32.1212C18.55 30.1362 18.55 26.9062 16.565 24.9212C14.58 22.9362 11.35 22.9362 9.36501 24.9212L4.41502 29.8712ZM17.85 33.4072L12.9 38.3572C10.206 41.0512 5.82302 41.0512 3.12902 38.3572C0.435021 35.6632 0.435021 31.2802 3.12902 28.5862L8.07902 23.6362C10.773 20.9422 15.156 20.9422 17.85 23.6362C20.544 26.3302 20.544 30.7132 17.85 33.4072Z" fill="url(#paint8_linear_57_3)"/>
<path d="M4.28701 29.742C2.24901 31.78 2.24901 35.097 4.28701 37.134C6.325 39.171 9.641 39.172 11.679 37.134L16.629 32.184C18.667 30.146 18.667 26.829 16.629 24.792C14.591 22.755 11.275 22.754 9.237 24.792L4.28701 29.742ZM17.722 33.278L12.772 38.228C10.131 40.869 5.835 40.869 3.19401 38.228C0.553007 35.587 0.553007 31.291 3.19401 28.65L8.144 23.7C10.785 21.059 15.081 21.059 17.722 23.7C20.363 26.341 20.362 30.637 17.722 33.278Z" fill="url(#paint9_linear_57_3)"/>
<path d="M4.158 29.614C2.067 31.705 2.067 35.108 4.158 37.199C6.249 39.29 9.65199 39.29 11.743 37.199L16.693 32.249C18.784 30.158 18.784 26.755 16.693 24.664C14.602 22.573 11.199 22.573 9.10799 24.664L4.158 29.614ZM17.593 33.149L12.643 38.099C10.056 40.686 5.845 40.686 3.258 38.099C0.670999 35.512 0.670999 31.301 3.258 28.714L8.20799 23.764C10.795 21.177 15.006 21.177 17.593 23.764C20.18 26.351 20.18 30.562 17.593 33.149Z" fill="url(#paint10_linear_57_3)"/>
<path d="M4.02901 29.4852C1.88501 31.6292 1.88501 35.1192 4.02901 37.2632C6.17301 39.4072 9.663 39.4072 11.807 37.2632L16.757 32.3132C18.901 30.1692 18.901 26.6792 16.757 24.5352C14.613 22.3912 11.123 22.3912 8.979 24.5352L4.02901 29.4852ZM17.464 33.0212L12.514 37.9712C9.98 40.5052 5.85601 40.5052 3.32201 37.9712C0.788009 35.4372 0.788009 31.3132 3.32201 28.7792L8.272 23.8292C10.806 21.2952 14.93 21.2952 17.464 23.8292C19.998 26.3632 19.999 30.4872 17.464 33.0212Z" fill="#C4C4C4"/>
<path d="M9.68597 25.2432L4.73598 30.1932C3.17598 31.7532 3.17598 34.2902 4.73598 35.8502C4.85698 35.9712 4.99298 36.0662 5.12498 36.1682C3.90998 34.6002 4.00398 32.3392 5.44298 30.9002L10.393 25.9502C11.832 24.5112 14.093 24.4172 15.661 25.6322C15.559 25.5002 15.464 25.3642 15.343 25.2432C13.783 23.6832 11.246 23.6832 9.68597 25.2432Z" fill="url(#paint11_linear_57_3)"/>
<path d="M18.172 33.7281L13.222 38.6781C10.222 41.6781 5.41803 41.7841 2.28003 39.0141C2.39003 39.1391 2.49603 39.2661 2.61603 39.3851C5.73503 42.5041 10.811 42.5041 13.93 39.3851L18.88 34.4351C21.999 31.3162 21.999 26.2402 18.88 23.1212C18.761 23.0022 18.633 22.8962 18.509 22.7852C21.278 25.9242 21.171 30.7282 18.172 33.7281Z" fill="url(#paint12_linear_57_3)"/>
<path d="M25.95 10.3931C24.39 11.9531 24.39 14.4901 25.95 16.0501C27.51 17.6101 30.047 17.6101 31.607 16.0501L36.557 11.1001C38.117 9.54012 38.117 7.00312 36.557 5.44313C34.997 3.88313 32.46 3.88313 30.9 5.44313L25.95 10.3931ZM39.385 13.9291L34.435 18.8791C31.316 21.9981 26.24 21.9981 23.121 18.8791C20.002 15.7601 20.002 10.6841 23.121 7.56512L28.071 2.61513C31.19 -0.50387 36.266 -0.50387 39.385 2.61513C42.504 5.73413 42.504 10.8101 39.385 13.9291Z" fill="url(#paint13_linear_57_3)"/>
<path d="M25.821 10.2649C24.208 11.8779 24.208 14.5019 25.821 16.1149C27.434 17.7279 30.058 17.7279 31.671 16.1149L36.621 11.1649C38.234 9.55189 38.234 6.92789 36.621 5.31489C35.008 3.70189 32.384 3.70189 30.771 5.31489L25.821 10.2649ZM39.256 13.7999L34.306 18.7499C31.24 21.8159 26.251 21.8159 23.185 18.7499C20.119 15.6839 20.119 10.6949 23.185 7.62889L28.135 2.67889C31.201 -0.387105 36.19 -0.387105 39.256 2.67889C42.322 5.74489 42.322 10.7339 39.256 13.7999Z" fill="url(#paint14_linear_57_3)"/>
<path d="M25.693 10.1361C24.027 11.8021 24.027 14.5121 25.693 16.1791C27.359 17.8451 30.07 17.8451 31.736 16.1791L36.686 11.2291C38.352 9.56312 38.352 6.85312 36.686 5.18612C35.02 3.51912 32.309 3.52012 30.643 5.18612L25.693 10.1361ZM39.128 13.6721L34.178 18.6221C31.165 21.6351 26.263 21.6351 23.25 18.6221C20.237 15.6091 20.237 10.7071 23.25 7.69412L28.2 2.74412C31.213 -0.268875 36.115 -0.268875 39.128 2.74412C42.14 5.75712 42.14 10.6591 39.128 13.6721Z" fill="url(#paint15_linear_57_3)"/>
<path d="M25.564 10.0079C23.845 11.7269 23.845 14.5239 25.564 16.2429C27.283 17.9619 30.08 17.9619 31.799 16.2429L36.749 11.2929C38.468 9.57389 38.468 6.77689 36.749 5.05789C35.03 3.33889 32.233 3.33889 30.514 5.05789L25.564 10.0079ZM38.999 13.5429L34.049 18.4929C31.089 21.4529 26.273 21.4529 23.314 18.4929C20.355 15.5329 20.354 10.7169 23.314 7.75789L28.264 2.80789C31.224 -0.152109 36.04 -0.152109 38.999 2.80789C41.958 5.76789 41.959 10.5839 38.999 13.5429Z" fill="url(#paint16_linear_57_3)"/>
<path d="M25.435 9.87934C23.663 11.6513 23.663 14.5353 25.435 16.3073C27.207 18.0793 30.091 18.0793 31.863 16.3073L36.813 11.3573C38.585 9.58534 38.585 6.70134 36.813 4.92934C35.041 3.15735 32.157 3.15735 30.385 4.92934L25.435 9.87934ZM38.871 13.4153L33.921 18.3653C31.015 21.2713 26.285 21.2713 23.379 18.3653C20.473 15.4593 20.473 10.7293 23.379 7.82334L28.329 2.87335C31.235 -0.0326519 35.965 -0.0326519 38.871 2.87335C41.777 5.77934 41.777 10.5083 38.871 13.4153Z" fill="url(#paint17_linear_57_3)"/>
<path d="M25.307 9.75111C23.482 11.5761 23.482 14.5471 25.307 16.3721C27.132 18.1971 30.103 18.1971 31.928 16.3721L36.878 11.4221C38.703 9.59711 38.703 6.62611 36.878 4.80111C35.053 2.97611 32.082 2.97611 30.257 4.80111L25.307 9.75111ZM38.742 13.2861L33.792 18.2361C30.939 21.0891 26.296 21.0891 23.443 18.2361C20.59 15.3831 20.59 10.7401 23.443 7.88711L28.393 2.93711C31.246 0.0841138 35.889 0.0841138 38.742 2.93711C41.595 5.79011 41.595 10.4331 38.742 13.2861Z" fill="url(#paint18_linear_57_3)"/>
<path d="M25.178 9.62236C23.299 11.5014 23.299 14.5574 25.178 16.4364C27.057 18.3154 30.113 18.3154 31.992 16.4364L36.942 11.4864C38.821 9.60736 38.821 6.55136 36.942 4.67236C35.063 2.79337 32.007 2.79337 30.128 4.67236L25.178 9.62236ZM38.613 13.1584L33.663 18.1084C30.863 20.9084 26.306 20.9084 23.506 18.1084C20.706 15.3084 20.706 10.7514 23.506 7.95136L28.456 3.00137C31.256 0.201368 35.813 0.201368 38.613 3.00137C41.414 5.80136 41.414 10.3574 38.613 13.1584Z" fill="url(#paint19_linear_57_3)"/>
<path d="M25.05 9.49313C23.118 11.4251 23.118 14.5681 25.05 16.5001C26.982 18.4321 30.125 18.4321 32.057 16.5001L37.007 11.5501C38.939 9.61813 38.939 6.47513 37.007 4.54313C35.075 2.61113 31.932 2.61113 30 4.54313L25.05 9.49313ZM38.485 13.0291L33.535 17.9791C30.788 20.7261 26.318 20.7261 23.571 17.9791C20.824 15.2321 20.824 10.7621 23.571 8.01513L28.521 3.06513C31.268 0.318133 35.738 0.318133 38.485 3.06513C41.232 5.81213 41.232 10.2821 38.485 13.0291Z" fill="url(#paint20_linear_57_3)"/>
<path d="M24.921 9.36489C22.936 11.3499 22.936 14.5799 24.921 16.5649C26.906 18.5499 30.136 18.5499 32.121 16.5649L37.071 11.6149C39.056 9.62989 39.056 6.3999 37.071 4.4149C35.086 2.4299 31.856 2.4299 29.871 4.4149L24.921 9.36489ZM38.356 12.8999L33.406 17.8499C30.712 20.5439 26.329 20.5439 23.635 17.8499C20.941 15.1559 20.941 10.7729 23.635 8.07889L28.585 3.1289C31.279 0.434899 35.662 0.434899 38.356 3.1289C41.05 5.8229 41.05 10.2069 38.356 12.8999Z" fill="url(#paint21_linear_57_3)"/>
<path d="M24.793 9.23612C22.755 11.2741 22.755 14.5911 24.793 16.6281C26.831 18.6651 30.147 18.6661 32.185 16.6281L37.135 11.6781C39.173 9.64012 39.173 6.32313 37.135 4.28613C35.097 2.24913 31.781 2.24813 29.743 4.28613L24.793 9.23612ZM38.228 12.7721L33.278 17.7221C30.637 20.3631 26.341 20.3631 23.7 17.7221C21.059 15.0811 21.059 10.7851 23.7 8.14413L28.65 3.19413C31.291 0.553129 35.587 0.553129 38.228 3.19413C40.869 5.83513 40.868 10.1311 38.228 12.7721Z" fill="url(#paint22_linear_57_3)"/>
<path d="M24.664 9.10812C22.573 11.1991 22.573 14.6021 24.664 16.6931C26.755 18.7841 30.158 18.7841 32.249 16.6931L37.199 11.7431C39.29 9.65212 39.29 6.24912 37.199 4.15812C35.108 2.06712 31.705 2.06712 29.614 4.15812L24.664 9.10812ZM38.099 12.6431L33.149 17.5931C30.562 20.1801 26.351 20.1801 23.764 17.5931C21.177 15.0061 21.177 10.7951 23.764 8.20812L28.714 3.25812C31.301 0.671122 35.512 0.671122 38.099 3.25812C40.687 5.84512 40.687 10.0561 38.099 12.6431Z" fill="url(#paint23_linear_57_3)"/>
<path d="M24.536 8.97935C22.392 11.1233 22.392 14.6133 24.536 16.7573C26.68 18.9013 30.17 18.9013 32.314 16.7573L37.264 11.8073C39.408 9.66335 39.408 6.17335 37.264 4.02935C35.12 1.88535 31.63 1.88535 29.486 4.02935L24.536 8.97935ZM37.971 12.5153L33.021 17.4653C30.487 19.9993 26.363 19.9993 23.829 17.4653C21.295 14.9313 21.295 10.8073 23.829 8.27335L28.779 3.32335C31.313 0.789352 35.437 0.789352 37.971 3.32335C40.505 5.85735 40.505 9.98035 37.971 12.5153Z" fill="#C4C4C4"/>
<path d="M30.192 4.73689L25.242 9.68689C23.682 11.2469 23.682 13.7839 25.242 15.3439C25.363 15.4649 25.499 15.5599 25.631 15.6619C24.416 14.0939 24.51 11.8329 25.949 10.3939L30.899 5.44389C32.338 4.00489 34.599 3.91089 36.167 5.12589C36.065 4.99389 35.97 4.85789 35.849 4.73689C34.289 3.17689 31.752 3.17689 30.192 4.73689Z" fill="url(#paint24_linear_57_3)"/>
<path d="M38.678 13.2223L33.728 18.1723C30.728 21.1723 25.924 21.2783 22.786 18.5083C22.896 18.6333 23.002 18.7603 23.122 18.8793C26.241 21.9983 31.317 21.9983 34.436 18.8793L39.386 13.9293C42.505 10.8103 42.505 5.73429 39.386 2.6153C39.267 2.4963 39.139 2.3903 39.015 2.2793C41.784 5.41829 41.677 10.2223 38.678 13.2223Z" fill="url(#paint25_linear_57_3)"/>
<path d="M24.536 8.97935C22.392 11.1233 22.392 14.6133 24.536 16.7573C26.68 18.9013 30.17 18.9013 32.314 16.7573L37.264 11.8073C39.408 9.66335 39.408 6.17335 37.264 4.02935C35.12 1.88535 31.63 1.88535 29.486 4.02935L24.536 8.97935ZM37.971 12.5153L33.021 17.4653C30.487 19.9993 26.363 19.9993 23.829 17.4653C21.295 14.9313 21.295 10.8073 23.829 8.27335L28.779 3.32335C31.313 0.789352 35.437 0.789352 37.971 3.32335C40.505 5.85735 40.505 9.98035 37.971 12.5153Z" fill="url(#paint26_linear_57_3)"/>
<path d="M4.02901 29.4852C1.88501 31.6292 1.88501 35.1192 4.02901 37.2632C6.17301 39.4072 9.663 39.4072 11.807 37.2632L16.757 32.3132C18.901 30.1692 18.901 26.6792 16.757 24.5352C14.613 22.3912 11.123 22.3912 8.979 24.5352L4.02901 29.4852ZM17.464 33.0212L12.514 37.9712C9.98 40.5052 5.85601 40.5052 3.32201 37.9712C0.788009 35.4372 0.788009 31.3132 3.32201 28.7792L8.272 23.8292C10.806 21.2952 14.93 21.2952 17.464 23.8292C19.998 26.3632 19.999 30.4872 17.464 33.0212Z" fill="url(#paint27_linear_57_3)"/>
<path d="M29.799 17.0713C28.467 17.4223 26.992 17.0933 25.95 16.0503L23.122 18.8783C25.752 21.5083 29.769 21.9113 32.835 20.1063L29.799 17.0713Z" fill="url(#paint28_linear_57_3)"/>
<path d="M17.071 29.7991C17.422 28.4671 17.093 26.9921 16.05 25.9501L18.878 23.1221C21.508 25.7521 21.911 29.7691 20.106 32.8351L17.071 29.7991Z" fill="url(#paint29_linear_57_3)"/>
<path d="M28.778 16.05L16.05 28.778C15.269 29.559 14.003 29.559 13.222 28.778C12.441 27.997 12.441 26.731 13.222 25.95L25.95 13.222C26.731 12.441 27.997 12.441 28.778 13.222C29.559 14.003 29.559 15.269 28.778 16.05Z" fill="url(#paint30_linear_57_3)"/>
<path d="M28.621 15.951L15.951 28.621C15.225 29.347 14.048 29.347 13.322 28.621L13.316 28.615C12.59 27.889 12.59 26.712 13.316 25.986L25.986 13.316C26.712 12.59 27.889 12.59 28.615 13.316L28.621 13.322C29.347 14.047 29.347 15.225 28.621 15.951Z" fill="url(#paint31_linear_57_3)"/>
<path d="M28.4629 15.851L15.8509 28.463C15.1799 29.134 14.0919 29.134 13.4209 28.463L13.409 28.451C12.738 27.78 12.738 26.692 13.409 26.021L26.0199 13.409C26.6909 12.738 27.7789 12.738 28.4499 13.409L28.4619 13.421C29.1339 14.092 29.1339 15.18 28.4629 15.851Z" fill="url(#paint32_linear_57_3)"/>
<path d="M28.3049 15.752L15.752 28.305C15.136 28.921 14.137 28.921 13.521 28.305L13.503 28.287C12.887 27.671 12.887 26.672 13.503 26.056L26.0559 13.503C26.6719 12.887 27.6709 12.887 28.2869 13.503L28.3049 13.521C28.9209 14.137 28.9209 15.136 28.3049 15.752Z" fill="url(#paint33_linear_57_3)"/>
<path d="M28.148 15.652L15.652 28.148C15.091 28.709 14.181 28.709 13.62 28.148L13.595 28.123C13.034 27.562 13.034 26.652 13.595 26.091L26.09 13.596C26.651 13.035 27.561 13.035 28.122 13.596L28.147 13.621C28.709 14.181 28.709 15.091 28.148 15.652Z" fill="url(#paint34_linear_57_3)"/>
<path d="M27.99 15.5531L15.553 27.9901C15.047 28.4961 14.226 28.4961 13.719 27.9901L13.688 27.9591C13.182 27.4531 13.182 26.6321 13.688 26.1251L26.125 13.6881C26.631 13.1821 27.452 13.1821 27.959 13.6881L27.99 13.7191C28.496 14.2261 28.496 15.0461 27.99 15.5531Z" fill="url(#paint35_linear_57_3)"/>
<path d="M27.832 15.4531L15.453 27.8321C15.002 28.2831 14.27 28.2831 13.818 27.8321L13.781 27.7951C13.33 27.3441 13.33 26.6121 13.781 26.1601L26.16 13.7811C26.611 13.3301 27.343 13.3301 27.795 13.7811L27.832 13.8181C28.284 14.2701 28.284 15.0021 27.832 15.4531Z" fill="url(#paint36_linear_57_3)"/>
<path d="M27.675 15.3541L15.354 27.6751C14.958 28.0711 14.315 28.0711 13.918 27.6751L13.875 27.6321C13.479 27.2361 13.479 26.5931 13.875 26.1961L26.196 13.8751C26.592 13.4791 27.235 13.4791 27.632 13.8751L27.675 13.9181C28.071 14.3151 28.071 14.9571 27.675 15.3541Z" fill="url(#paint37_linear_57_3)"/>
<path d="M27.517 15.2542L15.254 27.5171C14.913 27.8581 14.359 27.8581 14.017 27.5171L13.968 27.4681C13.627 27.1271 13.627 26.5731 13.968 26.2311L26.231 13.9682C26.572 13.6272 27.126 13.6272 27.468 13.9682L27.517 14.0172C27.859 14.3592 27.859 14.9132 27.517 15.2542Z" fill="url(#paint38_linear_57_3)"/>
<path d="M27.359 15.155L15.155 27.3589C14.868 27.6459 14.404 27.6459 14.117 27.3589L14.062 27.3039C13.775 27.0169 13.775 26.5529 14.062 26.2659L26.267 14.061C26.554 13.774 27.018 13.774 27.305 14.061L27.36 14.116C27.646 14.404 27.646 14.868 27.359 15.155Z" fill="url(#paint39_linear_57_3)"/>
<path d="M27.2019 15.0549L15.055 27.2019C14.823 27.4339 14.448 27.4339 14.216 27.2019L14.155 27.1409C13.923 26.9089 13.923 26.5339 14.155 26.3019L26.3009 14.1559C26.5329 13.9239 26.9079 13.9239 27.1399 14.1559L27.2009 14.2169C27.4329 14.4479 27.4329 14.8239 27.2019 15.0549Z" fill="url(#paint40_linear_57_3)"/>
<path d="M27.044 14.956L14.956 27.044C14.779 27.221 14.493 27.221 14.316 27.044L14.248 26.976C14.071 26.799 14.071 26.513 14.248 26.336L26.336 14.248C26.513 14.071 26.799 14.071 26.976 14.248L27.044 14.316C27.221 14.493 27.221 14.779 27.044 14.956Z" fill="#F1F1F1"/>
<path d="M3.54101 29.4101C3.01101 28.9171 3.59901 27.4251 4.85301 26.0791C6.10701 24.7321 7.554 24.0411 8.083 24.5341C8.613 25.0271 8.025 26.5191 6.77101 27.8651C5.51701 29.2111 4.07101 29.9031 3.54101 29.4101Z" fill="url(#paint41_radial_57_3)"/>
<path d="M24.047 8.90423C23.517 8.41123 24.105 6.91923 25.359 5.57323C26.613 4.22623 28.06 3.53523 28.589 4.02823C29.119 4.52123 28.531 6.01323 27.277 7.35923C26.023 8.70623 24.577 9.39723 24.047 8.90423Z" fill="url(#paint42_radial_57_3)"/>
<path d="M22.553 18.8503C22.13 18.4563 22.599 17.2633 23.602 16.1873C24.605 15.1103 25.761 14.5573 26.185 14.9523C26.609 15.3473 26.139 16.5393 25.136 17.6153C24.132 18.6923 22.976 19.2453 22.553 18.8503Z" fill="url(#paint43_radial_57_3)"/>
<path d="M16.494 36.8473L13.717 34.0703L14.07 33.7173L16.847 36.4933L16.494 36.8473Z" fill="url(#paint44_linear_57_3)"/>
<path d="M37.302 15.942L34.525 13.166L34.879 12.813L37.656 15.589L37.302 15.942Z" fill="url(#paint45_linear_57_3)"/>
<defs>
<linearGradient id="paint0_linear_57_3" x1="15.2607" y1="35.7666" x2="5.80366" y2="26.3099" gradientUnits="userSpaceOnUse">
<stop stop-color="#6A6A6A"/>
<stop offset="1" stop-color="#B7B3B0"/>
</linearGradient>
<linearGradient id="paint1_linear_57_3" x1="10.715" y1="39.4672" x2="10.715" y2="22.1902" gradientUnits="userSpaceOnUse">
<stop stop-color="#727272"/>
<stop offset="1" stop-color="#B8B5B2"/>
</linearGradient>
<linearGradient id="paint2_linear_57_3" x1="10.683" y1="39.326" x2="10.683" y2="22.277" gradientUnits="userSpaceOnUse">
<stop stop-color="#7A7A7A"/>
<stop offset="1" stop-color="#B9B6B4"/>
</linearGradient>
<linearGradient id="paint3_linear_57_3" x1="10.65" y1="39.1852" x2="10.65" y2="22.3642" gradientUnits="userSpaceOnUse">
<stop stop-color="#838383"/>
<stop offset="1" stop-color="#BBB8B5"/>
</linearGradient>
<linearGradient id="paint4_linear_57_3" x1="10.618" y1="39.0442" x2="10.618" y2="22.4512" gradientUnits="userSpaceOnUse">
<stop stop-color="#8B8B8B"/>
<stop offset="1" stop-color="#BCB9B7"/>
</linearGradient>
<linearGradient id="paint5_linear_57_3" x1="10.586" y1="38.903" x2="10.586" y2="22.538" gradientUnits="userSpaceOnUse">
<stop stop-color="#939393"/>
<stop offset="1" stop-color="#BDBBB9"/>
</linearGradient>
<linearGradient id="paint6_linear_57_3" x1="10.554" y1="38.7622" x2="10.554" y2="22.6252" gradientUnits="userSpaceOnUse">
<stop stop-color="#9B9B9B"/>
<stop offset="1" stop-color="#BEBCBB"/>
</linearGradient>
<linearGradient id="paint7_linear_57_3" x1="10.522" y1="38.621" x2="10.522" y2="22.712" gradientUnits="userSpaceOnUse">
<stop stop-color="#A3A3A3"/>
<stop offset="1" stop-color="#BFBEBD"/>
</linearGradient>
<linearGradient id="paint8_linear_57_3" x1="10.49" y1="38.4802" x2="10.49" y2="22.7992" gradientUnits="userSpaceOnUse">
<stop stop-color="#ABABAB"/>
<stop offset="1" stop-color="#C0BFBF"/>
</linearGradient>
<linearGradient id="paint9_linear_57_3" x1="10.458" y1="38.34" x2="10.458" y2="22.886" gradientUnits="userSpaceOnUse">
<stop stop-color="#B4B4B4"/>
<stop offset="1" stop-color="#C2C1C0"/>
</linearGradient>
<linearGradient id="paint10_linear_57_3" x1="10.425" y1="38.199" x2="10.425" y2="22.973" gradientUnits="userSpaceOnUse">
<stop stop-color="#BCBCBC"/>
<stop offset="1" stop-color="#C3C2C2"/>
</linearGradient>
<linearGradient id="paint11_linear_57_3" x1="10.5795" y1="31.0859" x2="2.7206" y2="23.2272" gradientUnits="userSpaceOnUse">
<stop stop-color="#6A6A6A"/>
<stop offset="1" stop-color="white" stop-opacity="0"/>
</linearGradient>
<linearGradient id="paint12_linear_57_3" x1="18.0984" y1="38.6043" x2="13.0743" y2="33.5804" gradientUnits="userSpaceOnUse">
<stop stop-color="#6A6A6A"/>
<stop offset="1" stop-color="#939393" stop-opacity="0"/>
</linearGradient>
<linearGradient id="paint13_linear_57_3" x1="35.7664" y1="15.2603" x2="26.3094" y2="5.80361" gradientUnits="userSpaceOnUse">
<stop stop-color="#6A6A6A"/>
<stop offset="1" stop-color="#B7B3B0"/>
</linearGradient>
<linearGradient id="paint14_linear_57_3" x1="31.221" y1="18.9609" x2="31.221" y2="1.68389" gradientUnits="userSpaceOnUse">
<stop stop-color="#727272"/>
<stop offset="1" stop-color="#B8B5B2"/>
</linearGradient>
<linearGradient id="paint15_linear_57_3" x1="31.189" y1="18.8201" x2="31.189" y2="1.77112" gradientUnits="userSpaceOnUse">
<stop stop-color="#7A7A7A"/>
<stop offset="1" stop-color="#B9B6B4"/>
</linearGradient>
<linearGradient id="paint16_linear_57_3" x1="31.157" y1="18.6789" x2="31.157" y2="1.85789" gradientUnits="userSpaceOnUse">
<stop stop-color="#838383"/>
<stop offset="1" stop-color="#BBB8B5"/>
</linearGradient>
<linearGradient id="paint17_linear_57_3" x1="31.124" y1="18.5383" x2="31.124" y2="1.94535" gradientUnits="userSpaceOnUse">
<stop stop-color="#8B8B8B"/>
<stop offset="1" stop-color="#BCB9B7"/>
</linearGradient>
<linearGradient id="paint18_linear_57_3" x1="31.092" y1="18.3971" x2="31.092" y2="2.03211" gradientUnits="userSpaceOnUse">
<stop stop-color="#939393"/>
<stop offset="1" stop-color="#BDBBB9"/>
</linearGradient>
<linearGradient id="paint19_linear_57_3" x1="31.06" y1="18.2564" x2="31.06" y2="2.11937" gradientUnits="userSpaceOnUse">
<stop stop-color="#9B9B9B"/>
<stop offset="1" stop-color="#BEBCBB"/>
</linearGradient>
<linearGradient id="paint20_linear_57_3" x1="31.028" y1="18.1151" x2="31.028" y2="2.20513" gradientUnits="userSpaceOnUse">
<stop stop-color="#A3A3A3"/>
<stop offset="1" stop-color="#BFBEBD"/>
</linearGradient>
<linearGradient id="paint21_linear_57_3" x1="30.996" y1="17.9739" x2="30.996" y2="2.2919" gradientUnits="userSpaceOnUse">
<stop stop-color="#ABABAB"/>
<stop offset="1" stop-color="#C0BFBF"/>
</linearGradient>
<linearGradient id="paint22_linear_57_3" x1="30.964" y1="17.8341" x2="30.964" y2="2.37913" gradientUnits="userSpaceOnUse">
<stop stop-color="#B4B4B4"/>
<stop offset="1" stop-color="#C2C1C0"/>
</linearGradient>
<linearGradient id="paint23_linear_57_3" x1="30.932" y1="17.6931" x2="30.932" y2="2.46612" gradientUnits="userSpaceOnUse">
<stop stop-color="#BCBCBC"/>
<stop offset="1" stop-color="#C3C2C2"/>
</linearGradient>
<linearGradient id="paint24_linear_57_3" x1="31.0853" y1="10.5791" x2="23.2264" y2="2.72044" gradientUnits="userSpaceOnUse">
<stop stop-color="#6A6A6A"/>
<stop offset="1" stop-color="white" stop-opacity="0"/>
</linearGradient>
<linearGradient id="paint25_linear_57_3" x1="38.6041" y1="18.098" x2="33.58" y2="13.0741" gradientUnits="userSpaceOnUse">
<stop stop-color="#6A6A6A"/>
<stop offset="1" stop-color="#939393" stop-opacity="0"/>
</linearGradient>
<linearGradient id="paint26_linear_57_3" x1="20.9996" y1="0.494252" x2="30.1922" y2="9.68648" gradientUnits="userSpaceOnUse">
<stop stop-color="white"/>
<stop offset="1" stop-color="white" stop-opacity="0"/>
</linearGradient>
<linearGradient id="paint27_linear_57_3" x1="0.493909" y1="21.0006" x2="9.68645" y2="30.1928" gradientUnits="userSpaceOnUse">
<stop stop-color="white"/>
<stop offset="1" stop-color="white" stop-opacity="0"/>
</linearGradient>
<linearGradient id="paint28_linear_57_3" x1="26.0197" y1="18.4214" x2="28.8213" y2="19.1143" gradientUnits="userSpaceOnUse">
<stop stop-color="#171714" stop-opacity="0.7"/>
<stop offset="1" stop-color="#171714" stop-opacity="0"/>
</linearGradient>
<linearGradient id="paint29_linear_57_3" x1="18.4212" y1="26.0198" x2="19.1142" y2="28.8213" gradientUnits="userSpaceOnUse">
<stop stop-color="#171714" stop-opacity="0.7"/>
<stop offset="1" stop-color="#171714" stop-opacity="0"/>
</linearGradient>
<linearGradient id="paint30_linear_57_3" x1="22.4142" y1="22.4142" x2="19.5857" y2="19.5858" gradientUnits="userSpaceOnUse">
<stop stop-color="#6A6A6A"/>
<stop offset="1" stop-color="#B7B3B0"/>
</linearGradient>
<linearGradient id="paint31_linear_57_3" x1="22.583" y1="22.8133" x2="19.3491" y2="19.1221" gradientUnits="userSpaceOnUse">
<stop stop-color="#767676"/>
<stop offset="1" stop-color="#BCB9B6"/>
</linearGradient>
<linearGradient id="paint32_linear_57_3" x1="22.7083" y1="23.2681" x2="19.1633" y2="18.6084" gradientUnits="userSpaceOnUse">
<stop stop-color="#838383"/>
<stop offset="1" stop-color="#C2BEBC"/>
</linearGradient>
<linearGradient id="paint33_linear_57_3" x1="22.7706" y1="23.7585" x2="19.0378" y2="18.0465" gradientUnits="userSpaceOnUse">
<stop stop-color="#8F8F8F"/>
<stop offset="1" stop-color="#C7C4C2"/>
</linearGradient>
<linearGradient id="paint34_linear_57_3" x1="22.7583" y1="24.2808" x2="18.9855" y2="17.4596" gradientUnits="userSpaceOnUse">
<stop stop-color="#9B9B9B"/>
<stop offset="1" stop-color="#CCCAC8"/>
</linearGradient>
<linearGradient id="paint35_linear_57_3" x1="22.6638" y1="24.8137" x2="19.0139" y2="16.8629" gradientUnits="userSpaceOnUse">
<stop stop-color="#A7A7A7"/>
<stop offset="1" stop-color="#D1CFCE"/>
</linearGradient>
<linearGradient id="paint36_linear_57_3" x1="22.4877" y1="25.3388" x2="19.1284" y2="16.278" gradientUnits="userSpaceOnUse">
<stop stop-color="#B4B4B4"/>
<stop offset="1" stop-color="#D7D5D3"/>
</linearGradient>
<linearGradient id="paint37_linear_57_3" x1="22.228" y1="25.8285" x2="19.3199" y2="15.7221" gradientUnits="userSpaceOnUse">
<stop stop-color="#C0C0C0"/>
<stop offset="1" stop-color="#DCDAD9"/>
</linearGradient>
<linearGradient id="paint38_linear_57_3" x1="21.9" y1="26.2712" x2="19.5828" y2="15.2181" gradientUnits="userSpaceOnUse">
<stop stop-color="#CCCCCC"/>
<stop offset="1" stop-color="#E1E0DF"/>
</linearGradient>
<linearGradient id="paint39_linear_57_3" x1="21.5174" y1="26.6447" x2="19.9043" y2="14.7731" gradientUnits="userSpaceOnUse">
<stop stop-color="#D8D8D8"/>
<stop offset="1" stop-color="#E6E6E5"/>
</linearGradient>
<linearGradient id="paint40_linear_57_3" x1="21.0889" y1="26.9477" x2="20.2645" y2="14.4035" gradientUnits="userSpaceOnUse">
<stop stop-color="#E5E5E5"/>
<stop offset="1" stop-color="#ECEBEB"/>
</linearGradient>
<radialGradient id="paint41_radial_57_3" cx="0" cy="0" r="1" gradientUnits="userSpaceOnUse" gradientTransform="translate(5.85791 26.8988) scale(2.99941)">
<stop stop-color="white" stop-opacity="0.6"/>
<stop offset="0.999" stop-color="white" stop-opacity="0"/>
</radialGradient>
<radialGradient id="paint42_radial_57_3" cx="0" cy="0" r="1" gradientUnits="userSpaceOnUse" gradientTransform="translate(26.362 6.39197) scale(2.99941)">
<stop stop-color="white" stop-opacity="0.6"/>
<stop offset="0.999" stop-color="white" stop-opacity="0"/>
</radialGradient>
<radialGradient id="paint43_radial_57_3" cx="0" cy="0" r="1" gradientUnits="userSpaceOnUse" gradientTransform="translate(24.4025 16.8421) scale(2.39763)">
<stop stop-color="white"/>
<stop offset="0.999" stop-color="white" stop-opacity="0"/>
</radialGradient>
<linearGradient id="paint44_linear_57_3" x1="15.282" y1="36.1143" x2="15.282" y2="33.6313" gradientUnits="userSpaceOnUse">
<stop stop-color="#6A6A6A"/>
<stop offset="1" stop-color="#939393" stop-opacity="0"/>
</linearGradient>
<linearGradient id="paint45_linear_57_3" x1="36.09" y1="15.209" x2="36.09" y2="12.727" gradientUnits="userSpaceOnUse">
<stop stop-color="#6A6A6A"/>
<stop offset="1" stop-color="#939393" stop-opacity="0"/>
</linearGradient>
</defs>
</svg>
