<svg width="30" height="39" viewBox="0 0 30 39" fill="none" xmlns="http://www.w3.org/2000/svg">
<path d="M29.121 0.699707V36.0797C29.1182 37.5419 27.9332 38.7265 26.471 38.7287H3.47099C2.01082 38.7254 0.829335 37.5399 0.830995 36.0797V0.699707H29.121Z" fill="url(#paint0_radial_57_56)"/>
<path d="M29.121 0.6998L29.116 9.5758C26.1508 14.5633 20.779 17.6216 14.9767 17.6257C9.1743 17.6298 3.79824 14.5791 0.825989 9.5958V0.695801L29.121 0.6998Z" fill="url(#paint1_radial_57_56)"/>
<path d="M29.051 0.699707C28.4111 7.9993 22.2986 13.5994 14.971 13.5994C7.64339 13.5994 1.53091 7.99931 0.890991 0.699707H29.051Z" fill="#EA0017"/>
<path d="M15.247 25.337C19.9596 25.337 23.78 21.5166 23.78 16.804C23.78 12.0913 19.9596 8.271 15.247 8.271C10.5343 8.271 6.71399 12.0913 6.71399 16.804C6.71399 21.5166 10.5343 25.337 15.247 25.337Z" fill="url(#paint2_radial_57_56)"/>
<path d="M17.232 14.2869C16.5253 14.6085 15.7474 14.7418 14.974 14.6739C14.8906 14.6732 14.8076 14.6853 14.728 14.7099C14.866 14.9809 14.997 15.2099 15.101 15.4509C15.205 15.6919 15.271 15.9309 15.371 16.1649C15.43 16.3009 15.517 16.3809 15.671 16.2319C15.7738 16.1228 15.9056 16.0454 16.051 16.0089C16.563 15.9239 17.081 15.8789 17.594 15.7999C17.687 15.7859 17.847 15.6589 17.837 15.6139C17.78 15.3629 17.937 15.2339 18.082 15.0939L18.539 14.6679C18.223 14.2843 17.7045 14.1332 17.232 14.2869ZM17.181 15.4369C16.7195 15.5855 16.2461 15.6942 15.766 15.7619C15.728 15.7699 15.644 15.6939 15.629 15.6419C15.569 15.4419 15.529 15.2359 15.473 14.9959C16.001 14.8849 16.467 14.7859 16.933 14.6959C17.106 14.6599 17.362 14.5659 17.389 14.8089C17.413 15.0149 17.317 15.3839 17.181 15.4369Z" fill="url(#paint3_linear_57_56)"/>
<path d="M19.371 16.9439C19.085 16.6125 18.6485 16.4519 18.216 16.5189C17.527 16.6599 16.84 16.8189 16.145 16.9189C15.5568 17.1272 14.9164 17.1356 14.323 16.9429C14.296 16.9289 14.248 16.9529 14.188 16.9639C14.206 17.0439 14.219 17.1109 14.235 17.1769C14.345 17.6289 14.482 18.0769 14.559 18.5359C14.649 19.0679 14.675 19.6099 14.752 20.1449C14.7952 20.3058 14.8577 20.4609 14.938 20.6069L15.062 20.5849C15.0805 20.4399 15.1099 20.2965 15.15 20.1559C15.176 20.0779 15.25 19.9679 15.316 19.9559C15.942 19.8739 16.57 19.7889 17.2 19.7479C17.712 19.7149 17.806 19.8159 17.944 20.3189C17.999 20.5189 18.069 20.7129 18.133 20.9109L18.261 20.9409C18.4364 20.7277 18.583 20.4923 18.697 20.2409C18.8297 19.7614 18.9362 19.275 19.016 18.7839C19.116 18.2609 19.035 17.6949 19.405 17.2329C19.4429 17.137 19.4302 17.0284 19.371 16.9439ZM16.017 18.5069C16.269 18.4959 16.327 18.5909 16.324 18.8239C16.315 19.5699 16.324 19.5689 15.565 19.6469C15.426 19.6609 15.287 19.6789 15.118 19.6989C15.038 18.9179 14.961 18.1629 14.88 17.3609L16.055 17.1669C16.0746 17.1613 16.0954 17.1613 16.115 17.1669C16.396 17.3149 16.276 17.5949 16.315 17.8179C16.339 17.9519 16.378 18.1349 16.143 18.1709C15.887 18.2099 15.632 18.2629 15.377 18.3099L15.371 18.4269C15.5838 18.4712 15.7998 18.4979 16.017 18.5069ZM18.528 17.6709C18.4854 18.2606 18.4083 18.8472 18.297 19.4279C18.235 19.7649 18.141 19.7579 17.86 19.5649C17.6963 19.4706 17.5109 19.4203 17.322 19.4189C17.1091 19.4297 16.8976 19.4595 16.69 19.5079C16.69 19.1759 16.674 18.8819 16.701 18.5899C16.708 18.5179 16.847 18.4269 16.942 18.3999C17.256 18.3099 17.578 18.2439 17.929 18.1629C17.708 17.8699 17.708 17.8699 16.759 18.0149C16.745 17.7149 17.059 17.3329 16.532 17.1399C16.551 17.1189 16.569 17.0969 16.588 17.0749C16.977 17.0239 17.364 16.9529 17.755 16.9239C18.515 16.8669 18.576 16.9129 18.528 17.6709Z" fill="url(#paint4_linear_57_56)"/>
<path d="M13.931 17.5809C13.8021 17.5609 13.6758 17.5274 13.554 17.4809C13.4684 17.4242 13.395 17.3512 13.338 17.2659C13.28 17.1949 13.231 17.1149 13.179 17.0399L13.084 17.0819C13.078 17.1729 13.069 17.2649 13.069 17.3549C13.069 18.2039 13.077 19.0549 13.06 19.8999C13.0449 20.1741 13.0044 20.4462 12.939 20.7129C12.9175 20.7971 12.8568 20.8659 12.776 20.8979C12.6903 20.8909 12.6145 20.8397 12.576 20.7629C12.5049 20.5158 12.4685 20.26 12.468 20.0029C12.531 19.1089 12.628 18.2189 12.709 17.3269C12.7112 17.2654 12.7034 17.2039 12.686 17.1449C12.68 17.1189 12.654 17.0979 12.619 17.0449C12.0394 17.974 11.1923 18.7061 10.189 19.1449C11.3823 18.073 12.3601 16.7833 13.07 15.3449C13.051 15.3219 13.031 15.2999 13.012 15.2779C12.448 15.4779 11.886 15.6909 11.319 15.8869C11.147 15.9657 10.9487 15.9628 10.7791 15.8789C10.6096 15.7951 10.4868 15.6394 10.445 15.4549C10.568 15.4359 10.68 15.4209 10.791 15.4029C11.363 15.3029 11.938 15.2279 12.505 15.1099C12.7002 15.052 12.884 14.9607 13.048 14.8399C13.3245 14.6624 13.6919 14.7358 13.879 15.0059C13.9039 15.1041 13.8845 15.2082 13.826 15.2909C13.567 15.6699 13.286 16.0329 13.026 16.4109C12.859 16.6549 12.898 16.7309 13.187 16.8109C13.3573 16.8459 13.5246 16.8947 13.687 16.9569C13.8006 16.9994 13.8946 17.0824 13.951 17.1899C13.9684 17.3203 13.9616 17.4529 13.931 17.5809Z" fill="url(#paint5_linear_57_56)"/>
<path d="M13.773 13.656C13.603 13.841 13.401 13.726 13.253 13.604C12.937 13.344 12.641 13.06 12.311 12.764C12.806 12.5547 13.3789 12.6742 13.749 13.064C13.9045 13.2273 13.9148 13.4807 13.773 13.656Z" fill="url(#paint6_linear_57_56)"/>
<path d="M18.2089 12.932C18.1559 12.997 18.1089 13.107 18.0489 13.122C17.3289 13.292 16.608 13.465 15.881 13.595C15.6836 13.5861 15.4901 13.5374 15.312 13.452L15.322 13.352C15.395 13.324 15.466 13.29 15.541 13.269C16.022 13.14 16.499 12.996 16.985 12.891C17.3122 12.8274 17.6438 12.7893 17.9769 12.777C18.0509 12.773 18.1309 12.878 18.2089 12.932Z" fill="url(#paint7_linear_57_56)"/>
<path d="M15.247 23.9769C11.2853 23.9769 8.07355 20.7656 8.073 16.8039C8.07245 12.8422 11.2833 9.63002 15.245 9.62891C19.2067 9.62781 22.4193 12.8382 22.421 16.7999C22.4188 20.7616 19.2087 23.973 15.247 23.9769ZM15.247 10.1299C12.5473 10.1299 10.1134 11.7564 9.08065 14.2508C8.04788 16.7452 8.61961 19.6161 10.5292 21.5245C12.4388 23.433 15.31 24.003 17.8038 22.9687C20.2976 21.9345 21.9226 19.4997 21.921 16.7999C21.9155 13.1169 18.93 10.1332 15.247 10.1299Z" fill="url(#paint8_linear_57_56)"/>
<defs>
<radialGradient id="paint0_radial_57_56" cx="0" cy="0" r="1" gradientUnits="userSpaceOnUse" gradientTransform="translate(15.253 15.6807) scale(33.693 33.693)">
<stop stop-color="#FF0000"/>
<stop offset="0.154" stop-color="#FA0000"/>
<stop offset="0.331" stop-color="#EC0000"/>
<stop offset="0.518" stop-color="#D60000"/>
<stop offset="0.712" stop-color="#B60000"/>
<stop offset="0.911" stop-color="#8D0000"/>
<stop offset="1" stop-color="#780000"/>
</radialGradient>
<radialGradient id="paint1_radial_57_56" cx="0" cy="0" r="1" gradientUnits="userSpaceOnUse" gradientTransform="translate(15.121 0.416801) scale(18.528 18.528)">
<stop offset="0.619" stop-color="#780000"/>
<stop offset="1" stop-color="#FF0000"/>
</radialGradient>
<radialGradient id="paint2_radial_57_56" cx="0" cy="0" r="1" gradientUnits="userSpaceOnUse" gradientTransform="translate(15.385 6.351) scale(15.725 15.725)">
<stop stop-color="#A51111"/>
<stop offset="0.265" stop-color="#A01111"/>
<stop offset="0.569" stop-color="#920F0F"/>
<stop offset="0.889" stop-color="#7C0D0D"/>
<stop offset="1" stop-color="#720C0C"/>
</radialGradient>
<linearGradient id="paint3_linear_57_56" x1="14.7" y1="12.9489" x2="17.634" y2="16.1799" gradientUnits="userSpaceOnUse">
<stop offset="0.135" stop-color="#FCEE21"/>
<stop offset="0.257" stop-color="#FDF15F"/>
<stop offset="0.396" stop-color="#FFF4A1"/>
<stop offset="0.468" stop-color="#FEED98"/>
<stop offset="0.587" stop-color="#FDDB7F"/>
<stop offset="0.738" stop-color="#FABC56"/>
<stop offset="0.914" stop-color="#F7931E"/>
</linearGradient>
<linearGradient id="paint4_linear_57_56" x1="133.307" y1="108.984" x2="156.45" y2="125.804" gradientUnits="userSpaceOnUse">
<stop offset="0.135" stop-color="#FCEE21"/>
<stop offset="0.257" stop-color="#FDF15F"/>
<stop offset="0.396" stop-color="#FFF4A1"/>
<stop offset="0.468" stop-color="#FEED98"/>
<stop offset="0.587" stop-color="#FDDB7F"/>
<stop offset="0.738" stop-color="#FABC56"/>
<stop offset="0.914" stop-color="#F7931E"/>
</linearGradient>
<linearGradient id="paint5_linear_57_56" x1="84.4563" y1="138.786" x2="94.7788" y2="162.937" gradientUnits="userSpaceOnUse">
<stop offset="0.135" stop-color="#FCEE21"/>
<stop offset="0.257" stop-color="#FDF15F"/>
<stop offset="0.396" stop-color="#FFF4A1"/>
<stop offset="0.468" stop-color="#FEED98"/>
<stop offset="0.587" stop-color="#FDDB7F"/>
<stop offset="0.738" stop-color="#FABC56"/>
<stop offset="0.914" stop-color="#F7931E"/>
</linearGradient>
<linearGradient id="paint6_linear_57_56" x1="45.9709" y1="31.3759" x2="48.4418" y2="34.1097" gradientUnits="userSpaceOnUse">
<stop offset="0.135" stop-color="#FCEE21"/>
<stop offset="0.257" stop-color="#FDF15F"/>
<stop offset="0.396" stop-color="#FFF4A1"/>
<stop offset="0.468" stop-color="#FEED98"/>
<stop offset="0.587" stop-color="#FDDB7F"/>
<stop offset="0.738" stop-color="#FABC56"/>
<stop offset="0.914" stop-color="#F7931E"/>
</linearGradient>
<linearGradient id="paint7_linear_57_56" x1="86.5317" y1="26.508" x2="91.8796" y2="28.3152" gradientUnits="userSpaceOnUse">
<stop offset="0.135" stop-color="#FCEE21"/>
<stop offset="0.257" stop-color="#FDF15F"/>
<stop offset="0.396" stop-color="#FFF4A1"/>
<stop offset="0.468" stop-color="#FEED98"/>
<stop offset="0.587" stop-color="#FDDB7F"/>
<stop offset="0.738" stop-color="#FABC56"/>
<stop offset="0.914" stop-color="#F7931E"/>
</linearGradient>
<linearGradient id="paint8_linear_57_56" x1="205.272" y1="292.098" x2="483.408" y2="348.155" gradientUnits="userSpaceOnUse">
<stop offset="0.135" stop-color="#FCEE21"/>
<stop offset="0.257" stop-color="#FDF15F"/>
<stop offset="0.396" stop-color="#FFF4A1"/>
<stop offset="0.468" stop-color="#FEED98"/>
<stop offset="0.587" stop-color="#FDDB7F"/>
<stop offset="0.738" stop-color="#FABC56"/>
<stop offset="0.914" stop-color="#F7931E"/>
</linearGradient>
</defs>
</svg>
