<svg width="683" height="683" viewBox="0 0 683 683" fill="none" xmlns="http://www.w3.org/2000/svg" color="black">
<g clip-path="url(#clip0_5340_12)">
<path fill-rule="evenodd" clip-rule="evenodd" d="M507.925 637.246H659.906V659.91H461.264L495.942 642.594C499.949 640.485 502.803 637.246 507.924 637.246H507.925ZM682.57 635.912V658.589C681.528 671.235 677.125 682.573 661.24 682.573H21.3205C9.71119 682.573 -0.00976562 672.852 -0.00976562 661.243V635.769C1.03567 624.712 5.23567 616.791 19.7307 614.325C32.3134 612.184 124.122 613.25 141.306 613.25L106.842 579.722C103.277 575.256 100.039 572.674 96.1506 567.75C65.2904 528.658 48.4798 498.329 34.4907 450.765C14.252 381.955 20.3317 306.235 46.821 241.466C71.7445 180.527 118.519 125.842 174.695 92.0408C232.174 57.4549 258.689 58.9909 273.289 51.9858C270.021 45.8101 261.291 30.6555 261.291 22.6559C261.291 10.5301 271.406 -0.0078125 281.288 -0.0078125H399.941C412.153 -0.0078125 421.271 10.6895 421.271 22.6559C421.271 30.6546 412.541 45.8101 409.273 51.9858C422.701 58.4293 452.864 58.6808 507.176 91.3976C533.195 107.071 537.558 113.76 556.691 128.539C560.425 131.423 562.362 133.746 565.587 136.975C582.83 154.246 598.592 173.026 611.352 193.863C620.546 208.877 627.377 222.086 634.615 238.593C655.444 286.095 659.908 322.864 659.908 374.612C659.908 430.104 638.387 487.201 617.202 523.882L604.194 544.204C586.427 570.745 563.777 592.514 539.922 613.249C567.474 613.249 595.026 613.249 622.578 613.249C646.192 613.249 682.57 608.033 682.57 635.912ZM22.653 637.246H175.967L215.237 656.635C216.559 657.196 216.819 657.195 218.05 657.821C221.233 659.436 219.385 658.249 221.294 659.91H22.652V637.246H22.653ZM327.948 442.604C349.985 444.438 332.575 444.438 354.611 442.604C356.161 449.256 358.624 455.697 360.797 463.082C370.757 496.933 400.593 579.447 406.605 605.25C395.068 606.21 378.68 613.249 353.279 613.249C331.341 613.249 321.967 614.154 300.123 610.412L274.622 605.25L314.447 483.762C316.741 476.901 318.966 470.209 321.113 463.765C323.419 456.845 326.331 449.552 327.948 442.604ZM377.275 434.605C385.887 432.599 392.149 424.263 398.605 419.94L475.541 476.322C478.721 478.717 481.054 480.129 484.135 482.392L535.921 519.928C527.676 532.241 502.517 555.704 489.271 565.267C475.01 575.563 445.053 593.575 429.267 597.252L403.107 516.759C400.199 508.04 378.269 442.361 377.274 434.606L377.275 434.605ZM253.291 597.251C230.096 591.848 198.914 569.741 180.523 555.367C173.415 549.811 148.709 526.353 146.637 518.595C150.13 517.662 152.462 515.249 155.709 513.002L274.828 426.813C277.941 424.526 280.97 421.937 283.953 419.94C290.34 424.217 296.143 432.475 305.284 434.605L279.451 515.425C274.843 529.244 271.019 542.073 266.453 555.753C264.088 562.836 253.738 591.877 253.291 597.251ZM550.587 501.263L411.938 401.275C415.145 395.213 419.74 384.791 419.936 375.945H590.582C590.582 408.535 578.648 447.876 565.253 474.6C560.434 484.213 555.485 492.008 550.588 501.263H550.587ZM91.9774 375.945H262.623C262.821 384.791 267.415 395.213 270.622 401.275C265.032 404.233 258.311 409.479 253.291 413.273C247.657 417.532 242.291 421.185 236.349 425.66C224.584 434.52 213.113 442.001 201.486 450.789L149.671 488.296C143.69 492.759 137.863 497.318 131.973 501.262C130.508 495.777 91.9784 442.384 91.9784 375.945L91.9774 375.945ZM283.953 370.613C283.953 352.736 285.816 338.683 300.249 324.249C335.109 289.389 398.605 314.44 398.605 359.947C398.605 381.09 397.201 391.623 380.971 407.638C345.153 442.98 283.953 413.798 283.953 370.612V370.613ZM411.938 326.618C417.914 323.456 423.825 318.475 429.278 314.628L532.111 240.15C535.952 237.247 546.61 229.025 550.588 227.963C572.062 260.032 590.582 310.558 590.582 351.948H419.936C419.739 343.103 415.145 332.68 411.938 326.618ZM262.623 351.948H91.9774C91.9774 285.049 130.442 232.364 131.972 226.631C137.562 229.589 144.283 234.835 149.304 238.629L270.622 326.618C267.415 332.68 262.82 343.103 262.623 351.948ZM398.606 307.953C392.15 303.63 385.888 295.295 377.276 293.289L422.773 152.143C424.5 146.961 428.793 136.357 429.27 130.642C440.002 133.143 465.066 146.439 474.868 153.035C504.588 173.034 504.29 174.697 525.594 195.631C529.001 198.979 534.669 204.605 535.923 209.299C532.404 210.238 530.088 212.654 526.851 214.892L501.467 233.504C489.901 242 478.968 249.278 467.359 258.055L398.606 307.954V307.953ZM253.291 130.642L292.456 251.457C295.125 259.46 304.756 286.935 305.285 293.289C296.672 295.295 290.41 303.63 283.954 307.953C282.828 306.975 281.809 306.073 280.34 304.902L215.428 257.828C212.038 255.495 210.263 254.013 207.02 251.571L146.639 207.965C152.649 198.989 160.535 192.07 168.303 184.301C172.446 180.158 175.525 176.713 179.957 173.29C198.099 159.281 231.374 135.748 253.293 130.641L253.291 130.642ZM354.611 285.29C332.575 283.456 349.985 283.456 327.948 285.29C319.87 250.617 284.03 157.308 275.955 122.644C285.993 121.809 294.589 117.311 306.617 117.311C307.805 121.757 321.944 150.213 326.93 154.325C335.56 161.439 345.935 161.587 354.881 154.91C360.941 150.388 374.415 123.86 375.942 117.311C389.892 117.311 397.118 122.403 407.937 122.644L354.61 285.29H354.611ZM67.9803 354.614C67.9803 419.553 81.5163 468.875 118.096 521.805C133.216 543.683 162.23 572.762 184.216 587.669C295.897 663.393 439.736 651.442 533.589 557.589C614.145 477.033 636.064 363.469 593.077 257.464C585.778 239.466 571.068 215.06 559.172 199.38C556.529 195.897 555.391 194.665 552.677 191.211C518.023 147.091 467.662 115.217 412.997 100.253C404.344 97.8843 396.634 96.6719 387.94 94.6472L397.741 74.8818C423.252 74.4075 475.841 100.496 498.176 113.727C505.947 118.331 511.857 122.608 518.783 127.783L546.925 151.634C567.368 172.315 586.442 195.328 599.931 221.28C616.515 253.19 630.312 289 634.352 326.841C640.121 380.867 634.182 426.572 614.58 475.935C603.481 503.886 586.905 529.431 568.693 552.7C565.636 556.606 563.51 557.902 560.48 561.818C538.73 589.942 489.583 622.226 458.045 635.359C415.799 652.952 387.823 656.981 341.077 659.721C330.252 660.355 289.857 655.036 279.177 652.686C218.347 639.297 184.325 617.607 140.363 580.859C135.923 577.147 126.744 567.945 123.202 563.359C100.726 534.259 98.5438 536.648 79.9861 501.255C79.0693 499.508 78.0075 497.829 77.1138 496.128C70.749 484.004 63.7928 465.429 59.4632 452.453C53.0398 433.203 50.6686 416.371 47.3883 393.87C35.0504 309.227 77.6379 199.044 143.03 144.367C168.664 122.934 186.466 109.709 217.277 95.9615C233.805 88.5867 267.722 74.6485 285.286 74.6485L294.601 94.6549C255.475 103.748 221.72 113.129 187.574 138.249C165.656 154.374 158.087 160.363 138.278 180.942L125.114 197.106C110.117 217.211 101.496 230.476 90.6594 254.64C79.581 279.345 67.9803 319.1 67.9803 354.612V354.614ZM342.612 133.309H339.946C338.464 126.946 329.824 111.764 326.616 105.312L298.618 50.6533C295.651 44.7195 285.701 27.6296 285.287 22.6568H397.273L370.047 78.0872C365.892 85.0261 343.893 127.819 342.613 133.31L342.612 133.309Z" fill="currentColor"/>
<path fill-rule="evenodd" clip-rule="evenodd" d="M306.617 365.279C306.617 369.541 308.253 374.609 309.756 378.138C315.005 390.462 331.948 385.383 331.948 375.944C331.948 366.543 327.684 358.636 335.912 354.578C336.863 354.108 353.279 351.847 353.279 342.615C353.279 317.381 306.618 329.704 306.618 365.279H306.617Z" fill="currentColor"/>
</g>
<defs>
<clipPath id="clip0_5340_12">
<rect width="682.56" height="682.56" fill="white"/>
</clipPath>
</defs>
</svg>
