<svg xmlns="http://www.w3.org/2000/svg" width="45" height="45" viewBox="0 0 45 45" fill="none">
  <path fill-rule="evenodd" clip-rule="evenodd" d="M15.4776 14.2252C15.3562 14.0294 15.4052 13.8155 15.3999 13.5992C15.3938 13.3437 15.3514 13.2116 15.3396 12.9728L14.8674 6.50781C14.8548 6.05193 14.8078 5.67326 14.7913 5.21424L14.6752 3.9219C14.6685 3.86585 14.665 3.81203 14.6632 3.75929C13.2389 3.58665 11.804 3.57163 10.386 3.7125C10.3898 3.84304 10.3886 3.96186 10.372 4.13199C10.3491 4.36723 10.3767 4.52968 10.3793 4.76007C10.3948 6.10106 10.2757 7.9212 10.3207 9.27785C10.3289 9.527 10.29 9.65775 10.2983 9.90684L10.2811 11.8708C10.2856 11.9873 10.2939 12.0687 10.2871 12.1848C10.2522 12.7812 10.2825 14.1064 10.2229 14.4644C10.4963 14.5099 14.1406 14.3639 14.8137 14.3437C15.0416 14.3369 15.2725 14.4099 15.4776 14.2252Z" fill="white"/>
  <path fill-rule="evenodd" clip-rule="evenodd" d="M17.8861 22.361C19.3914 20.7607 17.422 17.5315 16.5418 16.1583L15.9415 15.2734L14.2147 15.307C14.1555 15.8657 14.8726 17.544 14.5299 17.9084C14.3632 18.0856 14.0937 18.1077 13.8617 17.8895C13.6699 17.709 13.3261 15.7206 13.2333 15.3169L12.4884 15.3622C12.4755 15.8383 12.2419 17.1203 12.1783 17.666L11.8055 19.9943C11.482 20.3383 11.3585 20.3359 11.0209 20.0183C10.855 19.8622 11.1989 17.9634 11.2337 17.7342L11.5475 15.4077L9.85933 15.4201C9.65206 15.6404 8.81554 17.2004 8.65682 17.5381C6.92048 21.2326 7.06578 23.4241 12.1185 23.8057C12.7241 23.8514 13.1345 23.8198 13.7272 23.7649L14.7449 23.6565C15.6118 23.5477 17.2546 23.0323 17.8861 22.3609V22.361Z" fill="white"/>
  <path fill-rule="evenodd" clip-rule="evenodd" d="M15.3266 31.0579C15.4557 31.9208 16.0309 31.7437 16.717 31.6411C16.1065 33.3769 16.7801 35.5348 18.0895 36.6816L18.5278 37.0194C20.3033 38.2304 22.179 38.227 24.0131 37.1198C25.5075 36.2176 26.399 34.139 26.135 32.3735C26.0914 32.0823 25.9664 31.6786 25.872 31.4155C25.7497 31.0746 25.6148 30.9005 25.4985 30.607C25.8935 30.2473 26.2135 29.8485 27.042 29.7246C27.8686 29.6009 28.2723 29.8786 28.7762 30.1168C28.754 30.3916 28.6781 30.5329 28.6555 30.9992C28.6055 32.0312 28.838 32.9926 29.38 33.8428C29.7293 34.3907 30.0843 34.7119 30.5405 35.1199C30.843 35.3906 31.6589 35.7722 32.0696 35.8988C35.2146 36.8686 38.5276 34.4441 38.3033 30.9298C38.2453 30.0226 37.9 29.1118 37.4758 28.5363C38.1568 28.4345 38.764 28.4364 38.6347 27.5718C38.6 27.3394 38.3612 27.1496 38.1794 27.0927C37.8953 27.0039 36.8625 27.2708 36.4059 27.3009C36.148 27.3179 36.014 27.139 35.8007 27.0244C34.1588 26.1421 32.1204 26.2474 30.6162 27.3889C30.3404 27.5982 30.1063 27.7749 29.8955 28.0297L29.3206 28.7786C29.1602 28.7605 29.2391 28.7639 29.1008 28.6927C27.7486 27.9961 25.8774 28.2676 24.7941 29.3166C24.6862 29.4212 24.732 29.4234 24.5861 29.4867L23.8173 28.9388C23.5422 28.7574 23.2567 28.6576 22.9455 28.5302C21.2899 27.8521 19.143 28.4246 17.8994 29.6817C17.3278 30.2596 17.7657 30.0879 16.5127 30.2753C16.2379 30.3164 15.8374 30.3355 15.6505 30.4472C15.4821 30.5479 15.29 30.8134 15.3265 31.0578L15.3266 31.0579Z" fill="white"/>
  <path fill-rule="evenodd" clip-rule="evenodd" d="M13.9819 42.3911C25.4797 47.2179 38.6145 42.0458 43.319 30.839C48.0236 19.6323 42.5165 6.63452 31.0186 1.80771C19.5208 -3.01906 6.38603 2.15297 1.6815 13.3598C-3.02309 24.5665 2.48397 37.5643 13.9819 42.3911ZM15.1066 39.7119C25.0864 43.9014 36.4868 39.4122 40.5702 29.6851C44.6536 19.958 39.8737 8.67643 29.8939 4.48696C19.9141 0.297446 8.51366 4.78662 4.43028 14.5137C0.346904 24.2408 5.12683 35.5224 15.1066 39.7119Z" fill="white"/>
  <path d="M40.5726 10.9997L36.6706 6.39844L5.30705 32.9952L9.20899 37.5965L40.5726 10.9997Z" fill="white"/>
</svg>
