<svg width="22" height="22" viewBox="0 0 22 22" fill="none" xmlns="http://www.w3.org/2000/svg">
<path d="M11 13.2C7.92 13.2 5.5 10.78 5.5 7.69995C5.5 4.61995 7.92 2.19995 11 2.19995C14.08 2.19995 16.5 4.61995 16.5 7.69995C16.5 10.78 14.08 13.2 11 13.2ZM11 3.29995C8.58 3.29995 6.6 5.27995 6.6 7.69995C6.6 10.12 8.58 12.1 11 12.1C13.42 12.1 15.4 10.12 15.4 7.69995C15.4 5.27995 13.42 3.29995 11 3.29995Z" fill="#01AB84"/>
<path d="M11 15.3999C6.71005 15.3999 3.30005 11.9899 3.30005 7.6999C3.30005 7.3699 3.52005 7.1499 3.85005 7.1499C4.18005 7.1499 4.40005 7.3699 4.40005 7.6999C4.40005 11.3299 7.37005 14.2999 11 14.2999C14.63 14.2999 17.6 11.3299 17.6 7.6999C17.6 7.3699 17.82 7.1499 18.15 7.1499C18.48 7.1499 18.7 7.3699 18.7 7.6999C18.7 11.9899 15.29 15.3999 11 15.3999Z" fill="#01AB84"/>
<path d="M5.5001 8.79995H4.4001C4.0701 8.79995 3.8501 8.57995 3.8501 8.24995C3.8501 7.91995 4.0701 7.69995 4.4001 7.69995H5.5001C5.8301 7.69995 6.0501 7.91995 6.0501 8.24995C6.0501 8.57995 5.8301 8.79995 5.5001 8.79995Z" fill="#01AB84"/>
<path d="M17.9299 8.79995H15.9499C15.6199 8.79995 15.3999 8.57995 15.3999 8.24995C15.3999 7.91995 15.6199 7.69995 15.9499 7.69995H17.9299C18.2599 7.69995 18.4799 7.91995 18.4799 8.24995C18.4799 8.57995 18.1499 8.79995 17.9299 8.79995Z" fill="#01AB84"/>
<path d="M11 19.2501C10.67 19.2501 10.45 19.0301 10.45 18.7001V15.4001C10.45 15.0701 10.67 14.8501 11 14.8501C11.33 14.8501 11.55 15.0701 11.55 15.4001V18.7001C11.55 19.0301 11.33 19.2501 11 19.2501Z" fill="#01AB84"/>
<path d="M13.75 19.8H8.24995C7.91995 19.8 7.69995 19.58 7.69995 19.25C7.69995 18.92 7.91995 18.7 8.24995 18.7H13.75C14.08 18.7 14.3 18.92 14.3 19.25C14.3 19.58 14.08 19.8 13.75 19.8Z" fill="#01AB84"/>
<path d="M12.6499 8.80003C12.5399 8.80003 12.3199 8.80003 12.2099 8.69003C11.9899 8.47003 11.9899 8.14003 12.2099 7.92003L13.3099 6.82003C13.5299 6.60003 13.8599 6.60003 14.0799 6.82003C14.2999 7.04003 14.2999 7.37003 14.0799 7.59003L12.9799 8.69003C12.9799 8.80003 12.7599 8.80003 12.6499 8.80003Z" fill="#01AB84"/>
<path d="M9.89992 8.79988C9.78992 8.79988 9.56992 8.79988 9.45992 8.68988C9.23992 8.46988 9.23992 8.13988 9.45992 7.91988L12.2099 5.16988C12.4299 4.94988 12.7599 4.94988 12.9799 5.16988C13.1999 5.38988 13.1999 5.71988 12.9799 5.93988L10.3399 8.68988C10.2299 8.79988 10.0099 8.79988 9.89992 8.79988Z" fill="#01AB84"/>
<path d="M11.55 9.90005C11.8538 9.90005 12.1 9.65381 12.1 9.35005C12.1 9.04629 11.8538 8.80005 11.55 8.80005C11.2462 8.80005 11 9.04629 11 9.35005C11 9.65381 11.2462 9.90005 11.55 9.90005Z" fill="#01AB84"/>
</svg>
