<svg color="#01AB84" width="16" height="18" viewBox="0 0 16 18" fill="none" xmlns="http://www.w3.org/2000/svg">
<path d="M8 11.1993C4.92 11.1993 2.5 8.77927 2.5 5.69922C2.5 2.61922 4.92 0.199219 8 0.199219C11.08 0.199219 13.5 2.61922 13.5 5.69922C13.5 8.77927 11.08 11.1993 8 11.1993ZM8 1.29922C5.58 1.29922 3.6 3.27922 3.6 5.69922C3.6 8.11927 5.58 10.0993 8 10.0993C10.42 10.0993 12.4 8.11927 12.4 5.69922C12.4 3.27922 10.42 1.29922 8 1.29922Z" fill="currentColor"/>
<path d="M8 13.3984C3.71005 13.3984 0.300049 9.98844 0.300049 5.69844C0.300049 5.36844 0.520049 5.14844 0.850049 5.14844C1.18005 5.14844 1.40005 5.36844 1.40005 5.69844C1.40005 9.32844 4.37005 12.2984 8 12.2984C11.63 12.2984 14.6 9.32844 14.6 5.69844C14.6 5.36844 14.82 5.14844 15.15 5.14844C15.48 5.14844 15.7 5.36844 15.7 5.69844C15.7 9.98844 12.29 13.3984 8 13.3984Z" fill="currentColor"/>
<path d="M2.5001 6.79922H1.4001C1.0701 6.79922 0.850098 6.57922 0.850098 6.24922C0.850098 5.91922 1.0701 5.69922 1.4001 5.69922H2.5001C2.8301 5.69922 3.0501 5.91922 3.0501 6.24922C3.0501 6.57922 2.8301 6.79922 2.5001 6.79922Z" fill="currentColor"/>
<path d="M14.9299 6.79922H12.9499C12.6199 6.79922 12.3999 6.57922 12.3999 6.24922C12.3999 5.91922 12.6199 5.69922 12.9499 5.69922H14.9299C15.2599 5.69922 15.4799 5.91922 15.4799 6.24922C15.4799 6.57922 15.1499 6.79922 14.9299 6.79922Z" fill="currentColor"/>
<path d="M7.99995 17.2516C7.66995 17.2516 7.44995 17.0316 7.44995 16.7016V13.4016C7.44995 13.0716 7.66995 12.8516 7.99995 12.8516C8.32995 12.8516 8.54995 13.0716 8.54995 13.4016V16.7016C8.54995 17.0316 8.32995 17.2516 7.99995 17.2516Z" fill="currentColor"/>
<path d="M10.75 17.7992H5.24995C4.91995 17.7992 4.69995 17.5792 4.69995 17.2492C4.69995 16.9192 4.91995 16.6992 5.24995 16.6992H10.75C11.08 16.6992 11.3 16.9192 11.3 17.2492C11.3 17.5792 11.08 17.7992 10.75 17.7992Z" fill="currentColor"/>
<path d="M9.64992 6.80125C9.53992 6.80125 9.31992 6.80125 9.20992 6.69125C8.98992 6.47125 8.98992 6.14125 9.20992 5.92125L10.3099 4.82125C10.5299 4.60125 10.8599 4.60125 11.0799 4.82125C11.2999 5.04125 11.2999 5.37125 11.0799 5.59125L9.97992 6.69125C9.97992 6.80125 9.75992 6.80125 9.64992 6.80125Z" fill="currentColor"/>
<path d="M6.89992 6.79891C6.78992 6.79891 6.56992 6.79891 6.45992 6.68891C6.23992 6.46891 6.23992 6.13891 6.45992 5.91891L9.2099 3.16891C9.4299 2.94891 9.7599 2.94891 9.9799 3.16891C10.1999 3.38891 10.1999 3.71891 9.9799 3.93891L7.3399 6.68891C7.2299 6.79891 7.0099 6.79891 6.89992 6.79891Z" fill="currentColor"/>
<path d="M8.55 7.90078C8.8538 7.90078 9.1 7.65454 9.1 7.35078C9.1 7.04702 8.8538 6.80078 8.55 6.80078C8.2462 6.80078 8 7.04702 8 7.35078C8 7.65454 8.2462 7.90078 8.55 7.90078Z" fill="currentColor"/>
</svg>
