<svg width="15" height="15" viewBox="0 0 15 15" fill="none" xmlns="http://www.w3.org/2000/svg">
<g clip-path="url(#clip0_660_482)">
<path fill-rule="evenodd" clip-rule="evenodd" d="M7.50247 0.623047C3.71252 0.623047 0.622559 3.70863 0.622559 7.49796C0.622559 11.2873 3.71314 14.3766 7.50247 14.3766C11.2918 14.3766 14.3761 11.2873 14.3761 7.49796C14.3761 3.70863 11.2918 0.623047 7.50247 0.623047ZM7.50247 1.87303C8.24144 1.8718 8.97337 2.01646 9.65631 2.29871C10.3392 2.58097 10.9597 2.99527 11.4822 3.51786C12.0047 4.04044 12.4188 4.66103 12.7009 5.34403C12.9831 6.02703 13.1276 6.759 13.1262 7.49796C13.1276 8.23712 12.9832 8.96931 12.7012 9.65256C12.4192 10.3358 12.0051 10.9567 11.4826 11.4796C10.9602 12.0025 10.3397 12.4171 9.65669 12.6998C8.9737 12.9824 8.24164 13.1275 7.50247 13.1266C6.76299 13.1275 6.03059 12.9826 5.34721 12.7C4.66383 12.4175 4.04289 12.003 3.51994 11.4801C2.99698 10.9573 2.5823 10.3364 2.29961 9.65313C2.01693 8.96981 1.8718 8.23744 1.87254 7.49796C1.87254 4.38425 4.38876 1.87303 7.50247 1.87303ZM7.49247 3.11427C7.40986 3.11508 7.32823 3.13225 7.2523 3.16481C7.17637 3.19737 7.10765 3.24465 7.05011 3.30394C6.99258 3.36322 6.94736 3.43332 6.91709 3.51019C6.88681 3.58705 6.87207 3.66916 6.87373 3.75176V7.49796C6.87407 7.5802 6.89065 7.66157 6.9225 7.7374C6.95436 7.81322 7.00086 7.88201 7.05935 7.93983L9.55932 10.441C9.61715 10.5006 9.68625 10.548 9.76258 10.5805C9.83892 10.613 9.92097 10.63 10.0039 10.6305C10.0869 10.6309 10.1692 10.6149 10.2459 10.5833C10.3226 10.5516 10.3922 10.505 10.4507 10.4462C10.5092 10.3873 10.5554 10.3174 10.5866 10.2405C10.6179 10.1637 10.6334 10.0813 10.6325 9.99836C10.6315 9.91539 10.6141 9.83343 10.5811 9.75728C10.5482 9.68113 10.5004 9.6123 10.4406 9.55481L8.12496 7.23921V3.75176C8.12665 3.668 8.11147 3.58476 8.08035 3.50699C8.04922 3.42921 8.00277 3.35849 7.94377 3.29902C7.88477 3.23955 7.81441 3.19255 7.73688 3.16081C7.65936 3.12907 7.57624 3.11324 7.49247 3.11427Z" fill="#01AB84"/>
</g>
<defs>
<clipPath id="clip0_660_482">
<rect width="15" height="15" fill="white"/>
</clipPath>
</defs>
</svg>
