<svg width="25" height="25" viewBox="0 0 25 25" fill="none" xmlns="http://www.w3.org/2000/svg" color="#B9B0B0">
<path d="M3.99219 14.9297C5.33407 14.9297 6.42188 13.8419 6.42188 12.5C6.42188 11.1581 5.33407 10.0703 3.99219 10.0703C2.65031 10.0703 1.5625 11.1581 1.5625 12.5C1.5625 13.8419 2.65031 14.9297 3.99219 14.9297Z" fill="currentColor"/>
<path d="M12.5 14.9297C13.8419 14.9297 14.9297 13.8419 14.9297 12.5C14.9297 11.1581 13.8419 10.0703 12.5 10.0703C11.1581 10.0703 10.0703 11.1581 10.0703 12.5C10.0703 13.8419 11.1581 14.9297 12.5 14.9297Z" fill="currentColor"/>
<path d="M21.0078 14.9297C22.3497 14.9297 23.4375 13.8419 23.4375 12.5C23.4375 11.1581 22.3497 10.0703 21.0078 10.0703C19.6659 10.0703 18.5781 11.1581 18.5781 12.5C18.5781 13.8419 19.6659 14.9297 21.0078 14.9297Z" fill="currentColor"/>
</svg>
