<svg width="20" height="20" viewBox="0 0 20 20" fill="none" xmlns="http://www.w3.org/2000/svg">
<g clip-path="url(#clip0_23_244)">
<path d="M14.625 12.5218C14.5576 12.6335 14.4622 12.7258 14.3484 12.7896C14.2345 12.8534 14.106 12.8864 13.9755 12.8855C13.8342 12.8863 13.6958 12.8464 13.5766 12.7707L13.6659 12.8313C13.8082 12.9184 13.9181 13.0495 13.979 13.2048C14.0398 13.36 14.0484 13.5309 14.0032 13.6914C13.9581 13.852 13.8618 13.9934 13.7289 14.0942C13.5961 14.195 13.434 14.2497 13.2672 14.2499C13.1621 14.2502 13.0581 14.2279 12.9623 14.1844L12.9752 14.1971C13.1482 14.3026 13.2723 14.4726 13.32 14.6697C13.3678 14.8667 13.3354 15.0746 13.2298 15.2477L13.2272 15.2519C13.1592 15.3643 13.0632 15.457 12.9484 15.5208C12.8337 15.5846 12.7043 15.6174 12.573 15.6158C12.4379 15.6158 12.3052 15.58 12.1884 15.5121C12.3107 15.6121 12.399 15.7475 12.4412 15.8997C12.4835 16.0519 12.4777 16.2135 12.4245 16.3622C12.3714 16.511 12.2735 16.6396 12.1444 16.7306C12.0152 16.8215 11.8611 16.8703 11.7031 16.8702C11.5608 16.8707 11.4212 16.8321 11.2994 16.7585L7.74906 14.574L5.73828 13.6596L5.05703 11.9025L3.93359 11.2643C3.95438 11.2388 3.975 11.21 3.99422 11.1813L6.67672 6.97489L7.21438 7.26692L8.9825 6.15942L10.4714 6.55364L9.87609 8.78614L14.3761 11.4669C14.5489 11.5739 14.6721 11.7451 14.7188 11.9428C14.7655 12.1406 14.7317 12.3488 14.625 12.5218Z" fill="#FEDD8E"/>
<path d="M14.6249 12.5218C14.5695 12.6144 14.4945 12.6938 14.4052 12.7545C14.3159 12.8151 14.2144 12.8555 14.1079 12.8729C14.1345 12.7215 14.1153 12.5655 14.0528 12.4251C13.9902 12.2847 13.8872 12.1661 13.7568 12.0846L9.25852 9.40366L9.85383 7.17288L8.86117 7.08663L7.09148 8.19413L6.20898 7.70976L6.67664 6.97538L7.2143 7.26741L8.98242 6.15991L10.4713 6.55413L9.87602 8.78663L14.376 11.4674C14.5487 11.5744 14.6718 11.7455 14.7185 11.9431C14.7652 12.1408 14.7315 12.3489 14.6249 12.5218Z" fill="#FEE9B4"/>
<path d="M12.4531 16.24C12.4361 16.3352 12.402 16.4265 12.3527 16.5097C12.2448 16.681 12.074 16.8031 11.8769 16.8497C11.6799 16.8962 11.4725 16.8635 11.2994 16.7586L7.74906 14.5741L5.73828 13.6597L5.05703 11.9026L3.93359 11.2644C3.95438 11.2389 3.975 11.2101 3.99422 11.1814L4.39312 10.5564L5.67609 11.2856L6.35594 13.0425L8.36656 13.9569L11.9187 16.1406C12.04 16.2142 12.1791 16.2528 12.3209 16.2523C12.3652 16.2514 12.4094 16.2473 12.4531 16.24Z" fill="#FDD367"/>
<path d="M15.9496 9.97981L14.3762 11.467L9.87615 8.78622L9.58412 9.67497C9.47826 9.99847 9.27873 10.2833 9.01082 10.4932C8.74292 10.7032 8.4187 10.8289 8.07928 10.8543L7.31006 10.8734L8.46865 7.91481L10.4729 6.55544H12.249L13.1865 6.01294L15.9496 9.97981Z" fill="#FEE9B4"/>
<path d="M13.6755 6.71325L12.758 7.2431H10.9804L8.97771 8.60106L8.09678 10.8511C8.09134 10.8537 8.0853 10.8548 8.07928 10.8543L7.31006 10.875L8.46865 7.91325L10.4713 6.55388H12.249L13.1865 6.01294L13.6755 6.71325Z" fill="#FFF3D9"/>
<path d="M15.9497 9.97987L14.3794 11.4671L13.6199 11.0155L15.4599 9.27612L15.9497 9.97987Z" fill="#FEDD8E"/>
<path d="M7.21259 13.6548L6.69072 14.5438C6.6589 14.5974 6.60718 14.6361 6.54687 14.6517C6.48655 14.6672 6.42255 14.6582 6.36884 14.6267L5.47978 14.1048C5.42641 14.0732 5.38773 14.0218 5.37221 13.9617C5.35669 13.9017 5.36559 13.838 5.39697 13.7845L5.91884 12.8938C5.95042 12.8405 6.00186 12.8018 6.06189 12.7863C6.12193 12.7707 6.18567 12.7797 6.23915 12.811L7.12978 13.3329C7.18332 13.3647 7.22209 13.4164 7.2376 13.4768C7.25312 13.5371 7.24413 13.6011 7.21259 13.6548Z" fill="#FEE9B4"/>
<path d="M7.19584 13.6672L6.67409 14.5566C6.60842 14.6685 6.64592 14.8125 6.75787 14.8782L7.64721 15.3999C7.75915 15.4656 7.90314 15.4281 7.96882 15.3162L8.49057 14.4268C8.55624 14.3149 8.51874 14.1709 8.40679 14.1052L7.51745 13.5835C7.40551 13.5178 7.26152 13.5553 7.19584 13.6672Z" fill="#FEE9B4"/>
<path d="M8.47392 14.4397L7.95217 15.329C7.88649 15.441 7.924 15.585 8.03594 15.6507L8.92529 16.1724C9.03723 16.2381 9.18122 16.2006 9.24689 16.0886L9.76865 15.1993C9.83432 15.0873 9.79681 14.9434 9.68487 14.8777L8.79553 14.3559C8.68358 14.2903 8.53959 14.3278 8.47392 14.4397Z" fill="#FEE9B4"/>
<path d="M9.75854 15.2072L9.23686 16.0969C9.17117 16.209 9.20874 16.3531 9.32078 16.4187L10.2105 16.9404C10.3226 17.0061 10.4666 16.9685 10.5323 16.8565L11.054 15.9668C11.1197 15.8547 11.0821 15.7106 10.9701 15.645L10.0803 15.1233C9.9683 15.0576 9.82423 15.0952 9.75854 15.2072Z" fill="#FEE9B4"/>
<path d="M6.71489 6.91444L3.99411 11.1815C3.88096 11.3586 3.70217 11.4837 3.49694 11.5292C3.29172 11.5746 3.07683 11.5369 2.89942 11.4241L0.159424 9.67679L3.73239 4.07397L6.47224 5.81976C6.64926 5.93302 6.77419 6.11181 6.81967 6.31698C6.86515 6.52215 6.82747 6.73699 6.71489 6.91444Z" fill="#7BDE9E"/>
<path d="M6.71401 6.91411L6.21089 7.70474C6.26501 7.53778 6.26215 7.35757 6.20276 7.19242C6.14337 7.02726 6.03081 6.8865 5.88276 6.79224L3.12183 5.03286L3.73276 4.07349L6.47183 5.82036H6.47339C6.56104 5.87635 6.63679 5.94906 6.69633 6.03433C6.75587 6.11961 6.79802 6.21578 6.82038 6.31735C6.84274 6.41892 6.84487 6.5239 6.82665 6.6263C6.80842 6.72869 6.77005 6.82649 6.71401 6.91411Z" fill="#A7E9BF"/>
<path d="M4.4187 10.5157L3.99526 11.1813C3.88187 11.3584 3.70293 11.4833 3.49763 11.5286C3.29234 11.574 3.07742 11.5362 2.89995 11.4235L0.160889 9.67661L0.695264 8.83911L3.4562 10.6016C3.60371 10.6953 3.77801 10.7376 3.95204 10.7221C4.12608 10.7065 4.29012 10.634 4.4187 10.5157Z" fill="#50D27E"/>
<path d="M19.8417 8.49432L17.1752 10.3518C17.0023 10.4716 16.7891 10.518 16.5822 10.4809C16.3752 10.4438 16.1914 10.3262 16.0709 10.1538L13.1794 6.00166C13.0596 5.82885 13.0132 5.61562 13.0503 5.40867C13.0874 5.20171 13.205 5.01789 13.3773 4.89744L16.0438 3.0415L19.8417 8.49432Z" fill="#7AD1F9"/>
<path d="M19.8422 8.49536L17.175 10.35L17.1735 10.3516C17.088 10.411 16.9917 10.453 16.89 10.4752C16.7883 10.4974 16.6833 10.4993 16.5808 10.4809C16.4784 10.4624 16.3806 10.424 16.293 10.3678C16.2054 10.3116 16.1298 10.2386 16.0704 10.1532L15.5344 9.38442C15.6655 9.51922 15.8402 9.6031 16.0273 9.62113C16.2144 9.63916 16.4019 9.59016 16.5563 9.48286L19.2329 7.62036L19.8422 8.49536Z" fill="#4CC3F7"/>
<path d="M16.6203 3.87022L13.9453 5.73428C13.791 5.84201 13.6802 6.00134 13.6329 6.18354C13.5856 6.36574 13.605 6.55884 13.6875 6.72803L13.1797 5.9999C13.0599 5.82768 13.0133 5.61493 13.0502 5.40838C13.0871 5.20183 13.2045 5.01839 13.3766 4.89834L16.0438 3.04053L16.6203 3.87022Z" fill="#A6E1FB"/>
<path d="M19.9713 8.40335L16.1744 2.94913C16.1502 2.91441 16.1132 2.8907 16.0716 2.88319C16.051 2.87942 16.0298 2.87979 16.0093 2.8843C15.9889 2.88881 15.9695 2.89736 15.9524 2.90944L13.2866 4.76663C13.099 4.89669 12.9646 5.08998 12.9079 5.31109C12.8513 5.5322 12.8762 5.76631 12.9781 5.97054L12.2108 6.41319H10.492L9.01908 6.02257C9.00024 6.01784 8.98063 6.01695 8.96144 6.01995C8.94224 6.02296 8.92385 6.0298 8.90736 6.04007L7.20798 7.10257L6.88939 6.92944C6.99927 6.71803 7.0262 6.47319 6.96488 6.24295C6.90357 6.01271 6.75845 5.81369 6.55798 5.68491L3.81814 3.93913C3.78245 3.91651 3.73926 3.90894 3.698 3.91807C3.65675 3.92721 3.62079 3.95231 3.59798 3.98788L0.0250161 9.5907C0.00228706 9.62637 -0.00536157 9.6696 0.00374876 9.7109C0.0128591 9.7522 0.0379841 9.78821 0.0736098 9.81101L2.81423 11.5588C2.99259 11.6718 3.20336 11.7224 3.41356 11.7028C3.62377 11.6832 3.82155 11.5945 3.97595 11.4505L4.94361 12.0016L5.47345 13.3707L5.27408 13.7123C5.24879 13.7548 5.23223 13.802 5.22537 13.851C5.2185 13.9001 5.22146 13.95 5.23408 13.9979C5.2594 14.0945 5.32192 14.1771 5.40798 14.2277L6.29861 14.7494C6.3561 14.7833 6.42171 14.801 6.48845 14.8005C6.49971 14.8002 6.51094 14.7991 6.52205 14.7973C6.55062 14.8824 6.60893 14.9543 6.68627 14.9999L7.57517 15.5216C7.63255 15.556 7.69815 15.5742 7.76502 15.5743C7.77611 15.5743 7.78892 15.5696 7.80017 15.5696C7.82858 15.6549 7.88691 15.7271 7.96439 15.7727L8.8533 16.2944C8.91086 16.3285 8.97642 16.3467 9.0433 16.3471C9.05595 16.3471 9.0672 16.344 9.0783 16.344C9.10716 16.4291 9.16545 16.5011 9.24267 16.5471L10.1316 17.0688C10.1893 17.1023 10.2547 17.1199 10.3214 17.1199C10.3538 17.1204 10.3861 17.1161 10.4172 17.1073C10.4652 17.095 10.5102 17.0733 10.5496 17.0434C10.5891 17.0135 10.6221 16.9761 10.6469 16.9332L10.8241 16.6332L11.2263 16.8805C11.3901 16.9805 11.5813 17.0262 11.7727 17.011C11.964 16.9958 12.1457 16.9206 12.2917 16.796C12.4377 16.6714 12.5406 16.5038 12.5856 16.3172C12.6307 16.1307 12.6157 15.9346 12.5427 15.7571C12.7033 15.7655 12.8632 15.73 13.0052 15.6544C13.1471 15.5788 13.2659 15.466 13.3486 15.328C13.4118 15.2271 13.4542 15.1146 13.4734 14.997C13.4926 14.8795 13.4881 14.7593 13.4603 14.6435C13.4384 14.5538 13.4035 14.4678 13.3566 14.3882C13.4755 14.376 13.5908 14.3405 13.696 14.2837C13.8012 14.2269 13.8942 14.1499 13.9696 14.0572C14.0451 13.9644 14.1015 13.8578 14.1358 13.7432C14.17 13.6287 14.1813 13.5085 14.1691 13.3896C14.1651 13.3514 14.1587 13.3135 14.15 13.2762C14.1298 13.1881 14.0959 13.1037 14.0494 13.0262C14.2897 13.0053 14.5118 12.8899 14.6671 12.7053C14.8224 12.5207 14.898 12.2821 14.8775 12.0418C14.8739 11.9997 14.8674 11.9579 14.8578 11.9168C14.8169 11.7414 14.725 11.5821 14.5938 11.4588L15.9144 10.2113L15.9388 10.2463C16.0095 10.3493 16.1 10.4372 16.205 10.5049C16.31 10.5726 16.4275 10.6187 16.5505 10.6405C16.6072 10.6509 16.6647 10.6561 16.7224 10.6562C16.9165 10.656 17.1058 10.596 17.2645 10.4843L19.9311 8.62491C19.9657 8.6008 19.9894 8.56395 19.9969 8.52243C20.0045 8.4809 19.9952 8.43808 19.9713 8.40335ZM3.85939 11.0955C3.76891 11.2368 3.6262 11.3365 3.46244 11.3728C3.29869 11.4091 3.12721 11.3792 2.98548 11.2894L0.37986 9.62773L3.78127 4.29413L6.38627 5.95398C6.52767 6.04458 6.62746 6.18748 6.66383 6.35144C6.70019 6.5154 6.67017 6.68708 6.58033 6.82898L3.85939 11.0955ZM6.5522 14.4843C6.54908 14.4874 6.54908 14.4923 6.5458 14.4954C6.53616 14.5041 6.52475 14.5107 6.51236 14.5146C6.48799 14.5194 6.46271 14.516 6.44049 14.5049L5.55173 13.9843C5.5306 13.9713 5.5152 13.9507 5.50861 13.9268C5.50535 13.9151 5.50452 13.9028 5.50616 13.8907C5.5078 13.8787 5.51188 13.8671 5.51814 13.8566L6.04002 12.966C6.05259 12.9447 6.07306 12.9293 6.09696 12.923C6.12087 12.9168 6.14628 12.9202 6.16767 12.9326L7.05642 13.453C7.07457 13.464 7.08844 13.4808 7.09571 13.5007C7.10299 13.5206 7.10324 13.5424 7.09642 13.5624C7.08782 13.572 7.08032 13.5824 7.07408 13.5937L6.5522 14.4843ZM7.83049 15.2566C7.8272 15.2615 7.8272 15.2646 7.82408 15.2693C7.81394 15.2779 7.80188 15.284 7.78892 15.2869C7.77718 15.2901 7.76493 15.2909 7.75288 15.2893C7.74083 15.2876 7.72923 15.2836 7.71877 15.2774L6.82986 14.7555C6.80859 14.743 6.79314 14.7225 6.78688 14.6986C6.78062 14.6747 6.78405 14.6493 6.79642 14.6279L7.31814 13.7373C7.33131 13.7166 7.35189 13.7018 7.37564 13.6959C7.38332 13.6932 7.39144 13.6921 7.39955 13.6926C7.41611 13.692 7.43247 13.6964 7.44642 13.7054L8.33533 14.2273C8.35337 14.238 8.36718 14.2547 8.37443 14.2744C8.38168 14.2942 8.38194 14.3158 8.37517 14.3357C8.36691 14.3455 8.35944 14.356 8.35283 14.3669L7.83049 15.2566ZM9.10705 16.029C9.10573 16.0334 9.10412 16.0376 9.1022 16.0418C9.08748 16.0535 9.06956 16.0606 9.05078 16.062C9.03199 16.0634 9.01321 16.0592 8.99689 16.0498L8.10814 15.5279C8.08684 15.5153 8.07136 15.4949 8.06507 15.471C8.05878 15.4471 8.06218 15.4216 8.07455 15.4002L8.59642 14.5113C8.60239 14.5005 8.61059 14.4911 8.62048 14.4837C8.63036 14.4763 8.64171 14.471 8.65377 14.4684C8.66166 14.4665 8.66972 14.4654 8.67783 14.4651C8.6943 14.4652 8.71045 14.4696 8.7247 14.4779L9.61283 14.9999C9.63395 15.0129 9.64936 15.0334 9.65595 15.0573C9.65967 15.0742 9.65859 15.0919 9.65283 15.1084C9.64486 15.1196 9.6372 15.1291 9.62892 15.1396L9.10705 16.029ZM10.9245 15.9001L10.4028 16.7907C10.3897 16.8114 10.3691 16.8263 10.3453 16.8323C10.3336 16.8355 10.3213 16.8363 10.3093 16.8347C10.2972 16.8331 10.2856 16.829 10.2752 16.8227L9.38627 16.3008C9.37566 16.295 9.36637 16.287 9.35896 16.2774C9.35155 16.2678 9.34616 16.2568 9.34314 16.2451C9.3399 16.233 9.33909 16.2205 9.34075 16.2082C9.34242 16.1958 9.34652 16.1839 9.35283 16.1732L9.87502 15.284C9.88323 15.27 9.89488 15.2584 9.90885 15.2502C9.92283 15.242 9.93866 15.2375 9.95486 15.2371C9.97158 15.2376 9.98796 15.2419 10.0027 15.2499L10.8916 15.7718C10.9127 15.7847 10.9281 15.8052 10.9347 15.8291C10.938 15.841 10.9388 15.8535 10.937 15.8657C10.9353 15.8779 10.931 15.8896 10.9245 15.9001ZM14.5039 12.4484C14.4617 12.5176 14.4062 12.5778 14.3407 12.6255C14.2752 12.6733 14.2009 12.7077 14.1221 12.7268C14.0433 12.7458 13.9616 12.7492 13.8815 12.7366C13.8014 12.7241 13.7245 12.6959 13.6553 12.6537L13.6519 12.6516C13.6513 12.651 13.6505 12.6506 13.6497 12.6503C13.6489 12.6501 13.6481 12.65 13.6472 12.6501L12.198 11.7812C12.1658 11.7617 12.1272 11.7558 12.0907 11.7648C12.0542 11.7738 12.0228 11.797 12.0033 11.8291C11.9838 11.8613 11.978 11.8999 11.987 11.9364C11.996 11.9729 12.0191 12.0044 12.0513 12.0238L13.5035 12.8935C13.5047 12.8936 13.5058 12.8942 13.5066 12.8951L13.5927 12.9509C13.7338 13.0376 13.8347 13.1769 13.8732 13.338C13.9117 13.4992 13.8847 13.669 13.798 13.8102L13.7958 13.8138C13.7403 13.9039 13.6626 13.9783 13.5701 14.0297C13.4776 14.0812 13.3735 14.108 13.2677 14.1076C13.1834 14.1077 13.1001 14.0898 13.0235 14.0549L11.3188 13.0134C11.2863 12.994 11.2476 12.9882 11.2109 12.9972C11.1742 13.0061 11.1425 13.0291 11.1225 13.0612C11.1032 13.0934 11.0974 13.1319 11.1063 13.1684C11.1153 13.2048 11.1383 13.2363 11.1703 13.2558L12.8763 14.2979C12.884 14.3057 12.8926 14.3126 12.9017 14.3187C13.0384 14.4059 13.1358 14.5429 13.1732 14.7007C13.2106 14.8585 13.1851 15.0247 13.1022 15.164C13.0192 15.3033 12.8853 15.4049 12.7287 15.4472C12.5722 15.4895 12.4053 15.4691 12.2635 15.3905L10.7139 14.4062C10.6828 14.3878 10.6459 14.382 10.6108 14.39C10.5756 14.3979 10.5447 14.419 10.5245 14.4489C10.5043 14.4787 10.4963 14.5152 10.502 14.5508C10.5078 14.5865 10.5269 14.6185 10.5555 14.6405L10.5624 14.6449L12.1024 15.6249C12.2227 15.7264 12.3004 15.8696 12.3197 16.0258C12.3391 16.1821 12.2988 16.3399 12.2068 16.4677C12.1149 16.5955 11.9781 16.6839 11.8238 16.7153C11.6695 16.7466 11.509 16.7185 11.3745 16.6366L10.9683 16.3866L11.1694 16.0437C11.2198 15.9575 11.234 15.8548 11.2089 15.7582C11.1838 15.6615 11.1214 15.5788 11.0353 15.528L10.1466 15.0062C10.0779 14.9668 9.99871 14.9496 9.91986 14.9568C9.89223 14.872 9.83425 14.8004 9.75705 14.7557L8.86767 14.2343C8.79894 14.1935 8.71884 14.1761 8.63939 14.1848C8.61188 14.0999 8.55469 14.0278 8.4783 13.9816L7.58955 13.4598C7.52168 13.4199 7.44274 13.4032 7.36455 13.4119C7.33608 13.3266 7.27769 13.2545 7.20017 13.2088L6.31127 12.6874C6.2687 12.6621 6.22151 12.6456 6.17247 12.6387C6.12342 12.6319 6.07351 12.6349 6.02564 12.6476C5.92906 12.6729 5.84642 12.7354 5.7958 12.8215L5.65705 13.0577L5.18939 11.8513C5.1778 11.8207 5.15563 11.7952 5.12689 11.7794L4.15392 11.2266L6.74048 7.17179L7.1458 7.39226C7.16807 7.40407 7.19305 7.40984 7.21824 7.40899C7.24344 7.40814 7.26797 7.4007 7.28939 7.38741L9.00642 6.31241L10.1363 6.61241L8.38892 7.79679C8.36519 7.81276 8.34684 7.83553 8.33627 7.8621L7.18002 10.8223C7.17145 10.8439 7.16839 10.8674 7.17111 10.8905C7.17384 10.9136 7.18227 10.9357 7.19564 10.9548C7.2094 10.9736 7.22742 10.9889 7.24822 10.9994C7.26902 11.0099 7.29201 11.0154 7.31533 11.0154L8.0908 10.9963C8.45823 10.9683 8.80909 10.8319 9.09905 10.6045C9.38901 10.3771 9.60505 10.0688 9.71986 9.71866L9.95502 8.99679L14.3013 11.589C14.3717 11.6322 14.4329 11.6889 14.4812 11.756C14.5295 11.8231 14.5639 11.8991 14.5825 11.9796C14.6013 12.059 14.6041 12.1414 14.5906 12.2219C14.5771 12.3024 14.5476 12.3794 14.5039 12.4484ZM14.3578 11.2905L10.1453 8.78273L11.2422 8.07804C11.2738 8.05745 11.296 8.02519 11.3039 7.9883C11.3118 7.95141 11.3048 7.9129 11.2844 7.88116C11.2649 7.8498 11.2338 7.82744 11.1978 7.81901C11.1619 7.81057 11.1241 7.81674 11.0927 7.83616L11.0906 7.83741L11.0891 7.83898L9.82345 8.65773C9.80476 8.66532 9.78787 8.67676 9.77388 8.69129C9.75988 8.70583 9.74909 8.72314 9.7422 8.7421L9.45002 9.6296C9.35389 9.92572 9.17209 10.1867 8.9276 10.3794C8.68312 10.5722 8.38695 10.6881 8.07658 10.7124L7.52033 10.7265L8.58595 8.00773L10.5156 6.69679H12.2485C12.2736 6.6969 12.2984 6.69044 12.3203 6.67804L13.1313 6.20929L15.75 9.97179L14.3578 11.2905ZM17.0825 10.2198C17.0146 10.2672 16.9381 10.3009 16.8572 10.3188C16.7763 10.3367 16.6927 10.3385 16.6111 10.324C16.5296 10.3096 16.4516 10.2793 16.3818 10.2347C16.3119 10.1902 16.2516 10.1323 16.2041 10.0644L16.202 10.0615L13.3114 5.90913C13.2155 5.7718 13.1781 5.602 13.2074 5.43708C13.2367 5.27217 13.3303 5.12565 13.4677 5.02976L13.4691 5.02882L16.0047 3.26319L19.6186 8.45554L17.0825 10.2198Z" fill="#333333"/>
</g>
<defs>
<clipPath id="clip0_23_244">
<rect width="20" height="20" fill="white"/>
</clipPath>
</defs>
</svg>
