<svg width="15" height="11" viewBox="0 0 15 11" fill="none" xmlns="http://www.w3.org/2000/svg">
<path d="M5.6875 4.125C5.6875 4.98839 4.98839 5.6875 4.125 5.6875C3.26161 5.6875 2.5625 4.98839 2.5625 4.125C2.5625 3.26161 3.26161 2.5625 4.125 2.5625C4.98839 2.5625 5.6875 3.26161 5.6875 4.125ZM0.5 9.28125C0.5 9.122 0.575804 8.94551 0.790044 8.74778C1.00768 8.54692 1.3331 8.35967 1.73217 8.19981C2.5311 7.87975 3.49914 7.71875 4.125 7.71875C4.75086 7.71875 5.7189 7.87975 6.51783 8.19981C6.9169 8.35967 7.24232 8.54692 7.45996 8.74778C7.6742 8.94551 7.75 9.122 7.75 9.28125V9.79687C7.75 9.79903 7.74965 9.80032 7.74912 9.80158C7.74844 9.80318 7.74713 9.80534 7.74498 9.80748C7.74284 9.80963 7.74068 9.81094 7.73908 9.81162C7.73782 9.81215 7.73653 9.8125 7.73437 9.8125H0.515625C0.513468 9.8125 0.512177 9.81215 0.510924 9.81162C0.509322 9.81094 0.507165 9.80963 0.505018 9.80748C0.502872 9.80534 0.501559 9.80318 0.500879 9.80158C0.500346 9.80032 0.5 9.79903 0.5 9.79687V9.28125Z" fill="#57565D" stroke="#57565D"/>
<path d="M11.4166 2.75C11.4166 3.99323 10.4099 5 9.16663 5C7.92339 5 6.91663 3.99323 6.91663 2.75C6.91663 1.50677 7.92339 0.5 9.16663 0.5C10.4099 0.5 11.4166 1.50677 11.4166 2.75ZM4.16663 9.625C4.16663 9.35146 4.29969 9.07485 4.60698 8.79123C4.91767 8.50449 5.37194 8.24559 5.9142 8.02836C6.99952 7.59358 8.31132 7.375 9.16663 7.375C10.0219 7.375 11.3337 7.59358 12.4191 8.02836C12.9613 8.24559 13.4156 8.50449 13.7263 8.79123C14.0336 9.07485 14.1666 9.35146 14.1666 9.625V10.3125C14.1666 10.4145 14.0811 10.5 13.9791 10.5H4.35413C4.25214 10.5 4.16663 10.4145 4.16663 10.3125V9.625Z" fill="#57565D" stroke="#B9B0B0"/>
</svg>
