<svg width="23" height="23" viewBox="0 0 23 23" fill="none" xmlns="http://www.w3.org/2000/svg">
<path d="M17.0294 14.2964L15.2268 15.3119C15.0104 15.4337 14.7602 15.4813 14.5143 15.4475C14.2683 15.4137 14.0402 15.3004 13.8647 15.1248L7.84832 9.10843C7.67285 8.93287 7.5596 8.70475 7.52582 8.45884C7.49205 8.21293 7.53961 7.96273 7.66125 7.74636L8.67676 5.94378C8.85956 5.61935 8.93113 5.244 8.88054 4.87507C8.82995 4.50614 8.65998 4.16391 8.39659 3.90067L5.69487 1.19895C5.53652 1.04052 5.3485 0.914842 5.14157 0.829097C4.93463 0.743352 4.71283 0.699219 4.48883 0.699219C4.26484 0.699219 4.04303 0.743352 3.8361 0.829097C3.62916 0.914842 3.44115 1.04052 3.2828 1.19895L2.05607 2.42481C1.33872 3.14215 0.881785 4.07872 0.757916 5.08561C0.634046 6.09249 0.850357 7.11189 1.37245 7.98171L1.98797 9.00757C5.13128 14.2463 9.56796 18.5895 14.8725 21.6205L14.994 21.6903C16.8061 22.7257 19.0449 22.4239 20.4957 20.9739L21.7768 19.6929C21.9352 19.5346 22.0609 19.3465 22.1466 19.1396C22.2324 18.9327 22.2765 18.7109 22.2765 18.4869C22.2765 18.2629 22.2324 18.0411 22.1466 17.8341C22.0609 17.6272 21.9352 17.4392 21.7768 17.2808L19.0733 14.5774C18.8101 14.3137 18.4678 14.1434 18.0987 14.0927C17.7295 14.0419 17.354 14.1135 17.0294 14.2964Z" fill="#1C5579"/>
</svg>
