<svg width="45" height="45" viewBox="0 0 45 45" fill="none" xmlns="http://www.w3.org/2000/svg">
<path d="M8.83986 0.98824C8.07033 0.92574 7.21486 1.1484 6.4258 1.70308C5.73049 2.18746 4.23049 3.37886 2.82814 4.72652C2.12892 5.3984 1.46095 6.09761 0.945328 6.78511C0.425798 7.47261 -0.0273323 8.10152 1.76757e-05 9.01558C0.0273577 9.83589 0.109398 12.2617 1.85549 15.9804C3.60158 19.6953 6.9883 24.7929 13.5938 31.4023C20.2031 38.0117 25.3008 41.3984 29.0156 43.1445C32.7305 44.8906 35.1602 44.9726 35.9805 45C36.8906 45.0273 37.5196 44.5742 38.2071 44.0547C38.8946 43.5351 39.5938 42.8711 40.2656 42.1718C41.6094 40.7695 42.8008 39.2695 43.2852 38.5742C44.3906 37 44.207 35.1406 42.9766 34.2773C42.2031 33.7343 35.0899 29 34.0196 28.3437C32.9336 27.6797 31.6836 27.9804 30.5664 28.5703C29.6875 29.0351 27.3086 30.3984 26.6289 30.789C26.1172 30.4648 24.1758 29.1718 20 24.9961C15.8203 20.8203 14.5313 18.8789 14.207 18.3671C14.5977 17.6875 15.957 15.3203 16.4258 14.4257C17.0117 13.3125 17.3399 12.0507 16.6406 10.957C16.3477 10.4922 15.0156 8.4648 13.6719 6.42965C12.3242 4.39449 11.0469 2.46481 10.7149 2.00387V1.99996C10.2813 1.4023 9.60549 1.05074 8.83986 0.98824ZM8.65627 3.03121C8.92971 3.06637 9.09377 3.17574 9.09377 3.17574C9.25393 3.3984 10.6563 5.49996 12 7.53121C13.3438 9.56637 14.7149 11.6523 14.9531 12.0312C14.9922 12.0898 15.0469 12.7539 14.6563 13.4922V13.4961C14.2149 14.3359 12.1563 17.9336 12.1563 17.9336L11.8711 18.4375L12.1641 18.9375C12.1641 18.9375 13.6992 21.5273 18.5821 26.4101C23.4688 31.2929 26.0586 32.832 26.0586 32.832L26.5586 33.125L27.0625 32.8398C27.0625 32.8398 30.6524 30.7851 31.5 30.3398C32.2383 29.9531 32.9024 30.0039 32.9805 30.0508C33.6719 30.4765 41.3555 35.582 41.8282 35.914C41.8438 35.9258 42.2617 36.5586 41.6524 37.4258H41.6485C41.2813 37.9531 40.0782 39.4805 38.8242 40.7851C38.1953 41.4375 37.5508 42.0469 37.0039 42.457C36.4571 42.8672 35.9688 42.9961 36.0469 43C35.1953 42.9727 33.3164 42.9531 29.8672 41.332C26.418 39.7148 21.4961 36.4765 15.0078 29.9844C8.52348 23.5 5.28519 18.5781 3.6641 15.125C2.04691 11.6758 2.02738 9.79687 2.00004 8.94921C2.00395 9.02734 2.13285 8.53515 2.54301 7.98827C2.95317 7.4414 3.55864 6.79296 4.21098 6.16405C5.51957 4.91014 7.04301 3.70702 7.57036 3.33983V3.34374C8.00395 3.03905 8.38283 2.99996 8.65627 3.03121Z" fill="white"/>
</svg>
