<svg width="20" height="20" viewBox="0 0 20 20" fill="none" xmlns="http://www.w3.org/2000/svg">
<g id="pin 1" clip-path="url(#clip0_5445_542)">
<g id="Layer_x0020_1">
<path id="Vector" fill-rule="evenodd" clip-rule="evenodd" d="M5.7461 1.71922C5.7461 2.8292 6.14158 3.72151 6.84922 4.52237C7.49972 5.25872 7.41692 4.65039 7.14056 6.7464C7.10881 6.98719 7.03515 7.38851 7.03515 7.65648C6.6793 7.8447 6.30135 8.15128 5.99197 8.4101C5.30312 8.98694 4.81265 9.68823 4.35621 10.4464C4.12329 10.833 4.01229 11.3707 4.12736 11.9316C4.21854 12.3756 4.49337 12.832 4.78064 13.0751C5.61808 13.7835 8.09053 14.2191 9.14437 14.2191C9.22845 15.2287 9.28585 16.261 9.3397 17.3052C9.34859 17.4777 9.37501 17.4678 9.38009 17.6555L9.45502 18.8305C9.5081 19.4843 9.35062 20.0784 9.96479 20.0784C10.4494 20.0784 10.3689 19.3616 10.3943 18.8673L10.6671 14.6087C10.6661 14.4027 10.6943 14.3717 10.707 14.2188C11.2724 14.2188 11.8345 14.1396 12.3369 14.052C12.7133 13.9862 13.4393 13.8282 13.8048 13.6837C14.7502 13.3105 15.4921 13.0609 15.724 11.9311C15.9303 10.9262 15.3725 10.1203 14.7745 9.36972C14.3184 8.79695 13.4901 8.01259 12.8165 7.65623L12.6044 5.91531C12.4324 4.67249 12.44 5.19624 12.9844 4.54295C13.1464 4.34838 13.2406 4.28971 13.4248 4.00675L13.7598 3.36515C13.9709 2.85003 14.1058 2.35753 14.1058 1.75783C14.1058 0.40604 11.2551 0.078125 10.3168 0.078125H10.2561C8.99324 0.078379 8.454 0.086761 7.19949 0.437536C6.65949 0.588412 5.74661 1.04866 5.74661 1.71871L5.7461 1.71922Z" fill="black"/>
</g>
</g>
<defs>
<clipPath id="clip0_5445_542">
<rect width="20" height="20" fill="white"/>
</clipPath>
</defs>
</svg>
