<svg width="15" height="15" viewBox="0 0 15 15" fill="none" xmlns="http://www.w3.org/2000/svg">
<g clip-path="url(#clip0_1671_106)">
<path d="M1.14258 8.4082H6.5918V13.8574C6.5918 14.3583 6.99912 14.7656 7.5 14.7656C8.00088 14.7656 8.4082 14.3583 8.4082 13.8574V8.4082H13.8574C14.3583 8.4082 14.7656 8.00088 14.7656 7.5C14.7656 6.99912 14.3583 6.5918 13.8574 6.5918H8.4082V1.14258C8.4082 0.6417 8.00088 0.234375 7.5 0.234375C6.99912 0.234375 6.5918 0.6417 6.5918 1.14258V6.5918H1.14258C0.6417 6.5918 0.234375 6.99912 0.234375 7.5C0.234375 8.00088 0.6417 8.4082 1.14258 8.4082Z" fill="#01AB84"/>
</g>
<defs>
<clipPath id="clip0_1671_106">
<rect width="15" height="15" fill="white"/>
</clipPath>
</defs>
</svg>
