<svg width="30" height="30" viewBox="0 0 30 30" fill="none" xmlns="http://www.w3.org/2000/svg">
<g clip-path="url(#clip0_646_118)">
<path d="M2.28516 16.8164H13.1836V27.7148C13.1836 28.7166 13.9982 29.5312 15 29.5312C16.0018 29.5312 16.8164 28.7166 16.8164 27.7148V16.8164H27.7148C28.7166 16.8164 29.5312 16.0018 29.5312 15C29.5312 13.9982 28.7166 13.1836 27.7148 13.1836H16.8164V2.28516C16.8164 1.2834 16.0018 0.46875 15 0.46875C13.9982 0.46875 13.1836 1.2834 13.1836 2.28516V13.1836H2.28516C1.2834 13.1836 0.46875 13.9982 0.46875 15C0.46875 16.0018 1.2834 16.8164 2.28516 16.8164Z" fill="#E2E2E0"/>
</g>
<defs>
<clipPath id="clip0_646_118">
<rect width="30" height="30" fill="white"/>
</clipPath>
</defs>
</svg>
