<svg width="20" height="20" viewBox="0 0 20 20" fill="none" xmlns="http://www.w3.org/2000/svg">
<g clip-path="url(#clip0_23_228)">
<path d="M13.9686 18.2172H1.90571C1.36285 18.2172 0.922852 17.7772 0.922852 17.2344V2.44868C0.922852 1.90582 1.36285 1.46582 1.90571 1.46582H13.9686C14.5114 1.46582 14.9514 1.90582 14.9514 2.44868V17.2315C14.9543 17.7772 14.5143 18.2172 13.9686 18.2172Z" fill="#3C5056"/>
<path d="M15.8115 3.30847V18.0913C15.8115 18.6342 15.3715 19.077 14.8286 19.077H2.76574C2.22289 19.077 1.78003 18.6342 1.78003 18.0913V3.30847C1.78003 2.76561 2.22289 2.32275 2.76574 2.32275H14.8286C15.3715 2.32275 15.8115 2.76561 15.8115 3.30847Z" fill="#495E66"/>
<path d="M14.7943 3.9342V17.2913C14.7943 17.7113 14.4515 18.0542 14.0315 18.0542H3.39148C3.06576 18.0542 2.80005 17.7885 2.80005 17.4628V3.9342C2.80005 3.60849 3.06576 3.34277 3.39148 3.34277H14.2029C14.5286 3.34277 14.7943 3.60849 14.7943 3.9342Z" fill="white"/>
<path d="M12.2142 2.84575V3.35432C12.2142 3.60575 12.0085 3.81146 11.7542 3.81146H5.83703C5.58274 3.81146 5.37988 3.60575 5.37988 3.35432V2.84575C5.37988 2.40575 5.73703 2.04575 6.17703 2.04575H7.66845V1.88289C7.66845 1.26004 8.17131 0.751465 8.79703 0.751465C9.10845 0.751465 9.39417 0.882893 9.59703 1.08289C9.79988 1.28575 9.92845 1.57146 9.92845 1.88289V2.04575H11.4142C11.8542 2.04575 12.2142 2.40575 12.2142 2.84575Z" fill="#54E28E"/>
<path d="M8.79709 1.52002C9.00852 1.52002 9.17709 1.69145 9.17709 1.90002C9.17709 2.11145 9.00566 2.28002 8.79709 2.28002C8.58281 2.28002 8.41138 2.10859 8.41138 1.90002C8.41138 1.68859 8.58281 1.52002 8.79709 1.52002Z" fill="white"/>
<path d="M10.0657 16.4114H4.74857C4.66857 16.4114 4.60571 16.3485 4.60571 16.2685C4.60571 16.1885 4.66857 16.1257 4.74857 16.1257H10.0657C10.1457 16.1257 10.2086 16.1885 10.2086 16.2685C10.2086 16.3485 10.1457 16.4114 10.0657 16.4114ZM11.9314 14.7457H11.1543C11.0743 14.7457 11.0114 14.6828 11.0114 14.6028C11.0114 14.5228 11.0743 14.46 11.1543 14.46H11.9314C12.0114 14.46 12.0743 14.5228 12.0743 14.6028C12.0743 14.6828 12.0114 14.7457 11.9314 14.7457ZM10.4543 14.7457H4.74857C4.66857 14.7457 4.60571 14.6828 4.60571 14.6028C4.60571 14.5228 4.66857 14.46 4.74857 14.46H10.4571C10.5371 14.46 10.6 14.5228 10.6 14.6028C10.6 14.6828 10.5343 14.7457 10.4543 14.7457Z" fill="#E2E2E0"/>
<path d="M12.3828 13.0799H6.87135C6.79135 13.0799 6.7285 13.017 6.7285 12.937C6.7285 12.857 6.79135 12.7942 6.87135 12.7942H12.3828C12.4628 12.7942 12.5256 12.857 12.5256 12.937C12.5256 13.017 12.4628 13.0799 12.3828 13.0799ZM6.02564 13.0799H4.74564C4.66564 13.0799 4.60278 13.017 4.60278 12.937C4.60278 12.857 4.66564 12.7942 4.74564 12.7942H6.02564C6.10564 12.7942 6.1685 12.857 6.1685 12.937C6.1685 13.017 6.10564 13.0799 6.02564 13.0799Z" fill="#E2E2E0"/>
<path d="M9.01151 11.2686C10.8056 11.2686 12.2601 9.81419 12.2601 8.02006C12.2601 6.22592 10.8056 4.77148 9.01151 4.77148C7.21737 4.77148 5.76294 6.22592 5.76294 8.02006C5.76294 9.81419 7.21737 11.2686 9.01151 11.2686Z" fill="#FBE063"/>
<path d="M10.6802 8.99719C10.6059 9.12577 10.4916 9.21148 10.3573 9.24577C10.2259 9.28005 10.0802 9.26577 9.95446 9.19148L9.54303 8.95434V9.42005C9.54303 9.71148 9.30303 9.95148 9.0116 9.95148C8.72017 9.95148 8.48017 9.71148 8.48017 9.42005V8.93148L8.06874 9.16862C7.81446 9.31719 7.4916 9.22862 7.34303 8.97434C7.26874 8.84862 7.25446 8.70291 7.28874 8.57148C7.32303 8.44291 7.40874 8.32291 7.53731 8.24862L7.92874 8.02291L7.5316 7.79434C7.27731 7.64577 7.18874 7.32291 7.33731 7.06862C7.48589 6.81434 7.80874 6.72577 8.06303 6.87434L8.48017 7.11434V6.62005C8.48017 6.32577 8.72017 6.08862 9.0116 6.08862C9.15731 6.08862 9.2916 6.14862 9.38589 6.24577C9.48303 6.34291 9.54303 6.47434 9.54303 6.62005V7.08862L9.96017 6.84862C10.2145 6.70291 10.5373 6.79148 10.6859 7.04291C10.8345 7.29719 10.7459 7.62005 10.4916 7.76862L10.0545 8.02005L10.4859 8.27148C10.7402 8.41719 10.8287 8.74577 10.6802 8.99719Z" fill="#F9A41A"/>
<path d="M19.0772 14.1228C19.0401 15.1199 18.6858 17.7714 16.0972 19.1771C15.9201 19.2742 15.7029 19.2742 15.5258 19.1771C12.9401 17.7685 12.5829 15.1199 12.5458 14.1228C12.5372 13.8942 12.6687 13.6885 12.8715 13.5857C13.4344 13.2999 13.8115 12.8971 13.9144 12.3342C13.9658 12.0514 14.1972 11.8342 14.4858 11.8342H17.1429C17.4315 11.8342 17.6629 12.0514 17.7144 12.3342C17.8172 12.8999 18.1915 13.2999 18.7544 13.5857C18.9544 13.6885 19.0858 13.8942 19.0772 14.1228Z" fill="#8F90FB"/>
<path d="M18.0771 14.5144C17.9799 15.4573 17.5714 17.1087 15.9628 18.123C15.8714 18.1801 15.7485 18.1801 15.6514 18.123C14.0457 17.1058 13.6371 15.4573 13.5371 14.5144C13.5257 14.403 13.5828 14.2973 13.6771 14.2344C14.2542 13.8658 14.5485 13.4144 14.6914 13.0173C14.7342 12.903 14.8428 12.8315 14.9657 12.8315H16.6457C16.7714 12.8315 16.8799 12.9144 16.9257 13.0344C17.1028 13.5173 17.4399 13.9201 17.9342 14.2344C18.0314 14.2973 18.0885 14.403 18.0771 14.5144Z" fill="#EFEFED"/>
<path d="M15.4742 16.2171C15.4371 16.2171 15.4 16.2028 15.3742 16.1742L14.8971 15.6971C14.84 15.64 14.84 15.5514 14.8971 15.4942C14.9542 15.4371 15.0428 15.4371 15.1 15.4942L15.4742 15.8685L16.5228 14.82C16.58 14.7628 16.6685 14.7628 16.7257 14.82C16.7828 14.8771 16.7828 14.9657 16.7257 15.0228L15.5771 16.1714C15.5485 16.2028 15.5114 16.2171 15.4742 16.2171Z" fill="#8F90FB"/>
</g>
<defs>
<clipPath id="clip0_23_228">
<rect width="20" height="20" fill="white"/>
</clipPath>
</defs>
</svg>
