<svg width="20" height="20" viewBox="0 0 20 20" fill="none" xmlns="http://www.w3.org/2000/svg">
<path d="M15.8926 3.59462V7.09462L16.2832 6.70399H4.48047C4.06836 6.70399 3.67188 6.89931 3.46875 7.26845C3.33203 7.51454 3.32617 7.7704 3.32617 8.03798V13.2977L3.7168 12.9071H1.95898C1.95312 12.9071 1.87695 12.9071 1.87695 12.9032L1.92969 12.9091C1.91211 12.9052 1.89648 12.9013 1.87891 12.8974C1.86328 12.8934 1.8457 12.8876 1.83008 12.8817C1.79102 12.8661 1.79883 12.87 1.85156 12.8934C1.85156 12.8954 1.78906 12.8602 1.78516 12.8583C1.70508 12.8114 1.78516 12.8602 1.78125 12.8622C1.77734 12.8661 1.67188 12.7606 1.67578 12.7567C1.68555 12.747 1.72266 12.829 1.69336 12.7743C1.68164 12.7528 1.66797 12.7294 1.65625 12.7079C1.61328 12.6337 1.67773 12.7899 1.65625 12.7079C1.6543 12.7001 1.62695 12.6083 1.63086 12.6083L1.63672 12.661C1.63477 12.6434 1.63281 12.6259 1.63281 12.6083C1.63086 12.5751 1.63281 12.5907 1.63281 12.5809V12.5575C1.62891 11.8817 1.63281 11.204 1.63281 10.5282V3.56923C1.63281 3.55946 1.63477 3.55165 1.63477 3.54188C1.63867 3.49892 1.63867 3.50673 1.63086 3.56727C1.62891 3.56727 1.6543 3.47548 1.65625 3.46767C1.61328 3.53993 1.67773 3.38368 1.65625 3.46767C1.66992 3.44618 1.68164 3.4247 1.69336 3.40126C1.73437 3.32704 1.63281 3.46181 1.69336 3.39931C1.71094 3.38173 1.72656 3.3622 1.74609 3.34462C1.8125 3.28212 1.74609 3.34462 1.74414 3.34267C1.74219 3.34071 1.80273 3.30556 1.80859 3.30165C1.89062 3.25673 1.80664 3.2997 1.80664 3.29774C1.80664 3.29384 1.86914 3.27626 1.88086 3.27431C1.88867 3.27235 1.89844 3.2704 1.90625 3.26845C1.94922 3.26063 1.93945 3.26063 1.87891 3.2704C1.87891 3.26649 1.95312 3.26649 1.95898 3.26649H14.2324C14.6777 3.26649 15.123 3.26063 15.5684 3.26649C15.5781 3.26649 15.6504 3.26454 15.6504 3.2704C15.6523 3.28016 15.5566 3.24501 15.6367 3.27235C15.6562 3.27821 15.6777 3.28407 15.6992 3.28993C15.627 3.24696 15.7832 3.31141 15.6992 3.28993C15.7207 3.3036 15.7422 3.31532 15.7656 3.32704C15.8398 3.36806 15.7051 3.26649 15.7676 3.32704C15.7852 3.34462 15.8047 3.36024 15.8223 3.37977C15.8848 3.44618 15.8223 3.37977 15.8242 3.37782C15.8262 3.37587 15.8613 3.43641 15.8652 3.44227C15.9102 3.52431 15.8672 3.44032 15.8691 3.44032C15.873 3.44032 15.8906 3.50868 15.8926 3.51454C15.8945 3.52235 15.8965 3.53212 15.8984 3.53993C15.9062 3.5829 15.9062 3.57313 15.8965 3.51259C15.8926 3.51454 15.8926 3.58876 15.8926 3.59462C15.8965 3.7997 16.0703 3.99501 16.2832 3.98524C16.4922 3.97548 16.6777 3.81337 16.6738 3.59462C16.6621 2.98524 16.1758 2.49501 15.5645 2.48524H2.35742C2.22266 2.48524 2.08984 2.48329 1.95508 2.48524C1.46875 2.49306 1.05273 2.7997 0.896484 3.25868C0.849609 3.39345 0.84375 3.53602 0.84375 3.67665V12.5731C0.849609 13.0516 1.14453 13.4618 1.5918 13.6259C1.81641 13.7079 2.06836 13.6864 2.30273 13.6864H3.71289C3.92383 13.6864 4.10352 13.5067 4.10352 13.2958V9.46962C4.10352 8.9286 4.10156 8.38954 4.10352 7.84852V7.79774C4.10352 7.78017 4.10547 7.76259 4.10742 7.74501C4.10938 7.69227 4.08594 7.81923 4.10547 7.7704C4.11719 7.7411 4.12695 7.70204 4.13281 7.67079C4.14258 7.62196 4.0957 7.73524 4.12305 7.69423C4.13477 7.67665 4.14258 7.65712 4.15234 7.63954C4.15039 7.64345 4.17969 7.59657 4.17969 7.59657C4.1875 7.60048 4.12305 7.65907 4.16406 7.6161L4.23438 7.54579C4.28711 7.49501 4.2168 7.56337 4.21484 7.56142C4.21484 7.56142 4.25195 7.53798 4.25781 7.53407C4.27148 7.52626 4.28711 7.51845 4.30273 7.50868C4.22461 7.53017 4.37305 7.46767 4.30273 7.50868C4.30859 7.50673 4.40234 7.47938 4.40234 7.48329C4.40234 7.48915 4.29883 7.48915 4.37695 7.4872C4.39453 7.4872 4.41211 7.48524 4.42969 7.48524H4.43359C4.50977 7.48329 4.58594 7.48524 4.66211 7.48524H16.2812C16.4922 7.48524 16.6719 7.30556 16.6719 7.09462V3.59462C16.6719 3.38954 16.4922 3.19423 16.2812 3.20399C16.0723 3.21376 15.8926 3.37587 15.8926 3.59462Z" fill="#1C5579"/>
<path d="M1.23644 5.67752H15.672C15.8673 5.67752 16.0646 5.68142 16.2599 5.67752H16.2853C16.4903 5.67752 16.6857 5.49783 16.6759 5.28689C16.6661 5.07595 16.504 4.89627 16.2853 4.89627H1.84972C1.6544 4.89627 1.45714 4.89236 1.26183 4.89627H1.23644C1.03136 4.89627 0.836045 5.07595 0.84581 5.28689C0.855576 5.49978 1.01769 5.67752 1.23644 5.67752ZM18.3732 7.81424V16.406C18.3732 16.4158 18.3732 16.4881 18.3692 16.49C18.3614 16.492 18.3927 16.3885 18.3712 16.4627C18.3634 16.4861 18.3575 16.5115 18.3497 16.5369C18.3282 16.615 18.3849 16.4881 18.3556 16.5252C18.34 16.5467 18.3243 16.5779 18.3126 16.6013C18.2735 16.6717 18.3595 16.5603 18.3204 16.5935C18.3048 16.6072 18.2931 16.6248 18.2775 16.6404C18.2735 16.6443 18.2247 16.6931 18.2208 16.6912C18.211 16.6814 18.2931 16.6443 18.2384 16.6736C18.2169 16.6853 18.1935 16.699 18.172 16.7107C18.0997 16.7537 18.254 16.6892 18.172 16.7107C18.1564 16.7146 18.1388 16.7205 18.1232 16.7263C18.1056 16.7303 18.09 16.7342 18.0724 16.7381C18.1329 16.7303 18.1407 16.7303 18.0978 16.7342C17.7521 16.7381 17.4064 16.7361 17.0607 16.7361H5.48058C5.13097 16.7361 4.78136 16.742 4.4337 16.7361H4.40636C4.39659 16.7361 4.38878 16.7342 4.37901 16.7342C4.33604 16.7303 4.34386 16.7303 4.4044 16.7381C4.4044 16.74 4.33409 16.7205 4.32823 16.7205C4.32237 16.7185 4.2794 16.7049 4.2794 16.7049C4.2794 16.7029 4.36144 16.7459 4.28136 16.701C4.26769 16.6931 4.25206 16.6834 4.23839 16.6756C4.20323 16.6521 4.21104 16.658 4.25597 16.6931C4.24229 16.6834 4.23058 16.6717 4.21886 16.6599C4.20323 16.6463 4.18956 16.6306 4.17589 16.615C4.11925 16.5584 4.18956 16.6209 4.18175 16.6248C4.17784 16.6267 4.11729 16.5174 4.11925 16.5154C4.12315 16.5135 4.14855 16.6033 4.12315 16.5135C4.1212 16.5076 4.10362 16.4373 4.10558 16.4373C4.11144 16.4373 4.11144 16.5408 4.10948 16.4627C4.10948 16.4412 4.10753 16.4314 4.10753 16.408V9.39431C4.10753 8.86892 4.09972 8.34158 4.10753 7.81619V7.81424C4.10753 7.80447 4.10558 7.82986 4.10753 7.78689C4.10753 7.77713 4.10948 7.76931 4.10948 7.75955C4.11339 7.71658 4.11339 7.72439 4.10558 7.78494C4.10753 7.78494 4.13097 7.65994 4.14073 7.66189C4.14269 7.66189 4.09972 7.74392 4.14464 7.66385C4.14659 7.66189 4.18175 7.59939 4.18565 7.59939C4.18761 7.60135 4.12511 7.66775 4.18761 7.60135C4.20128 7.58572 4.2169 7.57205 4.23253 7.55838C4.28917 7.50174 4.22667 7.57205 4.22276 7.56424C4.22081 7.56228 4.28136 7.52713 4.28722 7.52322C4.29308 7.51931 4.33214 7.49978 4.33214 7.49978C4.33409 7.50369 4.24425 7.52908 4.33409 7.50369C4.35362 7.49783 4.37901 7.49588 4.39659 7.48806C4.42589 7.4822 4.41417 7.48416 4.35753 7.49197C4.37511 7.49002 4.39269 7.48806 4.41026 7.48806C4.44151 7.48611 4.47276 7.48806 4.50206 7.48806H18.0743C18.0841 7.48806 18.0919 7.49002 18.1017 7.49002C18.1368 7.49392 18.1368 7.49392 18.1017 7.49002C18.0939 7.48806 18.0841 7.48806 18.0763 7.48611C18.0939 7.49002 18.1095 7.49392 18.1271 7.49783C18.1329 7.49978 18.2013 7.51736 18.2013 7.52127C18.1993 7.53299 18.1251 7.4822 18.1778 7.51345C18.1993 7.52713 18.2208 7.53885 18.2442 7.55056C18.3185 7.59158 18.1857 7.49002 18.2462 7.55056C18.256 7.56033 18.338 7.63455 18.3341 7.64041C18.3263 7.64822 18.2872 7.56033 18.3243 7.6326C18.3341 7.65017 18.3458 7.6697 18.3556 7.68728C18.3341 7.60525 18.3985 7.75955 18.3556 7.68728C18.3595 7.70291 18.3653 7.72049 18.3712 7.73611C18.3732 7.74392 18.3751 7.75369 18.3771 7.7615C18.3849 7.80447 18.3849 7.7947 18.3751 7.73416C18.3732 7.73416 18.3732 7.80838 18.3732 7.81424C18.3771 8.01931 18.5509 8.21463 18.7638 8.20486C18.9728 8.1951 19.1583 8.03299 19.1544 7.81424C19.1446 7.30447 18.7853 6.82205 18.2677 6.73025C18.1739 6.71267 18.0841 6.70681 17.9903 6.70681H4.48448C4.37901 6.70681 4.2755 6.71463 4.17394 6.73806C3.67784 6.84939 3.33409 7.31619 3.32628 7.81619C3.32433 7.95877 3.32628 8.09939 3.32628 8.24197V16.3103C3.32628 16.3611 3.32433 16.4119 3.32823 16.4627C3.36925 17.0154 3.77745 17.4451 4.32823 17.5095C4.44542 17.5232 4.56651 17.5174 4.6837 17.5174H17.8185C17.9903 17.5174 18.1622 17.5252 18.3321 17.4803C18.8165 17.3533 19.1466 16.9021 19.1544 16.408V7.81424C19.1544 7.60916 18.9747 7.41385 18.7638 7.42361C18.5528 7.43338 18.3732 7.59549 18.3732 7.81424Z" fill="#1C5579"/>
<path d="M5.86534 14.8212H7.21886C7.42394 14.8212 7.61925 14.6415 7.60948 14.4306C7.59972 14.2196 7.43761 14.0399 7.21886 14.0399H5.86534C5.66026 14.0399 5.46495 14.2196 5.47472 14.4306C5.48448 14.6415 5.64659 14.8212 5.86534 14.8212ZM8.13683 11.5731H6.31651C6.27354 11.5751 6.29112 11.5868 6.31261 11.577C6.33605 11.5653 6.34581 11.5849 6.31261 11.5751C6.31651 11.5751 6.26378 11.5634 6.26183 11.5595C6.26183 11.5438 6.338 11.6024 6.28526 11.5653C6.22472 11.5224 6.30089 11.5829 6.30284 11.5829C6.30089 11.5849 6.26378 11.5458 6.26573 11.5477C6.21886 11.5067 6.29503 11.5614 6.2794 11.5673C6.27745 11.5673 6.25987 11.536 6.25987 11.5341C6.24034 11.4911 6.28136 11.6141 6.26378 11.5438C6.26378 11.5477 6.25011 11.4931 6.25206 11.4931C6.26378 11.4872 6.25597 11.5809 6.25792 11.5165V9.77821C6.25792 9.75087 6.25987 9.72157 6.25792 9.69423C6.25792 9.68837 6.26183 9.66884 6.25792 9.66493C6.2755 9.68641 6.24034 9.74306 6.25597 9.69032C6.25401 9.69423 6.26769 9.63954 6.27159 9.63954C6.26964 9.63954 6.23448 9.73134 6.26573 9.66298C6.29308 9.60634 6.25792 9.69423 6.24815 9.68056C6.2462 9.6786 6.28526 9.64149 6.28331 9.64345C6.32628 9.59657 6.26573 9.66102 6.26378 9.65712C6.26573 9.65907 6.30675 9.62782 6.3087 9.63173C6.31847 9.64735 6.22472 9.65516 6.28722 9.64149C6.29698 9.63954 6.33409 9.63368 6.338 9.62977C6.32823 9.63759 6.24425 9.63368 6.31456 9.63563H8.01378C8.05089 9.63563 8.08995 9.63759 8.12706 9.63563C8.13683 9.63563 8.16026 9.63954 8.16612 9.63563C8.13878 9.65712 8.08995 9.6161 8.14073 9.63368C8.1505 9.63759 8.1837 9.64931 8.19151 9.64931C8.17979 9.65126 8.11144 9.60829 8.16808 9.64345C8.22081 9.67665 8.15245 9.62587 8.1505 9.62587C8.15245 9.62391 8.18175 9.65712 8.18761 9.66102C8.24425 9.71181 8.16808 9.6454 8.17394 9.64149C8.17198 9.64149 8.20323 9.68446 8.19933 9.68641C8.19347 9.69032 8.17198 9.58876 8.18956 9.66493C8.19151 9.6747 8.19737 9.70985 8.20128 9.71571C8.19737 9.70985 8.19933 9.63759 8.19347 9.6786V9.69618C8.19151 9.72743 8.19347 9.76063 8.19347 9.79188V11.5165C8.19347 11.5263 8.18956 11.5419 8.19347 11.5458C8.18565 11.538 8.21886 11.452 8.19542 11.5204C8.19347 11.5282 8.19151 11.538 8.18761 11.5458C8.17589 11.579 8.17589 11.579 8.18761 11.5477C8.20128 11.5419 8.20519 11.5145 8.1837 11.5477C8.14464 11.6122 8.19933 11.5302 8.20128 11.5302C8.20323 11.5321 8.17003 11.5614 8.16612 11.5673C8.12511 11.6141 8.1798 11.538 8.18565 11.5536C8.18761 11.5575 8.13878 11.577 8.14073 11.579C8.13683 11.5731 8.23644 11.5516 8.16222 11.5692C8.1505 11.5731 8.13683 11.5751 8.12315 11.579C8.07237 11.5927 8.22667 11.5692 8.13683 11.5731C7.9337 11.579 7.73644 11.7489 7.7462 11.9638C7.75597 12.1708 7.91808 12.3602 8.13683 12.3544C8.60167 12.3407 8.963 11.9813 8.97472 11.5165C8.97667 11.4227 8.97472 11.329 8.97472 11.2352V10.0184C8.97472 9.91102 8.97667 9.8036 8.97472 9.69618C8.9669 9.30751 8.69347 8.93251 8.29503 8.87001C8.16612 8.85048 8.04112 8.85243 7.91222 8.85243H7.33214C6.99815 8.85243 6.66417 8.85048 6.33019 8.85243C5.96495 8.85634 5.64659 9.07313 5.52159 9.41884C5.47081 9.56141 5.47472 9.70985 5.47472 9.86024V11.4755C5.47472 11.7821 5.61144 12.0692 5.87901 12.2333C6.05284 12.3388 6.2423 12.3544 6.43761 12.3544H8.13683C8.3419 12.3544 8.53722 12.1747 8.52745 11.9638C8.51769 11.7509 8.35558 11.5731 8.13683 11.5731ZM8.70323 14.8212H10.0567C10.2618 14.8212 10.4571 14.6415 10.4474 14.4306C10.4376 14.2196 10.2755 14.0399 10.0567 14.0399H8.70323C8.49815 14.0399 8.30284 14.2196 8.31261 14.4306C8.32237 14.6415 8.48448 14.8212 8.70323 14.8212ZM11.5411 14.8407H12.8946C13.0997 14.8407 13.295 14.661 13.2853 14.4501C13.2755 14.2391 13.1134 14.0595 12.8946 14.0595H11.5411C11.336 14.0595 11.1407 14.2391 11.1505 14.4501C11.1603 14.661 11.3224 14.8407 11.5411 14.8407ZM14.379 14.8407H15.7325C15.9376 14.8407 16.1329 14.661 16.1232 14.4501C16.1134 14.2391 15.9513 14.0595 15.7325 14.0595H14.379C14.1739 14.0595 13.9786 14.2391 13.9884 14.4501C13.9982 14.661 14.1603 14.8407 14.379 14.8407Z" fill="#1C5579"/>
</svg>
