<svg width="42" height="42" viewBox="0 0 42 42" fill="none" xmlns="http://www.w3.org/2000/svg">
<path d="M35.0625 3.8125V2.25C35.0625 1.39062 34.3594 0.6875 33.5 0.6875H31.9375C31.0781 0.6875 30.375 1.39062 30.375 2.25V3.8125H23.3438V2.25C23.3438 1.39062 22.6406 0.6875 21.7812 0.6875H20.2188C19.3594 0.6875 18.6562 1.39062 18.6562 2.25V3.8125H11.625V2.25C11.625 1.39062 10.9219 0.6875 10.0625 0.6875H8.5C7.64062 0.6875 6.9375 1.39062 6.9375 2.25V3.8125C3.48437 3.8125 0.6875 6.60937 0.6875 10.0625V35.0625C0.6875 38.5156 3.48437 41.3125 6.9375 41.3125H35.0625C38.5156 41.3125 41.3125 38.5156 41.3125 35.0625V11.625C41.3125 8.51562 38.8125 3.8125 35.0625 3.8125ZM3.8125 10.0625C3.8125 8.34375 5.21875 6.9375 6.9375 6.9375V8.5C6.9375 9.35938 7.64062 10.0625 8.5 10.0625H10.0625C10.9219 10.0625 11.625 9.35938 11.625 8.5V6.9375H18.6562V8.5C18.6562 9.35938 19.3594 10.0625 20.2188 10.0625H21.7812C22.6406 10.0625 23.3438 9.35938 23.3438 8.5V6.9375H30.375V8.5C30.375 9.35938 31.0781 10.0625 31.9375 10.0625H33.5C34.3594 10.0625 35.0625 9.35938 35.0625 8.5V6.9375C36.5781 6.9375 38.1875 9.6875 38.1875 11.625H3.8125V10.0625ZM38.1875 35.0625C38.1875 36.7813 36.7813 38.1875 35.0625 38.1875H6.9375C5.21875 38.1875 3.8125 36.7813 3.8125 35.0625V14.75H38.1875V35.0625Z" fill="#1C5579"/>
<path d="M11.4062 28.25V35.0625C11.4062 35.9219 12.1094 36.625 12.9687 36.625H29.0469C29.9062 36.625 30.6094 35.9219 30.6094 35.0625V28.25C31.3594 28.1406 31.9531 27.5156 31.9531 26.7344V21C31.9531 20.1406 31.25 19.4375 30.3906 19.4375H24.7813L25.2344 18.9844C25.8437 18.375 25.8437 17.3906 25.2344 16.7812C24.625 16.1719 23.6406 16.1719 23.0312 16.7812L21 18.7969L18.9844 16.7812C18.375 16.1719 17.3906 16.1719 16.7813 16.7812C16.1719 17.3906 16.1719 18.375 16.7813 18.9844L17.2344 19.4375H11.625C10.7656 19.4375 10.0625 20.1406 10.0625 21V26.7344C10.0625 27.5156 10.6562 28.1406 11.4062 28.25ZM14.5312 28.2969H19.4375V33.5H14.5312V28.2969ZM27.4687 33.5H22.5625V28.2969H27.4687V33.5ZM28.8125 25.1719H22.5625V22.5625H28.8125V25.1719ZM13.1875 22.5625H19.4375V25.1719H13.1875V22.5625Z" fill="#1C5579"/>
</svg>
