<svg width="25" height="25" viewBox="0 0 25 25" fill="none" xmlns="http://www.w3.org/2000/svg">
<path fill-rule="evenodd" clip-rule="evenodd" d="M23.0027 23.2415H1.72021C1.05029 23.2415 0.50708 22.6957 0.50708 22.0222V7.67256C0.50708 6.99902 1.05029 6.45312 1.72021 6.45312H23.0027C23.6729 6.45312 24.2162 6.99902 24.2162 7.67251V22.0222C24.2162 22.6957 23.6729 23.2415 23.0027 23.2415Z" fill="#FEFEFE"/>
<mask id="mask0_2236_157" style="mask-type:luminance" maskUnits="userSpaceOnUse" x="0" y="5" width="25" height="19">
<path d="M0 5.94141V23.7482H24.7229V5.94141H0Z" fill="white"/>
</mask>
<g mask="url(#mask0_2236_157)">
<path fill-rule="evenodd" clip-rule="evenodd" d="M1.72026 6.95981C1.33071 6.95981 1.01348 7.27822 1.01348 7.66997V22.0196C1.01348 22.4114 1.33071 22.7298 1.72026 22.7298H23.0027C23.3922 22.7298 23.7094 22.4114 23.7094 22.0196V7.67002C23.7094 7.27822 23.3922 6.95981 23.0027 6.95981H1.72026ZM23.0027 23.7482H1.72026C0.771582 23.7482 0 22.9729 0 22.0196V7.67002C0 6.71675 0.771582 5.94141 1.72021 5.94141H23.0027C23.9513 5.94141 24.7229 6.7168 24.7229 7.66997V22.0196C24.7229 22.9729 23.9513 23.7482 23.0027 23.7482Z" fill="#2E2E30"/>
</g>
<path fill-rule="evenodd" clip-rule="evenodd" d="M16.1885 13.5624H14.0388V11.4023H10.5942V13.5624H8.44458V17.0232H10.5942V19.1836H14.0388V17.0232H16.1885V13.5624Z" fill="#E42E44"/>
<path fill-rule="evenodd" clip-rule="evenodd" d="M11.1012 18.6758H13.5319V17.025C13.5319 16.7439 13.7589 16.5158 14.0387 16.5158H15.6819V14.0729H14.0387C13.7589 14.0729 13.5319 13.8452 13.5319 13.5638V11.9126H11.1012V13.5638C11.1012 13.8452 10.8741 14.0729 10.5944 14.0729H8.95146V16.5158H10.5944C10.8741 16.5158 11.1012 16.7439 11.1012 17.025V18.6758ZM14.0387 19.6942H10.5944C10.3146 19.6942 10.0876 19.4661 10.0876 19.185V17.5341H8.44473C8.16499 17.5341 7.93799 17.3061 7.93799 17.025V13.5638C7.93799 13.2827 8.16504 13.0545 8.44473 13.0545H10.0876V11.4037C10.0876 11.1223 10.3147 10.8945 10.5944 10.8945H14.0387C14.3184 10.8945 14.5454 11.1223 14.5454 11.4037V13.0546H16.1887C16.4684 13.0546 16.6954 13.2827 16.6954 13.5638V17.025C16.6954 17.3061 16.4684 17.5342 16.1887 17.5342H14.5454V19.185C14.5454 19.4661 14.3184 19.6942 14.0387 19.6942Z" fill="#2E2E30"/>
<path fill-rule="evenodd" clip-rule="evenodd" d="M7.00049 3.10098V6.45049H9.10991V3.82368H15.8211V6.45049H17.9309V3.10103C17.9309 2.42617 17.3863 1.87891 16.7146 1.87891H8.2167C7.54507 1.87891 7.00049 2.42617 7.00049 3.10103" fill="#3D3D3D"/>
<mask id="mask1_2236_157" style="mask-type:luminance" maskUnits="userSpaceOnUse" x="6" y="1" width="13" height="6">
<path d="M18.4375 1.37109H6.4939V6.96108H18.4375V1.37109Z" fill="white"/>
</mask>
<g mask="url(#mask1_2236_157)">
<path fill-rule="evenodd" clip-rule="evenodd" d="M16.328 5.94268H17.4239V3.10234C17.4239 2.70928 17.1061 2.38945 16.7148 2.38945H8.2165C7.82529 2.38945 7.50737 2.70928 7.50737 3.10234V5.94268H8.60332V3.8251C8.60332 3.54399 8.83037 3.31587 9.11011 3.31587H15.8212C16.1009 3.31587 16.328 3.54399 16.328 3.8251V5.94268H16.328ZM17.9307 6.96108H15.8212C15.5415 6.96108 15.3145 6.7333 15.3145 6.4519V4.33428H9.61685V6.4519C9.61685 6.7333 9.3898 6.96108 9.11011 6.96108H7.00063C6.7209 6.96108 6.4939 6.7333 6.4939 6.4519V3.10234C6.4939 2.14775 7.26685 1.37109 8.21655 1.37109H16.7148C17.6645 1.37109 18.4375 2.14775 18.4375 3.10234V6.4519C18.4375 6.7333 18.2104 6.96108 17.9307 6.96108H17.9307Z" fill="#2E2E30"/>
</g>
<mask id="mask2_2236_157" style="mask-type:luminance" maskUnits="userSpaceOnUse" x="0" y="1" width="25" height="23">
<path d="M0 23.7495H24.7229V1.37109H0V23.7495Z" fill="white"/>
</mask>
<g mask="url(#mask2_2236_157)">
<path fill-rule="evenodd" clip-rule="evenodd" d="M2.5415 6.43711H5.41313V4.67969H2.5415V6.43711Z" fill="#FEFEFE"/>
</g>
<mask id="mask3_2236_157" style="mask-type:luminance" maskUnits="userSpaceOnUse" x="0" y="1" width="25" height="23">
<path d="M0 23.7495H24.7229V1.37109H0V23.7495Z" fill="white"/>
</mask>
<g mask="url(#mask3_2236_157)">
<path fill-rule="evenodd" clip-rule="evenodd" d="M3.04824 5.92925H4.9063V5.19028H3.04824V5.92935V5.92925ZM5.41309 6.94771H2.54141C2.26167 6.94771 2.03467 6.71992 2.03467 6.43848V4.68105C2.03467 4.39995 2.26172 4.17188 2.54141 4.17188H5.41299C5.69312 4.17188 5.91982 4.39995 5.91982 4.68105V6.43848C5.91982 6.71992 5.69312 6.94771 5.41299 6.94771H5.41309Z" fill="#2E2E30"/>
</g>
<mask id="mask4_2236_157" style="mask-type:luminance" maskUnits="userSpaceOnUse" x="0" y="1" width="25" height="23">
<path d="M0 23.7495H24.7229V1.37109H0V23.7495Z" fill="white"/>
</mask>
<g mask="url(#mask4_2236_157)">
<path fill-rule="evenodd" clip-rule="evenodd" d="M19.4756 6.43711H22.3472V4.67969H19.4756V6.43711Z" fill="#FEFEFE"/>
</g>
<mask id="mask5_2236_157" style="mask-type:luminance" maskUnits="userSpaceOnUse" x="0" y="1" width="25" height="23">
<path d="M0 23.7495H24.7229V1.37109H0V23.7495Z" fill="white"/>
</mask>
<g mask="url(#mask5_2236_157)">
<path fill-rule="evenodd" clip-rule="evenodd" d="M19.9825 5.92925H21.8406V5.19028H19.9825V5.92935V5.92925ZM22.3474 6.94771H19.4758C19.196 6.94771 18.969 6.71992 18.969 6.43848V4.68105C18.969 4.39995 19.196 4.17188 19.4758 4.17188H22.3474C22.6274 4.17188 22.8542 4.39995 22.8542 4.68105V6.43848C22.8542 6.71992 22.6274 6.94771 22.3474 6.94771Z" fill="#2E2E30"/>
</g>
<mask id="mask6_2236_157" style="mask-type:luminance" maskUnits="userSpaceOnUse" x="0" y="1" width="25" height="23">
<path d="M0 23.7495H24.7229V1.37109H0V23.7495Z" fill="white"/>
</mask>
<g mask="url(#mask6_2236_157)">
<path opacity="0.15" fill-rule="evenodd" clip-rule="evenodd" d="M23.0028 6.45312H22.3484C22.3828 6.97896 23.3116 23.2415 7.00073 23.2415H23.0028C23.673 23.2415 24.2163 22.6956 24.2163 22.0221V7.67256C24.2163 6.99902 23.673 6.45312 23.0028 6.45312Z" fill="#040605"/>
</g>
</svg>
