<svg width="23" height="22" viewBox="0 0 23 22" fill="none" xmlns="http://www.w3.org/2000/svg">
<g id="L&#225;&#187;&#139;ch h&#225;&#186;&#185;n 1" clip-path="url(#clip0_5055_254)">
<g id="Layer_x0020_1">
<g id="_2687341259392">
<path id="Vector" fill-rule="evenodd" clip-rule="evenodd" d="M6.15872 1.71542V3.27531H3.46053C1.99348 3.27531 0.909424 4.43929 0.909424 5.90754V18.2886C0.909424 19.803 1.99151 20.9695 3.31318 20.9695H19.5028C20.8245 20.9695 21.9066 19.803 21.9066 18.2886V5.90754C21.9066 4.44041 20.8186 3.27531 19.3555 3.27531C18.4244 3.27531 17.6874 3.10935 17.6874 3.8601C17.6874 4.65639 19.1083 4.21074 19.7509 4.39347C20.3816 4.57285 20.8273 5.10259 20.8273 5.90754V18.3372C20.8273 19.1754 20.2821 19.8971 19.4536 19.8971H3.26397C2.66922 19.8971 1.98842 19.226 1.98842 18.4347V5.90754C1.98842 5.02743 2.58739 4.34765 3.41104 4.34765H6.15844V5.90754C6.15844 6.60102 7.23771 6.60102 7.23771 5.90754V1.71542C7.23771 1.02194 6.15844 1.02194 6.15844 1.71542H6.15872Z" fill="black"/>
<path id="Vector_2" fill-rule="evenodd" clip-rule="evenodd" d="M6.69867 12.6331C6.69867 11.9743 6.90143 11.2674 7.09743 10.7871C7.70568 9.29593 9.48206 8.00259 11.1139 8.00259C12.1099 8.00259 12.5677 8.01683 13.4853 8.47365C13.8911 8.67566 14.5283 9.08191 14.7946 9.41523C15.0542 9.74018 14.9701 9.55857 15.2941 10.04C16.555 11.9131 16.3269 14.3581 14.7567 15.9116C13.816 16.8423 12.7196 17.3128 11.3102 17.3128C8.81279 17.3128 6.69867 15.16 6.69867 12.6334V12.6331ZM11.4083 18.3848C13.8751 18.3848 15.6697 16.9705 16.6253 15.0868C17.6461 13.0745 17.2302 10.3448 15.6149 8.74551C14.6116 7.75168 13.2935 6.92969 11.7025 6.92969C10.5484 6.92969 9.89094 7.00093 8.82432 7.53096C7.27796 8.29931 6.0668 9.81366 5.74538 11.5398C5.07948 15.1161 7.76951 18.3848 11.4081 18.3848H11.4083Z" fill="black"/>
<path id="Vector_3" fill-rule="evenodd" clip-rule="evenodd" d="M15.5782 1.71542V3.27531H8.8571C8.06326 3.27531 8.06326 4.34765 8.8571 4.34765H15.5782V5.90754C15.5782 6.60102 16.6575 6.60102 16.6575 5.90754V1.71542C16.6575 1.02194 15.5782 1.02194 15.5782 1.71542Z" fill="black"/>
<path id="Vector_4" fill-rule="evenodd" clip-rule="evenodd" d="M10.8687 9.51565V12.5865C10.8687 13.1216 11.3824 13.2317 12.0787 13.5776C12.3377 13.7061 12.5393 13.8064 12.7983 13.9352C12.996 14.0333 13.3585 14.268 13.5871 14.2182C13.848 14.1615 14.0769 13.9039 14.039 13.6276C13.9811 13.2043 13.2755 12.9783 12.7165 12.7003C12.5072 12.5963 12.1524 12.3901 11.9479 12.3426L11.9375 9.42847C11.8144 8.78138 10.8687 8.89063 10.8687 9.51565Z" fill="black"/>
</g>
</g>
</g>
<defs>
<clipPath id="clip0_5055_254">
<rect width="22.1422" height="22" fill="white" transform="translate(0.42041)"/>
</clipPath>
</defs>
</svg>
