<svg width="25" height="25" viewBox="0 0 25 25" fill="none" xmlns="http://www.w3.org/2000/svg">
<path d="M19.1312 5.74599L15.6781 9.89521L14.8222 10.705C14.589 10.9381 14.2727 11.0691 13.9429 11.0691C13.6132 11.0691 13.2969 10.9381 13.0636 10.705L9.51365 7.34404C9.26868 7.09918 9.07436 6.80846 8.94178 6.48848C8.80921 6.16851 8.74097 5.82555 8.74097 5.47919C8.74097 5.13284 8.80921 4.78988 8.94178 4.4699C9.07436 4.14992 9.26868 3.8592 9.51365 3.61435C9.75848 3.36934 10.0492 3.17498 10.3692 3.04237C10.6891 2.90976 11.0321 2.84151 11.3785 2.84151C11.7249 2.84151 12.0678 2.90976 12.3878 3.04237C12.7078 3.17498 12.9985 3.36934 13.2433 3.61435L13.9429 4.31357L14.6422 3.61435C16.398 1.85693 19.3789 3.29404 19.1312 5.74599Z" fill="#D50A0A"/>
<path d="M11.896 16.6344H12.3792C22.0155 13.9426 21.5433 14.0016 21.9444 14.0016C22.2898 14.0018 22.6252 14.1175 22.8974 14.3302C23.1695 14.5429 23.3628 14.8404 23.4465 15.1754C23.5303 15.5105 23.4997 15.864 23.3596 16.1797C23.2195 16.4954 22.978 16.7552 22.6733 16.918L13.9183 21.5137C13.1522 21.9426 12.2893 22.1685 11.4113 22.17C10.5334 22.1714 9.66967 21.9483 8.90225 21.5219L7.06357 20.5004H5.61396L5.13037 16.3711L5.61357 12.2852H7.54639L8.996 13.7348H11.8956C12.276 13.741 12.6387 13.8964 12.9056 14.1676C13.1724 14.4388 13.322 14.8039 13.322 15.1844C13.3221 15.5648 13.1726 15.93 12.9058 16.2013C12.6391 16.4725 12.2764 16.6281 11.896 16.6344Z" fill="#FDD8AE"/>
<path d="M5.96753 3.06719C6.08831 3.0728 6.2068 3.10215 6.31624 3.15356C6.42568 3.20497 6.52392 3.27743 6.60535 3.36681C6.68678 3.45619 6.74982 3.56073 6.79085 3.67446C6.83188 3.7882 6.8501 3.90891 6.84448 4.02969L6.74292 6.21406L4.55855 6.1125C4.32212 6.10146 4.09901 5.99983 3.93551 5.82869C3.77201 5.65755 3.68066 5.43005 3.68042 5.19336L3.6812 5.15C3.69264 4.90614 3.80046 4.67681 3.98096 4.51243C4.16145 4.34805 4.39984 4.26209 4.6437 4.27344L4.98823 4.28945L5.00464 3.94453C5.01559 3.70807 5.11719 3.48491 5.28834 3.32139C5.4595 3.15787 5.68707 3.06655 5.92378 3.06641L5.96753 3.06719ZM20.5945 7.43672C20.5948 7.66105 20.5508 7.88323 20.465 8.09051C20.3792 8.29778 20.2533 8.48606 20.0945 8.64453L17.7953 10.8211C17.6442 10.9721 17.4393 11.057 17.2257 11.057C17.0121 11.057 16.8073 10.9721 16.6562 10.8211L14.3574 8.64453C13.2808 7.56797 14.0546 5.72852 15.5652 5.72852C16.5382 5.72852 16.9457 6.46328 17.2261 6.68203C17.4722 6.50352 18.0046 5.58398 19.1316 5.74609C19.4835 5.79688 20.5945 6.58125 20.5945 7.43672Z" fill="#FE6363"/>
<path d="M11.8961 16.8762H8.03013C7.966 16.8762 7.9045 16.8507 7.85915 16.8054C7.8138 16.76 7.78833 16.6985 7.78833 16.6344C7.78833 16.5702 7.8138 16.5087 7.85915 16.4634C7.9045 16.4181 7.966 16.3926 8.03013 16.3926H11.8961C12.2165 16.3923 12.5236 16.2649 12.7501 16.0384C12.9766 15.8118 13.104 15.5047 13.1043 15.1844C13.1043 14.8617 12.9786 14.5586 12.7504 14.3301C12.6385 14.2175 12.5054 14.1283 12.3587 14.0676C12.2121 14.0068 12.0549 13.9758 11.8961 13.9762H8.99653C8.96483 13.9762 8.93344 13.9699 8.90415 13.9578C8.87486 13.9457 8.84825 13.9279 8.82583 13.9055L7.44692 12.5266H5.61411C5.54998 12.5266 5.48848 12.5011 5.44314 12.4557C5.39779 12.4104 5.37231 12.3489 5.37231 12.2848C5.37231 12.2206 5.39779 12.1591 5.44314 12.1138C5.48848 12.0684 5.54998 12.043 5.61411 12.043H7.54692C7.61099 12.043 7.67231 12.0684 7.71763 12.1137L9.09653 13.4926H11.8958C12.3473 13.4926 12.7719 13.6688 13.0915 13.9883C13.249 14.1449 13.374 14.3312 13.4591 14.5365C13.5442 14.7417 13.5877 14.9618 13.5872 15.184C13.5868 15.6325 13.4086 16.0625 13.0916 16.3798C12.7746 16.697 12.3446 16.8756 11.8961 16.8762Z" fill="#FBBF7D"/>
<path d="M5.61362 21.6859H1.2644V11.0547H5.61362V21.6859Z" fill="#0A56A4"/>
<path d="M3.68096 20.2359C3.94782 20.2359 4.16416 20.0196 4.16416 19.7527C4.16416 19.4859 3.94782 19.2695 3.68096 19.2695C3.41409 19.2695 3.19775 19.4859 3.19775 19.7527C3.19775 20.0196 3.41409 20.2359 3.68096 20.2359Z" fill="#FBBF7D"/>
</svg>
