<svg width="25" height="25" viewBox="0 0 25 25" fill="none" xmlns="http://www.w3.org/2000/svg">
<path d="M19.2861 9.33386C19.2859 9.28063 19.2745 9.22803 19.2527 9.17948C19.2308 9.13094 19.199 9.08754 19.1592 9.05211C19.1193 9.01685 19.0724 8.99039 19.0215 8.97445C18.9707 8.9585 18.9171 8.95343 18.8642 8.95955L6.03717 10.4699C5.94534 10.4807 5.86068 10.5249 5.79925 10.594C5.73782 10.6631 5.70387 10.7524 5.70386 10.8449V14.243C5.70386 15.7332 9.97586 16.1309 12.5001 16.1309C15.0242 16.1309 19.2964 15.7332 19.2964 14.243V14.2422L19.2861 9.33386Z" fill="#0B4870"/>
<path d="M19.2861 10.4688H12.4897V16.1323L12.5001 16.1323C14.9584 16.1323 19.0723 15.7547 19.2861 14.3588V10.4688Z" fill="#0B4870"/>
<path d="M23.754 7.24884L14.0917 3.93597C13.0652 3.58384 11.9347 3.58384 10.9081 3.93597L1.2461 7.24884C0.781225 7.40809 0.480225 7.82859 0.480225 8.32034C0.480225 8.81184 0.781162 9.23241 1.2461 9.39166L10.9082 12.7044C11.4206 12.8796 11.9584 12.9688 12.5 12.9685C13.0415 12.9689 13.5793 12.8796 14.0917 12.7044L23.7542 9.39166C24.2192 9.23241 24.5197 8.81191 24.5197 8.32034C24.5195 7.82859 24.219 7.40809 23.754 7.24884Z" fill="#0E538C"/>
<path d="M19.6635 16.5082C19.614 16.5082 19.5649 16.4985 19.5191 16.4795C19.4732 16.4605 19.4316 16.4327 19.3966 16.3977C19.3615 16.3626 19.3337 16.321 19.3147 16.2752C19.2958 16.2294 19.286 16.1803 19.286 16.1307V11.1972C19.286 11.1185 19.2614 11.0417 19.2157 10.9777C19.17 10.9136 19.1054 10.8654 19.0309 10.8399L12.3673 8.5553C12.2726 8.52279 12.1946 8.45402 12.1506 8.36409C12.1065 8.27417 12.1 8.17043 12.1323 8.07567C12.2002 7.87842 12.4145 7.77286 12.6121 7.84105L19.2757 10.1257C19.499 10.2023 19.6929 10.3467 19.8301 10.5388C19.9674 10.7309 20.0412 10.9611 20.0412 11.1972V16.1307C20.0412 16.1803 20.0314 16.2294 20.0124 16.2752C19.9934 16.321 19.9656 16.3627 19.9306 16.3977C19.8955 16.4328 19.8539 16.4606 19.808 16.4795C19.7622 16.4985 19.7131 16.5083 19.6635 16.5082Z" fill="#2A94F4"/>
<path d="M20.0411 19.1522H19.286C19.2364 19.1522 19.1873 19.1424 19.1415 19.1234C19.0957 19.1045 19.0541 19.0766 19.019 19.0416C18.9839 19.0065 18.9561 18.9649 18.9372 18.919C18.9182 18.8732 18.9084 18.8241 18.9084 18.7745V16.5091C18.9084 16.092 19.2464 15.7539 19.6635 15.7539C20.0807 15.7539 20.4186 16.092 20.4186 16.5091V18.7745C20.4187 18.8241 20.4089 18.8732 20.3899 18.919C20.371 18.9648 20.3432 19.0065 20.3081 19.0415C20.2731 19.0766 20.2314 19.1044 20.1856 19.1234C20.1398 19.1424 20.0907 19.1522 20.0411 19.1522Z" fill="#FFBE55"/>
<path d="M19.2859 13.4093C19.2885 13.4077 19.2918 13.4062 19.2944 13.4045L19.2922 12.3711C19.2918 12.377 19.2869 12.3837 19.2859 12.3895V13.4093Z" fill="#5C546A"/>
<path d="M12.5 8.95556C13.3341 8.95556 14.0102 8.61748 14.0102 8.20044C14.0102 7.78339 13.3341 7.44531 12.5 7.44531C11.6659 7.44531 10.9897 7.78339 10.9897 8.20044C10.9897 8.61748 11.6659 8.95556 12.5 8.95556Z" fill="#D3D3D3"/>
</svg>
