<svg width="25" height="25" viewBox="0 0 25 25" fill="none" xmlns="http://www.w3.org/2000/svg">
<g clip-path="url(#clip0_2236_375)">
<path d="M8.31396 18.0979L6.90356 16.6875L5.16787 18.4231L6.57832 19.8335L8.31396 18.0979Z" fill="#676E87"/>
<path d="M6.90381 16.6875L7.27002 17.0537L6.604 17.7197C6.41741 17.9063 6.31258 18.1594 6.31258 18.4233C6.31258 18.6872 6.41741 18.9403 6.604 19.127L6.9458 19.4687L6.57959 19.835L5.16943 18.4248L6.90381 16.6875Z" fill="#595F74"/>
<path d="M0.882722 24.1156C1.04654 24.2794 1.24104 24.4094 1.45509 24.4981C1.66915 24.5867 1.89858 24.6324 2.13028 24.6324C2.36198 24.6324 2.59141 24.5867 2.80547 24.4981C3.01953 24.4094 3.21402 24.2794 3.37784 24.1156L6.57804 20.9154C6.64934 20.8442 6.70592 20.7596 6.74451 20.6665C6.78311 20.5734 6.80298 20.4737 6.80298 20.3729C6.80298 20.2721 6.78311 20.1723 6.74451 20.0793C6.70592 19.9862 6.64934 19.9016 6.57804 19.8304L5.16788 18.4203C5.09668 18.3489 5.01212 18.2924 4.91903 18.2538C4.82595 18.2152 4.72617 18.1953 4.6254 18.1953C4.52463 18.1953 4.42485 18.2152 4.33176 18.2538C4.23868 18.2924 4.15412 18.3489 4.08292 18.4203L0.882722 21.6205C0.718872 21.7843 0.588898 21.9788 0.500221 22.1928C0.411544 22.4069 0.365903 22.6363 0.365903 22.868C0.365903 23.0997 0.411544 23.3291 0.500221 23.5432C0.588898 23.7573 0.718872 23.9517 0.882722 24.1156Z" fill="#FFCD85"/>
<path d="M0.882812 21.6205L4.08301 18.4203C4.15421 18.3489 4.23877 18.2924 4.33185 18.2538C4.42494 18.2152 4.52472 18.1953 4.62549 18.1953C4.72626 18.1953 4.82604 18.2152 4.91912 18.2538C5.01221 18.2924 5.09677 18.3489 5.16797 18.4203L5.35791 18.6102L2.34766 21.6205C2.1838 21.7843 2.05383 21.9788 1.96515 22.1928C1.87648 22.4069 1.83084 22.6363 1.83084 22.868C1.83084 23.0997 1.87648 23.3291 1.96515 23.5432C2.05383 23.7573 2.1838 23.9517 2.34766 24.1156C2.49666 24.2645 2.67113 24.3855 2.86279 24.473C2.53564 24.6222 2.17073 24.6679 1.81689 24.604C1.46305 24.5401 1.13716 24.3697 0.882812 24.1156C0.718961 23.9517 0.588987 23.7573 0.50031 23.5432C0.411634 23.3291 0.365993 23.0997 0.365993 22.868C0.365993 22.6363 0.411634 22.4069 0.50031 22.1928C0.588987 21.9788 0.718961 21.7843 0.882812 21.6205Z" fill="#FFC166"/>
<path d="M7.36859 17.6301C3.41777 13.6793 3.41777 7.27379 7.36859 3.32298C11.3194 -0.627841 17.7249 -0.627841 21.6758 3.32298C25.6266 7.27379 25.6266 13.6793 21.6758 17.6301C17.7249 21.581 11.3194 21.581 7.36859 17.6301Z" fill="#B3E0FF"/>
<path d="M14.522 18.6182C10.0258 18.6182 6.38086 14.9733 6.38086 10.4771C6.38086 5.98084 10.0258 2.33594 14.522 2.33594C19.0182 2.33594 22.6631 5.98084 22.6631 10.4771C22.6631 14.9733 19.0182 18.6182 14.522 18.6182Z" fill="#D9F0FF"/>
<path d="M12.4224 9.32666H16.6216C16.7187 9.32666 16.8119 9.28808 16.8805 9.2194C16.9492 9.15072 16.9878 9.05757 16.9878 8.96045V7.30029C16.9875 7.027 16.8789 6.76497 16.6856 6.57172C16.4924 6.37847 16.2303 6.26979 15.957 6.26953H13.0859C12.8126 6.26979 12.5506 6.37847 12.3574 6.57172C12.1641 6.76497 12.0554 7.027 12.0552 7.30029V8.96045C12.0552 9.00862 12.0647 9.05632 12.0831 9.10082C12.1016 9.14531 12.1287 9.18573 12.1628 9.21975C12.1969 9.25376 12.2374 9.28072 12.2819 9.29906C12.3265 9.31741 12.3742 9.32679 12.4224 9.32666ZM16.2554 8.59424H12.7886V7.29883C12.7887 7.21974 12.8202 7.14393 12.8761 7.08801C12.932 7.03209 13.0078 7.00062 13.0869 7.00049H15.957C16.0361 7.00062 16.1119 7.03209 16.1678 7.08801C16.2238 7.14393 16.2552 7.21974 16.2554 7.29883V8.59424Z" fill="#676E87"/>
<path d="M10.5425 8.22656H18.501C18.8329 8.22656 19.1021 8.49567 19.1021 8.82764V13.7202C19.1021 14.0522 18.8329 14.3213 18.501 14.3213H10.5425C10.2105 14.3213 9.94141 14.0522 9.94141 13.7202V8.82764C9.94141 8.49567 10.2105 8.22656 10.5425 8.22656Z" fill="#FFC166"/>
<path d="M10.543 8.22656H12.0078C11.8484 8.22656 11.6954 8.28987 11.5826 8.40258C11.4698 8.51529 11.4064 8.66818 11.4062 8.82764V13.7197C11.4064 13.8792 11.4698 14.0321 11.5826 14.1448C11.6954 14.2575 11.8484 14.3208 12.0078 14.3208H10.543C10.3835 14.3208 10.2306 14.2575 10.1178 14.1448C10.005 14.0321 9.94154 13.8792 9.94141 13.7197V8.82764C9.94154 8.66818 10.005 8.51529 10.1178 8.40258C10.2306 8.28987 10.3835 8.22656 10.543 8.22656Z" fill="#FFB74E"/>
<path d="M9.94141 10.0576L14.124 11.8784C14.2496 11.933 14.385 11.9612 14.522 11.9612C14.6589 11.9612 14.7944 11.933 14.9199 11.8784L19.1021 10.0576V8.82764C19.1021 8.66822 19.0387 8.51534 18.926 8.40261C18.8133 8.28989 18.6604 8.22656 18.501 8.22656H10.542C10.3825 8.22656 10.2296 8.28987 10.1168 8.40258C10.004 8.51529 9.94056 8.66818 9.94043 8.82764L9.94141 10.0576Z" fill="#FFAE36"/>
<path d="M10.543 8.22656H12.0078C11.8484 8.22656 11.6954 8.28987 11.5826 8.40258C11.4698 8.51529 11.4064 8.66818 11.4062 8.82764V10.6924L9.94141 10.0547V8.82764C9.94154 8.66818 10.005 8.51529 10.1178 8.40258C10.2306 8.28987 10.3835 8.22656 10.543 8.22656Z" fill="#FFA41F"/>
<path d="M14.1313 11.0859H14.9126C15.1014 11.0859 15.2544 11.239 15.2544 11.4277V12.209C15.2544 12.3978 15.1014 12.5508 14.9126 12.5508H14.1313C13.9426 12.5508 13.7896 12.3978 13.7896 12.209V11.4277C13.7896 11.239 13.9426 11.0859 14.1313 11.0859Z" fill="#676E87"/>
<path d="M14.1313 11.0859H14.6919C14.6012 11.0859 14.5143 11.1219 14.4502 11.186C14.3861 11.2501 14.3501 11.3371 14.3501 11.4277V12.209C14.3501 12.2996 14.3861 12.3866 14.4502 12.4507C14.5143 12.5148 14.6012 12.5508 14.6919 12.5508H14.1313C14.0407 12.5508 13.9538 12.5148 13.8897 12.4507C13.8256 12.3866 13.7896 12.2996 13.7896 12.209V11.4277C13.7896 11.3371 13.8256 11.2501 13.8897 11.186C13.9538 11.1219 14.0407 11.0859 14.1313 11.0859Z" fill="#595F74"/>
</g>
<defs>
<clipPath id="clip0_2236_375">
<rect width="25" height="25" fill="white" transform="matrix(-1 0 0 1 25 0)"/>
</clipPath>
</defs>
</svg>
