<svg width="47" height="50" viewBox="0 0 47 50" fill="none" xmlns="http://www.w3.org/2000/svg">
<path fill-rule="evenodd" clip-rule="evenodd" d="M32.9823 33.3145C32.9823 31.7075 33.8952 30.007 34.7287 29.1782C38.4051 25.526 45.0756 28.0351 45.0756 33.3145C45.0756 38.9607 38.4254 41.3315 34.7617 37.6907C33.8024 36.7376 32.9823 35.2119 32.9823 33.3145ZM31.0586 32.7685H6.59684C5.87706 32.7685 5.22271 33.0431 5.22271 33.7242C5.22271 34.8723 6.25378 34.8244 7.42081 34.8174L31.1965 34.8162C31.2607 35.5806 31.5859 36.1802 31.746 36.8644H7.69652C6.18708 36.8606 5.22271 36.7174 5.22271 38.0934C5.22271 39.2289 7.72575 38.9127 8.93343 38.9127H31.6088C34.432 38.9083 32.6602 38.765 34.8494 40.1991C35.5806 40.6782 36.4484 40.9982 37.3099 41.168C37.7342 41.2513 38.0678 41.1724 38.0678 41.6439V47.2421C38.0678 47.5615 37.8397 47.7881 37.5183 47.7881H2.47509C2.15363 47.7881 1.92556 47.5615 1.92556 47.2421V8.73718C4.29773 8.73718 7.83502 9.34377 7.83502 6.27926V1.91003H37.5189C38.3625 1.91003 38.0684 3.55181 38.0684 4.36796V25.5324C36.4395 25.6668 34.4346 26.7481 33.2898 27.8842L31.8356 29.9899C31.5268 30.6294 31.079 31.9265 31.0599 32.7692L31.0586 32.7685ZM3.02397 6.82588L5.91009 3.41231C5.91009 4.118 6.06574 5.94282 5.83259 6.47556C5.57593 7.06258 4.33839 6.82588 3.02461 6.82588H3.02397ZM0.000635303 7.64519V47.3791C0.000635303 48.4805 1.00947 49.7007 2.06215 49.7007H37.9299C38.5817 49.7007 39.1414 49.166 39.4807 48.7835C40.595 47.5268 39.5855 43.5085 39.9914 41.6446C40.1591 40.8751 40.2691 41.4811 41.7232 40.9079C42.389 40.6454 42.8915 40.3866 43.4563 40.0356C46.6982 38.0176 48.0831 33.5272 46.0406 29.6264C45.7491 29.0696 44.9327 27.9726 44.4099 27.5598C44.1303 27.3382 43.9347 27.1722 43.6456 26.9538C42.8655 26.3649 41.1928 25.6321 39.9908 25.533C39.9908 24.1544 40.1401 2.41689 39.8828 1.60958C39.663 0.921563 38.7787 0 37.9299 0H6.45962C5.97934 0 5.10073 1.34195 4.76784 1.73267L2.33723 4.64317C1.85886 5.25291 0 7.26394 0 7.64582L0.000635303 7.64519Z" fill="black"/>
<path fill-rule="evenodd" clip-rule="evenodd" d="M23.3612 25.6695C25.2461 25.6695 24.9501 24.9847 25.6972 24.4406C25.9087 24.8382 26.0955 25.1393 26.342 25.5748C26.5917 26.0167 26.8115 26.2382 26.9341 26.7615C26.4862 26.7514 25.0307 26.0994 24.8726 27.9905C24.3637 27.8554 24.2023 27.2715 23.6744 26.3134C23.6376 26.2465 23.5302 26.0565 23.527 26.0501L23.3612 25.6695ZM15.1158 27.9905C14.9697 26.2471 13.7245 26.6877 13.0581 26.7849C13.1769 26.2376 13.3961 26.0167 13.6464 25.5748C13.8929 25.1393 14.079 24.8382 14.2912 24.4406C14.6654 24.7126 14.6876 25.0131 15.1666 25.3457C15.6196 25.6601 15.9061 25.6695 16.6278 25.6695L15.6291 27.5448C15.394 27.952 15.6253 27.8554 15.1158 27.9905ZM11.8174 14.3362C11.8174 13.9196 12.6877 13.3446 12.9196 12.9734C13.2271 12.4817 13.3294 11.7362 13.3294 10.9226C15.1234 10.5073 15.4557 10.0276 16.2155 8.60104C16.8813 8.65595 16.5776 8.73801 17.7275 8.73801C18.9078 8.73801 19.2121 8.00834 20.0641 7.78236C22.0233 9.08581 21.9845 8.74937 23.7748 8.60167C24.1286 9.91837 25.3636 10.6228 26.6609 10.9233C26.6609 13.7214 28.1729 13.6842 28.1729 14.2005C28.1729 14.9952 27.7606 15.3916 27.7606 16.2488C27.7606 17.0529 28.1729 17.3654 28.1729 18.0237C28.1729 18.41 27.3311 19.0141 27.0948 19.4105C26.9239 19.697 26.8489 19.9154 26.7638 20.3106C26.6044 21.0516 26.7949 21.1267 26.5307 21.4449C26.4277 21.5686 25.1896 21.9643 24.8465 22.2294C24.5016 22.4952 23.9895 23.3562 23.7748 23.7589C23.0455 23.7589 22.9826 23.6225 22.4007 23.6225C21.2692 23.6225 20.6263 24.5005 20.0456 24.5371C19.6454 24.5624 19.2553 24.2051 18.9625 24.0347C17.7586 23.3347 17.2059 23.7589 16.2161 23.7589C16.0217 23.394 15.5192 22.5514 15.22 22.2907C14.753 21.8835 13.7347 21.6816 13.5314 21.5111C13.0848 21.1375 13.5041 20.6483 12.9927 19.5885C12.7875 19.163 11.8186 18.2503 11.8186 18.1607C11.8186 17.3565 12.2309 17.0441 12.2309 16.3857C12.2309 15.4452 11.8186 14.9668 11.8186 14.3375L11.8174 14.3362ZM16.4899 6.68974C14.7308 6.68974 14.4608 8.32899 13.7423 8.73864C13.1883 9.05425 12.7049 9.01637 12.1414 9.46958C11.642 9.87166 11.4946 10.429 11.4006 11.1915C11.205 12.7752 9.77746 12.7007 9.78508 14.3356C9.78762 14.9081 10.2406 15.7141 10.2603 16.1288C10.2819 16.577 9.75586 17.5263 9.75586 18.0231C9.75586 19.3865 10.9527 19.8025 11.2412 20.5069C11.8078 21.8924 10.9801 22.338 12.642 23.2116C12.3993 24.2462 10.0309 27.3511 10.0309 28.4001C10.0309 29.7888 12.5422 28.8098 13.4666 28.8098C13.5288 29.5496 14.4716 33.3027 16.1907 30.4238L17.7853 27.6389C18.0153 27.2526 18.4466 26.6037 18.5514 26.2155C19.1461 26.2648 19.3983 26.5223 19.9465 26.5431C20.4268 26.5608 20.8461 26.2648 21.4376 26.2155L22.9966 29.0358C23.2678 29.5294 23.5162 29.9516 23.7983 30.4238C24.7004 31.9343 25.5593 31.7695 26.0313 30.5058C26.199 30.0558 26.4849 29.2567 26.5224 28.8092C27.5725 28.8092 29.958 29.9226 29.958 28.2632C29.958 27.4584 27.5852 24.2253 27.347 23.211C28.2802 22.7205 28.4435 22.4447 28.6036 21.1823C28.7834 19.7589 29.3825 20.1035 29.9199 19.0753C30.5304 17.9057 30.0038 17.5364 29.7617 16.435C29.5769 15.5961 30.4548 14.9605 30.1124 13.7833C29.8056 12.7266 28.9765 12.4842 28.7281 11.872C28.3355 10.9043 28.7637 10.1387 27.7695 9.41151C26.7918 8.69635 26.4201 9.22909 25.6705 8.08282C24.0823 5.6533 23.0791 7.37334 21.7355 6.5332C20.4529 5.7322 19.7731 5.5826 18.3392 6.47829C17.2948 7.13033 17.6722 6.68974 16.4918 6.68974H16.4899Z" fill="black"/>
<path fill-rule="evenodd" clip-rule="evenodd" d="M38.2046 34.5524C37.7192 34.2292 37.3292 33.9489 36.8622 33.5651C36.1882 33.0116 35.8324 32.6411 35.1813 32.6411C35.0618 32.6411 33.3523 33.3038 35.18 34.6906L37.1843 36.249C37.5268 36.5205 38.3965 37.4736 39.2522 36.4125L41.1949 34.1105C41.5577 33.7046 43.7018 31.5383 43.7018 31.0024C43.7018 30.1711 42.9578 29.7135 42.2565 30.0998L40.8569 31.5895C40.578 31.9171 40.5577 32.0092 40.2324 32.3343L38.9498 33.7911C38.6366 34.1957 38.6137 34.2797 38.204 34.5524H38.2046Z" fill="black"/>
</svg>
