<svg width="20" height="19" viewBox="0 0 20 19" fill="none" xmlns="http://www.w3.org/2000/svg">
<g id="Ch&#195;&#173;nh s&#195;&#161;ch v&#195;&#160; &#196;&#145;i&#225;&#187;&#129;u lu&#225;&#186;&#173;t 1" clip-path="url(#clip0_5055_418)">
<g id="Layer_x0020_1">
<g id="_2687310891168">
<path id="Vector" d="M1.75245 2.75474L1.8568 2.63131L2.96012 1.32636L3.09239 1.16991V1.37478C3.09239 1.4403 3.09601 1.53253 3.10022 1.6395L3.10024 1.63998C3.10442 1.74638 3.10911 1.86609 3.11099 1.98389C3.11287 2.10151 3.11198 2.21872 3.1048 2.32016L1.75245 2.75474ZM1.75245 2.75474H1.91407M1.75245 2.75474H1.91407M1.91407 2.75474H1.91432C2.03062 2.75474 2.14549 2.75966 2.25607 2.76441C2.26304 2.76471 2.26999 2.765 2.27692 2.7653C2.39297 2.77026 2.50493 2.7747 2.60469 2.7719C2.70369 2.76912 2.79698 2.75915 2.87402 2.73221C2.95269 2.70471 3.02101 2.65696 3.05647 2.57588L1.91407 2.75474ZM0.8333 2.99412C0.833684 2.99265 0.83449 2.98988 0.836121 2.98562C0.839644 2.97642 0.845558 2.96397 0.854435 2.94807C0.872177 2.91628 0.898741 2.87604 0.932758 2.82892C1.00061 2.73493 1.09374 2.61954 1.19374 2.50005C1.28178 2.39485 1.37589 2.28568 1.46128 2.18662C1.56665 2.06438 1.65876 1.95753 1.70983 1.89252L2.63806 0.781029C2.66749 0.746464 2.70685 0.694325 2.75049 0.636533C2.75673 0.628263 2.76307 0.619878 2.76947 0.611411C2.82168 0.542361 2.88037 0.465518 2.94051 0.39359C3.00097 0.321266 3.06096 0.256268 3.11544 0.209936C3.14264 0.1868 3.16675 0.169815 3.18731 0.158908C3.20842 0.147719 3.22133 0.145313 3.22746 0.145313H15.258C15.3945 0.145313 15.543 0.220577 15.6716 0.335305C15.7996 0.449576 15.8961 0.592585 15.9332 0.708454L16.0046 0.685629C16.0893 0.951391 16.0587 7.15036 16.0486 9.20354C16.047 9.53467 16.0459 9.75797 16.0459 9.83116C16.5054 9.86904 17.1448 10.1492 17.4431 10.3743M0.8333 2.99412L15.9331 0.708403L15.9332 0.708444C15.9333 0.708842 15.934 0.711728 15.9351 0.718366C15.9363 0.725217 15.9375 0.73431 15.9388 0.74587C15.9414 0.768983 15.944 0.799784 15.9464 0.838194C15.9513 0.914908 15.9557 1.01929 15.9597 1.14788C15.9675 1.4049 15.9733 1.75628 15.9776 2.17147C15.986 3.00173 15.9881 4.08554 15.9871 5.17644C15.9857 6.75166 15.9779 8.34411 15.9736 9.2052C15.972 9.53569 15.9709 9.75845 15.9709 9.83116V9.90023L16.0397 9.90591C16.259 9.92399 16.5259 10.0006 16.7768 10.1021C17.0277 10.2035 17.2557 10.3269 17.3979 10.4342M0.8333 2.99412V18.1826C0.8333 18.3716 0.920725 18.5766 1.0581 18.7351C1.19589 18.894 1.3739 18.9951 1.54638 18.9951H15.258C15.362 18.9951 15.463 18.9523 15.5568 18.8878C15.6503 18.8234 15.7316 18.7409 15.7948 18.6697C15.8856 18.5672 15.9391 18.4003 15.9648 18.1818C15.9902 17.9655 15.987 17.7113 15.9751 17.4453C15.9703 17.3373 15.964 17.2265 15.9577 17.1159C15.9486 16.9577 15.9396 16.8001 15.9351 16.6521C15.9274 16.3997 15.9319 16.1622 15.9728 15.9744L15.9729 15.9744C15.9884 15.903 16.006 15.842 16.0437 15.8018C16.0872 15.7554 16.1438 15.7497 16.1874 15.7466C16.1971 15.7459 16.2074 15.7453 16.2185 15.7447C16.3074 15.7398 16.4438 15.7323 16.6807 15.639L0.8333 2.99412ZM17.4431 10.3743L17.3979 10.4342C17.3979 10.4342 17.3979 10.4342 17.3979 10.4342M17.4431 10.3743C17.5154 10.4289 17.5724 10.475 17.6331 10.524C17.6652 10.5499 17.6983 10.5767 17.7352 10.606L17.3979 10.4342M17.4431 10.3743L17.3979 10.4342M13.9814 11.1715L13.9814 11.1715C13.6513 11.4997 13.2916 12.1681 13.2916 12.8059C13.2916 13.5534 13.6148 14.1552 13.994 14.532C15.439 15.968 18.0647 15.0351 18.0647 12.8059C18.0647 10.7153 15.4301 9.73236 13.9814 11.1715ZM3.27992 12.6722H12.6137L12.7041 12.7171L12.7067 12.5991C12.7102 12.4481 12.7525 12.2512 12.8103 12.0586C12.867 11.8698 12.9367 11.691 12.9933 11.5728L13.5419 10.7784C13.7539 10.5693 14.0462 10.3636 14.3621 10.2038C14.6807 10.0425 15.0184 9.93032 15.3172 9.90566L15.386 9.89998V9.83092V1.74011C15.386 1.68285 15.3899 1.61478 15.3943 1.53926C15.3956 1.51544 15.3971 1.49088 15.3984 1.46568C15.4039 1.3627 15.4081 1.25126 15.4018 1.14864C15.3955 1.04768 15.3785 0.945983 15.3356 0.867468C15.3136 0.82715 15.2836 0.790882 15.2429 0.764879C15.2018 0.738596 15.154 0.725488 15.1009 0.725488H3.75326H3.67826V0.800488V2.47077C3.67826 2.74824 3.59875 2.93299 3.47438 3.05917C3.34821 3.18719 3.16743 3.26356 2.94935 3.3063C2.73149 3.349 2.48374 3.35675 2.23074 3.35333C2.12064 3.35184 2.00699 3.34812 1.89495 3.34445C1.75559 3.33988 1.6187 3.33539 1.49417 3.33539H1.41917V3.41039V18.1302C1.41917 18.2096 1.44783 18.2815 1.50026 18.3336C1.55265 18.3856 1.62473 18.4139 1.70424 18.4139H15.1007C15.1802 18.4139 15.2523 18.3856 15.3047 18.3336C15.3571 18.2815 15.3857 18.2096 15.3857 18.1302V15.9901C15.3857 15.9371 15.3765 15.8895 15.3518 15.8502C15.3261 15.8093 15.2894 15.7865 15.2524 15.773C15.2175 15.7603 15.1786 15.7547 15.1443 15.7503C15.1372 15.7494 15.1301 15.7485 15.1231 15.7476C15.094 15.744 15.0656 15.7405 15.0355 15.7346C14.7138 15.6712 14.3915 15.5519 14.1215 15.375L14.0804 15.4378L14.1215 15.375C13.9158 15.2403 13.8055 15.1441 13.7389 15.0767C13.7072 15.0446 13.6848 15.0184 13.6653 14.9956L13.6622 14.992L13.6617 14.9914C13.6427 14.9693 13.6223 14.9455 13.598 14.9265C13.5422 14.8831 13.4773 14.8733 13.3751 14.8701C13.312 14.8681 13.2259 14.8687 13.107 14.8696C13.0323 14.8702 12.9446 14.8708 12.8415 14.871H4.17316C4.09169 14.871 3.99901 14.8744 3.90069 14.8781C3.70716 14.8852 3.49174 14.8932 3.29681 14.8774C3.15104 14.8656 3.02904 14.841 2.94557 14.7981C2.86625 14.7575 2.82961 14.7057 2.82961 14.6328C2.82961 14.509 2.85147 14.4297 2.8846 14.3774C2.91653 14.327 2.96404 14.2936 3.03366 14.2716C3.10538 14.249 3.19689 14.2396 3.31098 14.2368C3.38473 14.235 3.46387 14.2358 3.55019 14.2368C3.59788 14.2373 3.64775 14.2379 3.70012 14.238H3.70031H12.894H12.9886L12.9671 14.1459C12.9429 14.0427 12.9089 13.9432 12.8761 13.8473C12.866 13.8176 12.856 13.7884 12.8465 13.7594C12.8052 13.6347 12.7702 13.5109 12.7587 13.3737L12.7529 13.305L12.684 13.305L3.59491 13.3054L3.59447 13.3055C3.58105 13.3055 3.56775 13.3056 3.55457 13.3057C3.34257 13.3071 3.16225 13.3083 3.03056 13.2657C2.96361 13.2441 2.91569 13.2127 2.88368 13.169C2.85164 13.1253 2.82961 13.0611 2.82961 12.9625C2.82961 12.8614 2.87588 12.7931 2.95297 12.7463C3.03397 12.6972 3.15011 12.6722 3.27992 12.6722Z" fill="black" stroke="white" stroke-width="0.15"/>
<path id="Vector_2" d="M6.46954 10.8653L6.46207 10.7761C6.4488 10.6178 6.41123 10.5182 6.36558 10.4557C6.32117 10.3948 6.26506 10.3634 6.20116 10.3486C6.1351 10.3333 6.06036 10.3358 5.98241 10.346C5.94379 10.351 5.90569 10.3577 5.86833 10.3646C5.86302 10.3655 5.8577 10.3665 5.85239 10.3675C5.82102 10.3733 5.78971 10.379 5.76101 10.3832L5.65393 10.3988L5.67689 10.2931C5.71348 10.1245 5.77682 10.0242 5.84357 9.91839L6.46954 10.8653ZM6.46954 10.8653L6.55603 10.8424M6.46954 10.8653L6.55603 10.8424M6.55603 10.8424C6.57274 10.8379 6.58803 10.834 6.60179 10.8305C6.62559 10.8243 6.6448 10.8194 6.65881 10.8151C6.68062 10.8085 6.71047 10.7982 6.7326 10.7708C6.74265 10.7584 6.74846 10.7457 6.75209 10.7369C6.75416 10.732 6.75678 10.725 6.75904 10.7189C6.76009 10.7161 6.76107 10.7135 6.76187 10.7114C6.7681 10.6952 6.7778 10.672 6.79799 10.637L6.79803 10.637L6.79924 10.6348L7.18101 9.91787L7.23973 9.80761H7.11482C6.97502 9.80761 6.88624 9.80645 6.81105 9.79211C6.7397 9.7785 6.67866 9.75249 6.59902 9.69722C6.51715 9.64037 6.47494 9.58727 6.43404 9.53234C6.43076 9.52794 6.42747 9.52349 6.42414 9.51899C6.38515 9.46627 6.34152 9.40728 6.26568 9.35214L6.19598 9.30146M6.55603 10.8424L6.19598 9.30146M6.19598 9.30146L6.15541 9.37749M6.19598 9.30146L6.15541 9.37749M6.15541 9.37749C6.10495 9.47205 6.05911 9.55092 6.00838 9.6382C5.97797 9.69053 5.94579 9.74588 5.90981 9.80945L6.15541 9.37749ZM5.20088 5.58129V5.55006C5.20088 5.48605 5.23326 5.42636 5.26839 5.37759C5.30486 5.32697 5.35299 5.27648 5.40076 5.22956C5.42462 5.20612 5.4491 5.18289 5.47261 5.16058L5.47334 5.15989C5.49726 5.13719 5.52012 5.11549 5.54134 5.09456C5.58499 5.05152 5.61662 5.01659 5.63363 4.98936L5.63365 4.98933C5.73925 4.82045 5.77888 4.55405 5.77888 4.24511V4.18549L5.83697 4.17204C6.17587 4.09358 6.36469 4.0115 6.50457 3.88975C6.64626 3.76642 6.74476 3.59691 6.891 3.32235L6.9142 3.27881L6.96337 3.28286C7.06374 3.29114 7.11243 3.30159 7.15292 3.31028C7.1657 3.31303 7.17767 3.31559 7.19018 3.31786C7.24103 3.32708 7.31636 3.33497 7.53521 3.33497C7.74184 3.33497 7.86974 3.27231 7.98857 3.19648C8.01144 3.18188 8.03463 3.16624 8.05845 3.15018C8.15691 3.08378 8.26618 3.01009 8.40922 2.97215L8.44187 2.96349L8.46999 2.9822C8.84574 3.23218 9.01579 3.31441 9.17173 3.33492C9.24991 3.3452 9.32804 3.34037 9.43341 3.32829C9.46189 3.32503 9.49238 3.32123 9.52519 3.31714C9.61218 3.30631 9.7155 3.29344 9.84083 3.2831L9.90319 3.27796L9.91943 3.33838C10.0439 3.80158 10.4813 4.05975 10.9672 4.17229L11.0253 4.18574V4.24535C11.0253 4.76494 11.165 5.00928 11.2941 5.14771C11.3472 5.20455 11.3989 5.24441 11.4469 5.28146C11.4598 5.29139 11.4724 5.30111 11.4847 5.3109C11.5353 5.35115 11.6033 5.40819 11.6033 5.49818C11.6033 5.65964 11.562 5.78208 11.5236 5.89578L11.5206 5.90471C11.4815 6.02071 11.4457 6.13053 11.4457 6.2812C11.4457 6.42035 11.4807 6.51629 11.5193 6.61382C11.5215 6.61939 11.5237 6.62498 11.5259 6.6306C11.5629 6.72373 11.6033 6.82549 11.6033 6.95974C11.6033 7.02105 11.5713 7.07941 11.5379 7.12679C11.5028 7.17654 11.4564 7.22742 11.4101 7.27542C11.3881 7.29829 11.367 7.31952 11.3466 7.34015C11.3215 7.36551 11.2973 7.38997 11.2732 7.41545C11.2305 7.46044 11.1986 7.49813 11.1806 7.52828L11.1806 7.52829L5.20088 5.58129ZM5.20088 5.58129L5.20219 5.58259M5.20088 5.58129L5.20219 5.58259M5.20219 5.58259C5.20775 5.69088 5.24035 5.78925 5.27197 5.88463C5.27597 5.8967 5.27996 5.90873 5.28387 5.92071C5.32248 6.03903 5.35898 6.16569 5.35898 6.33357C5.35898 6.4385 5.32824 6.51618 5.29022 6.61223C5.28863 6.61625 5.28703 6.62029 5.28542 6.62438C5.24514 6.72634 5.20136 6.84383 5.20136 7.0121C5.20136 7.02799 5.20618 7.04028 5.2083 7.04533C5.21098 7.05168 5.21406 7.05713 5.21652 7.06116C5.22146 7.06926 5.22751 7.07747 5.23336 7.08494C5.24528 7.10017 5.26146 7.11881 5.27963 7.13906C5.3013 7.16322 5.32802 7.19212 5.35674 7.22318C5.37591 7.24392 5.39598 7.26562 5.41603 7.28752C5.467 7.34319 5.51947 7.40184 5.56382 7.45624C5.60922 7.51192 5.64213 7.5584 5.65762 7.59051L5.65762 7.59052C5.74891 7.7797 5.757 7.91593 5.76252 8.0275C5.76274 8.03193 5.76295 8.03637 5.76317 8.04082C5.76825 8.14723 5.77359 8.25888 5.88293 8.3504L5.20219 5.58259ZM10.9582 8.31552L10.9582 8.31555C10.9485 8.32715 10.9369 8.33537 10.9295 8.34026C10.921 8.34591 10.9114 8.35131 10.9017 8.35638C10.8822 8.36653 10.858 8.37758 10.8315 8.38902C10.7898 8.40699 10.7387 8.42756 10.6853 8.44905C10.6707 8.45492 10.6559 8.46086 10.6411 8.46683C10.5714 8.49502 10.5001 8.52433 10.4384 8.55269C10.3751 8.58181 10.328 8.60725 10.3026 8.62687L10.3025 8.62694C10.2477 8.66917 10.1718 8.76676 10.0957 8.88165C10.0215 8.99358 9.95329 9.11225 9.91318 9.18749L9.892 9.2272H9.847C9.70156 9.2272 9.62097 9.21343 9.54923 9.19982C9.54537 9.19909 9.54155 9.19836 9.53776 9.19764C9.47467 9.1856 9.41952 9.17508 9.32169 9.17508C9.12596 9.17508 8.97069 9.25054 8.83108 9.33402C8.8064 9.34878 8.78109 9.36451 8.75585 9.3802C8.71285 9.40692 8.67006 9.43352 8.63094 9.45496C8.5673 9.48983 8.49848 9.52001 8.42613 9.52457C8.32675 9.53084 8.23508 9.48964 8.16118 9.44651C8.12347 9.42451 8.08758 9.40027 8.0556 9.37854L8.05152 9.37577C8.02036 9.35459 7.99379 9.33654 7.96963 9.32248C7.75176 9.1958 7.5981 9.17306 7.45506 9.1795C7.39121 9.18237 7.3293 9.19102 7.26112 9.20055C7.2498 9.20213 7.23831 9.20374 7.22661 9.20534C7.14564 9.21647 7.05735 9.2272 6.95744 9.2272H6.91242L6.89125 9.18747C6.85509 9.1196 6.78957 9.00604 6.71914 8.89744C6.64694 8.78611 6.57551 8.68942 6.52737 8.64748L6.52735 8.64746C6.4501 8.58011 6.32114 8.52587 6.19051 8.4785C6.16385 8.46884 6.13631 8.45917 6.1096 8.44979C6.07485 8.43759 6.0415 8.42588 6.01332 8.41531C5.9875 8.40563 5.96307 8.39585 5.94198 8.38595C5.92189 8.37652 5.90026 8.36492 5.88299 8.35045L10.9582 8.31552ZM10.9582 8.31552C10.9873 8.28055 11.0073 8.2481 11.0194 8.21276C11.0315 8.17779 11.034 8.14495 11.0351 8.11405C11.0354 8.10514 11.0356 8.09599 11.0358 8.08642C11.037 8.03186 11.0385 7.96362 11.063 7.84977L10.9582 8.31552ZM6.04889 3.47537L6.04887 3.47538C5.95351 3.5297 5.86179 3.55914 5.77877 3.58578C5.76242 3.59103 5.74641 3.59617 5.73077 3.60137C5.63482 3.63327 5.5444 3.66954 5.44674 3.74808C5.28055 3.88192 5.22665 4.06797 5.191 4.35708L5.19099 4.3571C5.15198 4.67284 4.99213 4.83337 4.85163 4.97447C4.845 4.98113 4.83841 4.98775 4.83188 4.99434C4.75923 5.06762 4.69583 5.13504 4.64948 5.21956C4.60405 5.3024 4.57329 5.40515 4.57396 5.54947L4.57396 5.54949C4.57438 5.64393 4.61282 5.76355 4.65797 5.88999C4.66276 5.90341 4.66763 5.91692 4.67249 5.93043C4.68964 5.97802 4.70679 6.02561 4.72069 6.06948C4.7383 6.12503 4.75316 6.18181 4.75554 6.23175L6.04889 3.47537ZM6.04889 3.47537C6.13272 3.42757 6.19868 3.34711 6.25781 3.2659C6.27884 3.23701 6.29902 3.20805 6.31923 3.17905C6.35905 3.12188 6.39898 3.06457 6.4458 3.00735C6.58109 2.842 6.75562 2.70195 7.06212 2.70195H7.06284C7.21817 2.70195 7.28912 2.72096 7.3493 2.73709C7.37427 2.74378 7.39738 2.74998 7.4239 2.75411C7.5256 2.76996 7.61248 2.7323 7.8088 2.60973L7.80882 2.60972C8.07801 2.44156 8.26409 2.37965 8.43617 2.38829C8.61013 2.39701 8.78341 2.47817 9.02765 2.6307M6.04889 3.47537L12.1978 5.35963M5.12501 7.8806L5.12502 7.88062C5.18239 8.02089 5.20456 8.13789 5.21586 8.23871C5.22033 8.2786 5.22313 8.31641 5.22568 8.3508C5.22629 8.35912 5.22689 8.36723 5.2275 8.37513C5.23069 8.4166 5.23404 8.45244 5.24013 8.48597C5.25182 8.55023 5.27358 8.60608 5.32602 8.6653C5.38048 8.7268 5.47083 8.79504 5.62601 8.8766L5.67738 8.90361L5.66413 8.96012C5.6381 9.07109 5.55844 9.2285 5.46129 9.40028C5.38739 9.53095 5.29983 9.67587 5.21078 9.82326C5.18105 9.87246 5.15115 9.92194 5.12154 9.97126C5.00257 10.1694 4.8879 10.3655 4.80304 10.5363C4.76063 10.6217 4.72638 10.6995 4.70286 10.767C4.67898 10.8356 4.66795 10.8887 4.66795 10.9265C4.66795 10.9814 4.68024 11.0183 4.69737 11.0441C4.71446 11.0699 4.74024 11.0903 4.77718 11.1056C4.85468 11.1377 4.96994 11.1426 5.10999 11.1292C5.2408 11.1167 5.38193 11.0896 5.51638 11.0637C5.52358 11.0624 5.53076 11.061 5.53792 11.0596C5.67494 11.0333 5.80925 11.0081 5.90634 11.0081H5.9753L5.98108 11.0768C5.98645 11.1407 6.01204 11.278 6.05849 11.4319C6.10497 11.5859 6.17012 11.749 6.25144 11.868C6.33501 11.9904 6.41909 12.0437 6.5018 12.0333C6.59109 12.0222 6.72053 11.9341 6.88299 11.6622C6.88311 11.662 6.88322 11.6618 6.88334 11.6616L7.49222 10.5982L7.49285 10.5971L7.49286 10.5971C7.51112 10.5664 7.53145 10.5334 7.55291 10.4985C7.58602 10.4448 7.6218 10.3866 7.65676 10.3262C7.71421 10.2267 7.76062 10.1354 7.77779 10.0718L7.79409 10.0114L7.85639 10.0166C7.97783 10.0266 8.06564 10.0579 8.14309 10.0854L8.14861 10.0874C8.22677 10.1151 8.29393 10.1381 8.38637 10.1416L8.38352 10.2166M5.12501 7.8806L11.9492 7.65915C11.8326 7.75801 11.7341 7.84159 11.693 8.16721L11.6186 8.15777C11.6186 8.15779 11.6186 8.1578 11.6186 8.15781C11.5878 8.40034 11.558 8.53177 11.4998 8.6263C11.4433 8.718 11.3545 8.78344 11.1777 8.87636L11.1263 8.90337L11.1396 8.9599C11.1651 9.06871 11.2444 9.22761 11.3415 9.40142C11.4272 9.55483 11.5311 9.72733 11.6347 9.89936C11.6504 9.92532 11.666 9.95127 11.6816 9.97713C11.8008 10.1753 11.9159 10.3689 12.0012 10.5319C12.0438 10.6133 12.0782 10.6856 12.1017 10.746C12.1261 10.8084 12.1358 10.8504 12.1358 10.8741C12.1358 10.9447 12.1231 10.9947 12.1044 11.0304C12.0861 11.0653 12.0601 11.0902 12.0265 11.1083C11.9554 11.1465 11.8481 11.155 11.7119 11.1417C11.5872 11.1296 11.4514 11.1008 11.3175 11.0724C11.3075 11.0703 11.2975 11.0682 11.2875 11.0661C11.1478 11.0365 11.0072 11.0078 10.8974 11.0078H10.8284L10.8226 11.0766C10.8162 11.1533 10.7876 11.2656 10.7506 11.3845C10.7141 11.5018 10.6713 11.6196 10.6394 11.7053C10.5507 11.9427 10.44 12.0359 10.3425 12.0385C10.2922 12.0398 10.2303 12.019 10.1572 11.9587C10.084 11.8983 10.004 11.8017 9.92038 11.6616L9.92037 11.6616C9.8127 11.4814 9.71828 11.3209 9.61522 11.1333L9.61513 11.1332L9.01915 10.0551L8.99567 10.0126L8.94729 10.0166C8.83065 10.0263 8.73037 10.0592 8.64394 10.0875C8.63902 10.0891 8.63414 10.0907 8.6293 10.0923C8.53679 10.1225 8.4629 10.1444 8.38628 10.1416L8.38352 10.2166M5.12501 7.8806C5.0919 7.79973 5.03444 7.73096 4.97451 7.66844C4.94857 7.64139 4.92089 7.61424 4.89351 7.58738C4.88901 7.58297 4.88452 7.57856 4.88005 7.57417C4.84794 7.54263 4.81614 7.51103 4.78541 7.4778C4.66393 7.34647 4.56279 7.19381 4.56279 6.9595C4.56279 6.92318 4.57277 6.87336 4.59101 6.81157M5.12501 7.8806L4.59101 6.81157M8.38352 10.2166C8.47972 10.2201 8.56952 10.1907 8.66575 10.1592C8.75316 10.1306 8.84588 10.1003 8.95351 10.0913M8.38352 10.2166C8.27687 10.2125 8.19952 10.185 8.11931 10.1565C8.04191 10.129 7.96184 10.1006 7.8502 10.0913C7.81787 10.211 7.70433 10.3956 7.61548 10.54C7.59419 10.5746 7.57431 10.6069 7.55731 10.6355L6.94773 11.7001L8.95351 10.0913M12.0625 6.36853C12.0625 6.36851 12.0625 6.3685 12.0625 6.36848L12.1357 6.35239L12.0625 6.36853ZM12.0625 6.36853C12.0259 6.20256 12.0837 6.05309 12.1356 5.91879M12.0625 6.36853L12.1356 5.91879M8.95351 10.0913L9.54949 11.1695C9.6532 11.3582 9.74815 11.5196 9.85598 11.7001L8.95351 10.0913ZM12.1978 5.35963L12.1978 5.3596C12.1443 5.1756 12.0462 5.06234 11.9445 4.9634C11.9279 4.9473 11.9105 4.93085 11.8929 4.91423C11.8582 4.88151 11.8228 4.84813 11.7921 4.81542C11.7441 4.76415 11.6997 4.70671 11.6711 4.63622C11.6304 4.53594 11.6113 4.44167 11.5992 4.35446C11.5939 4.31676 11.5899 4.27978 11.586 4.24473C11.5855 4.23956 11.5849 4.23444 11.5843 4.22937C11.5799 4.1893 11.5756 4.1518 11.5696 4.11542C11.5577 4.04316 11.5398 3.97825 11.5052 3.91627C11.4707 3.8546 11.4174 3.792 11.3298 3.72797L11.3298 3.72797C11.1895 3.62534 11.0891 3.59665 10.9898 3.5683C10.9657 3.56142 10.9417 3.55455 10.9172 3.54666C10.8529 3.52594 10.7877 3.49828 10.719 3.44422C10.6512 3.39085 10.5834 3.31447 10.5089 3.20055L10.5089 3.20054C10.361 2.9742 10.231 2.85146 10.1155 2.78538C10.0017 2.7203 9.89574 2.70666 9.78708 2.71041C9.73407 2.71224 9.68138 2.71815 9.62536 2.72443L9.61736 2.72533C9.5594 2.73182 9.49789 2.73849 9.43503 2.73954C9.30685 2.74169 9.17133 2.72054 9.02765 2.6307M12.1978 5.35963C12.2563 5.56104 12.212 5.71535 12.1551 5.86778M12.1978 5.35963L12.1551 5.86778M9.02765 2.6307L9.06741 2.56711L9.02769 2.63072C9.02768 2.63071 9.02767 2.63071 9.02765 2.6307ZM4.59101 6.81157C4.60889 6.75105 4.63278 6.68512 4.65747 6.61696M4.59101 6.81157L4.65747 6.61696M4.65747 6.61696L4.65782 6.61601M4.65747 6.61696L4.65782 6.61601M4.65782 6.61601C4.68224 6.54862 4.70751 6.47884 4.72602 6.41494M4.65782 6.61601L4.72602 6.41494M4.72602 6.41494C4.74409 6.35253 4.75822 6.28771 4.75554 6.2318L4.72602 6.41494ZM12.1551 5.86778C12.1488 5.88453 12.1422 5.90154 12.1356 5.91879M12.1551 5.86778L12.1356 5.91879M10.6481 9.37758L10.6075 9.30134L10.5377 9.35218C10.4578 9.4104 10.4062 9.47233 10.3635 9.52863C10.3543 9.54071 10.3458 9.55218 10.3376 9.56314C10.3065 9.60494 10.281 9.63928 10.2472 9.67101C10.17 9.74341 10.0412 9.80761 9.6889 9.80761H9.68865H9.574L9.61994 9.91266L9.68357 10.0582L9.68347 10.0582L9.68529 10.0618C9.68665 10.0645 9.69526 10.0798 9.70448 10.0962L9.71025 10.1065L9.74293 10.1649L9.74294 10.1649C9.78969 10.2498 9.82883 10.3269 9.86435 10.3968L9.87111 10.4102C9.90807 10.4829 9.94199 10.5492 9.9761 10.606C10.0444 10.7195 10.1216 10.809 10.2474 10.8424L10.3339 10.8653L10.3414 10.7761C10.3558 10.6045 10.3988 10.5008 10.4495 10.4381C10.499 10.377 10.5615 10.3479 10.6313 10.3364C10.7031 10.3247 10.7809 10.332 10.8558 10.3442C10.8813 10.3484 10.905 10.3528 10.928 10.3572C10.939 10.3593 10.9499 10.3613 10.9608 10.3633C10.992 10.369 11.0249 10.3744 11.0531 10.375L11.1499 10.3772L11.1278 10.283C11.0907 10.1248 11.0284 10.0264 10.963 9.92328C10.94 9.8869 10.9165 9.84992 10.8937 9.80952L10.8937 9.80948C10.8577 9.74599 10.8256 9.69072 10.7952 9.6385C10.7444 9.55111 10.6985 9.47223 10.6481 9.37758ZM5.27588 5.55006C5.27588 5.45067 5.40548 5.32768 5.52446 5.21477C5.59612 5.14677 5.66392 5.08243 5.69724 5.0291C5.81478 4.84112 5.85388 4.55615 5.85388 4.24511L5.27588 5.55006Z" fill="black" stroke="white" stroke-width="0.15"/>
<path id="Vector_3" fill-rule="evenodd" clip-rule="evenodd" d="M15.363 13.2787C15.1775 13.1551 15.0284 13.048 14.8499 12.9013C14.5922 12.6896 14.4562 12.548 14.2073 12.548C14.1616 12.548 13.5081 12.8014 14.2068 13.3315L14.973 13.9273C15.1039 14.031 15.4364 14.3954 15.7635 13.9898L16.5062 13.1098C16.6449 12.9546 17.4645 12.1265 17.4645 11.9216C17.4645 11.6038 17.1801 11.4289 16.912 11.5765L16.377 12.146C16.2704 12.2712 16.2626 12.3065 16.1383 12.4307L15.6479 12.9877C15.5282 13.1423 15.5194 13.1744 15.3628 13.2787H15.363Z" fill="black"/>
</g>
</g>
</g>
<defs>
<clipPath id="clip0_5055_418">
<rect width="19.1228" height="19" fill="white" transform="translate(0.252197)"/>
</clipPath>
</defs>
</svg>
