<svg width="25" height="25" viewBox="0 0 25 25" fill="none" xmlns="http://www.w3.org/2000/svg">
<g clip-path="url(#clip0_389_192)">
<path fill-rule="evenodd" clip-rule="evenodd" d="M4.90623 5.60135C4.90623 7.15838 6.2937 7.79338 7.87486 7.16377C8.84133 6.77928 9.41442 6.63958 10.3568 6.15603C10.7447 5.95664 10.7066 6.05633 10.8956 5.96553C10.9159 6.21064 11.2089 6.66022 11.3499 6.81294C12.2799 7.81941 14.3166 7.63399 15.7914 7.63209C16.4829 7.63113 16.3937 7.64415 16.9087 7.81656C18.2997 8.28233 19.8545 7.96546 21.0076 7.11932C21.5096 6.75102 23.6492 4.53931 24.3198 3.86907C24.6316 3.55728 24.9059 3.4287 24.9059 2.99658C24.9059 2.72035 24.5814 2.68416 24.3849 2.68416C24.2192 2.68416 23.822 3.16898 23.695 3.2963L21.7157 5.2756C20.7057 6.28557 19.9462 7.16346 18.2911 7.16346C17.3856 7.16346 17.238 6.98566 16.6414 6.78214C16.0969 6.5964 13.7007 6.91708 12.6863 6.62275C12.1881 6.47797 11.7236 6.11348 11.6766 5.54897C12.5621 5.54897 13.4473 5.54897 14.3328 5.54897C15.2383 5.54897 16.6245 5.79947 16.6245 5.08033C16.6245 4.82856 16.4598 4.66377 16.208 4.66377H11.208C10.9067 4.66377 10.7628 4.84919 10.7393 5.1324C10.2936 5.16955 9.48395 5.62263 8.83466 5.88393C8.21712 6.13253 7.2951 6.53862 6.62454 6.53862C6.12194 6.53862 5.83555 6.17095 5.73903 5.75725C5.97652 5.702 9.07882 3.87701 9.38426 3.77763L12.792 2.81052C13.9896 2.4708 16.1943 2.57271 17.5624 2.58097C18.4397 2.58637 18.8797 2.2822 19.3195 1.83802L20.2853 0.928696C20.7451 0.457525 20.4907 0.0800171 20.0618 0.0800171C19.7497 0.0800171 18.9436 1.01918 18.6956 1.26588C18.1171 1.84215 17.5967 1.69451 16.5201 1.69451C12.6923 1.69451 13.3229 1.78436 9.86463 2.74766C9.6373 2.81116 9.05596 2.95054 8.86578 3.05087C8.74005 3.11691 8.62035 3.19152 8.46446 3.27439C8.29745 3.36361 8.1949 3.43219 8.03012 3.51728L5.52027 4.91365C5.2577 5.0724 4.90527 5.18924 4.90527 5.60104L4.90623 5.60135Z" fill="black"/>
<path fill-rule="evenodd" clip-rule="evenodd" d="M-0.0940916 22.0596C-0.0940916 22.3584 0.0941863 22.5283 0.322469 22.5283C0.583455 22.5283 0.87238 22.106 1.03843 21.9422C1.27815 21.705 1.47722 21.5037 1.71566 21.2652C2.17985 20.8011 2.60593 20.3753 3.0698 19.9111C3.46033 19.5206 3.99087 18.9161 4.4522 18.6373C5.36755 18.0842 6.24322 17.841 7.39353 18.1134C7.76659 18.2017 8.02726 18.356 8.15712 18.3915C9.07977 18.6433 13.0923 17.7629 13.1349 19.6638H8.49938C8.12441 19.6638 7.99043 20.4969 8.60352 20.4969H13.7077C13.8121 20.4969 13.9207 20.3969 13.9661 20.3388C14.0353 20.2502 14.0601 20.173 14.0722 20.0279C14.5646 20.0171 15.1631 19.5698 15.9797 19.2793C16.9131 18.9475 18.0682 18.2833 18.7473 18.8424C18.9712 19.0265 18.9544 19.1574 19.0722 19.4028C18.8486 19.4625 15.6949 21.3021 15.4345 21.39C14.6538 21.6535 12.8898 22.1006 12.023 22.3536C10.8571 22.6937 8.59558 22.5851 7.24811 22.5787C5.83269 22.5721 5.50503 23.4481 4.53158 24.2374C3.96357 24.6981 4.48014 25.388 5.01957 24.9863C5.20658 24.8473 5.51392 24.4974 5.69966 24.3117C6.54516 23.4662 6.50452 23.4649 7.5618 23.4652C9.66112 23.4658 10.7393 23.6205 12.6434 23.0782C13.3632 22.8734 14.0458 22.6597 14.7491 22.4752C15.8714 22.1809 15.3857 22.3717 16.2423 21.9374L19.2973 20.2527C19.6805 20.0413 19.9056 19.9295 19.9056 19.4028C19.9056 18.4868 19.0087 17.7362 18.0828 17.7362C17.096 17.7362 14.4071 19.0802 13.9159 19.1945C13.7197 18.3515 12.8695 17.8102 12.0792 17.6457C11.5391 17.5333 9.39346 17.5787 8.75751 17.5819C8.17331 17.5848 6.3191 16.4488 4.11343 17.8296C3.37206 18.2934 1.32164 20.4607 0.517415 21.2649C0.338027 21.4443 -0.0947266 21.7656 -0.0947266 22.0593L-0.0940916 22.0596Z" fill="black"/>
<path fill-rule="evenodd" clip-rule="evenodd" d="M8.44703 11.3827C8.44703 10.709 8.53276 10.3029 9.01726 9.81744C9.16903 9.66536 9.35064 9.53423 9.5767 9.4393C11.308 8.7119 11.9795 10.2889 12.2491 10.2889C12.6666 10.2889 12.5599 10.2765 12.8371 9.93968C12.9546 9.7968 13.0692 9.69869 13.227 9.60027C14.8097 8.61506 16.2595 9.94349 16.2595 11.0703C16.2595 11.8621 16.1118 12.2457 15.6975 12.9039C15.2495 13.6157 14.2935 14.4844 13.6182 14.9914C12.2415 16.0249 12.4336 15.9173 11.6967 15.4248C11.463 15.2686 11.3077 15.1559 11.0883 14.9914C10.0993 14.2491 8.44671 12.7318 8.44671 11.3827H8.44703ZM7.56152 11.2265C7.56152 12.6438 8.59086 13.8897 9.31921 14.625C9.45954 14.7666 9.5024 14.7965 9.65258 14.9165C9.78276 15.0206 9.83705 15.1041 9.97929 15.215C10.4206 15.5582 11.9199 16.7472 12.3532 16.7472C12.8343 16.7472 14.8539 15.1638 15.3873 14.625C16.6919 13.3074 18.039 11.0249 16.3779 9.28499C15.4108 8.27185 13.7906 8.1096 12.7015 8.9186C12.5647 9.0202 12.4723 9.11545 12.3532 9.19514C11.6274 8.70904 11.5058 8.41377 10.2177 8.41377C8.83661 8.41377 7.56152 9.70123 7.56152 11.2262V11.2265Z" fill="black"/>
</g>
<defs>
<clipPath id="clip0_389_192">
<rect width="25" height="25" fill="white"/>
</clipPath>
</defs>
</svg>
