<svg width="22" height="22" viewBox="0 0 22 22" fill="none" xmlns="http://www.w3.org/2000/svg">
<g id="Thanh to&#195;&#161;n 1" clip-path="url(#clip0_5445_250)">
<path id="Vector" fill-rule="evenodd" clip-rule="evenodd" d="M2.17878 9.86092V9.09696C2.17878 6.42103 3.67238 4.3977 5.21404 3.0398C6.06243 2.2928 7.48144 1.62095 8.5989 1.36019C11.0507 0.78825 13.0738 1.30795 15.073 2.50269C15.84 2.96098 16.6485 3.77398 17.1867 4.4834C18.1014 5.68869 18.8203 7.42513 18.8203 9.02776C18.8203 10.6414 18.7672 11.6436 18.0117 13.1487C17.1551 14.8553 15.8011 16.2952 14.0347 17.0826C11.7211 18.1137 9.27981 18.1169 6.96344 17.0826C6.51728 16.8832 6.10315 16.6041 5.70001 16.3342L4.68139 15.479C3.21616 14.0744 2.17832 11.9434 2.17832 9.86092H2.17878ZM1 9.30548C1 12.0511 1.96599 14.4021 3.79044 16.2334C4.01375 16.4579 4.18261 16.5702 4.41507 16.7884C4.61092 16.9717 4.86168 17.1408 5.07996 17.303C7.13001 18.8277 10.1296 19.3529 12.5947 18.7649C14.3413 18.3484 15.9521 17.4941 17.21 16.2343C17.917 15.5262 18.7402 14.3672 19.1283 13.4328C19.6623 12.1464 20 11.0318 20 9.514C20 4.2286 15.548 0 10.7775 0C8.54353 0 6.77033 0.527028 5.06303 1.70757C4.56241 2.05403 4.2096 2.37575 3.79136 2.79508C3.37677 3.21029 3.06835 3.554 2.73385 4.02787C1.75779 5.41235 1 7.40039 1 9.30548Z" fill="black"/>
<path id="Vector_2" fill-rule="evenodd" clip-rule="evenodd" d="M10.413 5.19201C10.2707 5.25767 10.1964 5.25675 10.0276 5.31269C9.63443 5.44355 9.23114 5.66133 8.93301 5.94523C8.52392 6.33548 8.29285 6.97217 8.29285 7.57419C8.29285 8.73522 9.27504 9.31181 10.1212 9.67524C10.867 9.99567 12.3726 10.3929 12.7166 11.043C12.9727 11.5266 12.649 12.1097 12.3277 12.3524C11.6663 12.8527 9.4955 13.1061 9.18289 11.3444C9.09317 10.84 8.94507 10.7965 8.43854 10.7965C7.76654 10.7965 7.86399 12.3654 8.75066 13.0894C9.09027 13.3669 9.83801 13.7969 10.4121 13.8089C10.4121 14.2828 10.2823 15 10.9968 15C11.6398 15 11.5814 14.4905 11.5814 13.8792C12.2612 13.7275 12.7812 13.537 13.2429 13.1597C14.1334 12.4319 14.337 10.7401 13.3162 9.90458C12.925 9.58461 12.5381 9.37377 12.0306 9.17495C11.3238 8.89798 9.53457 8.37781 9.53457 7.64355V7.36335C9.53457 6.29895 11.8024 5.86293 12.5038 6.89958C12.7301 7.23342 12.5844 8.06385 13.2631 8.06385C14.5372 8.06385 13.6901 5.19109 11.5819 5.19109C11.5819 4.73056 11.6919 4 10.9972 4C10.2543 4 10.4126 4.81656 10.4126 5.19109L10.413 5.19201Z" fill="black"/>
</g>
<defs>
<clipPath id="clip0_5445_250">
<rect width="22" height="22" fill="white"/>
</clipPath>
</defs>
</svg>
