<svg width="25" height="25" viewBox="0 0 25 25" fill="none" xmlns="http://www.w3.org/2000/svg">
<path d="M5.07812 15.625H7.79648C8.58711 15.625 9.37639 15.6903 10.1562 15.8203C10.9361 15.9503 11.7254 16.0157 12.516 16.0156H14.4531C14.7639 16.0156 15.062 16.1391 15.2818 16.3589C15.5015 16.5786 15.625 16.8767 15.625 17.1875C15.625 17.4983 15.5015 17.7964 15.2818 18.0161C15.062 18.2359 14.7639 18.3594 14.4531 18.3594H10.9375L14.4531 20.3125L21.2344 17.2984C21.3992 17.2254 21.5775 17.1876 21.7578 17.1875C22.0997 17.1875 22.4276 17.3233 22.6693 17.5651C22.9111 17.8068 23.0469 18.1347 23.0469 18.4766C23.0469 18.6789 22.9941 18.8777 22.8938 19.0534C22.7936 19.2291 22.6492 19.3756 22.475 19.4785L15.6055 23.5379C14.851 23.9837 13.9908 24.2188 13.1145 24.2188C12.4513 24.2188 11.795 24.084 11.1855 23.8227L6.64062 21.875H5.07812V15.625Z" fill="#D08D78"/>
<path d="M10.1562 15.8203C10.9361 15.9503 11.7254 16.0157 12.516 16.0156H14.4531C14.7639 16.0156 15.062 16.1391 15.2818 16.3589C15.5015 16.5786 15.625 16.8767 15.625 17.1875C15.625 17.4983 15.5015 17.7964 15.2818 18.0161C15.062 18.2359 14.7639 18.3594 14.4531 18.3594H10.9375L14.4531 20.3125L21.2344 17.2984C21.3965 17.2263 21.5718 17.1885 21.7493 17.1873C21.9267 17.1861 22.1025 17.2215 22.2656 17.2914C22.2656 17.2957 22.2656 17.3 22.2656 17.3047C22.2656 17.507 22.2129 17.7058 22.1126 17.8815C22.0123 18.0572 21.8679 18.2038 21.6938 18.3066L14.8242 22.366C14.1617 22.7575 13.4162 22.9873 12.6483 23.0368C11.8804 23.0862 11.1116 22.954 10.4043 22.6508L5.85938 20.7031H5.07812V15.625H7.79648C8.58711 15.625 9.37639 15.6903 10.1562 15.8203Z" fill="#F2B9A1"/>
<path d="M12.5 6.64062H21.875V14.4531H12.5V6.64062Z" fill="#004C9D"/>
<path d="M21.875 6.64062C21.875 6.22622 21.7104 5.8288 21.4174 5.53577C21.1243 5.24274 20.7269 5.07813 20.3125 5.07812H13.2812V6.64062H21.875Z" fill="#023863"/>
<path d="M13.2812 13.6719H12.5V6.64062H21.0547C20.861 8.56768 19.9584 10.3541 18.5221 11.6533C17.0857 12.9525 15.218 13.6719 13.2812 13.6719Z" fill="#0059BE"/>
<path d="M12.5 9.76562H14.0625C14.2697 9.76562 14.4684 9.84794 14.6149 9.99445C14.7614 10.141 14.8438 10.3397 14.8438 10.5469C14.8438 10.7541 14.7614 10.9528 14.6149 11.0993C14.4684 11.2458 14.2697 11.3281 14.0625 11.3281H12.5V9.76562Z" fill="#023863"/>
<path d="M3.125 23.8281H3.90625C4.21705 23.8281 4.51512 23.7047 4.73489 23.4849C4.95466 23.2651 5.07812 22.9671 5.07812 22.6562V14.8438C5.07812 14.5329 4.95466 14.2349 4.73489 14.0151C4.51512 13.7953 4.21705 13.6719 3.90625 13.6719H3.125C2.8142 13.6719 2.51613 13.7953 2.29636 14.0151C2.07659 14.2349 1.95312 14.5329 1.95312 14.8438V22.6562C1.95312 22.9671 2.07659 23.2651 2.29636 23.4849C2.51613 23.7047 2.8142 23.8281 3.125 23.8281Z" fill="#95AFD1"/>
<path d="M1.95312 22.6562V14.8438C1.95387 14.5674 2.05228 14.3001 2.23098 14.0892C2.40968 13.8784 2.65715 13.7375 2.92969 13.6914C3.20222 13.7375 3.4497 13.8784 3.6284 14.0892C3.80709 14.3001 3.90551 14.5674 3.90625 14.8438V22.6562C3.90551 22.9326 3.80709 23.1999 3.6284 23.4108C3.4497 23.6216 3.20222 23.7625 2.92969 23.8086C2.65715 23.7625 2.40968 23.6216 2.23098 23.4108C2.05228 23.1999 1.95387 22.9326 1.95312 22.6562Z" fill="#C1CFE8"/>
<path d="M12.5 7.8125C10.5584 7.8125 8.98438 6.2385 8.98438 4.29688C8.98438 2.35525 10.5584 0.78125 12.5 0.78125C14.4416 0.78125 16.0156 2.35525 16.0156 4.29688C16.0156 6.2385 14.4416 7.8125 12.5 7.8125Z" fill="#F79B31"/>
<path d="M12.5 0.78125C12.9543 0.78137 13.4043 0.869725 13.825 1.04141C14.3943 1.61699 14.7475 2.37141 14.8249 3.17726C14.9024 3.98311 14.6994 4.791 14.2501 5.46449C13.8009 6.13797 13.133 6.63578 12.3592 6.87383C11.5854 7.11188 10.7532 7.07559 10.0031 6.77109C9.51478 6.27816 9.18324 5.65175 9.05024 4.97076C8.91724 4.28977 8.98872 3.58464 9.25569 2.9442C9.52266 2.30376 9.97318 1.75663 10.5505 1.37174C11.1278 0.986842 11.8061 0.781387 12.5 0.78125Z" fill="#FCB732"/>
<path d="M7.42188 12.1094C5.48025 12.1094 3.90625 10.5354 3.90625 8.59375C3.90625 6.65212 5.48025 5.07812 7.42188 5.07812C9.3635 5.07812 10.9375 6.65212 10.9375 8.59375C10.9375 10.5354 9.3635 12.1094 7.42188 12.1094Z" fill="#F79B31"/>
<path d="M7.42185 5.07812C7.8762 5.07825 8.32619 5.1666 8.74685 5.33828C9.31615 5.91387 9.66935 6.66829 9.74681 7.47414C9.82426 8.27999 9.62123 9.08788 9.17199 9.76136C8.72276 10.4348 8.05486 10.9327 7.28109 11.1707C6.50731 11.4088 5.67509 11.3725 4.92498 11.068C4.43666 10.575 4.10512 9.94863 3.97212 9.26763C3.83911 8.58664 3.9106 7.88152 4.17757 7.24108C4.44454 6.60063 4.89505 6.05351 5.47237 5.66861C6.04969 5.28372 6.72799 5.07826 7.42185 5.07812Z" fill="#FCB732"/>
<path d="M3.125 13.2812H3.90625C4.32065 13.2812 4.71808 13.4459 5.0111 13.7389C5.30413 14.0319 5.46875 14.4293 5.46875 14.8438V15.2344H7.79609C8.60844 15.2345 9.41939 15.3017 10.2207 15.4352C10.9794 15.5613 11.7473 15.6248 12.5164 15.625H14.4531C14.8675 15.625 15.265 15.7896 15.558 16.0826C15.851 16.3757 16.0156 16.7731 16.0156 17.1875C16.0156 17.6019 15.851 17.9993 15.558 18.2924C15.265 18.5854 14.8675 18.75 14.4531 18.75H12.4449L14.4727 19.8766L21.0742 16.9414C21.33 16.8274 21.6103 16.7792 21.8895 16.8012C22.1687 16.8231 22.438 16.9145 22.6728 17.0671C22.9077 17.2197 23.1007 17.4285 23.2342 17.6747C23.3678 17.9209 23.4376 18.1965 23.4375 18.4766C23.4368 18.7467 23.366 19.012 23.2322 19.2466C23.0984 19.4812 22.906 19.6771 22.6738 19.8152L15.8043 23.8742C15.0889 24.2969 14.2839 24.545 13.4547 24.5984C12.6255 24.6518 11.7954 24.509 11.0316 24.1816L6.56055 22.2656H5.46875V22.6562C5.46875 23.0707 5.30413 23.4681 5.0111 23.7611C4.71808 24.0541 4.32065 24.2188 3.90625 24.2188H3.125C2.7106 24.2188 2.31317 24.0541 2.02015 23.7611C1.72712 23.4681 1.5625 23.0707 1.5625 22.6562V14.8438C1.5625 14.4293 1.72712 14.0319 2.02015 13.7389C2.31317 13.4459 2.7106 13.2812 3.125 13.2812ZM6.64062 21.4844C6.69355 21.4843 6.74594 21.495 6.79453 21.516L11.3395 23.4637C11.991 23.7393 12.6978 23.8592 13.4038 23.814C14.1098 23.7687 14.7956 23.5596 15.4066 23.2031L22.2762 19.1406C22.3915 19.0722 22.4871 18.975 22.5537 18.8587C22.6203 18.7423 22.6556 18.6106 22.6562 18.4766C22.6562 18.2383 22.5616 18.0098 22.3931 17.8413C22.2246 17.6728 21.9961 17.5781 21.7578 17.5781C21.632 17.5781 21.5077 17.6047 21.393 17.6562L14.6117 20.6703C14.5564 20.6949 14.4961 20.7063 14.4357 20.7035C14.3752 20.7008 14.3162 20.6841 14.2633 20.6547L10.7477 18.7016C10.6716 18.6597 10.6117 18.5937 10.5773 18.514C10.543 18.4343 10.5361 18.3454 10.5579 18.2614C10.5797 18.1774 10.6288 18.103 10.6975 18.05C10.7663 17.997 10.8507 17.9684 10.9375 17.9688H14.4531C14.6603 17.9688 14.859 17.8864 15.0056 17.7399C15.1521 17.5934 15.2344 17.3947 15.2344 17.1875C15.2344 16.9803 15.1521 16.7816 15.0056 16.6351C14.859 16.4886 14.6603 16.4062 14.4531 16.4062H12.5164C11.7041 16.4061 10.8931 16.3389 10.0918 16.2055C9.33306 16.0794 8.56524 16.0159 7.79609 16.0156H5.46875V21.4844H6.64062ZM2.34375 22.6562C2.34375 22.8635 2.42606 23.0622 2.57257 23.2087C2.71909 23.3552 2.9178 23.4375 3.125 23.4375H3.90625C4.11345 23.4375 4.31216 23.3552 4.45868 23.2087C4.60519 23.0622 4.6875 22.8635 4.6875 22.6562V14.8438C4.6875 14.6365 4.60519 14.4378 4.45868 14.2913C4.31216 14.1448 4.11345 14.0625 3.90625 14.0625H3.125C2.9178 14.0625 2.71909 14.1448 2.57257 14.2913C2.42606 14.4378 2.34375 14.6365 2.34375 14.8438V22.6562Z" fill="black"/>
<path d="M7.42188 12.4993C6.85605 12.5003 6.29677 12.3784 5.78271 12.1419C5.26866 11.9055 4.81211 11.5602 4.44464 11.13C4.07717 10.6997 3.80755 10.1948 3.65445 9.65005C3.50135 9.10533 3.46841 8.53386 3.55791 7.97516C3.64742 7.41646 3.85723 6.88388 4.17283 6.41425C4.48844 5.94462 4.9023 5.54917 5.38578 5.25524C5.86927 4.96131 6.41084 4.77592 6.97303 4.71191C7.53522 4.64789 8.1046 4.70677 8.6418 4.88447C8.556 4.33555 8.58828 3.77465 8.7365 3.2392C8.88471 2.70375 9.14543 2.20607 9.50127 1.77939C9.85711 1.35272 10.2999 1.00685 10.8 0.764895C11.3001 0.522936 11.8461 0.390447 12.4015 0.376272C12.9569 0.362097 13.509 0.466562 14.0208 0.682694C14.5326 0.898826 14.9924 1.22165 15.3696 1.62962C15.7467 2.03759 16.0325 2.52132 16.2078 3.04851C16.3832 3.57571 16.444 4.13424 16.3863 4.68682H20.3125C20.8303 4.68744 21.3267 4.89341 21.6929 5.25956C22.059 5.62571 22.265 6.12213 22.2656 6.63994V14.4524C22.2656 14.556 22.2245 14.6554 22.1512 14.7287C22.078 14.8019 21.9786 14.8431 21.875 14.8431H12.5C12.3964 14.8431 12.297 14.8019 12.2238 14.7287C12.1505 14.6554 12.1094 14.556 12.1094 14.4524V8.17627C11.8266 8.1475 11.5479 8.08777 11.2781 7.99815C11.3685 8.55517 11.3363 9.12522 11.1838 9.66853C11.0312 10.2118 10.762 10.7153 10.3948 11.1439C10.0277 11.5724 9.57148 11.9157 9.05801 12.1498C8.54454 12.3839 7.98618 12.5032 7.42188 12.4993ZM4.29688 8.59307C4.29688 9.21113 4.48015 9.81532 4.82353 10.3292C5.16691 10.8431 5.65497 11.2437 6.22599 11.4802C6.79701 11.7167 7.42534 11.7786 8.03153 11.658C8.63772 11.5374 9.19454 11.2398 9.63158 10.8028C10.0686 10.3657 10.3663 9.80892 10.4868 9.20273C10.6074 8.59653 10.5455 7.9682 10.309 7.39718C10.0725 6.82616 9.67194 6.3381 9.15803 5.99473C8.64413 5.65135 8.03994 5.46807 7.42188 5.46807C6.59336 5.469 5.79904 5.79854 5.21319 6.38439C4.62734 6.97024 4.29781 7.76455 4.29688 8.59307ZM20.3125 5.46807H16.2262C16.1393 5.74057 16.0224 6.00259 15.8777 6.24932H21.4125C21.332 6.02162 21.1831 5.82435 20.9862 5.68451C20.7893 5.54466 20.554 5.46907 20.3125 5.46807ZM21.4844 14.0618V7.03057H15.2848C14.6465 7.68337 13.799 8.0911 12.8906 8.18252V9.37432H14.0625C14.3733 9.37432 14.6714 9.49778 14.8911 9.71755C15.1109 9.93732 15.2344 10.2354 15.2344 10.5462C15.2344 10.857 15.1109 11.1551 14.8911 11.3748C14.6714 11.5946 14.3733 11.7181 14.0625 11.7181H12.8906V14.0618H21.4844ZM12.8906 10.1556V10.9368H14.0625C14.1661 10.9368 14.2655 10.8957 14.3387 10.8224C14.412 10.7492 14.4531 10.6498 14.4531 10.5462C14.4531 10.4426 14.412 10.3432 14.3387 10.27C14.2655 10.1967 14.1661 10.1556 14.0625 10.1556H12.8906ZM12.5 7.42119C13.1651 7.42302 13.8135 7.21317 14.3515 6.82201C14.8894 6.43086 15.2889 5.87869 15.4922 5.24541C15.6955 4.61212 15.692 3.93058 15.4823 3.29941C15.2725 2.66824 14.8674 2.12017 14.3255 1.73453C13.7836 1.34888 13.1331 1.14567 12.468 1.15428C11.803 1.16289 11.1579 1.3829 10.6262 1.78245C10.0944 2.182 9.70363 2.74037 9.51031 3.37676C9.31698 4.01316 9.33115 4.69456 9.55078 5.32236C10.1897 5.73887 10.6934 6.33245 11.0004 7.03057C11.4594 7.2849 11.9752 7.41926 12.5 7.42119Z" fill="black"/>
<path d="M7.5 9.75C7.36739 9.75 7.24021 9.7061 7.14645 9.62796C7.05268 9.54982 7 9.44384 7 9.33333H6C6.00128 9.59094 6.09804 9.84193 6.27704 10.052C6.45605 10.262 6.70855 10.4208 7 10.5067V11H8V10.5067C8.33334 10.4088 8.61437 10.2158 8.79332 9.96186C8.97227 9.70789 9.03758 9.40934 8.97769 9.11909C8.91781 8.82884 8.73658 8.56562 8.46612 8.37604C8.19566 8.18647 7.85341 8.08278 7.5 8.08333C7.40111 8.08333 7.30444 8.0589 7.22222 8.01311C7.13999 7.96733 7.0759 7.90225 7.03806 7.82612C7.00022 7.74998 6.99031 7.6662 7.00961 7.58538C7.0289 7.50455 7.07652 7.43031 7.14645 7.37204C7.21637 7.31377 7.30546 7.27408 7.40245 7.25801C7.49944 7.24193 7.59998 7.25018 7.69134 7.28172C7.7827 7.31325 7.86079 7.36666 7.91574 7.43518C7.97068 7.5037 8 7.58426 8 7.66667H9C8.99872 7.40906 8.90196 7.15807 8.72296 6.94804C8.54395 6.73801 8.29145 6.5792 8 6.49333V6H7V6.49333C6.66666 6.59118 6.38563 6.78417 6.20668 7.03814C6.02773 7.29211 5.96242 7.59065 6.02231 7.88091C6.08219 8.17116 6.26342 8.43438 6.53388 8.62396C6.80434 8.81353 7.14659 8.91722 7.5 8.91667C7.63261 8.91667 7.75979 8.96056 7.85355 9.03871C7.94732 9.11685 8 9.22283 8 9.33333C8 9.44384 7.94732 9.54982 7.85355 9.62796C7.75979 9.7061 7.63261 9.75 7.5 9.75Z" fill="black"/>
<path d="M12.5 5.75C12.3674 5.75 12.2402 5.7061 12.1464 5.62796C12.0527 5.54982 12 5.44384 12 5.33333H11C11.0013 5.59094 11.098 5.84193 11.277 6.05196C11.456 6.26199 11.7085 6.4208 12 6.50667V7H13V6.50667C13.3333 6.40882 13.6144 6.21583 13.7933 5.96186C13.9723 5.70789 14.0376 5.40934 13.9777 5.11909C13.9178 4.82884 13.7366 4.56562 13.4661 4.37604C13.1957 4.18647 12.8534 4.08278 12.5 4.08333C12.4011 4.08333 12.3044 4.0589 12.2222 4.01311C12.14 3.96733 12.0759 3.90225 12.0381 3.82612C12.0002 3.74998 11.9903 3.6662 12.0096 3.58538C12.0289 3.50455 12.0765 3.43031 12.1464 3.37204C12.2164 3.31377 12.3055 3.27408 12.4025 3.25801C12.4994 3.24193 12.6 3.25018 12.6913 3.28172C12.7827 3.31325 12.8608 3.36666 12.9157 3.43518C12.9707 3.5037 13 3.58426 13 3.66667H14C13.9987 3.40906 13.902 3.15807 13.723 2.94804C13.544 2.73801 13.2915 2.5792 13 2.49333V2H12V2.49333C11.6667 2.59118 11.3856 2.78417 11.2067 3.03814C11.0277 3.29211 10.9624 3.59065 11.0223 3.88091C11.0822 4.17116 11.2634 4.43438 11.5339 4.62396C11.8043 4.81353 12.1466 4.91722 12.5 4.91667C12.6326 4.91667 12.7598 4.96056 12.8536 5.03871C12.9473 5.11685 13 5.22283 13 5.33333C13 5.44384 12.9473 5.54982 12.8536 5.62796C12.7598 5.7061 12.6326 5.75 12.5 5.75Z" fill="black"/>
</svg>
