<svg width="20" height="20" viewBox="0 0 20 20" fill="none" xmlns="http://www.w3.org/2000/svg">
<path d="M18.5416 6.5305V9.3305C18.5416 9.38575 18.5197 9.43874 18.4806 9.47781C18.4415 9.51688 18.3885 9.53883 18.3333 9.53883H17.4791C17.4239 9.53883 17.3709 9.51688 17.3318 9.47781C17.2927 9.43874 17.2708 9.38575 17.2708 9.3305V8.493L16.425 9.33883C17.0282 10.1397 17.3544 11.1153 17.3541 12.118C17.3541 12.2597 17.3458 12.4013 17.3375 12.5388C17.3446 12.5646 17.3474 12.5913 17.3458 12.618C17.2596 13.4866 16.9286 14.3128 16.3913 15.0006C15.8539 15.6884 15.1323 16.2095 14.3104 16.5033C13.4885 16.797 12.6001 16.8514 11.7485 16.66C10.8969 16.4686 10.1171 16.0393 9.49996 15.4222C8.73014 14.6478 8.25801 13.6269 8.16663 12.5388C8.16246 12.493 8.1583 12.4472 8.1583 12.4013C8.63719 12.1794 9.07859 11.8842 9.46663 11.5263C9.42964 11.7214 9.4115 11.9195 9.41246 12.118C9.41193 12.6671 9.54687 13.2078 9.80534 13.6923C10.0638 14.1767 10.4378 14.5899 10.8942 14.8953C11.3506 15.2006 11.8752 15.3886 12.4217 15.4426C12.9681 15.4966 13.5194 15.415 14.0267 15.2049C14.534 14.9948 14.9817 14.6629 15.33 14.2384C15.6783 13.8139 15.9165 13.3101 16.0235 12.7715C16.1305 12.2329 16.1029 11.6763 15.9433 11.1509C15.7836 10.6255 15.4968 10.1477 15.1083 9.75966C14.8739 9.52868 14.609 9.331 14.3208 9.17216H14.3166C14.0299 9.01898 13.7226 8.90811 13.4041 8.843C13.1886 8.80117 12.9695 8.78024 12.75 8.7805C12.0896 8.78262 11.4445 8.97976 10.8958 9.34716C10.714 9.46694 10.545 9.60517 10.3916 9.75966C10.3151 9.8348 10.2428 9.91409 10.175 9.99716C10.0611 10.1369 9.95937 10.286 9.8708 10.443C9.86246 10.4472 9.8583 10.4513 9.86246 10.4555C9.59888 10.8343 9.27845 11.1702 8.91246 11.4513C8.67879 11.6311 8.43073 11.7914 8.1708 11.9305C8.16663 11.9347 8.16246 11.9347 8.1583 11.9388C8.14242 11.9475 8.12566 11.9545 8.1083 11.9597C7.67112 12.179 7.20103 12.3254 6.71663 12.393C6.71174 12.3963 6.70584 12.3978 6.69996 12.3972V13.3513H7.62496C7.68022 13.3513 7.73321 13.3733 7.77228 13.4123C7.81135 13.4514 7.8333 13.5044 7.8333 13.5597V14.4138C7.8333 14.4691 7.81135 14.5221 7.77228 14.5611C7.73321 14.6002 7.68022 14.6222 7.62496 14.6222H6.69996V15.5597C6.6991 15.6146 6.67688 15.6671 6.63799 15.706C6.59911 15.7449 6.54662 15.7671 6.49163 15.768H5.63746C5.58221 15.768 5.52922 15.746 5.49015 15.707C5.45108 15.6679 5.42913 15.6149 5.42913 15.5597V14.6222H4.5083C4.45304 14.6222 4.40005 14.6002 4.36098 14.5611C4.32191 14.5221 4.29996 14.4691 4.29996 14.4138V13.5597C4.29996 13.5044 4.32191 13.4514 4.36098 13.4123C4.40005 13.3733 4.45304 13.3513 4.5083 13.3513H5.42913V12.3972C4.32613 12.2484 3.31494 11.7034 2.58427 10.8639C1.8536 10.0244 1.45337 8.94763 1.4583 7.83466C1.46031 6.87946 1.75716 5.94817 2.3083 5.168C2.73316 4.56702 3.29651 4.07719 3.95069 3.73995C4.60487 3.4027 5.33064 3.22796 6.06663 3.2305C6.30098 3.23114 6.53497 3.24925 6.76663 3.28466C7.46264 3.38787 8.12533 3.65071 8.70288 4.0526C9.28042 4.4545 9.75716 4.98456 10.0958 5.60133V5.6055C10.3991 6.15311 10.5863 6.75733 10.6458 7.3805V7.40133C10.65 7.45133 10.6583 7.50133 10.6583 7.55133C10.4662 7.63716 10.281 7.73744 10.1041 7.85133C9.83263 8.01696 9.57856 8.20961 9.3458 8.42633C9.44033 7.89735 9.40557 7.35335 9.24449 6.8407C9.0834 6.32804 8.80076 5.86194 8.42066 5.48209C8.04056 5.10225 7.57425 4.81993 7.06149 4.6592C6.54873 4.49847 6.00471 4.46409 5.47579 4.55898C4.94687 4.65388 4.44874 4.87524 4.02383 5.20421C3.59893 5.53318 3.25986 5.95999 3.03551 6.44828C2.81117 6.93658 2.7082 7.47187 2.73538 8.00855C2.76257 8.54522 2.91909 9.06737 3.19163 9.5305C3.62558 10.2583 4.31707 10.7967 5.12913 11.0388C5.24982 11.073 5.37221 11.1008 5.4958 11.1222C6.08032 11.2244 6.68156 11.1682 7.237 10.9594C7.79243 10.7505 8.28178 10.3967 8.65413 9.93466C8.6583 9.9305 8.6583 9.9305 8.6583 9.92633C8.69996 9.87633 8.74163 9.82216 8.77913 9.768C8.7833 9.76383 8.7833 9.75966 8.79163 9.7555C8.80038 9.73758 8.91996 9.56675 8.92913 9.53883C8.92913 9.53883 8.93163 9.53591 8.9333 9.53466C9.24767 9.07056 9.64452 8.66807 10.1041 8.34716C10.214 8.26879 10.3281 8.19646 10.4458 8.1305C10.6984 7.97963 10.9666 7.85669 11.2458 7.76383C11.9603 7.51877 12.7239 7.45255 13.4699 7.57095C14.2159 7.68935 14.9215 7.98876 15.525 8.443L16.3708 7.593H15.5333C15.478 7.593 15.4251 7.57105 15.386 7.53198C15.3469 7.49291 15.325 7.43992 15.325 7.38466V6.5305C15.325 6.47524 15.3469 6.42225 15.386 6.38318C15.4251 6.34411 15.478 6.32216 15.5333 6.32216H18.3333C18.3885 6.32216 18.4415 6.34411 18.4806 6.38318C18.5197 6.42225 18.5416 6.47524 18.5416 6.5305Z" fill="#01AB84"/>
</svg>
