<svg width="25" height="25" viewBox="0 0 25 25" fill="none" xmlns="http://www.w3.org/2000/svg">
<path d="M13.229 11.9395C13.2286 12.1356 13.1573 12.325 13.0282 12.4728C12.8992 12.6206 12.7212 12.7168 12.5269 12.7437C12.4898 12.749 12.4525 12.7516 12.415 12.7515C12.2164 12.7515 12.0246 12.6789 11.8759 12.5473C11.7271 12.4157 11.6316 12.2343 11.6074 12.0371L11.5879 11.8784L11.312 9.63916L10.874 9.35352L10.063 8.82422L9.74854 8.61914C9.66783 8.56627 9.57716 8.53046 9.48211 8.51392C9.38706 8.49737 9.28962 8.50045 9.1958 8.52295L9.18359 8.51855L9.17773 8.52686C9.04375 8.56202 8.92293 8.63548 8.83005 8.73824C8.73717 8.84101 8.67626 8.96863 8.65479 9.10547C8.65283 9.11621 8.65137 9.12744 8.65039 9.13818C8.64747 9.16396 8.646 9.18988 8.646 9.21582C8.646 9.23047 8.64648 9.24512 8.64746 9.25977L8.65527 9.33008L8.3667 9.64746L1.92773 9.2583L2.99414 4.55371C3.09814 4.56299 3.2041 4.57113 3.31201 4.57812C3.45117 4.58691 3.58708 4.59326 3.71973 4.59717C3.7583 4.59473 3.79736 4.5918 3.83594 4.58936L4.50098 4.54395C6.40771 4.41504 8.31429 4.28581 10.2207 4.15625C10.392 4.16354 10.5583 4.21639 10.7024 4.30934C10.8465 4.40229 10.9632 4.53198 11.0405 4.68506C11.4868 5.56787 11.9333 6.45085 12.3799 7.33398C12.3809 7.33545 12.3813 7.3374 12.3823 7.33887L12.5513 7.65723C12.7422 8.01765 12.8624 8.41129 12.9053 8.81689L13.2246 11.8525C13.2275 11.8818 13.229 11.9106 13.229 11.9395Z" fill="#FFCD85"/>
<path d="M2.98735 4.59717C3.02593 4.59473 3.06499 4.5918 3.10356 4.58936L3.29038 4.57661C3.19002 4.57004 3.09129 4.5624 2.99419 4.55371L2.98438 4.59707L2.98735 4.59717ZM13.2247 11.8525L12.9053 8.81689C12.8624 8.41129 12.7422 8.01765 12.5513 7.65723L12.3824 7.33887C12.3814 7.3374 12.3809 7.33545 12.3799 7.33398C11.9336 6.45117 11.4872 5.5682 11.0406 4.68506C10.9633 4.53198 10.8466 4.40229 10.7025 4.30934C10.5584 4.21639 10.3921 4.16354 10.2208 4.15625L9.70547 4.19116C9.8348 4.22695 9.95521 4.28937 10.059 4.37442C10.1628 4.45948 10.2477 4.56528 10.3082 4.68506C10.7544 5.56787 11.2009 6.45085 11.6475 7.33398C11.6485 7.33545 11.649 7.3374 11.65 7.33887L11.8189 7.65723C12.0098 8.01765 12.13 8.41129 12.1729 8.81689L12.4922 11.8525C12.4952 11.8818 12.4966 11.9106 12.4966 11.9395C12.4962 12.0899 12.4541 12.2372 12.375 12.3651C12.2959 12.493 12.1828 12.5965 12.0484 12.664C12.162 12.7215 12.2877 12.7515 12.4151 12.7515C12.4525 12.7516 12.4899 12.749 12.5269 12.7437C12.7212 12.7168 12.8993 12.6206 13.0283 12.4728C13.1573 12.325 13.2286 12.1356 13.2291 11.9395C13.2291 11.9106 13.2276 11.8818 13.2247 11.8525ZM8.46343 8.52295L8.45122 8.51855L8.44536 8.52686C8.31138 8.56202 8.19055 8.63548 8.09767 8.73824C8.00479 8.84101 7.94389 8.96863 7.92241 9.10547C7.92046 9.11621 7.91899 9.12744 7.91802 9.13818C7.91509 9.16396 7.91363 9.18988 7.91362 9.21582C7.91362 9.23047 7.91411 9.24512 7.91509 9.25977L7.9229 9.33008L7.67246 9.60547L8.36675 9.64746L8.65532 9.33008L8.64751 9.25977C8.64653 9.24512 8.64605 9.23047 8.64605 9.21582C8.64605 9.18988 8.64752 9.16396 8.65044 9.13818C8.65142 9.12744 8.65288 9.11621 8.65483 9.10547C8.67097 9.00246 8.70955 8.90425 8.76784 8.8178C8.82612 8.73135 8.9027 8.65876 8.99214 8.60518C8.83347 8.50958 8.64363 8.48005 8.46343 8.52295Z" fill="#FFC570"/>
<path d="M23.1689 11.9688H10.8926C10.0836 11.9688 9.42773 12.6246 9.42773 13.4336V20.4619C9.42773 21.2709 10.0836 21.9268 10.8926 21.9268H23.1689C23.978 21.9268 24.6338 21.2709 24.6338 20.4619V13.4336C24.6338 12.6246 23.978 11.9688 23.1689 11.9688Z" fill="#66C1FF"/>
<path d="M23.1689 11.9688H21.7041C21.8965 11.9687 22.087 12.0066 22.2647 12.0802C22.4424 12.1538 22.6039 12.2617 22.7399 12.3978C22.876 12.5338 22.9839 12.6953 23.0575 12.873C23.1311 13.0507 23.169 13.2412 23.1689 13.4336V20.4619C23.169 20.6543 23.1311 20.8448 23.0575 21.0225C22.9839 21.2002 22.876 21.3617 22.7399 21.4977C22.6039 21.6338 22.4424 21.7417 22.2647 21.8153C22.087 21.8889 21.8965 21.9268 21.7041 21.9268H23.1689C23.3613 21.9268 23.5518 21.8889 23.7295 21.8153C23.9073 21.7417 24.0687 21.6338 24.2048 21.4977C24.3408 21.3617 24.4487 21.2002 24.5223 21.0225C24.5959 20.8448 24.6338 20.6543 24.6338 20.4619V13.4336C24.6338 13.2412 24.5959 13.0507 24.5223 12.873C24.4487 12.6953 24.3408 12.5338 24.2048 12.3978C24.0687 12.2617 23.9073 12.1538 23.7295 12.0802C23.5518 12.0066 23.3613 11.9687 23.1689 11.9688Z" fill="#4EB7FF"/>
<path d="M23.1476 13.2617H20.2136C20.1058 13.2617 20.0183 13.3492 20.0183 13.457V14.4153C20.0183 14.5232 20.1058 14.6106 20.2136 14.6106H23.1476C23.2555 14.6106 23.3429 14.5232 23.3429 14.4153V13.457C23.3429 13.3492 23.2555 13.2617 23.1476 13.2617Z" fill="white"/>
<path d="M23.1477 13.2617H22.4153C22.4671 13.2617 22.5168 13.2823 22.5534 13.3189C22.59 13.3556 22.6106 13.4052 22.6106 13.457V14.4152C22.6106 14.467 22.59 14.5167 22.5534 14.5533C22.5168 14.59 22.4671 14.6105 22.4153 14.6105H23.1477C23.1995 14.6105 23.2492 14.59 23.2858 14.5533C23.3224 14.5167 23.343 14.467 23.343 14.4152V13.457C23.343 13.4052 23.3224 13.3556 23.2858 13.3189C23.2492 13.2823 23.1995 13.2617 23.1477 13.2617Z" fill="#EEEEEE"/>
<path d="M13.4738 13.2617H10.9138C10.806 13.2617 10.7185 13.3492 10.7185 13.457V15.2162C10.7185 15.324 10.806 15.4115 10.9138 15.4115H13.4738C13.5817 15.4115 13.6691 15.324 13.6691 15.2162V13.457C13.6691 13.3492 13.5817 13.2617 13.4738 13.2617Z" fill="#FFE966"/>
<path d="M13.4739 13.2617H12.7415C12.7933 13.2617 12.8429 13.2823 12.8796 13.3189C12.9162 13.3556 12.9368 13.4052 12.9368 13.457V15.2161C12.9368 15.2679 12.9162 15.3176 12.8796 15.3542C12.8429 15.3908 12.7933 15.4114 12.7415 15.4114H13.4739C13.5257 15.4114 13.5754 15.3908 13.612 15.3542C13.6486 15.3176 13.6692 15.2679 13.6692 15.2161V13.457C13.6692 13.4052 13.6486 13.3556 13.612 13.3189C13.5754 13.2823 13.5257 13.2617 13.4739 13.2617Z" fill="#FFE236"/>
<path d="M20.2913 20.4629C20.7632 20.4629 21.1458 20.0803 21.1458 19.6084C21.1458 19.1365 20.7632 18.7539 20.2913 18.7539C19.8193 18.7539 19.4368 19.1365 19.4368 19.6084C19.4368 20.0803 19.8193 20.4629 20.2913 20.4629Z" fill="#FFE966"/>
<path d="M21.7561 20.4629C22.228 20.4629 22.6106 20.0803 22.6106 19.6084C22.6106 19.1365 22.228 18.7539 21.7561 18.7539C21.2842 18.7539 20.9016 19.1365 20.9016 19.6084C20.9016 20.0803 21.2842 20.4629 21.7561 20.4629Z" fill="#FFC166"/>
<path d="M21.7561 18.7539C21.6517 18.7541 21.5483 18.7734 21.4509 18.811C21.6125 18.8726 21.7515 18.9819 21.8496 19.1243C21.9477 19.2667 22.0002 19.4355 22.0002 19.6084C22.0002 19.7813 21.9477 19.9501 21.8496 20.0925C21.7515 20.2349 21.6125 20.3442 21.4509 20.4058C21.568 20.4506 21.6935 20.4691 21.8185 20.4601C21.9435 20.451 22.065 20.4145 22.1744 20.3531C22.2837 20.2918 22.3782 20.2072 22.4512 20.1053C22.5241 20.0033 22.5738 19.8866 22.5965 19.7633C22.6193 19.64 22.6147 19.5132 22.5829 19.392C22.5512 19.2707 22.4932 19.1579 22.413 19.0615C22.3328 18.9652 22.2323 18.8877 22.1188 18.8345C22.0053 18.7814 21.8815 18.7538 21.7561 18.7539Z" fill="#FFB74E"/>
<path d="M16.5988 20.8291H10.7185C10.6214 20.8291 10.5282 20.7905 10.4596 20.7218C10.3909 20.6531 10.3523 20.56 10.3523 20.4628C10.3523 20.3657 10.3909 20.2726 10.4596 20.2039C10.5282 20.1352 10.6214 20.0966 10.7185 20.0966H16.5988C16.696 20.0966 16.7891 20.1352 16.8578 20.2039C16.9265 20.2726 16.965 20.3657 16.965 20.4628C16.965 20.56 16.9265 20.6531 16.8578 20.7218C16.7891 20.7905 16.696 20.8291 16.5988 20.8291ZM13.6691 19.3642H10.7185C10.6704 19.3642 10.6228 19.3547 10.5784 19.3363C10.5339 19.3179 10.4936 19.291 10.4596 19.2569C10.4255 19.2229 10.3986 19.1826 10.3802 19.1381C10.3618 19.0937 10.3523 19.0461 10.3523 18.998C10.3523 18.9499 10.3618 18.9023 10.3802 18.8579C10.3986 18.8134 10.4255 18.7731 10.4596 18.739C10.4936 18.705 10.5339 18.6781 10.5784 18.6597C10.6228 18.6413 10.6704 18.6318 10.7185 18.6318H13.6691C13.7172 18.6318 13.7649 18.6413 13.8093 18.6597C13.8537 18.6781 13.8941 18.705 13.9281 18.739C13.9621 18.7731 13.9891 18.8134 14.0075 18.8579C14.0259 18.9023 14.0354 18.9499 14.0354 18.998C14.0354 19.0461 14.0259 19.0937 14.0075 19.1381C13.9891 19.1826 13.9621 19.2229 13.9281 19.2569C13.8941 19.291 13.8537 19.3179 13.8093 19.3363C13.7649 19.3547 13.7172 19.3642 13.6691 19.3642ZM12.2043 17.3418H10.7185C10.6214 17.3418 10.5282 17.3032 10.4596 17.2345C10.3909 17.1659 10.3523 17.0727 10.3523 16.9756C10.3523 16.8785 10.3909 16.7853 10.4596 16.7166C10.5282 16.648 10.6214 16.6094 10.7185 16.6094H12.2043C12.3014 16.6094 12.3946 16.648 12.4632 16.7166C12.5319 16.7853 12.5705 16.8785 12.5705 16.9756C12.5705 17.0727 12.5319 17.1659 12.4632 17.2345C12.3946 17.3032 12.3014 17.3418 12.2043 17.3418ZM15.9171 17.3418H14.4313C14.3342 17.3418 14.2411 17.3032 14.1724 17.2345C14.1037 17.1659 14.0651 17.0727 14.0651 16.9756C14.0651 16.8785 14.1037 16.7853 14.1724 16.7166C14.2411 16.648 14.3342 16.6094 14.4313 16.6094H15.9171C16.0143 16.6094 16.1074 16.648 16.1761 16.7166C16.2448 16.7853 16.2833 16.8785 16.2833 16.9756C16.2833 17.0727 16.2448 17.1659 16.1761 17.2345C16.1074 17.3032 16.0143 17.3418 15.9171 17.3418ZM19.63 17.3418H18.1442C18.0471 17.3418 17.9539 17.3032 17.8852 17.2345C17.8166 17.1659 17.778 17.0727 17.778 16.9756C17.778 16.8785 17.8166 16.7853 17.8852 16.7166C17.9539 16.648 18.0471 16.6094 18.1442 16.6094H19.63C19.7271 16.6094 19.8203 16.648 19.8889 16.7166C19.9576 16.7853 19.9962 16.8785 19.9962 16.9756C19.9962 17.0727 19.9576 17.1659 19.8889 17.2345C19.8203 17.3032 19.7271 17.3418 19.63 17.3418ZM23.3428 17.3418H21.857C21.7599 17.3418 21.6668 17.3032 21.5981 17.2345C21.5294 17.1659 21.4908 17.0727 21.4908 16.9756C21.4908 16.8785 21.5294 16.7853 21.5981 16.7166C21.6668 16.648 21.7599 16.6094 21.857 16.6094H23.3428C23.4399 16.6094 23.5331 16.648 23.6018 16.7166C23.6705 16.7853 23.709 16.8785 23.709 16.9756C23.709 17.0727 23.6705 17.1659 23.6018 17.2345C23.5331 17.3032 23.4399 17.3418 23.3428 17.3418Z" fill="#B3E0FF"/>
<path d="M6.73107 10.6094L5.25085 10.9854C5.1113 11.0208 4.98888 11.1046 4.90543 11.222C4.82197 11.3393 4.7829 11.4824 4.79519 11.6259L4.79616 11.6369C4.80945 11.7921 4.88187 11.9362 4.99843 12.0396C5.115 12.1429 5.26681 12.1975 5.42248 12.192L9.33957 12.055L6.73107 10.6094Z" fill="#FFC570"/>
<path d="M8.14547 11.4062L6.63082 12.4319C6.51954 12.5073 6.43396 12.6149 6.38555 12.7402C6.33714 12.8656 6.32822 13.0028 6.35997 13.1334C6.38162 13.2224 6.42159 13.3059 6.47732 13.3786C6.53305 13.4512 6.60332 13.5115 6.68365 13.5555C6.76398 13.5996 6.8526 13.6263 6.94386 13.6342C7.03512 13.642 7.12702 13.6308 7.21368 13.6011L10.7225 12.4003L9.75489 11.8458C9.21842 11.5382 8.14547 11.4062 8.14547 11.4062Z" fill="#FFC570"/>
<path d="M10.874 9.35742L10.063 8.82812L10.875 9.35742H10.874ZM12.5781 13.2627C12.5499 13.3912 12.4919 13.5112 12.4088 13.6131C12.3256 13.715 12.2197 13.796 12.0995 13.8494C11.9793 13.9029 11.8483 13.9274 11.7169 13.9209C11.5856 13.9144 11.4576 13.8771 11.3433 13.812L10.7188 13.4565L10.6982 13.4448L9.57178 12.8032L9.56396 12.7988L9.38818 12.6992L8.32227 12.0923L7.67773 11.7251L7.11768 11.4063L5.61572 10.894L3.25635 10.0898C3.08595 10.0321 2.92441 9.95089 2.77637 9.84863L1.92773 9.26221L8.59717 9.33301L8.65527 9.33398C8.6832 9.51063 8.77708 9.67012 8.91797 9.78027L11.5879 11.8823L11.7012 11.9717L12.2769 12.4248C12.3857 12.51 12.4716 12.6209 12.5269 12.7476C12.5975 12.9097 12.6154 13.0899 12.5781 13.2627Z" fill="#FFCD85"/>
<path d="M0 3.16016L2.7458 3.85059C2.85946 3.87636 2.95823 3.94623 3.02038 4.04482C3.08253 4.14341 3.10296 4.26266 3.0772 4.37632L1.89194 9.60503C1.87919 9.66131 1.85547 9.71453 1.82215 9.76165C1.78882 9.80877 1.74654 9.84886 1.69772 9.87964C1.6489 9.91041 1.5945 9.93128 1.53762 9.94103C1.48074 9.95078 1.42249 9.94923 1.36621 9.93647L0 9.71499" fill="#FF6666"/>
</svg>
