<svg width="19" height="18" viewBox="0 0 19 18" fill="none" xmlns="http://www.w3.org/2000/svg">
<g id="Ch&#195;&#173;nh s&#195;&#161;ch b&#225;&#186;&#163;o maajtt 1" clip-path="url(#clip0_5055_424)">
<g id="Layer_x0020_1">
<g id="_2687579722752">
<path id="Vector" fill-rule="evenodd" clip-rule="evenodd" d="M0.190674 2.51093V13.7204C0.190674 14.0786 0.430646 14.4391 0.634725 14.6085C0.890803 14.8213 1.21866 14.9418 1.67353 14.9418H10.099C10.5578 14.9418 10.5663 14.536 10.3486 14.4064C10.2085 14.3229 8.82069 14.3668 8.58026 14.3668C7.81916 14.3668 1.62705 14.4004 1.36108 14.354C0.982834 14.2877 0.733429 13.9707 0.733429 13.5407V2.65449C0.733429 2.24781 1.03552 1.86399 1.42044 1.86399H16.1015C16.3663 1.86399 16.5318 2.02516 16.6507 2.1806C16.7973 2.37194 16.7892 2.5834 16.7885 2.90595V7.25325C16.7876 7.64164 16.7533 7.86407 17.1141 7.86407C17.4047 7.86407 17.3276 7.34926 17.3465 7.16044L17.3311 6.57065C17.3311 6.48264 17.3513 6.43189 17.3525 6.3864L17.3311 5.85193C17.3311 5.76392 17.3513 5.71317 17.3525 5.6679L17.3311 5.13344C17.3311 5.04543 17.3513 4.9949 17.3525 4.94941L17.3311 4.41495C17.3311 4.32693 17.3513 4.27619 17.3525 4.23069L17.3311 3.69623C17.3311 3.60821 17.3513 3.55747 17.3525 3.51197L17.3311 2.97751C17.3311 2.4451 17.4146 2.07591 16.8732 1.60019C16.6539 1.40748 16.3231 1.28906 15.9932 1.28906H1.52904C0.792789 1.28906 0.191134 1.87062 0.191134 2.5107L0.190674 2.51093Z" fill="black"/>
<path id="Vector_2" fill-rule="evenodd" clip-rule="evenodd" d="M14.5827 16.2381C14.4324 16.2381 13.3948 15.5703 13.1652 15.419C12.7561 15.1485 12.2354 14.7686 11.9172 14.3953C11.7246 14.1692 11.4366 13.7573 11.4366 13.3639V9.16013C12.0978 9.16013 12.7301 8.94227 13.2132 8.76945C13.7394 8.58131 14.1596 8.25601 14.5827 7.97438C15.1148 8.32848 15.2398 8.48621 15.9512 8.77059C16.3883 8.94524 17.1133 9.16013 17.7288 9.16013V13.184C17.7288 14.0257 16.984 14.6619 16.4946 15.0475C16.1918 15.2862 15.9116 15.4649 15.581 15.6846C15.4549 15.7685 14.6844 16.2378 14.5827 16.2378V16.2381ZM10.8582 8.90867V13.2201C10.8582 14.5626 12.2892 15.5792 13.3283 16.191C13.4718 16.2753 14.4299 16.8489 14.5102 16.8489C14.8351 16.8489 15.0189 16.6505 15.4742 16.4056C16.3423 15.9388 17.741 14.933 18.122 14.0062C18.2874 13.6041 18.2708 13.4418 18.2708 12.8968L18.3069 8.98068C18.3069 8.2327 17.362 9.03211 15.4342 7.88294L14.8668 7.47672C14.6892 7.32973 14.7964 7.32812 14.5102 7.32812L13.7514 7.86739C13.5294 8.01484 13.1507 8.19292 12.8835 8.29853C11.6607 8.78134 10.8582 8.4094 10.8582 8.9089V8.90867Z" fill="black"/>
<path id="Vector_3" fill-rule="evenodd" clip-rule="evenodd" d="M6.84408 6.63901C6.84408 6.00785 6.76425 5.18489 7.17724 4.74254C7.72529 4.15527 9.25784 4.1459 9.64483 5.04201C9.84914 5.51499 9.77321 6.15575 9.77321 6.7828C9.77321 7.1664 9.5406 7.15565 9.44696 7.85974C9.42349 8.03622 9.38898 8.09086 9.31605 8.23259C9.19019 8.47719 9.07884 8.57297 8.92077 8.77414C8.71623 9.03452 8.63225 9.15408 8.25447 9.15408C7.84838 9.15408 7.7361 8.87016 7.45885 8.50759C7.05852 7.9841 7.21175 7.84602 7.06634 7.42449C6.96925 7.14262 6.84408 7.03518 6.84408 6.63924V6.63901ZM6.30179 5.48915V6.85436C6.30179 7.14994 6.42143 7.32276 6.50932 7.54656C6.6591 7.92809 6.50587 8.12583 6.93519 8.74168C7.11972 9.00617 6.95268 9.10744 6.95268 9.76444C6.81716 9.83553 6.65151 9.89131 6.49298 9.95441C6.3225 10.0221 6.20101 10.0703 6.028 10.1391C5.51193 10.3442 4.59691 10.6203 4.2488 10.9941C3.76977 11.5084 3.71387 12.3513 4.0599 12.3513C4.17241 12.3513 4.28768 12.3085 4.33807 12.2326C4.39996 12.1396 4.38063 12.0331 4.40594 11.9048C4.54698 11.1941 5.07731 11.1141 5.73326 10.8523C5.93757 10.7707 7.31828 10.2708 7.41491 10.1519C7.48899 10.0609 7.5311 9.63665 7.5311 9.47709C7.89255 9.71758 7.99885 9.69266 8.43508 9.69266C8.74568 9.69266 8.85198 9.5811 9.04985 9.47709C9.04985 10.1595 9.00682 10.221 9.98604 10.4914C10.3173 10.5831 10.5923 10.0943 10.0495 9.9208C9.48078 9.73907 9.67566 9.88263 9.5643 9.10607C9.51369 8.75311 9.74169 8.77734 9.93289 8.23442C10.0012 8.04034 9.99248 7.90409 10.0415 7.69561C10.1278 7.32596 10.3519 7.24823 10.3519 6.71057C10.3519 5.68735 10.4782 4.99218 9.7647 4.2762C9.05767 3.56685 7.15791 3.46033 6.50656 4.75809C6.41545 4.9396 6.30202 5.23586 6.30202 5.48915H6.30179Z" fill="black"/>
<path id="Vector_4" fill-rule="evenodd" clip-rule="evenodd" d="M13.5699 13.0021C13.2814 12.8101 12.9901 12.2441 12.706 12.2569C12.5603 12.2635 12.449 12.3614 12.449 12.5351C12.449 12.7491 12.8065 13.0024 12.9342 13.1667C13.0262 13.2854 13.3769 13.6694 13.5172 13.7012C13.7135 13.7455 13.9309 13.4518 14.1394 13.2449C14.346 13.0396 14.4944 12.8561 14.6998 12.6521L16.3633 10.9276C16.6629 10.6302 16.8969 10.493 16.8969 10.1999C16.8969 10.0319 16.7114 9.98438 16.5713 9.98438C16.4464 9.98438 15.2447 11.2844 15.0615 11.4664C14.9943 11.5329 14.9435 11.5775 14.8802 11.6456L14.1389 12.4181C13.9804 12.5746 13.8253 12.8323 13.5699 13.0024V13.0021Z" fill="black"/>
</g>
</g>
</g>
<defs>
<clipPath id="clip0_5055_424">
<rect width="18.1164" height="18" fill="white" transform="translate(0.258789)"/>
</clipPath>
</defs>
</svg>
