<svg width="44" height="44" viewBox="0 0 44 44" fill="none" xmlns="http://www.w3.org/2000/svg">
<path d="M33.0587 27.5927L29.4535 29.6238C29.0209 29.8673 28.5204 29.9626 28.0285 29.895C27.5366 29.8275 27.0804 29.6008 26.7294 29.2496L14.6966 17.2169C14.3457 16.8657 14.1192 16.4095 14.0516 15.9177C13.9841 15.4259 14.0792 14.9255 14.3225 14.4927L16.3535 10.8876C16.7191 10.2387 16.8623 9.488 16.7611 8.75014C16.6599 8.01228 16.3199 7.32783 15.7932 6.80134L10.3897 1.3979C10.073 1.08104 9.697 0.829685 9.28313 0.658194C8.86926 0.486704 8.42566 0.398438 7.97766 0.398438C7.52967 0.398438 7.08607 0.486704 6.6722 0.658194C6.25832 0.829685 5.8823 1.08104 5.5656 1.3979L3.11215 3.84962C1.67745 5.28429 0.76357 7.15744 0.515831 9.17121C0.268093 11.185 0.700714 13.2238 1.74491 14.9634L2.97594 17.0151C9.26256 27.4926 18.1359 36.179 28.7449 42.241L28.988 42.3807C32.6121 44.4513 37.0897 43.8479 39.9915 40.9479L42.5535 38.3858C42.8704 38.0691 43.1217 37.6931 43.2932 37.2792C43.4647 36.8654 43.553 36.4218 43.553 35.9738C43.553 35.5258 43.4647 35.0822 43.2932 34.6683C43.1217 34.2544 42.8704 33.8784 42.5535 33.5617L37.1466 28.1548C36.6202 27.6274 35.9356 27.2868 35.1973 27.1853C34.4591 27.0838 33.7079 27.2269 33.0587 27.5927Z" fill="#01AB84"/>
</svg>
