<svg width="19" height="19" viewBox="0 0 19 19" fill="none" xmlns="http://www.w3.org/2000/svg">
<g id="LS &#196;&#145;i&#225;&#187;&#129;u tr&#225;&#187;&#139; 1 1" clip-path="url(#clip0_5445_114)">
<g id="Layer_x0020_1">
<g id="_2687578255840">
<path id="Vector" d="M4.91057 0.0203125H4.86057V0.0271976C4.41421 0.10067 3.99551 0.46576 3.99551 0.941407V1.28714H2.69977C2.55139 1.28714 2.40085 1.369 2.28911 1.48074C2.17737 1.59248 2.09551 1.74302 2.09551 1.89141V18.5165C2.09551 18.6648 2.17738 18.8153 2.28911 18.927C2.40085 19.0387 2.55139 19.1206 2.69977 19.1206H16.1581C16.3064 19.1206 16.457 19.0388 16.5687 18.9271C16.6805 18.8154 16.7623 18.6649 16.7623 18.5165V4.82055C16.7623 4.61029 16.6175 4.48239 16.461 4.45622C16.3052 4.43015 16.1309 4.5048 16.0796 4.69817L16.0779 4.69772L16.0779 4.71097L16.0699 18.1217L16.0699 18.1225C16.0704 18.1534 16.0722 18.1852 16.0738 18.2149C16.0745 18.2284 16.0752 18.2414 16.0758 18.2538C16.0777 18.2951 16.0779 18.3299 16.0739 18.3582C16.0698 18.3867 16.0622 18.4023 16.0537 18.4109C16.0464 18.4183 16.0323 18.4267 15.9998 18.4267H2.85807C2.8141 18.4267 2.8029 18.4192 2.79986 18.4162C2.79682 18.4132 2.78935 18.402 2.78935 18.358V2.0497C2.78935 2.00573 2.79682 1.99453 2.79986 1.99149C2.8029 1.98845 2.8141 1.98098 2.85807 1.98098H3.99551V2.96013C3.99551 3.18652 4.10413 3.41594 4.26561 3.58803C4.42705 3.76008 4.64725 3.88098 4.87679 3.88098C5.07985 3.88098 5.26088 3.86552 5.42212 3.79596C5.58511 3.72564 5.72305 3.60226 5.84477 3.39572L5.84478 3.39571C5.92444 3.26041 5.98254 3.07916 5.97787 2.91718C5.97235 2.72536 5.82908 2.57667 5.66681 2.55007C5.58428 2.53654 5.49698 2.55471 5.42242 2.61413C5.3484 2.67311 5.29095 2.76942 5.25974 2.90552L5.25974 2.90552C5.23268 3.02358 5.18368 3.09805 5.12999 3.14104C5.07656 3.18382 5.01517 3.1982 4.95656 3.19076C4.83782 3.1757 4.72892 3.07084 4.72892 2.92031V1.98074H15.9998C16.0087 1.98074 16.0162 1.98364 16.0247 1.99307C16.0346 2.004 16.045 2.02317 16.0542 2.0533C16.0725 2.11355 16.0811 2.20125 16.0835 2.30567C16.0859 2.40913 16.0822 2.52463 16.0779 2.63877C16.0773 2.65505 16.0766 2.67131 16.076 2.6875C16.0722 2.78415 16.0685 2.87843 16.0685 2.95989C16.0685 3.05857 16.0648 3.149 16.0614 3.23255C16.06 3.26556 16.0587 3.2975 16.0577 3.32845C16.0542 3.43584 16.054 3.53275 16.0703 3.61333C16.0869 3.69555 16.1216 3.76593 16.1912 3.81388C16.2589 3.86052 16.3522 3.88074 16.4747 3.88074C16.5101 3.88074 16.5455 3.86787 16.5763 3.85079C16.6078 3.83338 16.6382 3.80962 16.6647 3.78313C16.6912 3.75664 16.7149 3.72627 16.7324 3.69485C16.7495 3.66403 16.7623 3.62874 16.7623 3.5933V1.89117C16.7623 1.74278 16.6805 1.59224 16.5687 1.4805C16.457 1.36876 16.3065 1.2869 16.1581 1.2869H5.99507C5.98781 0.880104 5.8917 0.581355 5.74079 0.375027C5.58321 0.159569 5.36867 0.0488544 5.14434 0.0207017L5.14439 0.0203125H5.13812H4.91057ZM4.72868 0.980739C4.72868 0.882076 4.76323 0.817808 4.80971 0.778974C4.85722 0.739276 4.92263 0.721664 4.99109 0.727571C5.1287 0.739445 5.26209 0.843448 5.26209 1.02031V1.2869H4.72868V0.980739Z" fill="black" stroke="black" stroke-width="0.1"/>
<g id="Vector_2">
<path d="M7.21176 6.4006H8.67621C8.92331 6.4006 9.11176 6.28719 9.11176 6.04444V4.5006H9.74493V6.04444C9.74493 6.28743 9.93339 6.4006 10.1805 6.4006H11.6449V7.03377H10.1011C9.88561 7.03377 9.74493 7.17445 9.74493 7.38993V8.93377H9.11176V7.38993C9.11176 7.17445 8.97108 7.03377 8.7556 7.03377H7.21176V6.4006ZM8.47835 4.5006V5.76719H7.21176C6.54521 5.76719 6.56218 6.40732 6.57505 6.89251C6.57673 6.95604 6.57835 7.01691 6.57835 7.07335C6.57835 7.73717 7.50128 7.70142 8.16103 7.67586C8.2771 7.67137 8.38503 7.66719 8.47835 7.66719C8.47835 7.79821 8.47373 7.93406 8.4691 8.07011C8.44374 8.81551 8.41816 9.56719 9.15133 9.56719C9.19095 9.56719 9.23398 9.56804 9.27943 9.56893C9.7168 9.57756 10.3783 9.59061 10.3783 8.8942V7.66719C10.517 7.66719 10.6455 7.66787 10.7647 7.66851C12.1939 7.67614 12.2783 7.67659 12.2783 6.4006C12.2783 5.70499 11.5291 5.73138 10.7909 5.75737C10.6513 5.76229 10.512 5.76719 10.3783 5.76719C10.3783 5.60964 10.3793 5.46515 10.3802 5.33262C10.3897 3.91923 10.39 3.86719 9.11176 3.86719C8.75705 3.86719 8.47835 4.15361 8.47835 4.5006Z" fill="black"/>
<path d="M7.21176 6.4006H8.67621C8.92331 6.4006 9.11176 6.28719 9.11176 6.04444V4.5006H9.74493V6.04444C9.74493 6.28743 9.93339 6.4006 10.1805 6.4006H11.6449V7.03377H10.1011C9.88561 7.03377 9.74493 7.17445 9.74493 7.38993V8.93377H9.11176V7.38993C9.11176 7.17445 8.97108 7.03377 8.7556 7.03377H7.21176V6.4006ZM8.47835 4.5006V5.76719H7.21176C6.54521 5.76719 6.56218 6.40732 6.57505 6.89251C6.57673 6.95604 6.57835 7.01691 6.57835 7.07335C6.57835 7.73717 7.50128 7.70142 8.16103 7.67586C8.2771 7.67137 8.38503 7.66719 8.47835 7.66719C8.47835 7.79821 8.47373 7.93406 8.4691 8.07011C8.44374 8.81551 8.41816 9.56719 9.15133 9.56719C9.19095 9.56719 9.23398 9.56804 9.27943 9.56893C9.7168 9.57756 10.3783 9.59061 10.3783 8.8942V7.66719C10.517 7.66719 10.6455 7.66787 10.7647 7.66851C12.1939 7.67614 12.2783 7.67659 12.2783 6.4006C12.2783 5.70499 11.5291 5.73138 10.7909 5.75737C10.6513 5.76229 10.512 5.76719 10.3783 5.76719C10.3783 5.60964 10.3793 5.46515 10.3802 5.33262C10.3897 3.91923 10.39 3.86719 9.11176 3.86719C8.75705 3.86719 8.47835 4.15361 8.47835 4.5006Z" stroke="black"/>
</g>
<path id="Vector_3" d="M5.89531 13.3564C5.89531 13.4508 5.95745 13.5331 6.03231 13.589C6.10822 13.6457 6.20753 13.6834 6.30147 13.6834H12.5162C12.6701 13.6834 12.7856 13.6413 12.862 13.5713C12.9387 13.501 12.9712 13.4069 12.9663 13.3141C12.9565 13.1296 12.7998 12.95 12.5557 12.95H6.30147C6.18263 12.95 6.08014 12.989 6.00723 13.0619C5.93432 13.1348 5.89531 13.2373 5.89531 13.3562V13.3564Z" fill="black" stroke="black" stroke-width="0.1"/>
<path id="Vector_4" d="M5.89531 15.59C5.89531 15.6969 5.93047 15.7896 5.99652 15.8556C6.06258 15.9217 6.15523 15.9569 6.26214 15.9569H12.5953C12.8203 15.9569 12.9763 15.7749 12.9675 15.5878C12.9631 15.4928 12.9162 15.3996 12.8206 15.3317C12.726 15.2644 12.5866 15.2234 12.3974 15.2234H6.46001C6.32977 15.2234 6.19212 15.2425 6.08512 15.2965C5.97528 15.3519 5.89531 15.4463 5.89531 15.59Z" fill="black" stroke="black" stroke-width="0.1"/>
</g>
</g>
</g>
<defs>
<clipPath id="clip0_5445_114">
<rect width="19" height="19" fill="white"/>
</clipPath>
</defs>
</svg>
