<svg width="15" height="19" viewBox="0 0 15 19" fill="none" xmlns="http://www.w3.org/2000/svg">
<path fill-rule="evenodd" clip-rule="evenodd" d="M2.53317 0.910427C2.53317 0.464986 3.16659 0.534722 3.16659 0.95V1.26659H2.53317V0.910427ZM2.76506 0H2.99261C3.41561 0.0530861 3.8 0.416002 3.8 1.26659H14.0126C14.2744 1.26659 14.5668 1.55904 14.5668 1.82085V3.52299C14.5668 3.6183 14.4247 3.76043 14.3291 3.76043C13.8564 3.76043 13.973 3.44456 13.973 2.88957C13.973 2.51411 14.0526 1.86043 13.8543 1.86043H2.53341V2.85C2.53341 3.20302 3.04714 3.35166 3.16297 2.84638C3.28072 2.33289 3.77273 2.51314 3.78239 2.84831C3.78673 2.99888 3.73219 3.17093 3.65618 3.30003C3.4214 3.69841 3.13425 3.76067 2.73128 3.76067C2.30707 3.76067 1.9 3.31185 1.9 2.88981V1.86067H0.71256C0.621349 1.86067 0.59384 1.88818 0.59384 1.97939V18.2877C0.59384 18.3789 0.621349 18.4064 0.71256 18.4064H13.8543C14.021 18.4064 13.9771 18.2276 13.9744 18.0514L13.9824 4.64069C14.0695 4.31276 14.5668 4.38419 14.5668 4.75024V18.4462C14.5668 18.708 14.2744 19.0002 14.0126 19.0002H0.554267C0.292456 19.0002 0 18.7078 0 18.4462V1.82109C0 1.55928 0.292456 1.26683 0.554267 1.26683H1.9V0.871095C1.9 0.412141 2.3201 0.0540513 2.76506 0.0002413V0Z" fill="black"/>
<path fill-rule="evenodd" clip-rule="evenodd" d="M5.06625 6.33029H6.53071C6.7778 6.33029 6.96625 6.21688 6.96625 5.97413V4.43029H7.59943V5.97413C7.59943 6.21712 7.78788 6.33029 8.03497 6.33029H9.49943V6.96346H7.95559C7.7401 6.96346 7.59943 7.10414 7.59943 7.31962V8.86346H6.96625V7.31962C6.96625 7.10414 6.82558 6.96346 6.61009 6.96346H5.06625V6.33029ZM6.33284 4.43029V5.69687H5.06625C4.31243 5.69687 4.43284 6.51561 4.43284 7.00303C4.43284 7.78364 5.70908 7.59688 6.33284 7.59688C6.33284 8.44577 6.13883 9.49688 7.00583 9.49688C7.42665 9.49688 8.23284 9.59267 8.23284 8.82389V7.59688C10.0337 7.59688 10.1328 7.7127 10.1328 6.33029C10.1328 5.50311 9.07329 5.69687 8.23284 5.69687C8.23284 3.85913 8.36435 3.79688 6.96625 3.79688C6.61154 3.79688 6.33284 4.0833 6.33284 4.43029Z" fill="black"/>
<path fill-rule="evenodd" clip-rule="evenodd" d="M3.7998 13.2861C3.7998 13.4301 3.99285 13.5631 4.15596 13.5631H10.3707C10.951 13.5631 10.8443 12.9297 10.4102 12.9297H4.15596C3.94048 12.9297 3.7998 13.0704 3.7998 13.2858V13.2861Z" fill="black"/>
<path fill-rule="evenodd" clip-rule="evenodd" d="M3.7998 15.5197C3.7998 15.7113 3.92504 15.8365 4.11663 15.8365H10.4498C10.8431 15.8365 10.9819 15.2031 10.2519 15.2031H4.3145C4.06113 15.2031 3.7998 15.2782 3.7998 15.5197Z" fill="black"/>
</svg>
