<svg width="25" height="25" viewBox="0 0 25 25" fill="none" xmlns="http://www.w3.org/2000/svg">
<g clip-path="url(#clip0_2236_195)">
<path d="M12.4971 24.9962C19.4007 24.9962 24.9972 19.3997 24.9972 12.4961C24.9972 5.59256 19.4007 -0.00390625 12.4971 -0.00390625C5.59353 -0.00390625 -0.00292969 5.59256 -0.00292969 12.4961C-0.00292969 19.3997 5.59353 24.9962 12.4971 24.9962Z" fill="#EF4C45"/>
<path d="M16.7688 24.2307C16.9706 24.1626 17.1707 24.0893 17.3688 24.0109C17.7526 23.8486 18.1281 23.6671 18.4938 23.4672C18.8589 23.2673 19.2139 23.0493 19.5573 22.8141C19.9013 22.5787 20.2333 22.3263 20.5521 22.0578C20.8706 21.7895 21.1755 21.5055 21.4656 21.2068C21.7565 20.9076 22.0322 20.594 22.2917 20.2672C22.5508 19.941 22.7935 19.602 23.0188 19.2516C23.244 18.901 23.4515 18.5395 23.6406 18.1682C23.8294 17.7964 23.9994 17.4154 24.15 17.0266C24.3009 16.6386 24.4323 16.2433 24.5438 15.8422C24.6558 15.4401 24.7475 15.0326 24.8188 14.6214L17.5688 7.37135C16.6521 7.79219 15.7323 8.02448 14.8708 8.02552C14.6542 8.02552 14.4438 8.01198 14.2354 7.98281C13.6136 7.89872 13.0227 7.66021 12.5167 7.28906C11.1396 8.30052 9.29272 8.21615 7.46043 7.36823C7.17501 10.1516 7.32918 12.4214 8.10626 14.3578C8.23126 14.6703 8.38126 14.9766 8.54063 15.2786C8.5823 15.3547 8.62188 15.4328 8.66563 15.5078C8.79584 15.7411 8.94063 15.9703 9.09272 16.1984C9.1448 16.2766 9.19168 16.3568 9.24688 16.4339C9.43855 16.7057 9.64584 16.9734 9.86772 17.2401C9.93543 17.3214 10.0083 17.4016 10.0792 17.4818C10.2708 17.7016 10.474 17.9214 10.6875 18.1391C10.724 18.1766 10.7552 18.2151 10.7927 18.2536L16.7688 24.2307Z" fill="#DF2209"/>
<path d="M12.5167 7.29297C13.8917 8.30443 15.7365 8.21784 17.5688 7.37409C17.8115 10.1428 17.6552 12.4148 16.8907 14.3523C16.1094 16.3315 14.6761 18.0503 12.5157 19.793C10.3532 18.0492 8.89796 16.3345 8.10525 14.3606C7.32921 12.4252 7.17504 10.1554 7.46046 7.37104C9.29379 8.21896 11.1396 8.30443 12.5167 7.29297Z" fill="white"/>
</g>
<defs>
<clipPath id="clip0_2236_195">
<rect width="25" height="25" fill="white"/>
</clipPath>
</defs>
</svg>
