<svg width="20" height="19" viewBox="0 0 20 19" fill="none" xmlns="http://www.w3.org/2000/svg">
<g id="LS &#196;&#145;i&#225;&#187;&#129;u tr&#225;&#187;&#139; 1 1" clip-path="url(#clip0_5055_174)">
<g id="Layer_x0020_1">
<g id="_2687578255840">
<path id="Vector" d="M5.04124 0.0203125H4.99124V0.0271536C4.54225 0.100494 4.12059 0.465448 4.12059 0.941407V1.28714H2.81615C2.66704 1.28714 2.51563 1.36889 2.40317 1.48063C2.29074 1.59233 2.2083 1.74291 2.2083 1.89141V18.5165C2.2083 18.6649 2.29075 18.8154 2.40318 18.9271C2.51563 19.0388 2.66704 19.1206 2.81615 19.1206H16.3615C16.5106 19.1206 16.662 19.0389 16.7744 18.9272C16.8869 18.8156 16.9693 18.665 16.9693 18.5165V4.82055C16.9693 4.61004 16.8234 4.48232 16.6663 4.45621C16.5099 4.43021 16.3345 4.50459 16.2828 4.69809L16.2811 4.69764L16.2811 4.71097L16.2731 18.1217L16.2731 18.1225C16.2736 18.1534 16.2753 18.1852 16.2769 18.215C16.2777 18.2284 16.2784 18.2415 16.279 18.2538C16.2809 18.2951 16.2811 18.3299 16.2771 18.3582C16.273 18.3866 16.2653 18.4021 16.2568 18.4108C16.2494 18.4182 16.235 18.4267 16.2021 18.4267H2.97547C2.93115 18.4267 2.9197 18.4192 2.91654 18.4161C2.91348 18.413 2.90598 18.4019 2.90598 18.358V2.0497C2.90598 2.00579 2.91348 1.99464 2.91654 1.99161C2.9197 1.98847 2.93115 1.98098 2.97547 1.98098H4.12059V2.96013C4.12059 3.18662 4.22996 3.41609 4.39246 3.58815C4.55494 3.76019 4.77645 3.88098 5.00724 3.88098C5.21159 3.88098 5.39369 3.86552 5.55586 3.79601C5.7198 3.72574 5.85861 3.6024 5.98113 3.39585L5.98114 3.39583C6.06132 3.26053 6.11982 3.07922 6.11512 2.91717C6.10955 2.72512 5.96523 2.5766 5.80227 2.55006C5.71939 2.53657 5.63169 2.55468 5.55672 2.61403C5.48227 2.67298 5.42443 2.76929 5.393 2.90545L5.393 2.90545C5.36578 3.02344 5.31648 3.09792 5.26241 3.14094C5.20856 3.18378 5.14662 3.19822 5.08744 3.19076C4.96755 3.17565 4.85809 3.07058 4.85809 2.92031V1.98074H16.2021C16.2114 1.98074 16.219 1.98374 16.2276 1.99319C16.2375 2.00412 16.248 2.02328 16.2572 2.05338C16.2757 2.1136 16.2843 2.20126 16.2868 2.30568C16.2892 2.40913 16.2855 2.52462 16.2811 2.63876C16.2804 2.65506 16.2798 2.67135 16.2792 2.68757C16.2753 2.7842 16.2716 2.87845 16.2716 2.95989C16.2716 3.05857 16.2679 3.14899 16.2645 3.23254C16.2631 3.26555 16.2618 3.29749 16.2608 3.32844C16.2572 3.43582 16.2571 3.53278 16.2735 3.61339C16.2902 3.69569 16.3252 3.76606 16.3951 3.81397C16.4631 3.86053 16.5569 3.88074 16.6801 3.88074C16.7156 3.88074 16.7511 3.86792 16.7821 3.85085C16.8138 3.83346 16.8443 3.80972 16.871 3.78324C16.8977 3.75676 16.9216 3.7264 16.9391 3.69497C16.9563 3.66415 16.9693 3.62881 16.9693 3.5933V1.89117C16.9693 1.74266 16.8869 1.59209 16.7744 1.48038C16.662 1.36865 16.5106 1.2869 16.3615 1.2869H6.13242C6.12512 0.880042 6.02837 0.581246 5.87648 0.374903C5.71789 0.159456 5.50204 0.0488267 5.27644 0.0206967L5.27649 0.0203125H5.27026H5.04124ZM4.85785 0.980739C4.85785 0.882191 4.89257 0.817948 4.9394 0.779076C4.9873 0.739312 5.05327 0.721653 5.12234 0.727574C5.26124 0.739482 5.39536 0.843709 5.39536 1.02031V1.2869H4.85785V0.980739Z" fill="black" stroke="black" stroke-width="0.1"/>
<g id="Vector_2">
<path d="M7.3575 6.4006H8.83142C9.08011 6.4006 9.26979 6.28719 9.26979 6.04444V4.5006H9.90705V6.04444C9.90705 6.28743 10.0967 6.4006 10.3454 6.4006H11.8193V7.03377H10.2655C10.0486 7.03377 9.90705 7.17445 9.90705 7.38993V8.93377H9.26979V7.38993C9.26979 7.17445 9.1282 7.03377 8.91133 7.03377H7.3575V6.4006ZM8.63228 4.5006V5.76719H7.3575C6.68665 5.76719 6.70373 6.40732 6.71667 6.89251C6.71837 6.95604 6.71999 7.01691 6.71999 7.07335C6.71999 7.73717 7.64889 7.70142 8.31291 7.67586C8.42973 7.67137 8.53836 7.66719 8.63228 7.66719C8.63228 7.79821 8.62763 7.93406 8.62297 8.07011C8.59744 8.81551 8.5717 9.56719 9.30962 9.56719C9.34949 9.56719 9.3928 9.56804 9.43854 9.56893C9.87874 9.57756 10.5446 9.59061 10.5446 8.8942V7.66719C10.6841 7.66719 10.8135 7.66787 10.9334 7.66851C12.3718 7.67614 12.4568 7.67659 12.4568 6.4006C12.4568 5.70499 11.7027 5.73138 10.9598 5.75737C10.8192 5.76229 10.6791 5.76719 10.5446 5.76719C10.5446 5.60964 10.5455 5.46515 10.5464 5.33262C10.5559 3.91923 10.5563 3.86719 9.26979 3.86719C8.91278 3.86719 8.63228 4.15361 8.63228 4.5006Z" fill="black"/>
<path d="M7.3575 6.4006H8.83142C9.08011 6.4006 9.26979 6.28719 9.26979 6.04444V4.5006H9.90705V6.04444C9.90705 6.28743 10.0967 6.4006 10.3454 6.4006H11.8193V7.03377H10.2655C10.0486 7.03377 9.90705 7.17445 9.90705 7.38993V8.93377H9.26979V7.38993C9.26979 7.17445 9.1282 7.03377 8.91133 7.03377H7.3575V6.4006ZM8.63228 4.5006V5.76719H7.3575C6.68665 5.76719 6.70373 6.40732 6.71667 6.89251C6.71837 6.95604 6.71999 7.01691 6.71999 7.07335C6.71999 7.73717 7.64889 7.70142 8.31291 7.67586C8.42973 7.67137 8.53836 7.66719 8.63228 7.66719C8.63228 7.79821 8.62763 7.93406 8.62297 8.07011C8.59744 8.81551 8.5717 9.56719 9.30962 9.56719C9.34949 9.56719 9.3928 9.56804 9.43854 9.56893C9.87874 9.57756 10.5446 9.59061 10.5446 8.8942V7.66719C10.6841 7.66719 10.8135 7.66787 10.9334 7.66851C12.3718 7.67614 12.4568 7.67659 12.4568 6.4006C12.4568 5.70499 11.7027 5.73138 10.9598 5.75737C10.8192 5.76229 10.6791 5.76719 10.5446 5.76719C10.5446 5.60964 10.5455 5.46515 10.5464 5.33262C10.5559 3.91923 10.5563 3.86719 9.26979 3.86719C8.91278 3.86719 8.63228 4.15361 8.63228 4.5006Z" stroke="black"/>
</g>
<path id="Vector_3" d="M6.03252 11.8252C6.03252 11.9197 6.09513 12.002 6.1704 12.0578C6.24676 12.1145 6.3466 12.1522 6.44098 12.1522H12.6959C12.8507 12.1522 12.9667 12.1101 13.0436 12.0402C13.1208 11.9699 13.1535 11.8758 13.1486 11.7828C13.1387 11.5981 12.9809 11.4187 12.7357 11.4187H6.44098C6.32154 11.4187 6.21851 11.4577 6.14518 11.5306C6.07182 11.6034 6.03252 11.706 6.03252 11.8249V11.8252Z" fill="black" stroke="black" stroke-width="0.1"/>
<path id="Vector_4" d="M6.03252 13.6838C6.03252 13.7908 6.06795 13.8835 6.1344 13.9495C6.20083 14.0155 6.29396 14.0506 6.4014 14.0506H12.7755C13.0195 14.0506 13.1571 13.8667 13.1447 13.6806C13.1385 13.5879 13.0953 13.4959 13.0125 13.4276C12.9298 13.3593 12.8107 13.3172 12.656 13.3172H6.52088C6.40176 13.3172 6.28212 13.3482 6.19069 13.4087C6.09838 13.4698 6.03252 13.5631 6.03252 13.6838Z" fill="black" stroke="black" stroke-width="0.1"/>
<path id="Vector_5" d="M6.03252 15.59C6.03252 15.697 6.06795 15.7897 6.1344 15.8558C6.20083 15.9218 6.29396 15.9569 6.4014 15.9569H12.7755C13.0015 15.9569 13.1586 15.7752 13.1498 15.5878C13.1454 15.4926 13.0981 15.3995 13.0019 15.3316C12.9068 15.2644 12.7666 15.2234 12.5764 15.2234H6.60054C6.46952 15.2234 6.33108 15.2425 6.22349 15.2965C6.11311 15.3518 6.03252 15.4461 6.03252 15.59Z" fill="black" stroke="black" stroke-width="0.1"/>
</g>
</g>
</g>
<defs>
<clipPath id="clip0_5055_174">
<rect width="19.1228" height="19" fill="white" transform="translate(0.0991211)"/>
</clipPath>
</defs>
</svg>
