<svg width="25" height="25" viewBox="0 0 25 25" fill="none" xmlns="http://www.w3.org/2000/svg">
<path d="M21.4844 5.07812V12.5C21.4844 16.2109 19.2383 18.8477 16.9922 20.5547C15.6205 21.5942 14.108 22.4334 12.5 23.0469C12.5 23.0469 3.51562 19.9219 3.51562 12.5V5.07812L12.5 1.95312L21.4844 5.07812Z" fill="#ECEFF1"/>
<path d="M21.4844 5.07812V12.5C21.4844 16.2109 19.2383 18.8477 16.9922 20.5547C15.6205 21.5942 14.108 22.4334 12.5 23.0469V1.95312L21.4844 5.07812Z" fill="#CFD8DC"/>
<path d="M12.5 23.4359C12.456 23.4354 12.4124 23.4275 12.3711 23.4125C12.2773 23.3813 3.125 20.1117 3.125 12.4984V5.07657C3.12532 4.99582 3.15066 4.91716 3.19753 4.8514C3.2444 4.78564 3.31049 4.73603 3.38672 4.70938L12.3711 1.58438C12.4546 1.55521 12.5454 1.55521 12.6289 1.58438L21.6133 4.70938C21.6895 4.73603 21.7556 4.78564 21.8025 4.8514C21.8493 4.91716 21.8747 4.99582 21.875 5.07657V12.4984C21.875 15.6625 20.2695 18.5531 17.2266 20.8656C15.8231 21.9324 14.2734 22.7915 12.625 23.4164C12.5847 23.4297 12.5425 23.4363 12.5 23.4359ZM3.90625 5.35391V12.4984C3.90625 19.0766 11.418 22.2133 12.5 22.6273C14.0187 22.0263 15.4495 21.2235 16.7539 20.2406C19.6328 18.0531 21.0938 15.4477 21.0938 12.4984V5.35391L12.5 2.36563L3.90625 5.35391Z" fill="#0A5040"/>
<path d="M19.9219 6.25V12.5C19.9219 15.4297 18.0664 17.5781 16.2109 18.9922C15.0738 19.856 13.8256 20.5629 12.5 21.0938C11.2581 20.5928 10.0847 19.9365 9.00781 19.1406C7.08203 17.7461 5.07812 15.543 5.07812 12.5V6.25L12.5 3.90625L18.75 5.85938L19.9219 6.25Z" fill="#01AB84"/>
<path d="M12.5 4.6875V20.3125C11.6944 19.9892 10.918 19.5971 10.1797 19.1406C8.25391 17.7461 5.85938 15.543 5.85938 12.5V6.64062L12.5 4.6875Z" fill="#8DC9BB"/>
<path d="M12.4999 21.4828C12.4533 21.4832 12.407 21.4753 12.3632 21.4594C12.0507 21.3422 4.68742 18.561 4.68742 12.4985V6.24846C4.68348 6.1623 4.70816 6.07725 4.75762 6.00659C4.80709 5.93593 4.87855 5.88362 4.96086 5.85784L12.3827 3.51409C12.459 3.4901 12.5408 3.4901 12.6171 3.51409L20.039 5.85784C20.1213 5.88362 20.1928 5.93593 20.2422 6.00659C20.2917 6.07725 20.3164 6.1623 20.3124 6.24846V12.4985C20.3124 15.0219 18.9765 17.3735 16.4491 19.3031C15.2819 20.1914 13.9993 20.9168 12.6366 21.4594C12.5928 21.4753 12.5465 21.4832 12.4999 21.4828ZM5.46867 6.53362V12.4985C5.46867 17.5961 11.5116 20.2719 12.4999 20.6742C13.7366 20.1588 14.9034 19.4895 15.9726 18.6821C18.3359 16.8813 19.5312 14.8031 19.5312 12.4985V6.53362L12.4999 4.29534L5.46867 6.53362Z" fill="#0A5040"/>
<path d="M8.98438 10.5469H15.2344V14.4531H8.98438V10.5469Z" fill="#B0BEC5"/>
<path d="M8.98438 10.5469H12.5V15.2344H8.98438V10.5469Z" fill="#CFD8DC"/>
<path d="M16.0156 10.5469V15.2344H8.98438V14.4531H15.2344V10.5469H16.0156Z" fill="#90A4AE"/>
<path d="M16.0156 10.1562H14.8438V9.375C14.8438 8.7534 14.5968 8.15726 14.1573 7.71772C13.7177 7.27818 13.1216 7.03125 12.5 7.03125C11.8784 7.03125 11.2823 7.27818 10.8427 7.71772C10.4032 8.15726 10.1562 8.7534 10.1562 9.375V10.1562H8.98438C8.88077 10.1562 8.78142 10.1974 8.70816 10.2707C8.6349 10.3439 8.59375 10.4433 8.59375 10.5469V15.2344C8.59375 15.338 8.6349 15.4373 8.70816 15.5106C8.78142 15.5838 8.88077 15.625 8.98438 15.625H16.0156C16.1192 15.625 16.2186 15.5838 16.2918 15.5106C16.3651 15.4373 16.4062 15.338 16.4062 15.2344V10.5469C16.4062 10.4433 16.3651 10.3439 16.2918 10.2707C16.2186 10.1974 16.1192 10.1562 16.0156 10.1562ZM10.9375 9.375C10.9375 8.9606 11.1021 8.56317 11.3951 8.27015C11.6882 7.97712 12.0856 7.8125 12.5 7.8125C12.9144 7.8125 13.3118 7.97712 13.6049 8.27015C13.8979 8.56317 14.0625 8.9606 14.0625 9.375V10.1562H10.9375V9.375ZM15.625 14.8438H9.375V10.9375H15.625V14.8438Z" fill="black"/>
<path d="M12.5 13.6719C12.3964 13.6719 12.297 13.6307 12.2238 13.5575C12.1505 13.4842 12.1094 13.3849 12.1094 13.2812V12.5C12.1094 12.3964 12.1505 12.297 12.2238 12.2238C12.297 12.1505 12.3964 12.1094 12.5 12.1094C12.6036 12.1094 12.703 12.1505 12.7762 12.2238C12.8495 12.297 12.8906 12.3964 12.8906 12.5V13.2812C12.8906 13.3849 12.8495 13.4842 12.7762 13.5575C12.703 13.6307 12.6036 13.6719 12.5 13.6719Z" fill="black"/>
</svg>
