<svg width="27" height="26" viewBox="0 0 27 26" fill="none" xmlns="http://www.w3.org/2000/svg">
<g id="Frame">
<g id="XMLID_2060_">
<path id="XMLID_1922_" d="M13.1233 15.6016C9.50654 15.6016 6.66479 12.7416 6.66479 9.10156C6.66479 5.46156 9.50654 2.60156 13.1233 2.60156C16.7401 2.60156 19.5818 5.46156 19.5818 9.10156C19.5818 12.7416 16.7401 15.6016 13.1233 15.6016ZM13.1233 3.90156C10.2816 3.90156 7.9565 6.24156 7.9565 9.10156C7.9565 11.9616 10.2816 14.3016 13.1233 14.3016C15.9651 14.3016 18.2901 11.9616 18.2901 9.10156C18.2901 6.24156 15.9651 3.90156 13.1233 3.90156Z" fill="black"/>
</g>
<g id="XMLID_1995_">
<path id="XMLID_2302_" d="M13.1232 18.2031C8.08558 18.2031 4.0813 14.1731 4.0813 9.10312C4.0813 8.71312 4.33964 8.45312 4.72715 8.45312C5.11466 8.45312 5.373 8.71312 5.373 9.10312C5.373 13.3931 8.8606 16.9031 13.1232 16.9031C17.3858 16.9031 20.8734 13.3931 20.8734 9.10312C20.8734 8.71312 21.1318 8.45312 21.5193 8.45312C21.9068 8.45312 22.1651 8.71312 22.1651 9.10312C22.1651 14.1731 18.1609 18.2031 13.1232 18.2031Z" fill="black"/>
</g>
<g id="XMLID_1930_">
<path id="XMLID_2304_" d="M6.66485 10.4016H5.37315C4.98564 10.4016 4.72729 10.1416 4.72729 9.75156C4.72729 9.36156 4.98564 9.10156 5.37315 9.10156H6.66485C7.05236 9.10156 7.3107 9.36156 7.3107 9.75156C7.3107 10.1416 7.05236 10.4016 6.66485 10.4016Z" fill="black"/>
</g>
<g id="XMLID_1929_">
<path id="XMLID_2303_" d="M21.261 10.4016H18.9359C18.5484 10.4016 18.29 10.1416 18.29 9.75156C18.29 9.36156 18.5484 9.10156 18.9359 9.10156H21.261C21.6485 9.10156 21.9068 9.36156 21.9068 9.75156C21.9068 10.1416 21.5193 10.4016 21.261 10.4016Z" fill="black"/>
</g>
<g id="XMLID_1928_">
<path id="XMLID_2307_" d="M13.1234 22.7469C12.7359 22.7469 12.4775 22.4869 12.4775 22.0969V18.1969C12.4775 17.8069 12.7359 17.5469 13.1234 17.5469C13.5109 17.5469 13.7692 17.8069 13.7692 18.1969V22.0969C13.7692 22.4869 13.5109 22.7469 13.1234 22.7469Z" fill="black"/>
</g>
<g id="XMLID_1927_">
<path id="XMLID_2308_" d="M16.3527 23.4016H9.89414C9.50663 23.4016 9.24829 23.1416 9.24829 22.7516C9.24829 22.3616 9.50663 22.1016 9.89414 22.1016H16.3527C16.7402 22.1016 16.9985 22.3616 16.9985 22.7516C16.9985 23.1416 16.7402 23.4016 16.3527 23.4016Z" fill="black"/>
</g>
<g id="XMLID_1926_">
<path id="XMLID_2306_" d="M15.0608 10.4022C14.9316 10.4022 14.6733 10.4022 14.5441 10.2722C14.2858 10.0122 14.2858 9.62219 14.5441 9.36219L15.8358 8.06219C16.0941 7.80219 16.4817 7.80219 16.74 8.06219C16.9983 8.32219 16.9983 8.71219 16.74 8.97219L15.4483 10.2722C15.4483 10.4022 15.1899 10.4022 15.0608 10.4022Z" fill="black"/>
</g>
<g id="XMLID_1925_">
<path id="XMLID_2305_" d="M11.8315 10.3991C11.7024 10.3991 11.444 10.3991 11.3148 10.2691C11.0565 10.0091 11.0565 9.61906 11.3148 9.35906L14.5441 6.10906C14.8024 5.84906 15.19 5.84906 15.4483 6.10906C15.7066 6.36906 15.7066 6.75906 15.4483 7.01906L12.3482 10.2691C12.219 10.3991 11.9607 10.3991 11.8315 10.3991Z" fill="black"/>
</g>
<path id="XMLID_1924_" d="M13.7691 11.6984C14.1258 11.6984 14.415 11.4074 14.415 11.0484C14.415 10.6895 14.1258 10.3984 13.7691 10.3984C13.4124 10.3984 13.1233 10.6895 13.1233 11.0484C13.1233 11.4074 13.4124 11.6984 13.7691 11.6984Z" fill="black"/>
</g>
</svg>
