<svg width="25" height="25" viewBox="0 0 25 25" fill="none" xmlns="http://www.w3.org/2000/svg">
<g clip-path="url(#clip0_2236_405)">
<path d="M18.2813 15.6521C18.197 15.7918 18.0778 15.9072 17.9355 15.9869C17.7931 16.0666 17.6325 16.108 17.4693 16.1068C17.2928 16.1078 17.1197 16.058 16.9707 15.9633L17.0824 16.0391C17.2602 16.1479 17.3976 16.3118 17.4737 16.5059C17.5498 16.7 17.5605 16.9136 17.504 17.1142C17.4476 17.3149 17.3272 17.4917 17.1612 17.6177C16.9951 17.7437 16.7924 17.812 16.584 17.8123C16.4526 17.8127 16.3226 17.7848 16.2029 17.7305L16.2189 17.7463C16.4353 17.8782 16.5904 18.0907 16.6501 18.337C16.7098 18.5833 16.6692 18.8432 16.5373 19.0596L16.534 19.0648C16.4491 19.2053 16.3289 19.3211 16.1855 19.4009C16.0421 19.4807 15.8803 19.5216 15.7162 19.5197C15.5473 19.5198 15.3815 19.475 15.2355 19.39C15.3883 19.5151 15.4987 19.6843 15.5516 19.8746C15.6044 20.0648 15.5971 20.2668 15.5306 20.4527C15.4642 20.6386 15.3419 20.7995 15.1804 20.9132C15.019 21.0268 14.8264 21.0878 14.6289 21.0877C14.4511 21.0883 14.2764 21.04 14.1242 20.948L9.68633 18.2174L7.17285 17.0744L6.32129 14.8781L4.91699 14.0803C4.94297 14.0484 4.96875 14.0125 4.99277 13.9766L8.3459 8.71855L9.01797 9.08359L11.2281 7.69922L13.0893 8.19199L12.3451 10.9826L17.9701 14.3336C18.1861 14.4673 18.3402 14.6813 18.3985 14.9285C18.4568 15.1757 18.4147 15.436 18.2813 15.6521Z" fill="#FEDD8E"/>
<path d="M18.2812 15.6516C18.2119 15.7673 18.1181 15.8666 18.0065 15.9424C17.8949 16.0182 17.768 16.0687 17.6349 16.0904C17.6682 15.9012 17.6442 15.7063 17.566 15.5307C17.4878 15.3551 17.359 15.2069 17.196 15.1051L11.5731 11.7539L12.3173 8.96543L11.0765 8.85762L8.86436 10.242L7.76123 9.63652L8.3458 8.71856L9.01787 9.08359L11.228 7.69922L13.0892 8.19199L12.345 10.9826L17.97 14.3336C18.1858 14.4673 18.3398 14.6812 18.3981 14.9282C18.4565 15.1753 18.4144 15.4355 18.2812 15.6516Z" fill="#FEE9B4"/>
<path d="M15.5664 20.2998C15.5451 20.4188 15.5026 20.533 15.4408 20.6369C15.306 20.8511 15.0925 21.0037 14.8462 21.0619C14.5999 21.1201 14.3406 21.0792 14.1242 20.948L9.68633 18.2174L7.17285 17.0744L6.32129 14.8781L4.91699 14.0803C4.94297 14.0484 4.96875 14.0125 4.99277 13.9766L5.49141 13.1953L7.09512 14.1068L7.94492 16.3029L10.4582 17.4459L14.8984 20.1756C15.05 20.2675 15.2239 20.3158 15.4012 20.3152C15.4566 20.3141 15.5118 20.3089 15.5664 20.2998Z" fill="#FDD367"/>
<path d="M19.9371 12.4742L17.9703 14.3332L12.3453 10.9822L11.9803 12.0932C11.8479 12.4975 11.5985 12.8535 11.2636 13.116C10.9288 13.3784 10.5235 13.5355 10.0992 13.5674L9.1377 13.5912L10.5859 9.89297L13.0912 8.19375H15.3113L16.4832 7.51562L19.9371 12.4742Z" fill="#FEE9B4"/>
<path d="M17.0945 8.39102L15.9477 9.05332H13.7256L11.2223 10.7508L10.1211 13.5633C10.1143 13.5666 10.1067 13.568 10.0992 13.5674L9.1377 13.5932L10.5859 9.89102L13.0893 8.1918H15.3113L16.4832 7.51562L17.0945 8.39102Z" fill="#FFF3D9"/>
<path d="M19.9372 12.4734L17.9743 14.3324L17.0249 13.768L19.3249 11.5938L19.9372 12.4734Z" fill="#FEDD8E"/>
<path d="M9.01562 17.0676L8.36327 18.1789C8.3235 18.2459 8.25886 18.2943 8.18346 18.3137C8.10807 18.3331 8.02806 18.3219 7.96093 18.2825L6.8496 17.6301C6.78289 17.5907 6.73454 17.5264 6.71514 17.4513C6.69574 17.3763 6.70686 17.2966 6.74609 17.2297L7.39843 16.1164C7.4379 16.0497 7.5022 16.0014 7.57724 15.982C7.65229 15.9626 7.73196 15.9737 7.79882 16.0129L8.9121 16.6653C8.97903 16.705 9.02748 16.7697 9.04688 16.8451C9.06628 16.9205 9.05504 17.0005 9.01562 17.0676Z" fill="#FEE9B4"/>
<path d="M8.99468 17.0842L8.34249 18.1959C8.2604 18.3358 8.30728 18.5158 8.44721 18.5979L9.55889 19.2501C9.69882 19.3321 9.87881 19.2853 9.9609 19.1453L10.6131 18.0337C10.6952 17.8937 10.6483 17.7137 10.5084 17.6316L9.39669 16.9795C9.25676 16.8974 9.07677 16.9442 8.99468 17.0842Z" fill="#FEE9B4"/>
<path d="M10.5923 18.049L9.94015 19.1607C9.85805 19.3006 9.90494 19.4806 10.0449 19.5627L11.1565 20.2149C11.2965 20.297 11.4765 20.2501 11.5586 20.1102L12.2107 18.9985C12.2928 18.8586 12.246 18.6786 12.106 18.5965L10.9943 17.9443C10.8544 17.8622 10.6744 17.9091 10.5923 18.049Z" fill="#FEE9B4"/>
<path d="M12.1982 19.0092L11.5461 20.1214C11.464 20.2615 11.511 20.4416 11.651 20.5237L12.7632 21.1758C12.9033 21.2579 13.0834 21.2109 13.1655 21.0709L13.8176 19.9587C13.8997 19.8186 13.8527 19.6386 13.7127 19.5564L12.6005 18.9043C12.4604 18.8222 12.2803 18.8692 12.1982 19.0092Z" fill="#FEE9B4"/>
<path d="M8.3938 8.64434L4.99282 13.9781C4.85139 14.1996 4.62789 14.3559 4.37136 14.4127C4.11483 14.4696 3.84622 14.4224 3.62446 14.2814L0.199463 12.0973L4.66567 5.09375L8.09048 7.27598C8.31176 7.41755 8.46792 7.64104 8.52477 7.89751C8.58162 8.15397 8.53452 8.42252 8.3938 8.64434Z" fill="#7BDE9E"/>
<path d="M8.39258 8.64453L7.76367 9.63281C7.83132 9.42411 7.82774 9.19886 7.75351 8.99241C7.67927 8.78596 7.53858 8.61002 7.35352 8.49219L3.90234 6.29297L4.66602 5.09375L8.08984 7.27734H8.0918C8.20136 7.34733 8.29605 7.43822 8.37047 7.54481C8.4449 7.6514 8.49759 7.77162 8.52554 7.89858C8.55349 8.02555 8.55615 8.15677 8.53337 8.28477C8.51059 8.41276 8.46262 8.53501 8.39258 8.64453Z" fill="#A7E9BF"/>
<path d="M5.52344 13.1426L4.99414 13.9746C4.8524 14.1959 4.62872 14.352 4.3721 14.4088C4.11549 14.4655 3.84684 14.4183 3.625 14.2773L0.201172 12.0938L0.869141 11.0469L4.32031 13.25C4.5047 13.3671 4.72257 13.42 4.94011 13.4006C5.15766 13.3811 5.36271 13.2905 5.52344 13.1426Z" fill="#50D27E"/>
<path d="M24.8022 10.6168L21.469 12.9387C21.253 13.0884 20.9865 13.1464 20.7278 13.1C20.4691 13.0536 20.2393 12.9066 20.0887 12.6912L16.4743 7.50098C16.3246 7.28496 16.2666 7.01843 16.313 6.75973C16.3593 6.50104 16.5063 6.27126 16.7217 6.1207L20.0548 3.80078L24.8022 10.6168Z" fill="#7AD1F9"/>
<path d="M24.8027 10.6172L21.4688 12.9355L21.4668 12.9375C21.36 13.0118 21.2396 13.0643 21.1125 13.092C20.9853 13.1197 20.854 13.1221 20.726 13.0991C20.5979 13.076 20.4757 13.028 20.3662 12.9577C20.2567 12.8874 20.1621 12.7963 20.0879 12.6895L19.418 11.7285C19.5818 11.897 19.8001 12.0019 20.0341 12.0244C20.268 12.0469 20.5023 11.9857 20.6953 11.8516L24.041 9.52344L24.8027 10.6172Z" fill="#4CC3F7"/>
<path d="M20.7755 4.83789L17.4317 7.16797C17.2388 7.30263 17.1003 7.50179 17.0412 7.72955C16.9821 7.9573 17.0063 8.19868 17.1095 8.41016L16.4747 7.5C16.3249 7.28472 16.2667 7.01878 16.3128 6.7606C16.3589 6.50241 16.5057 6.27311 16.7208 6.12305L20.0548 3.80078L20.7755 4.83789Z" fill="#A6E1FB"/>
<path d="M24.9641 10.505L20.218 3.68721C20.1877 3.64381 20.1415 3.61417 20.0895 3.60479C20.0637 3.60006 20.0372 3.60053 20.0117 3.60617C19.9861 3.6118 19.9619 3.62249 19.9404 3.6376L16.6082 5.95908C16.3738 6.12166 16.2057 6.36327 16.1349 6.63966C16.0641 6.91604 16.0953 7.20868 16.2227 7.46397L15.2635 8.01729H13.1151L11.2738 7.52901C11.2503 7.52309 11.2258 7.52198 11.2018 7.52573C11.1778 7.52949 11.1548 7.53805 11.1342 7.55088L9.00998 8.87901L8.61174 8.6626C8.74909 8.39833 8.78274 8.09228 8.70611 7.80448C8.62947 7.51668 8.44806 7.2679 8.19748 7.10693L4.77268 4.92471C4.72807 4.89643 4.67407 4.88696 4.6225 4.89838C4.57093 4.9098 4.52598 4.94118 4.49748 4.98565L0.0312701 11.9892C0.00285882 12.0338 -0.00670196 12.0878 0.00468595 12.1394C0.0160739 12.191 0.0474801 12.2361 0.0920123 12.2646L3.51779 14.4493C3.74073 14.5905 4.0042 14.6538 4.26696 14.6293C4.52971 14.6048 4.77694 14.4939 4.96994 14.314L6.17951 15.0028L6.84182 16.7142L6.5926 17.1411C6.56099 17.1943 6.54029 17.2533 6.53171 17.3146C6.52312 17.3759 6.52683 17.4383 6.5426 17.4981C6.57425 17.6189 6.6524 17.7222 6.75998 17.7854L7.87326 18.4376C7.94513 18.48 8.02714 18.502 8.11057 18.5015C8.12464 18.5011 8.13867 18.4997 8.15256 18.4974C8.18828 18.6038 8.26116 18.6937 8.35783 18.7507L9.46897 19.4028C9.54069 19.4458 9.62268 19.4685 9.70627 19.4687C9.72014 19.4687 9.73615 19.4628 9.75022 19.4628C9.78572 19.5694 9.85864 19.6596 9.95549 19.7167L11.0666 20.3688C11.1386 20.4114 11.2205 20.4341 11.3041 20.4347C11.3199 20.4347 11.334 20.4308 11.3479 20.4308C11.384 20.5372 11.4568 20.6272 11.5533 20.6847L12.6645 21.3368C12.7366 21.3786 12.8184 21.4007 12.9018 21.4007C12.9422 21.4013 12.9826 21.396 13.0215 21.3849C13.0814 21.3696 13.1377 21.3424 13.187 21.3051C13.2363 21.2677 13.2777 21.2209 13.3086 21.1673L13.5301 20.7923L14.0328 21.1015C14.2376 21.2265 14.4767 21.2836 14.7159 21.2646C14.955 21.2456 15.1821 21.1515 15.3646 20.9958C15.5471 20.84 15.6757 20.6306 15.7321 20.3973C15.7884 20.1641 15.7696 19.9191 15.6783 19.6972C15.8791 19.7076 16.079 19.6632 16.2564 19.5687C16.4339 19.4743 16.5823 19.3333 16.6858 19.1608C16.7647 19.0346 16.8177 18.894 16.8417 18.7471C16.8657 18.6001 16.8601 18.4499 16.8254 18.3052C16.798 18.193 16.7543 18.0855 16.6957 17.986C16.8444 17.9708 16.9886 17.9264 17.12 17.8554C17.2515 17.7844 17.3677 17.6882 17.4621 17.5723C17.5564 17.4563 17.6269 17.323 17.6697 17.1798C17.7125 17.0366 17.7266 16.8864 17.7113 16.7378C17.7063 16.6901 17.6984 16.6427 17.6875 16.596C17.6623 16.4859 17.6198 16.3804 17.5617 16.2835C17.8621 16.2574 18.1398 16.1131 18.3339 15.8824C18.528 15.6517 18.6226 15.3534 18.5969 15.053C18.5924 15.0004 18.5842 14.9482 18.5723 14.8968C18.5211 14.6776 18.4063 14.4784 18.2422 14.3243L19.893 12.7649L19.9235 12.8087C20.0119 12.9374 20.125 13.0473 20.2563 13.1319C20.3875 13.2165 20.5343 13.2741 20.6881 13.3015C20.759 13.3144 20.8309 13.3209 20.903 13.321C21.1456 13.3208 21.3823 13.2458 21.5807 13.1062L24.9139 10.7819C24.9572 10.7518 24.9868 10.7057 24.9962 10.6538C25.0056 10.6019 24.994 10.5484 24.9641 10.505ZM4.82424 13.8702C4.71114 14.0468 4.53275 14.1714 4.32806 14.2168C4.12336 14.2622 3.90901 14.2247 3.73186 14.1126L0.474825 12.0355L4.72658 5.36846L7.98283 7.44326C8.15959 7.55652 8.28433 7.73514 8.32978 7.94009C8.37524 8.14504 8.33771 8.35965 8.22541 8.53701L4.82424 13.8702ZM8.19025 18.1062C8.18635 18.1101 8.18635 18.1161 8.18225 18.12C8.1702 18.1309 8.15594 18.1391 8.14045 18.144C8.10999 18.1501 8.07838 18.1458 8.05061 18.1319L6.93967 17.4812C6.91326 17.4649 6.89399 17.4392 6.88576 17.4093C6.88169 17.3946 6.88065 17.3793 6.8827 17.3642C6.88475 17.3491 6.88984 17.3346 6.89768 17.3216L7.55002 16.2083C7.56574 16.1817 7.59132 16.1624 7.62121 16.1546C7.65109 16.1467 7.68285 16.151 7.70959 16.1665L8.82053 16.8171C8.84321 16.8308 8.86054 16.8518 8.86964 16.8766C8.87874 16.9015 8.87905 16.9287 8.87053 16.9538C8.85977 16.9657 8.8504 16.9788 8.8426 16.9929L8.19025 18.1062ZM9.78811 19.0716C9.78401 19.0776 9.78401 19.0815 9.7801 19.0874C9.76742 19.0982 9.75235 19.1057 9.73615 19.1095C9.72148 19.1134 9.70616 19.1144 9.6911 19.1124C9.67604 19.1103 9.66154 19.1053 9.64846 19.0976L8.53732 18.4452C8.51073 18.4295 8.49142 18.4039 8.4836 18.374C8.47577 18.3441 8.48006 18.3124 8.49553 18.2856L9.14768 17.1724C9.16414 17.1466 9.18986 17.128 9.21955 17.1206C9.22915 17.1173 9.2393 17.1159 9.24943 17.1165C9.27014 17.1158 9.29058 17.1213 9.30803 17.1325L10.4192 17.7849C10.4417 17.7983 10.459 17.8192 10.468 17.8438C10.4771 17.8685 10.4774 17.8955 10.469 17.9204C10.4586 17.9327 10.4493 17.9457 10.441 17.9595L9.78811 19.0716ZM11.3838 20.037C11.3822 20.0425 11.3801 20.0478 11.3778 20.053C11.3594 20.0677 11.337 20.0765 11.3135 20.0783C11.29 20.0801 11.2665 20.0747 11.2461 20.063L10.1352 19.4106C10.1086 19.395 10.0892 19.3694 10.0813 19.3395C10.0735 19.3096 10.0777 19.2778 10.0932 19.2511L10.7455 18.1399C10.753 18.1264 10.7632 18.1146 10.7756 18.1054C10.788 18.0961 10.8021 18.0896 10.8172 18.0862C10.8271 18.0839 10.8371 18.0825 10.8473 18.0821C10.8679 18.0823 10.8881 18.0878 10.9059 18.0981L12.016 18.7507C12.0424 18.7669 12.0617 18.7925 12.0699 18.8224C12.0746 18.8436 12.0732 18.8657 12.066 18.8862C12.0561 18.9003 12.0465 18.9122 12.0362 18.9253L11.3838 20.037ZM13.6557 19.8759L13.0035 20.9892C12.9871 21.015 12.9614 21.0336 12.9317 21.0411C12.917 21.0452 12.9017 21.0462 12.8866 21.0442C12.8715 21.0421 12.857 21.037 12.844 21.0292L11.7328 20.3769C11.7196 20.3695 11.708 20.3595 11.6987 20.3475C11.6894 20.3356 11.6827 20.3218 11.6789 20.3071C11.6749 20.2921 11.6739 20.2764 11.6759 20.261C11.678 20.2456 11.6832 20.2307 11.691 20.2173L12.3438 19.1058C12.354 19.0883 12.3686 19.0738 12.3861 19.0635C12.4035 19.0533 12.4233 19.0476 12.4436 19.0472C12.4645 19.0477 12.485 19.0532 12.5033 19.0632L13.6145 19.7155C13.6409 19.7317 13.6601 19.7573 13.6684 19.7872C13.6725 19.8021 13.6734 19.8176 13.6713 19.8329C13.6691 19.8481 13.6638 19.8628 13.6557 19.8759ZM18.1299 15.5612C18.0771 15.6477 18.0078 15.723 17.9259 15.7827C17.844 15.8424 17.7512 15.8854 17.6527 15.9092C17.5542 15.9331 17.452 15.9373 17.3518 15.9216C17.2517 15.9059 17.1557 15.8707 17.0692 15.8179L17.0649 15.8153C17.0641 15.8146 17.0632 15.814 17.0622 15.8137C17.0611 15.8134 17.0601 15.8133 17.059 15.8134L15.2475 14.7272C15.2073 14.7029 15.159 14.6956 15.1134 14.7068C15.0677 14.7181 15.0284 14.747 15.0041 14.7872C14.9798 14.8274 14.9725 14.8757 14.9837 14.9213C14.9949 14.9669 15.0239 15.0062 15.0641 15.0306L16.8793 16.1177C16.8808 16.1178 16.8822 16.1185 16.8832 16.1196L16.9908 16.1894C17.1673 16.2978 17.2934 16.4719 17.3415 16.6733C17.3896 16.8748 17.3558 17.0871 17.2475 17.2636L17.2447 17.2681C17.1754 17.3807 17.0783 17.4736 16.9627 17.5379C16.8471 17.6022 16.7169 17.6357 16.5846 17.6353C16.4793 17.6354 16.3752 17.613 16.2793 17.5694L14.1485 16.2675C14.1079 16.2433 14.0595 16.2361 14.0136 16.2472C13.9677 16.2584 13.9281 16.2871 13.9031 16.3272C13.879 16.3675 13.8717 16.4157 13.8829 16.4612C13.8941 16.5068 13.9229 16.5461 13.9629 16.5706L16.0953 17.8731C16.105 17.8829 16.1157 17.8916 16.1272 17.8991C16.298 18.0082 16.4197 18.1795 16.4665 18.3767C16.5133 18.5739 16.4814 18.7816 16.3777 18.9558C16.274 19.1299 16.1066 19.2569 15.9109 19.3098C15.7152 19.3626 15.5066 19.3372 15.3293 19.239L13.3924 18.0085C13.3536 17.9856 13.3074 17.9783 13.2634 17.9883C13.2194 17.9982 13.1809 18.0245 13.1556 18.0619C13.1304 18.0992 13.1203 18.1448 13.1275 18.1893C13.1347 18.2339 13.1586 18.274 13.1944 18.3015L13.2029 18.3069L15.1279 19.5319C15.2784 19.6588 15.3755 19.8378 15.3997 20.0331C15.4239 20.2284 15.3735 20.4257 15.2586 20.5855C15.1436 20.7452 14.9726 20.8557 14.7797 20.8949C14.5869 20.934 14.3863 20.8989 14.2182 20.7966L13.7104 20.4841L13.9617 20.0554C14.0248 19.9476 14.0425 19.8193 14.0111 19.6985C13.9797 19.5777 13.9017 19.4742 13.7942 19.4108L12.6832 18.7585C12.5973 18.7093 12.4984 18.6878 12.3998 18.6968C12.3653 18.5908 12.2928 18.5013 12.1963 18.4454L11.0846 17.7937C10.9987 17.7427 10.8985 17.721 10.7992 17.7317C10.7649 17.6256 10.6934 17.5355 10.5979 17.4778L9.48693 16.8255C9.4021 16.7757 9.30343 16.7548 9.20568 16.7657C9.1701 16.6591 9.09712 16.5689 9.00022 16.5118L7.88908 15.8601C7.83587 15.8284 7.77689 15.8077 7.71558 15.7992C7.65428 15.7906 7.59188 15.7944 7.53205 15.8103C7.41132 15.8419 7.30803 15.9201 7.24475 16.0276L7.07131 16.3229L6.48674 14.8149C6.47225 14.7766 6.44454 14.7448 6.40861 14.7251L5.1924 14.0341L8.42561 8.96553L8.93225 9.24111C8.96008 9.25588 8.99131 9.26309 9.0228 9.26203C9.05429 9.26097 9.08496 9.25167 9.11174 9.23506L11.258 7.89131L12.6703 8.26631L10.4862 9.74678C10.4565 9.76674 10.4336 9.7952 10.4203 9.82842L8.97502 13.5286C8.96431 13.5557 8.96048 13.585 8.96389 13.6139C8.9673 13.6428 8.97784 13.6704 8.99455 13.6942C9.01175 13.7178 9.03427 13.7369 9.06027 13.7501C9.08627 13.7632 9.11502 13.7701 9.14416 13.77L10.1135 13.7462C10.5728 13.7111 11.0114 13.5407 11.3738 13.2564C11.7363 12.9721 12.0063 12.5868 12.1498 12.1491L12.4438 11.2468L17.8766 14.487C17.9647 14.541 18.0411 14.612 18.1015 14.6958C18.1618 14.7796 18.2049 14.8746 18.2281 14.9753C18.2517 15.0746 18.2551 15.1776 18.2382 15.2782C18.2213 15.3788 18.1845 15.475 18.1299 15.5612ZM17.9473 14.114L12.6817 10.9792L14.0528 10.0983C14.0923 10.0726 14.12 10.0323 14.1299 9.98617C14.1397 9.94006 14.131 9.89192 14.1055 9.85225C14.0811 9.81304 14.0422 9.7851 13.9973 9.77455C13.9524 9.76401 13.9051 9.77172 13.8658 9.796L13.8633 9.79756L13.8613 9.79951L12.2793 10.823C12.256 10.8324 12.2348 10.8467 12.2173 10.8649C12.1999 10.8831 12.1864 10.9047 12.1778 10.9284L11.8125 12.0378C11.6924 12.4079 11.4651 12.7341 11.1595 12.9751C10.8539 13.216 10.4837 13.3609 10.0957 13.3913L9.40041 13.4089L10.7324 10.0105L13.1446 8.37178H15.3106C15.342 8.37192 15.373 8.36384 15.4004 8.34834L16.4141 7.7624L19.6875 12.4655L17.9473 14.114ZM21.3531 12.7755C21.2683 12.8348 21.1726 12.8769 21.0715 12.8993C20.9704 12.9216 20.8659 12.9239 20.7639 12.9058C20.6619 12.8878 20.5645 12.8499 20.4772 12.7942C20.3899 12.7385 20.3144 12.6662 20.2551 12.5813L20.2526 12.5776L16.6393 7.38721C16.5194 7.21554 16.4727 7.00329 16.5093 6.79715C16.5459 6.59101 16.6629 6.40786 16.8346 6.28799L16.8363 6.28682L20.0059 4.07979L24.5233 10.5702L21.3531 12.7755Z" fill="#333333"/>
</g>
<defs>
<clipPath id="clip0_2236_405">
<rect width="25" height="25" fill="white"/>
</clipPath>
</defs>
</svg>
