<svg width="25" height="25" viewBox="0 0 25 25" fill="none" xmlns="http://www.w3.org/2000/svg">
<path d="M12.5 22.5C18.0228 22.5 22.5 18.0228 22.5 12.5C22.5 6.97715 18.0228 2.5 12.5 2.5C6.97715 2.5 2.5 6.97715 2.5 12.5C2.5 18.0228 6.97715 22.5 12.5 22.5Z" fill="#ECB751"/>
<path d="M12.5 2.5C11.1868 2.5 9.88642 2.75866 8.67316 3.26121C7.4599 3.76376 6.35752 4.50035 5.42894 5.42894C4.50035 6.35752 3.76376 7.4599 3.26121 8.67316C2.75866 9.88642 2.5 11.1868 2.5 12.5C2.50188 13.3617 2.61513 14.2195 2.83691 15.0521L15.0464 2.84261C14.2159 2.61939 13.36 2.50423 12.5 2.5ZM15.9285 3.1193L3.11605 15.9318C3.26927 16.3528 3.45061 16.7631 3.65885 17.1598L17.1598 3.65885C16.762 3.45159 16.3506 3.27133 15.9285 3.1193ZM21.9295 9.20573L9.20573 21.9295C9.56269 22.0553 9.9265 22.1607 10.2954 22.2453L22.242 10.2987C22.1587 9.92872 22.0543 9.56382 21.9295 9.20573Z" fill="#FDEFB4"/>
<path d="M12.4999 20.4154C16.8722 20.4154 20.4166 16.871 20.4166 12.4987C20.4166 8.12644 16.8722 4.58203 12.4999 4.58203C8.12766 4.58203 4.58325 8.12644 4.58325 12.4987C4.58325 16.871 8.12766 20.4154 12.4999 20.4154Z" fill="#FAD461"/>
<path d="M15.5247 5.1875C16.5471 5.91942 17.3803 6.88431 17.9556 8.0023C18.5309 9.12029 18.8316 10.3592 18.8328 11.6165C18.8328 13.7162 17.9988 15.7298 16.5141 17.2145C15.0294 18.6991 13.0158 19.5332 10.9162 19.5332C9.87831 19.5321 8.85079 19.3269 7.89209 18.9294C9.23495 19.8943 10.8463 20.4145 12.4998 20.417C14.5995 20.417 16.6131 19.5829 18.0978 18.0983C19.5824 16.6136 20.4165 14.6 20.4165 12.5003C20.4159 10.9342 19.9508 9.40351 19.08 8.1018C18.2093 6.80009 16.972 5.78589 15.5247 5.1875Z" fill="#ECB751"/>
<path d="M12.4999 2.08203C6.75189 2.08203 2.08325 6.75067 2.08325 12.4987C2.08325 18.2467 6.75189 22.9154 12.4999 22.9154C18.2479 22.9154 22.9166 18.2467 22.9166 12.4987C22.9166 6.75067 18.2479 2.08203 12.4999 2.08203ZM12.4999 2.91536C17.7976 2.91536 22.0833 7.20104 22.0833 12.4987C22.0833 17.7964 17.7976 22.082 12.4999 22.082C7.20226 22.082 2.91659 17.7964 2.91659 12.4987C2.91659 7.20104 7.20226 2.91536 12.4999 2.91536ZM12.4999 4.16536C7.90248 4.16536 4.16658 7.90126 4.16658 12.4987C4.16658 14.3648 4.78148 16.0921 5.81942 17.4816C5.88557 17.5702 5.98422 17.6289 6.09364 17.6448C6.20307 17.6606 6.31431 17.6324 6.40291 17.5662C6.49151 17.5001 6.55021 17.4014 6.56608 17.292C6.58195 17.1826 6.5537 17.0713 6.48755 16.9827C5.55303 15.7317 4.99992 14.182 4.99992 12.4987C4.99992 8.35163 8.35285 4.9987 12.4999 4.9987C16.647 4.9987 19.9999 8.35163 19.9999 12.4987C19.9999 16.6458 16.647 19.9987 12.4999 19.9987C11.2903 19.9987 10.1504 19.7135 9.13973 19.2061C9.09083 19.1815 9.03757 19.1667 8.98298 19.1627C8.9284 19.1587 8.87356 19.1655 8.8216 19.1827C8.76963 19.1999 8.72156 19.2271 8.68013 19.2629C8.63871 19.2987 8.60472 19.3422 8.58014 19.3911C8.55555 19.44 8.54085 19.4933 8.53685 19.5479C8.53286 19.6025 8.53965 19.6573 8.55686 19.7093C8.57406 19.7612 8.60133 19.8093 8.6371 19.8507C8.67288 19.8921 8.71647 19.9261 8.76538 19.9507C9.8888 20.5147 11.1589 20.832 12.4999 20.832C17.0974 20.832 20.8333 17.0961 20.8333 12.4987C20.8333 7.90126 17.0974 4.16536 12.4999 4.16536ZM12.4934 7.50277C12.3831 7.50449 12.2779 7.54994 12.201 7.62912C12.1241 7.70831 12.0817 7.81476 12.0833 7.92513V8.68685C12.0295 8.69639 11.9757 8.70042 11.9221 8.71372C11.9218 8.71372 11.9216 8.71372 11.9213 8.71372C10.943 8.9566 10.2335 9.79635 10.2335 10.7734C10.2335 11.7472 10.9391 12.5831 11.9123 12.8291C12.4916 13.0046 12.8378 12.9318 13.2413 13.096C13.7972 13.4017 14.0481 13.976 13.8882 14.5283C13.7268 15.086 13.1663 15.4976 12.5015 15.4976C11.8367 15.4976 11.2754 15.086 11.114 14.5283C11.0988 14.4757 11.0733 14.4267 11.0392 14.3839C11.005 14.3411 10.9627 14.3055 10.9147 14.2791C10.8668 14.2527 10.8141 14.236 10.7597 14.2299C10.7053 14.2238 10.6502 14.2286 10.5976 14.2438C10.545 14.259 10.4959 14.2845 10.4532 14.3187C10.4104 14.3529 10.3748 14.3952 10.3484 14.4431C10.322 14.4911 10.3053 14.5438 10.2993 14.5982C10.2932 14.6526 10.298 14.7077 10.3132 14.7603C10.5471 15.5682 11.2496 16.1439 12.0832 16.291V17.0723C12.0824 17.1275 12.0926 17.1823 12.1132 17.2335C12.1338 17.2848 12.1644 17.3314 12.2032 17.3707C12.2419 17.4101 12.2881 17.4413 12.3391 17.4626C12.39 17.4839 12.4447 17.4949 12.4999 17.4949C12.5551 17.4949 12.6098 17.4839 12.6607 17.4626C12.7117 17.4413 12.7579 17.4101 12.7966 17.3707C12.8354 17.3314 12.866 17.2848 12.8865 17.2335C12.9071 17.1823 12.9173 17.1275 12.9166 17.0723V16.2918C13.7515 16.1457 14.4549 15.5693 14.689 14.7603C14.9612 13.8197 14.5064 12.8212 13.6229 12.349C13.612 12.3433 13.6009 12.3382 13.5896 12.3335C12.9641 12.0676 12.5439 12.1543 12.1451 12.0308C12.1375 12.0284 12.1299 12.0262 12.1223 12.0243C11.4824 11.8654 11.0668 11.3474 11.0668 10.7735C11.0668 10.1993 11.4824 9.6815 12.1223 9.52265C12.7621 9.36398 13.4334 9.62942 13.7499 10.1371C13.7788 10.1835 13.8167 10.2238 13.8612 10.2556C13.9057 10.2875 13.9561 10.3102 14.0094 10.3226C14.0627 10.335 14.118 10.3367 14.172 10.3277C14.2259 10.3187 14.2776 10.2992 14.3241 10.2702C14.3705 10.2412 14.4108 10.2034 14.4426 10.1589C14.4744 10.1144 14.4972 10.064 14.5095 10.0106C14.5219 9.95733 14.5236 9.9021 14.5146 9.84811C14.5056 9.79411 14.4861 9.74242 14.4571 9.69599C14.1132 9.14429 13.5444 8.78728 12.9165 8.67792V7.92516C12.9173 7.86941 12.9069 7.81407 12.8859 7.76243C12.8649 7.71079 12.8337 7.66389 12.7943 7.62451C12.7548 7.58512 12.7078 7.55406 12.6562 7.53316C12.6045 7.51225 12.5492 7.5019 12.4934 7.50277ZM18.6995 13.9139C18.6551 13.9166 18.6127 13.9335 18.5786 13.9621C18.5445 13.9906 18.5204 14.0294 18.5099 14.0726C18.2056 15.2343 17.57 16.2859 16.6788 17.0959C16.6576 17.114 16.6403 17.1362 16.6279 17.1611C16.6154 17.186 16.6081 17.2132 16.6064 17.241C16.6046 17.2689 16.6085 17.2967 16.6177 17.323C16.6269 17.3493 16.6413 17.3735 16.66 17.3942C16.6788 17.4148 16.7014 17.4315 16.7267 17.4432C16.752 17.4549 16.7794 17.4614 16.8072 17.4624C16.8351 17.4633 16.8629 17.4587 16.8889 17.4487C16.9149 17.4387 16.9387 17.4236 16.9588 17.4043C17.9099 16.5399 18.5888 15.4181 18.9135 14.1784C18.922 14.148 18.9235 14.1162 18.9179 14.0852C18.9124 14.0541 18.8998 14.0248 18.8812 13.9993C18.8627 13.9739 18.8386 13.953 18.8107 13.9382C18.7829 13.9234 18.7521 13.9151 18.7206 13.9139C18.7136 13.9135 18.7065 13.9135 18.6995 13.9139ZM15.9822 17.6826C15.9424 17.6834 15.9038 17.6956 15.8707 17.7176C15.7843 17.7734 15.6959 17.827 15.6062 17.8788C15.5583 17.9064 15.5233 17.9519 15.509 18.0053C15.4946 18.0587 15.5021 18.1157 15.5297 18.1636C15.5573 18.2115 15.6029 18.2465 15.6563 18.2608C15.7097 18.2752 15.7666 18.2677 15.8145 18.2401C15.9102 18.1849 16.004 18.1271 16.0961 18.0676C16.1347 18.0434 16.1643 18.0073 16.1804 17.9647C16.1965 17.9221 16.1983 17.8755 16.1853 17.8318C16.1724 17.7882 16.1456 17.75 16.1089 17.723C16.0722 17.6961 16.0277 17.6819 15.9822 17.6826ZM7.30136 18.0407C7.21497 18.0379 7.12985 18.0621 7.05779 18.1098C6.98574 18.1576 6.93032 18.2265 6.89921 18.3072C6.86809 18.3878 6.86282 18.4762 6.88414 18.5599C6.90545 18.6437 6.95229 18.7188 7.01816 18.7747C7.12521 18.8683 7.23434 18.9593 7.34612 19.0474C7.38895 19.0825 7.43836 19.1088 7.49146 19.1246C7.54457 19.1405 7.6003 19.1456 7.65539 19.1396C7.71049 19.1336 7.76383 19.1167 7.81232 19.0899C7.8608 19.0631 7.90346 19.0268 7.93777 18.9833C7.97208 18.9398 7.99737 18.8899 8.01216 18.8365C8.02694 18.7831 8.03093 18.7273 8.02388 18.6723C8.01683 18.6173 7.99888 18.5643 7.9711 18.5164C7.94331 18.4684 7.90625 18.4265 7.86207 18.3931C7.76142 18.3137 7.66306 18.2316 7.56666 18.1473C7.49357 18.0816 7.3996 18.0438 7.30136 18.0407Z" fill="#2D3A66"/>
<path d="M7.26176 12.739C8.32078 13.3505 9.88042 12.6317 10.7453 11.1337C11.6102 9.63561 11.4529 7.92554 10.3938 7.31411C9.33482 6.70269 7.77518 7.42144 6.91028 8.91949C6.04538 10.4175 6.20274 12.1276 7.26176 12.739Z" fill="#FDEFB4"/>
<path d="M7.79194 15.5871C8.47148 15.5871 9.02236 15.1715 9.02236 14.6588C9.02236 14.1461 8.47148 13.7305 7.79194 13.7305C7.1124 13.7305 6.56152 14.1461 6.56152 14.6588C6.56152 15.1715 7.1124 15.5871 7.79194 15.5871Z" fill="#FDEFB4"/>
<path d="M11.2962 8.97266C10.6563 9.35241 10.2334 10.0198 10.2334 10.772C10.2334 11.0693 10.3055 11.3506 10.4246 11.6094C10.5413 11.4582 10.6486 11.2983 10.7453 11.1317C11.1437 10.4408 11.3407 9.66866 11.2962 8.97266Z" fill="#8D8D81"/>
<path d="M11.2962 8.97266C10.6563 9.35241 10.2334 10.0198 10.2334 10.772C10.2334 11.0693 10.3055 11.3506 10.4246 11.6094C10.5413 11.4582 10.6486 11.2983 10.7453 11.1317C11.1437 10.4408 11.3407 9.66866 11.2962 8.97266Z" fill="#8D8D81"/>
</svg>
