<svg width="20" height="19" viewBox="0 0 20 19" fill="none" xmlns="http://www.w3.org/2000/svg">
<g id="B&#225;&#186;&#163;o h&#195;&#160;nh 1" clip-path="url(#clip0_5055_320)">
<g id="Layer_x0020_1">
<g id="_2687313927168">
<path id="Vector" fill-rule="evenodd" clip-rule="evenodd" d="M10.2873 18.0313C7.99708 18.0313 5.77272 17.034 4.27402 15.5449C2.7134 13.9943 1.77159 11.7867 1.77159 9.57031C1.77159 8.23809 2.12422 7.06972 2.53247 6.12044C3.18504 4.60387 4.15356 3.5711 5.41401 2.6503C6.5268 1.83711 7.89362 1.38178 9.27598 1.19308C10.5221 1.02297 11.785 1.16992 12.9701 1.56083C13.5537 1.75338 13.9263 1.9346 14.4538 2.21427C15.7747 2.91428 16.912 4.07904 17.6554 5.36662L18.0228 6.09004C18.4253 6.95293 18.7276 8.05688 18.7519 9.07637C18.758 9.32708 18.8061 9.32877 18.8061 9.57007L18.7254 10.5321C18.4389 12.498 17.7151 14.1425 16.3005 15.5447C15.2212 16.6144 13.7334 17.4695 12.192 17.796C11.656 17.9097 10.9578 18.031 10.287 18.031L10.2873 18.0313ZM9.93146 0.0703125H10.697C11.998 0.118814 13.28 0.413442 14.371 0.960711C16.4508 2.00409 17.908 3.40412 18.953 5.51236C19.6745 6.96789 19.8487 8.22675 19.8487 9.96629C19.8487 11.7963 19.0625 13.7178 18.1054 15.0626C17.1177 16.4508 15.8815 17.4222 14.3707 18.1802C13.2788 18.7279 11.9955 19.0225 10.6931 19.0706H9.93486C8.61661 19.0228 7.31294 18.724 6.20282 18.1806C4.14531 17.1737 2.64103 15.6856 1.62126 13.6285C0.89486 12.1631 0.725586 10.925 0.725586 9.17458C0.725586 7.87566 1.18824 6.38587 1.62126 5.51236C2.32094 4.10124 3.45922 2.65343 4.75902 1.80188C5.38122 1.39433 5.50897 1.29974 6.20258 0.960229C7.31172 0.417303 8.61394 0.118573 9.93097 0.0703125H9.93146Z" fill="black"/>
<path id="Vector_2" fill-rule="evenodd" clip-rule="evenodd" d="M6.10405 7.89004V7.04887C6.93658 7.04887 7.88252 6.66037 8.46126 6.37274C9.7132 5.75043 9.51916 5.67973 10.2873 5.16865L11.1339 5.81172C11.9133 6.36068 13.428 7.04887 14.4704 7.04887C14.4704 8.3239 14.4752 8.77923 14.015 10.0106C13.3772 11.718 11.8773 13.2884 10.2871 14.1245C8.10255 12.9762 6.10405 10.4271 6.10405 7.89004ZM4.90894 7.34567C4.90894 9.78377 5.73612 11.3595 6.92176 12.8666L7.4784 13.4515C7.48569 13.4588 7.49637 13.4689 7.50366 13.4759C8.11154 14.0541 9.68358 15.3612 10.3371 15.3612C10.6778 15.3612 12.1078 14.3415 12.366 14.1115C12.9651 13.5785 13.4858 13.1048 13.9795 12.4492C14.9624 11.1437 15.6655 9.48359 15.6655 7.34567C15.6655 7.0701 15.6334 6.52935 15.5763 6.34596C15.2776 5.38848 14.3378 6.61356 11.6313 4.7237C11.4203 4.5765 11.208 4.42859 11.021 4.24158C10.0804 3.30147 10.0148 3.94405 8.97879 4.7097C8.0909 5.36604 6.86979 5.90969 5.70455 5.90945C4.92569 5.90945 4.90894 6.46034 4.90894 7.34543V7.34567Z" fill="black"/>
<path id="Vector_3" fill-rule="evenodd" clip-rule="evenodd" d="M9.49053 10.112C9.38465 9.9552 8.63202 9.12248 8.29542 9.12248C7.88304 9.12248 7.64795 9.35702 7.64795 9.66685C7.64795 10.003 8.09821 10.3369 8.43239 10.6687C8.87634 11.1098 9.12236 11.4974 9.54032 11.4974C9.91578 11.4974 11.0361 10.2341 11.3455 9.92649C11.6534 9.62052 12.9265 8.50378 12.9265 8.1329C12.9265 7.77144 12.679 7.53906 12.2791 7.53906C11.9983 7.53906 11.6913 7.95 11.5196 8.12036C11.1102 8.52695 9.73995 9.94579 9.49029 10.1118L9.49053 10.112Z" fill="black"/>
</g>
</g>
</g>
<defs>
<clipPath id="clip0_5055_320">
<rect width="19.1228" height="19" fill="white" transform="translate(0.797607)"/>
</clipPath>
</defs>
</svg>
