<svg width="21" height="20" viewBox="0 0 21 20" fill="none" xmlns="http://www.w3.org/2000/svg">
<g id="Ho&#195;&#160;n ti&#225;&#187;&#129;n 1 1" clip-path="url(#clip0_5055_169)">
<g id="Layer_x0020_1">
<g id="_2686889822800">
<path id="Vector" fill-rule="evenodd" clip-rule="evenodd" d="M1.80599 9.94476C1.80599 10.7108 1.88626 11.296 2.00284 12.0042C2.07339 12.4329 2.37301 13.0761 2.39806 13.3763C2.24467 13.3407 2.10714 13.26 1.93995 13.1942C1.2878 12.9376 0.0297852 12.1005 0.0297852 13.1802C0.0297852 13.5305 1.33024 13.9313 1.51737 14.006C3.72127 14.8861 3.41884 15.2861 4.58278 12.3608C4.66331 12.1589 4.9141 11.6613 4.9141 11.4644C4.9141 11.0819 4.27959 10.7065 3.96924 11.4081C3.83963 11.7012 3.35621 12.735 3.33525 12.9841H3.23657C3.21637 12.7431 3.00087 12.3509 2.95383 12.0885C2.91395 11.8668 2.91011 11.7954 2.86256 11.5909C2.81476 11.3849 2.80249 11.2671 2.77028 11.0453C2.67518 10.3948 2.70713 9.53759 2.80607 8.83071C3.0975 6.74816 4.53651 4.39916 6.34186 3.32423C6.72302 3.09741 7.06661 2.83935 7.50018 2.66155C8.37448 2.3029 8.92871 2.12992 9.86999 1.97473C11.8778 1.64377 14.1103 2.23178 15.7393 3.4045L16.8163 4.29528C17.1486 4.62675 17.4112 4.97067 17.6916 5.33719C17.978 5.71159 18.2091 6.12434 18.4322 6.56223L18.7073 7.22035C18.9141 7.72479 19.0335 8.23533 19.1235 8.76746C19.3993 10.3992 19.1012 12.3319 18.4159 13.7037C18.2932 13.9493 18.1968 14.0992 18.0585 14.3288C17.4342 15.3649 16.5809 16.2419 15.5708 16.9061L14.6344 17.4464L13.1645 17.9958C13.0338 18.0372 12.9034 18.0933 12.7452 18.1185C12.089 18.2229 11.2781 18.1576 11.2781 18.7195C11.2781 19.0372 11.5347 19.1607 11.7715 19.1607C12.7442 19.1607 13.5832 18.8315 14.4181 18.5551L15.1597 18.2137C15.7909 17.9006 16.5328 17.4423 17.0454 16.9501L17.9266 16.0611C18.3606 15.595 18.7533 15.0446 19.0404 14.4718C19.1744 14.2046 19.2526 13.9859 19.3704 13.7212C19.9395 12.4423 20.1586 11.3146 20.1586 9.84722C20.1586 9.47282 20.1202 9.119 20.0676 8.81014L19.9032 7.9473C19.7777 7.3951 19.5461 6.7662 19.3035 6.28512L18.5948 5.02858C18.5342 4.93765 18.5373 4.92469 18.4859 4.84265C18.3537 4.63107 18.1418 4.40729 17.9884 4.20968C17.8223 3.99607 17.6318 3.83173 17.4329 3.63411C17.0331 3.23686 16.6821 2.91885 16.202 2.60211C14.2985 1.34684 12.1424 0.767211 9.78358 1.0583C9.14601 1.13678 8.57618 1.31052 7.94423 1.48552C7.49507 1.60973 7.16784 1.79922 6.7716 1.98692C6.27156 2.22416 5.08998 2.97473 4.77937 3.341L3.96898 4.20257C2.61178 5.88735 1.80548 7.71692 1.80548 9.94527L1.80599 9.94476Z" fill="black"/>
<path id="Vector_2" fill-rule="evenodd" clip-rule="evenodd" d="M10.4893 5.04372C9.95428 5.29873 9.17713 5.29061 8.4938 6.49254C7.7693 7.76711 8.43398 9.52962 10.0997 10.0874C11.0047 10.3904 11.8409 10.0595 12.4568 10.8827C13.7271 12.5802 10.793 14.0729 9.7375 12.408C9.35403 11.8032 9.80166 11.1222 8.76222 11.1222C8.46874 11.1222 8.21949 11.4176 8.21949 11.5634C8.21949 12.397 8.38489 12.884 8.94705 13.4387C9.3231 13.8098 9.95863 14.2157 10.4891 14.2594C10.4891 14.5334 10.44 14.9523 10.5369 15.1433C10.7631 15.5903 11.5405 15.6236 11.7555 15.1253C11.854 14.8967 11.8212 14.5649 11.8212 14.2594C12.7139 14.0529 13.2909 13.6282 13.7559 12.8974C14.2619 12.1024 14.1154 10.7524 13.4134 10.0303C13.0908 9.69853 12.6764 9.40796 12.1866 9.23955C11.3117 8.93856 11.0262 9.1631 10.4732 8.93196C8.61778 8.15624 9.79144 5.65637 11.7067 6.28476C12.1411 6.42726 12.5097 6.75771 12.6546 7.15675C12.8062 7.57356 12.7114 7.69396 12.8065 7.88827C12.9435 8.16792 13.4364 8.36935 13.8183 8.10646C14.1046 7.90935 14.0415 7.7125 14.0415 7.34776C14.0415 6.74552 13.6327 6.18113 13.3142 5.86439C12.9972 5.54943 12.3049 5.10341 11.8212 5.09274C11.8212 4.21212 11.89 3.86719 10.9331 3.86719C10.7999 3.86719 10.5492 4.08791 10.5083 4.22939C10.4566 4.40719 10.4893 4.83468 10.4893 5.04372Z" fill="black"/>
</g>
</g>
</g>
<defs>
<clipPath id="clip0_5055_169">
<rect width="20.1293" height="20" fill="white" transform="translate(0.105713)"/>
</clipPath>
</defs>
</svg>
