<svg width="21" height="20" viewBox="0 0 21 20" fill="none" xmlns="http://www.w3.org/2000/svg">
<g id="&#196;&#144;&#195;&#161;nh gi&#195;&#161; 1" clip-path="url(#clip0_5055_109)">
<g id="Layer_x0020_1">
<path id="Vector" fill-rule="evenodd" clip-rule="evenodd" d="M1.7343 7.97018C2.04388 7.80736 6.35325 6.8889 7.11455 6.67706C7.37966 6.6034 7.51566 6.48249 7.64604 6.24475L9.38517 3.25466C9.49459 3.07406 10.3993 1.56022 10.4333 1.41493C10.5629 1.50916 11.7575 3.63972 11.848 3.80889L13.2456 6.26151C13.3752 6.47919 13.4798 6.60213 13.7518 6.67731C14.0057 6.74742 14.2534 6.80025 14.5264 6.86807L19.1742 8.01209C19.1318 8.16982 17.0723 10.5727 16.7461 10.944L15.492 12.4119C15.2023 12.7865 15.4114 13.8787 15.4644 14.2867L15.788 17.9316C15.8169 18.1305 15.8542 18.517 15.8542 18.7007C15.6722 18.6966 15.6346 18.6567 15.504 18.5894C14.8281 18.2412 13.3346 17.6298 12.5206 17.2531C12.2849 17.1439 12.0804 17.0736 11.8475 16.9615C11.6269 16.8554 11.3935 16.7454 11.1839 16.6608C10.4241 16.354 10.5599 16.278 9.70677 16.643L5.74047 18.4226C5.60473 18.4906 5.19161 18.6898 5.05433 18.7009C5.06379 18.6811 5.64486 12.8927 5.58325 12.6641C5.53213 12.4741 5.31202 12.2277 5.19135 12.0931L2.60399 9.02707C2.42172 8.81193 1.83553 8.15991 1.73455 7.97018H1.7343ZM0.347435 7.92852C0.347435 8.8701 0.86639 9.1114 1.44005 9.84902L3.99111 12.8257C4.22681 13.0939 4.19384 13.1393 4.14117 13.5351L4.00057 15.2326C3.96043 15.7591 3.86227 16.3781 3.83594 16.9062C3.79963 17.6379 3.70914 18.04 3.70914 18.8678C3.70914 19.4436 4.34492 20.0786 4.92779 20.0786C5.64512 20.0786 5.86651 19.8399 6.51252 19.5656L10.4328 17.8239L12.3514 18.6733C12.8504 18.913 15.4096 20.0784 15.6857 20.0784C16.1653 20.0784 16.4381 20.0286 16.8111 19.6517C17.3029 19.1546 17.2344 18.4624 17.1388 17.7995C17.0297 17.0431 16.9895 15.7141 16.8801 14.9666C16.8574 14.8109 16.6948 13.1259 16.7474 13.0283L19.775 9.48554C20.2393 8.9369 20.6846 8.54854 20.5018 7.73548C20.272 6.71287 19.3545 6.65928 18.6522 6.48326C17.7437 6.25542 15.1233 5.70144 14.4735 5.49926C14.2478 5.42915 14.215 5.26329 14.019 4.90718C13.7677 4.45049 13.5243 4.06162 13.2761 3.59933C13.1569 3.37734 13.0329 3.17414 12.9097 2.96128L12.5319 2.29301C12.2831 1.86502 12.0272 1.4228 11.7795 0.994559C11.3564 0.263545 11.1246 0.078125 10.2646 0.078125C9.66076 0.078125 9.28982 0.632608 9.04593 1.08016C8.38126 2.29961 7.53688 3.68087 6.83156 4.93436C6.46727 5.58206 6.68354 5.39156 5.82714 5.60645C4.98454 5.81777 1.86391 6.48529 1.30737 6.66918C0.8306 6.82666 0.346924 7.31689 0.346924 7.92776L0.347435 7.92852Z" fill="black"/>
</g>
</g>
<defs>
<clipPath id="clip0_5055_109">
<rect width="20.1293" height="20" fill="white" transform="translate(0.457031)"/>
</clipPath>
</defs>
</svg>
