<svg width="25" height="25" viewBox="0 0 25 25" fill="none" xmlns="http://www.w3.org/2000/svg">
<path d="M22.9166 10.5218C23.0208 10.001 22.6041 9.37599 22.0833 9.37599L16.1458 8.54266L13.4374 3.12599C13.3333 2.91766 13.2291 2.81349 13.0208 2.70933C12.4999 2.39683 11.8749 2.60516 11.5624 3.12599L8.95825 8.54266L3.02075 9.37599C2.70825 9.37599 2.49992 9.48016 2.39575 9.68849C1.97909 10.1052 1.97909 10.7302 2.39575 11.1468L6.66659 15.3135L5.62492 21.251C5.62492 21.4593 5.62492 21.6677 5.72909 21.876C6.04159 22.3968 6.66659 22.6052 7.18742 22.2927L12.4999 19.4802L17.8124 22.2927C17.9166 22.3968 18.1249 22.3968 18.3333 22.3968C18.4374 22.3968 18.4374 22.3968 18.5416 22.3968C19.0624 22.2927 19.4791 21.7718 19.3749 21.1468L18.3333 15.2093L22.6041 11.0427C22.8124 10.9385 22.9166 10.7302 22.9166 10.5218Z" fill="#FFC242"/>
</svg>
