<svg width="25" height="25" viewBox="0 0 25 25" fill="none" xmlns="http://www.w3.org/2000/svg">
<g clip-path="url(#clip0_2236_333)">
<path fill-rule="evenodd" clip-rule="evenodd" d="M9.45219 18.3493L13.241 17.8237C13.695 17.7609 14.1099 18.0922 14.1906 18.5457C14.2131 18.6698 14.2102 18.793 14.1831 18.9083L10.8987 19.4687L9.45219 18.3493Z" fill="#FDD8AE"/>
<path fill-rule="evenodd" clip-rule="evenodd" d="M14.188 18.7018L11.1174 19.2308L9.76721 18.3042L9.45183 18.3478L10.8979 19.466L11.1095 19.4296L11.3472 19.3892L14.1834 18.9064C14.1988 18.8412 14.1864 18.7701 14.188 18.7018Z" fill="#B27F7F"/>
<path fill-rule="evenodd" clip-rule="evenodd" d="M10.9884 19.4447L15.6396 18.6439C16.0913 18.5662 16.5194 18.8748 16.6192 19.3246C16.6744 19.5707 16.6232 19.8159 16.4952 20.0105L12.518 20.5479L10.9884 19.4447Z" fill="#FDD8AE"/>
<path fill-rule="evenodd" clip-rule="evenodd" d="M16.5988 19.757L12.5854 20.3188C12.5066 20.1988 12.4057 20.0812 12.2423 19.9691L11.3802 19.3777L10.9883 19.4447L12.29 20.3829L12.5183 20.5474L12.7005 20.5227L16.4948 20.0096C16.545 19.9334 16.574 19.8457 16.5988 19.757Z" fill="#B27F7F"/>
<path fill-rule="evenodd" clip-rule="evenodd" d="M12.3508 20.5604L17.3747 19.8592C17.8286 19.7957 18.2542 20.0901 18.354 20.5401C18.4092 20.7862 18.3582 21.0311 18.2299 21.2255L12.54 21.8341L12.3508 20.5604Z" fill="#FDD8AE"/>
<path fill-rule="evenodd" clip-rule="evenodd" d="M18.3324 20.9736C16.7445 21.1497 13.6421 21.4699 13.6421 21.4699L12.6996 21.1554C12.693 21.1948 12.6929 21.2325 12.686 21.2731C12.6437 21.3958 12.5826 21.5 12.5039 21.5865L12.5403 21.8344L18.2304 21.2268C18.2803 21.1509 18.3073 21.0621 18.3324 20.9736Z" fill="#B27F7F"/>
<path fill-rule="evenodd" clip-rule="evenodd" d="M0.641113 17.3555L0.641129 19.5511C1.59985 19.9404 2.73462 20.4218 3.50054 20.8328C5.15588 21.7208 6.46895 23.3854 8.22147 23.9134C9.81579 24.3938 11.5987 24.3527 12.86 24.1224C12.86 24.1224 17.2185 23.3151 19.3936 22.891C19.7446 22.8231 20.2121 22.3992 20.0954 21.8214C20.0165 21.4291 19.5707 21.0849 19.1159 21.1409C18.0407 21.2735 13.6671 21.7162 13.6671 21.7162L0.641113 17.3555Z" fill="#FDD8AE"/>
<path fill-rule="evenodd" clip-rule="evenodd" d="M12.6762 20.5143L12.3508 20.5599L12.5031 21.5855C12.5817 21.499 12.6428 21.3944 12.685 21.2718C12.7443 21.0054 12.7602 20.7531 12.6762 20.5143Z" fill="#B27F7F"/>
<path fill-rule="evenodd" clip-rule="evenodd" d="M0.640869 15.3047L0.64089 18.245L7.26299 20.1461L11.221 21.9221C11.9149 22.151 12.3713 21.9221 12.5378 21.44C12.6475 20.9531 12.6389 20.5105 12.0632 20.1155L9.32895 18.2388L7.77107 16.7511C7.31163 16.3119 6.72357 16.0295 6.09265 15.9623L2.3559 15.7243L0.640869 15.3047Z" fill="#FDD8AE"/>
<path fill-rule="evenodd" clip-rule="evenodd" d="M7.26367 20.1172L7.2186 20.301L11.1393 22.059C11.8332 22.2879 12.2895 22.0605 12.456 21.5776C12.458 21.5689 12.4567 21.5626 12.4589 21.554C12.2534 21.928 11.8401 22.0969 11.2254 21.894L7.26661 20.1188L7.26367 20.1172Z" fill="#B27F7F"/>
<path fill-rule="evenodd" clip-rule="evenodd" d="M15.8374 6.64677L12.0486 7.17238C11.5946 7.23524 11.1796 6.90388 11.099 6.45037C11.0765 6.3263 11.0793 6.20313 11.1064 6.08777L14.3909 5.52736L15.8374 6.64677Z" fill="#FDD8AE"/>
<path fill-rule="evenodd" clip-rule="evenodd" d="M11.1016 6.29432L14.1722 5.76534L15.5223 6.6919L15.8377 6.64826L14.3917 5.53007L14.1801 5.56652L13.9423 5.60692L11.1061 6.08966C11.0907 6.15489 11.1031 6.226 11.1016 6.29432Z" fill="#B27F7F"/>
<path fill-rule="evenodd" clip-rule="evenodd" d="M14.3011 5.55137L9.64992 6.3522C9.19822 6.42991 8.77017 6.12129 8.67032 5.67146C8.61515 5.42536 8.66637 5.18019 8.79435 4.98563L12.7716 4.44816L14.3011 5.55137Z" fill="#FDD8AE"/>
<path fill-rule="evenodd" clip-rule="evenodd" d="M8.69073 5.23914L12.7042 4.67733C12.783 4.79729 12.8839 4.91488 13.0473 5.027L13.9094 5.61844L14.3012 5.55142L12.9995 4.6132L12.7712 4.44865L12.5891 4.47338L8.7948 4.98651C8.74451 5.06265 8.71554 5.15037 8.69073 5.23914Z" fill="#B27F7F"/>
<path fill-rule="evenodd" clip-rule="evenodd" d="M12.9387 4.43565L7.91489 5.13691C7.46096 5.2004 7.03533 4.90596 6.9355 4.45604C6.88033 4.20994 6.93137 3.96504 7.05962 3.77061L12.7495 3.16199L12.9387 4.43565Z" fill="#FDD8AE"/>
<path fill-rule="evenodd" clip-rule="evenodd" d="M6.95718 4.02245C8.54502 3.84638 11.6474 3.52623 11.6474 3.52623L12.5899 3.84068C12.5966 3.80126 12.5967 3.7636 12.6036 3.72304C12.6458 3.60025 12.707 3.49611 12.7856 3.40957L12.7492 3.16165L7.05916 3.76931C7.00923 3.84523 6.98221 3.93404 6.95718 4.02245Z" fill="#B27F7F"/>
<path fill-rule="evenodd" clip-rule="evenodd" d="M24.6484 7.64062L24.6484 5.44496C23.6897 5.05568 22.5549 4.57428 21.789 4.16329C20.1337 3.27528 18.8206 1.61069 17.0681 1.08268C15.4738 0.602313 13.6908 0.643435 12.4296 0.873671C12.4296 0.873671 8.07106 1.681 5.89598 2.10506C5.5449 2.17303 5.07747 2.59688 5.19411 3.17467C5.27302 3.567 5.71887 3.9112 6.1737 3.85518C7.24889 3.7226 11.6224 3.27991 11.6224 3.27991L24.6484 7.64062Z" fill="#FDD8AE"/>
<path fill-rule="evenodd" clip-rule="evenodd" d="M12.6134 4.48184L12.9387 4.43619L12.7865 3.41059C12.7078 3.49709 12.6467 3.60174 12.6045 3.72428C12.5453 3.99066 12.5294 4.24302 12.6134 4.48184Z" fill="#B27F7F"/>
<path fill-rule="evenodd" clip-rule="evenodd" d="M24.6487 9.69141L24.6487 6.75114L18.0266 4.85001L14.0685 3.07397C13.3747 2.84508 12.9182 3.07397 12.7518 3.55614C12.6421 4.043 12.6507 4.48557 13.2263 4.88056L15.9606 6.7573L17.5185 8.24497C17.9779 8.68417 18.566 8.96663 19.1969 9.03381L22.9336 9.27182L24.6487 9.69141Z" fill="#FDD8AE"/>
<path fill-rule="evenodd" clip-rule="evenodd" d="M18.0259 4.87891L18.0709 4.69513L14.1503 2.93705C13.4564 2.70821 13 2.9356 12.8335 3.41852C12.8316 3.42716 12.8328 3.43353 12.8307 3.44213C13.0361 3.06811 13.4494 2.89924 14.0642 3.10205L18.0229 4.87726L18.0259 4.87891Z" fill="#B27F7F"/>
<path d="M12.849 16.0846L9.69124 12.8997C8.81916 12.0201 8.81903 10.594 9.69108 9.71446C10.5631 8.83497 11.9768 8.83497 12.8488 9.71446C13.7208 8.83484 15.1347 8.83474 16.0067 9.7143C16.879 10.5938 16.879 12.0201 16.0069 12.8997C14.9543 13.9614 12.849 16.0846 12.849 16.0846Z" fill="#FF4D59"/>
<path opacity="0.1" d="M14.428 9.05469C14.3013 9.05471 14.1743 9.07046 14.0492 9.09272C14.4884 9.16864 14.9101 9.37306 15.2492 9.7151C16.1214 10.5947 16.1213 12.0201 15.2492 12.8997C14.323 13.834 12.8753 15.2946 12.4705 15.7029L12.8492 16.0857C12.8492 16.0857 14.9542 13.9614 16.0068 12.8997C16.8789 12.0201 16.879 10.5947 16.0068 9.7151C15.5707 9.2753 14.9995 9.05466 14.428 9.05469Z" fill="#3B3C3D"/>
<path d="M11.2472 9.76582C10.8703 9.76582 10.4923 9.91291 10.2068 10.2014C9.92132 10.4899 9.77664 10.8704 9.77664 11.2485C9.77608 11.2943 9.78457 11.3399 9.80172 11.3824C9.81888 11.4249 9.84445 11.4636 9.87667 11.4962C9.90888 11.5288 9.94718 11.5547 9.98948 11.5724C10.0318 11.5901 10.0772 11.5991 10.1231 11.5991C10.1689 11.5991 10.2142 11.5901 10.2565 11.5724C10.2988 11.5547 10.3372 11.5288 10.3695 11.4962C10.4017 11.4636 10.4271 11.4249 10.4442 11.3824C10.4614 11.3399 10.4699 11.2943 10.4693 11.2485C10.4693 11.0446 10.5441 10.8439 10.6978 10.6884C10.8515 10.5329 11.0483 10.4584 11.2472 10.4584C11.2931 10.459 11.3386 10.4505 11.3812 10.4334C11.4239 10.4163 11.4628 10.391 11.4955 10.3588C11.5282 10.3266 11.5541 10.2882 11.5719 10.2458C11.5896 10.2035 11.5987 10.1579 11.5987 10.1119C11.5987 10.066 11.5896 10.0205 11.5719 9.97818C11.5541 9.93582 11.5282 9.89744 11.4955 9.86521C11.4628 9.83298 11.4239 9.80769 11.3812 9.79059C11.3386 9.7735 11.2931 9.76513 11.2472 9.76582Z" fill="#FF717A"/>
</g>
<defs>
<clipPath id="clip0_2236_333">
<rect width="25" height="25" fill="white"/>
</clipPath>
</defs>
</svg>
