<svg width="19" height="18" viewBox="0 0 19 18" fill="none" xmlns="http://www.w3.org/2000/svg">
<g id="&#196;&#144;&#198;&#161;n thu&#225;&#187;&#145;c 3" clip-path="url(#clip0_5055_326)">
<g id="Layer_x0020_1">
<g id="_2687552642144">
<path id="Vector" fill-rule="evenodd" clip-rule="evenodd" d="M11.9653 15.4158C11.9653 14.5279 12.0887 14.7965 12.2159 14.2545C12.35 14.3437 14.7753 16.6244 14.9709 16.9918C14.4921 17.1026 14.5054 17.2407 13.8021 17.2407C12.8629 17.2407 11.9653 16.3492 11.9653 15.4158ZM12.8631 13.6112C13.5179 13.4441 12.9278 13.3419 14.1359 13.3419C14.9842 13.3419 15.8891 14.241 15.8891 15.0839C15.8891 16.2843 15.7865 15.6981 15.6385 16.3281L12.8629 13.6112H12.8631ZM13.4682 12.2161L13.5283 12.5126C13.3932 12.5729 12.2785 12.9899 12.2159 13.0036C12.0263 13.2743 11.9308 13.138 11.499 13.7909C10.3808 15.481 11.7695 17.1328 11.7985 17.2405C9.65466 17.2405 7.51102 17.241 5.36714 17.2435C4.14106 17.2448 3.68872 16.8583 3.69815 15.7496C3.70736 14.6653 3.70046 13.5783 3.70046 12.4936C3.57253 12.2545 3.61901 11.6985 3.6878 11.434C3.77477 9.97146 3.40895 6.99279 3.96275 6.05416C4.43141 5.25954 5.33769 5.37864 6.12157 5.37887L11.8837 5.37727C12.3065 5.39625 12.6951 5.52198 12.9478 5.73023C13.1673 5.91105 13.4178 6.31682 13.4611 6.63046C13.6608 8.07956 13.4682 10.7839 13.4682 12.2163V12.2161ZM5.7875 3.13927H11.4645V4.54951H5.7875V3.13927ZM4.70222 0.899675H12.4664V2.39266H4.70222V0.899675ZM3.95078 0.484994C3.95078 3.05492 3.67469 3.13927 4.95254 3.13927V4.54951C3.73244 4.57671 2.78198 5.84293 2.78198 7.28677V15.5818C2.78198 16.3915 2.88943 16.8676 3.30196 17.3047C3.64662 17.6698 4.10539 18.0703 4.78551 18.0703H12.1321C12.5364 18.0703 12.7018 17.996 12.9671 17.996C13.6884 17.996 14.9941 18.4187 16.0223 17.2073C17.8919 15.0048 16.0407 12.6495 14.3862 12.5128C14.3862 10.8541 14.3777 9.19307 14.3874 7.5348C14.3927 6.63046 14.2958 6.06605 13.9005 5.52998C13.6928 5.24857 13.5743 5.11598 13.266 4.91619C13.0127 4.75205 12.6457 4.57831 12.2992 4.54951V3.13927C13.5773 3.13927 13.3012 3.05492 13.3012 0.484994C13.3012 0.216845 12.9982 0.0703125 12.7168 0.0703125H4.53518C4.25379 0.0703125 3.95078 0.216845 3.95078 0.484994Z" fill="black"/>
<path id="Vector_2" fill-rule="evenodd" clip-rule="evenodd" d="M3.6876 11.4334C3.61881 11.6979 3.57233 12.2539 3.70026 12.493C3.86522 12.4073 3.88616 12.3618 4.08265 12.2289C5.33543 11.3824 6.46833 11.1703 8.02228 11.5354C9.35076 11.8476 9.51687 12.4786 12.2159 13.0028C12.2785 12.989 13.3932 12.5721 13.5283 12.5117L13.4682 12.2152C12.3395 12.0296 11.9529 12.3291 10.2676 11.5443L8.65155 10.8276C7.67049 10.4132 5.85356 10.3512 4.72871 10.8793C4.3286 11.067 4.04446 11.2615 3.68783 11.4336L3.6876 11.4334Z" fill="black"/>
</g>
</g>
</g>
<defs>
<clipPath id="clip0_5055_326">
<rect width="18.1164" height="18" fill="white" transform="translate(0.803955)"/>
</clipPath>
</defs>
</svg>
