<svg width="16" height="22" viewBox="0 0 16 22" fill="none" xmlns="http://www.w3.org/2000/svg">
<path d="M14.75 3.6875H1.46875C1.03728 3.6875 0.6875 4.03728 0.6875 4.46875V20.875C0.6875 21.3065 1.03728 21.6562 1.46875 21.6562H14.75C15.1815 21.6562 15.5312 21.3065 15.5312 20.875V4.46875C15.5312 4.03728 15.1815 3.6875 14.75 3.6875Z" fill="#F8B84E"/>
<path d="M11.625 5.25H13.9688V17.7515L11.625 20.0938H2.25V5.25H4.59375" fill="#E9EDED"/>
<path d="M9.47661 2.90559H9.91646V6.03059H5.90552V2.90559H6.74224L6.69849 2.79534C6.58318 2.55259 6.53244 2.28428 6.55116 2.01619C6.56987 1.7481 6.65742 1.48935 6.80535 1.26498C6.95327 1.04061 7.15655 0.858166 7.39557 0.735312C7.63459 0.612459 7.90127 0.55334 8.16981 0.563651C8.43836 0.573962 8.6997 0.653334 8.92859 0.794154C9.15749 0.934974 9.3462 1.13245 9.47648 1.3675C9.60676 1.60256 9.67421 1.86724 9.67232 2.13597C9.67042 2.40471 9.59925 2.66848 9.46567 2.90168L9.47661 2.90559Z" fill="#34485C"/>
<path d="M3.81641 9.15863L4.60078 9.93759L6.17031 8.37891M3.81641 13.0649L4.60078 13.8438L6.17031 12.2852" stroke="#25B39E" stroke-linecap="round" stroke-linejoin="round"/>
<path d="M7.72412 8.375H10.0679" stroke="#2B4255" stroke-linecap="round" stroke-linejoin="round"/>
<path d="M7.73438 9.9375H12.3906" stroke="#576D7E" stroke-linecap="round" stroke-linejoin="round"/>
<path d="M7.72412 12.2812H10.0679" stroke="#2B4255" stroke-linecap="round" stroke-linejoin="round"/>
<path d="M7.73438 13.8438H12.3906" stroke="#576D7E" stroke-linecap="round" stroke-linejoin="round"/>
<path d="M7.72412 16.1875H10.0679" stroke="#2B4255" stroke-linecap="round" stroke-linejoin="round"/>
<path d="M7.73438 17.75H10.0477" stroke="#576D7E" stroke-linecap="round" stroke-linejoin="round"/>
<path d="M3.81641 16.9711L4.60078 17.7501L6.17031 16.1914" stroke="#25B39E" stroke-linecap="round" stroke-linejoin="round"/>
<path d="M11.625 20.0938V17.75H13.9688" fill="#CAD1D8"/>
<path d="M10.8438 2.90625H5.375C4.94353 2.90625 4.59375 3.25603 4.59375 3.6875V5.25C4.59375 5.68147 4.94353 6.03125 5.375 6.03125H10.8438C11.2752 6.03125 11.625 5.68147 11.625 5.25V3.6875C11.625 3.25603 11.2752 2.90625 10.8438 2.90625Z" fill="#34485C"/>
<path d="M4.59375 5.25C4.59375 5.68281 4.94219 6.03125 5.375 6.03125H10.8438C11.2766 6.03125 11.625 5.68281 11.625 5.25H4.59375Z" fill="#2B4255"/>
</svg>
