<svg width="25" height="25" viewBox="0 0 25 25" fill="none" xmlns="http://www.w3.org/2000/svg">
<g clip-path="url(#clip0_2236_282)">
<path d="M12.5 13.7134C11.0892 12.9322 9.90557 11.8942 9.05269 10.6851C8.08164 9.3084 7.56836 7.73804 7.56836 6.1438V2.33071C8.76035 2.18259 9.91962 1.8383 10.9992 1.31177C11.54 1.04533 12.0549 0.729106 12.537 0.367188C13.1913 0.822095 13.8927 1.20524 14.6291 1.51001C15.5282 1.88315 16.4693 2.14603 17.4316 2.29292V6.1438C17.4316 7.73804 16.9184 9.30835 15.9473 10.6851C15.0944 11.8942 13.9108 12.9322 12.5 13.7134Z" fill="#F8BE32"/>
<path d="M12.5 11.9973C11.5944 11.3912 10.8256 10.6553 10.2497 9.83877C9.45386 8.71045 9.0332 7.43213 9.0332 6.14185V3.55283C9.93783 3.34495 10.8153 3.03296 11.6481 2.6231C11.9619 2.46805 12.267 2.29941 12.5636 2.11719C13.0477 2.39751 13.5497 2.64581 14.0664 2.8605C14.6833 3.11687 15.3186 3.32681 15.9668 3.48857V6.14189C15.9668 7.43213 15.5461 8.7105 14.7503 9.83877C14.1744 10.6553 13.4056 11.3912 12.5 11.9973Z" fill="#FDDD5A"/>
<path d="M14.0664 2.8605C13.5498 2.64582 13.0477 2.39751 12.5636 2.11719C12.332 2.25954 12.0945 2.39375 11.8512 2.51982C12.0966 2.64082 12.3467 2.75438 12.6015 2.8605C13.2185 3.11687 13.8537 3.32681 14.502 3.48857V6.14189C14.502 7.43213 14.0813 8.7105 13.2854 9.83877C12.8543 10.4428 12.3438 10.9861 11.7676 11.4538C12.0001 11.6445 12.2443 11.8256 12.5 11.9973C13.4056 11.3912 14.1744 10.6553 14.7503 9.83877C15.5461 8.7105 15.9668 7.43213 15.9668 6.14185V3.48857C15.3186 3.32681 14.6834 3.11687 14.0664 2.8605Z" fill="#FED030"/>
<path d="M19.4401 13.384L18.8139 10.2307C18.791 10.1155 18.7915 9.99681 18.8154 9.8818C18.8393 9.76678 18.886 9.65775 18.9529 9.56116C19.0197 9.46458 19.1053 9.38242 19.2046 9.31957C19.3038 9.25672 19.4147 9.21447 19.5306 9.19532C19.7389 9.16089 19.9528 9.20287 20.1326 9.31355C20.3125 9.42422 20.4464 9.59614 20.5096 9.79766L21.6984 13.5869C21.8905 14.1992 21.8762 14.8576 21.6578 15.461L20.7876 17.8648C20.6021 18.3774 20.2773 18.828 19.8496 19.1661L19.3072 19.5948C19.1277 19.7367 18.984 19.9186 18.8874 20.1261C18.7909 20.3335 18.7443 20.5607 18.7514 20.7894L18.7962 22.2367L14.8232 22.3003L19.4401 13.384Z" fill="#FDD8AE"/>
<path d="M21.6984 13.5869L20.5097 9.79766C20.4465 9.59614 20.3126 9.42422 20.1327 9.31355C19.9528 9.20287 19.739 9.16089 19.5306 9.19532C19.4534 9.20834 19.3784 9.23166 19.3074 9.26465C19.4186 9.31567 19.5179 9.38948 19.5989 9.48129C19.6798 9.57311 19.7406 9.68089 19.7772 9.79766L20.966 13.5869C21.158 14.1992 21.1438 14.8576 20.9254 15.461L20.0553 17.8648C19.8697 18.3774 19.5449 18.8281 19.1172 19.1661L18.5748 19.5948C18.3953 19.7367 18.2515 19.9186 18.155 20.1261C18.0585 20.3335 18.0119 20.5607 18.019 20.7894L18.0638 22.2367L14.8294 22.2885L14.8232 22.3003L18.7962 22.2367L18.7514 20.7894C18.7443 20.5607 18.7909 20.3335 18.8874 20.1261C18.984 19.9186 19.1277 19.7367 19.3072 19.5948L19.8496 19.1661C20.2773 18.8281 20.6022 18.3774 20.7877 17.8649L21.6578 15.461C21.8762 14.8576 21.8904 14.1992 21.6983 13.5869H21.6984Z" fill="#FBBF7D"/>
<path d="M14.6461 22.2482L14.3728 19.9332C14.3353 19.6154 14.3677 19.2933 14.4676 18.9893C14.5676 18.6853 14.7328 18.4068 14.9516 18.1733L19.4403 13.3828C19.7315 13.5385 19.949 13.8035 20.0448 14.1195C20.1406 14.4355 20.107 14.7766 19.9513 15.0678L18.9138 17.0088" fill="#FDD8AE"/>
<path d="M18.3926 17.0088C18.55 17.0088 18.7045 16.966 18.8395 16.8851C18.9745 16.8041 19.0851 16.6881 19.1593 16.5492L19.9511 15.0678C20.1068 14.7766 20.1404 14.4355 20.0446 14.1195C19.9487 13.8035 19.7313 13.5385 19.4401 13.3828L19.2247 13.6127C19.4088 13.8021 19.5279 14.0452 19.5648 14.3067C19.6017 14.5683 19.5546 14.8348 19.4301 15.0678L18.3926 17.0088Z" fill="#FBBF7D"/>
<path d="M20.2276 24.2054L13.6958 25.0001L13.5088 23.0739L13.4263 22.3859C13.4044 22.2017 13.4566 22.0165 13.5713 21.8708C13.686 21.7251 13.8539 21.6309 14.0381 21.609L19.1377 20.9972C19.3218 20.975 19.5072 21.0269 19.6532 21.1413C19.7991 21.2557 19.8937 21.4235 19.916 21.6076L19.9927 22.2487L20.2276 24.2054Z" fill="#2370B5"/>
<path d="M17.6728 21.1738C17.8569 21.1516 18.0423 21.2034 18.1882 21.3179C18.3342 21.4323 18.4287 21.6 18.4511 21.7841L18.5277 22.4252L18.7628 24.3836L20.2275 24.2054L19.9926 22.2487L19.9159 21.6076C19.8936 21.4235 19.799 21.2557 19.6531 21.1413C19.5071 21.0269 19.3217 20.975 19.1376 20.9972L14.038 21.609C14.0326 21.6097 14.0273 21.611 14.022 21.6118L17.6728 21.1738Z" fill="#1067AE"/>
<path d="M19.9927 22.2487V22.2492L13.5088 23.0739L13.4263 22.3859C13.4044 22.2017 13.4566 22.0165 13.5713 21.8708C13.686 21.7251 13.8539 21.6309 14.0381 21.609L19.1377 20.9972C19.3218 20.975 19.5072 21.0269 19.6532 21.1413C19.7991 21.2557 19.8937 21.4235 19.916 21.6076L19.9927 22.2487Z" fill="#1067AE"/>
<path d="M19.916 21.6076C19.8936 21.4235 19.7991 21.2557 19.6531 21.1413C19.5072 21.0269 19.3218 20.975 19.1376 20.9972L14.038 21.609C14.0119 21.6123 13.9859 21.617 13.9602 21.6231L17.6728 21.1777C17.8569 21.1555 18.0423 21.2073 18.1883 21.3218C18.3342 21.4362 18.4288 21.6039 18.4511 21.788L18.5278 22.4292V22.4296L19.9926 22.2492V22.2487L19.916 21.6076Z" fill="#0A56A4"/>
<path d="M5.56839 13.384L6.19461 10.2307C6.21749 10.1155 6.21698 9.99681 6.1931 9.8818C6.16922 9.76678 6.12246 9.65775 6.0556 9.56116C5.98874 9.46458 5.90315 9.38242 5.80391 9.31957C5.70467 9.25672 5.59381 9.21447 5.47791 9.19532C5.26953 9.16089 5.05572 9.20287 4.87583 9.31355C4.69594 9.42422 4.56207 9.59614 4.49886 9.79766L3.31009 13.5869C3.11802 14.1992 3.1323 14.8576 3.35071 15.461L4.22083 17.8648C4.40636 18.3774 4.73122 18.828 5.15887 19.1661L5.70125 19.5948C5.88075 19.7367 6.02452 19.9186 6.12104 20.1261C6.21756 20.3335 6.26415 20.5607 6.25706 20.7894L6.21224 22.2367L10.1852 22.3003L5.56839 13.384Z" fill="#FDD8AE"/>
<path d="M5.70126 19.5948L5.15892 19.1661C4.73125 18.8281 4.40638 18.3774 4.22084 17.8648L3.35072 15.461C3.13229 14.8576 3.11802 14.1992 3.31009 13.5869L4.49886 9.79765C4.56208 9.59614 4.69594 9.42423 4.87582 9.31356C5.0557 9.20288 5.26949 9.16089 5.47787 9.19531C5.55506 9.20833 5.63017 9.23165 5.70116 9.26465C5.5899 9.31567 5.49059 9.38947 5.40966 9.48128C5.32872 9.5731 5.26795 9.68088 5.23129 9.79765L4.04252 13.5869C3.85045 14.1992 3.86473 14.8576 4.08314 15.461L4.95326 17.8648C5.13879 18.3774 5.46367 18.8281 5.89134 19.1661L6.43368 19.5948C6.61317 19.7367 6.75694 19.9186 6.85346 20.1261C6.94998 20.3335 6.99657 20.5607 6.98949 20.7894L6.94466 22.2367L10.1791 22.2885L10.1852 22.3003L6.21224 22.2367L6.25707 20.7894" fill="#FBBF7D"/>
<path d="M10.3625 22.2482L10.6357 19.9332C10.6732 19.6154 10.6409 19.2933 10.5409 18.9893C10.4409 18.6853 10.2758 18.4068 10.057 18.1733L5.56819 13.3828C5.27699 13.5385 5.05957 13.8035 4.96374 14.1195C4.86791 14.4355 4.90153 14.7766 5.0572 15.0678L6.0947 17.0088" fill="#FDD8AE"/>
<path d="M6.61573 17.0088C6.4583 17.0088 6.30382 16.966 6.16879 16.8851C6.03376 16.8041 5.92324 16.6881 5.84903 16.5492L5.05718 15.0678C4.90153 14.7766 4.86792 14.4355 4.96374 14.1195C5.05957 13.8035 5.27699 13.5385 5.56817 13.3828L5.7836 13.6127C5.59951 13.8021 5.48042 14.0452 5.44351 14.3067C5.4066 14.5683 5.4538 14.8348 5.57828 15.0678L6.61573 17.0088Z" fill="#FBBF7D"/>
<path d="M4.78076 24.2073L11.3128 25.0001L11.4998 23.0739L11.5823 22.3859C11.6042 22.2017 11.552 22.0165 11.4373 21.8708C11.3225 21.7251 11.1546 21.6309 10.9705 21.609L5.8709 20.9972C5.68676 20.975 5.50135 21.0269 5.35541 21.1413C5.20947 21.2557 5.11493 21.4235 5.09258 21.6076L5.01592 22.2487L4.78076 24.2073Z" fill="#2370B5"/>
<path d="M10.9703 21.609L5.8707 20.9972C5.70193 20.9769 5.53156 21.0189 5.3916 21.1154L9.50547 21.609C9.68961 21.6309 9.85751 21.725 9.97224 21.8707C10.087 22.0164 10.1391 22.2017 10.1173 22.3858L10.0348 23.0738L9.8835 24.8266L11.3126 25.0001L11.4996 23.0738L11.5821 22.3858C11.604 22.2017 11.5518 22.0164 11.4371 21.8707C11.3223 21.725 11.1545 21.6309 10.9703 21.609Z" fill="#1067AE"/>
<path d="M5.01587 22.2487V22.2492L11.4998 23.0739L11.5823 22.3859C11.6041 22.2017 11.552 22.0165 11.4372 21.8708C11.3225 21.7251 11.1546 21.6309 10.9705 21.609L5.87085 20.9972C5.68672 20.975 5.5013 21.0269 5.35536 21.1413C5.20942 21.2557 5.11488 21.4235 5.09253 21.6076L5.01587 22.2487Z" fill="#1067AE"/>
<path d="M10.9704 21.6095L9.60156 21.4453C9.77041 21.4832 9.91919 21.5824 10.0192 21.7237C10.1191 21.8649 10.1632 22.0382 10.1428 22.2101L10.0611 22.8914L11.4997 23.0744L11.5822 22.3864C11.6041 22.2022 11.5519 22.0169 11.4372 21.8713C11.3224 21.7256 11.1545 21.6314 10.9704 21.6095Z" fill="#0A56A4"/>
</g>
<defs>
<clipPath id="clip0_2236_282">
<rect width="25" height="25" fill="white"/>
</clipPath>
</defs>
</svg>
