<svg width="20" height="20" viewBox="0 0 20 20" fill="none" xmlns="http://www.w3.org/2000/svg">
<path d="M11.2499 16.6667H8.74992C8.63941 16.6667 8.53343 16.7106 8.45529 16.7887C8.37715 16.8668 8.33325 16.9728 8.33325 17.0833C8.33325 17.1938 8.37715 17.2998 8.45529 17.378C8.53343 17.4561 8.63941 17.5 8.74992 17.5H11.2499C11.3604 17.5 11.4664 17.4561 11.5445 17.378C11.6227 17.2998 11.6666 17.1938 11.6666 17.0833C11.6666 16.9728 11.6227 16.8668 11.5445 16.7887C11.4664 16.7106 11.3604 16.6667 11.2499 16.6667ZM15.4166 0H4.58325C4.25173 0 3.93379 0.131696 3.69937 0.366116C3.46495 0.600537 3.33325 0.918479 3.33325 1.25V18.75C3.33325 19.0815 3.46495 19.3995 3.69937 19.6339C3.93379 19.8683 4.25173 20 4.58325 20H15.4166C15.7481 20 16.066 19.8683 16.3005 19.6339C16.5349 19.3995 16.6666 19.0815 16.6666 18.75V1.25C16.6666 0.918479 16.5349 0.600537 16.3005 0.366116C16.066 0.131696 15.7481 0 15.4166 0ZM15.8333 18.75C15.8333 18.8605 15.7894 18.9665 15.7112 19.0446C15.6331 19.1228 15.5271 19.1667 15.4166 19.1667H4.58325C4.47275 19.1667 4.36676 19.1228 4.28862 19.0446C4.21048 18.9665 4.16659 18.8605 4.16659 18.75V1.25C4.16659 1.13949 4.21048 1.03351 4.28862 0.955372C4.36676 0.877232 4.47275 0.833333 4.58325 0.833333H15.4166C15.5271 0.833333 15.6331 0.877232 15.7112 0.955372C15.7894 1.03351 15.8333 1.13949 15.8333 1.25V18.75ZM9.99992 5C8.85465 4.99768 7.74331 5.3886 6.85169 6.10739C5.96008 6.82618 5.34225 7.82928 5.10151 8.94896C4.86077 10.0686 5.01171 11.237 5.52909 12.2588C6.04646 13.2805 6.89892 14.0937 7.94393 14.5623C8.98894 15.0309 10.1631 15.1265 11.2702 14.8333C12.3773 14.54 13.3501 13.8755 14.0261 12.951C14.702 12.0265 15.0401 10.8979 14.9837 9.75405C14.9274 8.61017 14.4801 7.5203 13.7166 6.66667C13.2487 6.14359 12.676 5.72486 12.0357 5.43771C11.3953 5.15056 10.7017 5.00142 9.99992 5ZM11.8666 6.29167C12.0219 6.36819 12.1722 6.45447 12.3166 6.55L12.4999 6.66667L12.5583 6.70833L12.7166 6.85C12.51 6.95782 12.2955 7.04975 12.0749 7.125C12.0166 6.95833 11.9583 6.8 11.8916 6.64167V6.575C11.8265 6.43251 11.7542 6.29344 11.6749 6.15833L11.8666 6.29167ZM8.99992 6.75833V6.70833C9.05977 6.59595 9.12657 6.48741 9.19992 6.38333L9.32492 6.21667L9.42492 6.10833C9.49259 6.04115 9.56814 5.98239 9.64992 5.93333H9.70825C9.78778 5.88642 9.87842 5.86168 9.97075 5.86168C10.0631 5.86168 10.1537 5.88642 10.2333 5.93333H10.2916C10.3734 5.98239 10.4489 6.04115 10.5166 6.10833L10.6166 6.21667L10.7416 6.38333C10.8149 6.48742 10.8817 6.59596 10.9416 6.70833V6.75833C11.0413 6.95505 11.1276 7.1583 11.1999 7.36667C10.3742 7.52573 9.52566 7.52573 8.69992 7.36667C8.78842 7.15696 8.89145 6.95369 9.00825 6.75833H8.99992ZM6.66659 7.5C6.98283 7.68759 7.31803 7.84123 7.66659 7.95833C7.61659 8.2 7.57492 8.45 7.54159 8.71667V8.775C7.54159 9.04167 7.49159 9.31667 7.47492 9.60833H5.83325C5.91083 8.84204 6.19928 8.11225 6.66659 7.5ZM6.66659 12.5C6.20353 11.8948 5.9153 11.1742 5.83325 10.4167H7.49992C7.49992 10.7 7.49992 10.975 7.56659 11.25V11.3083C7.56659 11.5667 7.64158 11.825 7.69159 12.0667C7.33547 12.1742 6.99185 12.3195 6.66659 12.5ZM8.33325 13.7917L8.15825 13.7083C8.00295 13.6318 7.85265 13.5455 7.70825 13.45L7.45825 13.2667L7.29992 13.125C7.50653 13.0172 7.72104 12.9253 7.94159 12.85C7.99992 13.0167 8.05825 13.175 8.12492 13.3333V13.4C8.19 13.5425 8.26232 13.6816 8.34159 13.8167L8.33325 13.7917ZM8.16659 6.6V6.66667C8.09992 6.81667 8.03325 6.975 7.98325 7.15C7.76264 7.0749 7.54812 6.98296 7.34159 6.875L7.49992 6.73333L7.75825 6.55C7.89996 6.4548 8.04747 6.36852 8.19992 6.29167L8.29992 6.24167L8.33325 6.18333C8.26248 6.31895 8.19851 6.45801 8.14159 6.6H8.16659ZM11.0249 13.2667V13.3167C10.9651 13.429 10.8983 13.5376 10.8249 13.6417L10.6999 13.8083L10.5999 13.9167C10.5322 13.9839 10.4567 14.0426 10.3749 14.0917H10.3166C10.2371 14.1386 10.1464 14.1633 10.0541 14.1633C9.96175 14.1633 9.87111 14.1386 9.79159 14.0917H9.73325C9.65147 14.0426 9.57593 13.9839 9.50825 13.9167L9.40825 13.8083L9.28325 13.6417C9.20992 13.5376 9.14313 13.429 9.08325 13.3167V13.2667C8.98352 13.0699 8.89722 12.8667 8.82492 12.6583C9.65066 12.4993 10.4992 12.4993 11.3249 12.6583C11.2273 12.8602 11.1159 13.0551 10.9916 13.2417L11.0249 13.2667ZM11.6166 11.175C11.6166 11.4083 11.5499 11.625 11.5083 11.8417C10.5346 11.6464 9.53189 11.6464 8.55825 11.8417C8.51659 11.6333 8.47492 11.4083 8.44992 11.1833C8.37214 10.95 8.33325 10.6944 8.33325 10.4167H11.6666C11.6666 10.6944 11.6416 10.9389 11.5916 11.15L11.6166 11.175ZM8.33325 9.58333C8.33325 9.33333 8.3527 9.09167 8.39159 8.85833C8.39159 8.625 8.45825 8.40833 8.49992 8.2C8.72492 8.25 8.95825 8.29167 9.19159 8.31667C9.46042 8.33895 9.73039 8.34451 9.99992 8.33333C10.2618 8.33238 10.5234 8.31568 10.7833 8.28333C11.0166 8.28333 11.2499 8.21667 11.4749 8.175C11.5166 8.38333 11.5583 8.60833 11.5833 8.83333C11.611 9.06667 11.6305 9.30833 11.6416 9.55833L8.33325 9.58333ZM12.5499 13.2583L12.2916 13.4417C12.1499 13.5369 12.0024 13.6231 11.8499 13.7L11.7499 13.75L11.6249 13.8083C11.7042 13.6732 11.7765 13.5342 11.8416 13.3917V13.325C11.9083 13.175 11.9749 13.0167 12.0249 12.8417C12.2455 12.9168 12.4601 13.0087 12.6666 13.1167L12.5499 13.2583ZM13.3333 12.5C13.017 12.3124 12.6818 12.1588 12.3333 12.0417C12.3833 11.8 12.4249 11.55 12.4583 11.2833V11.225C12.4583 10.9583 12.5083 10.6833 12.5249 10.3917H14.1916C14.1067 11.1605 13.8095 11.8905 13.3333 12.5ZM12.4999 9.58333C12.4999 9.3 12.4999 9.025 12.4333 8.75V8.69167C12.4333 8.43333 12.3583 8.175 12.3083 7.93333C12.6644 7.82579 13.008 7.68052 13.3333 7.5C13.7991 8.10989 14.0875 8.83661 14.1666 9.6L12.4999 9.58333ZM7.08325 3.33333H12.9166C13.0271 3.33333 13.1331 3.28943 13.2112 3.21129C13.2894 3.13315 13.3333 3.02717 13.3333 2.91667C13.3333 2.80616 13.2894 2.70018 13.2112 2.62204C13.1331 2.5439 13.0271 2.5 12.9166 2.5H7.08325C6.97275 2.5 6.86676 2.5439 6.78862 2.62204C6.71048 2.70018 6.66659 2.80616 6.66659 2.91667C6.66659 3.02717 6.71048 3.13315 6.78862 3.21129C6.86676 3.28943 6.97275 3.33333 7.08325 3.33333Z" fill="#1C5579"/>
</svg>
