<svg width="20" height="19" viewBox="0 0 20 19" fill="none" xmlns="http://www.w3.org/2000/svg">
<g id="Ch&#196;&#131;m s&#195;&#179;c 1 1" clip-path="url(#clip0_5055_261)">
<g id="Layer_x0020_1">
<g id="_2687556282640">
<path id="Vector" fill-rule="evenodd" clip-rule="evenodd" d="M1.20704 9.59093C1.20704 7.91848 1.77582 5.98783 2.75236 4.67902C3.45229 3.74084 4.18961 2.90232 5.24363 2.27735C5.36141 2.20762 5.4605 2.14995 5.58217 2.07659C8.32383 0.419582 12.2931 0.567982 14.8444 2.44723C15.7546 3.1178 16.3496 3.61537 17.0386 4.60687C18.4616 6.65503 18.955 9.01688 18.4106 11.475C18.2862 12.0365 18.0936 12.6217 17.8736 13.0905C16.7071 15.5778 14.6054 17.3533 11.906 17.9896C10.5907 18.2997 9.32368 18.2934 8.00471 18.0051C6.67942 17.7153 5.01752 16.9026 4.08688 15.9876C3.98002 15.8826 3.90328 15.8037 3.79642 15.6975C3.42509 15.3286 2.85728 14.6775 2.58139 14.2184C1.72773 12.7969 1.20704 11.3044 1.20704 9.59117V9.59093ZM0.375 9.17758C0.375 10.8812 0.555203 12.1885 1.27626 13.6137C1.72336 14.4971 1.98978 14.948 2.60835 15.6792C3.55575 16.7988 4.53545 17.5025 5.85199 18.16C9.1022 19.7837 13.2755 19.1708 16.0699 16.8365C16.4903 16.4851 17.1443 15.8271 17.4772 15.3831C18.0215 14.6582 18.1264 14.484 18.5667 13.6137C20.2007 10.3843 19.5841 6.23782 17.2346 3.46142C16.2872 2.34178 15.3075 1.63815 13.991 0.980606C10.7408 -0.642864 6.56746 -0.0302019 3.77311 2.30414C3.35271 2.65547 2.69869 3.3135 2.36573 3.75749C1.26606 5.22194 0.375 7.17238 0.375 9.17758Z" fill="black"/>
<path id="Vector_2" d="M9.03521 4.67188V8.68764H4.99219H4.79219V8.88764V10.21V10.41H4.99219H9.03521V14.4257V14.6257H9.23521H10.6079H10.8079V14.4257V10.41H14.8091H15.0091V10.21V8.88764V8.68764H14.8091H10.8079V4.67188V4.47187H10.6079H9.23521H9.03521V4.67188Z" fill="black" stroke="black" stroke-width="0.4"/>
</g>
</g>
</g>
<defs>
<clipPath id="clip0_5055_261">
<rect width="19.1228" height="19" fill="white" transform="translate(0.439697)"/>
</clipPath>
</defs>
</svg>
