<svg width="20" height="20" viewBox="0 0 20 20" fill="none" xmlns="http://www.w3.org/2000/svg">
<path d="M16.4001 3.116V9.768C14.9741 8.962 13.1321 8.77 11.5121 9.294C11.0381 9.448 10.5881 9.658 10.1501 9.86C9.6021 10.114 9.0821 10.356 8.5361 10.486C7.3301 10.776 6.2061 10.472 5.2001 10.004V3.276C6.2401 3.708 7.4401 3.972 8.7221 3.664C9.3461 3.514 9.9261 3.246 10.4881 2.986C10.9221 2.784 11.3301 2.594 11.7581 2.456C13.3281 1.948 15.1261 2.208 16.4001 3.116ZM4.0001 1C3.89401 1 3.79227 1.04214 3.71726 1.11716C3.64224 1.19217 3.6001 1.29391 3.6001 1.4V18.6C3.6001 18.7061 3.64224 18.8078 3.71726 18.8828C3.79227 18.9579 3.89401 19 4.0001 19C4.10618 19 4.20793 18.9579 4.28294 18.8828C4.35795 18.8078 4.4001 18.7061 4.4001 18.6V1.4C4.4001 1.18 4.2201 1 4.0001 1Z" fill="#01AB84"/>
</svg>
