<svg width="25" height="25" viewBox="0 0 25 25" fill="none" xmlns="http://www.w3.org/2000/svg">
<path d="M5.00879 2.76172H11.102V5.05755H5.00879V2.76172Z" fill="#85C5DD"/>
<path d="M11.1025 5.05599V3.28516H6.71504C6.40548 3.28516 6.1086 3.40813 5.88971 3.62702C5.67082 3.84591 5.54785 4.14279 5.54785 4.45234V5.05599H11.1025Z" fill="#95CFE1"/>
<path d="M12.9001 4.92578H3.21154C2.03909 4.92578 1.08862 5.87624 1.08862 7.0487V19.2398C1.08862 20.4123 2.03909 21.3628 3.21154 21.3628H12.9001C14.0725 21.3628 15.023 20.4123 15.023 19.2398V7.0487C15.023 5.87624 14.0725 4.92578 12.9001 4.92578Z" fill="#C1EAFE"/>
<path d="M12.9 4.92578H3.21146C3.13469 4.92933 3.05819 4.93716 2.98229 4.94922C2.76973 5.28522 2.65669 5.67455 2.65625 6.07214V18.2628C2.65625 18.8258 2.87991 19.3658 3.27804 19.7639C3.67616 20.162 4.21613 20.3857 4.77917 20.3857H14.4667C14.5434 20.3823 14.6199 20.3746 14.6958 20.3628C14.9089 20.0269 15.0225 19.6376 15.0234 19.2398V7.04922C15.0235 6.77035 14.9686 6.49419 14.8619 6.23653C14.7552 5.97887 14.5988 5.74476 14.4016 5.54757C14.2045 5.35038 13.9703 5.19397 13.7127 5.08728C13.455 4.98059 13.1789 4.92571 12.9 4.92578Z" fill="#D2F0FB"/>
<path d="M1.08862 9.1875H15.023V17.8896H1.08862V9.1875Z" fill="#85C5DD"/>
<path d="M2.65479 9.1875H15.023V17.8896H2.65479V9.1875Z" fill="#95CFE1"/>
<path d="M3.61157 0.390625H12.5001V2.89427H3.61157V0.390625Z" fill="#C1EAFE"/>
<path d="M5.69022 2.3026H12.5001V0.390625H4.38501V0.997396C4.38501 1.34356 4.52252 1.67554 4.7673 1.92032C5.01207 2.16509 5.34406 2.3026 5.69022 2.3026Z" fill="#D2F0FB"/>
<path d="M10.7798 19.2944L6.65202 20.9373C6.10976 21.1532 5.84514 21.7677 6.06097 22.31L6.06116 22.3105C6.277 22.8527 6.89156 23.1173 7.43382 22.9015L11.5616 21.2585C12.1038 21.0427 12.3685 20.4281 12.1526 19.8859L12.1524 19.8854C11.9366 19.3431 11.322 19.0785 10.7798 19.2944Z" fill="#F5E17B"/>
<path d="M10.7812 19.2928L6.652 20.9365C6.56002 20.9736 6.4736 21.0232 6.39523 21.0839C6.28783 21.3389 6.28521 21.626 6.38794 21.8829C6.43929 22.0117 6.51553 22.1292 6.6123 22.2286C6.70907 22.328 6.82447 22.4074 6.95191 22.4622C7.07935 22.517 7.21634 22.5461 7.35505 22.548C7.49376 22.5498 7.63148 22.5244 7.76033 22.473L11.8885 20.8324C11.9805 20.7957 12.067 20.7462 12.1452 20.6855C12.2527 20.4303 12.2553 20.1431 12.1525 19.886C12.0492 19.6256 11.8467 19.4169 11.5896 19.3057C11.3325 19.1944 11.0417 19.1898 10.7812 19.2928Z" fill="#F5E79A"/>
<path d="M10.7813 19.2936L8.71777 20.1149L9.49902 22.079L11.5626 21.2576C11.823 21.154 12.0316 20.9512 12.1426 20.6938C12.2535 20.4364 12.2576 20.1454 12.154 19.885C12.0504 19.6245 11.8476 19.4159 11.5901 19.305C11.3327 19.1941 11.0418 19.19 10.7813 19.2936Z" fill="#E75457"/>
<path d="M10.7813 19.2956L8.71777 20.117L9.39486 21.8253L11.8886 20.8352C11.9807 20.7986 12.0671 20.7491 12.1454 20.6883C12.2259 20.4964 12.248 20.2848 12.2088 20.0804C12.1696 19.8759 12.0708 19.6875 11.9249 19.539C11.779 19.3904 11.5925 19.2883 11.3888 19.2454C11.185 19.2024 10.9732 19.2207 10.7798 19.2977L10.7813 19.2956Z" fill="#F06963"/>
<path d="M16.8515 22.4961H12.4088C11.8252 22.4961 11.3521 22.9692 11.3521 23.5529V23.5534C11.3521 24.137 11.8252 24.6102 12.4088 24.6102H16.8515C17.4352 24.6102 17.9083 24.137 17.9083 23.5534V23.5529C17.9083 22.9692 17.4352 22.4961 16.8515 22.4961Z" fill="#F5E17B"/>
<path d="M16.8515 22.4961H12.4088C12.3096 22.4961 12.2108 22.5101 12.1156 22.5378C11.9216 22.735 11.8131 23.0007 11.8135 23.2773C11.8134 23.4162 11.8407 23.5536 11.8938 23.6819C11.9468 23.8102 12.0247 23.9267 12.1228 24.0249C12.221 24.1231 12.3375 24.201 12.4657 24.2541C12.594 24.3073 12.7314 24.3346 12.8702 24.3346H17.3124C17.4117 24.3347 17.5104 24.3207 17.6057 24.293C17.7999 24.0956 17.9086 23.8298 17.9083 23.5529C17.9081 23.2726 17.7968 23.0039 17.5986 22.8058C17.4004 22.6076 17.1317 22.4962 16.8515 22.4961Z" fill="#F5E79A"/>
<path d="M16.8515 22.4961H14.6301V24.6102H16.8515C17.1278 24.604 17.3907 24.49 17.5839 24.2924C17.7771 24.0948 17.8853 23.8295 17.8853 23.5531C17.8853 23.2768 17.7771 23.0114 17.5839 22.8138C17.3907 22.6163 17.1278 22.5022 16.8515 22.4961Z" fill="#E75457"/>
<path d="M16.8515 22.4961H14.6301V24.3346H17.3124C17.4116 24.3347 17.5104 24.3207 17.6056 24.293C17.7514 24.1444 17.8501 23.9561 17.8892 23.7517C17.9284 23.5472 17.9063 23.3358 17.8257 23.1439C17.7452 22.952 17.6098 22.7881 17.4364 22.6729C17.2631 22.5576 17.0596 22.4961 16.8515 22.4961Z" fill="#F06963"/>
<path d="M21.9803 24.6086C23.0469 24.6086 23.9116 23.7439 23.9116 22.6773C23.9116 21.6107 23.0469 20.7461 21.9803 20.7461C20.9137 20.7461 20.0491 21.6107 20.0491 22.6773C20.0491 23.7439 20.9137 24.6086 21.9803 24.6086Z" fill="#E5AE4C"/>
<path d="M20.5301 19.4055C21.5967 19.4055 22.4614 18.5408 22.4614 17.4742C22.4614 16.4076 21.5967 15.543 20.5301 15.543C19.4635 15.543 18.5989 16.4076 18.5989 17.4742C18.5989 18.5408 19.4635 19.4055 20.5301 19.4055Z" fill="#E5AE4C"/>
<path d="M23.4308 21.4048C23.182 21.1218 22.8559 20.9178 22.4925 20.8179C22.1292 20.7179 21.7446 20.7264 21.3861 20.8423C21.3188 20.8875 21.2546 20.9371 21.1939 20.9907C20.8603 21.284 20.638 21.6833 20.5644 22.1214C20.4909 22.5595 20.5706 23.0095 20.7901 23.3956C21.0096 23.7818 21.3556 24.0805 21.7696 24.2413C22.1836 24.4022 22.6405 24.4154 23.0631 24.2788C23.1302 24.2332 23.1943 24.1837 23.2553 24.1303C23.64 23.7922 23.8746 23.315 23.9075 22.8039C23.9405 22.2928 23.769 21.7895 23.4308 21.4048ZM22.448 17.272C22.421 17.0198 22.3446 16.7755 22.2231 16.5528C22.1017 16.3302 21.9375 16.1337 21.7401 15.9745C21.5427 15.8154 21.3158 15.6966 21.0725 15.6252C20.8292 15.5537 20.5741 15.5308 20.322 15.5579C20.1895 15.5722 20.0588 15.5999 19.9319 15.6407C19.5458 15.9014 19.2668 16.2929 19.1466 16.743C19.0263 17.1931 19.0727 17.6715 19.2773 18.0901C19.4819 18.5087 19.8308 18.8392 20.2599 19.0208C20.689 19.2024 21.1692 19.2228 21.6121 19.0782C21.9024 18.8815 22.1336 18.6094 22.2809 18.2912C22.4282 17.973 22.486 17.6206 22.448 17.272Z" fill="#E5B859"/>
<path d="M22.4599 17.5286C22.4626 17.4417 22.4593 17.3547 22.45 17.2682C22.4408 17.1805 22.4254 17.0935 22.4042 17.0078L18.6021 17.4214C18.5997 17.5072 18.603 17.5932 18.612 17.6786C18.6213 17.7655 18.6366 17.8517 18.6578 17.9365L22.4599 17.5286Z" fill="#E58332"/>
<path d="M22.4479 17.2721C22.4387 17.1844 22.4234 17.0974 22.4021 17.0117L19.0896 17.3716C19.0896 17.3956 19.0917 17.4195 19.0959 17.4435C19.1121 17.5929 19.1457 17.7399 19.1958 17.8815L22.4583 17.5294C22.4605 17.4435 22.457 17.3576 22.4479 17.2721Z" fill="#E59B43"/>
<path d="M5.68335 12.5654H7.09637V11.1523H9.01512V12.5654H10.4281V14.4841H9.01512V15.8971H7.09637V14.4841H5.68335V12.5654Z" fill="#C1EAFE"/>
<path d="M23.2427 21.2188L20.3708 23.7464C20.4192 23.8193 20.4725 23.8889 20.5302 23.9547C20.5875 24.0199 20.6491 24.0812 20.7146 24.138L23.5875 21.6094C23.54 21.5378 23.4878 21.4694 23.4313 21.4047C23.3729 21.3383 23.3099 21.2762 23.2427 21.2188Z" fill="#E58332"/>
<path d="M23.4307 21.4047C23.3725 21.3383 23.3097 21.2762 23.2427 21.2188L20.7812 23.3839C20.8478 23.5025 20.9265 23.6139 21.0161 23.7161C21.0417 23.7453 21.0682 23.7734 21.0958 23.8005L23.5849 21.6094C23.5383 21.5377 23.4867 21.4693 23.4307 21.4047Z" fill="#E59B43"/>
<path d="M18.0818 19.7483L14.5706 17.0264C14.1093 16.6688 13.4455 16.7528 13.0879 17.2141L13.0876 17.2145C12.73 17.6758 12.8141 18.3396 13.2753 18.6972L16.7866 21.4191C17.2478 21.7767 17.9116 21.6926 18.2692 21.2314L18.2695 21.2309C18.6271 20.7697 18.5431 20.1059 18.0818 19.7483Z" fill="#F5E17B"/>
<path d="M18.0817 19.7477L14.5708 17.0258C14.4925 16.965 14.406 16.9156 14.314 16.8789C14.0397 16.9161 13.7909 17.0596 13.6213 17.2784C13.4496 17.5001 13.373 17.7808 13.4083 18.059C13.4436 18.3371 13.5878 18.5899 13.8093 18.7617L17.3202 21.4831C17.3985 21.5438 17.485 21.5933 17.577 21.6299C17.8515 21.5931 18.1004 21.4496 18.2697 21.2305C18.3547 21.1208 18.4173 20.9954 18.4539 20.8615C18.4905 20.7276 18.5003 20.5878 18.4829 20.4501C18.4654 20.3124 18.421 20.1795 18.3522 20.059C18.2833 19.9385 18.1914 19.8327 18.0817 19.7477Z" fill="#F5E79A"/>
<path d="M18.0818 19.7487L16.3266 18.3867L15.0312 20.0586L16.7865 21.4195C16.8958 21.508 17.0218 21.5738 17.1569 21.613C17.292 21.6522 17.4336 21.6641 17.5734 21.6479C17.7132 21.6317 17.8483 21.5877 17.9708 21.5186C18.0934 21.4495 18.2009 21.3566 18.2871 21.2454C18.3733 21.1342 18.4365 21.0069 18.4729 20.871C18.5093 20.7351 18.5181 20.5933 18.499 20.4539C18.4799 20.3145 18.4331 20.1803 18.3615 20.0592C18.2898 19.9381 18.1947 19.8326 18.0818 19.7487Z" fill="#E75457"/>
<path d="M18.0817 19.7487L16.3265 18.3867L15.2 19.8398L17.3203 21.4831C17.3986 21.5438 17.485 21.5933 17.577 21.6299C17.7833 21.6018 17.9766 21.5134 18.1328 21.3758C18.289 21.2382 18.4011 21.0576 18.455 20.8565C18.5089 20.6555 18.5022 20.443 18.4358 20.2457C18.3694 20.0485 18.2462 19.8752 18.0817 19.7477V19.7487Z" fill="#F06963"/>
</svg>
