<svg width="25" height="25" viewBox="0 0 25 25" fill="none" xmlns="http://www.w3.org/2000/svg">
<path d="M21.1929 2.28219V10.559C21.1929 10.9535 20.8755 11.2709 20.481 11.2709H5.05956C4.665 11.2709 4.34766 10.9535 4.34766 10.559V2.28219C4.34766 1.88766 4.665 1.57031 5.05956 1.57031H20.481C20.8755 1.57031 21.1929 1.88766 21.1929 2.28219Z" fill="#70C493"/>
<path d="M21.1928 3.28906H4.34766V5.19298H21.1928V3.28906Z" fill="#3F5176"/>
<path opacity="0.1" d="M21.1924 2.28025V10.557C21.1924 10.9516 20.8751 11.2689 20.4805 11.2689H5.05908C4.7932 11.2689 4.56589 11.1274 4.4458 10.913C18.1947 9.66932 20.6091 4.3044 20.9694 1.76562C21.1066 1.88998 21.1924 2.07441 21.1924 2.28025Z" fill="#010101"/>
<path d="M23.2314 7.44311V19.8892C23.2314 20.5411 22.702 21.0656 22.0549 21.0656H3.48629C2.83923 21.0656 2.30981 20.5411 2.30981 19.8892V7.44311C2.30981 6.79114 2.83924 6.26172 3.48629 6.26172H22.0549C22.5206 6.26172 22.9226 6.53623 23.1137 6.92841C23.1873 7.08037 23.2314 7.25683 23.2314 7.44311Z" fill="#F9A67B"/>
<path opacity="0.1" d="M23.2314 7.44439V19.8905C23.2314 20.5424 22.702 21.0669 22.0549 21.0669H4.36865C13.5108 17.1356 19.9912 10.5865 23.1137 6.92969C23.1873 7.08165 23.2314 7.25812 23.2314 7.44439Z" fill="#010101"/>
<path d="M23.7151 15.6561H20.2853C20.0934 15.6561 19.9153 15.556 19.8156 15.3921L18.9394 13.9517C18.8327 13.7761 18.8327 13.5558 18.9394 13.3803L19.8156 11.9398C19.9153 11.7759 20.0934 11.6758 20.2853 11.6758H23.7151C24.0187 11.6758 24.2648 11.9219 24.2648 12.2255V15.1064C24.2648 15.41 24.0187 15.6561 23.7151 15.6561Z" fill="#3F5176"/>
<path d="M21.6533 13.6635C21.6533 14.1009 21.2965 14.4578 20.8591 14.4578C20.4216 14.4578 20.0706 14.1009 20.0706 13.6635C20.0706 13.2261 20.4216 12.875 20.8591 12.875C21.2965 12.875 21.6533 13.2261 21.6533 13.6635Z" fill="white"/>
<path d="M6.6177 23.4288C9.86644 23.4288 12.5001 20.7951 12.5001 17.5464C12.5001 14.2977 9.86644 11.6641 6.6177 11.6641C3.36897 11.6641 0.735352 14.2977 0.735352 17.5464C0.735352 20.7951 3.36897 23.4288 6.6177 23.4288Z" fill="#F5C560"/>
<path opacity="0.1" d="M12.5001 17.545C12.5001 20.7921 9.8648 23.4273 6.6178 23.4273C4.79193 23.4273 3.15899 22.5944 2.07666 21.2862C3.08842 22.1144 4.39192 22.6132 5.80367 22.6132C9.0507 22.6132 11.686 19.978 11.686 16.7309C11.686 15.3192 11.1871 14.0156 10.3589 13.0039C11.6671 14.0862 12.5001 15.7192 12.5001 17.545Z" fill="#010101"/>
<path d="M23.7204 11.1844V7.44014C23.7204 6.52079 22.9727 5.77281 22.0531 5.77281H21.6826V2.28016C21.6826 1.59234 21.1198 1.07812 20.4805 1.07812H5.05899C4.39599 1.07812 3.85696 1.61739 3.85696 2.28016V5.77281H3.4874C2.5678 5.77281 1.81959 6.52079 1.81959 7.44014V13.3666C0.842215 14.4869 0.245117 15.9469 0.245117 17.5468C0.245117 21.0608 3.10396 23.9194 6.61767 23.9194C8.61307 23.9194 10.3955 22.9961 11.5648 21.5558H22.0531C22.9727 21.5558 23.7204 20.8078 23.7204 19.8882V16.1442C24.2915 16.1412 24.7549 15.6764 24.7549 15.1047V12.2239C24.7549 11.6522 24.2915 11.1873 23.7204 11.1844ZM4.83735 2.28015C4.83735 2.15593 4.93453 2.05851 5.05899 2.05851H20.4805C20.5808 2.05851 20.7022 2.14025 20.7022 2.28015V5.7728H4.83735V2.28015ZM6.61767 22.939C3.64442 22.939 1.22551 20.5201 1.22551 17.5468C1.22551 14.5738 3.64442 12.1549 6.61767 12.1549C9.59092 12.1549 12.0098 14.5738 12.0098 17.5468C12.0098 20.5201 9.59092 22.939 6.61767 22.939ZM22.0531 20.5754H12.2231C12.7121 19.674 12.9902 18.6424 12.9902 17.5468C12.9902 14.0331 10.1314 11.1745 6.61767 11.1745C5.1849 11.1745 3.86555 11.6556 2.79998 12.4568V7.44014C2.79998 7.06124 3.10826 6.75319 3.4874 6.75319H22.0531C22.4318 6.75319 22.74 7.06124 22.74 7.44014V11.1839H20.2852C19.9243 11.1839 19.5839 11.3754 19.3967 11.6834L18.5207 13.1236C18.3177 13.457 18.3177 13.8713 18.5207 14.2045L19.3967 15.6447C19.5839 15.9532 19.9243 16.1447 20.2852 16.1447H22.74V19.8882C22.74 20.2671 22.4318 20.5754 22.0531 20.5754ZM23.7745 15.1047C23.7745 15.1375 23.7477 15.1643 23.7152 15.1643H20.2852C20.2647 15.1643 20.2455 15.1533 20.2345 15.1356L19.3585 13.6949C19.347 13.676 19.347 13.6523 19.3585 13.6332L20.2345 12.1925C20.245 12.175 20.2646 12.1643 20.2852 12.1643H23.7152C23.7477 12.1643 23.7745 12.1911 23.7745 12.2239V15.1047Z" fill="#2A3D66"/>
<path d="M6.61763 21.5468C4.41193 21.5468 2.61768 19.7523 2.61768 17.5468C2.61768 15.3413 4.41193 13.5469 6.61763 13.5469C8.82334 13.5469 10.6176 15.3413 10.6176 17.5468C10.6176 19.7523 8.82334 21.5468 6.61763 21.5468Z" fill="#F4BA42"/>
<path d="M7.75023 17.4377C7.99342 17.5392 8.1983 17.6898 8.36585 17.8899C8.53292 18.0902 8.6167 18.3573 8.6167 18.6917C8.6167 18.9653 8.54297 19.2096 8.39601 19.4251C8.24904 19.6405 8.04129 19.814 7.77273 19.9457C7.50418 20.0775 7.19015 20.1534 6.83064 20.1738V20.7664C6.83064 20.8171 6.81388 20.8576 6.78133 20.888C6.7483 20.9184 6.70617 20.9337 6.65591 20.9337C6.60516 20.9337 6.56447 20.9184 6.53431 20.888C6.50367 20.8576 6.48836 20.8171 6.48836 20.7664V20.1738C5.90577 20.1481 5.36387 20.0268 4.86219 19.8087C4.8014 19.7836 4.75066 19.7444 4.70996 19.691C4.66975 19.6379 4.64917 19.5783 4.64917 19.5124C4.64917 19.4263 4.67837 19.3528 4.73677 19.292C4.79517 19.2312 4.86985 19.2008 4.96081 19.2008C5.01155 19.2008 5.0599 19.2111 5.10538 19.2312C5.51563 19.4136 5.97662 19.5124 6.48836 19.5277V17.7872C6.1188 17.6912 5.81195 17.5909 5.56876 17.487C5.32558 17.3834 5.12069 17.2338 4.95315 17.0387C4.78608 16.8436 4.70278 16.5892 4.70278 16.2749C4.70278 16.0013 4.77076 15.7505 4.90767 15.5224C5.04458 15.2945 5.24707 15.1095 5.51563 14.9678C5.78418 14.8259 6.10874 14.7447 6.48836 14.7244V14.1318C6.48836 14.081 6.50368 14.0394 6.53432 14.0063C6.56447 13.9733 6.60517 13.957 6.65591 13.957C6.70617 13.957 6.7483 13.9733 6.78133 14.0063C6.81389 14.0394 6.83064 14.081 6.83064 14.1318V14.717C7.31701 14.7321 7.76795 14.8156 8.18347 14.9678C8.32517 15.0183 8.39601 15.1198 8.39601 15.2718C8.39601 15.3527 8.36825 15.425 8.31272 15.4884C8.25671 15.5516 8.18347 15.5832 8.09203 15.5832C8.06188 15.5832 8.02118 15.5731 7.97044 15.5528C7.6004 15.4212 7.22078 15.3527 6.83064 15.3477V17.1565C7.2002 17.2426 7.50705 17.3365 7.75023 17.4377ZM5.66786 16.7536C5.85503 16.8752 6.12885 16.9817 6.48836 17.0729V15.363C6.15901 15.3934 5.89333 15.4834 5.69036 15.6328C5.48786 15.7821 5.38638 15.9786 5.38638 16.2218C5.38638 16.4547 5.4802 16.6321 5.66786 16.7536ZM7.93262 18.646C7.93262 18.4485 7.84023 18.2939 7.65497 18.1826C7.47019 18.0711 7.19541 17.9672 6.83064 17.871V19.5201C7.56497 19.4696 7.93262 19.1781 7.93262 18.646Z" fill="white"/>
</svg>
