<svg width="21" height="20" viewBox="0 0 21 20" fill="none" xmlns="http://www.w3.org/2000/svg" color="black">
<path id="Vector" fill-rule="evenodd" clip-rule="evenodd" d="M17.9848 11.162H19.5805V12.8694H17.6985C17.4942 12.8694 17.2621 12.6769 17.155 12.5557C16.8083 12.1636 16.896 11.162 17.9848 11.162ZM17.6985 13.7638H19.5805V16.6906C19.5805 17.4503 19.0559 18.0726 18.3532 18.0726H2.47878C1.97951 18.0726 1.63822 17.7612 1.43831 17.4397C1.19877 17.0546 1.25144 16.5133 1.25144 15.9182V5.75563C1.66072 5.85037 1.47896 5.96188 2.23336 5.95908H18.1487C18.6308 5.95908 18.9002 5.92682 19.2068 6.12748C19.4568 6.29106 19.5808 6.57097 19.5808 6.97534V10.2679H17.985C16.9257 10.2679 16.2385 10.8687 16.0887 11.8824C15.954 12.7945 16.8076 13.7638 17.6987 13.7638H17.6985ZM14.3437 2.17828C14.4922 2.48588 15.2494 4.76782 15.4074 5.06449H6.40647C6.53148 4.95654 9.94636 3.77392 10.3513 3.61821C10.6964 3.48562 11.005 3.39749 11.345 3.26388C11.5142 3.19733 11.6533 3.15542 11.8243 3.08964L13.8378 2.3665C13.9894 2.3157 14.2192 2.23772 14.3439 2.17828H14.3437ZM15.7346 3.3571C16.5368 3.3571 17.8212 3.13231 17.8212 4.25144V5.06449H16.4302C16.3108 5.06449 16.3287 5.01522 16.2863 4.92301L16.0463 4.26718C15.9627 4.02741 15.7625 3.57199 15.7346 3.3571ZM3.62431 5.06449H1.98769C1.26294 5.06449 0.913988 3.75004 1.81129 3.42593C2.12139 3.31392 3.18742 3.35735 3.58315 3.35735C5.19243 3.35735 6.8017 3.35735 8.41097 3.35735C8.36828 3.39444 8.41378 3.3731 8.31203 3.42187L7.86185 3.58418C7.29074 3.80363 3.82576 5.06475 3.62406 5.06475L3.62431 5.06449ZM0.351318 4.45489V16.4874C0.351318 17.2824 0.521321 17.7846 0.895071 18.2235C1.19162 18.5717 1.80593 18.967 2.43787 18.967H18.3941C19.026 18.967 19.6406 18.5717 19.9369 18.2235C20.3086 17.7871 20.4806 17.2761 20.4806 16.4874V7.05637C20.4806 5.91717 19.8648 5.15898 18.7216 5.06449C18.7216 4.15619 18.8215 3.42009 17.9978 2.81608C17.3237 2.32179 16.294 2.46276 15.3665 2.46276C15.3509 2.27785 15.2768 2.17371 15.218 2.00074C15.0965 1.64361 15.028 1.31214 14.7762 1.21715C14.5758 1.14145 14.5083 1.19352 14.3184 1.25829L11.1655 2.39444C10.8255 2.53236 8.65587 2.46276 8.16581 2.46276C6.52918 2.46276 4.89281 2.46276 3.25619 2.46276C2.34635 2.46276 1.66788 2.39926 1.12771 2.78712C0.634826 3.14095 0.351318 3.61466 0.351318 4.45464V4.45489Z" fill="currentColor"/>
</svg>
