<svg width="23" height="22" viewBox="0 0 23 22" fill="none" xmlns="http://www.w3.org/2000/svg">
<g id="Thanh to&#195;&#161;n 1" clip-path="url(#clip0_5055_103)">
<g id="Layer_x0020_1">
<g id="_2687334451840">
<path id="Vector" fill-rule="evenodd" clip-rule="evenodd" d="M17.0995 17.9828C17.0995 17.2569 16.6943 16.9325 16.4604 16.5855C17.5678 16.0032 19.05 14.9188 19.9293 14.5707C20.559 14.3212 20.7572 14.2569 21.4459 14.2569C21.4175 14.5956 21.2597 14.6928 21.1051 14.892C20.6875 15.4304 17.4235 17.8967 17.0995 17.9828ZM22.341 13.5087V13.7462C22.3182 13.9074 22.2538 14.0695 22.1781 14.222C22.0898 14.4003 22.1402 14.4402 22.0598 14.6973C21.8691 15.3072 20.2043 16.6196 19.5472 17.1121C19.2972 17.2993 19.084 17.4555 18.8408 17.638C18.6037 17.8157 18.3594 17.9847 18.122 18.1518C17.8869 18.3175 17.6667 18.4678 17.4148 18.6346C17.1954 18.7799 16.8574 18.9729 16.6839 19.1361C16.5315 19.2795 16.5248 19.3043 16.3079 19.3979C16.0225 19.5214 14.2099 20.6488 13.6053 20.9466C12.9306 21.2791 11.6669 21.9201 10.9203 21.9201C9.39812 21.9201 6.24242 20.3261 4.71687 19.7005C4.10468 19.4496 2.19444 18.4955 1.58816 18.1943C1.12417 17.9638 0.522949 17.7752 0.522949 17.4321C0.522949 17.2845 0.715295 17.0934 0.863772 17.0934L7.71229 20.2386C8.02443 20.3613 8.32673 20.4918 8.62565 20.6013C9.11186 20.7798 10.0182 21.1087 10.5058 21.1889C11.4166 21.3386 12.5378 20.7435 13.2926 20.3395L14.8831 19.4644C14.7726 19.3144 14.9165 19.4267 14.7191 19.3733C14.6547 19.3557 14.5917 19.3473 14.5082 19.3289C13.9163 19.1979 13.0999 18.9201 12.6643 18.8324C12.4144 18.7818 12.1343 18.7025 11.8576 18.7025C10.4706 18.7025 9.43721 18.7466 8.08911 18.9811C7.89339 19.0151 7.42574 19.1202 7.42574 18.6603C7.42574 18.2971 7.93219 18.2946 8.24124 18.2429C8.99431 18.1171 10.8157 17.9593 11.5606 17.9816C13.3083 18.0339 14.1621 18.7874 15.8203 18.7874C16.1215 18.7874 16.3743 18.4533 16.3743 18.1099C16.3743 17.389 15.9986 17.0395 15.3378 16.6844C14.4649 16.2153 12.7346 15.9378 11.6855 15.8677C9.80447 15.7417 10.0879 15.7185 8.6608 14.9775C7.38271 14.3139 6.39343 13.977 4.93649 13.6819C4.03551 13.4998 2.54455 13.3436 1.57579 13.5258C1.36123 13.566 1.13232 13.6646 0.948415 13.6646C0.553882 13.6646 0.422277 13.1374 0.930418 12.9692C1.0893 12.9167 1.2628 12.8672 1.4349 12.8354C2.70174 12.6026 4.51974 12.827 5.71291 13.122C6.55962 13.3316 7.96959 13.7934 8.68611 14.1902C9.45184 14.614 9.93073 14.9761 10.7066 15.0616C10.875 15.0801 12.634 15.2756 12.7538 15.2329C12.9284 15.1709 13.335 14.9457 13.5195 14.8504L15.7773 13.6643C16.2222 13.4481 16.8012 13.2927 17.2854 13.521C17.4387 13.5931 17.5236 13.6297 17.5672 13.7915C17.9465 13.7037 19.1487 12.6484 20.3795 12.6484C20.9622 12.6484 21.7209 12.7334 22.1244 13.1164C22.2527 13.238 22.3176 13.3712 22.3398 13.5093L22.341 13.5087ZM14.3299 15.5271L13.905 15.4768C14.0029 15.3377 14.0431 15.3533 14.2023 15.2731L15.5515 14.5391C15.7157 14.4514 16.5565 14.0874 16.7163 14.0874C16.8718 14.0874 16.8178 14.1253 17.0146 14.1298C16.8948 14.2922 15.9581 14.7596 15.7222 14.8781C15.6187 14.9297 14.3308 15.5274 14.3302 15.5271H14.3299ZM21.4886 13.5372L21.5013 13.5498C21.5004 13.5489 21.4844 13.5414 21.4886 13.5372ZM15.7784 16.12C15.653 16.0364 15.5 15.9238 15.3097 15.9082V15.8235C16.236 15.6092 18.6228 13.88 19.6189 13.5001C20.1259 13.3064 20.7038 13.2925 21.244 13.4414C21.3849 13.4802 21.3511 13.4553 21.4459 13.5372C20.3199 13.5372 19.2384 14.027 18.3773 14.5953C17.4063 15.236 17.0605 15.4265 16.16 15.9487C16.0464 16.0147 15.9182 16.0876 15.7784 16.12Z" fill="black"/>
<path id="Vector_2" fill-rule="evenodd" clip-rule="evenodd" d="M5.80715 6.25405V5.78829C5.80715 4.15687 6.72501 2.92332 7.6724 2.09545C8.19376 1.64003 9.06578 1.23043 9.75249 1.07145C11.2592 0.722756 12.5024 1.0396 13.731 1.76799C14.2023 2.04739 14.6992 2.54305 15.0299 2.97556C15.592 3.71039 16.0338 4.76904 16.0338 5.7461C16.0338 6.72987 16.0012 7.34092 15.5369 8.25847C15.0105 9.29896 14.1784 10.1768 13.0929 10.6568C11.6712 11.2855 10.1709 11.2874 8.74745 10.6568C8.47328 10.5353 8.21879 10.3651 7.97104 10.2006L7.34507 9.67922C6.44465 8.82286 5.80687 7.52365 5.80687 6.25405H5.80715ZM5.08276 5.91542C5.08276 7.5893 5.67639 9.02263 6.79756 10.1391C6.93479 10.276 7.03856 10.3445 7.18141 10.4775C7.30177 10.5892 7.45587 10.6923 7.59001 10.7912C8.84981 11.7208 10.6931 12.041 12.208 11.6825C13.2814 11.4285 14.2712 10.9077 15.0442 10.1397C15.4787 9.708 15.9846 9.00139 16.2231 8.4317C16.5512 7.64742 16.7588 6.96792 16.7588 6.04254C16.7588 2.82022 14.0229 0.242188 11.0913 0.242188C9.71846 0.242188 8.62879 0.563498 7.5796 1.28323C7.27196 1.49446 7.05515 1.6906 6.79813 1.94625C6.54335 2.19939 6.35382 2.40894 6.14826 2.69784C5.54844 3.54191 5.08276 4.75395 5.08276 5.91542Z" fill="black"/>
<path id="Vector_3" fill-rule="evenodd" clip-rule="evenodd" d="M10.5797 3.41561C10.4968 3.45528 10.4534 3.45472 10.355 3.48853C10.1258 3.5676 9.89075 3.6992 9.71696 3.87075C9.4785 4.10656 9.3438 4.4913 9.3438 4.85508C9.3438 5.55665 9.91634 5.90507 10.4096 6.12468C10.8443 6.3183 11.722 6.5583 11.9225 6.95114C12.0718 7.24339 11.8831 7.59572 11.6958 7.7424C11.3103 8.04472 10.0449 8.19783 9.86263 7.13331C9.81033 6.82849 9.72399 6.80222 9.42873 6.80222C9.03701 6.80222 9.09381 7.75023 9.61067 8.18777C9.80864 8.35541 10.2445 8.61525 10.5791 8.62252C10.5791 8.9089 10.5035 9.34225 10.92 9.34225C11.2948 9.34225 11.2608 9.03435 11.2608 8.66498C11.657 8.57334 11.9602 8.45823 12.2293 8.23024C12.7484 7.79046 12.867 6.76813 12.272 6.26326C12.044 6.06991 11.8184 5.94251 11.5226 5.82236C11.1106 5.655 10.0676 5.34068 10.0676 4.89699V4.72767C10.0676 4.08449 11.3896 3.82102 11.7985 4.44743C11.9303 4.64916 11.8454 5.15096 12.2411 5.15096C12.9837 5.15096 12.4899 3.41505 11.2611 3.41505C11.2611 3.13677 11.3252 2.69531 10.9202 2.69531C10.4872 2.69531 10.5794 3.18873 10.5794 3.41505L10.5797 3.41561Z" fill="black"/>
</g>
</g>
</g>
<defs>
<clipPath id="clip0_5055_103">
<rect width="22.1422" height="22" fill="white" transform="translate(0.444092)"/>
</clipPath>
</defs>
</svg>
