<svg width="25" height="25" viewBox="0 0 25 25" fill="none" xmlns="http://www.w3.org/2000/svg">
<path d="M17.4607 22.7713H2.38214C1.70356 22.7713 1.15356 22.2213 1.15356 21.5427V3.0606C1.15356 2.38203 1.70356 1.83203 2.38214 1.83203H17.4607C18.1393 1.83203 18.6893 2.38203 18.6893 3.0606V21.5392C18.6929 22.2213 18.1428 22.7713 17.4607 22.7713Z" fill="#3C5056"/>
<path d="M19.7644 4.13449V22.6131C19.7644 23.2916 19.2144 23.8452 18.5358 23.8452H3.45724C2.77867 23.8452 2.2251 23.2916 2.2251 22.6131V4.13449C2.2251 3.45592 2.77867 2.90234 3.45724 2.90234H18.5358C19.2144 2.90234 19.7644 3.45592 19.7644 4.13449Z" fill="#495E66"/>
<path d="M18.4929 4.91897V21.6154C18.4929 22.1404 18.0643 22.569 17.5393 22.569H4.23929C3.83214 22.569 3.5 22.2368 3.5 21.8297V4.91897C3.5 4.51183 3.83214 4.17969 4.23929 4.17969H17.7536C18.1607 4.17969 18.4929 4.51183 18.4929 4.91897Z" fill="white"/>
<path d="M15.268 3.55536V4.19107C15.268 4.50536 15.0108 4.7625 14.693 4.7625H7.29653C6.97867 4.7625 6.7251 4.50536 6.7251 4.19107V3.55536C6.7251 3.00536 7.17153 2.55536 7.72153 2.55536H9.58581V2.35179C9.58581 1.57321 10.2144 0.9375 10.9965 0.9375C11.3858 0.9375 11.743 1.10179 11.9965 1.35179C12.2501 1.60536 12.4108 1.9625 12.4108 2.35179V2.55536H14.268C14.818 2.55536 15.268 3.00536 15.268 3.55536Z" fill="#54E28E"/>
<path d="M10.9965 1.89844C11.2608 1.89844 11.4715 2.11272 11.4715 2.37344C11.4715 2.63772 11.2573 2.84844 10.9965 2.84844C10.7287 2.84844 10.5144 2.63415 10.5144 2.37344C10.5144 2.10915 10.7287 1.89844 10.9965 1.89844Z" fill="white"/>
<path d="M12.5821 20.5135H5.93565C5.83565 20.5135 5.75708 20.4349 5.75708 20.3349C5.75708 20.2349 5.83565 20.1564 5.93565 20.1564H12.5821C12.6821 20.1564 12.7607 20.2349 12.7607 20.3349C12.7607 20.4349 12.6821 20.5135 12.5821 20.5135ZM14.9142 18.4314H13.9428C13.8428 18.4314 13.7642 18.3528 13.7642 18.2528C13.7642 18.1528 13.8428 18.0742 13.9428 18.0742H14.9142C15.0142 18.0742 15.0928 18.1528 15.0928 18.2528C15.0928 18.3528 15.0142 18.4314 14.9142 18.4314ZM13.0678 18.4314H5.93565C5.83565 18.4314 5.75708 18.3528 5.75708 18.2528C5.75708 18.1528 5.83565 18.0742 5.93565 18.0742H13.0714C13.1714 18.0742 13.2499 18.1528 13.2499 18.2528C13.2499 18.3528 13.1678 18.4314 13.0678 18.4314Z" fill="#E2E2E0"/>
<path d="M15.4787 16.3493H8.58938C8.48938 16.3493 8.4108 16.2708 8.4108 16.1708C8.4108 16.0708 8.48938 15.9922 8.58938 15.9922H15.4787C15.5787 15.9922 15.6572 16.0708 15.6572 16.1708C15.6572 16.2708 15.5787 16.3493 15.4787 16.3493ZM7.53223 16.3493H5.93223C5.83223 16.3493 5.75366 16.2708 5.75366 16.1708C5.75366 16.0708 5.83223 15.9922 5.93223 15.9922H7.53223C7.63223 15.9922 7.7108 16.0708 7.7108 16.1708C7.7108 16.2708 7.63223 16.3493 7.53223 16.3493Z" fill="#E2E2E0"/>
<path d="M11.2643 14.0863C13.507 14.0863 15.325 12.2682 15.325 10.0256C15.325 7.78289 13.507 5.96484 11.2643 5.96484C9.02166 5.96484 7.20361 7.78289 7.20361 10.0256C7.20361 12.2682 9.02166 14.0863 11.2643 14.0863Z" fill="#FBE063"/>
<path d="M13.3501 11.2451C13.2572 11.4058 13.1144 11.5129 12.9465 11.5558C12.7822 11.5987 12.6001 11.5808 12.443 11.4879L11.9287 11.1915V11.7737C11.9287 12.1379 11.6287 12.4379 11.2644 12.4379C10.9001 12.4379 10.6001 12.1379 10.6001 11.7737V11.1629L10.0858 11.4594C9.76795 11.6451 9.36438 11.5344 9.17866 11.2165C9.08581 11.0594 9.06795 10.8772 9.11081 10.7129C9.15366 10.5522 9.26081 10.4022 9.42152 10.3094L9.91081 10.0272L9.41438 9.74152C9.09652 9.5558 8.98581 9.15223 9.17152 8.83438C9.35724 8.51652 9.76081 8.4058 10.0787 8.59152L10.6001 8.89152V8.27366C10.6001 7.9058 10.9001 7.60938 11.2644 7.60938C11.4465 7.60938 11.6144 7.68438 11.7322 7.8058C11.8537 7.92723 11.9287 8.09152 11.9287 8.27366V8.85938L12.4501 8.55937C12.768 8.37723 13.1715 8.48795 13.3572 8.80223C13.543 9.12009 13.4322 9.52366 13.1144 9.70938L12.5679 10.0237L13.1072 10.3379C13.4251 10.5201 13.5358 10.9308 13.3501 11.2451Z" fill="#F9A41A"/>
<path d="M23.8464 17.6537C23.8 18.9001 23.3571 22.2144 20.1214 23.9715C19.9 24.093 19.6286 24.093 19.4071 23.9715C16.175 22.2108 15.7286 18.9001 15.6821 17.6537C15.6714 17.368 15.8357 17.1108 16.0893 16.9823C16.7928 16.6251 17.2643 16.1215 17.3928 15.418C17.4571 15.0644 17.7464 14.793 18.1071 14.793H21.4286C21.7893 14.793 22.0786 15.0644 22.1428 15.418C22.2714 16.1251 22.7393 16.6251 23.4428 16.9823C23.6928 17.1108 23.8571 17.368 23.8464 17.6537Z" fill="#8F90FB"/>
<path d="M22.5965 18.1426C22.4751 19.3212 21.9643 21.3855 19.9536 22.6533C19.8393 22.7248 19.6858 22.7248 19.5643 22.6533C17.5572 21.3819 17.0465 19.3212 16.9215 18.1426C16.9072 18.0033 16.9786 17.8712 17.0965 17.7926C17.8179 17.3319 18.1858 16.7676 18.3643 16.2712C18.4179 16.1283 18.5536 16.0391 18.7072 16.0391H20.8072C20.9643 16.0391 21.1001 16.1426 21.1572 16.2926C21.3786 16.8962 21.8001 17.3998 22.4179 17.7926C22.5393 17.8712 22.6108 18.0033 22.5965 18.1426Z" fill="#EFEFED"/>
<path d="M19.3429 20.2727C19.2964 20.2727 19.25 20.2548 19.2179 20.2191L18.6214 19.6227C18.55 19.5512 18.55 19.4405 18.6214 19.3691C18.6929 19.2977 18.8036 19.2977 18.875 19.3691L19.3429 19.8369L20.6536 18.5262C20.725 18.4548 20.8357 18.4548 20.9072 18.5262C20.9786 18.5977 20.9786 18.7084 20.9072 18.7798L19.4714 20.2155C19.4357 20.2548 19.3893 20.2727 19.3429 20.2727Z" fill="#8F90FB"/>
</svg>
