<svg width="28" height="27" viewBox="0 0 28 27" fill="none" xmlns="http://www.w3.org/2000/svg">
<g id="Voucher 3" clip-path="url(#clip0_5055_114)">
<g id="Layer_x0020_1">
<g id="_2687558189808">
<path id="Vector" fill-rule="evenodd" clip-rule="evenodd" d="M0.90525 6.18777H26.0074V9.61987C25.0511 9.69908 24.5317 10.1534 24.0972 10.8111C23.1439 12.2544 22.912 17.3725 26.0074 17.6283V21.0604H0.90525V17.6283C4.40578 17.3389 4.27532 9.69428 0.90525 9.61952V6.18743V6.18777ZM-0.0158691 5.15804V10.5351C2.33887 11.0799 2.2871 11.478 2.2871 14.3104C2.2871 16.6195 0.68403 16.3795 -0.0158691 16.7131V22.0901C0.242279 22.1498 0.248836 22.2047 0.560132 22.2047H26.3529C26.8902 22.2047 27.1587 21.9379 27.1587 21.404V17.2854C27.1587 15.4698 24.6255 18.2438 24.6255 13.281C24.6255 9.60546 27.1587 11.5134 27.1587 9.84892V5.84453C27.1587 5.45911 26.9554 5.04386 26.583 5.04386C23.7465 5.04386 0.72993 4.87069 -0.0158691 5.15839V5.15804Z" fill="black"/>
<path id="Vector_2" fill-rule="evenodd" clip-rule="evenodd" d="M9.31089 17.5136C9.31089 17.8226 9.36577 17.8291 9.42616 18.0856C10.3304 18.2951 10.4864 17.7756 11.7578 16.5127C12.5408 15.7346 17.9468 10.658 17.9468 10.0771C17.9468 9.83675 17.5671 9.17804 16.82 9.86967L10.3183 16.3409C10.0746 16.583 9.31055 17.1714 9.31055 17.5136H9.31089Z" fill="black"/>
<path id="Vector_3" fill-rule="evenodd" clip-rule="evenodd" d="M14.9532 16.1411C14.9532 14.9958 16.7954 14.765 16.7954 16.1411C16.7954 17.369 14.9532 17.369 14.9532 16.1411ZM13.8015 16.0265C13.8015 18.7591 17.9467 19.0088 17.9467 16.0265C17.9467 13.4431 13.8015 13.4977 13.8015 16.0265Z" fill="black"/>
<path id="Vector_4" fill-rule="evenodd" clip-rule="evenodd" d="M11.3838 10.6508C12.425 10.6508 12.834 12.4812 11.2685 12.4812C10.0137 12.4812 10.237 10.6508 11.3838 10.6508ZM9.31104 11.3373C9.31104 14.6429 13.4562 14.1014 13.4562 11.566C13.4562 9.97529 11.439 8.93905 10.0434 10.0058C9.73173 10.2438 9.31104 10.8545 9.31104 11.3373Z" fill="black"/>
</g>
</g>
</g>
<defs>
<clipPath id="clip0_5055_114">
<rect width="27.1746" height="27" fill="white" transform="translate(0.0861816)"/>
</clipPath>
</defs>
</svg>
