<svg width="35" height="35" viewBox="0 0 35 35" fill="none" xmlns="http://www.w3.org/2000/svg">
<g clip-path="url(#clip0_5488_104)">
<mask id="path-1-inside-1_5488_104" fill="white">
<path fill-rule="evenodd" clip-rule="evenodd" d="M13.4719 15.5813C12.5589 15.5813 12.0006 15.5418 12.2833 14.5301C12.7064 13.0148 14.8178 10.8918 16.2278 10.134C17.8973 9.23697 19.3833 10.0153 21.0364 10.7509C22.4126 11.363 23.4451 11.7164 24.7511 12.2316C25.7232 12.6152 25.5556 12.2702 26.1761 13.9509L28.3738 20.093C28.1195 20.2633 27.3247 20.8469 27.0749 20.9136C27.0745 20.9131 25.0249 18.8057 24.4773 18.3839L23.9141 17.9216C22.8499 16.9731 21.5431 16.0303 20.4968 15.1182L19.682 14.4292C18.2965 13.313 18.7152 12.8436 16.8447 13.6909C16.6283 13.7891 16.402 13.8851 16.1869 13.922C15.4806 14.0434 15.5477 13.9402 15.1027 14.5465C14.9663 14.7328 14.8569 14.8603 14.6862 15.0186C14.4231 15.2631 13.9488 15.5813 13.4719 15.5813ZM10.7373 14.7612C10.7373 15.5142 10.7213 16.0587 11.4872 16.609C12.6615 17.4527 14.6089 17.1349 15.7113 16.1121C16.4158 15.4586 16.034 15.4875 16.5954 15.3555C16.815 15.3035 16.9799 15.2457 17.2128 15.1524C17.9364 14.8617 17.7471 14.6159 18.9579 15.7694C19.7416 16.5161 21.8743 18.151 22.8584 18.9782L23.4131 19.4489C24.0883 19.9743 26.2553 21.8475 26.2553 22.7591C26.2553 23.2979 25.8059 23.6477 25.3667 23.6477C24.9911 23.6477 24.4324 22.9529 24.051 22.5711L21.6582 20.1784C21.3111 19.8312 20.7346 19.0676 20.3767 19.0676C19.8025 19.0676 19.5562 19.3818 19.5562 19.8881C19.5562 20.2241 19.7971 20.3695 19.9843 20.5535C20.2034 20.7687 20.2767 20.9193 20.495 21.1363L23.8625 24.5362C23.7981 24.7785 23.7012 24.8621 23.4954 24.9892C22.4303 25.6488 21.9654 24.7834 21.4302 24.3704C20.9337 23.9868 19.9345 22.8298 19.3335 22.2288C18.9975 21.8928 18.5107 21.2549 18.1885 21.2549C17.6142 21.2549 17.3684 21.5692 17.3684 22.0755C17.3684 22.3973 17.9093 22.9263 18.1374 23.1521C18.4534 23.4654 18.7623 23.7508 19.061 24.074C19.6833 24.7469 19.6211 24.7727 20.4243 25.4452C20.6234 25.6124 20.7123 25.7626 20.923 25.9035C20.1269 27.4082 19.2824 26.5529 18.5476 25.8182L17.4542 24.7243C16.971 24.246 16.2927 23.5997 15.8762 23.0894C15.0783 22.1115 13.9488 23.2263 14.6485 23.9753L15.9153 25.3057C16.3349 25.7253 17.3679 26.6578 17.6413 27.0659C16.1144 27.0659 15.4019 26.3614 14.272 25.5133C13.3127 24.7932 12.4153 24.0984 11.4885 23.3748L9.45314 21.7186C9.30779 21.5923 9.25622 21.5781 9.11221 21.4443L7.57468 19.9054C7.25597 19.5867 6.57544 18.9773 6.36119 18.6577C6.59411 17.6589 7.10795 16.1223 7.40132 14.9808C7.58268 14.2749 8.27565 11.6711 8.27565 11.0696H12.7189C12.6055 11.2386 12.5322 11.2737 12.3975 11.4319L11.5098 12.6632C11.2276 13.137 10.7369 14.0634 10.7369 14.7612H10.7373ZM26.4597 10.7278C27.8106 10.4131 28.0155 10.254 29.6726 9.97573C30.4522 9.8446 32.5538 9.63391 33.3646 9.63391V21.2549H30.2882L29.8868 19.8792C29.3886 18.3892 27.1869 12.1018 26.4602 10.7278H26.4597ZM4.44806 19.8196H1.37167V8.26707C2.64294 8.26707 4.56185 8.58711 5.77623 8.85248C6.30029 8.96716 6.66167 9.11829 7.11373 9.22408L4.44761 19.8196H4.44806ZM-0.13208 7.37807V20.6397C-0.13208 21.0834 0.306642 21.3234 0.756477 21.3234H4.78988C5.43263 21.3234 5.76645 20.8842 5.81534 20.2979C6.10027 20.4886 6.78124 21.214 7.06439 21.5096C7.84404 22.3244 8.07385 22.5178 8.98108 23.2845C9.21933 23.4863 9.42113 23.6335 9.66516 23.8313L13.8235 27.0557C15.105 28.0171 16.0273 28.5696 17.7102 28.5696C18.0916 28.5696 18.4947 28.4367 18.7343 28.2918C19.2593 27.974 18.9157 28.2278 19.966 28.2278C20.8639 28.2278 21.9774 27.3837 22.1534 26.7241C23.1469 26.7241 23.4456 26.7356 24.123 26.3694C24.5271 26.1507 25.1191 25.6266 25.2294 25.1519C26.3433 25.1519 27.2403 24.5602 27.6426 23.5321C27.7968 23.1378 27.7586 22.7911 27.7586 22.2808C28.1528 22.0719 28.4582 21.8057 28.8525 21.5972C28.9596 21.8203 28.9792 22.1173 29.1107 22.3644C29.2259 22.5804 29.4343 22.7596 29.741 22.7596H34.0478C34.4892 22.7596 34.8679 22.5035 34.8679 22.0759V8.81425C34.8679 8.28929 34.3994 8.13061 33.9109 8.13061C32.0902 8.13061 30.1647 8.32263 28.6071 8.63778C27.9804 8.76446 25.1427 9.36232 24.7835 9.94061C24.6306 10.1873 24.6826 10.2407 24.6826 10.5918L22.9055 9.90816C20.4745 8.93515 17.9996 7.31228 15.3983 8.89515C15.117 9.06628 14.9178 9.18141 14.656 9.38321C14.3049 9.65391 14.1053 9.56679 13.5403 9.56634C11.877 9.56412 10.2137 9.56634 8.54991 9.56634L8.61836 8.81425C8.61836 7.29139 1.97041 6.69531 0.552007 6.69531C0.167958 6.69531 -0.131636 6.99491 -0.131636 7.37896L-0.13208 7.37807Z"/>
</mask>
<path fill-rule="evenodd" clip-rule="evenodd" d="M13.4719 15.5813C12.5589 15.5813 12.0006 15.5418 12.2833 14.5301C12.7064 13.0148 14.8178 10.8918 16.2278 10.134C17.8973 9.23697 19.3833 10.0153 21.0364 10.7509C22.4126 11.363 23.4451 11.7164 24.7511 12.2316C25.7232 12.6152 25.5556 12.2702 26.1761 13.9509L28.3738 20.093C28.1195 20.2633 27.3247 20.8469 27.0749 20.9136C27.0745 20.9131 25.0249 18.8057 24.4773 18.3839L23.9141 17.9216C22.8499 16.9731 21.5431 16.0303 20.4968 15.1182L19.682 14.4292C18.2965 13.313 18.7152 12.8436 16.8447 13.6909C16.6283 13.7891 16.402 13.8851 16.1869 13.922C15.4806 14.0434 15.5477 13.9402 15.1027 14.5465C14.9663 14.7328 14.8569 14.8603 14.6862 15.0186C14.4231 15.2631 13.9488 15.5813 13.4719 15.5813ZM10.7373 14.7612C10.7373 15.5142 10.7213 16.0587 11.4872 16.609C12.6615 17.4527 14.6089 17.1349 15.7113 16.1121C16.4158 15.4586 16.034 15.4875 16.5954 15.3555C16.815 15.3035 16.9799 15.2457 17.2128 15.1524C17.9364 14.8617 17.7471 14.6159 18.9579 15.7694C19.7416 16.5161 21.8743 18.151 22.8584 18.9782L23.4131 19.4489C24.0883 19.9743 26.2553 21.8475 26.2553 22.7591C26.2553 23.2979 25.8059 23.6477 25.3667 23.6477C24.9911 23.6477 24.4324 22.9529 24.051 22.5711L21.6582 20.1784C21.3111 19.8312 20.7346 19.0676 20.3767 19.0676C19.8025 19.0676 19.5562 19.3818 19.5562 19.8881C19.5562 20.2241 19.7971 20.3695 19.9843 20.5535C20.2034 20.7687 20.2767 20.9193 20.495 21.1363L23.8625 24.5362C23.7981 24.7785 23.7012 24.8621 23.4954 24.9892C22.4303 25.6488 21.9654 24.7834 21.4302 24.3704C20.9337 23.9868 19.9345 22.8298 19.3335 22.2288C18.9975 21.8928 18.5107 21.2549 18.1885 21.2549C17.6142 21.2549 17.3684 21.5692 17.3684 22.0755C17.3684 22.3973 17.9093 22.9263 18.1374 23.1521C18.4534 23.4654 18.7623 23.7508 19.061 24.074C19.6833 24.7469 19.6211 24.7727 20.4243 25.4452C20.6234 25.6124 20.7123 25.7626 20.923 25.9035C20.1269 27.4082 19.2824 26.5529 18.5476 25.8182L17.4542 24.7243C16.971 24.246 16.2927 23.5997 15.8762 23.0894C15.0783 22.1115 13.9488 23.2263 14.6485 23.9753L15.9153 25.3057C16.3349 25.7253 17.3679 26.6578 17.6413 27.0659C16.1144 27.0659 15.4019 26.3614 14.272 25.5133C13.3127 24.7932 12.4153 24.0984 11.4885 23.3748L9.45314 21.7186C9.30779 21.5923 9.25622 21.5781 9.11221 21.4443L7.57468 19.9054C7.25597 19.5867 6.57544 18.9773 6.36119 18.6577C6.59411 17.6589 7.10795 16.1223 7.40132 14.9808C7.58268 14.2749 8.27565 11.6711 8.27565 11.0696H12.7189C12.6055 11.2386 12.5322 11.2737 12.3975 11.4319L11.5098 12.6632C11.2276 13.137 10.7369 14.0634 10.7369 14.7612H10.7373ZM26.4597 10.7278C27.8106 10.4131 28.0155 10.254 29.6726 9.97573C30.4522 9.8446 32.5538 9.63391 33.3646 9.63391V21.2549H30.2882L29.8868 19.8792C29.3886 18.3892 27.1869 12.1018 26.4602 10.7278H26.4597ZM4.44806 19.8196H1.37167V8.26707C2.64294 8.26707 4.56185 8.58711 5.77623 8.85248C6.30029 8.96716 6.66167 9.11829 7.11373 9.22408L4.44761 19.8196H4.44806ZM-0.13208 7.37807V20.6397C-0.13208 21.0834 0.306642 21.3234 0.756477 21.3234H4.78988C5.43263 21.3234 5.76645 20.8842 5.81534 20.2979C6.10027 20.4886 6.78124 21.214 7.06439 21.5096C7.84404 22.3244 8.07385 22.5178 8.98108 23.2845C9.21933 23.4863 9.42113 23.6335 9.66516 23.8313L13.8235 27.0557C15.105 28.0171 16.0273 28.5696 17.7102 28.5696C18.0916 28.5696 18.4947 28.4367 18.7343 28.2918C19.2593 27.974 18.9157 28.2278 19.966 28.2278C20.8639 28.2278 21.9774 27.3837 22.1534 26.7241C23.1469 26.7241 23.4456 26.7356 24.123 26.3694C24.5271 26.1507 25.1191 25.6266 25.2294 25.1519C26.3433 25.1519 27.2403 24.5602 27.6426 23.5321C27.7968 23.1378 27.7586 22.7911 27.7586 22.2808C28.1528 22.0719 28.4582 21.8057 28.8525 21.5972C28.9596 21.8203 28.9792 22.1173 29.1107 22.3644C29.2259 22.5804 29.4343 22.7596 29.741 22.7596H34.0478C34.4892 22.7596 34.8679 22.5035 34.8679 22.0759V8.81425C34.8679 8.28929 34.3994 8.13061 33.9109 8.13061C32.0902 8.13061 30.1647 8.32263 28.6071 8.63778C27.9804 8.76446 25.1427 9.36232 24.7835 9.94061C24.6306 10.1873 24.6826 10.2407 24.6826 10.5918L22.9055 9.90816C20.4745 8.93515 17.9996 7.31228 15.3983 8.89515C15.117 9.06628 14.9178 9.18141 14.656 9.38321C14.3049 9.65391 14.1053 9.56679 13.5403 9.56634C11.877 9.56412 10.2137 9.56634 8.54991 9.56634L8.61836 8.81425C8.61836 7.29139 1.97041 6.69531 0.552007 6.69531C0.167958 6.69531 -0.131636 6.99491 -0.131636 7.37896L-0.13208 7.37807Z" fill="black" stroke="white" stroke-width="0.3" mask="url(#path-1-inside-1_5488_104)"/>
</g>
<defs>
<clipPath id="clip0_5488_104">
<rect width="35" height="35" fill="white"/>
</clipPath>
</defs>
</svg>
