<svg width="25" height="25" viewBox="0 0 25 25" fill="none" xmlns="http://www.w3.org/2000/svg">
<path d="M3.61328 3.51562H10.1562V13.6719H3.125V4.00391C3.125 3.87441 3.17644 3.75021 3.26801 3.65864C3.35958 3.56707 3.48378 3.51563 3.61328 3.51562Z" fill="#E0CCA5"/>
<path d="M23.3398 2.73438H9.47266C9.20299 2.73438 8.98438 2.95299 8.98438 3.22266V23.3398C8.98438 23.6095 9.20299 23.8281 9.47266 23.8281H23.3398C23.6095 23.8281 23.8281 23.6095 23.8281 23.3398V3.22266C23.8281 2.95299 23.6095 2.73438 23.3398 2.73438Z" fill="#FA5D3F"/>
<path d="M22.2656 4.29688H10.5469V22.2656H22.2656V4.29688Z" fill="#FFF9F8"/>
<path d="M17.9195 2.34379C17.8328 2.00836 17.6372 1.71123 17.3632 1.49911C17.0893 1.28698 16.7527 1.17188 16.4062 1.17188C16.0598 1.17188 15.7232 1.28698 15.4493 1.49911C15.1753 1.71123 14.9797 2.00836 14.893 2.34379H12.5977C12.4682 2.34379 12.344 2.39523 12.2524 2.4868C12.1608 2.57837 12.1094 2.70257 12.1094 2.83207V4.9805C12.1094 5.11 12.1608 5.2342 12.2524 5.32577C12.344 5.41734 12.4682 5.46879 12.5977 5.46879H20.2148C20.3443 5.46879 20.4685 5.41734 20.5601 5.32577C20.6517 5.2342 20.7031 5.11 20.7031 4.9805V2.83207C20.7031 2.70257 20.6517 2.57837 20.5601 2.4868C20.4685 2.39523 20.3443 2.34379 20.2148 2.34379H17.9195Z" fill="#FDBF44"/>
<path d="M16.4062 4.29688C16.8377 4.29688 17.1875 3.9471 17.1875 3.51562C17.1875 3.08415 16.8377 2.73438 16.4062 2.73438C15.9748 2.73438 15.625 3.08415 15.625 3.51562C15.625 3.9471 15.9748 4.29688 16.4062 4.29688Z" fill="white"/>
<path d="M14.0625 13.6719H11.7188V14.4531H14.0625V13.6719Z" fill="#E6E6E6"/>
<path d="M21.0938 13.6719H14.8438V14.4531H21.0938V13.6719Z" fill="#E6E6E6"/>
<path d="M16.4062 11.7188C17.7007 11.7188 18.75 10.6694 18.75 9.375C18.75 8.08058 17.7007 7.03125 16.4062 7.03125C15.1118 7.03125 14.0625 8.08058 14.0625 9.375C14.0625 10.6694 15.1118 11.7188 16.4062 11.7188Z" fill="#FA5D3F"/>
<path d="M17.5781 8.98438H16.7969V8.20312H16.0156V8.98438H15.2344V9.76562H16.0156V10.5469H16.7969V9.76562H17.5781V8.98438Z" fill="#FFF9F8"/>
<path d="M12.5 7.8125H11.7188V7.03125C11.7188 6.92765 11.7599 6.82829 11.8332 6.75504C11.9064 6.68178 12.0058 6.64062 12.1094 6.64062H12.8906V7.42188H12.5V7.8125ZM21.0938 7.8125H20.3125V7.42188H19.9219V6.64062H20.7031C20.8067 6.64062 20.9061 6.68178 20.9793 6.75504C21.0526 6.82829 21.0938 6.92765 21.0938 7.03125V7.8125ZM12.8906 12.5H12.1094C12.0058 12.5 11.9064 12.4588 11.8332 12.3856C11.7599 12.3123 11.7188 12.213 11.7188 12.1094V11.3281H12.5V11.7188H12.8906V12.5ZM20.7031 12.5H19.9219V11.7188H20.3125V11.3281H21.0938V12.1094C21.0938 12.213 21.0526 12.3123 20.9793 12.3856C20.9061 12.4588 20.8067 12.5 20.7031 12.5Z" fill="#E6E6E6"/>
<path d="M16.4062 15.625H11.7188V16.4062H16.4062V15.625Z" fill="#E6E6E6"/>
<path d="M21.0938 15.625H17.1875V16.4062H21.0938V15.625Z" fill="#E6E6E6"/>
<path d="M14.0625 17.5781H11.7188V18.3594H14.0625V17.5781Z" fill="#E6E6E6"/>
<path d="M21.0938 17.5781H14.8438V18.3594H21.0938V17.5781Z" fill="#E6E6E6"/>
<path d="M16.4062 19.5312H11.7188V20.3125H16.4062V19.5312Z" fill="#E6E6E6"/>
<path d="M21.0938 19.5312H17.1875V20.3125H21.0938V19.5312Z" fill="#E6E6E6"/>
<path d="M6.64062 12.8906V10.6445C6.64062 10.515 6.58918 10.3908 6.49761 10.2993C6.40604 10.2077 6.28184 10.1562 6.15234 10.1562H1.66016C1.53066 10.1562 1.40646 10.2077 1.31489 10.2993C1.22332 10.3908 1.17188 10.515 1.17188 10.6445V23.3398C1.17188 23.4693 1.22332 23.5935 1.31489 23.6851C1.40646 23.7767 1.53066 23.8281 1.66016 23.8281H8.98438V12.8906H6.64062Z" fill="#FDBF44"/>
<path d="M4.78516 16.4062H8.98438V20.3125H4.78516C4.65566 20.3125 4.53146 20.2611 4.43989 20.1695C4.34832 20.0779 4.29688 19.9537 4.29688 19.8242V16.8945C4.29688 16.765 4.34832 16.6408 4.43989 16.5493C4.53146 16.4577 4.65566 16.4062 4.78516 16.4062Z" fill="white"/>
<path d="M7.8125 6.64062H4.29688V7.42188H7.8125V6.64062Z" fill="white"/>
<path d="M7.8125 5.07812H4.29688V5.85938H7.8125V5.07812Z" fill="white"/>
<path d="M7.8125 8.20312H4.29688V8.98438H7.8125V8.20312Z" fill="white"/>
</svg>
