<svg width="25" height="25" viewBox="0 0 25 25" fill="none" xmlns="http://www.w3.org/2000/svg">
<path d="M20.2136 3.70618L19.1718 1.90188C19.0797 1.74243 18.9281 1.62607 18.7502 1.57838C18.5724 1.5307 18.3829 1.55559 18.2234 1.64758L1.98547 11.0226C1.90651 11.0682 1.83731 11.1289 1.78181 11.2012C1.72632 11.2736 1.68562 11.3561 1.66204 11.4442C1.63846 11.5323 1.63247 11.6241 1.64439 11.7145C1.65632 11.8049 1.68594 11.8921 1.73156 11.971L2.77336 13.7753C3.06968 13.6008 3.39764 13.4866 3.7383 13.4395C4.07897 13.3924 4.42559 13.4132 4.75817 13.5008C5.09074 13.5883 5.40268 13.7409 5.67598 13.9497C5.94928 14.1584 6.17853 14.4192 6.35049 14.7171C6.52245 15.0149 6.63372 15.3438 6.67787 15.6849C6.72203 16.026 6.69819 16.3724 6.60775 16.7042C6.5173 17.036 6.36203 17.3466 6.1509 17.6181C5.93978 17.8895 5.67697 18.1165 5.37766 18.2859L6.24563 19.7894C6.38379 20.0286 6.61133 20.2032 6.8782 20.2747C7.14506 20.3462 7.4294 20.3088 7.66867 20.1706L23.3046 11.1429C23.5439 11.0047 23.7184 10.7772 23.7899 10.5103C23.8614 10.2435 23.824 9.95912 23.6859 9.71985L22.8175 8.21673C22.2194 8.56203 21.5086 8.65557 20.8414 8.47679C20.1743 8.29801 19.6056 7.86154 19.2603 7.26341C18.915 6.66527 18.8214 5.95446 19.0002 5.28735C19.179 4.62024 19.6155 4.05148 20.2136 3.70618Z" fill="#FAA307"/>
<path d="M23.8281 14.0625V11.7188C23.8281 11.5115 23.7458 11.3128 23.5993 11.1663C23.4528 11.0198 23.2541 10.9375 23.0469 10.9375H1.95312C1.74592 10.9375 1.54721 11.0198 1.4007 11.1663C1.25418 11.3128 1.17188 11.5115 1.17188 11.7188V14.0625C1.94888 14.0625 2.69405 14.3712 3.24348 14.9206C3.7929 15.47 4.10156 16.2152 4.10156 16.9922C4.10156 17.7692 3.7929 18.5144 3.24348 19.0638C2.69405 19.6132 1.94888 19.9219 1.17188 19.9219V21.875C1.17188 22.1858 1.29534 22.4839 1.51511 22.7036C1.73488 22.9234 2.03295 23.0469 2.34375 23.0469H22.6562C22.9671 23.0469 23.2651 22.9234 23.4849 22.7036C23.7047 22.4839 23.8281 22.1858 23.8281 21.875V19.9219C23.0511 19.9219 22.3059 19.6132 21.7565 19.0638C21.2071 18.5144 20.8984 17.7692 20.8984 16.9922C20.8984 16.2152 21.2071 15.47 21.7565 14.9206C22.3059 14.3712 23.0511 14.0625 23.8281 14.0625Z" fill="#FFD100"/>
<path d="M13.2812 16.0156C13.9285 16.0156 14.4531 15.491 14.4531 14.8438C14.4531 14.1965 13.9285 13.6719 13.2812 13.6719C12.634 13.6719 12.1094 14.1965 12.1094 14.8438C12.1094 15.491 12.634 16.0156 13.2812 16.0156Z" fill="white"/>
<path d="M17.9688 20.7031C18.616 20.7031 19.1406 20.1785 19.1406 19.5312C19.1406 18.884 18.616 18.3594 17.9688 18.3594C17.3215 18.3594 16.7969 18.884 16.7969 19.5312C16.7969 20.1785 17.3215 20.7031 17.9688 20.7031Z" fill="white"/>
<path d="M12.6953 20.1172C12.6185 20.0404 12.5577 19.9492 12.5163 19.8488C12.4749 19.7484 12.4538 19.6409 12.4541 19.5323C12.4545 19.4237 12.4762 19.3163 12.5182 19.2161C12.5602 19.116 12.6216 19.0252 12.6988 18.9488L17.4164 14.2914C17.5638 14.1491 17.7611 14.0703 17.9659 14.0721C18.1708 14.0739 18.3667 14.1561 18.5116 14.3009C18.6564 14.4458 18.7386 14.6417 18.7404 14.8466C18.7422 15.0514 18.6634 15.2487 18.5211 15.3961L13.8637 20.1137C13.7873 20.1909 13.6965 20.2523 13.5964 20.2943C13.4962 20.3363 13.3888 20.358 13.2802 20.3584C13.1716 20.3587 13.0641 20.3376 12.9637 20.2962C12.8633 20.2548 12.7721 20.194 12.6953 20.1172ZM8.98438 12.5C9.08798 12.5 9.18733 12.4588 9.26059 12.3856C9.33385 12.3123 9.375 12.213 9.375 12.1094V10.9375H8.59375V12.1094C8.59375 12.213 8.6349 12.3123 8.70816 12.3856C8.78142 12.4588 8.88077 12.5 8.98438 12.5ZM8.98438 16.4062C9.08798 16.4062 9.18733 16.3651 9.26059 16.2918C9.33385 16.2186 9.375 16.1192 9.375 16.0156V14.0625C9.375 13.9589 9.33385 13.8595 9.26059 13.7863C9.18733 13.713 9.08798 13.6719 8.98438 13.6719C8.88077 13.6719 8.78142 13.713 8.70816 13.7863C8.6349 13.8595 8.59375 13.9589 8.59375 14.0625V16.0156C8.59375 16.1192 8.6349 16.2186 8.70816 16.2918C8.78142 16.3651 8.88077 16.4062 8.98438 16.4062ZM8.98438 20.3125C9.08798 20.3125 9.18733 20.2713 9.26059 20.1981C9.33385 20.1248 9.375 20.0255 9.375 19.9219V17.9688C9.375 17.8651 9.33385 17.7658 9.26059 17.6925C9.18733 17.6193 9.08798 17.5781 8.98438 17.5781C8.88077 17.5781 8.78142 17.6193 8.70816 17.6925C8.6349 17.7658 8.59375 17.8651 8.59375 17.9688V19.9219C8.59375 20.0255 8.6349 20.1248 8.70816 20.1981C8.78142 20.2713 8.88077 20.3125 8.98438 20.3125ZM8.98438 21.4844C8.88077 21.4844 8.78142 21.5255 8.70816 21.5988C8.6349 21.672 8.59375 21.7714 8.59375 21.875V23.0469H9.375V21.875C9.375 21.7714 9.33385 21.672 9.26059 21.5988C9.18733 21.5255 9.08798 21.4844 8.98438 21.4844Z" fill="white"/>
</svg>
