<svg width="25" height="25" viewBox="0 0 25 25" fill="none" xmlns="http://www.w3.org/2000/svg">
<path d="M11.196 4H4.804C4.60509 4 4.41432 4.07902 4.27367 4.21967C4.13302 4.36032 4.054 4.55109 4.054 4.75V11.25C4.054 11.4489 4.13302 11.6397 4.27367 11.7803C4.41432 11.921 4.60509 12 4.804 12H11.196C11.3949 12 11.5857 11.921 11.7263 11.7803C11.867 11.6397 11.946 11.4489 11.946 11.25V4.75C11.946 4.55109 11.867 4.36032 11.7263 4.21967C11.5857 4.07902 11.3949 4 11.196 4ZM10.446 10.5H5.554V5.5H10.446V10.5ZM9 7H7V9H9V7ZM1 10C1.26522 10 1.51957 9.89464 1.70711 9.70711C1.89464 9.51957 2 9.26522 2 9V3C2.00026 2.73486 2.10571 2.48066 2.29319 2.29319C2.48066 2.10571 2.73486 2.00026 3 2H9C9.26522 2 9.51957 1.89464 9.70711 1.70711C9.89464 1.51957 10 1.26522 10 1C10 0.734784 9.89464 0.48043 9.70711 0.292893C9.51957 0.105357 9.26522 0 9 0H3C2.20459 0.000794215 1.44199 0.31712 0.879557 0.879557C0.31712 1.44199 0.000794215 2.20459 0 3V9C0 9.26522 0.105357 9.51957 0.292893 9.70711C0.48043 9.89464 0.734784 10 1 10ZM11.196 13H4.804C4.60509 13 4.41432 13.079 4.27367 13.2197C4.13302 13.3603 4.054 13.5511 4.054 13.75V20.25C4.054 20.4489 4.13302 20.6397 4.27367 20.7803C4.41432 20.921 4.60509 21 4.804 21H11.196C11.3949 21 11.5857 20.921 11.7263 20.7803C11.867 20.6397 11.946 20.4489 11.946 20.25V13.75C11.946 13.5511 11.867 13.3603 11.7263 13.2197C11.5857 13.079 11.3949 13 11.196 13ZM10.446 19.5H5.554V14.5H10.446V19.5ZM9 16H7V18H9V16ZM9 23H3C2.73486 22.9997 2.48066 22.8943 2.29319 22.7068C2.10571 22.5193 2.00026 22.2651 2 22V16C2 15.7348 1.89464 15.4804 1.70711 15.2929C1.51957 15.1054 1.26522 15 1 15C0.734784 15 0.48043 15.1054 0.292893 15.2929C0.105357 15.4804 0 15.7348 0 16V22C0.000794215 22.7954 0.31712 23.558 0.879557 24.1204C1.44199 24.6829 2.20459 24.9992 3 25H9C9.26522 25 9.51957 24.8946 9.70711 24.7071C9.89464 24.5196 10 24.2652 10 24C10 23.7348 9.89464 23.4804 9.70711 23.2929C9.51957 23.1054 9.26522 23 9 23ZM24 15C23.7348 15 23.4804 15.1054 23.2929 15.2929C23.1054 15.4804 23 15.7348 23 16V22C22.9997 22.2651 22.8943 22.5193 22.7068 22.7068C22.5193 22.8943 22.2651 22.9997 22 23H16C15.7348 23 15.4804 23.1054 15.2929 23.2929C15.1054 23.4804 15 23.7348 15 24C15 24.2652 15.1054 24.5196 15.2929 24.7071C15.4804 24.8946 15.7348 25 16 25H22C22.7954 24.9992 23.558 24.6829 24.1204 24.1204C24.6829 23.558 24.9992 22.7954 25 22V16C25 15.7348 24.8946 15.4804 24.7071 15.2929C24.5196 15.1054 24.2652 15 24 15ZM15.5 18.5H13.5V20.5H15.5V18.5ZM13.5 15.494H15.5V13.494H13.5V15.494ZM22 0H16C15.7348 0 15.4804 0.105357 15.2929 0.292893C15.1054 0.48043 15 0.734784 15 1C15 1.26522 15.1054 1.51957 15.2929 1.70711C15.4804 1.89464 15.7348 2 16 2H22C22.2651 2.00026 22.5193 2.10571 22.7068 2.29319C22.8943 2.48066 22.9997 2.73486 23 3V9C23 9.26522 23.1054 9.51957 23.2929 9.70711C23.4804 9.89464 23.7348 10 24 10C24.2652 10 24.5196 9.89464 24.7071 9.70711C24.8946 9.51957 25 9.26522 25 9V3C24.9992 2.20459 24.6829 1.44199 24.1204 0.879557C23.558 0.31712 22.7954 0.000794215 22 0ZM16 9H18V7H16V9ZM18 18V16H16V18H18ZM20.196 12C20.3949 12 20.5857 11.921 20.7263 11.7803C20.867 11.6397 20.946 11.4489 20.946 11.25V4.75C20.946 4.55109 20.867 4.36032 20.7263 4.21967C20.5857 4.07902 20.3949 4 20.196 4H13.804C13.6051 4 13.4143 4.07902 13.2737 4.21967C13.133 4.36032 13.054 4.55109 13.054 4.75V11.25C13.054 11.4489 13.133 11.6397 13.2737 11.7803C13.4143 11.921 13.6051 12 13.804 12H20.196ZM14.554 5.5H19.446V10.5H14.554V5.5ZM20.5 13.494H18.5V15.494H20.5V13.494ZM18.5 20.5H20.5V18.5H18.5V20.5Z" fill="url(#paint0_linear_206_16)"/>
<defs>
<linearGradient id="paint0_linear_206_16" x1="12.5" y1="0" x2="12.5" y2="25" gradientUnits="userSpaceOnUse">
<stop stop-color="#01AB84"/>
<stop offset="1" stop-color="white"/>
</linearGradient>
</defs>
</svg>
