<svg xmlns="http://www.w3.org/2000/svg" width="16" height="22" viewBox="0 0 16 22" fill="none">
  <path d="M5.02665 14.9142V14.4242C5.00293 13.5173 5.09375 12.611 5.29696 11.7268C5.43254 11.1365 5.70232 10.5854 6.08535 10.1163C6.45575 9.68196 6.88619 9.30272 7.36367 8.98998C7.80292 8.70278 8.19148 8.42685 8.54063 8.16217C8.85495 7.92244 9.13038 7.63561 9.35717 7.31183C9.5602 7.00898 9.66626 6.65151 9.66127 6.28693C9.66722 5.96899 9.58118 5.6561 9.41349 5.38591C9.25111 5.12678 9.02145 4.91657 8.74899 4.77772C8.28532 4.54755 7.75299 4.4967 7.25413 4.63492C6.75527 4.77315 6.32502 5.09072 6.04593 5.52669C5.85512 5.84227 5.7575 6.20541 5.76436 6.57413H0.521564C0.474508 5.27538 0.832698 3.99416 1.54647 2.90811C2.21088 1.97138 3.13769 1.25227 4.21011 0.8414C5.37414 0.396232 6.61322 0.180158 7.85923 0.205056C9.19168 0.183805 10.5172 0.401225 11.773 0.847031C12.8418 1.21925 13.783 1.88709 14.4873 2.77296C15.1743 3.70065 15.5239 4.83504 15.4785 5.98847C15.4937 6.73481 15.3497 7.47583 15.0561 8.16217C14.7764 8.78436 14.3764 9.34511 13.8792 9.81216C13.3433 10.3076 12.754 10.742 12.1222 11.1074C11.6777 11.3601 11.2606 11.6583 10.8776 11.9971C10.5569 12.2841 10.2998 12.6352 10.123 13.0277C9.93875 13.4716 9.85047 13.9494 9.86399 14.4299V14.9198L5.02665 14.9142ZM7.52698 21.8013C7.14956 21.8058 6.7751 21.7343 6.42587 21.5911C6.07664 21.4479 5.75975 21.236 5.49406 20.9679C5.22124 20.7046 5.00624 20.3873 4.86275 20.0363C4.71926 19.6854 4.65042 19.3084 4.66062 18.9293C4.65221 18.5572 4.72206 18.1875 4.86563 17.8441C5.0092 17.5007 5.2233 17.1912 5.49406 16.9358C6.0283 16.4025 6.75236 16.1029 7.50727 16.1029C8.26218 16.1029 8.98624 16.4025 9.52048 16.9358C9.7983 17.1881 10.02 17.4959 10.1714 17.8393C10.3227 18.1827 10.4002 18.5541 10.399 18.9293C10.3986 19.4431 10.2542 19.9464 9.98225 20.3822C9.72067 20.8062 9.36155 21.1614 8.93482 21.4184C8.50873 21.6708 8.02223 21.8031 7.52698 21.8013Z" fill="white"/>
</svg>
