<svg width="18" height="19" viewBox="0 0 18 19" fill="none" xmlns="http://www.w3.org/2000/svg">
<path fill-rule="evenodd" clip-rule="evenodd" d="M10.9311 3.33892H5.64433C5.45298 3.33892 5.20709 3.22985 5.20709 3.06069V1.51056C5.20709 1.31824 5.33281 1.19252 5.52513 1.19252H11.0503C11.2423 1.19252 11.3683 1.31824 11.3683 1.51056V2.98131C11.3683 3.22526 11.1791 3.33892 10.9311 3.33892ZM4.01457 1.66934C2.71949 1.66934 1.81098 1.54362 0.864349 2.49411C0.582265 2.7774 0.461614 2.92581 0.277499 3.29838C0.139474 3.57757 0 4.03315 0 4.45181V16.2175C0 17.8316 1.39691 19 3.02088 19H7.15489C7.33973 19 7.4932 18.9274 7.59069 18.8395C7.96953 18.4969 7.79676 17.8958 7.22584 17.8162L3.85579 17.8077C3.02329 17.8077 2.40604 17.8924 1.90726 17.5302C1.47581 17.217 1.15295 16.7597 1.15295 16.0189V4.65064C1.15295 4.33526 1.21496 4.07272 1.31197 3.85555C1.40149 3.65527 1.53928 3.43037 1.69926 3.28897C2.32617 2.73397 3.15866 2.82229 4.01505 2.82229C4.01505 3.79209 4.63713 4.49187 5.52561 4.49187H11.0906C11.3787 4.49187 11.7399 4.34274 11.9356 4.18396C12.1711 3.99309 12.3299 3.82732 12.4484 3.50421C12.5017 3.3587 12.5613 3.02908 12.5613 2.82229C13.5461 2.82229 14.8575 2.68643 15.2805 3.91901C15.4012 4.27035 15.3838 4.40451 15.3836 4.84948C15.3836 5.22084 15.3421 7.68504 15.4058 7.92779C15.572 8.56193 16.5761 8.5851 16.5761 7.67176V4.69046C16.5761 4.24477 16.4945 3.80439 16.3613 3.47429C16.2397 3.1729 15.9965 2.78609 15.7919 2.57302C14.8078 1.54796 13.8573 1.66958 12.5613 1.66958C12.5398 0.69978 11.9264 0 10.8917 0H5.68439C4.67863 0 4.01481 0.662137 4.01481 1.66958L4.01457 1.66934Z" fill="black"/>
<path fill-rule="evenodd" clip-rule="evenodd" d="M4.65071 8.46596H10.5337C11.5153 8.46596 11.4386 7.27344 10.6133 7.27344H4.65095C3.91908 7.27344 3.76441 7.95174 4.14398 8.29729C4.27187 8.41336 4.41954 8.46596 4.65095 8.46596H4.65071Z" fill="black"/>
<path fill-rule="evenodd" clip-rule="evenodd" d="M4.45187 11.684H7.35354C8.00024 11.684 8.1052 10.5312 7.27391 10.5312H4.49144C3.8059 10.5312 3.77646 11.684 4.45163 11.684H4.45187Z" fill="black"/>
<path fill-rule="evenodd" clip-rule="evenodd" d="M13.4087 15.1325C15.0399 15.1325 16.4759 16.4408 16.5886 17.7931H10.2937C10.4754 17.4145 10.4766 16.7029 11.3161 15.9602C11.7782 15.5514 12.568 15.1325 13.4087 15.1325ZM11.9809 12.5368C11.9809 11.4545 13.3693 10.6027 14.4226 11.4579C15.3244 12.19 14.9216 14.0295 13.6034 14.0295H13.2791C12.5296 14.0295 11.9811 13.3087 11.9811 12.537L11.9809 12.5368ZM11.7212 14.4836C10.5075 14.7664 9.19019 16.5878 9.19019 18.3124C9.19019 18.7752 9.5671 18.8963 10.0338 18.8963H16.9775C17.7953 18.8963 17.6913 18.3727 17.6913 17.9878C17.6913 17.1394 17.2574 16.3243 16.8854 15.8086C16.5458 15.3383 15.8075 14.619 15.2252 14.4834C15.6822 13.801 16.0041 13.5553 16.0041 12.4716C16.0041 10.8062 14.073 9.44159 12.3472 10.3074C11.6365 10.664 11.0572 11.3177 10.9507 12.1575C10.7741 13.5503 11.3156 13.878 11.721 14.4834L11.7212 14.4836Z" fill="black"/>
</svg>
