<svg width="15" height="15" viewBox="0 0 15 15" fill="none" xmlns="http://www.w3.org/2000/svg">
<path fill-rule="evenodd" clip-rule="evenodd" d="M6.56994 12.2309C6.37338 12.0624 6.35063 11.7665 6.51913 11.5699L10.0076 7.5L6.51913 3.43006C6.35063 3.2335 6.37338 2.93756 6.56994 2.76906C6.7665 2.60062 7.06244 2.62337 7.23094 2.81994L10.9809 7.19494C11.1314 7.3705 11.1314 7.6295 10.9809 7.80506L7.23094 12.18C7.06244 12.3766 6.7665 12.3994 6.56994 12.2309Z" fill="#01AB84"/>
<path fill-rule="evenodd" clip-rule="evenodd" d="M4.06995 12.2309C3.87339 12.0624 3.85063 11.7665 4.01911 11.5699L7.50763 7.5L4.01911 3.43006C3.85063 3.2335 3.87339 2.93756 4.06995 2.76906C4.26651 2.60062 4.56243 2.62337 4.73091 2.81994L8.48094 7.19494C8.63138 7.3705 8.63138 7.6295 8.48094 7.80506L4.73091 12.18C4.56243 12.3766 4.26651 12.3994 4.06995 12.2309Z" fill="#01AB84" fill-opacity="0.8"/>
</svg>
