<svg width="9" height="18" viewBox="0 0 9 18" fill="none" xmlns="http://www.w3.org/2000/svg" color="#01AB84">
<path d="M1.71248 0.248434C1.89922 0.247799 2.08373 0.289015 2.25246 0.369051C2.42118 0.449087 2.56983 0.56591 2.68748 0.710936L8.72498 8.21093C8.90883 8.4346 9.00934 8.71515 9.00934 9.00468C9.00934 9.29422 8.90883 9.57477 8.72498 9.79844L2.47498 17.2984C2.2628 17.5537 1.95792 17.7142 1.62738 17.7447C1.29685 17.7752 0.96775 17.6731 0.712479 17.4609C0.457208 17.2488 0.296678 16.9439 0.266203 16.6133C0.235728 16.2828 0.337805 15.9537 0.549978 15.6984L6.13748 8.99844L0.737479 2.29843C0.584625 2.11495 0.487529 1.89153 0.45768 1.65459C0.42783 1.41766 0.466476 1.17713 0.569046 0.961466C0.671616 0.745806 0.833816 0.564043 1.03645 0.437679C1.23909 0.311317 1.47369 0.245646 1.71248 0.248434Z" fill="currentColor"/>
</svg>
