<svg width="30" height="30" viewBox="0 0 30 30" fill="none" xmlns="http://www.w3.org/2000/svg" color="#1C5579">
<g clip-path="url(#clip0_1748_1528)">
<mask id="mask0_1748_1528" style="mask-type:luminance" maskUnits="userSpaceOnUse" x="0" y="0" width="30" height="30">
<path d="M30 0L0 0L0 30H30V0Z" fill="white"/>
</mask>
<g mask="url(#mask0_1748_1528)">
<path d="M3.85132 17.0346L12.6024 15.2843C13.3838 15.1282 13.3838 14.8741 12.6024 14.718L3.85132 12.9677C3.33007 12.8636 2.82242 12.3555 2.71836 11.8347L0.968043 3.08363C0.811481 2.30175 1.27226 1.93847 1.99648 2.27269L28.7007 14.5975C29.183 14.8202 29.183 15.1821 28.7007 15.4047L1.99648 27.7296C1.27226 28.0638 0.811481 27.7005 0.968043 26.9186L2.71836 18.1675C2.82242 17.6468 3.33007 17.1386 3.85132 17.0346Z" fill="currentColor"/>
</g>
</g>
<defs>
<clipPath id="clip0_1748_1528">
<rect width="30" height="30" fill="white"/>
</clipPath>
</defs>
</svg>
