<svg width="30" height="30" viewBox="0 0 30 30" fill="none" xmlns="http://www.w3.org/2000/svg">
<path d="M28.0788 18.4128C27.9709 17.9761 27.6819 17.6113 27.2852 17.412C26.8948 17.2163 26.4395 17.2014 26.0365 17.3705L20.5333 19.6702C20.3344 19.1346 19.8227 18.75 19.2188 18.75H15.1344L11.9545 16.7624C11.5816 16.5294 11.152 16.4062 10.7124 16.4062H8.35113C8.15701 15.8618 7.64153 15.4688 7.03125 15.4688H6.09375C5.3183 15.4688 4.6875 16.0995 4.6875 16.875V19.2188C4.6875 19.4776 4.89738 19.6875 5.15625 19.6875C5.41512 19.6875 5.625 19.4776 5.625 19.2188V16.875C5.625 16.6166 5.83534 16.4062 6.09375 16.4062H7.03125C7.28966 16.4062 7.5 16.6166 7.5 16.875V23.9063C7.5 24.1647 7.28966 24.375 7.03125 24.375H6.09375C5.83534 24.375 5.625 24.1647 5.625 23.9063V22.9688C5.625 22.7099 5.41512 22.5 5.15625 22.5C4.89738 22.5 4.6875 22.7099 4.6875 22.9688V23.9063C4.6875 24.6817 5.3183 25.3125 6.09375 25.3125H7.03125C7.58369 25.3125 8.05799 24.9895 8.28781 24.5249H9.99847C10.1644 24.5249 10.3265 24.5533 10.4807 24.6094L15.9 26.5782C16.1556 26.6707 16.4236 26.7162 16.691 26.7162C17.1442 26.7162 17.5955 26.5855 17.9826 26.3313L27.4445 20.0576C27.9769 19.6997 28.2323 19.0347 28.0788 18.4128ZM26.9238 19.278C26.9142 19.2844 17.4662 25.5487 17.4662 25.5487C17.0929 25.7941 16.6386 25.8485 16.2193 25.6968L10.8009 23.7282C10.5439 23.6348 10.274 23.5874 9.99848 23.5874H8.4375V17.3438H10.7124C10.9763 17.3438 11.2337 17.4177 11.4576 17.5575L14.7517 19.6163C14.8261 19.6628 14.9121 19.6875 15 19.6875H19.2188C19.4772 19.6875 19.6875 19.8978 19.6875 20.1563C19.6875 20.4147 19.4772 20.625 19.2188 20.625H15C14.7411 20.625 14.5312 20.8349 14.5312 21.0938C14.5312 21.3526 14.7411 21.5625 15 21.5625H19.2188C19.8041 21.5625 20.3061 21.2026 20.5175 20.6928L26.399 18.2352C26.7347 18.095 27.0798 18.3168 27.1717 18.65C27.2356 18.8817 27.1203 19.1477 26.9238 19.278Z" fill="white"/>
<path d="M5.15625 21.5625C5.41513 21.5625 5.625 21.3526 5.625 21.0938C5.625 20.8349 5.41513 20.625 5.15625 20.625C4.89737 20.625 4.6875 20.8349 4.6875 21.0938C4.6875 21.3526 4.89737 21.5625 5.15625 21.5625Z" fill="white"/>
<path d="M18.3826 2.98828V2.98917C18.1265 2.97903 17.8748 3.05776 17.6701 3.21205H17.6692C17.502 3.33924 17.3742 3.51127 17.3007 3.70819C17.2271 3.90512 17.2108 4.11887 17.2537 4.32468H16.3359C16.3067 4.32514 16.2778 4.33137 16.251 4.343C16.2242 4.35463 16.1999 4.37144 16.1795 4.39247C16.1592 4.4135 16.1432 4.43833 16.1324 4.46556C16.1217 4.49278 16.1164 4.52186 16.1168 4.55113L16.1133 4.54578V4.77044H14.1094V4.77312L13.8867 4.77044V15.2459C13.8867 15.305 13.9102 15.3617 13.9519 15.4035C13.9937 15.4453 14.0503 15.4688 14.1094 15.4688H22.5703C22.6294 15.4688 22.686 15.4453 22.7278 15.4035C22.7695 15.3617 22.793 15.305 22.793 15.2459V4.77356L22.5703 4.77133V4.77044H20.5664V4.54489L20.5628 4.54934C20.5633 4.49054 20.5406 4.43392 20.4995 4.39184C20.4585 4.34976 20.4025 4.32562 20.3438 4.32468H19.4286C19.4615 4.16638 19.4594 4.00281 19.4225 3.84539C19.3857 3.68798 19.315 3.5405 19.2154 3.41326C19.1157 3.28601 18.9896 3.18206 18.8456 3.10866C18.7017 3.03526 18.5436 2.99418 18.3821 2.98828H18.3826ZM18.3661 3.43315C18.481 3.43718 18.593 3.47094 18.691 3.53113C18.789 3.59133 18.8698 3.67591 18.9254 3.77665C18.9811 3.87738 19.0097 3.99082 19.0085 4.10592C19.0074 4.22103 18.9764 4.33386 18.9187 4.43344C18.8917 4.4807 18.883 4.53621 18.894 4.5895C18.9051 4.6428 18.9353 4.69019 18.9789 4.72274L18.9798 4.72364C18.988 4.73003 18.9966 4.73584 19.0056 4.74102L19.01 4.7428C19.0434 4.76122 19.081 4.77073 19.1191 4.77044H20.1211V4.95677C20.1171 4.98097 20.1171 5.00567 20.1211 5.02988V5.8483C20.1171 5.8725 20.1171 5.8972 20.1211 5.9214V6.10773H16.5586V5.91962C16.5624 5.896 16.5624 5.87192 16.5586 5.8483V5.02809C16.5624 5.00447 16.5624 4.98039 16.5586 4.95677V4.77044H17.5605C17.6005 4.7711 17.6398 4.76099 17.6745 4.74119C17.7092 4.72139 17.7379 4.69262 17.7577 4.6579C17.7774 4.62317 17.7875 4.58376 17.7868 4.5438C17.7861 4.50385 17.7747 4.4648 17.7538 4.43077C17.7493 4.41638 17.7433 4.40249 17.736 4.38931C17.6697 4.25015 17.6536 4.09229 17.6904 3.94258C17.7273 3.79288 17.8148 3.66059 17.9382 3.56822C18.0609 3.47525 18.2123 3.42754 18.3661 3.43315ZM14.332 5.2162H16.1133V5.66197H15C14.9409 5.66197 14.8843 5.68545 14.8426 5.72725C14.8008 5.76905 14.7773 5.82574 14.7773 5.88485V14.3543C14.7773 14.4135 14.8008 14.4701 14.8426 14.5119C14.8843 14.5537 14.9409 14.5772 15 14.5772H20.3028C20.3437 14.5848 20.3859 14.5808 20.4246 14.5656C20.4633 14.5503 20.497 14.5246 20.5219 14.4912L21.8177 13.1945C21.8499 13.1699 21.8748 13.137 21.8898 13.0993C21.9047 13.0616 21.909 13.0205 21.9023 12.9805V5.88485C21.9023 5.82574 21.8789 5.76905 21.8371 5.72725C21.7954 5.68545 21.7387 5.66197 21.6797 5.66197H20.5664V5.2162H22.3477V15.023H14.332V5.2162ZM15.2227 6.10773H16.1133V6.32883C16.1133 6.37944 16.1304 6.42855 16.162 6.46809C16.1936 6.50762 16.2376 6.53523 16.287 6.54636H16.2932C16.2967 6.54645 16.3003 6.54645 16.3039 6.54636C16.3136 6.5485 16.3234 6.54999 16.3333 6.55082H20.3438C20.4028 6.55082 20.4594 6.52734 20.5012 6.48554C20.5429 6.44374 20.5664 6.38705 20.5664 6.32794V6.10773H21.457V12.7951H20.3438C20.2847 12.7951 20.2281 12.8185 20.1863 12.8603C20.1446 12.9021 20.1211 12.9588 20.1211 13.0179V14.1315H15.2227V6.10773ZM17.231 7.44502C17.1732 7.44655 17.1183 7.47053 17.0778 7.51188L16.3404 8.24516L16.0496 7.95675C15.8394 7.73878 15.5166 8.06374 15.7357 8.27325L16.1827 8.71767C16.2245 8.75918 16.2809 8.78248 16.3397 8.78248C16.3985 8.78248 16.455 8.75918 16.4967 8.71767L17.3909 7.82793C17.4231 7.79673 17.4451 7.75654 17.4541 7.7126C17.4631 7.66867 17.4586 7.62305 17.4413 7.58169C17.424 7.54033 17.3946 7.50516 17.357 7.48077C17.3194 7.45639 17.2754 7.44393 17.2306 7.44502H17.231ZM18.098 7.44502C17.801 7.46017 17.8237 7.90594 18.1203 7.89078H19.4562C19.7577 7.89524 19.7577 7.44056 19.4562 7.44502H18.1203C18.1129 7.44465 18.1055 7.44465 18.098 7.44502ZM18.1034 8.33654C17.8064 8.3517 17.8291 8.79746 18.1256 8.78231H20.7802C21.0816 8.78676 21.0816 8.33209 20.7802 8.33654H18.1261C18.1185 8.33616 18.1109 8.33616 18.1034 8.33654ZM17.2306 9.67383C17.1729 9.67548 17.1182 9.69945 17.0778 9.7407L16.3404 10.474L16.0496 10.1856C15.8394 9.96759 15.5166 10.2926 15.7357 10.5021L16.1827 10.9465C16.2245 10.988 16.2809 11.0113 16.3397 11.0113C16.3985 11.0113 16.455 10.988 16.4967 10.9465L17.3909 10.0567C17.4231 10.0255 17.4451 9.98535 17.4541 9.94142C17.4631 9.89749 17.4586 9.85186 17.4413 9.8105C17.424 9.76914 17.3946 9.73397 17.357 9.70959C17.3194 9.68521 17.2754 9.67274 17.2306 9.67383ZM18.098 9.67383C17.801 9.68899 17.8237 10.1348 18.1203 10.1196H19.4562C19.7577 10.1241 19.7577 9.66938 19.4562 9.67383H18.1203C18.1129 9.67346 18.1055 9.67346 18.098 9.67383ZM18.1034 10.5654C17.8064 10.5805 17.8291 11.0263 18.1256 11.0111H20.7802C21.0816 11.0156 21.0816 10.5609 20.7802 10.5654H18.1261C18.1185 10.565 18.1109 10.565 18.1034 10.5654ZM17.2306 11.9026C17.1729 11.9043 17.1182 11.9283 17.0778 11.9695L16.3404 12.7028L16.0496 12.4144C15.8394 12.1964 15.5166 12.5214 15.7357 12.7309L16.1827 13.1753C16.2245 13.2168 16.2809 13.2401 16.3397 13.2401C16.3985 13.2401 16.455 13.2168 16.4967 13.1753L17.3909 12.2856C17.4231 12.2544 17.4451 12.2142 17.4541 12.1702C17.4631 12.1263 17.4586 12.0807 17.4413 12.0393C17.424 11.998 17.3946 11.9628 17.357 11.9384C17.3194 11.914 17.2754 11.9016 17.2306 11.9026ZM18.098 11.9026C17.801 11.9178 17.8237 12.3636 18.1203 12.3484H19.4562C19.7577 12.3529 19.7577 11.8982 19.4562 11.9026H18.1203C18.1129 11.9023 18.1055 11.9023 18.098 11.9026ZM18.1034 12.7942C17.8064 12.8093 17.8291 13.2551 18.1256 13.2399H19.4442C19.7457 13.2444 19.7457 12.7897 19.4442 12.7942H18.1261C18.1185 12.7938 18.1109 12.7938 18.1034 12.7942ZM20.5664 13.2408H21.1422L20.5664 13.8163V13.2408Z" fill="white"/>
</svg>
