<svg width="23" height="22" viewBox="0 0 23 22" fill="none" xmlns="http://www.w3.org/2000/svg">
<g id="Cai &#196;&#145;&#225;&#186;&#183;t 1" clip-path="url(#clip0_5055_331)">
<g id="Layer_x0020_1">
<g id="_2687558008416">
<path id="Vector" fill-rule="evenodd" clip-rule="evenodd" d="M7.72914 4.55467C7.84612 4.55467 8.58794 4.17971 8.84693 4.0755C9.02353 4.00425 9.23191 3.93412 9.42172 3.87321C10.1121 3.65109 9.9113 3.38286 10.0946 2.13534C10.2957 0.766278 9.90005 1.03143 12.7459 1.03143C13.1921 1.03143 13.1685 1.60252 13.2295 2.0979L13.4196 3.49882C13.4843 3.71731 13.6286 3.78297 13.842 3.85254L14.9952 4.2965C15.7239 4.65302 15.5939 4.70778 16.4277 4.04532C16.6904 3.83661 16.9356 3.64522 17.2064 3.44405C17.4687 3.24931 17.7336 2.93582 18.0975 3.23339C18.3211 3.41639 18.5939 3.72681 18.8112 3.94278C19.7055 4.83128 19.9518 4.86564 19.3959 5.53341L18.4873 6.6932C18.0157 7.2548 18.3067 7.2738 18.7204 8.28662C18.7921 8.46209 18.8627 8.66912 18.924 8.85772C18.996 9.07817 19.048 9.25335 19.2682 9.33214C19.4932 9.41317 20.9231 9.547 21.3606 9.61657C21.6081 9.65597 21.7844 9.74761 21.7844 10.0119V12.1605C21.7844 12.4078 21.6199 12.5117 21.398 12.55C21.1706 12.5894 20.9641 12.6101 20.7111 12.6408L19.3011 12.8297C19.0812 12.8939 19.0151 13.0373 18.9451 13.2493L18.4982 14.3952C18.1394 15.1191 18.0843 14.99 18.751 15.8184C18.9617 16.0799 19.1461 16.3303 19.3565 16.5918C19.9563 17.3367 19.7263 17.3202 18.8542 18.1863C17.96 19.0748 17.9254 19.3196 17.2533 18.7672L16.086 17.8645C15.4522 17.3389 15.4396 17.8055 13.9075 18.2984C13.3094 18.4909 13.4208 18.6348 13.3268 19.3112L13.1438 20.7191C13.1041 20.965 13.0119 21.1402 12.7459 21.1402C9.90568 21.1402 10.2881 21.3732 10.1003 20.0734C9.76901 17.7846 10.2203 18.7982 8.33401 17.8751C7.57419 17.5032 7.74938 17.4823 6.95047 18.0888C6.69879 18.2797 5.83521 19.0346 5.61024 19.0346C5.22217 19.0346 5.23117 18.9374 4.95081 18.6585L4.04251 17.7561C3.90078 17.6153 3.66935 17.4493 3.63729 17.2143C3.60692 16.9933 3.81867 16.7762 3.93368 16.6379C4.18508 16.3362 5.09141 15.2468 5.09141 14.995C5.09141 14.8472 4.92831 14.5846 4.86054 14.451C4.76493 14.2627 4.68844 14.0792 4.60914 13.8844C4.53744 13.709 4.46685 13.5019 4.40555 13.3133C4.19549 12.6687 3.87632 12.7875 2.66178 12.6397C2.41629 12.6098 2.18233 12.5886 1.96917 12.5545C1.72171 12.5151 1.54539 12.4234 1.54539 12.1591V10.0105C1.54539 9.55426 2.14971 9.59254 2.66178 9.52996C4.90722 9.2567 3.9618 9.49084 4.84648 7.74738C5.17606 7.0975 5.24439 7.16232 4.55909 6.32858C4.34143 6.06371 4.17074 5.81924 3.95365 5.5552C3.37099 4.84664 3.61733 4.83659 4.49694 3.96262C5.36137 3.10374 5.39877 2.84642 6.0762 3.40326L7.24377 4.30572C7.37285 4.41246 7.51654 4.55355 7.72942 4.55355L7.72914 4.55467ZM7.77244 3.5234C6.83265 2.8981 5.83999 1.5377 4.65104 2.48459L3.02735 4.09394C2.76133 4.40491 2.62776 4.80781 2.72955 5.31045C2.81504 5.73234 3.11059 5.99889 3.33668 6.29757L4.05292 7.21876C3.24782 8.73059 4.09003 8.37799 2.38508 8.61241C1.85556 8.68505 1.49646 8.69203 1.15423 8.93623C0.911551 9.10974 0.593506 9.52241 0.593506 9.92587V12.2463C0.593506 12.6319 0.892148 13.0395 1.12949 13.2178C1.46075 13.4667 1.83447 13.4893 2.34177 13.5603L3.38392 13.6849C3.56952 13.7238 3.53549 13.6953 3.59848 13.8587C3.75512 14.2669 3.83639 14.5458 4.05348 14.9537C3.42892 15.8805 2.05691 16.876 3.00795 18.055L4.6277 19.6683C5.11194 20.0771 5.83717 20.1293 6.38328 19.7177L7.77272 18.649C9.14557 19.3707 8.97938 18.8167 9.08287 19.6247C9.15992 20.2249 9.22009 21.1407 9.5013 21.5294C9.67593 21.7705 10.0913 22.0865 10.4973 22.0865H12.8328C13.2208 22.0865 13.6311 21.7898 13.8105 21.554C14.1958 21.0477 14.1533 19.9139 14.2807 19.314C14.3198 19.1296 14.2911 19.1634 14.4556 19.1008C14.68 19.0159 14.8108 18.9865 15.0239 18.8921C15.2247 18.803 15.3794 18.7426 15.5577 18.649L16.4598 19.3425C16.7826 19.5817 17.0191 19.8558 17.4794 19.9628C18.4341 20.1846 18.9299 19.4448 19.5041 18.8745C20.1309 18.2517 20.7982 17.8374 20.6005 16.8617C20.5283 16.5046 20.2406 16.1635 19.9988 15.8693L19.2769 14.9534C19.7122 14.1364 19.6309 13.7699 19.9107 13.6925L20.9442 13.5589C21.5063 13.477 21.7993 13.5047 22.1759 13.2356C22.4185 13.0621 22.7366 12.6495 22.7366 12.246V9.92559C22.7366 9.54002 22.438 9.13237 22.2006 8.95411C21.6649 8.55177 20.4535 8.60598 19.9465 8.48668C19.7811 8.44784 19.798 8.45259 19.7358 8.30926C19.5587 7.89993 19.5775 7.78314 19.2769 7.21848C19.9015 6.2917 21.2735 5.2962 20.3224 4.11713C20.1166 3.86204 19.7519 3.5438 19.5041 3.29737C18.8773 2.67458 18.4603 2.01157 17.4783 2.20798C16.9404 2.31555 16.0779 3.17695 15.5577 3.52312C14.8423 3.14705 14.3746 3.15851 14.2897 2.89224C14.1938 2.58965 14.1994 1.15492 13.8291 0.643062C13.6544 0.40194 13.2391 0.0859375 12.833 0.0859375H10.4976C10.1096 0.0859375 9.69927 0.382661 9.51986 0.618475C9.25637 0.964652 9.25496 1.30049 9.18157 1.82912C9.14726 2.07499 9.12224 2.27001 9.08877 2.5103C8.96588 3.39236 9.18776 2.77964 7.773 3.5234H7.77244Z" fill="white"/>
<path id="Vector_2" fill-rule="evenodd" clip-rule="evenodd" d="M7.98868 11.1252C7.98868 9.04145 9.61068 7.42987 11.7079 7.42987C13.6899 7.42987 15.3406 9.05011 15.3406 11.1252C15.3406 13.0944 13.7098 14.7345 11.6213 14.7345C9.64836 14.7345 7.98868 13.0855 7.98868 11.1252ZM7.03735 11.0392C7.03735 13.6309 9.10085 15.6797 11.7079 15.6797C14.1986 15.6797 16.2922 13.6233 16.2922 11.0392C16.2922 8.55976 14.2273 6.48438 11.6216 6.48438C9.13319 6.48438 7.03735 8.56647 7.03735 11.0392Z" fill="white"/>
</g>
</g>
</g>
<defs>
<clipPath id="clip0_5055_331">
<rect width="22.1422" height="22" fill="white" transform="translate(0.676758)"/>
</clipPath>
</defs>
</svg>
