<svg width="26" height="26" viewBox="0 0 26 26" fill="none" xmlns="http://www.w3.org/2000/svg">
<path d="M24.65 9.9375L22.2875 9.15L23.4 6.925C23.5128 6.69211 23.5505 6.42996 23.508 6.17472C23.4654 5.91948 23.3447 5.68373 23.1625 5.5L20.5 2.8375C20.3153 2.65261 20.0773 2.53026 19.8194 2.48766C19.5616 2.44506 19.2969 2.48435 19.0625 2.6L16.8375 3.7125L16.05 1.35C15.9668 1.10374 15.809 0.889536 15.5984 0.737189C15.3878 0.584842 15.1349 0.501935 14.875 0.500004H11.125C10.8629 0.499328 10.6073 0.581028 10.3942 0.733557C10.1811 0.886085 10.0214 1.10173 9.9375 1.35L9.15 3.7125L6.925 2.6C6.69211 2.48723 6.42996 2.44951 6.17472 2.49205C5.91948 2.53459 5.68373 2.65529 5.5 2.8375L2.8375 5.5C2.65261 5.68471 2.53026 5.92272 2.48766 6.18057C2.44506 6.43842 2.48435 6.70314 2.6 6.9375L3.7125 9.1625L1.35 9.95C1.10374 10.0332 0.889536 10.191 0.737189 10.4016C0.584842 10.6122 0.501935 10.8651 0.500004 11.125V14.875C0.499328 15.1371 0.581028 15.3927 0.733557 15.6058C0.886085 15.8189 1.10173 15.9786 1.35 16.0625L3.7125 16.85L2.6 19.075C2.48723 19.3079 2.44951 19.57 2.49205 19.8253C2.53459 20.0805 2.65529 20.3163 2.8375 20.5L5.5 23.1625C5.68471 23.3474 5.92272 23.4697 6.18057 23.5123C6.43842 23.5549 6.70314 23.5157 6.9375 23.4L9.1625 22.2875L9.95 24.65C10.0339 24.8983 10.1936 25.1139 10.4067 25.2665C10.6198 25.419 10.8754 25.5007 11.1375 25.5H14.8875C15.1496 25.5007 15.4052 25.419 15.6183 25.2665C15.8314 25.1139 15.9911 24.8983 16.075 24.65L16.8625 22.2875L19.0875 23.4C19.3189 23.5099 19.5785 23.5461 19.8311 23.5036C20.0838 23.4611 20.3173 23.3421 20.5 23.1625L23.1625 20.5C23.3474 20.3153 23.4697 20.0773 23.5123 19.8194C23.5549 19.5616 23.5157 19.2969 23.4 19.0625L22.2875 16.8375L24.65 16.05C24.8963 15.9668 25.1105 15.809 25.2628 15.5984C25.4152 15.3878 25.4981 15.1349 25.5 14.875V11.125C25.5007 10.8629 25.419 10.6073 25.2665 10.3942C25.1139 10.1811 24.8983 10.0214 24.65 9.9375ZM23 13.975L21.5 14.475C21.1551 14.5869 20.8386 14.7725 20.5726 15.0189C20.3065 15.2653 20.0973 15.5666 19.9593 15.902C19.8214 16.2373 19.758 16.5987 19.7737 16.961C19.7894 17.3233 19.8836 17.6778 20.05 18L20.7625 19.425L19.3875 20.8L18 20.05C17.6794 19.8903 17.3283 19.8013 16.9704 19.7891C16.6125 19.7769 16.2561 19.8418 15.9254 19.9792C15.5947 20.1167 15.2974 20.3237 15.0537 20.586C14.8099 20.8484 14.6253 21.1601 14.5125 21.5L14.0125 23H12.025L11.525 21.5C11.4131 21.1551 11.2275 20.8386 10.9811 20.5726C10.7347 20.3065 10.4334 20.0973 10.098 19.9593C9.76267 19.8214 9.40132 19.758 9.03903 19.7737C8.67675 19.7894 8.32221 19.8836 8 20.05L6.575 20.7625L5.2 19.3875L5.95 18C6.11637 17.6778 6.21065 17.3233 6.22631 16.961C6.24197 16.5987 6.17863 16.2373 6.04068 15.902C5.90273 15.5666 5.69348 15.2653 5.42743 15.0189C5.16139 14.7725 4.84493 14.5869 4.5 14.475L3 13.975V12.025L4.5 11.525C4.84493 11.4131 5.16139 11.2275 5.42743 10.9811C5.69348 10.7347 5.90273 10.4334 6.04068 10.098C6.17863 9.76267 6.24197 9.40132 6.22631 9.03903C6.21065 8.67675 6.11637 8.32221 5.95 8L5.2375 6.6125L6.6125 5.2375L8 5.95C8.32221 6.11637 8.67675 6.21065 9.03903 6.22631C9.40132 6.24197 9.76267 6.17863 10.098 6.04068C10.4334 5.90273 10.7347 5.69348 10.9811 5.42743C11.2275 5.16139 11.4131 4.84493 11.525 4.5L12.025 3H13.975L14.475 4.5C14.5869 4.84493 14.7725 5.16139 15.0189 5.42743C15.2653 5.69348 15.5666 5.90273 15.902 6.04068C16.2373 6.17863 16.5987 6.24197 16.961 6.22631C17.3233 6.21065 17.6778 6.11637 18 5.95L19.425 5.2375L20.8 6.6125L20.05 8C19.8903 8.32056 19.8013 8.67169 19.7891 9.02961C19.7769 9.38754 19.8418 9.74391 19.9792 10.0746C20.1167 10.4053 20.3237 10.7026 20.586 10.9464C20.8484 11.1901 21.1601 11.3747 21.5 11.4875L23 11.9875V13.975ZM13 8C12.0111 8 11.0444 8.29325 10.2222 8.84266C9.39991 9.39206 8.75904 10.173 8.38061 11.0866C8.00217 12.0002 7.90315 13.0055 8.09608 13.9755C8.289 14.9454 8.76521 15.8363 9.46447 16.5355C10.1637 17.2348 11.0546 17.711 12.0246 17.9039C12.9945 18.0969 13.9998 17.9978 14.9134 17.6194C15.8271 17.241 16.6079 16.6001 17.1574 15.7779C17.7068 14.9556 18 13.9889 18 13C18 11.6739 17.4732 10.4022 16.5355 9.46447C15.5979 8.52679 14.3261 8 13 8ZM13 15.5C12.5055 15.5 12.0222 15.3534 11.6111 15.0787C11.2 14.804 10.8795 14.4135 10.6903 13.9567C10.5011 13.4999 10.4516 12.9972 10.548 12.5123C10.6445 12.0273 10.8826 11.5819 11.2322 11.2322C11.5819 10.8826 12.0273 10.6445 12.5123 10.548C12.9972 10.4516 13.4999 10.5011 13.9567 10.6903C14.4135 10.8795 14.804 11.2 15.0787 11.6111C15.3534 12.0222 15.5 12.5055 15.5 13C15.5 13.663 15.2366 14.2989 14.7678 14.7678C14.2989 15.2366 13.663 15.5 13 15.5Z" fill="white"/>
</svg>
