<svg width="150" height="150" viewBox="0 0 150 150" fill="none" xmlns="http://www.w3.org/2000/svg">
<g filter="url(#filter0_d_398_10)">
<path d="M141.791 98.66C142.437 99.5794 142.204 100.858 141.263 101.472C130.663 108.388 119.218 113.435 107.938 116.157C101.269 117.767 94.7852 118.533 88.6827 118.452C86.3845 118.422 86.4091 115.104 88.62 114.466C94.5055 112.768 100.454 110.147 106.146 106.707C115.35 101.143 123.383 93.7384 129.164 85.5261C129.983 84.3634 131.711 84.3224 132.527 85.483L141.791 98.66Z" fill="url(#paint0_linear_398_10)"/>
<path d="M141.128 101.261C130.55 108.163 119.131 113.198 107.881 115.913C101.229 117.519 94.7663 118.282 88.6865 118.201C88.1761 118.195 87.8152 118.008 87.5791 117.74C87.3392 117.467 87.2117 117.091 87.2096 116.685C87.2053 115.869 87.7042 114.991 88.6881 114.707C94.5958 113.003 100.564 110.373 106.273 106.922C115.506 101.342 123.565 93.9134 129.367 85.6708C130.092 84.6422 131.612 84.6157 132.324 85.6283L141.587 98.8053C142.153 99.6106 141.947 100.726 141.128 101.261Z" stroke="white" stroke-width="0.5"/>
</g>
<g filter="url(#filter1_d_398_10)">
<path d="M8.18198 98.6325C7.53397 99.5507 7.76484 100.829 8.70457 101.445C19.2905 108.381 30.7251 113.449 41.9996 116.193C48.6651 117.815 55.1465 118.593 61.2486 118.524C63.5468 118.498 63.5285 115.18 61.3188 114.538C55.4371 112.829 49.494 110.197 43.8095 106.747C34.6159 101.166 26.5977 93.7461 20.8318 85.5235C20.0155 84.3593 18.2869 84.315 17.4688 85.4742L8.18198 98.6325Z" fill="url(#paint1_linear_398_10)"/>
<path d="M8.8401 101.235C19.4044 108.156 30.813 113.213 42.0576 115.949C48.7052 117.567 55.1659 118.342 61.2452 118.273C61.7556 118.267 62.1169 118.081 62.3535 117.813C62.5939 117.541 62.7221 117.166 62.725 116.759C62.7308 115.944 62.2336 115.065 61.2502 114.779C55.3463 113.063 49.3832 110.423 43.6812 106.961C34.46 101.364 26.4155 93.9208 20.6284 85.6679C19.9062 84.6379 18.3857 84.6086 17.672 85.6198L8.38518 98.7781C7.81752 99.5825 8.02162 100.699 8.8401 101.235Z" stroke="white" stroke-width="0.5"/>
</g>
<path d="M104.633 19.1584C105.463 19.1584 106.136 18.4801 106.136 17.6435C106.136 16.8069 105.463 16.1287 104.633 16.1287C103.802 16.1287 103.129 16.8069 103.129 17.6435C103.129 18.4801 103.802 19.1584 104.633 19.1584Z" fill="url(#paint2_linear_398_10)"/>
<path d="M58.0307 11.0791C57.8094 11.1313 57.9043 11.1915 57.6605 11.1915C57.4765 11.1915 57.2026 11.1092 57.0285 11.0791L51.0154 21.8845L58.904 28.2474L64.8205 19.4325L58.0307 11.0791ZM93.1076 11.0791C92.9335 11.1092 92.6621 11.1915 92.4781 11.1915C92.2343 11.1915 92.3267 11.1313 92.1054 11.0791L85.3181 19.4325L91.2346 28.2474L99.1207 21.8845L93.1076 11.0791Z" fill="url(#paint3_linear_398_10)"/>
<path d="M45.5033 19.1584C46.3335 19.1584 47.0066 18.4801 47.0066 17.6435C47.0066 16.8069 46.3335 16.1287 45.5033 16.1287C44.673 16.1287 44 16.8069 44 17.6435C44 18.4801 44.673 19.1584 45.5033 19.1584Z" fill="url(#paint4_linear_398_10)"/>
<path d="M75.0681 7.03959C76.1751 7.03959 77.0725 6.1353 77.0725 5.01979C77.0725 3.90429 76.1751 3 75.0681 3C73.9611 3 73.0637 3.90429 73.0637 5.01979C73.0637 6.1353 73.9611 7.03959 75.0681 7.03959Z" fill="url(#paint5_linear_398_10)"/>
<path d="M103.984 17.3437L91.0057 27.674L76.2769 6.02979C75.8968 6.13713 75.4947 6.20544 75.068 6.20544C74.6414 6.20544 74.2393 6.13713 73.8592 6.02979L59.1303 27.674L46.1522 17.3437C45.8304 17.5831 45.4329 17.7484 45.0022 17.8219L50.8754 36.3267L75.068 34.3069L97.9529 36.3267L105.134 17.8219C104.703 17.7484 104.306 17.5831 103.984 17.3437Z" fill="url(#paint6_linear_398_10)"/>
<path d="M92.6063 12.089C93.4366 12.089 94.1096 11.4108 94.1096 10.5742C94.1096 9.73755 93.4366 9.05933 92.6063 9.05933C91.7761 9.05933 91.103 9.73755 91.103 10.5742C91.103 11.4108 91.7761 12.089 92.6063 12.089Z" fill="url(#paint7_linear_398_10)"/>
<path d="M57.5297 12.089C58.3599 12.089 59.033 11.4108 59.033 10.5742C59.033 9.73755 58.3599 9.05933 57.5297 9.05933C56.6994 9.05933 56.0264 9.73755 56.0264 10.5742C56.0264 11.4108 56.6994 12.089 57.5297 12.089Z" fill="url(#paint8_linear_398_10)"/>
<g filter="url(#filter2_d_398_10)">
<mask id="path-12-outside-1_398_10" maskUnits="userSpaceOnUse" x="29" y="29" width="92" height="92" fill="black">
<rect fill="white" x="29" y="29" width="92" height="92"/>
<path d="M120 75C120 99.8528 99.8528 120 75 120C50.1472 120 30 99.8528 30 75C30 50.1472 50.1472 30 75 30C99.8528 30 120 50.1472 120 75ZM35.3969 75C35.3969 96.8722 53.1278 114.603 75 114.603C96.8722 114.603 114.603 96.8722 114.603 75C114.603 53.1278 96.8722 35.3969 75 35.3969C53.1278 35.3969 35.3969 53.1278 35.3969 75Z"/>
</mask>
<path d="M120 75C120 99.8528 99.8528 120 75 120C50.1472 120 30 99.8528 30 75C30 50.1472 50.1472 30 75 30C99.8528 30 120 50.1472 120 75ZM35.3969 75C35.3969 96.8722 53.1278 114.603 75 114.603C96.8722 114.603 114.603 96.8722 114.603 75C114.603 53.1278 96.8722 35.3969 75 35.3969C53.1278 35.3969 35.3969 53.1278 35.3969 75Z" fill="url(#paint9_linear_398_10)"/>
<path d="M120 75C120 99.8528 99.8528 120 75 120C50.1472 120 30 99.8528 30 75C30 50.1472 50.1472 30 75 30C99.8528 30 120 50.1472 120 75ZM35.3969 75C35.3969 96.8722 53.1278 114.603 75 114.603C96.8722 114.603 114.603 96.8722 114.603 75C114.603 53.1278 96.8722 35.3969 75 35.3969C53.1278 35.3969 35.3969 53.1278 35.3969 75Z" stroke="white" mask="url(#path-12-outside-1_398_10)"/>
</g>
<g filter="url(#filter3_d_398_10)">
<path d="M75.3917 111.408C75.5044 110.05 76.5183 108.938 77.8604 108.701L80.8625 108.172C82.2046 107.935 83.5376 108.633 84.108 109.871L88.5226 119.45C89.346 121.236 88.2562 123.318 86.319 123.66L78.0301 125.121C76.093 125.463 74.3568 123.879 74.5194 121.919L75.3917 111.408Z" fill="url(#paint10_linear_398_10)"/>
</g>
<g filter="url(#filter4_d_398_10)">
<path d="M65.728 109.871C66.2984 108.633 67.6314 107.936 68.9735 108.172L71.9755 108.701C73.3176 108.938 74.3316 110.05 74.4443 111.408L75.3165 121.919C75.4792 123.879 73.743 125.463 71.8059 125.121L63.5169 123.66C61.5798 123.318 60.49 121.236 61.3133 119.45L65.728 109.871Z" fill="url(#paint11_linear_398_10)"/>
</g>
<g filter="url(#filter5_d_398_10)">
<path d="M70.1329 110.167C70.4797 108.849 71.6713 107.931 73.0341 107.931H76.9351C78.2979 107.931 79.4895 108.849 79.8363 110.167L82.9942 122.167C83.4948 124.069 82.06 125.931 80.093 125.931H69.8762C67.9092 125.931 66.4744 124.069 66.975 122.167L70.1329 110.167Z" fill="url(#paint12_linear_398_10)"/>
</g>
<g filter="url(#filter6_d_398_10)">
<path d="M45.5607 43.6405C41.8113 50.0395 41.8114 52.2558 45.5617 58.6553C45.567 58.6659 45.5688 58.678 45.567 58.6897C45.5651 58.7014 45.5596 58.7123 45.5513 58.7207C45.543 58.7291 45.5322 58.7346 45.5206 58.7365C45.5089 58.7383 45.497 58.7365 45.4865 58.7311C39.1318 54.956 36.9324 54.9559 30.5822 58.7341C30.5717 58.7395 30.5598 58.7413 30.5482 58.7395C30.5365 58.7376 30.5258 58.732 30.5174 58.7236C30.5091 58.7152 30.5036 58.7044 30.5017 58.6927C30.4999 58.681 30.5017 58.6689 30.507 58.6583C34.2545 52.2573 34.2543 50.041 30.5061 43.6395C30.5008 43.6289 30.4989 43.6169 30.5008 43.6052C30.5026 43.5935 30.5081 43.5826 30.5164 43.5742C30.5248 43.5658 30.5355 43.5603 30.5472 43.5584C30.5588 43.5565 30.5707 43.5584 30.5812 43.5638C36.9339 47.3408 39.1333 47.341 45.4855 43.5648C45.496 43.5594 45.5079 43.5575 45.5196 43.5594C45.5312 43.5613 45.542 43.5668 45.5503 43.5752C45.5586 43.5836 45.5641 43.5945 45.566 43.6062C45.5679 43.6179 45.566 43.6299 45.5607 43.6405Z" fill="white"/>
<path d="M38.0335 46.6477C40.0943 46.6478 42.1359 45.7986 44.9747 44.155C43.3429 47.0147 42.4996 49.0716 42.4998 51.1478C42.4999 53.224 43.3435 55.2811 44.9758 58.1411C42.1358 56.498 40.0935 55.6488 38.0327 55.6492C35.9719 55.6495 33.9307 56.4993 31.0928 58.1436C32.7238 55.283 33.5666 53.2257 33.5665 51.1491C33.5663 49.0724 32.7232 47.0149 31.0917 44.1539C33.9309 45.798 35.9727 46.6476 38.0335 46.6477Z" stroke="#F3F3F3" stroke-width="0.5"/>
</g>
<g filter="url(#filter7_d_398_10)">
<path d="M50.0175 51.4979C42.2745 53.5072 40.5884 55.2065 38.5947 63.01C38.5907 63.0223 38.583 63.0329 38.5726 63.0405C38.5623 63.048 38.5498 63.0521 38.5371 63.0521C38.5243 63.0521 38.5118 63.048 38.5015 63.0405C38.4911 63.0329 38.4834 63.0223 38.4794 63.01C36.4797 55.2065 34.7936 53.5072 27.0505 51.4979C27.0384 51.4939 27.0278 51.4861 27.0203 51.4757C27.0128 51.4652 27.0088 51.4527 27.0088 51.4398C27.0088 51.4269 27.0128 51.4144 27.0203 51.404C27.0278 51.3935 27.0384 51.3857 27.0505 51.3817C34.7936 49.3694 36.4797 47.6701 38.4764 39.8665C38.4804 39.8543 38.4881 39.8436 38.4985 39.8361C38.5088 39.8285 38.5213 39.8245 38.534 39.8245C38.5468 39.8245 38.5593 39.8285 38.5696 39.8361C38.58 39.8436 38.5877 39.8543 38.5917 39.8665C40.5884 47.6701 42.2745 49.3694 50.0175 51.3817C50.0297 51.3857 50.0402 51.3935 50.0477 51.404C50.0552 51.4144 50.0593 51.4269 50.0593 51.4398C50.0593 51.4527 50.0552 51.4652 50.0477 51.4757C50.0402 51.4861 50.0297 51.4939 50.0175 51.4979Z" fill="white"/>
<path d="M41.9723 47.9719C43.5603 49.5723 45.7891 50.4994 49.2607 51.4397C45.7891 52.3786 43.5603 53.305 41.9727 54.905C40.3864 56.5037 39.4677 58.7472 38.5368 62.2412C37.6032 58.7471 36.6831 56.5036 35.0961 54.905C33.5078 53.305 31.2789 52.3786 27.8074 51.4397C31.279 50.4994 33.5078 49.5723 35.0958 47.9719C36.6824 46.3729 37.6018 44.1294 38.534 40.6353C39.4663 44.1294 40.3857 46.3729 41.9723 47.9719Z" stroke="#F3F3F3" stroke-width="0.5"/>
</g>
<defs>
<filter id="filter0_d_398_10" x="84.9604" y="84.6331" width="59.1953" height="37.825" filterUnits="userSpaceOnUse" color-interpolation-filters="sRGB">
<feFlood flood-opacity="0" result="BackgroundImageFix"/>
<feColorMatrix in="SourceAlpha" type="matrix" values="0 0 0 0 0 0 0 0 0 0 0 0 0 0 0 0 0 0 127 0" result="hardAlpha"/>
<feOffset dy="2"/>
<feGaussianBlur stdDeviation="1"/>
<feComposite in2="hardAlpha" operator="out"/>
<feColorMatrix type="matrix" values="0 0 0 0 0 0 0 0 0 0 0 0 0 0 0 0 0 0 0.25 0"/>
<feBlend mode="normal" in2="BackgroundImageFix" result="effect1_dropShadow_398_10"/>
<feBlend mode="normal" in="SourceGraphic" in2="effect1_dropShadow_398_10" result="shape"/>
</filter>
<filter id="filter1_d_398_10" x="5.8147" y="84.6272" width="59.1594" height="37.9009" filterUnits="userSpaceOnUse" color-interpolation-filters="sRGB">
<feFlood flood-opacity="0" result="BackgroundImageFix"/>
<feColorMatrix in="SourceAlpha" type="matrix" values="0 0 0 0 0 0 0 0 0 0 0 0 0 0 0 0 0 0 127 0" result="hardAlpha"/>
<feOffset dy="2"/>
<feGaussianBlur stdDeviation="1"/>
<feComposite in2="hardAlpha" operator="out"/>
<feColorMatrix type="matrix" values="0 0 0 0 0 0 0 0 0 0 0 0 0 0 0 0 0 0 0.25 0"/>
<feBlend mode="normal" in2="BackgroundImageFix" result="effect1_dropShadow_398_10"/>
<feBlend mode="normal" in="SourceGraphic" in2="effect1_dropShadow_398_10" result="shape"/>
</filter>
<filter id="filter2_d_398_10" x="28.5" y="29.5" width="93" height="93" filterUnits="userSpaceOnUse" color-interpolation-filters="sRGB">
<feFlood flood-opacity="0" result="BackgroundImageFix"/>
<feColorMatrix in="SourceAlpha" type="matrix" values="0 0 0 0 0 0 0 0 0 0 0 0 0 0 0 0 0 0 127 0" result="hardAlpha"/>
<feOffset dy="1"/>
<feGaussianBlur stdDeviation="0.5"/>
<feComposite in2="hardAlpha" operator="out"/>
<feColorMatrix type="matrix" values="0 0 0 0 0 0 0 0 0 0 0 0 0 0 0 0 0 0 0.25 0"/>
<feBlend mode="normal" in2="BackgroundImageFix" result="effect1_dropShadow_398_10"/>
<feBlend mode="normal" in="SourceGraphic" in2="effect1_dropShadow_398_10" result="shape"/>
</filter>
<filter id="filter3_d_398_10" x="73.5088" y="108.126" width="16.2913" height="19.0417" filterUnits="userSpaceOnUse" color-interpolation-filters="sRGB">
<feFlood flood-opacity="0" result="BackgroundImageFix"/>
<feColorMatrix in="SourceAlpha" type="matrix" values="0 0 0 0 0 0 0 0 0 0 0 0 0 0 0 0 0 0 127 0" result="hardAlpha"/>
<feOffset dy="1"/>
<feGaussianBlur stdDeviation="0.5"/>
<feComposite in2="hardAlpha" operator="out"/>
<feColorMatrix type="matrix" values="0 0 0 0 0 0 0 0 0 0 0 0 0 0 0 0 0 0 0.25 0"/>
<feBlend mode="normal" in2="BackgroundImageFix" result="effect1_dropShadow_398_10"/>
<feBlend mode="normal" in="SourceGraphic" in2="effect1_dropShadow_398_10" result="shape"/>
</filter>
<filter id="filter4_d_398_10" x="60.0359" y="108.126" width="16.2913" height="19.0415" filterUnits="userSpaceOnUse" color-interpolation-filters="sRGB">
<feFlood flood-opacity="0" result="BackgroundImageFix"/>
<feColorMatrix in="SourceAlpha" type="matrix" values="0 0 0 0 0 0 0 0 0 0 0 0 0 0 0 0 0 0 127 0" result="hardAlpha"/>
<feOffset dy="1"/>
<feGaussianBlur stdDeviation="0.5"/>
<feComposite in2="hardAlpha" operator="out"/>
<feColorMatrix type="matrix" values="0 0 0 0 0 0 0 0 0 0 0 0 0 0 0 0 0 0 0.25 0"/>
<feBlend mode="normal" in2="BackgroundImageFix" result="effect1_dropShadow_398_10"/>
<feBlend mode="normal" in="SourceGraphic" in2="effect1_dropShadow_398_10" result="shape"/>
</filter>
<filter id="filter5_d_398_10" x="65.8745" y="107.931" width="18.2202" height="20" filterUnits="userSpaceOnUse" color-interpolation-filters="sRGB">
<feFlood flood-opacity="0" result="BackgroundImageFix"/>
<feColorMatrix in="SourceAlpha" type="matrix" values="0 0 0 0 0 0 0 0 0 0 0 0 0 0 0 0 0 0 127 0" result="hardAlpha"/>
<feOffset dy="1"/>
<feGaussianBlur stdDeviation="0.5"/>
<feComposite in2="hardAlpha" operator="out"/>
<feColorMatrix type="matrix" values="0 0 0 0 0 0 0 0 0 0 0 0 0 0 0 0 0 0 0.25 0"/>
<feBlend mode="normal" in2="BackgroundImageFix" result="effect1_dropShadow_398_10"/>
<feBlend mode="normal" in="SourceGraphic" in2="effect1_dropShadow_398_10" result="shape"/>
</filter>
<filter id="filter6_d_398_10" x="28.5" y="43.5576" width="19.0676" height="19.1826" filterUnits="userSpaceOnUse" color-interpolation-filters="sRGB">
<feFlood flood-opacity="0" result="BackgroundImageFix"/>
<feColorMatrix in="SourceAlpha" type="matrix" values="0 0 0 0 0 0 0 0 0 0 0 0 0 0 0 0 0 0 127 0" result="hardAlpha"/>
<feOffset dy="2"/>
<feGaussianBlur stdDeviation="1"/>
<feComposite in2="hardAlpha" operator="out"/>
<feColorMatrix type="matrix" values="0 0 0 0 1 0 0 0 0 1 0 0 0 0 1 0 0 0 1 0"/>
<feBlend mode="normal" in2="BackgroundImageFix" result="effect1_dropShadow_398_10"/>
<feBlend mode="normal" in="SourceGraphic" in2="effect1_dropShadow_398_10" result="shape"/>
</filter>
<filter id="filter7_d_398_10" x="25.0088" y="39.8245" width="27.0505" height="27.2275" filterUnits="userSpaceOnUse" color-interpolation-filters="sRGB">
<feFlood flood-opacity="0" result="BackgroundImageFix"/>
<feColorMatrix in="SourceAlpha" type="matrix" values="0 0 0 0 0 0 0 0 0 0 0 0 0 0 0 0 0 0 127 0" result="hardAlpha"/>
<feOffset dy="2"/>
<feGaussianBlur stdDeviation="1"/>
<feComposite in2="hardAlpha" operator="out"/>
<feColorMatrix type="matrix" values="0 0 0 0 1 0 0 0 0 1 0 0 0 0 1 0 0 0 1 0"/>
<feBlend mode="normal" in2="BackgroundImageFix" result="effect1_dropShadow_398_10"/>
<feBlend mode="normal" in="SourceGraphic" in2="effect1_dropShadow_398_10" result="shape"/>
</filter>
<linearGradient id="paint0_linear_398_10" x1="135.47" y1="89.6684" x2="82.3792" y2="126.99" gradientUnits="userSpaceOnUse">
<stop stop-color="#B1C3CC"/>
<stop offset="1" stop-color="#828A94"/>
</linearGradient>
<linearGradient id="paint1_linear_398_10" x1="14.5191" y1="89.6536" x2="67.537" y2="127.072" gradientUnits="userSpaceOnUse">
<stop stop-color="#B1C3CC"/>
<stop offset="1" stop-color="#828A94"/>
</linearGradient>
<linearGradient id="paint2_linear_398_10" x1="104.633" y1="16.1287" x2="104.633" y2="19.1584" gradientUnits="userSpaceOnUse">
<stop stop-color="#B3C1C9"/>
<stop offset="1" stop-color="#B3C1C9"/>
</linearGradient>
<linearGradient id="paint3_linear_398_10" x1="75.0681" y1="11.0791" x2="75.0681" y2="28.2474" gradientUnits="userSpaceOnUse">
<stop stop-color="#B2C3CC"/>
<stop offset="1" stop-color="#808892"/>
</linearGradient>
<linearGradient id="paint4_linear_398_10" x1="45.5033" y1="16.1287" x2="45.5033" y2="19.1584" gradientUnits="userSpaceOnUse">
<stop stop-color="#B2C4CD"/>
<stop offset="1" stop-color="#B3C1C9"/>
<stop offset="1" stop-color="#7F8690"/>
</linearGradient>
<linearGradient id="paint5_linear_398_10" x1="75.0681" y1="3" x2="75.0681" y2="7.03959" gradientUnits="userSpaceOnUse">
<stop stop-color="#B2C4CD"/>
<stop offset="1" stop-color="#B3C1C9"/>
<stop offset="1" stop-color="#7F8690"/>
</linearGradient>
<linearGradient id="paint6_linear_398_10" x1="75.068" y1="6.02979" x2="75.068" y2="39.3841" gradientUnits="userSpaceOnUse">
<stop stop-color="#B2C4CD"/>
<stop offset="1" stop-color="#B3C1C9"/>
<stop offset="1" stop-color="#7F8690"/>
</linearGradient>
<linearGradient id="paint7_linear_398_10" x1="92.6063" y1="9.05933" x2="92.6063" y2="12.089" gradientUnits="userSpaceOnUse">
<stop stop-color="#B2C3CC"/>
<stop offset="1" stop-color="#808892"/>
</linearGradient>
<linearGradient id="paint8_linear_398_10" x1="57.5297" y1="9.05933" x2="57.5297" y2="12.089" gradientUnits="userSpaceOnUse">
<stop stop-color="#B2C3CC"/>
<stop offset="1" stop-color="#808892"/>
</linearGradient>
<linearGradient id="paint9_linear_398_10" x1="75" y1="30" x2="75" y2="120" gradientUnits="userSpaceOnUse">
<stop stop-color="#B2C4CD"/>
<stop offset="1" stop-color="#7C838D"/>
</linearGradient>
<linearGradient id="paint10_linear_398_10" x1="79.3615" y1="108.437" x2="82.1746" y2="124.391" gradientUnits="userSpaceOnUse">
<stop stop-color="#B2C3CD"/>
<stop offset="1" stop-color="#818993"/>
</linearGradient>
<linearGradient id="paint11_linear_398_10" x1="70.4745" y1="108.437" x2="67.6614" y2="124.391" gradientUnits="userSpaceOnUse">
<stop stop-color="#B2C3CD"/>
<stop offset="1" stop-color="#818993"/>
</linearGradient>
<linearGradient id="paint12_linear_398_10" x1="74.9846" y1="107.931" x2="74.9846" y2="125.931" gradientUnits="userSpaceOnUse">
<stop stop-color="#B2C3CD"/>
<stop offset="1" stop-color="#818993"/>
</linearGradient>
</defs>
</svg>
