<svg width="139" height="135" viewBox="0 0 139 135" fill="none" xmlns="http://www.w3.org/2000/svg">
<g filter="url(#filter0_d_241_154)">
<path d="M136.487 95.4553C137.136 96.3723 136.904 97.6459 135.961 98.2566C125.387 105.102 113.97 110.098 102.717 112.793C96.0933 114.38 89.6532 115.138 83.5889 115.067C81.2826 115.039 81.2977 111.735 83.5143 111.098C89.363 109.416 95.273 106.828 100.929 103.436C110.109 97.9287 118.121 90.5999 123.89 82.4721C124.71 81.3157 126.444 81.2777 127.263 82.4348L136.487 95.4553Z" fill="url(#paint0_linear_241_154)"/>
<path d="M135.825 98.0467C125.272 104.878 113.882 109.862 102.659 112.55C96.053 114.132 89.6335 114.888 83.5918 114.817C83.0796 114.81 82.7169 114.625 82.4792 114.358C82.2378 114.087 82.1088 113.713 82.1055 113.309C82.0988 112.497 82.5968 111.622 83.5834 111.338C89.4542 109.65 95.3841 107.053 101.057 103.65C110.265 98.1265 118.304 90.7747 124.094 82.6168C124.82 81.5937 126.344 81.5699 127.059 82.5793L136.283 95.5998C136.852 96.4031 136.646 97.5148 135.825 98.0467Z" stroke="white" stroke-width="0.5"/>
</g>
<g filter="url(#filter1_d_241_154)">
<path d="M3.18792 95.4281C2.53663 96.3438 2.76673 97.6179 3.7089 98.2303C14.2693 105.095 25.676 110.112 36.9229 112.828C43.5429 114.427 49.9809 115.198 56.0447 115.137C58.351 115.114 58.3422 111.81 56.1268 111.168C50.2818 109.476 44.3773 106.877 38.7289 103.475C29.5592 97.9509 21.5613 90.6077 15.8086 82.4696C14.9901 81.3117 13.2568 81.2704 12.435 82.426L3.18792 95.4281Z" fill="url(#paint1_linear_241_154)"/>
<path d="M3.84515 98.0207C14.384 104.872 25.7646 109.877 36.9816 112.585C43.5837 114.18 50.0011 114.948 56.0422 114.887C56.5545 114.882 56.9175 114.697 57.1557 114.431C57.3976 114.16 57.5273 113.787 57.5314 113.382C57.5396 112.57 57.0433 111.694 56.0572 111.409C50.1902 109.709 44.2658 107.102 38.5999 103.689C29.4025 98.1484 21.3784 90.782 15.6045 82.6139C14.8803 81.5895 13.3556 81.5628 12.6387 82.5709L3.39165 95.573C2.82112 96.3752 3.02455 97.4873 3.84515 98.0207Z" stroke="white" stroke-width="0.5"/>
</g>
<path d="M99.5 16C100.328 16 101 15.3284 101 14.5C101 13.6716 100.328 13 99.5 13C98.6716 13 98 13.6716 98 14.5C98 15.3284 98.6716 16 99.5 16Z" fill="url(#paint2_linear_241_154)"/>
<path d="M53 8C52.7791 8.05166 52.8738 8.11127 52.6306 8.11127C52.447 8.11127 52.1737 8.0298 52 8L46 18.6995L53.8714 25L59.7749 16.2715L53 8ZM88 8C87.8263 8.0298 87.5555 8.11127 87.3719 8.11127C87.1287 8.11127 87.2209 8.05166 87 8L80.2276 16.2715L86.1311 25L94 18.6995L88 8Z" fill="url(#paint3_linear_241_154)"/>
<path d="M40.5 16C41.3284 16 42 15.3284 42 14.5C42 13.6716 41.3284 13 40.5 13C39.6716 13 39 13.6716 39 14.5C39 15.3284 39.6716 16 40.5 16Z" fill="url(#paint4_linear_241_154)"/>
<path d="M70 4C71.1046 4 72 3.10457 72 2C72 0.895431 71.1046 0 70 0C68.8954 0 68 0.895431 68 2C68 3.10457 68.8954 4 70 4Z" fill="url(#paint5_linear_241_154)"/>
<path d="M98.8526 14.2031L85.9028 24.4321L71.2062 3C70.8269 3.10629 70.4257 3.17393 70 3.17393C69.5743 3.17393 69.1731 3.10629 68.7938 3L54.0972 24.4321L41.1474 14.2031C40.8264 14.4401 40.4297 14.6038 40 14.6765L45.8603 33L70 31L92.8347 33L100 14.6765C99.5703 14.6038 99.1736 14.4401 98.8526 14.2031Z" fill="url(#paint6_linear_241_154)"/>
<path d="M87.5 9C88.3284 9 89 8.32843 89 7.5C89 6.67157 88.3284 6 87.5 6C86.6716 6 86 6.67157 86 7.5C86 8.32843 86.6716 9 87.5 9Z" fill="url(#paint7_linear_241_154)"/>
<path d="M52.5 9C53.3284 9 54 8.32843 54 7.5C54 6.67157 53.3284 6 52.5 6C51.6716 6 51 6.67157 51 7.5C51 8.32843 51.6716 9 52.5 9Z" fill="url(#paint8_linear_241_154)"/>
<g filter="url(#filter2_d_241_154)">
<mask id="path-12-outside-1_241_154" maskUnits="userSpaceOnUse" x="24" y="25" width="92" height="92" fill="black">
<rect fill="white" x="24" y="25" width="92" height="92"/>
<path d="M115 71C115 95.8528 94.8528 116 70 116C45.1472 116 25 95.8528 25 71C25 46.1472 45.1472 26 70 26C94.8528 26 115 46.1472 115 71ZM30.3969 71C30.3969 92.8722 48.1278 110.603 70 110.603C91.8722 110.603 109.603 92.8722 109.603 71C109.603 49.1278 91.8722 31.3969 70 31.3969C48.1278 31.3969 30.3969 49.1278 30.3969 71Z"/>
</mask>
<path d="M115 71C115 95.8528 94.8528 116 70 116C45.1472 116 25 95.8528 25 71C25 46.1472 45.1472 26 70 26C94.8528 26 115 46.1472 115 71ZM30.3969 71C30.3969 92.8722 48.1278 110.603 70 110.603C91.8722 110.603 109.603 92.8722 109.603 71C109.603 49.1278 91.8722 31.3969 70 31.3969C48.1278 31.3969 30.3969 49.1278 30.3969 71Z" fill="url(#paint9_linear_241_154)"/>
<path d="M115 71C115 95.8528 94.8528 116 70 116C45.1472 116 25 95.8528 25 71C25 46.1472 45.1472 26 70 26C94.8528 26 115 46.1472 115 71ZM30.3969 71C30.3969 92.8722 48.1278 110.603 70 110.603C91.8722 110.603 109.603 92.8722 109.603 71C109.603 49.1278 91.8722 31.3969 70 31.3969C48.1278 31.3969 30.3969 49.1278 30.3969 71Z" stroke="white" mask="url(#path-12-outside-1_241_154)"/>
</g>
<g filter="url(#filter3_d_241_154)">
<path d="M70.407 107.477C70.5197 106.119 71.5337 105.007 72.8758 104.771L75.8779 104.241C77.22 104.005 78.553 104.702 79.1234 105.94L83.538 115.519C84.3613 117.305 83.2715 119.388 81.3344 119.729L73.0455 121.191C71.1084 121.532 69.3722 119.948 69.5348 117.988L70.407 107.477Z" fill="url(#paint10_linear_241_154)"/>
</g>
<g filter="url(#filter4_d_241_154)">
<path d="M60.7433 105.94C61.3138 104.703 62.6468 104.005 63.9889 104.241L66.9909 104.771C68.333 105.007 69.347 106.119 69.4597 107.477L70.3319 117.988C70.4946 119.949 68.7584 121.532 66.8212 121.191L58.5323 119.729C56.5952 119.388 55.5054 117.306 56.3287 115.519L60.7433 105.94Z" fill="url(#paint11_linear_241_154)"/>
</g>
<g filter="url(#filter5_d_241_154)">
<path d="M65.1483 106.237C65.4951 104.919 66.6867 104 68.0495 104H71.9505C73.3133 104 74.5049 104.919 74.8517 106.237L78.0096 118.237C78.5102 120.139 77.0754 122 75.1084 122H64.8916C62.9246 122 61.4898 120.139 61.9904 118.237L65.1483 106.237Z" fill="url(#paint12_linear_241_154)"/>
</g>
<g filter="url(#filter6_d_241_154)">
<path d="M42.5113 38.5657C38.7701 44.902 38.7703 47.0965 42.5123 53.4333C42.5176 53.4438 42.5194 53.4557 42.5176 53.4674C42.5157 53.479 42.5102 53.4897 42.5019 53.498C42.4936 53.5063 42.4829 53.5118 42.4713 53.5137C42.4596 53.5155 42.4477 53.5137 42.4372 53.5084C36.0965 49.7703 33.9019 49.7701 27.5656 53.5113C27.5551 53.5166 27.5432 53.5185 27.5316 53.5166C27.52 53.5148 27.5093 53.5093 27.501 53.501C27.4927 53.4927 27.4872 53.4819 27.4853 53.4703C27.4835 53.4587 27.4853 53.4468 27.4906 53.4363C31.2298 47.098 31.2297 44.9035 27.4896 38.5647C27.4843 38.5542 27.4825 38.5423 27.4843 38.5307C27.4862 38.5191 27.4917 38.5083 27.5 38.5C27.5083 38.4917 27.519 38.4862 27.5306 38.4844C27.5422 38.4825 27.5541 38.4844 27.5646 38.4897C33.9034 42.2297 36.098 42.2299 42.4363 38.4906C42.4468 38.4853 42.4587 38.4835 42.4703 38.4854C42.4819 38.4872 42.4926 38.4927 42.5009 38.501C42.5092 38.5093 42.5147 38.5201 42.5166 38.5317C42.5184 38.5433 42.5166 38.5552 42.5113 38.5657Z" fill="white"/>
<path d="M39.4556 45.9993C39.4557 48.0545 40.2967 50.0905 41.9236 52.9201C39.0923 51.2948 37.0553 50.4548 34.9997 50.4551C32.9442 50.4555 30.9084 51.2961 28.0792 52.9226C29.7048 50.0925 30.545 48.0562 30.5448 46.0007C30.5447 43.9451 29.7042 41.9086 28.0781 39.0781C30.9086 40.7042 32.945 41.5447 35.0006 41.5449C37.0561 41.545 39.0924 40.7048 41.9225 39.0792C40.2961 41.9084 39.4554 43.9442 39.4556 45.9993Z" stroke="#F3F3F3" stroke-width="0.5"/>
</g>
<g filter="url(#filter7_d_241_154)">
<path d="M46.9584 46.3461C39.2323 48.3357 37.5499 50.0184 35.5605 57.7455C35.5566 57.7576 35.5489 57.7681 35.5385 57.7756C35.5282 57.7831 35.5158 57.7871 35.503 57.7871C35.4903 57.7871 35.4779 57.7831 35.4675 57.7756C35.4572 57.7681 35.4495 57.7576 35.4455 57.7455C33.4501 50.0184 31.7677 48.3357 24.0416 46.3461C24.0295 46.3422 24.019 46.3345 24.0115 46.3241C24.004 46.3138 24 46.3014 24 46.2886C24 46.2759 24.004 46.2634 24.0115 46.2531C24.019 46.2428 24.0295 46.2351 24.0416 46.2311C31.7677 44.2385 33.4501 42.5559 35.4425 34.8288C35.4465 34.8166 35.4542 34.8061 35.4645 34.7986C35.4748 34.7911 35.4873 34.7871 35.5 34.7871C35.5128 34.7871 35.5252 34.7911 35.5355 34.7986C35.5458 34.8061 35.5535 34.8166 35.5575 34.8288C37.5499 42.5559 39.2323 44.2385 46.9584 46.2311C46.9705 46.2351 46.981 46.2428 46.9885 46.2531C46.996 46.2634 47 46.2759 47 46.2886C47 46.3014 46.996 46.3138 46.9885 46.3241C46.981 46.3345 46.9705 46.3422 46.9584 46.3461Z" fill="white"/>
<path d="M38.931 42.8571C40.5143 44.4406 42.7357 45.3583 46.1942 46.2885C42.7357 47.2173 40.5143 48.1343 38.9314 49.7175C37.3484 51.3007 36.4315 53.5224 35.5028 56.9816C34.5713 53.5224 33.653 51.3006 32.0693 49.7174C30.4857 48.1343 28.2643 47.2174 24.8058 46.2885C28.2643 45.3583 30.4857 44.4406 32.069 42.8571C33.6523 41.2736 34.5699 39.0518 35.5 35.5926C36.4301 39.0518 37.3477 41.2736 38.931 42.8571Z" stroke="#F3F3F3" stroke-width="0.5"/>
</g>
<defs>
<filter id="filter0_d_241_154" x="79.8555" y="81.5857" width="58.9993" height="37.4856" filterUnits="userSpaceOnUse" color-interpolation-filters="sRGB">
<feFlood flood-opacity="0" result="BackgroundImageFix"/>
<feColorMatrix in="SourceAlpha" type="matrix" values="0 0 0 0 0 0 0 0 0 0 0 0 0 0 0 0 0 0 127 0" result="hardAlpha"/>
<feOffset dy="2"/>
<feGaussianBlur stdDeviation="1"/>
<feComposite in2="hardAlpha" operator="out"/>
<feColorMatrix type="matrix" values="0 0 0 0 0 0 0 0 0 0 0 0 0 0 0 0 0 0 0.25 0"/>
<feBlend mode="normal" in2="BackgroundImageFix" result="effect1_dropShadow_241_154"/>
<feBlend mode="normal" in="SourceGraphic" in2="effect1_dropShadow_241_154" result="shape"/>
</filter>
<filter id="filter1_d_241_154" x="0.817871" y="81.5801" width="58.9636" height="37.5605" filterUnits="userSpaceOnUse" color-interpolation-filters="sRGB">
<feFlood flood-opacity="0" result="BackgroundImageFix"/>
<feColorMatrix in="SourceAlpha" type="matrix" values="0 0 0 0 0 0 0 0 0 0 0 0 0 0 0 0 0 0 127 0" result="hardAlpha"/>
<feOffset dy="2"/>
<feGaussianBlur stdDeviation="1"/>
<feComposite in2="hardAlpha" operator="out"/>
<feColorMatrix type="matrix" values="0 0 0 0 0 0 0 0 0 0 0 0 0 0 0 0 0 0 0.25 0"/>
<feBlend mode="normal" in2="BackgroundImageFix" result="effect1_dropShadow_241_154"/>
<feBlend mode="normal" in="SourceGraphic" in2="effect1_dropShadow_241_154" result="shape"/>
</filter>
<filter id="filter2_d_241_154" x="23.5" y="25.5" width="93" height="93" filterUnits="userSpaceOnUse" color-interpolation-filters="sRGB">
<feFlood flood-opacity="0" result="BackgroundImageFix"/>
<feColorMatrix in="SourceAlpha" type="matrix" values="0 0 0 0 0 0 0 0 0 0 0 0 0 0 0 0 0 0 127 0" result="hardAlpha"/>
<feOffset dy="1"/>
<feGaussianBlur stdDeviation="0.5"/>
<feComposite in2="hardAlpha" operator="out"/>
<feColorMatrix type="matrix" values="0 0 0 0 0 0 0 0 0 0 0 0 0 0 0 0 0 0 0.25 0"/>
<feBlend mode="normal" in2="BackgroundImageFix" result="effect1_dropShadow_241_154"/>
<feBlend mode="normal" in="SourceGraphic" in2="effect1_dropShadow_241_154" result="shape"/>
</filter>
<filter id="filter3_d_241_154" x="68.5242" y="104.196" width="16.2913" height="19.0417" filterUnits="userSpaceOnUse" color-interpolation-filters="sRGB">
<feFlood flood-opacity="0" result="BackgroundImageFix"/>
<feColorMatrix in="SourceAlpha" type="matrix" values="0 0 0 0 0 0 0 0 0 0 0 0 0 0 0 0 0 0 127 0" result="hardAlpha"/>
<feOffset dy="1"/>
<feGaussianBlur stdDeviation="0.5"/>
<feComposite in2="hardAlpha" operator="out"/>
<feColorMatrix type="matrix" values="0 0 0 0 0 0 0 0 0 0 0 0 0 0 0 0 0 0 0.25 0"/>
<feBlend mode="normal" in2="BackgroundImageFix" result="effect1_dropShadow_241_154"/>
<feBlend mode="normal" in="SourceGraphic" in2="effect1_dropShadow_241_154" result="shape"/>
</filter>
<filter id="filter4_d_241_154" x="55.0513" y="104.196" width="16.2913" height="19.0415" filterUnits="userSpaceOnUse" color-interpolation-filters="sRGB">
<feFlood flood-opacity="0" result="BackgroundImageFix"/>
<feColorMatrix in="SourceAlpha" type="matrix" values="0 0 0 0 0 0 0 0 0 0 0 0 0 0 0 0 0 0 127 0" result="hardAlpha"/>
<feOffset dy="1"/>
<feGaussianBlur stdDeviation="0.5"/>
<feComposite in2="hardAlpha" operator="out"/>
<feColorMatrix type="matrix" values="0 0 0 0 0 0 0 0 0 0 0 0 0 0 0 0 0 0 0.25 0"/>
<feBlend mode="normal" in2="BackgroundImageFix" result="effect1_dropShadow_241_154"/>
<feBlend mode="normal" in="SourceGraphic" in2="effect1_dropShadow_241_154" result="shape"/>
</filter>
<filter id="filter5_d_241_154" x="60.8899" y="104" width="18.2202" height="20" filterUnits="userSpaceOnUse" color-interpolation-filters="sRGB">
<feFlood flood-opacity="0" result="BackgroundImageFix"/>
<feColorMatrix in="SourceAlpha" type="matrix" values="0 0 0 0 0 0 0 0 0 0 0 0 0 0 0 0 0 0 127 0" result="hardAlpha"/>
<feOffset dy="1"/>
<feGaussianBlur stdDeviation="0.5"/>
<feComposite in2="hardAlpha" operator="out"/>
<feColorMatrix type="matrix" values="0 0 0 0 0 0 0 0 0 0 0 0 0 0 0 0 0 0 0.25 0"/>
<feBlend mode="normal" in2="BackgroundImageFix" result="effect1_dropShadow_241_154"/>
<feBlend mode="normal" in="SourceGraphic" in2="effect1_dropShadow_241_154" result="shape"/>
</filter>
<filter id="filter6_d_241_154" x="25.4836" y="38.4836" width="19.0347" height="19.0337" filterUnits="userSpaceOnUse" color-interpolation-filters="sRGB">
<feFlood flood-opacity="0" result="BackgroundImageFix"/>
<feColorMatrix in="SourceAlpha" type="matrix" values="0 0 0 0 0 0 0 0 0 0 0 0 0 0 0 0 0 0 127 0" result="hardAlpha"/>
<feOffset dy="2"/>
<feGaussianBlur stdDeviation="1"/>
<feComposite in2="hardAlpha" operator="out"/>
<feColorMatrix type="matrix" values="0 0 0 0 1 0 0 0 0 1 0 0 0 0 1 0 0 0 1 0"/>
<feBlend mode="normal" in2="BackgroundImageFix" result="effect1_dropShadow_241_154"/>
<feBlend mode="normal" in="SourceGraphic" in2="effect1_dropShadow_241_154" result="shape"/>
</filter>
<filter id="filter7_d_241_154" x="22" y="34.7871" width="27" height="27" filterUnits="userSpaceOnUse" color-interpolation-filters="sRGB">
<feFlood flood-opacity="0" result="BackgroundImageFix"/>
<feColorMatrix in="SourceAlpha" type="matrix" values="0 0 0 0 0 0 0 0 0 0 0 0 0 0 0 0 0 0 127 0" result="hardAlpha"/>
<feOffset dy="2"/>
<feGaussianBlur stdDeviation="1"/>
<feComposite in2="hardAlpha" operator="out"/>
<feColorMatrix type="matrix" values="0 0 0 0 1 0 0 0 0 1 0 0 0 0 1 0 0 0 1 0"/>
<feBlend mode="normal" in2="BackgroundImageFix" result="effect1_dropShadow_241_154"/>
<feBlend mode="normal" in="SourceGraphic" in2="effect1_dropShadow_241_154" result="shape"/>
</filter>
<linearGradient id="paint0_linear_241_154" x1="130.188" y1="86.5639" x2="77.4831" y2="123.899" gradientUnits="userSpaceOnUse">
<stop stop-color="#B1C3CC"/>
<stop offset="1" stop-color="#828A94"/>
</linearGradient>
<linearGradient id="paint1_linear_241_154" x1="9.50259" y1="86.5492" x2="62.1344" y2="123.981" gradientUnits="userSpaceOnUse">
<stop stop-color="#B1C3CC"/>
<stop offset="1" stop-color="#828A94"/>
</linearGradient>
<linearGradient id="paint2_linear_241_154" x1="99.5" y1="13" x2="99.5" y2="16" gradientUnits="userSpaceOnUse">
<stop stop-color="#B3C1C9"/>
<stop offset="1" stop-color="#B3C1C9"/>
</linearGradient>
<linearGradient id="paint3_linear_241_154" x1="70" y1="8" x2="70" y2="25" gradientUnits="userSpaceOnUse">
<stop stop-color="#B2C3CC"/>
<stop offset="1" stop-color="#808892"/>
</linearGradient>
<linearGradient id="paint4_linear_241_154" x1="40.5" y1="13" x2="40.5" y2="16" gradientUnits="userSpaceOnUse">
<stop stop-color="#B2C4CD"/>
<stop offset="1" stop-color="#B3C1C9"/>
<stop offset="1" stop-color="#7F8690"/>
</linearGradient>
<linearGradient id="paint5_linear_241_154" x1="70" y1="0" x2="70" y2="4" gradientUnits="userSpaceOnUse">
<stop stop-color="#B2C4CD"/>
<stop offset="1" stop-color="#B3C1C9"/>
<stop offset="1" stop-color="#7F8690"/>
</linearGradient>
<linearGradient id="paint6_linear_241_154" x1="70" y1="3" x2="70" y2="36.0275" gradientUnits="userSpaceOnUse">
<stop stop-color="#B2C4CD"/>
<stop offset="1" stop-color="#B3C1C9"/>
<stop offset="1" stop-color="#7F8690"/>
</linearGradient>
<linearGradient id="paint7_linear_241_154" x1="87.5" y1="6" x2="87.5" y2="9" gradientUnits="userSpaceOnUse">
<stop stop-color="#B2C3CC"/>
<stop offset="1" stop-color="#808892"/>
</linearGradient>
<linearGradient id="paint8_linear_241_154" x1="52.5" y1="6" x2="52.5" y2="9" gradientUnits="userSpaceOnUse">
<stop stop-color="#B2C3CC"/>
<stop offset="1" stop-color="#808892"/>
</linearGradient>
<linearGradient id="paint9_linear_241_154" x1="70" y1="26" x2="70" y2="116" gradientUnits="userSpaceOnUse">
<stop stop-color="#B2C4CD"/>
<stop offset="1" stop-color="#7C838D"/>
</linearGradient>
<linearGradient id="paint10_linear_241_154" x1="74.3768" y1="104.506" x2="77.1899" y2="120.46" gradientUnits="userSpaceOnUse">
<stop stop-color="#B2C3CD"/>
<stop offset="1" stop-color="#818993"/>
</linearGradient>
<linearGradient id="paint11_linear_241_154" x1="65.4899" y1="104.506" x2="62.6768" y2="120.46" gradientUnits="userSpaceOnUse">
<stop stop-color="#B2C3CD"/>
<stop offset="1" stop-color="#818993"/>
</linearGradient>
<linearGradient id="paint12_linear_241_154" x1="70" y1="104" x2="70" y2="122" gradientUnits="userSpaceOnUse">
<stop stop-color="#B2C3CD"/>
<stop offset="1" stop-color="#818993"/>
</linearGradient>
</defs>
</svg>
