<svg width="20" height="20" viewBox="0 0 20 20" fill="none" xmlns="http://www.w3.org/2000/svg">
<path d="M16.875 13.125C16.7921 13.125 16.7126 13.0921 16.654 13.0335C16.5954 12.9749 16.5625 12.8954 16.5625 12.8125V7.8125C16.5625 7.72962 16.5296 7.65013 16.471 7.59153C16.4124 7.53292 16.3329 7.5 16.25 7.5H12.8125C12.7296 7.5 12.6501 7.46708 12.5915 7.40847C12.5329 7.34987 12.5 7.27038 12.5 7.1875C12.5 7.10462 12.5329 7.02513 12.5915 6.96653C12.6501 6.90792 12.7296 6.875 12.8125 6.875H16.25C16.4986 6.875 16.7371 6.97377 16.9129 7.14959C17.0887 7.3254 17.1875 7.56386 17.1875 7.8125V12.8125C17.1875 12.8954 17.1546 12.9749 17.096 13.0335C17.0374 13.0921 16.9579 13.125 16.875 13.125ZM3.125 13.125C3.04212 13.125 2.96263 13.0921 2.90403 13.0335C2.84542 12.9749 2.8125 12.8954 2.8125 12.8125V7.8125C2.8125 7.56386 2.91127 7.3254 3.08709 7.14959C3.2629 6.97377 3.50136 6.875 3.75 6.875H7.1875C7.27038 6.875 7.34987 6.90792 7.40847 6.96653C7.46708 7.02513 7.5 7.10462 7.5 7.1875C7.5 7.27038 7.46708 7.34987 7.40847 7.40847C7.34987 7.46708 7.27038 7.5 7.1875 7.5H3.75C3.66712 7.5 3.58763 7.53292 3.52903 7.59153C3.47042 7.65013 3.4375 7.72962 3.4375 7.8125V12.8125C3.4375 12.8954 3.40458 12.9749 3.34597 13.0335C3.28737 13.0921 3.20788 13.125 3.125 13.125ZM10 13.125C9.91712 13.125 9.83763 13.0921 9.77903 13.0335C9.72042 12.9749 9.6875 12.8954 9.6875 12.8125V8.4375C9.6875 8.35462 9.72042 8.27513 9.77903 8.21653C9.83763 8.15792 9.91712 8.125 10 8.125C10.0829 8.125 10.1624 8.15792 10.221 8.21653C10.2796 8.27513 10.3125 8.35462 10.3125 8.4375V12.8125C10.3125 12.8954 10.2796 12.9749 10.221 13.0335C10.1624 13.0921 10.0829 13.125 10 13.125Z" fill="#8C8890"/>
<path d="M11.1719 5.3125C11.607 5.3125 12.0243 5.48535 12.332 5.79303C12.6396 6.1007 12.8125 6.518 12.8125 6.95312V7.8125C12.8125 7.97826 12.7467 8.13723 12.6294 8.25444C12.5122 8.37165 12.3533 8.4375 12.1875 8.4375H7.8125C7.64674 8.4375 7.48777 8.37165 7.37056 8.25444C7.25335 8.13723 7.1875 7.97826 7.1875 7.8125V6.95312C7.1875 6.518 7.36035 6.1007 7.66803 5.79303C7.9757 5.48535 8.393 5.3125 8.82812 5.3125H11.1719Z" fill="#ED456A"/>
<path d="M10.9375 4.6875V5C10.9375 5.24864 10.8387 5.4871 10.6629 5.66291C10.4871 5.83873 10.2486 5.9375 10 5.9375C9.75136 5.9375 9.5129 5.83873 9.33709 5.66291C9.16127 5.4871 9.0625 5.24864 9.0625 5V4.6875H10.9375Z" fill="#FCC37A"/>
<path d="M11.875 3.43759C11.875 3.93487 11.6775 4.41178 11.3258 4.76341C10.9742 5.11504 10.4973 5.31259 10 5.31259C9.50272 5.31259 9.02581 5.11504 8.67417 4.76341C8.32254 4.41178 8.125 3.93487 8.125 3.43759C8.125 3.36884 8.13125 3.30009 8.1375 3.23134C8.18974 2.77446 8.40806 2.35271 8.75094 2.04628C9.09382 1.73985 9.53736 1.57011 9.99722 1.56934C10.4571 1.56857 10.9012 1.73682 11.2451 2.04209C11.589 2.34737 11.8087 2.76839 11.8625 3.22509C11.8687 3.29384 11.875 3.36884 11.875 3.43759Z" fill="#FFD9AA"/>
<path d="M11.8625 3.22509L11.6062 3.13759L10.075 2.70634C9.84646 2.63711 9.6009 2.65038 9.3812 2.74384L8.3937 3.13759L8.13745 3.23134C8.18969 2.77446 8.40801 2.35271 8.75089 2.04628C9.09377 1.73985 9.53731 1.57011 9.99717 1.56934C10.457 1.56857 10.9011 1.73682 11.245 2.04209C11.5889 2.34737 11.8087 2.76839 11.8625 3.22509Z" fill="#57565D"/>
<path d="M11.1719 16.5625C11.607 16.5625 12.0243 16.7354 12.332 17.043C12.6396 17.3507 12.8125 17.768 12.8125 18.2031V19.0625C12.8125 19.2283 12.7467 19.3872 12.6294 19.5044C12.5122 19.6217 12.3533 19.6875 12.1875 19.6875H7.8125C7.64674 19.6875 7.48777 19.6217 7.37056 19.5044C7.25335 19.3872 7.1875 19.2283 7.1875 19.0625V18.2031C7.1875 17.768 7.36035 17.3507 7.66803 17.043C7.9757 16.7354 8.393 16.5625 8.82812 16.5625H11.1719Z" fill="#82C8EC"/>
<path d="M10.9375 15.9375V16.25C10.9375 16.4986 10.8387 16.7371 10.6629 16.9129C10.4871 17.0887 10.2486 17.1875 10 17.1875C9.75136 17.1875 9.5129 17.0887 9.33709 16.9129C9.16127 16.7371 9.0625 16.4986 9.0625 16.25V15.9375H10.9375Z" fill="#FCC37A"/>
<path d="M11.875 14.6876C11.875 15.1849 11.6775 15.6618 11.3258 16.0134C10.9742 16.365 10.4973 16.5626 10 16.5626C9.50272 16.5626 9.02581 16.365 8.67417 16.0134C8.32254 15.6618 8.125 15.1849 8.125 14.6876C8.125 14.6188 8.13125 14.5501 8.1375 14.4813C8.18974 14.0245 8.40806 13.6027 8.75094 13.2963C9.09382 12.9898 9.53736 12.8201 9.99722 12.8193C10.4571 12.8186 10.9012 12.9868 11.2451 13.2921C11.589 13.5974 11.8087 14.0184 11.8625 14.4751C11.8687 14.5438 11.875 14.6188 11.875 14.6876Z" fill="#FFD9AA"/>
<path d="M11.8625 14.4751L11.6062 14.3876L10.075 13.9563C9.84646 13.8871 9.6009 13.9004 9.3812 13.9938L8.3937 14.3876L8.13745 14.4813C8.18969 14.0245 8.40801 13.6027 8.75089 13.2963C9.09377 12.9898 9.53731 12.8201 9.99717 12.8193C10.457 12.8186 10.9011 12.9868 11.245 13.2921C11.5889 13.5974 11.8087 14.0184 11.8625 14.4751Z" fill="#57565D"/>
<path d="M18.0469 16.5625C18.482 16.5625 18.8993 16.7354 19.207 17.043C19.5146 17.3507 19.6875 17.768 19.6875 18.2031V19.0625C19.6875 19.2283 19.6217 19.3872 19.5044 19.5044C19.3872 19.6217 19.2283 19.6875 19.0625 19.6875H14.6875C14.5217 19.6875 14.3628 19.6217 14.2456 19.5044C14.1283 19.3872 14.0625 19.2283 14.0625 19.0625V18.2031C14.0625 17.768 14.2354 17.3507 14.543 17.043C14.8507 16.7354 15.268 16.5625 15.7031 16.5625H18.0469Z" fill="#FBDE53"/>
<path d="M17.8125 15.9375V16.25C17.8125 16.4986 17.7137 16.7371 17.5379 16.9129C17.3621 17.0887 17.1236 17.1875 16.875 17.1875C16.6264 17.1875 16.3879 17.0887 16.2121 16.9129C16.0363 16.7371 15.9375 16.4986 15.9375 16.25V15.9375H17.8125Z" fill="#FCC37A"/>
<path d="M18.75 14.6876C18.75 15.1849 18.5525 15.6618 18.2008 16.0134C17.8492 16.365 17.3723 16.5626 16.875 16.5626C16.3777 16.5626 15.9008 16.365 15.5492 16.0134C15.1975 15.6618 15 15.1849 15 14.6876C15 14.6188 15.0063 14.5501 15.0125 14.4813C15.0647 14.0245 15.2831 13.6027 15.6259 13.2963C15.9688 12.9898 16.4124 12.8201 16.8722 12.8193C17.3321 12.8186 17.7762 12.9868 18.1201 13.2921C18.464 13.5974 18.6837 14.0184 18.7375 14.4751C18.7437 14.5438 18.75 14.6188 18.75 14.6876Z" fill="#FFD9AA"/>
<path d="M18.7375 14.4751L18.4812 14.3876L16.95 13.9563C16.7215 13.8871 16.4759 13.9004 16.2562 13.9938L15.2687 14.3876L15.0125 14.4813C15.0647 14.0245 15.283 13.6027 15.6259 13.2963C15.9688 12.9898 16.4123 12.8201 16.8722 12.8193C17.332 12.8186 17.7761 12.9868 18.12 13.2921C18.4639 13.5974 18.6837 14.0184 18.7375 14.4751Z" fill="#57565D"/>
<path d="M4.29688 16.5625C4.732 16.5625 5.1493 16.7354 5.45697 17.043C5.76465 17.3507 5.9375 17.768 5.9375 18.2031V19.0625C5.9375 19.2283 5.87165 19.3872 5.75444 19.5044C5.63723 19.6217 5.47826 19.6875 5.3125 19.6875H0.9375C0.77174 19.6875 0.612769 19.6217 0.495558 19.5044C0.378348 19.3872 0.3125 19.2283 0.3125 19.0625V18.2031C0.3125 17.768 0.485351 17.3507 0.793028 17.043C1.1007 16.7354 1.518 16.5625 1.95312 16.5625H4.29688Z" fill="#55BB8C"/>
<path d="M4.0625 15.9375V16.25C4.0625 16.4986 3.96373 16.7371 3.78791 16.9129C3.6121 17.0887 3.37364 17.1875 3.125 17.1875C2.87636 17.1875 2.6379 17.0887 2.46209 16.9129C2.28627 16.7371 2.1875 16.4986 2.1875 16.25V15.9375H4.0625Z" fill="#FCC37A"/>
<path d="M5 14.6876C5 15.1849 4.80246 15.6618 4.45083 16.0134C4.09919 16.365 3.62228 16.5626 3.125 16.5626C2.62772 16.5626 2.15081 16.365 1.79917 16.0134C1.44754 15.6618 1.25 15.1849 1.25 14.6876C1.25 14.6188 1.25625 14.5501 1.2625 14.4813C1.31474 14.0245 1.53306 13.6027 1.87594 13.2963C2.21882 12.9898 2.66236 12.8201 3.12222 12.8193C3.58207 12.8186 4.02618 12.9868 4.37009 13.2921C4.714 13.5974 4.93373 14.0184 4.9875 14.4751C4.99375 14.5438 5 14.6188 5 14.6876Z" fill="#FFD9AA"/>
<path d="M4.98745 14.4751L4.7312 14.3876L3.19995 13.9563C2.97146 13.8871 2.7259 13.9004 2.5062 13.9938L1.5187 14.3876L1.26245 14.4813C1.31469 14.0245 1.53301 13.6027 1.87589 13.2963C2.21877 12.9898 2.66231 12.8201 3.12217 12.8193C3.58202 12.8186 4.02613 12.9868 4.37004 13.2921C4.71395 13.5974 4.93368 14.0184 4.98745 14.4751Z" fill="#57565D"/>
</svg>
