<svg width="15" height="13" viewBox="0 0 15 13" fill="none" xmlns="http://www.w3.org/2000/svg">
<path d="M13.125 4.64286H9.375V1.85714C9.375 0.832928 8.53406 0 7.5 0H6.09375C5.96943 0 5.8502 0.0489157 5.76229 0.135986C5.67439 0.223057 5.625 0.341149 5.625 0.464286V2.66221L3.81187 5.80543C3.77109 5.87543 3.74974 5.95489 3.75 6.03571V12.5357C3.75 12.6588 3.79939 12.7769 3.88729 12.864C3.9752 12.9511 4.09443 13 4.21875 13H11.7422C12.1048 12.9999 12.4596 12.8956 12.7636 12.6998C13.0676 12.504 13.3078 12.2251 13.455 11.8969L14.9588 8.54564C14.9859 8.48644 15 8.42217 15 8.35714V6.5C15 5.47579 14.1591 4.64286 13.125 4.64286ZM0 6.03571V12.5357C0 12.6588 0.049386 12.7769 0.137294 12.864C0.225201 12.9511 0.34443 13 0.46875 13H2.8125V5.57143H0.46875C0.34443 5.57143 0.225201 5.62034 0.137294 5.70741C0.049386 5.79449 0 5.91258 0 6.03571Z" fill="#FFD9AA"/>
</svg>
