<svg width="40" height="40" viewBox="0 0 40 40" fill="none" xmlns="http://www.w3.org/2000/svg">
<path d="M40 20C40 31.045 31.045 40 20 40C8.95499 40 0 31.045 0 20C0 8.95499 8.95499 0 20 0C31.045 0 40 8.95499 40 20Z" fill="url(#paint0_linear_62_3)"/>
<path d="M17.293 28.7072L9.29299 20.7072C8.90199 20.3162 8.90199 19.6832 9.29299 19.2932L10.707 17.8792C11.098 17.4882 11.731 17.4882 12.121 17.8792L18 23.7582L28.879 12.8792C29.27 12.4882 29.903 12.4882 30.293 12.8792L31.707 14.2932C32.098 14.6842 32.098 15.3172 31.707 15.7072L18.707 28.7072C18.317 29.0982 17.683 29.0982 17.293 28.7072Z" fill="url(#paint1_linear_62_3)"/>
<defs>
<linearGradient id="paint0_linear_62_3" x1="5.858" y1="5.858" x2="34.142" y2="34.142" gradientUnits="userSpaceOnUse">
<stop stop-color="#5DDC9D"/>
<stop offset="1" stop-color="#52AD7D"/>
</linearGradient>
<linearGradient id="paint1_linear_62_3" x1="8.99999" y1="20.7932" x2="32" y2="20.7932" gradientUnits="userSpaceOnUse">
<stop offset="0.824" stop-color="white"/>
<stop offset="0.931" stop-color="#FBFBFB"/>
<stop offset="1" stop-color="white"/>
</linearGradient>
</defs>
</svg>
