<svg width="12" height="18" viewBox="0 0 12 18" fill="none" xmlns="http://www.w3.org/2000/svg" color="#3382C5">
<path d="M1.00027 16.5342C0.998766 16.7629 1.0755 16.9829 1.21363 17.1461C1.35176 17.3092 1.54002 17.4021 1.73711 17.4044H10.2634C10.4605 17.4021 10.6488 17.3092 10.7869 17.1461C10.925 16.9829 11.0018 16.7629 11.0003 16.5342V4.93115H1.00027V16.5342ZM2.00027 6.09146H10.0003V16.2441H2.00027V6.09146Z" fill="currentColor"/>
<path d="M4.25024 7.25171H3.25024V14.5036H4.25024V7.25171Z" fill="currentColor"/>
<path d="M6.5 7.25171H5.5V14.5036H6.5V7.25171Z" fill="currentColor"/>
<path d="M8.75024 7.25171H7.75024V14.5036H8.75024V7.25171Z" fill="currentColor"/>
<path d="M8.25 2.61069V0.870229C8.25 0.382248 7.9535 0 7.575 0H4.425C4.0465 0 3.75 0.382248 3.75 0.870229V2.61069H0V3.77099H12V2.61069H8.25ZM4.75 1.16031H7.25V2.61069H4.75V1.16031Z" fill="currentColor"/>
</svg>
