<svg width="12" height="16" viewBox="0 0 12 16" fill="none" xmlns="http://www.w3.org/2000/svg">
<path d="M8.50008 0.5C8.7211 0.5 8.93306 0.587797 9.08934 0.744078C9.24562 0.900358 9.33341 1.11232 9.33341 1.33333H11.0001C11.2211 1.33333 11.4331 1.42113 11.5893 1.57741C11.7456 1.73369 11.8334 1.94565 11.8334 2.16667C11.8334 2.38768 11.7456 2.59964 11.5893 2.75592C11.4331 2.9122 11.2211 3 11.0001 3H1.00008C0.779068 3 0.567106 2.9122 0.410826 2.75592C0.254546 2.59964 0.166748 2.38768 0.166748 2.16667C0.166748 1.94565 0.254546 1.73369 0.410826 1.57741C0.567106 1.42113 0.779068 1.33333 1.00008 1.33333H2.66675C2.66675 1.11232 2.75455 0.900358 2.91083 0.744078C3.06711 0.587797 3.27907 0.5 3.50008 0.5H8.50008Z" fill="#F40000"/>
<path fill-rule="evenodd" clip-rule="evenodd" d="M1 3.83203H11V13.832C11 14.2741 10.8244 14.698 10.5118 15.0105C10.1993 15.3231 9.77536 15.4987 9.33333 15.4987H2.66667C2.22464 15.4987 1.80072 15.3231 1.48816 15.0105C1.17559 14.698 1 14.2741 1 13.832V3.83203ZM3.91667 5.4987C3.80616 5.4987 3.70018 5.5426 3.62204 5.62074C3.5439 5.69888 3.5 5.80486 3.5 5.91536V13.4154C3.5 13.5259 3.5439 13.6319 3.62204 13.71C3.70018 13.7881 3.80616 13.832 3.91667 13.832C4.02717 13.832 4.13315 13.7881 4.21129 13.71C4.28943 13.6319 4.33333 13.5259 4.33333 13.4154V5.91536C4.33333 5.80486 4.28943 5.69888 4.21129 5.62074C4.13315 5.5426 4.02717 5.4987 3.91667 5.4987ZM8.08333 5.4987C7.97283 5.4987 7.86685 5.5426 7.7887 5.62074C7.71057 5.69888 7.66667 5.80486 7.66667 5.91536V13.4154C7.66667 13.5259 7.71057 13.6319 7.7887 13.71C7.86685 13.7881 7.97283 13.832 8.08333 13.832C8.19384 13.832 8.29982 13.7881 8.37796 13.71C8.4561 13.6319 8.5 13.5259 8.5 13.4154V5.91536C8.5 5.80486 8.4561 5.69888 8.37796 5.62074C8.29982 5.5426 8.19384 5.4987 8.08333 5.4987Z" fill="#F40000"/>
</svg>
