<svg width="10" height="22" viewBox="0 0 10 22" fill="none" xmlns="http://www.w3.org/2000/svg">
<path id="Vector" fill-rule="evenodd" clip-rule="evenodd" d="M9.99902 13.0388C9.99902 13.6383 9.82388 13.8389 9.53049 14.3497L8.04389 16.9592C7.99328 17.0512 7.94395 17.1212 7.89623 17.2095L6.56003 19.5479C6.17633 20.1841 5.77784 21.263 4.9992 21.263C4.65824 21.263 4.42638 21.0599 4.22183 20.8476C4.07996 20.7001 3.30131 19.3224 3.14625 19.0442L2.55319 17.9989C2.45261 17.8184 2.36166 17.657 2.25561 17.4773L1.66834 16.4495C1.22663 15.7179 0.618464 14.6254 0.178687 13.8432C0.0822802 13.6716 0.0138311 13.4636 -0.000629425 13.2528V13.0893C0.010457 12.9331 0.0549641 12.7802 0.143337 12.6443C0.371983 12.2927 0.824774 12.1719 1.28431 12.1719H8.71376C9.1733 12.1719 9.62609 12.2927 9.85473 12.6443C9.90953 12.7286 9.9987 12.9089 9.9987 13.0388H9.99902Z" fill="#4A4A4A"/>
<path id="Vector_2" fill-rule="evenodd" clip-rule="evenodd" d="M9.99968 8.6612C9.99968 8.90098 9.99293 9.00862 9.85571 9.21971C9.78694 9.32542 9.68636 9.41324 9.5832 9.48527C9.38814 9.62112 9.04316 9.69218 8.71489 9.69218H1.28545C0.825912 9.69218 0.37312 9.57132 0.144475 9.21971C0.0564232 9.08419 0.011754 8.93288 0.000506401 8.77835V8.61221C0.0148067 8.40837 0.0797215 8.20662 0.171469 8.03613L2.25675 4.38709C2.35991 4.21225 2.44989 4.04757 2.54581 3.88046C2.6464 3.7053 2.74409 3.53933 2.84275 3.3582C2.94365 3.17289 3.03813 3.02077 3.13904 2.83546L3.43934 2.31659C3.49269 2.22812 3.52756 2.15319 3.58235 2.06166C3.63842 1.96804 3.68711 1.88263 3.7374 1.7953C3.83847 1.61917 3.92748 1.44804 4.03771 1.27642C4.27712 0.903058 4.59542 0.613326 4.96916 0.601562H5.01672C5.19202 0.607202 5.37889 0.674076 5.57492 0.821842C5.6424 0.872602 5.7176 0.954784 5.77753 1.01698C5.94448 1.19037 6.24896 1.77999 6.40065 2.03217C6.45592 2.12419 6.49432 2.20476 6.552 2.30209C6.65853 2.4816 6.75205 2.63903 6.85312 2.82015C6.95466 3.0024 7.05445 3.16645 7.14973 3.3429C7.24501 3.51918 7.34463 3.68323 7.44618 3.86564L9.82068 8.02131C9.90391 8.16923 10 8.44108 10 8.66168L9.99968 8.6612Z" fill="#4A4A4A"/>
</svg>
