<svg width="30" height="30" viewBox="0 0 30 30" fill="none" xmlns="http://www.w3.org/2000/svg">
<g clip-path="url(#clip0_1748_1817)">
<path fill-rule="evenodd" clip-rule="evenodd" d="M14.9712 0.937873C14.8302 0.942367 14.6922 0.978586 14.5672 1.04383C14.4422 1.10908 14.3336 1.20168 14.2493 1.31473L8.62086 8.81621C8.51562 8.9558 8.4515 9.12204 8.43576 9.29614C8.42001 9.47025 8.45326 9.64529 8.53176 9.80149C8.61025 9.9577 8.73085 10.0888 8.87995 10.1801C9.02905 10.2714 9.2007 10.3192 9.37551 10.318H11.2523V18.7532C11.2521 18.9858 11.3383 19.2101 11.4942 19.3827C11.6501 19.5552 11.8646 19.6636 12.096 19.6869C12.126 19.6883 12.156 19.6883 12.186 19.6869H17.8126C18.0599 19.6859 18.2968 19.5872 18.4717 19.4123C18.6466 19.2374 18.7453 19.0005 18.7463 18.7532V10.318H20.6212C20.796 10.3192 20.9676 10.2714 21.1167 10.1801C21.2658 10.0888 21.3864 9.9577 21.4649 9.80149C21.5434 9.64529 21.5767 9.47025 21.5609 9.29614C21.5452 9.12204 21.4811 8.9558 21.3758 8.81621L15.7492 1.31473C15.6593 1.19408 15.5417 1.09684 15.4062 1.03125C15.2708 0.965656 15.1216 0.933628 14.9712 0.937873ZM15.003 3.44649L18.7472 8.44311H17.8135C17.6902 8.44237 17.568 8.46594 17.4539 8.51249C17.3398 8.55904 17.2359 8.62763 17.1483 8.71436C17.0607 8.80109 16.9911 8.90424 16.9434 9.01791C16.8957 9.13158 16.8709 9.25354 16.8704 9.37681V17.8195H13.1281V9.37681C13.1276 9.2537 13.1029 9.1319 13.0553 9.01835C13.0078 8.9048 12.9383 8.80173 12.8509 8.71503C12.7635 8.62832 12.6599 8.55969 12.546 8.51303C12.432 8.46637 12.31 8.44262 12.1869 8.44311H11.2532L15.003 3.44649ZM5.62664 17.8101C5.5031 17.8101 5.38078 17.8346 5.26671 17.8821C5.15265 17.9295 5.04909 17.9991 4.96199 18.0867L1.21031 21.8309C1.11748 21.9229 1.04493 22.0333 0.997301 22.155C0.949675 22.2768 0.928032 22.4071 0.933763 22.5377V26.2472C0.938681 26.9929 1.23721 27.7066 1.76468 28.2337C2.29214 28.7608 3.00606 29.0589 3.75174 29.0633H26.2487C27.7908 29.0633 29.0573 27.7884 29.0573 26.2472V22.6333C29.0785 22.4878 29.0652 22.3394 29.0185 22.2C28.9718 22.0606 28.8929 21.9341 28.7882 21.8309L25.0366 18.0867C24.9495 17.9991 24.8459 17.9295 24.7318 17.8821C24.6178 17.8346 24.4955 17.8101 24.3719 17.8101H21.5614C20.3099 17.8101 20.3099 19.6869 21.5614 19.6869H23.9857L25.8606 21.5618H20.6221C20.3737 21.5599 20.1346 21.6566 19.9575 21.8309L18.3591 23.4367H11.6395L10.0336 21.8309C9.85831 21.6585 9.6223 21.5618 9.37645 21.5618H4.13797L6.01287 19.6869H8.43712C9.68862 19.6869 9.68862 17.8101 8.43712 17.8101H5.62664ZM2.80867 23.4367H8.99022L10.5886 25.0351C10.6757 25.1227 10.7792 25.1922 10.8933 25.2397C11.0074 25.2871 11.1297 25.3116 11.2532 25.3116H18.7472C18.8708 25.3116 18.9931 25.2871 19.1071 25.2397C19.2212 25.1922 19.3248 25.1227 19.4119 25.0351L21.0102 23.4367H27.1899V26.2472C27.1926 26.3715 27.1701 26.4951 27.1237 26.6105C27.0774 26.7259 27.0081 26.8308 26.9202 26.9187C26.8323 27.0066 26.7274 27.0759 26.612 27.1222C26.4966 27.1686 26.373 27.1911 26.2487 27.1884H3.75174C3.62732 27.1911 3.50364 27.1686 3.38814 27.1222C3.27263 27.0759 3.16768 27.0067 3.07959 26.9188C2.99151 26.8309 2.9221 26.7261 2.87554 26.6107C2.82898 26.4952 2.80624 26.3716 2.80867 26.2472V23.4367Z" fill="white"/>
</g>
<defs>
<clipPath id="clip0_1748_1817">
<rect width="30" height="30" fill="white"/>
</clipPath>
</defs>
</svg>
