<svg width="20" height="20" viewBox="0 0 20 20" fill="none" xmlns="http://www.w3.org/2000/svg">
<path d="M7.1875 16.25C7.27038 16.25 7.34987 16.2171 7.40847 16.1585C7.46708 16.0999 7.5 16.0204 7.5 15.9375V14.375C7.5 14.2921 7.46708 14.2126 7.40847 14.154C7.34987 14.0954 7.27038 14.0625 7.1875 14.0625C7.10462 14.0625 7.02513 14.0954 6.96653 14.154C6.90792 14.2126 6.875 14.2921 6.875 14.375V15.9375C6.875 16.0204 6.90792 16.0999 6.96653 16.1585C7.02513 16.2171 7.10462 16.25 7.1875 16.25ZM7.1875 13.125C7.27038 13.125 7.34987 13.0921 7.40847 13.0335C7.46708 12.9749 7.5 12.8954 7.5 12.8125V11.25C7.5 11.1671 7.46708 11.0876 7.40847 11.029C7.34987 10.9704 7.27038 10.9375 7.1875 10.9375C7.10462 10.9375 7.02513 10.9704 6.96653 11.029C6.90792 11.0876 6.875 11.1671 6.875 11.25V12.8125C6.875 12.8954 6.90792 12.9749 6.96653 13.0335C7.02513 13.0921 7.10462 13.125 7.1875 13.125Z" fill="white"/>
<path d="M1.875 18.7501H18.125C18.4565 18.7501 18.7745 18.6184 19.0089 18.384C19.2433 18.1496 19.375 17.8316 19.375 17.5001V15.9376C19.375 15.8547 19.3421 15.7752 19.2835 15.7166C19.2249 15.658 19.1454 15.6251 19.0625 15.6251C18.5238 15.6251 18.0071 15.4111 17.6262 15.0302C17.2453 14.6492 17.0312 14.1326 17.0312 13.5939C17.0312 13.0551 17.2453 12.5385 17.6262 12.1575C18.0071 11.7766 18.5238 11.5626 19.0625 11.5626C19.1454 11.5626 19.2249 11.5297 19.2835 11.4711C19.3421 11.4125 19.375 11.333 19.375 11.2501V9.3751C19.3746 9.17177 19.3075 8.97418 19.1841 8.8126C19.3003 8.63655 19.3651 8.4316 19.3714 8.22075C19.3776 8.00989 19.325 7.80147 19.2194 7.61885L18.525 6.41791C18.5045 6.38235 18.4772 6.35117 18.4447 6.32616C18.4121 6.30115 18.375 6.28279 18.3353 6.27214C18.2957 6.26149 18.2543 6.25875 18.2136 6.26409C18.1729 6.26942 18.1337 6.28272 18.0981 6.30323C17.6914 6.53807 17.2081 6.60173 16.7545 6.48021C16.3008 6.3587 15.9141 6.06195 15.6792 5.65526C15.4444 5.24857 15.3807 4.76524 15.5022 4.31161C15.6237 3.85797 15.9205 3.47119 16.3272 3.23635C16.3986 3.19456 16.4506 3.12631 16.472 3.0464C16.4934 2.96649 16.4825 2.88137 16.4416 2.80948L15.6081 1.36635C15.4923 1.16778 15.3028 1.02297 15.0808 0.963393C14.8587 0.90382 14.6222 0.934307 14.4225 1.04823L1.625 8.4376H1.5625C1.31386 8.4376 1.0754 8.53637 0.899587 8.71219C0.723772 8.888 0.625 9.12646 0.625 9.3751V11.2501C0.625 11.333 0.657924 11.4125 0.716529 11.4711C0.775134 11.5297 0.85462 11.5626 0.9375 11.5626C1.47622 11.5626 1.99288 11.7766 2.37381 12.1575C2.75474 12.5385 2.96875 13.0551 2.96875 13.5939C2.96875 14.1326 2.75474 14.6492 2.37381 15.0302C1.99288 15.4111 1.47622 15.6251 0.9375 15.6251C0.85462 15.6251 0.775134 15.658 0.716529 15.7166C0.657924 15.7752 0.625 15.8547 0.625 15.9376V17.5001C0.625 17.8316 0.756696 18.1496 0.991117 18.384C1.22554 18.6184 1.54348 18.7501 1.875 18.7501ZM14.735 1.58948C14.7909 1.55757 14.8571 1.54903 14.9193 1.56571C14.9814 1.58239 15.0345 1.62294 15.0669 1.67854L15.7544 2.86854C15.2934 3.22248 14.9768 3.73187 14.8635 4.30186C14.7502 4.87185 14.8479 5.46361 15.1384 5.96694C15.4289 6.47027 15.8924 6.85088 16.4426 7.0379C16.9929 7.22491 17.5923 7.2056 18.1294 6.98354L18.6775 7.93291C18.7247 8.0148 18.7483 8.10813 18.7457 8.2026C18.7432 8.29706 18.7146 8.38899 18.6631 8.46823C18.5895 8.44883 18.5137 8.43855 18.4375 8.4376H2.875L14.735 1.58948ZM1.25 16.2317C1.89586 16.1552 2.49122 15.8444 2.92322 15.3582C3.35521 14.872 3.59383 14.2442 3.59383 13.5939C3.59383 12.9435 3.35521 12.3157 2.92322 11.8295C2.49122 11.3433 1.89586 11.0325 1.25 10.956V9.3751C1.25 9.29222 1.28292 9.21274 1.34153 9.15413C1.40013 9.09553 1.47962 9.0626 1.5625 9.0626H6.875V9.6876C6.875 9.77048 6.90792 9.84997 6.96653 9.90857C7.02513 9.96718 7.10462 10.0001 7.1875 10.0001C7.27038 10.0001 7.34987 9.96718 7.40847 9.90857C7.46708 9.84997 7.5 9.77048 7.5 9.6876V9.0626H18.4375C18.5204 9.0626 18.5999 9.09553 18.6585 9.15413C18.7171 9.21274 18.75 9.29222 18.75 9.3751V10.956C18.1041 11.0325 17.5088 11.3433 17.0768 11.8295C16.6448 12.3157 16.4062 12.9435 16.4062 13.5939C16.4062 14.2442 16.6448 14.872 17.0768 15.3582C17.5088 15.8444 18.1041 16.1552 18.75 16.2317V17.5001C18.75 17.6659 18.6842 17.8248 18.5669 17.942C18.4497 18.0593 18.2908 18.1251 18.125 18.1251H7.5V17.5001C7.5 17.4172 7.46708 17.3377 7.40847 17.2791C7.34987 17.2205 7.27038 17.1876 7.1875 17.1876C7.10462 17.1876 7.02513 17.2205 6.96653 17.2791C6.90792 17.3377 6.875 17.4172 6.875 17.5001V18.1251H1.875C1.70924 18.1251 1.55027 18.0593 1.43306 17.942C1.31585 17.8248 1.25 17.6659 1.25 17.5001V16.2317Z" fill="white"/>
<path d="M10.625 13.125C10.8722 13.125 11.1139 13.0517 11.3195 12.9143C11.525 12.777 11.6852 12.5818 11.7798 12.3534C11.8745 12.1249 11.8992 11.8736 11.851 11.6311C11.8028 11.3887 11.6837 11.1659 11.5089 10.9911C11.3341 10.8163 11.1113 10.6973 10.8689 10.649C10.6264 10.6008 10.3751 10.6255 10.1466 10.7202C9.91824 10.8148 9.72301 10.975 9.58566 11.1805C9.44831 11.3861 9.375 11.6278 9.375 11.875C9.375 12.2065 9.5067 12.5245 9.74112 12.7589C9.97554 12.9933 10.2935 13.125 10.625 13.125ZM10.625 11.25C10.7486 11.25 10.8695 11.2867 10.9722 11.3553C11.075 11.424 11.1551 11.5216 11.2024 11.6358C11.2497 11.75 11.2621 11.8757 11.238 11.9969C11.2139 12.1182 11.1544 12.2295 11.0669 12.3169C10.9795 12.4044 10.8682 12.4639 10.7469 12.488C10.6257 12.5121 10.5 12.4997 10.3858 12.4524C10.2716 12.4051 10.174 12.325 10.1053 12.2222C10.0367 12.1195 10 11.9986 10 11.875C10 11.7092 10.0658 11.5503 10.1831 11.4331C10.3003 11.3158 10.4592 11.25 10.625 11.25ZM14.375 14.375C14.1278 14.375 13.8861 14.4483 13.6805 14.5857C13.475 14.723 13.3148 14.9182 13.2202 15.1466C13.1255 15.3751 13.1008 15.6264 13.149 15.8689C13.1972 16.1113 13.3163 16.3341 13.4911 16.5089C13.6659 16.6837 13.8887 16.8028 14.1311 16.851C14.3736 16.8992 14.6249 16.8745 14.8534 16.7799C15.0818 16.6852 15.277 16.525 15.4143 16.3195C15.5517 16.1139 15.625 15.8722 15.625 15.625C15.625 15.2935 15.4933 14.9755 15.2589 14.7411C15.0245 14.5067 14.7065 14.375 14.375 14.375ZM14.375 16.25C14.2514 16.25 14.1305 16.2133 14.0278 16.1447C13.925 16.076 13.8449 15.9784 13.7976 15.8642C13.7503 15.75 13.7379 15.6243 13.762 15.5031C13.7861 15.3818 13.8457 15.2705 13.9331 15.1831C14.0205 15.0957 14.1318 15.0361 14.2531 15.012C14.3743 14.9879 14.5 15.0003 14.6142 15.0476C14.7284 15.0949 14.826 15.175 14.8947 15.2778C14.9633 15.3805 15 15.5014 15 15.625C15 15.7908 14.9342 15.9497 14.8169 16.0669C14.6997 16.1842 14.5408 16.25 14.375 16.25ZM9.65062 15.625C9.65039 15.8177 9.70741 16.006 9.81446 16.1662C9.92151 16.3264 10.0738 16.4511 10.2518 16.5246C10.4299 16.5981 10.6259 16.617 10.8147 16.5789C11.0036 16.5408 11.1768 16.4474 11.3125 16.3106L15.0378 12.5381C15.2117 12.3613 15.3091 12.1232 15.3091 11.8752C15.3091 11.6271 15.2117 11.389 15.0378 11.2122C14.8588 11.0431 14.6219 10.9489 14.3756 10.9489C14.1294 10.9489 13.8925 11.0431 13.7134 11.2122L9.93937 14.9375C9.84813 15.0273 9.77562 15.1343 9.72606 15.2523C9.67649 15.3703 9.65085 15.497 9.65062 15.625ZM10.3784 15.3813L14.1544 11.6538C14.1829 11.6225 14.2176 11.5974 14.2561 11.58C14.2947 11.5625 14.3364 11.5531 14.3787 11.5523C14.421 11.5514 14.4631 11.5592 14.5023 11.5751C14.5415 11.591 14.5771 11.6147 14.6069 11.6447C14.6367 11.6748 14.6601 11.7106 14.6756 11.75C14.6912 11.7894 14.6985 11.8315 14.6973 11.8738C14.6961 11.9161 14.6863 11.9577 14.6685 11.9961C14.6507 12.0345 14.6252 12.0689 14.5938 12.0972L10.8687 15.8713C10.8366 15.9034 10.7984 15.929 10.7563 15.9464C10.7143 15.9639 10.6692 15.9728 10.6237 15.9728C10.5782 15.9729 10.5331 15.9639 10.4911 15.9465C10.449 15.9291 10.4108 15.9036 10.3786 15.8714C10.3464 15.8392 10.3209 15.801 10.3034 15.759C10.286 15.7169 10.277 15.6719 10.277 15.6264C10.277 15.5808 10.2859 15.5358 10.3033 15.4937C10.3207 15.4517 10.3463 15.4134 10.3784 15.3813Z" fill="white"/>
</svg>
