<svg width="505" height="341" viewBox="0 0 505 341" fill="none" xmlns="http://www.w3.org/2000/svg" color="black">
<path fill-rule="evenodd" clip-rule="evenodd" d="M26.0035 87.0125V45.0067C26.0035 34.9306 33.8486 26.0045 44.0064 26.0045H134.019C134.019 40.081 130.993 58.3392 147.015 58.5667C163.041 58.7933 160.023 39.5126 160.023 26.0045H460.065C470.222 26.0045 478.067 34.9306 478.067 45.0067V88.0128C478.067 105.966 461.036 104.377 446.906 121.86C417.071 158.77 426.108 209.098 464.87 233.228C472.604 238.043 478.068 240.475 478.068 253.035V295.041C478.068 304.865 469.953 314.043 460.066 314.043H160.024C160.024 300.536 163.042 281.254 147.016 281.481C130.995 281.708 134.02 299.966 134.02 314.043H44.0074C33.8496 314.043 26.0045 305.117 26.0045 295.041V252.035C26.0045 233.965 43.391 235.231 57.1661 218.188C74.2205 197.089 80.5402 170.089 69.4512 142.579C65.5699 132.95 62.5958 129.225 57.0173 122.008C42.3149 102.99 26.0035 107.292 26.0035 87.0125ZM0 44.0064V89.0122C0 100.942 4.55808 110.517 11.2032 117.814C23.1245 130.906 30.311 127.753 41.4269 144.599C55.7242 166.266 48.8995 196.814 25.0618 211.086C10.5907 219.749 0.000959999 231.821 0.000959999 251.034V296.04C0.000959999 313.558 11.1206 328.369 23.9846 335.065C28.5485 337.44 34.0426 340.046 41.0064 340.046H463.065C482.198 340.046 504.07 320.05 504.07 296.04V251.034C504.07 217.079 473.988 213.33 464.093 197.999C449.334 175.133 453.458 143.7 480.749 127.699C494.531 119.619 504.07 106.214 504.07 89.0122V44.0064C504.07 20.0947 482.291 0 463.065 0H41.0064C29.4163 0 20.0093 6.53088 12.7469 13.7462C5.58528 20.8618 0 30.2438 0 44.0054V44.0064Z" fill="currentColor"/>
<path fill-rule="evenodd" clip-rule="evenodd" d="M221.03 244.037C221.03 249.737 230.128 266.639 246.786 249.79C263.299 233.087 333.499 161.712 342.342 154.32C344.742 152.313 345.464 152.122 347.817 149.793C351.561 146.089 354.561 143.011 358.3 139.273C365.212 132.361 371.39 126.182 378.302 119.27C386.145 111.427 403.465 98.9874 392.17 86.9C380.544 74.4574 365.88 94.6875 359.8 100.768L228.781 230.785C225.292 234.25 221.031 237.464 221.031 244.038L221.03 244.037Z" fill="currentColor"/>
<path fill-rule="evenodd" clip-rule="evenodd" d="M360.05 234.034C342.367 234.034 342.726 208.247 360.062 208.48C377.981 208.72 376.673 234.034 360.05 234.034ZM321.044 221.032C321.044 243.021 338.173 260.037 355.049 260.037C369.532 260.037 378.02 259.415 388.823 247.805C394.848 241.33 399.381 228.661 398.928 220.171C396.14 167.938 321.044 170.651 321.044 221.032Z" fill="currentColor"/>
<path fill-rule="evenodd" clip-rule="evenodd" d="M258.036 132.023C241.663 132.023 238.763 106.019 259.036 106.019C270.635 106.019 272.944 121.651 266.867 127.852C265.044 129.713 261.476 132.023 258.036 132.023ZM219.03 115.02C219.03 129.303 219.942 136.757 230.61 147.447C253.559 170.443 296.041 153.313 296.041 122.021V116.02C296.041 97.5404 279.495 80.0156 261.037 80.0156C248.361 80.0156 239.079 80.9862 229.746 90.7321C224.749 95.9497 219.03 105.258 219.03 115.021V115.02Z" fill="currentColor"/>
<path fill-rule="evenodd" clip-rule="evenodd" d="M134.019 106.016V140.021C134.019 155.338 160.023 157.729 160.023 139.02V107.016C160.023 88.6942 134.019 90.741 134.019 106.016Z" fill="currentColor"/>
<path fill-rule="evenodd" clip-rule="evenodd" d="M134.019 200.032V234.037C134.019 249.312 160.023 251.359 160.023 233.037V201.032C160.023 182.71 134.019 184.756 134.019 200.032Z" fill="currentColor"/>
</svg>
