<svg width="50" height="51" viewBox="0 0 50 51" fill="none" xmlns="http://www.w3.org/2000/svg">
<path d="M46 19.5C46 17.403 47.175 15.583 48.903 14.656C49.555 14.306 50 13.669 50 12.929V4C50 1.791 48.209 0 46 0H35.98C35.351 0 34.762 0.3 34.384 0.803C33.84 1.529 32.978 2 32 2C31.022 2 30.16 1.529 29.615 0.804C29.237 0.3 28.649 0 28.019 0H4C1.791 0 0 1.791 0 4V12.429C0 13.169 0.446 13.806 1.098 14.156C2.825 15.083 4 16.903 4 19C4 21.097 2.825 22.917 1.097 23.844C0.445 24.194 0 24.831 0 25.571V34C0 36.209 1.791 38 4 38H28.02C28.649 38 29.238 37.7 29.616 37.197C30.16 36.471 31.022 36 32 36C32.978 36 33.84 36.471 34.385 37.196C34.763 37.7 35.351 38 35.981 38H46C48.209 38 50 36.209 50 34V26.071C50 25.331 49.554 24.694 48.902 24.344C47.175 23.417 46 21.597 46 19.5Z" fill="#EA9A07"/>
<path d="M17.354 21.001C15.631 21.001 14.295 20.423 13.345 19.264C12.394 18.106 11.92 16.547 11.92 14.588C11.92 12.628 12.4 11.074 13.36 9.92605C14.32 8.77805 15.651 8.20305 17.354 8.20305C19.056 8.20305 20.387 8.78205 21.348 9.94005C22.308 11.099 22.788 12.648 22.788 14.588C22.788 16.547 22.308 18.107 21.348 19.264C20.387 20.423 19.056 21.001 17.354 21.001ZM17.354 18.151C17.928 18.151 18.378 17.869 18.705 17.305C19.032 16.741 19.195 15.835 19.195 14.588C19.195 13.341 19.032 12.445 18.705 11.9C18.379 11.356 17.928 11.083 17.354 11.083C16.76 11.083 16.304 11.351 15.988 11.885C15.671 12.42 15.513 13.321 15.513 14.588C15.513 15.875 15.671 16.79 15.988 17.334C16.304 17.879 16.76 18.151 17.354 18.151ZM21.095 29.078C20.798 29.593 20.432 29.889 19.996 29.969C19.561 30.048 19.154 29.979 18.779 29.761C18.403 29.543 18.14 29.222 17.992 28.796C17.844 28.37 17.918 27.91 18.215 27.415L28.875 8.94405C29.172 8.43005 29.538 8.12805 29.974 8.03905C30.409 7.95005 30.815 8.01405 31.192 8.23205C31.568 8.45005 31.825 8.77105 31.964 9.19705C32.102 9.62305 32.033 10.084 31.756 10.578L21.095 29.078ZM32.646 29.791C30.923 29.791 29.587 29.212 28.637 28.054C27.687 26.895 27.212 25.326 27.212 23.348C27.212 21.388 27.692 19.839 28.652 18.7C29.612 17.563 30.943 16.993 32.646 16.993C34.348 16.993 35.68 17.567 36.64 18.715C37.6 19.863 38.08 21.408 38.08 23.348C38.08 25.327 37.605 26.896 36.655 28.054C35.705 29.212 34.368 29.791 32.646 29.791ZM32.646 26.911C33.24 26.911 33.695 26.634 34.012 26.08C34.328 25.525 34.487 24.615 34.487 23.348C34.487 22.12 34.324 21.229 33.997 20.675C33.671 20.12 33.22 19.843 32.646 19.843C32.052 19.843 31.596 20.111 31.28 20.645C30.963 21.179 30.805 22.081 30.805 23.348C30.805 24.634 30.963 25.55 31.28 26.094C31.597 26.639 32.052 26.911 32.646 26.911Z" fill="white"/>
<path opacity="0.15" d="M35.981 38.0001H46C48.209 38.0001 50 36.2091 50 34.0001V26.0711C50 25.3311 49.554 24.6941 48.902 24.3441C48.014 23.8681 47.276 23.1531 46.765 22.2881C45.694 23.2051 45 24.5501 45 26.0711V33.0001H40C37.326 33.0001 35.161 35.1051 35.026 37.7451C35.315 37.9061 35.64 38.0001 35.981 38.0001Z" fill="black"/>
<path opacity="0.3" d="M4 0C1.791 0 0 1.791 0 4V12.429C0 12.625 0.0349999 12.812 0.0929999 12.991C2.81 12.939 5 10.73 5 8V5H12C14.761 5 17 2.762 17 0H4Z" fill="white"/>
<path d="M4 9.5V5C4 4.448 4.448 4 5 4H8.5" stroke="white" stroke-width="3" stroke-miterlimit="10" stroke-linecap="round" stroke-linejoin="round"/>
<path opacity="0.3" d="M25 51C37.7025 51 48 49.6569 48 48C48 46.3431 37.7025 45 25 45C12.2975 45 2 46.3431 2 48C2 49.6569 12.2975 51 25 51Z" fill="black"/>
</svg>
