<svg width="30" height="30" viewBox="0 0 30 30" fill="none" xmlns="http://www.w3.org/2000/svg">
<path d="M25.4316 2.73926V12.6714C25.4316 13.1449 25.0507 13.5257 24.5773 13.5257H6.07157C5.5981 13.5257 5.21729 13.1449 5.21729 12.6714V2.73926C5.21729 2.26582 5.5981 1.88501 6.07157 1.88501H24.5773C25.0507 1.885 25.4316 2.26582 25.4316 2.73926Z" fill="#70C493"/>
<path d="M25.4312 3.94885H5.21704V6.23356H25.4312V3.94885Z" fill="#3F5176"/>
<path opacity="0.1" d="M25.4309 2.73766V12.6698C25.4309 13.1433 25.0501 13.5241 24.5766 13.5241H6.0709C5.75184 13.5241 5.47907 13.3543 5.33496 13.097C21.8337 11.6045 24.731 5.16665 25.1633 2.12012C25.3279 2.26935 25.4309 2.49066 25.4309 2.73766Z" fill="#010101"/>
<path d="M27.8776 8.93195V23.8672C27.8776 24.6496 27.2423 25.279 26.4659 25.279H4.18351C3.40703 25.279 2.77173 24.6496 2.77173 23.8672V8.93195C2.77173 8.14958 3.40703 7.51428 4.18351 7.51428H26.4659C27.0247 7.51428 27.507 7.84369 27.7364 8.31431C27.8247 8.49666 27.8776 8.70842 27.8776 8.93195Z" fill="#F9A67B"/>
<path opacity="0.1" d="M27.8777 8.93198V23.8673C27.8777 24.6496 27.2424 25.279 26.466 25.279H5.24243C16.213 20.5614 23.9895 12.7025 27.7365 8.31433C27.8248 8.49669 27.8777 8.70845 27.8777 8.93198Z" fill="#010101"/>
<path d="M28.4579 18.7868H24.3422C24.1119 18.7868 23.8983 18.6667 23.7786 18.4699L22.7272 16.7414C22.5991 16.5308 22.5991 16.2664 22.7272 16.0557L23.7786 14.3272C23.8983 14.1305 24.1119 14.0104 24.3422 14.0104H28.4579C28.8223 14.0104 29.1176 14.3057 29.1176 14.6701V18.1271C29.1176 18.4914 28.8223 18.7868 28.4579 18.7868Z" fill="#3F5176"/>
<path d="M25.984 16.3961C25.984 16.9211 25.5558 17.3493 25.0309 17.3493C24.506 17.3493 24.0847 16.9211 24.0847 16.3961C24.0847 15.8712 24.506 15.45 25.0309 15.45C25.5558 15.45 25.984 15.8712 25.984 16.3961Z" fill="white"/>
<path d="M7.94115 28.1165C11.8396 28.1165 15 24.9562 15 21.0577C15 17.1592 11.8396 13.9989 7.94115 13.9989C4.04267 13.9989 0.882324 17.1592 0.882324 21.0577C0.882324 24.9562 4.04267 28.1165 7.94115 28.1165Z" fill="#F5C560"/>
<path opacity="0.1" d="M15.0003 21.0577C15.0003 24.9542 11.838 28.1165 7.94155 28.1165C5.75052 28.1165 3.79099 27.117 2.49219 25.5471C3.70631 26.541 5.2705 27.1396 6.9646 27.1396C10.861 27.1396 14.0233 23.9773 14.0233 20.0808C14.0233 18.3867 13.4248 16.8225 12.4309 15.6084C14.0008 16.9072 15.0003 18.8667 15.0003 21.0577Z" fill="#010101"/>
<path d="M28.4646 13.4228V8.92971C28.4646 7.82648 27.5673 6.92891 26.4638 6.92891H26.0191V2.73773C26.0191 1.91234 25.3438 1.29529 24.5767 1.29529H6.07084C5.27523 1.29529 4.6284 1.94241 4.6284 2.73773V6.92891H4.18493C3.08141 6.92891 2.18355 7.82648 2.18355 8.92971V16.0415C1.01071 17.3858 0.294189 19.1379 0.294189 21.0578C0.294189 25.2745 3.7248 28.7048 7.94125 28.7048C10.3357 28.7048 12.4746 27.5968 13.8778 25.8685H26.4638C27.5673 25.8685 28.4646 24.9709 28.4646 23.8674V19.3745C29.1498 19.371 29.706 18.8132 29.706 18.1272V14.6702C29.706 13.9841 29.1498 13.4263 28.4646 13.4228ZM5.80487 2.73772C5.80487 2.58865 5.92148 2.47175 6.07084 2.47175H24.5767C24.697 2.47175 24.8427 2.56983 24.8427 2.73772V6.9289H5.80487V2.73772ZM7.94125 27.5283C4.37335 27.5283 1.47066 24.6257 1.47066 21.0578C1.47066 17.4901 4.37335 14.5875 7.94125 14.5875C11.5091 14.5875 14.4118 17.4901 14.4118 21.0578C14.4118 24.6257 11.5091 27.5283 7.94125 27.5283ZM26.4638 24.692H14.6678C15.2545 23.6103 15.5883 22.3724 15.5883 21.0578C15.5883 16.8413 12.1577 13.411 7.94125 13.411C6.22193 13.411 4.63871 13.9883 3.36002 14.9497V8.92971C3.36002 8.47503 3.72997 8.10537 4.18493 8.10537H26.4638C26.9181 8.10537 27.2881 8.47503 27.2881 8.92971V13.4222H24.3423C23.9092 13.4222 23.5008 13.652 23.2761 14.0216L22.2249 15.7498C21.9813 16.15 21.9813 16.6471 22.2249 17.047L23.2761 18.7752C23.5008 19.1454 23.9092 19.3752 24.3423 19.3752H27.2881V23.8674C27.2881 24.3221 26.9182 24.692 26.4638 24.692ZM28.5295 18.1272C28.5295 18.1665 28.4973 18.1987 28.4583 18.1987H24.3423C24.3176 18.1987 24.2947 18.1855 24.2814 18.1643L23.2302 16.4355C23.2164 16.4128 23.2164 16.3843 23.2302 16.3613L24.2814 14.6325C24.2941 14.6116 24.3176 14.5987 24.3423 14.5987H28.4583C28.4973 14.5987 28.5295 14.6308 28.5295 14.6702V18.1272Z" fill="#2A3D66"/>
<path d="M7.9413 25.8577C5.29446 25.8577 3.14136 23.7043 3.14136 21.0578C3.14136 18.4112 5.29446 16.2578 7.9413 16.2578C10.5882 16.2578 12.7413 18.4112 12.7413 21.0578C12.7413 23.7043 10.5882 25.8577 7.9413 25.8577Z" fill="#F4BA42"/>
<path d="M9.30038 20.9268C9.5922 21.0486 9.83806 21.2293 10.0391 21.4694C10.2396 21.7098 10.3401 22.0303 10.3401 22.4316C10.3401 22.7599 10.2517 23.0531 10.0753 23.3116C9.89895 23.5701 9.64964 23.7784 9.32738 23.9364C9.00511 24.0946 8.62827 24.1857 8.19686 24.2101V24.9212C8.19686 24.9821 8.17675 25.0307 8.13769 25.0672C8.09805 25.1036 8.0475 25.122 7.98718 25.122C7.92629 25.122 7.87747 25.1036 7.84127 25.0672C7.80451 25.0307 7.78612 24.9821 7.78612 24.9212V24.2101C7.08702 24.1793 6.43674 24.0337 5.83472 23.7721C5.76177 23.7419 5.70088 23.6948 5.65205 23.6308C5.6038 23.567 5.5791 23.4955 5.5791 23.4165C5.5791 23.3131 5.61414 23.2249 5.68423 23.1519C5.75431 23.079 5.84392 23.0425 5.95307 23.0425C6.01396 23.0425 6.07198 23.0549 6.12655 23.079C6.61885 23.2979 7.17204 23.4165 7.78613 23.4349V21.3462C7.34265 21.231 6.97444 21.1106 6.68261 20.986C6.3908 20.8616 6.14493 20.6821 5.94387 20.448C5.74339 20.2139 5.64344 19.9086 5.64344 19.5315C5.64344 19.2032 5.72501 18.9022 5.8893 18.6284C6.0536 18.355 6.29658 18.133 6.61885 17.9629C6.94111 17.7926 7.33059 17.6953 7.78613 17.6708V16.9597C7.78613 16.8988 7.80451 16.8488 7.84128 16.8092C7.87747 16.7695 7.9263 16.75 7.98719 16.75C8.04751 16.75 8.09806 16.7695 8.1377 16.8092C8.17676 16.8488 8.19687 16.8988 8.19687 16.9597V17.6619C8.78051 17.68 9.32164 17.7803 9.82026 17.963C9.9903 18.0236 10.0753 18.1453 10.0753 18.3277C10.0753 18.4248 10.042 18.5116 9.97536 18.5877C9.90815 18.6635 9.82026 18.7014 9.71054 18.7014C9.67435 18.7014 9.62552 18.6893 9.56463 18.6649C9.12058 18.507 8.66504 18.4248 8.19686 18.4188V20.5893C8.64034 20.6927 9.00855 20.8053 9.30038 20.9268ZM6.80153 20.1059C7.02614 20.2518 7.35472 20.3797 7.78613 20.4891V18.4372C7.39091 18.4736 7.07209 18.5816 6.82853 18.7609C6.58553 18.9401 6.46375 19.1759 6.46375 19.4677C6.46375 19.7472 6.57634 19.96 6.80153 20.1059ZM9.51924 22.3767C9.51924 22.1398 9.40837 21.9542 9.18606 21.8207C8.96433 21.6868 8.63459 21.5622 8.19686 21.4467V23.4257C9.07807 23.3651 9.51924 23.0152 9.51924 22.3767Z" fill="white"/>
</svg>
