<svg width="24" height="24" viewBox="0 0 24 24" fill="none" xmlns="http://www.w3.org/2000/svg">
<path fill-rule="evenodd" clip-rule="evenodd" d="M22.1312 20.8887C22.0576 22.2135 20.9619 23.25 19.6351 23.25H4.36503C3.03817 23.25 1.94245 22.2134 1.86885 20.8887L0.896629 3.38869C0.817016 1.95567 1.95757 0.75 3.39278 0.75H20.6073C22.0425 0.75 23.183 1.95568 23.1035 3.38869L22.1312 20.8887ZM18.4027 8.11163C18.915 7.77406 19.0439 7.10481 18.6234 6.66937C17.9206 5.94162 17.0869 5.33156 16.1578 4.86844C14.894 4.23856 13.4893 3.89856 12.0587 3.87619C10.6282 3.85381 9.21222 4.14975 7.92678 4.73981C6.98172 5.17363 6.1269 5.75731 5.39872 6.46269C4.96297 6.88475 5.06809 7.55763 5.56828 7.91106L8.26322 9.81512C8.7634 10.1685 9.46797 10.0542 9.98622 9.72462C10.1189 9.64025 10.2581 9.5645 10.4028 9.49806C10.8598 9.28825 11.3604 9.17681 11.8682 9.17131L13.9888 6.73306C14.2153 6.47262 14.6101 6.44513 14.8706 6.67163C15.131 6.89812 15.1585 7.29294 14.932 7.55338L13.288 9.44362C13.3647 9.47531 13.4403 9.50969 13.5145 9.54669C13.6568 9.61762 13.7933 9.69769 13.9229 9.78619C14.4292 10.1317 15.1293 10.268 15.6417 9.93044L18.4027 8.11163Z" fill="#01AB84"/>
</svg>
