<svg width="26" height="27" viewBox="0 0 26 27" fill="none" xmlns="http://www.w3.org/2000/svg">
<path fill-rule="evenodd" clip-rule="evenodd" d="M18.5563 22.5288L19.3211 21.1013H20.4426C20.2996 21.3147 19.3505 22.0169 19.0866 22.1926C18.8956 22.3196 18.7319 22.411 18.5562 22.5288H18.5563ZM8.92116 21.1013H16.9758C16.7671 21.4965 16.5649 21.7654 16.3064 22.114C16.1608 22.3101 16.067 22.3687 15.9204 22.5437C15.7176 22.7863 15.739 22.7802 15.49 22.9802C14.2275 23.9951 13.027 24.4763 11.402 23.6674C11.0587 23.4968 10.4153 23.0271 10.1836 22.7956C10.0861 22.6981 10.0997 22.6764 10.004 22.5676C9.55088 22.0517 9.26024 21.7423 8.92116 21.1013ZM5.45466 21.1013H6.57623L7.34068 22.5288C7.00946 22.3072 6.68013 22.1208 6.36464 21.8736C6.17466 21.7249 5.57954 21.2717 5.45466 21.1013ZM12.5406 26.0974H12.641C14.7345 26.091 15.8586 25.8865 17.7485 25.1874C18.6495 24.8541 19.5641 24.3209 20.3406 23.8033C20.4744 23.714 20.5981 23.6426 20.733 23.533L22.1619 22.3108C22.385 22.1223 23.4539 20.8161 23.6648 20.5005C24.1881 19.7182 24.7245 18.8051 25.0604 17.9193C25.1322 17.7294 25.1753 17.612 25.2411 17.4363C25.4506 16.8778 25.6911 17.0229 23.3483 17.0229C23.1839 17.0229 22.9431 17.6806 22.7706 18.0257C22.5675 18.4319 22.4106 18.7119 22.1758 19.0623H20.1368L20.5242 17.4598C20.6632 16.8813 20.7863 17.0229 18.6584 17.0229C18.4169 17.0229 18.3781 17.6596 18.2689 18.0613C18.2142 18.2633 18.1488 18.405 18.0911 18.597C18.0416 18.7627 18.0359 19.0623 17.8427 19.0623H8.05459C7.87205 19.0623 7.9165 18.9318 7.80631 18.5967L7.49396 17.4814C7.34665 16.8642 7.55163 17.0229 5.45456 17.0229C5.18992 17.0229 5.39941 17.5252 5.5008 17.9965C5.55982 18.2718 5.75547 18.8378 5.76051 19.0623H3.82322C3.68346 19.0623 3.66102 18.9794 3.59947 18.8781C3.53688 18.7756 3.51193 18.723 3.45007 18.6194L2.89091 17.5476C2.59136 16.8452 2.93683 17.023 0.560547 17.023C0.56904 17.404 1.1045 18.5235 1.28379 18.8998C1.67435 19.7215 2.26989 20.5599 2.83261 21.2764C3.06422 21.5716 3.19832 21.72 3.45478 21.98C3.58249 22.1095 3.63512 22.2183 3.77143 22.3261L4.83113 23.2542C6.79829 24.8639 9.79245 26.0975 12.5407 26.0975L12.5406 26.0974Z" fill="white"/>
<path fill-rule="evenodd" clip-rule="evenodd" d="M12.6936 2.03511C13.5786 2.03511 13.631 2.03438 14.4999 2.42074C15.4579 2.84695 16.5133 4.11793 16.9757 4.99194H8.92106C9.44184 4.00763 10.4034 2.92234 11.4019 2.42578C11.7174 2.2685 12.2535 2.03522 12.6935 2.03522L12.6936 2.03511ZM18.5563 3.56433C18.9668 3.83924 20.1979 4.62655 20.4427 4.99184H19.3212C19.1917 4.74744 19.0875 4.54256 18.9483 4.29355L18.5563 3.56433ZM6.57623 4.99184H5.45466C5.48811 4.94591 5.8036 4.66136 5.87762 4.59876C6.44821 4.11635 6.76799 3.94776 7.34068 3.56433L6.57623 4.99184ZM0.560547 9.07023C2.84855 9.07023 2.59953 9.25372 2.87592 8.58185C2.96661 8.36125 3.57316 7.03083 3.82322 7.03083H5.76051L5.38064 8.64119C5.24759 9.19962 5.04166 9.07023 7.23897 9.07023C7.46482 9.07023 7.54136 8.41105 7.63562 8.03968L7.88568 7.21903C7.9294 7.08912 7.89983 7.03083 8.05459 7.03083H17.8427C18.036 7.03083 18.0416 7.33038 18.0911 7.49614C18.1488 7.68823 18.2142 7.82977 18.2689 8.03181C18.6232 9.33487 18.0416 9.07023 20.4427 9.07023C20.716 9.07023 20.5104 8.5526 20.4022 8.09084C20.3246 7.75858 20.1635 7.35208 20.1368 7.03083H22.1758L23.0257 8.57713C23.3256 9.22562 22.8912 9.07013 25.2347 9.07013C25.4399 9.07013 25.3596 9.04947 25.3518 8.9506L25.0743 8.211C24.5827 6.87848 23.4785 5.1596 22.4936 4.16427C22.3559 4.02524 22.321 3.92626 22.1894 3.80569L21.1275 2.87935C19.5329 1.62683 17.7599 0.709723 15.7561 0.297459C11.8211 -0.511447 7.92846 0.329857 4.85891 2.81529C3.38726 4.007 2.15498 5.44835 1.30025 7.15864C1.11855 7.52257 0.56883 8.70211 0.560652 9.07002L0.560547 9.07023Z" fill="white"/>
<path fill-rule="evenodd" clip-rule="evenodd" d="M0 11.1602C0 11.3196 0.733834 13.0196 0.851999 13.3162C0.997843 13.6822 1.13373 13.9984 1.2889 14.3578C1.69582 15.3 1.44901 15.2386 2.60014 15.2386C3.01355 15.2386 3.16789 14.6499 3.39908 14.1514C3.5531 13.8192 3.90498 13.0999 3.9768 12.7915C4.11016 12.8894 4.22403 13.2665 4.30015 13.4372L4.89317 14.7811C5.12153 15.3019 5.097 15.2386 5.96493 15.2386C6.42522 15.2386 6.44975 15.0067 6.68598 14.4303C6.88131 13.954 8.08539 11.3576 8.10604 11.1093C8.09828 11.1001 8.08759 11.0723 8.08403 11.0805C8.08046 11.0887 8.0662 11.0578 8.06127 11.0524C7.83931 10.8237 7.62301 10.9055 7.03533 10.9055C6.52954 10.9055 6.55439 11.2235 6.23502 12.0421C6.16635 12.2182 5.79005 13.3077 5.65909 13.4034C5.63917 13.163 5.22869 12.2844 5.11231 12.0129C4.58974 10.7942 4.82848 10.9056 3.82382 10.9056C3.43043 10.9056 3.39625 11.0376 3.2763 11.3271C3.17638 11.5693 3.07856 11.7583 2.97853 11.9976C2.87358 12.2487 2.79966 12.4344 2.68506 12.6727C2.58263 12.8855 2.44884 13.1775 2.39621 13.4034C2.23401 13.2846 1.72717 11.6487 1.61079 11.3342C1.41545 10.8053 1.33472 10.9056 0.357219 10.9056C0.185372 10.9056 0.000104848 10.9956 0.000104848 11.1603L0 11.1602Z" fill="white"/>
<path fill-rule="evenodd" clip-rule="evenodd" d="M17.8946 11.1093C17.9128 11.3285 19.213 14.3934 19.4289 14.928C19.5872 15.3201 19.8682 15.2386 20.4438 15.2386C20.9234 15.2386 20.9439 14.9429 21.3111 14.1176C21.3947 13.9298 21.8173 12.9057 21.9731 12.7915C21.9916 13.0124 22.1493 13.2821 22.2271 13.4553C22.3285 13.6805 22.4046 13.9007 22.517 14.134C23.1114 15.372 22.7222 15.2386 23.9612 15.2386C24.367 15.2386 24.6345 14.3745 24.8569 13.8402C25.0252 13.4372 26.0006 11.3167 26.0006 11.1602C26.0006 10.8083 25.2688 10.9055 24.8789 10.9055C24.4773 10.9055 24.3923 11.3903 24.15 12.0118C24.0397 12.2942 23.6747 13.1697 23.6552 13.4033C23.4997 13.2896 22.8605 11.6386 22.7598 11.3932C22.5286 10.8297 22.5429 10.9055 21.7179 10.9055L21.4547 10.9479C21.2379 11.0439 21.0228 11.7144 20.8685 12.0443C20.7564 12.2836 20.6913 12.4843 20.5793 12.7237C20.4682 12.9614 20.3523 13.1905 20.2907 13.4547L20.1566 13.13C20.1107 12.9873 20.0816 12.9065 20.0356 12.7916C19.9439 12.5615 19.8699 12.3004 19.7874 12.0716C19.306 10.7409 19.5544 10.9056 18.2513 10.9056C18.0667 10.9056 18.0109 10.9718 17.9165 11.0806C17.9119 11.0863 17.9023 11.1002 17.8945 11.1094L17.8946 11.1093Z" fill="white"/>
<path fill-rule="evenodd" clip-rule="evenodd" d="M8.97266 11.1602C8.97266 11.3775 10.2621 14.4787 10.4819 14.953C10.652 15.3193 10.8704 15.2386 11.4709 15.2386C12.0101 15.2386 12.0009 14.8355 12.3538 14.1337L13.0002 12.7915L13.833 14.763C14.0756 15.3221 14.0774 15.2386 14.9375 15.2386C15.2402 15.2386 15.3042 15.1681 15.4149 14.9515C15.4704 14.843 15.4721 14.8159 15.5198 14.6997L16.1106 13.3532C16.2621 13.0167 17.0276 11.4092 17.0276 11.1602C17.0276 10.8083 16.2959 10.9055 15.9061 10.9055C15.4952 10.9055 15.4238 11.4494 15.1922 12.0271L14.6824 13.4033C14.6361 13.3499 14.6557 13.3895 14.5978 13.2842C14.5501 13.1981 14.5576 13.1988 14.5212 13.106C14.4781 12.9964 14.4273 12.8598 14.3754 12.742L13.802 11.3783C13.5843 10.8119 13.4712 10.9055 12.6943 10.9055C12.2656 10.9055 12.1592 11.5333 11.9124 12.0609C11.7719 12.3619 11.4208 13.2907 11.2668 13.4034L10.8082 12.0272C10.3142 10.7889 10.7222 10.9056 9.32987 10.9056C9.15803 10.9056 8.97276 10.9956 8.97276 11.1603L8.97266 11.1602Z" fill="white"/>
</svg>
