<svg width="31" height="31" viewBox="0 0 31 31" fill="none" xmlns="http://www.w3.org/2000/svg">
<circle cx="15.5" cy="15.5" r="15.5" fill="black" fill-opacity="0.6"/>
<circle cx="15.5" cy="15.5" r="15" stroke="white" stroke-opacity="0.8"/>
<path d="M13.704 15.986C13.704 15.636 13.837 15.342 14.103 15.104C14.369 14.852 14.705 14.726 15.111 14.726C15.783 14.726 16.364 14.481 16.854 13.991C17.33 13.515 17.568 12.92 17.568 12.206C17.568 11.87 17.505 11.555 17.379 11.261C17.253 10.953 17.078 10.687 16.854 10.463C16.63 10.239 16.364 10.064 16.056 9.938C15.762 9.798 15.447 9.728 15.111 9.728C14.509 9.728 13.977 9.903 13.515 10.253C13.067 10.603 12.78 11.072 12.654 11.66C12.598 11.982 12.402 12.234 12.066 12.416C11.73 12.584 11.373 12.626 10.995 12.542C10.603 12.472 10.295 12.29 10.071 11.996C9.861 11.702 9.791 11.394 9.861 11.072C10.141 9.854 10.764 8.853 11.73 8.069C12.71 7.271 13.837 6.872 15.111 6.872C16.679 6.872 17.995 7.383 19.059 8.405C20.137 9.413 20.676 10.68 20.676 12.206C20.676 13.522 20.27 14.649 19.458 15.587C18.674 16.525 17.694 17.099 16.518 17.309V18.149C16.518 18.513 16.385 18.814 16.119 19.052C15.853 19.29 15.517 19.409 15.111 19.409C14.705 19.409 14.369 19.29 14.103 19.052C13.837 18.814 13.704 18.513 13.704 18.149V15.986ZM15.111 23.168C14.663 23.168 14.278 23.014 13.956 22.706C13.648 22.384 13.494 21.999 13.494 21.551C13.494 21.103 13.648 20.725 13.956 20.417C14.278 20.095 14.663 19.934 15.111 19.934C15.545 19.934 15.916 20.095 16.224 20.417C16.546 20.725 16.707 21.103 16.707 21.551C16.707 21.999 16.546 22.384 16.224 22.706C15.916 23.014 15.545 23.168 15.111 23.168Z" fill="white"/>
</svg>
