<svg width="20" height="20" viewBox="0 0 20 20" fill="none" xmlns="http://www.w3.org/2000/svg">
<path d="M1.18617 18.3648C1.23656 18.4725 1.3166 18.5635 1.41689 18.6273C1.51718 18.691 1.63358 18.7249 1.75242 18.7248C3.54617 18.7248 5.06367 18.2886 6.78742 17.2723C7.62367 17.4048 9.27492 17.5686 9.99992 17.5686C15.4724 17.5686 19.9237 13.9148 19.9237 9.42234C19.9237 4.92984 15.4724 1.27734 9.99992 1.27734C4.52742 1.27734 0.0761719 4.92984 0.0761719 9.42234C0.0761719 11.5398 1.09742 13.5861 2.89492 15.1023C2.48002 16.0401 1.93417 16.9142 1.27367 17.6986C1.11867 17.8861 1.08367 18.1461 1.18617 18.3648ZM1.32617 9.42234C1.32617 5.61984 5.21742 2.52609 9.99992 2.52609C14.7824 2.52609 18.6737 5.61984 18.6737 9.42234C18.6737 13.2248 14.7824 16.3186 9.99992 16.3186C9.28242 16.3186 7.41492 16.1261 6.78367 16.0036C6.63095 15.9762 6.47346 16.0046 6.33992 16.0836C5.17492 16.7961 4.15867 17.2036 3.07117 17.3761C3.53714 16.6724 3.92684 15.9211 4.23367 15.1348C4.28333 15.0082 4.29017 14.8688 4.25316 14.7379C4.21614 14.6069 4.1373 14.4917 4.02867 14.4098C2.28492 13.0898 1.32617 11.3173 1.32617 9.42234Z" fill="#A3A3A3"/>
</svg>
