<svg width="18" height="16" viewBox="0 0 18 16" fill="none" xmlns="http://www.w3.org/2000/svg">
<path d="M12.6562 0.5C11.2344 0.5 9.89383 1.15398 9 2.21668C8.10613 1.15398 6.76562 0.5 5.34375 0.5C2.82492 0.5 0.875 2.46176 0.875 4.9959C0.875 8.10199 3.63742 10.5954 7.82172 14.4371L9 15.5L10.1783 14.4371C14.3625 10.5954 17.125 8.10195 17.125 4.9959C17.125 2.46176 15.1751 0.5 12.6562 0.5ZM9.50141 13.3616L9.3366 13.5129L9 13.8165L8.66344 13.5129L8.49883 13.3618C6.52937 11.5539 4.82848 9.9925 3.70406 8.59641C2.61199 7.24043 2.125 6.13 2.125 4.9959C2.125 4.10273 2.40262 4.10098 3 3.5C3.59539 2.90102 1.26025 4.88874 2.14314 4.88874C1.5 5 3.03453 7.91658 3.70406 8.71259L6 11.5L9 13.8165L13.5 10L15.5 7.5L16 6.5L15.5 4.5C14.4791 4.5 16 3.5 15.5 4.5C16.3829 4.5 13.9046 2.40105 14.5 3C13.5 3.5 14.3457 4.5 15.5 4.5C15.5 5.6341 15.388 7.24039 14.296 8.59633C13.1716 9.99242 11.4708 11.5537 9.50141 13.3616Z" fill="#F40000"/>
</svg>
