<svg width="18" height="16" viewBox="0 0 18 16" fill="none" xmlns="http://www.w3.org/2000/svg">
<path d="M12.6563 0.5C11.2344 0.5 9.89383 1.15398 9 2.21668C8.10613 1.15398 6.76562 0.5 5.34375 0.5C2.82492 0.5 0.875 2.46176 0.875 4.9959C0.875 8.10199 3.63742 10.5954 7.82172 14.4371L9 15.5L10.1783 14.4371C14.3625 10.5954 17.125 8.10195 17.125 4.9959C17.125 2.46176 15.1751 0.5 12.6563 0.5ZM9.50141 13.3616L9.3366 13.5129L9 13.8165L8.66344 13.5129L8.49883 13.3618C6.52937 11.5539 4.82848 9.9925 3.70406 8.59641C2.61199 7.24043 2.125 6.13 2.125 4.9959C2.125 4.10273 2.45398 3.27984 3.05137 2.67887C3.64676 2.07988 4.46086 1.75 5.34375 1.75C6.36461 1.75 7.37383 2.22527 8.04336 3.02129L9 4.15863L9.9566 3.02129C10.6262 2.22527 11.6354 1.75 12.6563 1.75C13.5392 1.75 14.3532 2.07988 14.9487 2.67883C15.546 3.27984 15.875 4.1027 15.875 4.9959C15.875 6.13 15.388 7.24039 14.296 8.59633C13.1716 9.99242 11.4708 11.5537 9.50141 13.3616Z" fill="#A3A3A3"/>
</svg>
