<svg width="64" height="64" viewBox="0 0 64 64" fill="none" xmlns="http://www.w3.org/2000/svg">
<path fill-rule="evenodd" clip-rule="evenodd" d="M32 58.53C27.8778 58.53 24.8049 57.7332 21.2356 56.2471C18.9796 55.3082 16.8618 53.8606 14.9773 52.3399C14.8736 52.2564 14.8535 52.2554 14.7469 52.1518C13.9799 51.4049 13.5258 51.1082 12.6244 50.1348L11.1325 48.378C10.9981 48.2148 10.8954 48.0689 10.7706 47.9018C10.6458 47.7358 10.5249 47.5841 10.4116 47.4218C10.1841 47.0983 9.98148 46.8036 9.75108 46.458C7.23204 42.6938 5.4858 37.2516 5.4858 32.6973C5.4858 29.2884 5.60677 28.6336 6.25765 25.5568C6.34789 25.1306 6.47268 24.6833 6.60516 24.2801C7.90692 20.3191 9.16164 18.0381 11.7661 14.8212L13.3588 13.1124C13.5028 12.9684 13.6084 12.8638 13.7514 12.7198L14.1959 12.3261C14.3629 12.1793 14.4282 12.1015 14.6096 11.9546L16.4135 10.5088C17.0154 10.0548 18.6868 8.98052 19.4058 8.62724C19.6256 8.51972 19.7552 8.42952 19.9463 8.32968C20.313 8.13864 20.6903 7.97638 21.082 7.78822C24.3623 6.21094 28.5383 5.44869 32.2093 5.44869C34.3962 5.44869 36.2912 5.7559 38.1085 6.15238C39.0157 6.35014 39.8317 6.61894 40.666 6.89638C42.8845 7.63462 44.2516 8.41127 46.2176 9.57191C47.8295 10.5233 49.5191 11.9902 50.8256 13.2958C51.0839 13.554 51.4093 13.8391 51.6359 14.1108C51.7252 14.2173 51.7204 14.2365 51.8212 14.3441C51.9028 14.4314 51.9517 14.466 52.0256 14.5591C52.7908 15.5143 53.0576 15.7774 53.8304 16.8938L54.4813 17.8682C55.4913 19.385 56.5636 21.7313 57.1597 23.5217C57.7108 25.1767 58.1908 27.1178 58.3636 28.9207C58.4087 29.3901 58.474 29.9661 58.5133 30.4481C58.5335 30.6948 58.5172 31.0289 58.5153 31.2842C58.5133 31.6269 58.5719 31.8074 58.5719 32.0705L58.4336 34.3985C58.3962 34.6586 58.378 34.9178 58.3578 35.1607C58.2224 36.7572 57.6234 39.0708 57.1338 40.5396C56.2074 43.3198 54.8538 45.7457 53.1037 48.09C52.1754 49.3341 50.2333 51.4193 49.0314 52.3495C47.1431 53.8116 46.4029 54.4279 44.0538 55.6509C43.0679 56.1645 41.6019 56.7741 40.5488 57.1245C37.8503 58.0202 35.0874 58.5328 32.001 58.5328L32 58.53ZM0.192352 31.4388C0.192352 35.7674 0.716524 38.7232 1.98084 42.5412C2.29476 43.4877 2.72197 44.4276 3.11173 45.3396C3.49477 46.2372 3.96325 47.0839 4.45957 47.9229C5.24485 49.2506 6.10405 50.466 7.02757 51.6948L8.64131 53.5918C8.80547 53.754 8.99269 53.9181 9.13765 54.0909C9.30949 54.2964 9.40932 54.4337 9.61188 54.6122L10.1092 55.0586C10.6247 55.5741 11.1556 55.9831 11.6816 56.4737C12.3604 57.1054 13.1706 57.6314 13.9213 58.1642C17.1316 60.4423 20.9773 62.1194 24.8528 63.0055C26.2035 63.3146 27.6714 63.5575 29.1143 63.6698C29.3408 63.6871 29.7757 63.7101 30.0311 63.7485L31.9473 63.8234C33.2183 63.8234 34.4394 63.7197 35.6106 63.6093C37.8359 63.3991 39.993 62.8807 42.0541 62.1924C45.8672 60.9194 49.6775 58.8401 52.6861 56.1607L53.9927 55.0048C54.0944 54.9194 54.1626 54.8398 54.2576 54.7457C54.4266 54.5748 54.5591 54.4433 54.729 54.2743L55.6852 53.2394C56.098 52.698 56.6068 52.1997 57.0244 51.6448C57.8807 50.5053 58.7111 49.3677 59.4349 48.1351L60.1213 46.8823C60.7204 45.8119 61.2138 44.6532 61.6727 43.5079C62.9485 40.3255 63.8058 36.3607 63.8058 32.8558C63.8058 29.5745 63.6656 27.4192 62.8727 24.2512C62.6106 23.2039 62.3217 22.1844 61.9636 21.2301L61.1178 19.1412C60.8336 18.4797 60.5466 17.7904 60.1674 17.1568L59.4532 15.8801C58.9789 15.0497 58.449 14.2884 57.9047 13.4983L57.0753 12.3885C56.9188 12.1879 56.7892 12.0257 56.6336 11.8346L55.042 10.0202C54.9498 9.92134 54.8768 9.85604 54.7789 9.75908C54.1568 9.13796 53.4637 8.41316 52.7793 7.88132C51.2327 6.68036 50.0058 5.59558 48.2058 4.5943L46.3031 3.5623C37.2705 -0.954499 26.72 -0.951619 17.6922 3.5623C16.4212 4.19782 15.1127 4.95336 13.9722 5.7636C12.8221 6.5796 12.2432 7.08167 11.2026 7.91975C10.9981 8.08487 10.8685 8.21159 10.6631 8.37575C10.2983 8.66759 9.30275 9.67748 8.95427 10.073L7.75235 11.3863C6.84899 12.4596 6.03491 13.5866 5.25251 14.7549C4.43651 15.9741 3.777 17.2769 3.1242 18.6007C2.6778 19.5069 2.31395 20.4247 1.99139 21.3981C0.909471 24.6708 0.19043 27.9319 0.19043 31.4398L0.192352 31.4388Z" fill="white"/>
<path fill-rule="evenodd" clip-rule="evenodd" d="M25.0831 32.383C25.2809 32.0873 25.8732 31.6505 26.1698 31.374C26.5509 31.0198 26.9253 30.7615 27.3237 30.4323L29.1381 29.1026C29.3723 28.9471 29.5355 28.8223 29.7563 28.6726C30.8959 27.8988 31.8415 27.3535 32.9848 26.6614C33.4331 26.3906 34.7388 25.7052 35.0911 25.6236L35.3522 27.6156C35.5375 31.3807 35.6719 35.0422 35.1688 38.8025C35.1295 39.0963 35.1621 39.1961 34.8837 39.1001L33.9199 38.6364C32.0181 37.6947 28.3548 35.2514 26.5855 33.7615L25.8156 33.1164C25.6111 32.9599 25.2223 32.5932 25.0821 32.383H25.0831ZM19.3711 32.0681C19.3711 33.5081 19.5621 34.1196 20.4559 35.1756C20.6239 35.3743 20.692 35.4598 20.8773 35.645C21.0396 35.8073 21.1768 35.9292 21.3093 36.1039C21.4533 36.2921 21.558 36.39 21.7596 36.5446L23.2082 37.8204C24.1835 38.6153 24.75 39.0242 25.7416 39.7414C26.8274 40.5266 27.8508 41.1881 28.9913 41.8898C30.7423 42.9669 34.0581 44.8543 35.9829 44.8543C36.6415 44.8543 37.1762 44.6738 37.6533 44.4809C38.1228 44.2908 38.5307 43.9567 38.8783 43.6102C39.749 42.7395 39.9362 41.934 40.18 40.7196C40.7656 37.8041 40.804 34.9346 40.804 31.7014C40.804 28.6687 40.5314 23.5135 39.39 21.797C38.5884 20.5913 37.2194 19.8262 35.668 19.9606C34.8808 20.0287 34.1071 20.3388 33.4476 20.5721C33.2373 20.647 33.173 20.6901 32.9666 20.7717C32.7611 20.8533 32.6431 20.8975 32.4549 20.9935C30.0348 22.2137 27.5579 23.6556 25.3826 25.2924C24.148 26.2227 21.6789 28.0994 20.8168 29.2159C20.7026 29.3628 20.6104 29.4367 20.4847 29.5644C19.9423 30.1116 19.372 31.1647 19.372 32.0671L19.3711 32.0681Z" fill="white"/>
</svg>
