<svg width="64" height="64" viewBox="0 0 64 64" fill="none" xmlns="http://www.w3.org/2000/svg">
<path fill-rule="evenodd" clip-rule="evenodd" d="M0.417969 3.15364C0.417969 4.77316 2.17477 6.08166 3.18373 7.22694L4.49316 8.65348C4.79748 8.96164 4.84452 9.09605 5.11332 9.40133C5.58756 9.93989 5.97061 10.2029 6.43909 10.8106L11.7028 16.489C12.0196 16.802 12.0704 16.8912 12.3354 17.2234L15.6167 20.7812C15.8673 21.0289 16.0669 21.2074 16.3031 21.4628L22.2071 27.8689C23.6826 29.5431 25.3674 30.8746 25.4144 32.8676C25.4999 36.4685 25.4097 40.1981 25.4097 43.8144V60.2276C25.4097 61.8519 25.1389 63.8333 27.6474 63.8333C28.6593 63.8333 30.0762 61.8586 30.7933 61.0109C31.2465 60.4753 31.7754 59.9722 32.1959 59.4289L35.0212 56.161C36.3805 54.5444 38.5453 52.7424 38.5953 50.6583C38.6893 46.6887 38.5904 42.578 38.5904 38.592C38.5904 35.8071 38.0452 32.2195 39.4391 30.4887C39.6877 30.1805 39.8903 30.0528 40.1543 29.712C40.4615 29.3156 40.5776 29.2023 40.9223 28.8634C41.4695 28.3248 41.7969 27.8593 42.3517 27.3092C42.9037 26.762 43.2292 26.3021 43.7812 25.7549C45.0081 24.5386 46.9107 22.2413 48.1328 21.0298L51.7328 17.1696C52.0496 16.7914 52.1217 16.6618 52.4836 16.3047L61.1879 6.85442C62.1354 5.91842 63.5821 4.56002 63.5821 3.1565C63.5821 1.66274 62.3188 0.171875 60.8471 0.171875H3.15397C1.68229 0.171875 0.417969 1.66274 0.417969 3.1565V3.15364Z" fill="white"/>
</svg>
