<svg width="13" height="13" viewBox="0 0 13 13" fill="none" xmlns="http://www.w3.org/2000/svg">
<g clip-path="url(#clip0_3667_11)">
<path fill-rule="evenodd" clip-rule="evenodd" d="M4.47808 2.70925L4.4786 11.5729C4.48354 12.5006 3.32342 12.4858 3.3242 11.5973L3.32498 2.70951C3.22228 2.77841 2.1256 3.89693 1.93788 4.08465C1.61678 4.40575 1.62848 4.46295 1.21144 4.46295C1.01982 4.46295 0.75514 4.19827 0.75514 4.00639C0.75514 3.63953 0.77126 3.64187 1.0492 3.36393L2.22622 2.18717C2.35388 2.05951 3.47214 0.918109 3.59278 0.839589C3.7883 0.712709 4.05376 0.712709 4.24226 0.855709L6.77778 3.38811C6.9525 3.56283 7.08614 3.67385 7.0513 3.98429C7.02114 4.25157 6.7705 4.46321 6.59162 4.46321C6.1816 4.46321 6.19304 4.41277 5.87714 4.09687C5.71516 3.93489 5.57086 3.79059 5.40888 3.62861C5.26328 3.48275 4.57532 2.77503 4.47808 2.70977V2.70925ZM3.98356 12.6532H3.82158C3.52206 12.6288 3.23242 12.4683 3.06134 12.1722C2.89 11.8755 2.9407 11.5199 2.9407 11.0677V3.64603C2.63364 3.85169 2.07022 4.62233 1.7083 4.79159C1.05674 5.09631 0.43196 4.63039 0.34668 4.04487V3.77369C0.36202 3.66917 0.39556 3.56387 0.45016 3.46143C0.57756 3.22249 2.50364 1.35699 2.80264 1.05799C3.28546 0.575169 3.3801 0.355469 3.97368 0.355469C4.40034 0.355469 4.68738 0.744949 5.01238 1.06995C5.31034 1.36791 5.59114 1.64845 5.8891 1.94667L7.19846 3.25525C7.94752 3.99807 6.96264 5.36281 5.9437 4.70215C5.79576 4.60621 5.0129 3.74691 4.8621 3.64603C4.8621 6.11993 4.8621 8.59383 4.8621 11.0677C4.8621 11.5295 4.91566 11.8823 4.73262 12.1873C4.56024 12.4741 4.27658 12.629 3.98356 12.6532Z" fill="#FEFEFE"/>
<path fill-rule="evenodd" clip-rule="evenodd" d="M11.6839 8.52207C12.0006 8.52207 12.2603 8.78207 12.2603 9.09849C12.2603 9.35485 12.1116 9.47549 11.9782 9.60887L9.60026 11.9868C9.22326 12.3643 8.9565 12.3643 8.5795 11.9868L6.20154 9.60887C6.0679 9.47523 5.91944 9.35485 5.91944 9.09849C5.91944 8.78285 6.18204 8.52207 6.49586 8.52207C6.78628 8.52207 6.92668 8.72461 7.07852 8.87645C7.26884 9.06677 8.4105 10.2305 8.51372 10.2997L8.5132 1.43603C8.5093 0.720509 9.17802 0.569709 9.51758 0.937089C9.6234 1.05149 9.6676 1.19709 9.6676 1.41159L9.66682 10.2994C9.77082 10.2297 10.8984 9.07977 11.0901 8.88815C11.2445 8.73371 11.3893 8.52181 11.6844 8.52181L11.6839 8.52207ZM12.6446 8.96355V9.23525C12.6293 9.33977 12.5957 9.44481 12.5411 9.54725C12.4085 9.79581 10.1554 11.979 9.75652 12.3831C9.6 12.5417 9.3998 12.6316 9.19258 12.6532H8.99628C8.78334 12.6311 8.57508 12.5372 8.41128 12.3711L7.10244 11.062C6.80448 10.7638 6.52394 10.4832 6.22572 10.1853C5.90644 9.86601 5.53516 9.59613 5.53516 9.14659C5.53516 8.24153 6.48832 7.88507 7.07644 8.32603C7.23166 8.44251 7.98254 9.26463 8.12944 9.36265C8.12944 6.88069 8.12944 4.39873 8.12944 1.91677C8.12944 1.43785 8.0738 1.11051 8.27296 0.811249C8.47212 0.511989 8.7537 0.371069 9.03424 0.355469H9.14162C9.61508 0.381989 10.0545 0.756649 10.0516 1.31565L10.0511 9.36265C10.1925 9.26801 10.5126 8.91337 10.6577 8.76829C10.8415 8.58447 11.0412 8.33071 11.2835 8.21735C11.9345 7.91263 12.5596 8.37829 12.6451 8.96355H12.6446Z" fill="#FEFEFE"/>
<path fill-rule="evenodd" clip-rule="evenodd" d="M9.66607 10.2979L9.66685 1.41001C9.66685 1.19577 9.62265 1.04991 9.51683 0.935511C9.17727 0.568132 8.50881 0.718931 8.51245 1.43445L8.51297 10.2981C8.41001 10.229 7.26835 9.06545 7.07777 8.87487C6.92593 8.72303 6.78553 8.52049 6.49537 8.52049C6.18155 8.52049 5.91895 8.78127 5.91895 9.09691C5.91895 9.35327 6.06767 9.47391 6.20105 9.60729L8.57901 11.9853C8.95601 12.3628 9.22303 12.3628 9.59977 11.9853L11.9777 9.60729C12.1114 9.47365 12.2598 9.35327 12.2598 9.09691C12.2598 8.78049 11.9998 8.52049 11.6834 8.52049C11.3883 8.52049 11.2435 8.73213 11.089 8.88683C10.8974 9.07845 9.76981 10.2282 9.66581 10.2981L9.66607 10.2979Z" fill="#FEFEFE"/>
</g>
<defs>
<clipPath id="clip0_3667_11">
<rect width="13" height="13" fill="white"/>
</clipPath>
</defs>
</svg>
