<svg width="13" height="13" viewBox="0 0 13 13" fill="none" xmlns="http://www.w3.org/2000/svg">
<g clip-path="url(#clip0_3667_4)">
<path fill-rule="evenodd" clip-rule="evenodd" d="M8.513 10.2994L8.51248 1.43577C8.50754 0.508089 9.66766 0.522909 9.66688 1.41133L9.6661 10.2992C9.7688 10.2303 10.8655 9.11175 11.0532 8.92403C11.3743 8.60293 11.3626 8.54573 11.7796 8.54573C11.9713 8.54573 12.2359 8.81041 12.2359 9.00229C12.2359 9.36915 12.2198 9.36681 11.9419 9.64475L10.7649 10.8215C10.6372 10.9492 9.51894 12.0906 9.3983 12.1691C9.20278 12.296 8.93732 12.296 8.74882 12.153L6.2133 9.62057C6.03858 9.44585 5.90494 9.33483 5.93978 9.02439C5.96994 8.75711 6.22058 8.54547 6.39946 8.54547C6.80948 8.54547 6.79804 8.59591 7.11394 8.91181C7.27592 9.07379 7.42022 9.21809 7.5822 9.38007C7.7278 9.52593 8.41576 10.2336 8.513 10.2989V10.2994ZM9.00752 0.355469H9.1695C9.46902 0.379909 9.75866 0.540329 9.92974 0.836469C10.1011 1.13313 10.0504 1.48881 10.0504 1.94095V9.36265C10.3574 9.15699 10.9209 8.38635 11.2828 8.21709C11.9343 7.91237 12.5591 8.37829 12.6444 8.96381V9.23499C12.6291 9.33951 12.5955 9.44481 12.5409 9.54725C12.4135 9.78619 10.4874 11.6517 10.1884 11.9507C9.70562 12.4335 9.61098 12.6532 9.0174 12.6532C8.59074 12.6532 8.3037 12.2637 7.9787 11.9387C7.68074 11.6408 7.39994 11.3602 7.10198 11.062L5.79262 9.75343C5.04356 9.01061 6.02844 7.64587 7.04738 8.30653C7.19532 8.40247 7.97818 9.26177 8.12898 9.36265C8.12898 6.88875 8.12898 4.41485 8.12898 1.94095C8.12898 1.47919 8.07542 1.12637 8.25846 0.821389C8.43084 0.534609 8.7145 0.379649 9.00752 0.355469Z" fill="#FEFEFE"/>
<path fill-rule="evenodd" clip-rule="evenodd" d="M1.30741 4.48661C0.990731 4.48661 0.730991 4.22661 0.730991 3.91019C0.730991 3.65383 0.879711 3.53319 1.01309 3.39981L3.39105 1.02185C3.76805 0.644329 4.03481 0.644329 4.41181 1.02185L6.78977 3.39981C6.92341 3.53345 7.07187 3.65383 7.07187 3.91019C7.07187 4.22583 6.80927 4.48661 6.49545 4.48661C6.20503 4.48661 6.06463 4.28407 5.91279 4.13223C5.72247 3.94191 4.58081 2.77815 4.47759 2.70899L4.47811 11.5726C4.48201 12.2882 3.81329 12.439 3.47373 12.0716C3.36791 11.9572 3.32371 11.8116 3.32371 11.5971L3.32449 2.70925C3.22049 2.77893 2.09287 3.92891 1.90125 4.12053C1.74681 4.27497 1.60199 4.48687 1.30689 4.48687L1.30741 4.48661ZM0.346711 4.04513V3.77343C0.362051 3.66891 0.395591 3.56387 0.450191 3.46143C0.582791 3.21287 2.83595 1.02965 3.23479 0.625609C3.39131 0.467009 3.59151 0.377049 3.79873 0.355469H3.99503C4.20797 0.377569 4.41623 0.471429 4.58003 0.637569L5.88887 1.94667C6.18683 2.24489 6.46737 2.52543 6.76559 2.82339C7.08487 3.14267 7.45615 3.41255 7.45615 3.86209C7.45615 4.76715 6.50299 5.12361 5.91487 4.68265C5.75965 4.56617 5.00877 3.74405 4.86187 3.64603C4.86187 6.12799 4.86187 8.60995 4.86187 11.0919C4.86187 11.5708 4.91751 11.8982 4.71835 12.1974C4.51919 12.4967 4.23761 12.6376 3.95707 12.6532H3.84969C3.37623 12.6267 2.93683 12.252 2.93969 11.693L2.94021 3.64603C2.79877 3.74067 2.47871 4.09531 2.33363 4.24039C2.14981 4.42421 1.95013 4.67797 1.70781 4.79133C1.05677 5.09605 0.431731 4.63039 0.346191 4.04513H0.346711Z" fill="#FEFEFE"/>
<path fill-rule="evenodd" clip-rule="evenodd" d="M3.32521 2.70882L3.32443 11.5967C3.32443 11.8109 3.36863 11.9568 3.47445 12.0712C3.81401 12.4385 4.48247 12.2877 4.47883 11.5722L4.47831 2.70856C4.58127 2.77772 5.72293 3.94122 5.91351 4.1318C6.06535 4.28364 6.20575 4.48618 6.49591 4.48618C6.80973 4.48618 7.07233 4.2254 7.07233 3.90976C7.07233 3.6534 6.92361 3.53276 6.79023 3.39938L4.41227 1.02142C4.03527 0.643901 3.76825 0.643901 3.39151 1.02142L1.01355 3.39938C0.879905 3.53302 0.731445 3.6534 0.731445 3.90976C0.731445 4.22618 0.991445 4.48618 1.30787 4.48618C1.60297 4.48618 1.74779 4.27454 1.90223 4.11984C2.09385 3.92822 3.22147 2.7785 3.32547 2.70856L3.32521 2.70882Z" fill="#FEFEFE"/>
</g>
<defs>
<clipPath id="clip0_3667_4">
<rect width="13" height="13" fill="white"/>
</clipPath>
</defs>
</svg>
