<svg width="72" height="64" viewBox="0 0 72 64" fill="none" xmlns="http://www.w3.org/2000/svg">
<path fill-rule="evenodd" clip-rule="evenodd" d="M16.2325 4.65724V60.5811C16.2316 62.8323 15.9983 62.5529 16.8508 63.8249H18.0863C18.7842 62.7824 18.55 62.3437 18.55 60.5811V4.5027C19.5503 5.17278 26.6245 12.6752 28.6386 14.4972L30.0978 15.9728C31.6012 17.2947 31.4716 17.384 32.0322 17.9005C33.5596 19.3059 33.8418 18.5129 34.461 18.0982C34.461 16.7254 34.1375 16.7705 32.8002 15.4332L29.5564 12.1885C29.3509 11.9801 29.2338 11.8438 29.0073 11.6566L25.1701 7.92415C24.3484 7.27711 23.9845 6.64158 22.9938 5.7747C22.5983 5.42814 22.2892 5.07678 21.909 4.69662C21.1506 3.93822 20.5045 3.29211 19.7461 2.53371C19.2508 2.03835 18.1036 0.47068 17.2281 0.6934C16.8594 0.78748 15.91 1.7859 15.4751 2.20254L13.8681 3.83932C13.6252 4.03996 13.4745 4.10815 13.2757 4.32799C12.3301 5.37151 13.0905 4.74173 11.6418 5.93885C11.1225 6.36797 11.0601 6.64446 10.6377 7.09662L8.31543 9.2547C6.83607 10.7341 5.46902 12.1011 3.98966 13.5805L0.740054 16.8195C0.0171738 17.5078 0.165976 17.2908 0.165976 18.5619C1.21814 18.8431 0.820695 19.6928 2.63701 18.0982L8.41813 12.2941C9.70261 11.311 11.1513 9.66269 12.3311 8.48285C13.2642 7.54973 15.3225 5.26877 16.2316 4.65917L16.2325 4.65724Z" fill="#fff"/>
<path fill-rule="evenodd" clip-rule="evenodd" d="M55.7807 59.3444C55.7807 40.5313 55.6108 20.9675 55.7845 2.18025C55.8028 0.158495 55.3823 0.175786 53.927 0.175786C53.229 1.21835 53.4633 1.65705 53.4633 3.42057V59.499C52.6204 58.9345 43.6088 49.6523 41.9183 48.0251L39.9897 46.0916C38.6274 44.6171 38.0725 45.555 37.5513 45.9035C37.5513 47.2763 37.8748 47.2311 39.2121 48.5684L52.2661 61.4679C55.0175 64.2193 53.9874 64.3047 59.2175 59.0737L63.6181 54.6692C63.9868 54.266 64.341 54.1095 64.7807 53.6699L70.1855 48.2603C71.6841 46.7617 71.8463 46.9767 71.8463 45.4407C71.2434 45.2794 71.2002 44.859 70.5253 45.0299C70.3285 45.0798 69.5078 45.7403 69.3532 45.8814L63.5433 51.6586C62.4009 52.801 56.4901 58.8692 55.7807 59.3444Z" fill="#fff"/>
</svg>
