<svg width="38" height="38" viewBox="0 0 38 38" fill="none" xmlns="http://www.w3.org/2000/svg">
<g clip-path="url(#clip0_3669_21)">
<path fill-rule="evenodd" clip-rule="evenodd" d="M3.82193 13.1147C2.89625 13.1147 2.13701 12.3547 2.13701 11.4298C2.13701 10.6804 2.57173 10.3278 2.96161 9.9379L9.91257 2.98694C11.0146 1.88342 11.7943 1.88342 12.8963 2.98694L19.8473 9.9379C20.2379 10.3285 20.6719 10.6804 20.6719 11.4298C20.6719 12.3524 19.9043 13.1147 18.987 13.1147C18.138 13.1147 17.7276 12.5227 17.2838 12.0788C16.7275 11.5225 13.3903 8.12074 13.0886 7.91858L13.0901 33.8277C13.1015 35.9193 11.1468 36.3601 10.1542 35.2862C9.84493 34.9518 9.71573 34.5262 9.71573 33.8992L9.71801 7.91934C9.41401 8.12302 6.11789 11.4845 5.55777 12.0446C5.10633 12.4961 4.68301 13.1155 3.82041 13.1155L3.82193 13.1147ZM1.01373 11.8242V11.03C1.05857 10.7245 1.15661 10.4175 1.31621 10.118C1.70381 9.39146 8.28997 3.00974 9.45581 1.8287C9.91333 1.3651 10.4985 1.10214 11.1042 1.03906H11.678C12.3005 1.10366 12.9092 1.37802 13.388 1.86366L17.2139 5.69026C18.0848 6.56198 18.9049 7.38202 19.7766 8.25298C20.7099 9.18626 21.7952 9.97514 21.7952 11.2892C21.7952 13.9347 19.009 14.9767 17.2899 13.6877C16.8362 13.3473 14.6413 10.9441 14.2119 10.6576C14.2119 17.9126 14.2119 25.1675 14.2119 32.4225C14.2119 33.8224 14.3745 34.7793 13.7924 35.654C13.2102 36.5288 12.3871 36.9407 11.5671 36.9863H11.2532C9.86925 36.9088 8.58485 35.8136 8.59321 34.1796L8.59473 10.6576C8.18129 10.9343 7.24573 11.9709 6.82165 12.395C6.28433 12.9323 5.70065 13.6741 4.99233 14.0054C3.08929 14.8961 1.26225 13.535 1.01221 11.8242H1.01373Z" fill="#FEFEFE"/>
<path fill-rule="evenodd" clip-rule="evenodd" d="M9.71946 7.91629L9.71718 33.8961C9.71718 34.5224 9.84638 34.9487 10.1557 35.2831C11.1483 36.357 13.1022 35.9162 13.0916 33.8247L13.0901 7.91553C13.391 8.11769 16.7282 11.5187 17.2853 12.0758C17.7291 12.5196 18.1395 13.1116 18.9877 13.1116C19.905 13.1116 20.6726 12.3494 20.6726 11.4267C20.6726 10.6774 20.2379 10.3247 19.848 9.93485L12.897 2.98389C11.795 1.88037 11.0145 1.88037 9.91326 2.98389L2.9623 9.93485C2.57166 10.3255 2.1377 10.6774 2.1377 11.4267C2.1377 12.3517 2.8977 13.1116 3.82262 13.1116C4.68522 13.1116 5.10854 12.493 5.55998 12.0408C6.1201 11.4807 9.41622 8.11997 9.72022 7.91553L9.71946 7.91629Z" fill="#FEFEFE"/>
<path fill-rule="evenodd" clip-rule="evenodd" d="M3.82193 13.1147C2.89625 13.1147 2.13701 12.3547 2.13701 11.4298C2.13701 10.6804 2.57173 10.3278 2.96161 9.9379L9.91257 2.98694C11.0146 1.88342 11.7943 1.88342 12.8963 2.98694L19.8473 9.9379C20.2379 10.3285 20.6719 10.6804 20.6719 11.4298C20.6719 12.3524 19.9043 13.1147 18.987 13.1147C18.138 13.1147 17.7276 12.5227 17.2838 12.0788C16.7275 11.5225 13.3903 8.12074 13.0886 7.91858L13.0901 33.8277C13.1015 35.9193 11.1468 36.3601 10.1542 35.2862C9.84493 34.9518 9.71573 34.5262 9.71573 33.8992L9.71801 7.91934C9.41401 8.12302 6.11789 11.4845 5.55777 12.0446C5.10633 12.4961 4.68301 13.1155 3.82041 13.1155L3.82193 13.1147ZM1.01373 11.8242V11.03C1.05857 10.7245 1.15661 10.4175 1.31621 10.118C1.70381 9.39146 8.28997 3.00974 9.45581 1.8287C9.91333 1.3651 10.4985 1.10214 11.1042 1.03906H11.678C12.3005 1.10366 12.9092 1.37802 13.388 1.86366L17.2139 5.69026C18.0848 6.56198 18.9049 7.38202 19.7766 8.25298C20.7099 9.18626 21.7952 9.97514 21.7952 11.2892C21.7952 13.9347 19.009 14.9767 17.2899 13.6877C16.8362 13.3473 14.6413 10.9441 14.2119 10.6576C14.2119 17.9126 14.2119 25.1675 14.2119 32.4225C14.2119 33.8224 14.3745 34.7793 13.7924 35.654C13.2102 36.5288 12.3871 36.9407 11.5671 36.9863H11.2532C9.86925 36.9088 8.58485 35.8136 8.59321 34.1796L8.59473 10.6576C8.18129 10.9343 7.24573 11.9709 6.82165 12.395C6.28433 12.9323 5.70065 13.6741 4.99233 14.0054C3.08929 14.8961 1.26225 13.535 1.01221 11.8242H1.01373Z" fill="#FEFEFE"/>
<path fill-rule="evenodd" clip-rule="evenodd" d="M9.71946 7.91629L9.71718 33.8961C9.71718 34.5224 9.84638 34.9487 10.1557 35.2831C11.1483 36.357 13.1022 35.9162 13.0916 33.8247L13.0901 7.91553C13.391 8.11769 16.7282 11.5187 17.2853 12.0758C17.7291 12.5196 18.1395 13.1116 18.9877 13.1116C19.905 13.1116 20.6726 12.3494 20.6726 11.4267C20.6726 10.6774 20.2379 10.3247 19.848 9.93485L12.897 2.98389C11.795 1.88037 11.0145 1.88037 9.91326 2.98389L2.9623 9.93485C2.57166 10.3255 2.1377 10.6774 2.1377 11.4267C2.1377 12.3517 2.8977 13.1116 3.82262 13.1116C4.68522 13.1116 5.10854 12.493 5.55998 12.0408C6.1201 11.4807 9.41622 8.11997 9.72022 7.91553L9.71946 7.91629Z" fill="#FEFEFE"/>
<path fill-rule="evenodd" clip-rule="evenodd" d="M35.183 24.9317C36.1087 24.9268 36.872 25.6827 36.8769 26.6076C36.8809 27.357 36.4481 27.7119 36.0603 28.1039L29.1465 35.0918C28.0504 36.2012 27.2707 36.2054 26.1628 35.1077L19.1748 28.194C18.7821 27.8054 18.3463 27.4559 18.3423 26.7065C18.3374 25.7839 19.1009 25.0175 20.0182 25.0126C20.8671 25.0081 21.2807 25.5979 21.7269 26.0394C22.2861 26.5928 25.6414 29.9767 25.9442 30.1772L25.8044 4.26842C25.7819 2.17699 27.7342 1.72577 28.7325 2.79433C29.0436 3.12708 29.175 3.55198 29.1784 4.17898L29.3147 30.1585C29.6176 29.9532 32.8958 26.5741 33.4529 26.011C33.9019 25.5572 34.3219 24.9355 35.1845 24.9309L35.183 24.9317ZM37.9981 26.2072L38.0023 27.0014C37.9591 27.3071 37.8627 27.6147 37.7047 27.915C37.321 28.6436 30.769 35.0604 29.6094 36.2476C29.1544 36.7136 28.5706 36.9797 27.9652 37.046L27.3914 37.0491C26.7687 36.9878 26.1585 36.7167 25.6771 36.2336L21.8309 32.4275C20.9553 31.5604 20.1309 30.7448 19.2545 29.8785C18.3163 28.9502 17.2268 28.1671 17.2198 26.8531C17.2057 24.2076 19.9862 23.1508 21.7122 24.4305C22.1677 24.7686 24.3754 27.16 24.8063 27.4442C24.7676 20.1893 24.7289 12.9345 24.6902 5.67963C24.6827 4.27973 24.515 3.32376 25.0924 2.44591C25.6699 1.56806 26.4908 1.15175 27.3106 1.10178L27.6245 1.1001C29.0088 1.17024 30.299 2.25853 30.2994 3.89255L30.4234 27.4142C30.8354 27.1354 31.7654 26.0938 32.1872 25.6674C32.7216 25.1272 33.3013 24.3824 34.0079 24.0473C35.9061 23.1464 37.7404 24.4978 37.9996 26.2072L37.9981 26.2072Z" fill="#FEFEFE"/>
<path fill-rule="evenodd" clip-rule="evenodd" d="M29.3134 30.1555L29.177 4.17602C29.1737 3.54978 29.0422 3.12412 28.7311 2.79138C27.7329 1.72281 25.7813 2.17403 25.8031 4.26546L25.9428 30.1742C25.6408 29.9737 22.2856 26.5905 21.7255 26.0364C21.2793 25.595 20.8658 25.0051 20.0176 25.0097C19.1003 25.0146 18.3368 25.7809 18.3417 26.7036C18.3457 27.4529 18.7823 27.8032 19.1742 28.191L26.1622 35.1048C27.2701 36.2024 28.0506 36.1982 29.1459 35.0889L36.0597 28.1009C36.4482 27.7082 36.8803 27.354 36.8763 26.6047C36.8714 25.6797 36.1073 24.9238 35.1824 24.9287C34.3198 24.9333 33.8998 25.5542 33.4508 26.0088C32.8937 26.5719 29.6155 29.9502 29.3126 30.1563L29.3134 30.1555Z" fill="#FEFEFE"/>
</g>
<defs>
<clipPath id="clip0_3669_21">
<rect width="38" height="38" fill="white"/>
</clipPath>
</defs>
</svg>
