<svg width="47" height="47" viewBox="0 0 47 47" fill="none" xmlns="http://www.w3.org/2000/svg">
<path fill-rule="evenodd" clip-rule="evenodd" d="M31.4151 22.9064L31.3888 23.84C31.3427 24.1659 31.3245 24.4901 31.2467 24.7858C30.807 26.4591 30.0323 27.7801 28.9016 29.031C28.7681 29.1787 28.7627 29.1403 28.6187 29.2602C27.359 30.3097 27.6775 30.0955 26.3393 30.8198C25.8292 31.0957 25.2942 31.2203 24.7317 31.3877C24.5801 31.4328 24.4496 31.4901 24.3477 31.5155L22.777 31.6723C21.8595 31.6723 20.7105 31.5046 19.8974 31.2245C19.0796 30.9429 19.1214 31.0526 18.312 30.5706C17.4045 30.0302 17.9311 30.3976 16.9631 29.6802L15.5744 28.2535C15.4447 28.0635 15.4996 28.0952 15.3381 27.9141C15.0727 27.6162 14.6906 26.836 14.5232 26.4894C13.6022 24.5854 13.4619 22.1506 14.1549 20.0426C14.5875 18.7265 15.2275 17.6265 16.2007 16.6497C16.5409 16.308 16.9235 15.8774 17.3494 15.6231C17.7418 15.3887 17.5468 15.4214 18.0153 15.2014C18.2017 15.1137 18.1726 15.1186 18.3351 15.0093C18.598 14.8328 18.5907 14.9104 18.8546 14.7609C19.2344 14.546 19.8573 14.3444 20.326 14.2489C21.392 14.0312 20.6515 14.0276 22.2659 13.9475C23.4555 13.8887 24.6911 14.0889 25.7854 14.5239C26.3218 14.7371 26.726 14.9973 27.2455 15.2393L28.4875 16.1728C28.6635 16.3284 28.8718 16.5408 29.0325 16.7156C29.1475 16.8407 29.1546 16.8821 29.2627 16.9973C29.6278 17.3875 30.0434 17.9382 30.2802 18.4111L31.2787 20.9958C31.3095 21.2127 31.3001 21.3478 31.3336 21.5167C31.5197 22.4502 31.3139 21.983 31.3979 22.4773C31.403 22.5079 31.4343 22.6627 31.4353 22.6787C31.4572 22.9598 31.4151 22.5997 31.4151 22.9069V22.9064ZM21.8181 0H24.3634C25.3915 0.0475135 26.3846 0.146972 27.1012 0.283111C28.2477 0.500738 29.3024 0.773756 30.4331 1.11004C33.0111 1.87715 35.5542 3.29246 37.6133 4.93525C37.7546 5.048 37.8718 5.14229 38.0062 5.24618L38.726 5.87025C38.8897 6.03667 38.9291 6.05809 39.1029 6.19719C39.3307 6.37887 39.564 6.64524 39.7812 6.86238C40.2536 7.3348 40.6509 7.80034 41.0911 8.30378C41.7437 9.05021 42.3188 9.85966 42.856 10.6977C43.4001 11.5465 43.8769 12.4079 44.309 13.3397C45.1972 15.2558 45.9355 17.4628 46.2497 19.6531C46.3865 20.6073 46.4798 21.5756 46.5155 22.5458V24.2545C46.4818 25.128 46.3944 25.9978 46.2423 26.856L45.7647 29.1297C45.6019 29.8276 45.3501 30.6142 45.1081 31.2242C44.5955 32.5162 44.0571 33.7777 43.3442 34.963L41.9944 37.0684C41.5598 37.7772 40.8993 38.3998 40.3732 39.0305C39.7607 39.7644 38.9961 40.3441 38.3097 40.998C37.1487 42.1041 34.8361 43.5686 33.3085 44.2506L31.3698 45.0632C31.2206 45.1176 31.2804 45.1125 31.1015 45.1789L28.728 45.8769C28.5293 45.9404 28.3806 45.9645 28.151 46.0036C27.3733 46.1363 26.6022 46.3633 25.7846 46.3887L22.0097 46.4529L19.9712 46.3158C19.728 46.2845 19.6997 46.2282 19.3878 46.1954C18.1052 46.0617 16.9087 45.6639 15.7091 45.2673L13.4781 44.3631L9.456 41.9867C8.90356 41.613 8.39765 41.1651 7.88805 40.7392L7.14975 40.0699C6.58648 39.5738 5.52764 38.3867 5.10888 37.8237C4.5077 37.0155 3.89003 36.2164 3.36959 35.3402L2.37501 33.5194C2.22262 33.2245 2.05005 32.8591 1.91908 32.5674L1.14335 30.5278C0.929172 29.8872 0.657139 29.0263 0.537494 28.3185C0.251674 26.628 0.0239541 25.6908 0.00155141 23.9276C-0.00263371 23.6066 -0.0691034 23.5416 -0.061964 23.2939C-0.0555632 23.0667 0.0017976 22.9232 0.00056668 22.5879C-0.00361845 21.5278 0.131537 20.4303 0.310758 19.3789C0.625381 17.5344 1.1793 15.6406 1.92031 13.9503C2.51435 12.5958 3.14975 11.4618 3.94049 10.2757C4.32823 9.69423 4.68495 9.16395 5.13202 8.65213L6.09633 7.50516C6.93803 6.49827 8.43187 5.27769 9.47766 4.48793C9.75856 4.27597 10.0296 4.12186 10.31 3.91285C10.6059 3.69251 10.8366 3.56302 11.1685 3.36361C12.0761 2.81782 13.0119 2.40029 13.9474 1.9195L14.9432 1.50763C15.9722 1.09232 17.0995 0.786311 18.1958 0.537419C19.2238 0.303791 19.65 0.296159 20.6017 0.128016C20.9434 0.0677006 21.3592 0.0258493 21.8181 0ZM10.4922 22.2026C10.4922 23.9133 10.5345 23.7518 10.7302 25.2277C10.7795 25.5999 10.73 25.5005 10.8487 25.8131C10.939 26.0504 10.9129 26.1629 10.9858 26.3798L11.4914 27.6657C11.5791 27.8944 11.5269 27.7535 11.6163 27.9246L12.0951 28.8535C12.4397 29.4301 12.7913 30.0138 13.2593 30.5046C13.41 30.6627 13.4358 30.7356 13.5783 30.8894L14.6652 31.9781C14.8462 32.1462 14.9045 32.1231 15.0813 32.2658L15.8755 32.8793C16.808 33.5268 16.5594 33.2821 17.276 33.6541C17.4619 33.7506 17.5365 33.8227 17.7295 33.9044C19.1729 34.5152 21.2832 35.0859 22.8779 34.8446C23.2248 34.7922 23.6583 34.8483 23.9661 34.7811L24.8851 34.6125C25.3282 34.5622 26.2964 34.108 26.6086 34.1238C26.9144 34.1393 27.0463 34.4369 27.2108 34.6607L28.4368 36.5061C28.5188 36.6427 28.4545 36.5654 28.5567 36.706L31.2822 40.7629C31.4099 40.994 31.3117 40.9017 31.4949 41.1262C31.6249 41.2855 31.6492 41.2676 31.6709 41.5261C31.2575 41.6223 30.3693 42.0278 29.9163 42.2028C29.3233 42.432 28.6455 42.6134 27.9956 42.7776C27.6667 42.8606 27.2854 42.9391 26.9924 42.9901C24.2278 43.4726 21.1369 43.4259 18.4772 42.7548C16.4735 42.2491 14.8583 41.6019 13.1522 40.5935C13.0057 40.5068 12.9183 40.4724 12.7824 40.3874C10.9023 39.209 9.18002 37.7774 7.78465 36.0438C6.17437 34.0433 5.01509 32.111 4.19726 29.6496C3.99145 29.0305 3.78909 28.338 3.65 27.7016C2.80362 23.8321 3.05202 20.7341 4.18003 16.9146C4.53774 15.7038 5.10347 14.5977 5.67117 13.4788C5.81568 13.1937 5.95822 12.9862 6.1207 12.7127C6.87304 11.4463 7.81961 10.2553 8.84472 9.23017L11.4789 6.93771C12.3169 6.33136 13.2241 5.79024 14.1478 5.31954C15.4191 4.67134 16.793 4.18365 18.1776 3.78237C18.4762 3.69571 18.8403 3.62235 19.1593 3.54849C19.8986 3.3769 20.6066 3.3385 21.3523 3.24618C23.0547 3.03545 24.9604 3.08025 26.6441 3.42811C27.9789 3.70384 28.6805 3.8774 30.0569 4.30206C30.3526 4.39315 30.5968 4.53101 30.9277 4.64721C31.2548 4.76193 31.4634 4.87936 31.7728 5.01797C32.9922 5.56326 34.1204 6.2708 35.1908 7.03864L36.2292 7.85573C36.4572 8.05957 36.6546 8.21196 36.8703 8.43032C37.8238 9.39512 38.6251 10.1873 39.4508 11.2885C40.728 12.9924 41.614 14.8941 42.357 16.8924C42.4205 17.0635 42.4392 17.1925 42.4993 17.3899L43.0776 19.8188C43.1096 19.9879 43.1642 20.1371 43.1839 20.3523C43.3284 21.9217 43.4963 23.5344 43.2792 25.1098C43.1696 25.9052 43.114 26.6873 42.9323 27.4502C42.3651 29.8331 41.505 32.142 40.1428 34.1944C39.597 35.0169 38.9621 35.7336 38.3624 36.5091C38.1524 36.7806 37.9353 36.931 37.7122 37.2026C37.6219 37.3126 37.6586 37.2752 37.5643 37.3744L37.2324 37.6824C36.9089 37.9564 36.631 38.2831 36.278 38.5194L35.0571 36.6688C35.0495 36.6578 35.0372 36.6435 35.0296 36.6324C34.5311 35.9278 34.1182 35.1693 33.6005 34.4783C33.4284 34.2489 33.3307 34.0581 33.1613 33.8299L31.8031 31.7971C31.4316 31.2257 31.3457 31.0485 31.747 30.5332L31.8693 30.3995C32.0052 30.2708 32.0077 30.3045 32.117 30.1354C32.2154 29.9835 32.2238 29.952 32.3469 29.7895L33.2199 28.3589C33.3019 28.2082 33.3479 28.1735 33.441 28.0042C33.9663 27.0472 34.5222 25.2673 34.6111 24.1194C34.7275 22.6152 34.7113 21.5977 34.3961 20.1177L33.8452 18.4291C33.5985 17.9392 33.4306 17.3742 33.1401 16.8949L32.7226 16.2247C31.8885 15.0948 31.1441 14.1073 29.9986 13.254C29.7851 13.095 29.6029 12.9207 29.3816 12.7831C29.0946 12.6049 28.2319 12.0436 27.9685 11.9567C27.9016 11.9345 27.841 11.9247 27.7689 11.9005C27.1391 11.6888 26.6118 11.3171 25.941 11.1691C25.1158 10.9872 24.4006 10.742 23.5463 10.7484L21.4331 10.7491L19.7765 11.0118C18.9215 11.2531 17.9474 11.5145 17.1593 11.9778L15.76 12.8181C15.5259 12.9655 15.2891 13.1246 15.0845 13.2939L13.6643 14.625C13.0788 15.3387 12.5523 15.8769 12.1234 16.7314C12.0894 16.7991 12.05 16.8592 12.003 16.931C11.8213 17.21 11.7551 17.3183 11.6337 17.6497C11.0092 19.3562 10.4924 20.1378 10.4924 22.2031L10.4922 22.2026Z" fill="#BEBEBE"/>
<path fill-rule="evenodd" clip-rule="evenodd" d="M19.3218 16.6988C19.3218 18.6479 21.2578 17.9785 21.7531 17.9785C22.438 17.9785 23.4087 18.171 24.0182 18.4007C24.6586 18.642 25.4097 19.2589 25.8754 19.7426L26.2777 20.2362C26.5291 20.543 26.921 21.3849 26.9995 21.8177L27.3909 22.77C27.6243 23.045 27.921 23.2067 28.3082 23.2463C28.7063 23.287 29.2526 22.9915 29.4618 22.6799C29.8843 22.0514 29.5581 21.4487 29.5135 21.2232C29.4008 20.6518 29.4478 20.9775 29.3033 20.5376C29.1278 20.0031 28.338 18.5809 27.906 18.1599L25.7883 16.4384C25.2499 16.0927 24.1211 15.688 23.5276 15.5639L22.3658 15.4558C21.5992 15.4357 20.7556 15.3475 20.0222 15.6713L19.7066 15.9315C19.6977 15.9411 19.6849 15.9551 19.676 15.9647L19.6138 16.0304C19.4742 16.1855 19.3218 16.4236 19.3218 16.6983V16.6988Z" fill="#BEBEBE"/>
</svg>
