<svg width="163" height="182" viewBox="0 0 163 182" fill="none" xmlns="http://www.w3.org/2000/svg">
<path fill-rule="evenodd" clip-rule="evenodd" d="M11.9038 134.062C11.8069 132.897 10.3621 129.236 9.80623 127.684C9.60847 127.132 9.48175 126.767 9.40111 126.131C9.30031 125.334 9.52303 126.202 9.31375 125.495L8.99887 124.669C7.39855 119.426 6.65839 111.878 6.65839 105.811C6.65839 90.0877 10.8833 76.639 18.4011 64.6851C18.7592 64.1158 18.9445 63.7385 19.3419 63.2038L21.2245 60.4448C23.6283 56.8813 26.683 53.6105 29.7137 50.5712C32.3739 47.9024 35.4661 45.4256 38.5409 43.255C41.8088 40.9481 45.1304 38.864 48.763 37.1321C59.0081 32.2467 69.4386 29.9379 81.1208 29.9379C83.0293 29.9379 84.2081 30.0944 85.9678 30.1357C87.4443 30.1712 89.0936 30.5945 90.6209 30.7289C96.0997 31.2089 101.824 33.0982 106.835 35.0969C108.19 35.6374 109.16 36.1299 110.497 36.6829C111.586 37.1331 113.053 37.8704 114.004 38.4233C117.193 40.2761 120.392 42.1923 123.355 44.408C126.838 47.0134 129.875 49.8973 132.935 52.9894C134.022 54.0877 135.487 56.3552 136.614 57.1808C137.725 56.8841 150.173 45.5696 151.344 44.6691L160.175 36.9526C160.944 36.2691 162.068 35.6422 162.645 34.7821C161.395 32.9158 159.564 31.3155 158.206 29.5357C157.692 28.8637 157.168 28.3971 156.541 27.7702L142.184 15.6934L133.873 10.6861C131.374 9.29406 128.835 8.2083 126.22 7.03806C116.066 2.49438 102.658 0.0742188 91.8162 0.0742188C87.0882 0.0742188 82.3544 0.520619 78.1275 1.11678C74.0005 1.69854 69.9521 2.5155 66.0622 3.7827C60.1102 5.7219 58.5618 6.2403 53.0667 8.74686C52.6232 8.94942 52.196 9.12798 51.8235 9.31998C45.0238 12.8163 38.4584 16.8339 32.7387 21.9171C32.3057 22.3021 32.1685 22.3136 31.7297 22.7245L28.8056 25.4499C26.9825 27.2729 25.1269 29.048 23.468 31.0093L18.4491 37.2905C17.8635 38.0691 17.4574 38.6595 16.9505 39.4246C16.7009 39.8019 16.4849 40.0909 16.1979 40.4883C13.8008 43.8041 11.9393 47.4281 10.0894 51.128C6.19951 58.9049 2.34511 70.9395 1.61935 79.5862C1.52527 80.7085 1.29967 81.8009 1.22095 82.8205C1.17583 83.407 1.24591 84.031 1.20079 84.6166C1.14895 85.2963 0.989586 85.5219 0.944466 86.3197C0.634386 91.7974 1.24783 101.314 2.27215 106.568C3.78319 114.316 5.79247 122.139 9.34831 129.155C9.95215 130.346 11.0696 133.454 11.9048 134.065L11.9038 134.062Z" fill="#3A84B1"/>
<path fill-rule="evenodd" clip-rule="evenodd" d="M33.091 155.25C29.3355 147.11 27.2916 142.022 26.515 132.45C25.7259 122.722 27.0622 110.354 32.9047 102.802C33.2926 102.3 33.2667 102.223 33.715 101.796C34.7518 100.809 35.4727 99.8147 36.6823 99.3145C41.299 97.4012 41.9854 105.889 42.2427 108.109C44.106 124.23 50.4987 127.172 51.2782 128.517C51.714 129.05 51.4673 128.708 51.858 129.016C52.0587 127.896 53.7531 126.549 54.6276 125.737C55.1259 125.274 55.3495 125.115 56.0955 124.981C55.6366 124.573 56.7627 124.47 55.3659 124.645L55.3678 123.988C53.3863 122.13 51.4807 111.938 60.6353 107.731C68.371 104.175 75.9569 111.35 75.9271 115.302L75.8724 115.496C81.6776 114.58 85.5953 113.827 91.6116 113.883C93.5086 113.902 95.1435 113.515 96.5163 112.936C99.163 111.82 101.343 109.366 101.624 106.339C101.906 103.314 99.9607 100.295 97.5329 98.8806C95.9854 97.9791 88.5819 95.9257 86.37 95.5148C80.8625 94.4905 77.0955 93.7427 71.3969 92.9315C68.3825 92.5023 67.338 92.6185 64.3505 91.0988C61.8315 89.8163 59.5025 87.8886 58.2583 85.286C56.0446 80.6559 55.89 75.1878 57.7044 70.694L62.1454 63.4316C63.6967 61.2678 67.2795 57.4259 69.1207 55.8774L72.3233 53.2287C75.4155 50.9986 78.3703 49.6959 79.4177 45.5919C80.3921 41.775 78.4635 39.1782 75.7639 38.1164C71.0455 36.2598 61.0107 39.783 56.4756 41.4159C51.3079 43.2774 45.7275 46.5471 41.395 49.743C40.7787 50.198 40.3716 50.4755 39.7764 50.9497L37.2171 53.0319C37.1719 53.0703 37.0433 53.1788 36.9982 53.2172L30.4836 59.8191C24.282 66.7849 19.9217 75.2166 16.9457 84.0169C12.4347 97.358 12.6756 111.41 16.2075 124.914C17.2443 128.877 19.2027 134.066 20.9806 137.697L22.4225 140.493C24.9982 145.215 26.0254 146.367 28.7182 150.34C28.818 150.488 28.8564 150.554 28.9649 150.698L30.0334 152.052C30.7726 152.962 32.0052 154.809 33.0891 155.251L33.091 155.25Z" fill="#81CBF8"/>
<path fill-rule="evenodd" clip-rule="evenodd" d="M33.0909 155.25L33.5661 156.177C34.6586 157.574 39.7312 162.254 41.2269 163.459L45.9252 167.042C46.8909 167.697 46.6173 167.55 47.0157 167.559L47.3306 167.63C46.3082 166.681 45.5844 165.003 44.8039 163.502C40.8784 155.955 42.0477 143.525 46.1796 136.469C46.8237 135.369 46.841 134.941 47.6944 133.761L50.1991 130.199C50.8605 129.369 51.4519 129.142 51.2781 128.516C50.4986 127.17 44.105 124.23 42.2426 108.108C41.9863 105.888 41.2989 97.4005 36.6823 99.3138C35.4736 99.8149 34.7527 100.809 33.7149 101.795C33.2666 102.222 33.2925 102.299 32.9047 102.801C27.0621 110.354 25.7248 122.721 26.5149 132.449C27.2916 142.02 29.3354 147.109 33.0909 155.249V155.25Z" fill="#539DCA"/>
<path fill-rule="evenodd" clip-rule="evenodd" d="M47.0158 167.562C47.3115 168.033 47.0994 167.788 47.4603 168.116L53.6734 171.799C57.6162 173.834 59.5323 174.748 63.644 176.357L65.5822 177.041C65.9384 177.154 66.0488 177.166 66.4213 177.246C65.9048 176.793 65.9749 176.66 65.4046 176.217C64.9304 175.849 64.6174 175.663 64.1461 175.25L61.1365 171.803C60.7112 171.269 60.5346 171.126 60.1602 170.559C57.0354 165.83 54.6718 161.181 53.8683 154.859C53.5592 152.43 53.468 149.328 54.4712 147.158C55.8046 144.274 57.3973 144.48 59.7474 145.952C61.413 146.996 60.0104 146.274 61.2786 147.433C61.5656 147.696 61.244 147.325 61.5963 147.723L61.9333 148.201C61.9592 148.235 61.9938 148.284 62.0206 148.316C62.0475 148.347 62.0878 148.392 62.1157 148.421C62.1435 148.451 62.1886 148.49 62.2184 148.518L63.3483 149.82C65.1262 151.62 63.5077 150.354 65.5266 152.07L67.1086 153.928C67.6578 154.495 67.9438 154.594 68.1733 155.096H68.4056C68.6754 154.633 68.9365 154.153 69.26 153.686C69.7582 152.966 69.6843 153.023 70.6242 152.628L70.5214 152.226C69.8562 152.033 68.973 150.303 68.6552 149.343C68.2357 148.077 68.1118 146.602 68.3403 145.296C68.7992 142.677 70.3544 140.61 71.8635 139.542C72.8677 138.833 73.9506 138.3 75.1899 138.021C79.4744 137.054 84.163 140.231 84.5269 142.401L84.7506 142.431C85.2853 141.786 85.6069 141.819 86.4066 141.572C87.2293 141.317 87.309 141.16 88.1778 140.922C91.1202 140.115 96.7112 138.657 97.2277 135.024C97.652 132.036 95.0139 130.272 92.7042 129.744C89.5842 129.028 86.9624 130.025 84.2274 130.716C81.5739 131.386 78.7218 131.971 76.0462 132.423L67.4072 133.264L62.8338 132.978C59.3758 132.452 56.3691 131.627 53.4056 129.894C52.7144 129.489 52.6875 129.141 51.859 129.019C51.4683 128.712 51.715 129.054 51.2792 128.52C51.453 129.145 50.8616 129.373 50.2002 130.202L47.6955 133.764C46.8421 134.945 46.8248 135.372 46.1806 136.472C42.0488 143.528 40.8795 155.958 44.805 163.506C45.5854 165.006 46.3093 166.684 47.3317 167.634L47.0168 167.563L47.0158 167.562Z" fill="#6CB6E3"/>
<path fill-rule="evenodd" clip-rule="evenodd" d="M63.5624 72.518C63.5624 76.9676 63.3867 77.2412 65.1713 81.2003L66.6171 83.5888C67.7173 85.0499 67.4149 84.6313 68.5582 85.6835C70.2171 87.2108 71.0609 87.8646 73.3342 88.7766C78.643 90.9078 83.9585 90.1177 88.4993 86.9603L90.6584 85.0835C91.2536 84.4595 91.8017 83.6588 92.3355 82.9264C92.9105 82.1392 93.3339 81.2435 93.7669 80.3219C95.9249 75.7254 95.1876 69.1811 92.25 65.2201C91.9409 64.8025 91.699 64.4963 91.364 64.0883C90.4155 62.9305 90.7131 63.1043 89.4785 62.1395C87.044 60.2368 87.3205 60.3097 84.2091 59.1356C77.7637 56.704 68.7694 59.9766 65.3086 66.7964C64.6366 68.1212 63.5633 70.671 63.5633 72.5171L63.5624 72.518Z" fill="#81CBF8"/>
<path fill-rule="evenodd" clip-rule="evenodd" d="M118.248 154.846C118.248 170.68 140.044 177.373 148.048 161.44C153.261 151.066 144.347 139.309 134.996 139.309C131.541 139.309 130.155 139.302 126.924 140.922C123.841 142.468 120.967 145.271 119.599 148.529C118.845 150.327 118.248 152.384 118.248 154.846Z" fill="#216B98"/>
<path fill-rule="evenodd" clip-rule="evenodd" d="M68.4057 155.096H68.1734C68.1407 155.126 68.1071 155.181 68.0927 155.202C64.6233 160.002 63.9762 166.897 66.8649 172.105L67.005 172.372C68.1762 174.555 70.9353 177.618 73.0406 178.646C72.8255 178.911 73.3746 178.867 72.6441 178.862C73.0511 179.378 73.4015 179.347 74.8799 179.651C75.8188 179.845 76.343 179.969 77.4009 180.157C83.4556 181.233 87.4502 181.686 94.0329 181.686V181.283C93.2236 181.216 92.4998 180.698 91.8623 180.225C89.8799 178.752 88.9391 175.673 89.2118 173.239C89.591 169.856 91.2508 166.3 92.7321 163.84C93.5654 162.454 94.4831 161.316 95.4153 160.066C97.9074 156.723 103.763 152.523 101.968 147.922C101.349 146.335 99.695 145.53 97.6281 146.135C91.1202 148.043 81.7526 162.533 72.3311 157.784L70.1087 156.375C69.4674 155.853 69.0028 155.332 68.4057 155.098V155.096Z" fill="#418BB8"/>
<path fill-rule="evenodd" clip-rule="evenodd" d="M66.4214 177.245C67.1059 177.648 68.4864 178.016 69.3888 178.279C70.2144 178.52 71.8214 179.135 72.6432 178.86C73.3738 178.865 72.8246 178.908 73.0397 178.644C70.9344 177.616 68.1754 174.555 67.0042 172.371L66.864 172.104C63.9754 166.896 64.6224 159.999 68.0918 155.2C68.1072 155.18 68.1398 155.124 68.1725 155.095C67.943 154.593 67.657 154.494 67.1078 153.926L65.5258 152.069C63.5069 150.352 65.1254 151.619 63.3475 149.819L62.2176 148.517C62.1878 148.488 62.1427 148.45 62.1149 148.42C62.0861 148.39 62.0467 148.346 62.0198 148.314C61.993 148.283 61.9584 148.234 61.9325 148.2L61.5955 147.722C61.2432 147.324 61.5648 147.694 61.2778 147.432C60.0086 146.272 61.4122 146.994 59.7466 145.951C57.3965 144.479 55.8038 144.273 54.4704 147.156C53.4672 149.326 53.5584 152.429 53.8675 154.858C54.671 161.179 57.0346 165.828 60.1594 170.557C60.5338 171.125 60.7104 171.269 61.1357 171.802L64.1453 175.249C64.6166 175.663 64.9296 175.848 65.4038 176.216C65.9741 176.658 65.904 176.792 66.4205 177.245H66.4214Z" fill="#2D77A5"/>
<path fill-rule="evenodd" clip-rule="evenodd" d="M97.6646 170.184C97.6646 172.554 98.3961 173.883 99.1334 175.608C99.4454 176.339 102.91 179.87 106.745 179.87C111.774 179.87 114.967 177.205 116.299 172.46C116.575 171.477 116.524 168.733 116.283 167.712C116.122 167.025 115.467 166.151 115.064 165.499L112.93 162.999C112.908 162.98 112.862 162.937 112.843 162.92L111.917 162.402C108.882 160.938 106.694 160.376 103.024 162.023L100.33 163.969C99.6969 164.721 98.1321 167.043 97.966 168.233L97.6655 170.184H97.6646Z" fill="#246E9B"/>
<path fill-rule="evenodd" clip-rule="evenodd" d="M55.3678 123.991C55.4043 124.038 55.461 124.046 55.4802 124.13C55.4984 124.212 55.5656 124.235 55.5896 124.267C55.6328 124.324 55.8814 124.653 55.8949 124.672C57.3243 123.453 57.1054 123.499 58.6645 122.511C62.8462 119.862 65.2942 118.584 70.267 116.958C71.2635 116.631 75.5672 115.547 75.9272 115.305C75.957 111.353 68.371 104.178 60.6354 107.734C51.4808 111.942 53.3864 122.133 55.3678 123.991Z" fill="#539DCA"/>
<path fill-rule="evenodd" clip-rule="evenodd" d="M55.3676 123.99L55.3657 124.646C56.7625 124.471 55.6364 124.574 56.0953 124.982C55.8208 126.654 65.7222 133.709 72.7964 126.548C75.6563 123.653 77.8892 118.342 75.8732 115.499L75.928 115.305C75.567 115.547 71.2643 116.63 70.2678 116.957C65.294 118.583 62.847 119.861 58.6652 122.51C57.1062 123.498 57.3251 123.452 55.8956 124.671C55.8822 124.653 55.6345 124.323 55.5904 124.266C55.5664 124.235 55.4992 124.212 55.4809 124.129C55.4627 124.045 55.406 124.037 55.3686 123.991L55.3676 123.99Z" fill="#6CB6E3"/>
<path fill-rule="evenodd" clip-rule="evenodd" d="M70.5215 152.224L70.6242 152.626C70.701 153.018 70.8767 153.087 71.4863 153.577C72.598 154.471 74.3365 155.204 75.716 155.405C80.2818 156.07 84.2783 153.256 85.4783 149.115C86.1282 146.875 85.7615 143.812 84.7516 142.428L84.5279 142.398C83.5592 142.221 81.1938 143.645 80.3173 144.123L78.7919 145.029C76.2565 146.298 74.2213 148.305 73.9602 148.48C72.3522 149.561 72.8917 149.56 71.6168 150.8C71.3058 151.102 70.6856 151.411 70.5215 152.224Z" fill="#418BB8"/>
<path fill-rule="evenodd" clip-rule="evenodd" d="M70.5213 152.224C70.6854 151.412 71.3056 151.103 71.6166 150.8C72.8915 149.561 72.352 149.563 73.96 148.481C74.2211 148.305 76.2563 146.299 78.7917 145.03L80.3171 144.124C81.1936 143.645 83.559 142.222 84.5277 142.398C84.1638 140.228 79.4761 137.052 75.1907 138.018C73.9513 138.297 72.8685 138.83 71.8643 139.54C70.3552 140.607 68.799 142.675 68.3411 145.293C68.1117 146.599 68.2365 148.074 68.656 149.34C68.9737 150.3 69.8569 152.03 70.5222 152.223L70.5213 152.224Z" fill="#2D77A5"/>
<path fill-rule="evenodd" clip-rule="evenodd" d="M116.23 173.815C116.25 173.835 116.29 173.727 116.29 173.755C116.286 173.758 116.21 173.795 116.23 173.815Z" fill="#E9F6FE"/>
</svg>
