<svg width="26" height="20" viewBox="0 0 26 20" fill="none" xmlns="http://www.w3.org/2000/svg">
<path fill-rule="evenodd" clip-rule="evenodd" d="M6.00537 18.1046C6.00537 18.9195 6.64726 19.4585 7.32447 19.4585H24.6809C25.1939 19.4585 25.578 19.1756 25.8205 18.7931C25.9475 18.5929 25.9884 18.446 26 18.287V17.8617V17.8009C25.9931 17.8081 25.9725 17.802 25.9184 17.6656C25.7332 17.1992 25.2799 16.8203 24.8197 16.8203H7.18553C6.76846 16.8203 6.29533 17.1845 6.10857 17.5831C6.04811 17.7122 6.00537 17.911 6.00537 18.1048V18.1046Z" fill="#3B85B2"/>
<path fill-rule="evenodd" clip-rule="evenodd" d="M6.00537 9.90972C6.00537 10.7368 6.53952 11.2982 7.2897 11.2982H24.7155C25.0975 11.2982 25.3336 11.1582 25.545 10.9821C25.6566 10.8892 25.7376 10.7958 25.8168 10.6637C25.8708 10.5735 25.8671 10.5829 25.909 10.4782C25.9215 10.4469 25.9342 10.4128 25.9484 10.3787C25.9932 10.2722 25.9993 10.3533 26 10.3125V10.2634V10.2568V10.0886C25.9976 9.70249 25.9632 9.35839 25.5575 8.99848C25.3503 8.81462 25.0258 8.66016 24.6463 8.66016H7.35923C6.65138 8.66016 6.00551 9.21602 6.00551 9.90985L6.00537 9.90972Z" fill="#3B85B2"/>
<path fill-rule="evenodd" clip-rule="evenodd" d="M6.00537 1.78876C6.00537 2.69243 6.60122 3.17725 7.49803 3.17725H24.5073C24.9583 3.17725 25.2374 3.09219 25.4999 2.88551C25.7326 2.70233 26 2.26891 26 2.06649V1.83273C25.996 1.48149 25.9524 1.27742 25.5751 0.894568C25.4074 0.724442 25.087 0.539062 24.8197 0.539062H7.2203C6.91949 0.539062 6.57292 0.718808 6.37888 0.91257C6.3044 0.987052 6.17838 1.17903 6.12314 1.28168C6.06529 1.38914 6.00537 1.6354 6.00537 1.78876Z" fill="#3B85B2"/>
<path fill-rule="evenodd" clip-rule="evenodd" d="M0 2.18551C0.00632132 2.29407 0.022262 2.39796 0.0593654 2.4925C0.312768 3.13865 0.882649 3.6974 1.56205 3.6974C2.19144 3.6974 2.54612 3.64326 3.01211 3.16875C3.83608 2.32966 3.58955 0.918908 2.54639 0.38723C2.31841 0.27111 2.09277 0.209408 1.87537 0.191406H1.60053C0.698231 0.26685 0 1.07172 0 1.75346V2.18551Z" fill="#3B85B2"/>
<path fill-rule="evenodd" clip-rule="evenodd" d="M0 17.8264C0 18.3936 0.00852003 18.7922 0.493338 19.277C0.786592 19.5702 1.14595 19.7281 1.51299 19.7702H1.92374C2.75129 19.6759 3.50613 19.0218 3.50613 18.0346C3.50613 17.5045 3.27348 17.0765 2.99974 16.8053C2.82948 16.6369 2.71459 16.5478 2.50063 16.4367C1.87716 16.113 1.01842 16.2676 0.546382 16.7409C0.279512 17.0085 0.000274841 17.4075 0.000274841 17.8262L0 17.8264Z" fill="#3B85B2"/>
<path fill-rule="evenodd" clip-rule="evenodd" d="M0 9.7735V9.80456C0 10.4502 0.00632131 10.7342 0.546107 11.2754C0.997669 11.728 1.81573 11.9016 2.45363 11.6024C2.55794 11.5535 2.62953 11.519 2.72256 11.4548L2.97542 11.2564C3.09071 11.1517 3.26853 10.8909 3.33257 10.7457C3.73466 9.83369 3.39524 8.91902 2.60246 8.45537C2.14513 8.18795 1.40869 8.14782 0.937754 8.42019C0.466129 8.69296 0 9.20169 0 9.7735Z" fill="#3B85B2"/>
</svg>
