<svg width="45" height="46" viewBox="0 0 45 46" fill="none" xmlns="http://www.w3.org/2000/svg">
<path fill-rule="evenodd" clip-rule="evenodd" d="M38.6873 34.0519C38.5322 34.0105 38.0828 33.5667 37.9075 33.41C37.7722 33.289 37.6953 33.1949 37.5652 33.0697L36.3884 32.0855C36.1092 31.8676 35.8577 31.6773 35.5707 31.4815C34.4675 30.7298 34.1019 30.5057 32.926 29.8611C32.604 29.6847 32.3093 29.5327 31.979 29.3865C29.7272 28.389 27.8497 27.803 25.3638 27.4713C23.5014 27.2226 21.5146 27.2226 19.6522 27.4713C18.7705 27.5889 17.581 27.8109 16.716 28.0612C16.4999 28.1236 16.3423 28.1467 16.1307 28.2151L14.5595 28.7479C11.6187 29.7847 9.00323 31.6139 6.75315 33.7375C6.56832 33.9121 6.63096 34.0269 6.32823 34.0519L5.10351 31.8642C3.68206 29.0397 3.08661 26.2034 3.08661 22.7915C3.08661 22.2535 3.13163 21.9207 3.14211 21.4255L3.30502 20.1668C3.70588 17.7974 4.36182 15.8772 5.49365 13.7681L6.57951 12.0103C6.7903 11.7188 6.97918 11.4787 7.18901 11.1981C7.52556 10.7482 8.82936 9.26625 9.25236 8.93946C9.73134 8.56957 10.1193 8.10369 10.832 7.61876C11.1252 7.41917 11.3679 7.22362 11.6618 7.02688L12.5383 6.48169C13.8216 5.67641 15.0277 5.19886 16.4359 4.69225C16.7857 4.56649 17.1792 4.46431 17.531 4.3657C19.1111 3.92341 19.787 3.95508 21.2435 3.75597C22.2791 3.61449 25.2666 3.82123 26.4806 4.118C26.8838 4.2166 27.2216 4.28877 27.6296 4.39095C28.0157 4.48765 28.3834 4.61913 28.7569 4.7425C29.8923 5.11764 30.7073 5.5223 31.731 6.03368C32.3627 6.34902 33.7577 7.26625 34.3162 7.71355L36.9245 10.1099C37.4776 10.8323 37.8663 11.1557 38.5287 12.1454C38.7278 12.4426 38.8947 12.722 39.0855 13.0104C40.336 14.9013 40.9998 16.983 41.5326 19.1509C41.5764 19.3288 41.5952 19.5692 41.6326 19.7333L41.9311 22.2785C41.9313 23.562 42.0275 24.0367 41.7903 25.6673C41.4576 27.9552 40.839 30.1905 39.7496 32.2139C39.6538 32.3916 39.5969 32.458 39.5023 32.6493L38.961 33.5865C38.8564 33.7485 38.7392 33.8585 38.6875 34.0524L38.6873 34.0519ZM20.932 0.668921H23.5641C24.5768 0.709888 25.5522 0.794918 26.2084 0.920439C28.3153 1.32368 30.3579 1.90626 32.2798 2.86779C32.5968 3.02642 32.884 3.15289 33.1889 3.32343L33.9439 3.77121C34.4968 4.14658 35.0967 4.45621 35.6329 4.86064C35.9096 5.06929 36.1524 5.24244 36.4124 5.44585L37.4931 6.35569C37.6319 6.46168 37.6905 6.52313 37.8203 6.65413C39.1644 8.01033 40.4453 9.40129 41.4633 11.03C41.9763 11.8507 42.4879 12.7232 42.885 13.589C43.1753 14.222 43.4437 14.8058 43.6712 15.4756C44.1411 16.8585 44.5539 18.2654 44.7637 19.729C44.9845 21.2693 44.9993 22.207 45 23.658V24.0746V24.156C45 26.459 44.4076 28.6779 43.6995 30.8177C43.4361 31.6137 43.0669 32.3773 42.7163 33.1328L41.0193 36.0424C40.5603 36.6909 40.0983 37.3509 39.554 37.9326L38.9386 38.6252C38.4694 39.233 37.8532 39.7646 37.2568 40.242C37.1153 40.3553 37.0548 40.4468 36.9002 40.568C34.7723 42.2334 32.699 43.4962 30.1819 44.4275L27.9104 45.1134C27.7868 45.1494 27.7944 45.1575 27.6941 45.1813C27.0961 45.3245 25.4021 45.6339 24.866 45.6515C24.5861 45.6608 24.4808 45.7668 24.3556 45.7668H20.659C20.4325 45.7668 20.6559 45.7239 20.4144 45.6701L19.5062 45.5545C18.3449 45.3914 17.2349 45.2056 16.1241 44.8422L14.8331 44.4268C13.6432 43.9852 12.4282 43.4536 11.3431 42.7983C9.94713 41.9554 8.55378 41.0751 7.39504 39.9218C7.24713 39.7746 7.16972 39.7458 7.02372 39.6108L4.75268 37.1047C3.63276 35.7882 2.4078 33.495 1.73709 31.9309C1.09067 30.4235 0.151288 27.2971 0.0724505 25.4062C0.0560161 25.0104 -0.00924508 24.5259 -0.0385412 24.1522C-0.115711 23.1685 0.00671294 22.5819 0.0140965 21.6523C0.0288636 19.8481 0.807949 16.742 1.51796 14.9668L2.36564 13.0847C2.45282 12.9106 2.50522 12.8039 2.59239 12.6291C2.68718 12.4395 2.74506 12.3712 2.83962 12.1937C3.4596 11.0316 4.19057 9.93339 5.03706 8.9316L8.09005 5.84266C8.21866 5.74333 8.33085 5.65426 8.4709 5.54088C8.61071 5.42775 8.70788 5.34724 8.84698 5.23458C8.98679 5.12145 9.0985 5.05976 9.2445 4.94972C9.76897 4.55506 10.3242 4.19064 10.8798 3.85529L12.6576 2.90328C12.7784 2.83659 12.7779 2.83064 12.8782 2.78253L13.5884 2.46908C14.4251 2.04703 15.7089 1.63283 16.6212 1.40728L20.0481 0.739423C20.2979 0.708221 20.5983 0.684403 20.932 0.667969V0.668921Z" fill="#BEBEBE"/>
<path fill-rule="evenodd" clip-rule="evenodd" d="M13.4937 15.1137C13.4937 16.8314 13.5768 18.0114 14.3652 19.5881C14.6455 20.1488 15.1866 21.0725 15.6115 21.5264L16.1255 22.0931C17.068 22.8895 17.3338 23.2047 18.6305 23.8535C22.5993 25.8392 27.7096 24.3432 30.0402 20.684C30.8269 19.4488 31.5217 17.7377 31.5217 16.251C31.5217 14.3248 31.4772 13.627 30.6888 11.8518C30.3089 10.9965 29.5972 9.97164 28.9484 9.32689C28.3651 8.74693 27.8587 8.3818 27.1663 7.92425C26.6533 7.58533 25.552 7.12683 24.9453 6.96058C24.675 6.88651 24.2932 6.80481 24.0557 6.76956C22.7748 6.57902 22.388 6.58116 21.1111 6.75051C19.2002 7.00393 17.5391 7.97165 16.1517 9.24115L15.1909 10.3846C14.3077 11.5867 13.4937 13.6167 13.4937 15.1139V15.1137Z" fill="#BEBEBE"/>
</svg>
