<svg width="37" height="37" viewBox="0 0 37 37" fill="none" xmlns="http://www.w3.org/2000/svg">
<path fill-rule="evenodd" clip-rule="evenodd" d="M14.3306 21.9498C14.5445 21.8554 16.0781 20.3931 16.4326 20.0782L17.9385 18.6236C18.1247 18.4535 18.2755 18.3314 18.4692 18.1639L25.6324 11.4971C26.0147 11.1671 26.2592 10.8589 26.6604 10.5493C28.5672 9.07758 31.3286 11.0921 30.3155 13.4283C29.9975 14.1619 28.5565 15.3393 27.8906 15.9451L18.1915 25.0143C17.7954 25.3838 17.5582 25.5534 17.1728 25.9698C16.8506 26.3177 16.5368 26.5295 16.1556 26.9283L14.1585 28.7554C13.9368 28.5559 13.8184 28.3689 13.5724 28.1514C13.3358 27.9421 13.1956 27.7612 12.9956 27.5274C12.7816 27.2771 12.6316 27.1653 12.4015 26.9241L10.1599 24.5076C9.98195 24.3004 9.82496 24.0947 9.62538 23.9121L6.20527 20.2775C5.88442 19.9042 5.44249 19.5411 5.24291 18.9107C4.79468 17.4944 5.66594 16.2684 6.68387 15.9052C7.308 15.6825 8.00241 15.7177 8.57746 15.9976C8.92696 16.1678 9.03926 16.2744 9.265 16.5116L10.9842 18.3198C11.5392 18.9592 14.0925 21.5978 14.33 21.9496L14.3306 21.9498ZM-0.0484462 17.4993C-0.0484462 20.1859 0.117135 21.6759 0.982667 24.1595C1.40321 25.3663 1.78689 26.0565 2.37455 27.1424C2.51091 27.3941 2.63638 27.5622 2.77733 27.7981C3.35658 28.7681 4.4532 30.0803 5.22591 30.8532C5.95814 31.5854 6.72684 32.2159 7.57156 32.8117C8.63189 33.5596 9.14296 33.8539 10.3228 34.4353C11.9941 35.2586 14.8942 36.1277 17.38 36.1277H17.4757C19.4677 36.1274 20.421 36.1094 22.433 35.6064C23.0404 35.4545 23.5434 35.2941 24.1106 35.0964C26.4253 34.2897 27.8457 33.2909 29.6579 31.894C33.2772 29.1044 36.0787 23.4479 36.0787 18.6989C36.0787 15.4409 35.6943 13.0943 34.4097 10.4187C32.4558 6.34902 29.6951 3.70716 25.7065 1.69325C23.7988 0.730126 20.8141 0 18.6501 0C15.9305 0 14.4463 0.150685 11.9193 1.03111C11.4157 1.20663 10.8265 1.43924 10.3702 1.66938L8.28068 2.82577C5.3172 4.59561 3.15777 7.3702 1.62055 10.419C0.653223 12.3375 -0.0488281 15.3281 -0.0488281 17.4991L-0.0484462 17.4993Z" fill="#3B85B2"/>
</svg>
